G04 #@! TF.GenerationSoftware,KiCad,Pcbnew,5.0.1*
G04 #@! TF.CreationDate,2019-01-30T23:47:21+01:00*
G04 #@! TF.ProjectId,kroneum,6B726F6E65756D2E6B696361645F7063,rev?*
G04 #@! TF.SameCoordinates,PXa3649d0PY7ed1d20*
G04 #@! TF.FileFunction,Copper,L1,Top,Signal*
G04 #@! TF.FilePolarity,Positive*
%FSLAX46Y46*%
G04 Gerber Fmt 4.6, Leading zero omitted, Abs format (unit mm)*
G04 Created by KiCad (PCBNEW 5.0.1) date Wed 30 Jan 2019 11:47:21 PM CET*
%MOMM*%
%LPD*%
G01*
G04 APERTURE LIST*
G04 #@! TA.AperFunction,Conductor*
%ADD10C,0.100000*%
G04 #@! TD*
G04 #@! TA.AperFunction,ComponentPad*
%ADD11C,1.000000*%
G04 #@! TD*
G04 #@! TA.AperFunction,SMDPad,CuDef*
%ADD12R,1.350000X0.400000*%
G04 #@! TD*
G04 #@! TA.AperFunction,ComponentPad*
%ADD13C,1.200000*%
G04 #@! TD*
G04 #@! TA.AperFunction,SMDPad,CuDef*
%ADD14C,0.850000*%
G04 #@! TD*
G04 #@! TA.AperFunction,SMDPad,CuDef*
%ADD15R,1.500000X1.000000*%
G04 #@! TD*
G04 #@! TA.AperFunction,SMDPad,CuDef*
%ADD16R,1.800000X1.000000*%
G04 #@! TD*
G04 #@! TA.AperFunction,SMDPad,CuDef*
%ADD17R,1.840000X2.200000*%
G04 #@! TD*
G04 #@! TA.AperFunction,SMDPad,CuDef*
%ADD18C,1.000000*%
G04 #@! TD*
G04 #@! TA.AperFunction,SMDPad,CuDef*
%ADD19R,0.850000X1.000000*%
G04 #@! TD*
G04 #@! TA.AperFunction,SMDPad,CuDef*
%ADD20C,1.150000*%
G04 #@! TD*
G04 #@! TA.AperFunction,SMDPad,CuDef*
%ADD21R,0.900000X0.800000*%
G04 #@! TD*
G04 #@! TA.AperFunction,SMDPad,CuDef*
%ADD22R,1.300000X3.400000*%
G04 #@! TD*
G04 #@! TA.AperFunction,SMDPad,CuDef*
%ADD23R,5.100000X2.500000*%
G04 #@! TD*
G04 #@! TA.AperFunction,BGAPad,CuDef*
%ADD24C,10.200000*%
G04 #@! TD*
G04 #@! TA.AperFunction,ComponentPad*
%ADD25R,1.700000X1.700000*%
G04 #@! TD*
G04 #@! TA.AperFunction,ComponentPad*
%ADD26O,1.700000X1.700000*%
G04 #@! TD*
G04 #@! TA.AperFunction,SMDPad,CuDef*
%ADD27R,1.450000X0.400000*%
G04 #@! TD*
G04 #@! TA.AperFunction,ViaPad*
%ADD28C,1.200000*%
G04 #@! TD*
G04 #@! TA.AperFunction,Conductor*
%ADD29C,0.406400*%
G04 #@! TD*
G04 #@! TA.AperFunction,Conductor*
%ADD30C,0.250000*%
G04 #@! TD*
G04 #@! TA.AperFunction,Conductor*
%ADD31C,0.762000*%
G04 #@! TD*
G04 #@! TA.AperFunction,Conductor*
%ADD32C,0.400000*%
G04 #@! TD*
G04 #@! TA.AperFunction,Conductor*
%ADD33C,0.508000*%
G04 #@! TD*
G04 APERTURE END LIST*
D10*
G04 #@! TO.N,*
G04 #@! TO.C,J1*
G36*
X-45142996Y30628796D02*
X-45118727Y30625196D01*
X-45094929Y30619235D01*
X-45071829Y30610970D01*
X-45049651Y30600480D01*
X-45028607Y30587867D01*
X-45008902Y30573253D01*
X-44990723Y30556777D01*
X-44974247Y30538598D01*
X-44959633Y30518893D01*
X-44947020Y30497849D01*
X-44936530Y30475671D01*
X-44928265Y30452571D01*
X-44922304Y30428773D01*
X-44918704Y30404504D01*
X-44917500Y30380000D01*
X-44917500Y29880000D01*
X-44918704Y29855496D01*
X-44922304Y29831227D01*
X-44928265Y29807429D01*
X-44936530Y29784329D01*
X-44947020Y29762151D01*
X-44959633Y29741107D01*
X-44974247Y29721402D01*
X-44990723Y29703223D01*
X-45008902Y29686747D01*
X-45028607Y29672133D01*
X-45049651Y29659520D01*
X-45071829Y29649030D01*
X-45094929Y29640765D01*
X-45118727Y29634804D01*
X-45142996Y29631204D01*
X-45167500Y29630000D01*
X-45667500Y29630000D01*
X-45692004Y29631204D01*
X-45716273Y29634804D01*
X-45740071Y29640765D01*
X-45763171Y29649030D01*
X-45785349Y29659520D01*
X-45806393Y29672133D01*
X-45826098Y29686747D01*
X-45844277Y29703223D01*
X-45860753Y29721402D01*
X-45875367Y29741107D01*
X-45887980Y29762151D01*
X-45898470Y29784329D01*
X-45906735Y29807429D01*
X-45912696Y29831227D01*
X-45916296Y29855496D01*
X-45917500Y29880000D01*
X-45917500Y30380000D01*
X-45916296Y30404504D01*
X-45912696Y30428773D01*
X-45906735Y30452571D01*
X-45898470Y30475671D01*
X-45887980Y30497849D01*
X-45875367Y30518893D01*
X-45860753Y30538598D01*
X-45844277Y30556777D01*
X-45826098Y30573253D01*
X-45806393Y30587867D01*
X-45785349Y30600480D01*
X-45763171Y30610970D01*
X-45740071Y30619235D01*
X-45716273Y30625196D01*
X-45692004Y30628796D01*
X-45667500Y30630000D01*
X-45167500Y30630000D01*
X-45142996Y30628796D01*
X-45142996Y30628796D01*
G37*
D11*
G04 #@! TD*
G04 #@! TO.P,J1,*
G04 #@! TO.N,*
X-45417500Y30130000D03*
D12*
G04 #@! TO.P,J1,2*
G04 #@! TO.N,USB_D-*
X-45417500Y28280000D03*
G04 #@! TO.P,J1,1*
G04 #@! TO.N,USB_VBUS*
X-45417500Y28930000D03*
G04 #@! TO.P,J1,5*
G04 #@! TO.N,GND*
X-45417500Y26330000D03*
G04 #@! TO.P,J1,4*
G04 #@! TO.N,Net-(J1-Pad4)*
X-45417500Y26980000D03*
G04 #@! TO.P,J1,3*
G04 #@! TO.N,USB_D+*
X-45417500Y27630000D03*
D10*
G04 #@! TD*
G04 #@! TO.N,*
G04 #@! TO.C,J1*
G36*
X-45142996Y25628796D02*
X-45118727Y25625196D01*
X-45094929Y25619235D01*
X-45071829Y25610970D01*
X-45049651Y25600480D01*
X-45028607Y25587867D01*
X-45008902Y25573253D01*
X-44990723Y25556777D01*
X-44974247Y25538598D01*
X-44959633Y25518893D01*
X-44947020Y25497849D01*
X-44936530Y25475671D01*
X-44928265Y25452571D01*
X-44922304Y25428773D01*
X-44918704Y25404504D01*
X-44917500Y25380000D01*
X-44917500Y24880000D01*
X-44918704Y24855496D01*
X-44922304Y24831227D01*
X-44928265Y24807429D01*
X-44936530Y24784329D01*
X-44947020Y24762151D01*
X-44959633Y24741107D01*
X-44974247Y24721402D01*
X-44990723Y24703223D01*
X-45008902Y24686747D01*
X-45028607Y24672133D01*
X-45049651Y24659520D01*
X-45071829Y24649030D01*
X-45094929Y24640765D01*
X-45118727Y24634804D01*
X-45142996Y24631204D01*
X-45167500Y24630000D01*
X-45667500Y24630000D01*
X-45692004Y24631204D01*
X-45716273Y24634804D01*
X-45740071Y24640765D01*
X-45763171Y24649030D01*
X-45785349Y24659520D01*
X-45806393Y24672133D01*
X-45826098Y24686747D01*
X-45844277Y24703223D01*
X-45860753Y24721402D01*
X-45875367Y24741107D01*
X-45887980Y24762151D01*
X-45898470Y24784329D01*
X-45906735Y24807429D01*
X-45912696Y24831227D01*
X-45916296Y24855496D01*
X-45917500Y24880000D01*
X-45917500Y25380000D01*
X-45916296Y25404504D01*
X-45912696Y25428773D01*
X-45906735Y25452571D01*
X-45898470Y25475671D01*
X-45887980Y25497849D01*
X-45875367Y25518893D01*
X-45860753Y25538598D01*
X-45844277Y25556777D01*
X-45826098Y25573253D01*
X-45806393Y25587867D01*
X-45785349Y25600480D01*
X-45763171Y25610970D01*
X-45740071Y25619235D01*
X-45716273Y25625196D01*
X-45692004Y25628796D01*
X-45667500Y25630000D01*
X-45167500Y25630000D01*
X-45142996Y25628796D01*
X-45142996Y25628796D01*
G37*
D11*
G04 #@! TO.P,J1,*
G04 #@! TO.N,*
X-45417500Y25130000D03*
D10*
G04 #@! TD*
G04 #@! TO.N,Net-(J1-Pad6)*
G04 #@! TO.C,J1*
G36*
X-47438095Y31728555D02*
X-47408973Y31724236D01*
X-47380415Y31717082D01*
X-47352695Y31707164D01*
X-47326081Y31694576D01*
X-47300829Y31679441D01*
X-47277182Y31661903D01*
X-47255368Y31642132D01*
X-47235597Y31620318D01*
X-47218059Y31596671D01*
X-47202924Y31571419D01*
X-47190336Y31544805D01*
X-47180418Y31517085D01*
X-47173264Y31488527D01*
X-47168945Y31459405D01*
X-47167500Y31430000D01*
X-47167500Y30830000D01*
X-47168945Y30800595D01*
X-47173264Y30771473D01*
X-47180418Y30742915D01*
X-47190336Y30715195D01*
X-47202924Y30688581D01*
X-47218059Y30663329D01*
X-47235597Y30639682D01*
X-47255368Y30617868D01*
X-47277182Y30598097D01*
X-47300829Y30580559D01*
X-47326081Y30565424D01*
X-47352695Y30552836D01*
X-47380415Y30542918D01*
X-47408973Y30535764D01*
X-47438095Y30531445D01*
X-47467500Y30530000D01*
X-48767500Y30530000D01*
X-48796905Y30531445D01*
X-48826027Y30535764D01*
X-48854585Y30542918D01*
X-48882305Y30552836D01*
X-48908919Y30565424D01*
X-48934171Y30580559D01*
X-48957818Y30598097D01*
X-48979632Y30617868D01*
X-48999403Y30639682D01*
X-49016941Y30663329D01*
X-49032076Y30688581D01*
X-49044664Y30715195D01*
X-49054582Y30742915D01*
X-49061736Y30771473D01*
X-49066055Y30800595D01*
X-49067500Y30830000D01*
X-49067500Y31430000D01*
X-49066055Y31459405D01*
X-49061736Y31488527D01*
X-49054582Y31517085D01*
X-49044664Y31544805D01*
X-49032076Y31571419D01*
X-49016941Y31596671D01*
X-48999403Y31620318D01*
X-48979632Y31642132D01*
X-48957818Y31661903D01*
X-48934171Y31679441D01*
X-48908919Y31694576D01*
X-48882305Y31707164D01*
X-48854585Y31717082D01*
X-48826027Y31724236D01*
X-48796905Y31728555D01*
X-48767500Y31730000D01*
X-47467500Y31730000D01*
X-47438095Y31728555D01*
X-47438095Y31728555D01*
G37*
D13*
G04 #@! TO.P,J1,6*
G04 #@! TO.N,Net-(J1-Pad6)*
X-48117500Y31130000D03*
D10*
G04 #@! TD*
G04 #@! TO.N,Net-(J1-Pad6)*
G04 #@! TO.C,J1*
G36*
X-47438095Y24728555D02*
X-47408973Y24724236D01*
X-47380415Y24717082D01*
X-47352695Y24707164D01*
X-47326081Y24694576D01*
X-47300829Y24679441D01*
X-47277182Y24661903D01*
X-47255368Y24642132D01*
X-47235597Y24620318D01*
X-47218059Y24596671D01*
X-47202924Y24571419D01*
X-47190336Y24544805D01*
X-47180418Y24517085D01*
X-47173264Y24488527D01*
X-47168945Y24459405D01*
X-47167500Y24430000D01*
X-47167500Y23830000D01*
X-47168945Y23800595D01*
X-47173264Y23771473D01*
X-47180418Y23742915D01*
X-47190336Y23715195D01*
X-47202924Y23688581D01*
X-47218059Y23663329D01*
X-47235597Y23639682D01*
X-47255368Y23617868D01*
X-47277182Y23598097D01*
X-47300829Y23580559D01*
X-47326081Y23565424D01*
X-47352695Y23552836D01*
X-47380415Y23542918D01*
X-47408973Y23535764D01*
X-47438095Y23531445D01*
X-47467500Y23530000D01*
X-48767500Y23530000D01*
X-48796905Y23531445D01*
X-48826027Y23535764D01*
X-48854585Y23542918D01*
X-48882305Y23552836D01*
X-48908919Y23565424D01*
X-48934171Y23580559D01*
X-48957818Y23598097D01*
X-48979632Y23617868D01*
X-48999403Y23639682D01*
X-49016941Y23663329D01*
X-49032076Y23688581D01*
X-49044664Y23715195D01*
X-49054582Y23742915D01*
X-49061736Y23771473D01*
X-49066055Y23800595D01*
X-49067500Y23830000D01*
X-49067500Y24430000D01*
X-49066055Y24459405D01*
X-49061736Y24488527D01*
X-49054582Y24517085D01*
X-49044664Y24544805D01*
X-49032076Y24571419D01*
X-49016941Y24596671D01*
X-48999403Y24620318D01*
X-48979632Y24642132D01*
X-48957818Y24661903D01*
X-48934171Y24679441D01*
X-48908919Y24694576D01*
X-48882305Y24707164D01*
X-48854585Y24717082D01*
X-48826027Y24724236D01*
X-48796905Y24728555D01*
X-48767500Y24730000D01*
X-47467500Y24730000D01*
X-47438095Y24728555D01*
X-47438095Y24728555D01*
G37*
D13*
G04 #@! TO.P,J1,6*
G04 #@! TO.N,Net-(J1-Pad6)*
X-48117500Y24130000D03*
G04 #@! TD*
D14*
G04 #@! TO.P,L1,2*
G04 #@! TO.N,USB_VBUS*
X-35743000Y30410000D03*
D10*
G04 #@! TD*
G04 #@! TO.N,USB_VBUS*
G04 #@! TO.C,L1*
G36*
X-36168000Y31510000D02*
X-35318000Y30910000D01*
X-35318000Y29910000D01*
X-36168000Y29310000D01*
X-36168000Y31510000D01*
X-36168000Y31510000D01*
G37*
D15*
G04 #@! TO.P,L1,1*
G04 #@! TO.N,GND*
X-39890000Y31910000D03*
D16*
G04 #@! TO.P,L1,2*
G04 #@! TO.N,USB_VBUS*
X-39743500Y30410000D03*
D15*
G04 #@! TO.P,L1,3*
G04 #@! TO.N,Net-(D1-Pad1)*
X-39890000Y28910000D03*
D17*
G04 #@! TO.P,L1,2*
G04 #@! TO.N,USB_VBUS*
X-37076500Y30410000D03*
D18*
X-38486200Y30410000D03*
D10*
G04 #@! TD*
G04 #@! TO.N,USB_VBUS*
G04 #@! TO.C,L1*
G36*
X-37986200Y29310000D02*
X-38986200Y30010000D01*
X-38986200Y30810000D01*
X-37986200Y31510000D01*
X-37986200Y29310000D01*
X-37986200Y29310000D01*
G37*
D19*
G04 #@! TO.P,SW2,1*
G04 #@! TO.N,Ctrl_One*
X-10130000Y13880000D03*
X-3830000Y13880000D03*
G04 #@! TO.P,SW2,2*
G04 #@! TO.N,VDD*
X-10130000Y10080000D03*
X-3830000Y10080000D03*
G04 #@! TD*
D10*
G04 #@! TO.N,GND*
G04 #@! TO.C,C1*
G36*
X-32485495Y27098796D02*
X-32461227Y27095196D01*
X-32437428Y27089235D01*
X-32414329Y27080970D01*
X-32392150Y27070480D01*
X-32371107Y27057868D01*
X-32351401Y27043253D01*
X-32333223Y27026777D01*
X-32316747Y27008599D01*
X-32302132Y26988893D01*
X-32289520Y26967850D01*
X-32279030Y26945671D01*
X-32270765Y26922572D01*
X-32264804Y26898773D01*
X-32261204Y26874505D01*
X-32260000Y26850001D01*
X-32260000Y26199999D01*
X-32261204Y26175495D01*
X-32264804Y26151227D01*
X-32270765Y26127428D01*
X-32279030Y26104329D01*
X-32289520Y26082150D01*
X-32302132Y26061107D01*
X-32316747Y26041401D01*
X-32333223Y26023223D01*
X-32351401Y26006747D01*
X-32371107Y25992132D01*
X-32392150Y25979520D01*
X-32414329Y25969030D01*
X-32437428Y25960765D01*
X-32461227Y25954804D01*
X-32485495Y25951204D01*
X-32509999Y25950000D01*
X-33410001Y25950000D01*
X-33434505Y25951204D01*
X-33458773Y25954804D01*
X-33482572Y25960765D01*
X-33505671Y25969030D01*
X-33527850Y25979520D01*
X-33548893Y25992132D01*
X-33568599Y26006747D01*
X-33586777Y26023223D01*
X-33603253Y26041401D01*
X-33617868Y26061107D01*
X-33630480Y26082150D01*
X-33640970Y26104329D01*
X-33649235Y26127428D01*
X-33655196Y26151227D01*
X-33658796Y26175495D01*
X-33660000Y26199999D01*
X-33660000Y26850001D01*
X-33658796Y26874505D01*
X-33655196Y26898773D01*
X-33649235Y26922572D01*
X-33640970Y26945671D01*
X-33630480Y26967850D01*
X-33617868Y26988893D01*
X-33603253Y27008599D01*
X-33586777Y27026777D01*
X-33568599Y27043253D01*
X-33548893Y27057868D01*
X-33527850Y27070480D01*
X-33505671Y27080970D01*
X-33482572Y27089235D01*
X-33458773Y27095196D01*
X-33434505Y27098796D01*
X-33410001Y27100000D01*
X-32509999Y27100000D01*
X-32485495Y27098796D01*
X-32485495Y27098796D01*
G37*
D20*
G04 #@! TD*
G04 #@! TO.P,C1,2*
G04 #@! TO.N,GND*
X-32960000Y26525000D03*
D10*
G04 #@! TO.N,VDD*
G04 #@! TO.C,C1*
G36*
X-32485495Y25048796D02*
X-32461227Y25045196D01*
X-32437428Y25039235D01*
X-32414329Y25030970D01*
X-32392150Y25020480D01*
X-32371107Y25007868D01*
X-32351401Y24993253D01*
X-32333223Y24976777D01*
X-32316747Y24958599D01*
X-32302132Y24938893D01*
X-32289520Y24917850D01*
X-32279030Y24895671D01*
X-32270765Y24872572D01*
X-32264804Y24848773D01*
X-32261204Y24824505D01*
X-32260000Y24800001D01*
X-32260000Y24149999D01*
X-32261204Y24125495D01*
X-32264804Y24101227D01*
X-32270765Y24077428D01*
X-32279030Y24054329D01*
X-32289520Y24032150D01*
X-32302132Y24011107D01*
X-32316747Y23991401D01*
X-32333223Y23973223D01*
X-32351401Y23956747D01*
X-32371107Y23942132D01*
X-32392150Y23929520D01*
X-32414329Y23919030D01*
X-32437428Y23910765D01*
X-32461227Y23904804D01*
X-32485495Y23901204D01*
X-32509999Y23900000D01*
X-33410001Y23900000D01*
X-33434505Y23901204D01*
X-33458773Y23904804D01*
X-33482572Y23910765D01*
X-33505671Y23919030D01*
X-33527850Y23929520D01*
X-33548893Y23942132D01*
X-33568599Y23956747D01*
X-33586777Y23973223D01*
X-33603253Y23991401D01*
X-33617868Y24011107D01*
X-33630480Y24032150D01*
X-33640970Y24054329D01*
X-33649235Y24077428D01*
X-33655196Y24101227D01*
X-33658796Y24125495D01*
X-33660000Y24149999D01*
X-33660000Y24800001D01*
X-33658796Y24824505D01*
X-33655196Y24848773D01*
X-33649235Y24872572D01*
X-33640970Y24895671D01*
X-33630480Y24917850D01*
X-33617868Y24938893D01*
X-33603253Y24958599D01*
X-33586777Y24976777D01*
X-33568599Y24993253D01*
X-33548893Y25007868D01*
X-33527850Y25020480D01*
X-33505671Y25030970D01*
X-33482572Y25039235D01*
X-33458773Y25045196D01*
X-33434505Y25048796D01*
X-33410001Y25050000D01*
X-32509999Y25050000D01*
X-32485495Y25048796D01*
X-32485495Y25048796D01*
G37*
D20*
G04 #@! TD*
G04 #@! TO.P,C1,1*
G04 #@! TO.N,VDD*
X-32960000Y24475000D03*
D10*
G04 #@! TO.N,VDD*
G04 #@! TO.C,C3*
G36*
X-34945495Y25048796D02*
X-34921227Y25045196D01*
X-34897428Y25039235D01*
X-34874329Y25030970D01*
X-34852150Y25020480D01*
X-34831107Y25007868D01*
X-34811401Y24993253D01*
X-34793223Y24976777D01*
X-34776747Y24958599D01*
X-34762132Y24938893D01*
X-34749520Y24917850D01*
X-34739030Y24895671D01*
X-34730765Y24872572D01*
X-34724804Y24848773D01*
X-34721204Y24824505D01*
X-34720000Y24800001D01*
X-34720000Y24149999D01*
X-34721204Y24125495D01*
X-34724804Y24101227D01*
X-34730765Y24077428D01*
X-34739030Y24054329D01*
X-34749520Y24032150D01*
X-34762132Y24011107D01*
X-34776747Y23991401D01*
X-34793223Y23973223D01*
X-34811401Y23956747D01*
X-34831107Y23942132D01*
X-34852150Y23929520D01*
X-34874329Y23919030D01*
X-34897428Y23910765D01*
X-34921227Y23904804D01*
X-34945495Y23901204D01*
X-34969999Y23900000D01*
X-35870001Y23900000D01*
X-35894505Y23901204D01*
X-35918773Y23904804D01*
X-35942572Y23910765D01*
X-35965671Y23919030D01*
X-35987850Y23929520D01*
X-36008893Y23942132D01*
X-36028599Y23956747D01*
X-36046777Y23973223D01*
X-36063253Y23991401D01*
X-36077868Y24011107D01*
X-36090480Y24032150D01*
X-36100970Y24054329D01*
X-36109235Y24077428D01*
X-36115196Y24101227D01*
X-36118796Y24125495D01*
X-36120000Y24149999D01*
X-36120000Y24800001D01*
X-36118796Y24824505D01*
X-36115196Y24848773D01*
X-36109235Y24872572D01*
X-36100970Y24895671D01*
X-36090480Y24917850D01*
X-36077868Y24938893D01*
X-36063253Y24958599D01*
X-36046777Y24976777D01*
X-36028599Y24993253D01*
X-36008893Y25007868D01*
X-35987850Y25020480D01*
X-35965671Y25030970D01*
X-35942572Y25039235D01*
X-35918773Y25045196D01*
X-35894505Y25048796D01*
X-35870001Y25050000D01*
X-34969999Y25050000D01*
X-34945495Y25048796D01*
X-34945495Y25048796D01*
G37*
D20*
G04 #@! TD*
G04 #@! TO.P,C3,1*
G04 #@! TO.N,VDD*
X-35420000Y24475000D03*
D10*
G04 #@! TO.N,GND*
G04 #@! TO.C,C3*
G36*
X-34945495Y27098796D02*
X-34921227Y27095196D01*
X-34897428Y27089235D01*
X-34874329Y27080970D01*
X-34852150Y27070480D01*
X-34831107Y27057868D01*
X-34811401Y27043253D01*
X-34793223Y27026777D01*
X-34776747Y27008599D01*
X-34762132Y26988893D01*
X-34749520Y26967850D01*
X-34739030Y26945671D01*
X-34730765Y26922572D01*
X-34724804Y26898773D01*
X-34721204Y26874505D01*
X-34720000Y26850001D01*
X-34720000Y26199999D01*
X-34721204Y26175495D01*
X-34724804Y26151227D01*
X-34730765Y26127428D01*
X-34739030Y26104329D01*
X-34749520Y26082150D01*
X-34762132Y26061107D01*
X-34776747Y26041401D01*
X-34793223Y26023223D01*
X-34811401Y26006747D01*
X-34831107Y25992132D01*
X-34852150Y25979520D01*
X-34874329Y25969030D01*
X-34897428Y25960765D01*
X-34921227Y25954804D01*
X-34945495Y25951204D01*
X-34969999Y25950000D01*
X-35870001Y25950000D01*
X-35894505Y25951204D01*
X-35918773Y25954804D01*
X-35942572Y25960765D01*
X-35965671Y25969030D01*
X-35987850Y25979520D01*
X-36008893Y25992132D01*
X-36028599Y26006747D01*
X-36046777Y26023223D01*
X-36063253Y26041401D01*
X-36077868Y26061107D01*
X-36090480Y26082150D01*
X-36100970Y26104329D01*
X-36109235Y26127428D01*
X-36115196Y26151227D01*
X-36118796Y26175495D01*
X-36120000Y26199999D01*
X-36120000Y26850001D01*
X-36118796Y26874505D01*
X-36115196Y26898773D01*
X-36109235Y26922572D01*
X-36100970Y26945671D01*
X-36090480Y26967850D01*
X-36077868Y26988893D01*
X-36063253Y27008599D01*
X-36046777Y27026777D01*
X-36028599Y27043253D01*
X-36008893Y27057868D01*
X-35987850Y27070480D01*
X-35965671Y27080970D01*
X-35942572Y27089235D01*
X-35918773Y27095196D01*
X-35894505Y27098796D01*
X-35870001Y27100000D01*
X-34969999Y27100000D01*
X-34945495Y27098796D01*
X-34945495Y27098796D01*
G37*
D20*
G04 #@! TD*
G04 #@! TO.P,C3,2*
G04 #@! TO.N,GND*
X-35420000Y26525000D03*
D10*
G04 #@! TO.N,NRST*
G04 #@! TO.C,C7*
G36*
X-33655495Y7578796D02*
X-33631227Y7575196D01*
X-33607428Y7569235D01*
X-33584329Y7560970D01*
X-33562150Y7550480D01*
X-33541107Y7537868D01*
X-33521401Y7523253D01*
X-33503223Y7506777D01*
X-33486747Y7488599D01*
X-33472132Y7468893D01*
X-33459520Y7447850D01*
X-33449030Y7425671D01*
X-33440765Y7402572D01*
X-33434804Y7378773D01*
X-33431204Y7354505D01*
X-33430000Y7330001D01*
X-33430000Y6679999D01*
X-33431204Y6655495D01*
X-33434804Y6631227D01*
X-33440765Y6607428D01*
X-33449030Y6584329D01*
X-33459520Y6562150D01*
X-33472132Y6541107D01*
X-33486747Y6521401D01*
X-33503223Y6503223D01*
X-33521401Y6486747D01*
X-33541107Y6472132D01*
X-33562150Y6459520D01*
X-33584329Y6449030D01*
X-33607428Y6440765D01*
X-33631227Y6434804D01*
X-33655495Y6431204D01*
X-33679999Y6430000D01*
X-34580001Y6430000D01*
X-34604505Y6431204D01*
X-34628773Y6434804D01*
X-34652572Y6440765D01*
X-34675671Y6449030D01*
X-34697850Y6459520D01*
X-34718893Y6472132D01*
X-34738599Y6486747D01*
X-34756777Y6503223D01*
X-34773253Y6521401D01*
X-34787868Y6541107D01*
X-34800480Y6562150D01*
X-34810970Y6584329D01*
X-34819235Y6607428D01*
X-34825196Y6631227D01*
X-34828796Y6655495D01*
X-34830000Y6679999D01*
X-34830000Y7330001D01*
X-34828796Y7354505D01*
X-34825196Y7378773D01*
X-34819235Y7402572D01*
X-34810970Y7425671D01*
X-34800480Y7447850D01*
X-34787868Y7468893D01*
X-34773253Y7488599D01*
X-34756777Y7506777D01*
X-34738599Y7523253D01*
X-34718893Y7537868D01*
X-34697850Y7550480D01*
X-34675671Y7560970D01*
X-34652572Y7569235D01*
X-34628773Y7575196D01*
X-34604505Y7578796D01*
X-34580001Y7580000D01*
X-33679999Y7580000D01*
X-33655495Y7578796D01*
X-33655495Y7578796D01*
G37*
D20*
G04 #@! TD*
G04 #@! TO.P,C7,1*
G04 #@! TO.N,NRST*
X-34130000Y7005000D03*
D10*
G04 #@! TO.N,GND*
G04 #@! TO.C,C7*
G36*
X-33655495Y5528796D02*
X-33631227Y5525196D01*
X-33607428Y5519235D01*
X-33584329Y5510970D01*
X-33562150Y5500480D01*
X-33541107Y5487868D01*
X-33521401Y5473253D01*
X-33503223Y5456777D01*
X-33486747Y5438599D01*
X-33472132Y5418893D01*
X-33459520Y5397850D01*
X-33449030Y5375671D01*
X-33440765Y5352572D01*
X-33434804Y5328773D01*
X-33431204Y5304505D01*
X-33430000Y5280001D01*
X-33430000Y4629999D01*
X-33431204Y4605495D01*
X-33434804Y4581227D01*
X-33440765Y4557428D01*
X-33449030Y4534329D01*
X-33459520Y4512150D01*
X-33472132Y4491107D01*
X-33486747Y4471401D01*
X-33503223Y4453223D01*
X-33521401Y4436747D01*
X-33541107Y4422132D01*
X-33562150Y4409520D01*
X-33584329Y4399030D01*
X-33607428Y4390765D01*
X-33631227Y4384804D01*
X-33655495Y4381204D01*
X-33679999Y4380000D01*
X-34580001Y4380000D01*
X-34604505Y4381204D01*
X-34628773Y4384804D01*
X-34652572Y4390765D01*
X-34675671Y4399030D01*
X-34697850Y4409520D01*
X-34718893Y4422132D01*
X-34738599Y4436747D01*
X-34756777Y4453223D01*
X-34773253Y4471401D01*
X-34787868Y4491107D01*
X-34800480Y4512150D01*
X-34810970Y4534329D01*
X-34819235Y4557428D01*
X-34825196Y4581227D01*
X-34828796Y4605495D01*
X-34830000Y4629999D01*
X-34830000Y5280001D01*
X-34828796Y5304505D01*
X-34825196Y5328773D01*
X-34819235Y5352572D01*
X-34810970Y5375671D01*
X-34800480Y5397850D01*
X-34787868Y5418893D01*
X-34773253Y5438599D01*
X-34756777Y5456777D01*
X-34738599Y5473253D01*
X-34718893Y5487868D01*
X-34697850Y5500480D01*
X-34675671Y5510970D01*
X-34652572Y5519235D01*
X-34628773Y5525196D01*
X-34604505Y5528796D01*
X-34580001Y5530000D01*
X-33679999Y5530000D01*
X-33655495Y5528796D01*
X-33655495Y5528796D01*
G37*
D20*
G04 #@! TD*
G04 #@! TO.P,C7,2*
G04 #@! TO.N,GND*
X-34130000Y4955000D03*
D10*
G04 #@! TO.N,VDD*
G04 #@! TO.C,C8*
G36*
X-11855495Y11528796D02*
X-11831227Y11525196D01*
X-11807428Y11519235D01*
X-11784329Y11510970D01*
X-11762150Y11500480D01*
X-11741107Y11487868D01*
X-11721401Y11473253D01*
X-11703223Y11456777D01*
X-11686747Y11438599D01*
X-11672132Y11418893D01*
X-11659520Y11397850D01*
X-11649030Y11375671D01*
X-11640765Y11352572D01*
X-11634804Y11328773D01*
X-11631204Y11304505D01*
X-11630000Y11280001D01*
X-11630000Y10629999D01*
X-11631204Y10605495D01*
X-11634804Y10581227D01*
X-11640765Y10557428D01*
X-11649030Y10534329D01*
X-11659520Y10512150D01*
X-11672132Y10491107D01*
X-11686747Y10471401D01*
X-11703223Y10453223D01*
X-11721401Y10436747D01*
X-11741107Y10422132D01*
X-11762150Y10409520D01*
X-11784329Y10399030D01*
X-11807428Y10390765D01*
X-11831227Y10384804D01*
X-11855495Y10381204D01*
X-11879999Y10380000D01*
X-12780001Y10380000D01*
X-12804505Y10381204D01*
X-12828773Y10384804D01*
X-12852572Y10390765D01*
X-12875671Y10399030D01*
X-12897850Y10409520D01*
X-12918893Y10422132D01*
X-12938599Y10436747D01*
X-12956777Y10453223D01*
X-12973253Y10471401D01*
X-12987868Y10491107D01*
X-13000480Y10512150D01*
X-13010970Y10534329D01*
X-13019235Y10557428D01*
X-13025196Y10581227D01*
X-13028796Y10605495D01*
X-13030000Y10629999D01*
X-13030000Y11280001D01*
X-13028796Y11304505D01*
X-13025196Y11328773D01*
X-13019235Y11352572D01*
X-13010970Y11375671D01*
X-13000480Y11397850D01*
X-12987868Y11418893D01*
X-12973253Y11438599D01*
X-12956777Y11456777D01*
X-12938599Y11473253D01*
X-12918893Y11487868D01*
X-12897850Y11500480D01*
X-12875671Y11510970D01*
X-12852572Y11519235D01*
X-12828773Y11525196D01*
X-12804505Y11528796D01*
X-12780001Y11530000D01*
X-11879999Y11530000D01*
X-11855495Y11528796D01*
X-11855495Y11528796D01*
G37*
D20*
G04 #@! TD*
G04 #@! TO.P,C8,1*
G04 #@! TO.N,VDD*
X-12330000Y10955000D03*
D10*
G04 #@! TO.N,Ctrl_One*
G04 #@! TO.C,C8*
G36*
X-11855495Y13578796D02*
X-11831227Y13575196D01*
X-11807428Y13569235D01*
X-11784329Y13560970D01*
X-11762150Y13550480D01*
X-11741107Y13537868D01*
X-11721401Y13523253D01*
X-11703223Y13506777D01*
X-11686747Y13488599D01*
X-11672132Y13468893D01*
X-11659520Y13447850D01*
X-11649030Y13425671D01*
X-11640765Y13402572D01*
X-11634804Y13378773D01*
X-11631204Y13354505D01*
X-11630000Y13330001D01*
X-11630000Y12679999D01*
X-11631204Y12655495D01*
X-11634804Y12631227D01*
X-11640765Y12607428D01*
X-11649030Y12584329D01*
X-11659520Y12562150D01*
X-11672132Y12541107D01*
X-11686747Y12521401D01*
X-11703223Y12503223D01*
X-11721401Y12486747D01*
X-11741107Y12472132D01*
X-11762150Y12459520D01*
X-11784329Y12449030D01*
X-11807428Y12440765D01*
X-11831227Y12434804D01*
X-11855495Y12431204D01*
X-11879999Y12430000D01*
X-12780001Y12430000D01*
X-12804505Y12431204D01*
X-12828773Y12434804D01*
X-12852572Y12440765D01*
X-12875671Y12449030D01*
X-12897850Y12459520D01*
X-12918893Y12472132D01*
X-12938599Y12486747D01*
X-12956777Y12503223D01*
X-12973253Y12521401D01*
X-12987868Y12541107D01*
X-13000480Y12562150D01*
X-13010970Y12584329D01*
X-13019235Y12607428D01*
X-13025196Y12631227D01*
X-13028796Y12655495D01*
X-13030000Y12679999D01*
X-13030000Y13330001D01*
X-13028796Y13354505D01*
X-13025196Y13378773D01*
X-13019235Y13402572D01*
X-13010970Y13425671D01*
X-13000480Y13447850D01*
X-12987868Y13468893D01*
X-12973253Y13488599D01*
X-12956777Y13506777D01*
X-12938599Y13523253D01*
X-12918893Y13537868D01*
X-12897850Y13550480D01*
X-12875671Y13560970D01*
X-12852572Y13569235D01*
X-12828773Y13575196D01*
X-12804505Y13578796D01*
X-12780001Y13580000D01*
X-11879999Y13580000D01*
X-11855495Y13578796D01*
X-11855495Y13578796D01*
G37*
D20*
G04 #@! TD*
G04 #@! TO.P,C8,2*
G04 #@! TO.N,Ctrl_One*
X-12330000Y13005000D03*
D10*
G04 #@! TO.N,Ctrl_Ten*
G04 #@! TO.C,C9*
G36*
X-11855495Y29578796D02*
X-11831227Y29575196D01*
X-11807428Y29569235D01*
X-11784329Y29560970D01*
X-11762150Y29550480D01*
X-11741107Y29537868D01*
X-11721401Y29523253D01*
X-11703223Y29506777D01*
X-11686747Y29488599D01*
X-11672132Y29468893D01*
X-11659520Y29447850D01*
X-11649030Y29425671D01*
X-11640765Y29402572D01*
X-11634804Y29378773D01*
X-11631204Y29354505D01*
X-11630000Y29330001D01*
X-11630000Y28679999D01*
X-11631204Y28655495D01*
X-11634804Y28631227D01*
X-11640765Y28607428D01*
X-11649030Y28584329D01*
X-11659520Y28562150D01*
X-11672132Y28541107D01*
X-11686747Y28521401D01*
X-11703223Y28503223D01*
X-11721401Y28486747D01*
X-11741107Y28472132D01*
X-11762150Y28459520D01*
X-11784329Y28449030D01*
X-11807428Y28440765D01*
X-11831227Y28434804D01*
X-11855495Y28431204D01*
X-11879999Y28430000D01*
X-12780001Y28430000D01*
X-12804505Y28431204D01*
X-12828773Y28434804D01*
X-12852572Y28440765D01*
X-12875671Y28449030D01*
X-12897850Y28459520D01*
X-12918893Y28472132D01*
X-12938599Y28486747D01*
X-12956777Y28503223D01*
X-12973253Y28521401D01*
X-12987868Y28541107D01*
X-13000480Y28562150D01*
X-13010970Y28584329D01*
X-13019235Y28607428D01*
X-13025196Y28631227D01*
X-13028796Y28655495D01*
X-13030000Y28679999D01*
X-13030000Y29330001D01*
X-13028796Y29354505D01*
X-13025196Y29378773D01*
X-13019235Y29402572D01*
X-13010970Y29425671D01*
X-13000480Y29447850D01*
X-12987868Y29468893D01*
X-12973253Y29488599D01*
X-12956777Y29506777D01*
X-12938599Y29523253D01*
X-12918893Y29537868D01*
X-12897850Y29550480D01*
X-12875671Y29560970D01*
X-12852572Y29569235D01*
X-12828773Y29575196D01*
X-12804505Y29578796D01*
X-12780001Y29580000D01*
X-11879999Y29580000D01*
X-11855495Y29578796D01*
X-11855495Y29578796D01*
G37*
D20*
G04 #@! TD*
G04 #@! TO.P,C9,2*
G04 #@! TO.N,Ctrl_Ten*
X-12330000Y29005000D03*
D10*
G04 #@! TO.N,VDD*
G04 #@! TO.C,C9*
G36*
X-11855495Y27528796D02*
X-11831227Y27525196D01*
X-11807428Y27519235D01*
X-11784329Y27510970D01*
X-11762150Y27500480D01*
X-11741107Y27487868D01*
X-11721401Y27473253D01*
X-11703223Y27456777D01*
X-11686747Y27438599D01*
X-11672132Y27418893D01*
X-11659520Y27397850D01*
X-11649030Y27375671D01*
X-11640765Y27352572D01*
X-11634804Y27328773D01*
X-11631204Y27304505D01*
X-11630000Y27280001D01*
X-11630000Y26629999D01*
X-11631204Y26605495D01*
X-11634804Y26581227D01*
X-11640765Y26557428D01*
X-11649030Y26534329D01*
X-11659520Y26512150D01*
X-11672132Y26491107D01*
X-11686747Y26471401D01*
X-11703223Y26453223D01*
X-11721401Y26436747D01*
X-11741107Y26422132D01*
X-11762150Y26409520D01*
X-11784329Y26399030D01*
X-11807428Y26390765D01*
X-11831227Y26384804D01*
X-11855495Y26381204D01*
X-11879999Y26380000D01*
X-12780001Y26380000D01*
X-12804505Y26381204D01*
X-12828773Y26384804D01*
X-12852572Y26390765D01*
X-12875671Y26399030D01*
X-12897850Y26409520D01*
X-12918893Y26422132D01*
X-12938599Y26436747D01*
X-12956777Y26453223D01*
X-12973253Y26471401D01*
X-12987868Y26491107D01*
X-13000480Y26512150D01*
X-13010970Y26534329D01*
X-13019235Y26557428D01*
X-13025196Y26581227D01*
X-13028796Y26605495D01*
X-13030000Y26629999D01*
X-13030000Y27280001D01*
X-13028796Y27304505D01*
X-13025196Y27328773D01*
X-13019235Y27352572D01*
X-13010970Y27375671D01*
X-13000480Y27397850D01*
X-12987868Y27418893D01*
X-12973253Y27438599D01*
X-12956777Y27456777D01*
X-12938599Y27473253D01*
X-12918893Y27487868D01*
X-12897850Y27500480D01*
X-12875671Y27510970D01*
X-12852572Y27519235D01*
X-12828773Y27525196D01*
X-12804505Y27528796D01*
X-12780001Y27530000D01*
X-11879999Y27530000D01*
X-11855495Y27528796D01*
X-11855495Y27528796D01*
G37*
D20*
G04 #@! TD*
G04 #@! TO.P,C9,1*
G04 #@! TO.N,VDD*
X-12330000Y26955000D03*
D10*
G04 #@! TO.N,Buzzer*
G04 #@! TO.C,R1*
G36*
X-30690495Y29818796D02*
X-30666227Y29815196D01*
X-30642428Y29809235D01*
X-30619329Y29800970D01*
X-30597150Y29790480D01*
X-30576107Y29777868D01*
X-30556401Y29763253D01*
X-30538223Y29746777D01*
X-30521747Y29728599D01*
X-30507132Y29708893D01*
X-30494520Y29687850D01*
X-30484030Y29665671D01*
X-30475765Y29642572D01*
X-30469804Y29618773D01*
X-30466204Y29594505D01*
X-30465000Y29570001D01*
X-30465000Y28669999D01*
X-30466204Y28645495D01*
X-30469804Y28621227D01*
X-30475765Y28597428D01*
X-30484030Y28574329D01*
X-30494520Y28552150D01*
X-30507132Y28531107D01*
X-30521747Y28511401D01*
X-30538223Y28493223D01*
X-30556401Y28476747D01*
X-30576107Y28462132D01*
X-30597150Y28449520D01*
X-30619329Y28439030D01*
X-30642428Y28430765D01*
X-30666227Y28424804D01*
X-30690495Y28421204D01*
X-30714999Y28420000D01*
X-31365001Y28420000D01*
X-31389505Y28421204D01*
X-31413773Y28424804D01*
X-31437572Y28430765D01*
X-31460671Y28439030D01*
X-31482850Y28449520D01*
X-31503893Y28462132D01*
X-31523599Y28476747D01*
X-31541777Y28493223D01*
X-31558253Y28511401D01*
X-31572868Y28531107D01*
X-31585480Y28552150D01*
X-31595970Y28574329D01*
X-31604235Y28597428D01*
X-31610196Y28621227D01*
X-31613796Y28645495D01*
X-31615000Y28669999D01*
X-31615000Y29570001D01*
X-31613796Y29594505D01*
X-31610196Y29618773D01*
X-31604235Y29642572D01*
X-31595970Y29665671D01*
X-31585480Y29687850D01*
X-31572868Y29708893D01*
X-31558253Y29728599D01*
X-31541777Y29746777D01*
X-31523599Y29763253D01*
X-31503893Y29777868D01*
X-31482850Y29790480D01*
X-31460671Y29800970D01*
X-31437572Y29809235D01*
X-31413773Y29815196D01*
X-31389505Y29818796D01*
X-31365001Y29820000D01*
X-30714999Y29820000D01*
X-30690495Y29818796D01*
X-30690495Y29818796D01*
G37*
D20*
G04 #@! TD*
G04 #@! TO.P,R1,2*
G04 #@! TO.N,Buzzer*
X-31040000Y29120000D03*
D10*
G04 #@! TO.N,Net-(BZ1-Pad1)*
G04 #@! TO.C,R1*
G36*
X-28640495Y29818796D02*
X-28616227Y29815196D01*
X-28592428Y29809235D01*
X-28569329Y29800970D01*
X-28547150Y29790480D01*
X-28526107Y29777868D01*
X-28506401Y29763253D01*
X-28488223Y29746777D01*
X-28471747Y29728599D01*
X-28457132Y29708893D01*
X-28444520Y29687850D01*
X-28434030Y29665671D01*
X-28425765Y29642572D01*
X-28419804Y29618773D01*
X-28416204Y29594505D01*
X-28415000Y29570001D01*
X-28415000Y28669999D01*
X-28416204Y28645495D01*
X-28419804Y28621227D01*
X-28425765Y28597428D01*
X-28434030Y28574329D01*
X-28444520Y28552150D01*
X-28457132Y28531107D01*
X-28471747Y28511401D01*
X-28488223Y28493223D01*
X-28506401Y28476747D01*
X-28526107Y28462132D01*
X-28547150Y28449520D01*
X-28569329Y28439030D01*
X-28592428Y28430765D01*
X-28616227Y28424804D01*
X-28640495Y28421204D01*
X-28664999Y28420000D01*
X-29315001Y28420000D01*
X-29339505Y28421204D01*
X-29363773Y28424804D01*
X-29387572Y28430765D01*
X-29410671Y28439030D01*
X-29432850Y28449520D01*
X-29453893Y28462132D01*
X-29473599Y28476747D01*
X-29491777Y28493223D01*
X-29508253Y28511401D01*
X-29522868Y28531107D01*
X-29535480Y28552150D01*
X-29545970Y28574329D01*
X-29554235Y28597428D01*
X-29560196Y28621227D01*
X-29563796Y28645495D01*
X-29565000Y28669999D01*
X-29565000Y29570001D01*
X-29563796Y29594505D01*
X-29560196Y29618773D01*
X-29554235Y29642572D01*
X-29545970Y29665671D01*
X-29535480Y29687850D01*
X-29522868Y29708893D01*
X-29508253Y29728599D01*
X-29491777Y29746777D01*
X-29473599Y29763253D01*
X-29453893Y29777868D01*
X-29432850Y29790480D01*
X-29410671Y29800970D01*
X-29387572Y29809235D01*
X-29363773Y29815196D01*
X-29339505Y29818796D01*
X-29315001Y29820000D01*
X-28664999Y29820000D01*
X-28640495Y29818796D01*
X-28640495Y29818796D01*
G37*
D20*
G04 #@! TD*
G04 #@! TO.P,R1,1*
G04 #@! TO.N,Net-(BZ1-Pad1)*
X-28990000Y29120000D03*
D10*
G04 #@! TO.N,BOOT0*
G04 #@! TO.C,R2*
G36*
X-22955495Y7578796D02*
X-22931227Y7575196D01*
X-22907428Y7569235D01*
X-22884329Y7560970D01*
X-22862150Y7550480D01*
X-22841107Y7537868D01*
X-22821401Y7523253D01*
X-22803223Y7506777D01*
X-22786747Y7488599D01*
X-22772132Y7468893D01*
X-22759520Y7447850D01*
X-22749030Y7425671D01*
X-22740765Y7402572D01*
X-22734804Y7378773D01*
X-22731204Y7354505D01*
X-22730000Y7330001D01*
X-22730000Y6679999D01*
X-22731204Y6655495D01*
X-22734804Y6631227D01*
X-22740765Y6607428D01*
X-22749030Y6584329D01*
X-22759520Y6562150D01*
X-22772132Y6541107D01*
X-22786747Y6521401D01*
X-22803223Y6503223D01*
X-22821401Y6486747D01*
X-22841107Y6472132D01*
X-22862150Y6459520D01*
X-22884329Y6449030D01*
X-22907428Y6440765D01*
X-22931227Y6434804D01*
X-22955495Y6431204D01*
X-22979999Y6430000D01*
X-23880001Y6430000D01*
X-23904505Y6431204D01*
X-23928773Y6434804D01*
X-23952572Y6440765D01*
X-23975671Y6449030D01*
X-23997850Y6459520D01*
X-24018893Y6472132D01*
X-24038599Y6486747D01*
X-24056777Y6503223D01*
X-24073253Y6521401D01*
X-24087868Y6541107D01*
X-24100480Y6562150D01*
X-24110970Y6584329D01*
X-24119235Y6607428D01*
X-24125196Y6631227D01*
X-24128796Y6655495D01*
X-24130000Y6679999D01*
X-24130000Y7330001D01*
X-24128796Y7354505D01*
X-24125196Y7378773D01*
X-24119235Y7402572D01*
X-24110970Y7425671D01*
X-24100480Y7447850D01*
X-24087868Y7468893D01*
X-24073253Y7488599D01*
X-24056777Y7506777D01*
X-24038599Y7523253D01*
X-24018893Y7537868D01*
X-23997850Y7550480D01*
X-23975671Y7560970D01*
X-23952572Y7569235D01*
X-23928773Y7575196D01*
X-23904505Y7578796D01*
X-23880001Y7580000D01*
X-22979999Y7580000D01*
X-22955495Y7578796D01*
X-22955495Y7578796D01*
G37*
D20*
G04 #@! TD*
G04 #@! TO.P,R2,1*
G04 #@! TO.N,BOOT0*
X-23430000Y7005000D03*
D10*
G04 #@! TO.N,GND*
G04 #@! TO.C,R2*
G36*
X-22955495Y5528796D02*
X-22931227Y5525196D01*
X-22907428Y5519235D01*
X-22884329Y5510970D01*
X-22862150Y5500480D01*
X-22841107Y5487868D01*
X-22821401Y5473253D01*
X-22803223Y5456777D01*
X-22786747Y5438599D01*
X-22772132Y5418893D01*
X-22759520Y5397850D01*
X-22749030Y5375671D01*
X-22740765Y5352572D01*
X-22734804Y5328773D01*
X-22731204Y5304505D01*
X-22730000Y5280001D01*
X-22730000Y4629999D01*
X-22731204Y4605495D01*
X-22734804Y4581227D01*
X-22740765Y4557428D01*
X-22749030Y4534329D01*
X-22759520Y4512150D01*
X-22772132Y4491107D01*
X-22786747Y4471401D01*
X-22803223Y4453223D01*
X-22821401Y4436747D01*
X-22841107Y4422132D01*
X-22862150Y4409520D01*
X-22884329Y4399030D01*
X-22907428Y4390765D01*
X-22931227Y4384804D01*
X-22955495Y4381204D01*
X-22979999Y4380000D01*
X-23880001Y4380000D01*
X-23904505Y4381204D01*
X-23928773Y4384804D01*
X-23952572Y4390765D01*
X-23975671Y4399030D01*
X-23997850Y4409520D01*
X-24018893Y4422132D01*
X-24038599Y4436747D01*
X-24056777Y4453223D01*
X-24073253Y4471401D01*
X-24087868Y4491107D01*
X-24100480Y4512150D01*
X-24110970Y4534329D01*
X-24119235Y4557428D01*
X-24125196Y4581227D01*
X-24128796Y4605495D01*
X-24130000Y4629999D01*
X-24130000Y5280001D01*
X-24128796Y5304505D01*
X-24125196Y5328773D01*
X-24119235Y5352572D01*
X-24110970Y5375671D01*
X-24100480Y5397850D01*
X-24087868Y5418893D01*
X-24073253Y5438599D01*
X-24056777Y5456777D01*
X-24038599Y5473253D01*
X-24018893Y5487868D01*
X-23997850Y5500480D01*
X-23975671Y5510970D01*
X-23952572Y5519235D01*
X-23928773Y5525196D01*
X-23904505Y5528796D01*
X-23880001Y5530000D01*
X-22979999Y5530000D01*
X-22955495Y5528796D01*
X-22955495Y5528796D01*
G37*
D20*
G04 #@! TD*
G04 #@! TO.P,R2,2*
G04 #@! TO.N,GND*
X-23430000Y4955000D03*
D21*
G04 #@! TO.P,D1,1*
G04 #@! TO.N,Net-(D1-Pad1)*
X-40160000Y26520000D03*
G04 #@! TO.P,D1,2*
G04 #@! TO.N,Net-(BT1-Pad1)*
X-40160000Y24620000D03*
G04 #@! TO.P,D1,3*
G04 #@! TO.N,VDD*
X-38160000Y25570000D03*
G04 #@! TD*
D22*
G04 #@! TO.P,BZ1,1*
G04 #@! TO.N,Net-(BZ1-Pad1)*
X-18530000Y32920000D03*
G04 #@! TO.P,BZ1,2*
G04 #@! TO.N,GND*
X-27230000Y32920000D03*
G04 #@! TD*
D19*
G04 #@! TO.P,SW3,1*
G04 #@! TO.N,NRST*
X-31930000Y7880000D03*
X-25630000Y7880000D03*
G04 #@! TO.P,SW3,2*
G04 #@! TO.N,GND*
X-31930000Y4080000D03*
X-25630000Y4080000D03*
G04 #@! TD*
G04 #@! TO.P,SW4,2*
G04 #@! TO.N,VDD*
X-3830000Y26080000D03*
X-10130000Y26080000D03*
G04 #@! TO.P,SW4,1*
G04 #@! TO.N,Ctrl_Ten*
X-3830000Y29880000D03*
X-10130000Y29880000D03*
G04 #@! TD*
D23*
G04 #@! TO.P,BT1,1*
G04 #@! TO.N,Net-(BT1-Pad1)*
X-42660000Y19680000D03*
X-42660000Y4480000D03*
D24*
G04 #@! TO.P,BT1,2*
G04 #@! TO.N,GND*
X-42660000Y12080000D03*
G04 #@! TD*
D19*
G04 #@! TO.P,SW1,1*
G04 #@! TO.N,BOOT0*
X-21230000Y7880000D03*
X-14930000Y7880000D03*
G04 #@! TO.P,SW1,2*
G04 #@! TO.N,VDD*
X-21230000Y4080000D03*
X-14930000Y4080000D03*
G04 #@! TD*
D25*
G04 #@! TO.P,J2,1*
G04 #@! TO.N,GND*
X-33850000Y12110000D03*
D26*
G04 #@! TO.P,J2,2*
G04 #@! TO.N,VDD*
X-31310000Y12110000D03*
G04 #@! TO.P,J2,3*
G04 #@! TO.N,SWDIO*
X-28770000Y12110000D03*
G04 #@! TO.P,J2,4*
G04 #@! TO.N,SWCLK*
X-26230000Y12110000D03*
G04 #@! TO.P,J2,5*
G04 #@! TO.N,NRST*
X-23690000Y12110000D03*
G04 #@! TO.P,J2,6*
G04 #@! TO.N,SCL*
X-21150000Y12110000D03*
G04 #@! TO.P,J2,7*
G04 #@! TO.N,SDA*
X-18610000Y12110000D03*
G04 #@! TO.P,J2,8*
G04 #@! TO.N,BOOT0*
X-16070000Y12110000D03*
G04 #@! TD*
D27*
G04 #@! TO.P,U1,1*
G04 #@! TO.N,BOOT0*
X-22285000Y20835000D03*
G04 #@! TO.P,U1,2*
G04 #@! TO.N,SDA*
X-22285000Y21485000D03*
G04 #@! TO.P,U1,3*
G04 #@! TO.N,SCL*
X-22285000Y22135000D03*
G04 #@! TO.P,U1,4*
G04 #@! TO.N,NRST*
X-22285000Y22785000D03*
G04 #@! TO.P,U1,5*
G04 #@! TO.N,VDD*
X-22285000Y23435000D03*
G04 #@! TO.P,U1,6*
G04 #@! TO.N,Ctrl_One*
X-22285000Y24085000D03*
G04 #@! TO.P,U1,7*
G04 #@! TO.N,Net-(U1-Pad7)*
X-22285000Y24735000D03*
G04 #@! TO.P,U1,8*
G04 #@! TO.N,Ctrl_Ten*
X-22285000Y25385000D03*
G04 #@! TO.P,U1,9*
G04 #@! TO.N,Net-(U1-Pad9)*
X-22285000Y26035000D03*
G04 #@! TO.P,U1,10*
G04 #@! TO.N,Net-(U1-Pad10)*
X-22285000Y26685000D03*
G04 #@! TO.P,U1,11*
G04 #@! TO.N,Net-(U1-Pad11)*
X-28185000Y26685000D03*
G04 #@! TO.P,U1,12*
G04 #@! TO.N,Net-(U1-Pad12)*
X-28185000Y26035000D03*
G04 #@! TO.P,U1,13*
G04 #@! TO.N,Buzzer*
X-28185000Y25385000D03*
G04 #@! TO.P,U1,14*
G04 #@! TO.N,Net-(U1-Pad14)*
X-28185000Y24735000D03*
G04 #@! TO.P,U1,15*
G04 #@! TO.N,GND*
X-28185000Y24085000D03*
G04 #@! TO.P,U1,16*
G04 #@! TO.N,VDD*
X-28185000Y23435000D03*
G04 #@! TO.P,U1,17*
G04 #@! TO.N,USB_D-*
X-28185000Y22785000D03*
G04 #@! TO.P,U1,18*
G04 #@! TO.N,USB_D+*
X-28185000Y22135000D03*
G04 #@! TO.P,U1,19*
G04 #@! TO.N,SWDIO*
X-28185000Y21485000D03*
G04 #@! TO.P,U1,20*
G04 #@! TO.N,SWCLK*
X-28185000Y20835000D03*
G04 #@! TD*
D28*
G04 #@! TO.N,USB_D-*
X-42500000Y28900000D03*
X-33080000Y20980000D03*
G04 #@! TO.N,USB_D+*
X-42440000Y27030000D03*
X-33080000Y18729992D03*
G04 #@! TO.N,Net-(BT1-Pad1)*
X-38130000Y19680000D03*
X-38130000Y4480000D03*
G04 #@! TD*
D29*
G04 #@! TO.N,GND*
X-45417500Y26330000D02*
X-44942500Y26330000D01*
D30*
X-46640000Y26627500D02*
X-46640000Y31000000D01*
X-46640000Y31000000D02*
X-45730000Y31910000D01*
X-45417500Y26330000D02*
X-46342500Y26330000D01*
X-46342500Y26330000D02*
X-46640000Y26627500D01*
D31*
X-32700000Y26470000D02*
X-32670000Y26440000D01*
D29*
X-31766414Y4207543D02*
X-31766414Y4132543D01*
X-45450000Y13080000D02*
X-43050000Y13080000D01*
X-43870000Y26330000D02*
X-43500000Y25960000D01*
X-43500000Y25960000D02*
X-43500000Y24028989D01*
X-45417500Y26330000D02*
X-43870000Y26330000D01*
X-45730000Y31910000D02*
X-39890000Y31910000D01*
X-30520000Y24085000D02*
X-32960000Y26525000D01*
D32*
X-28185000Y24085000D02*
X-30520000Y24085000D01*
D31*
X-39890000Y31910000D02*
X-39640000Y31910000D01*
D29*
X-23465271Y5025000D02*
X-23130000Y5025000D01*
D31*
X-42630000Y12110000D02*
X-42660000Y12080000D01*
X-33850000Y12110000D02*
X-42630000Y12110000D01*
X-44450000Y12080000D02*
X-48149999Y15779999D01*
X-42660000Y12080000D02*
X-44450000Y12080000D01*
X-48149999Y15779999D02*
X-48149999Y19378990D01*
X-48149999Y19378990D02*
X-46798989Y20730000D01*
D29*
X-43500000Y24028989D02*
X-46798989Y20730000D01*
D31*
X-24755000Y4955000D02*
X-25630000Y4080000D01*
X-23430000Y4955000D02*
X-24755000Y4955000D01*
X-25630000Y4080000D02*
X-31930000Y4080000D01*
X-32805000Y4955000D02*
X-31930000Y4080000D01*
X-34130000Y4955000D02*
X-32805000Y4955000D01*
X-35535000Y4955000D02*
X-34130000Y4955000D01*
X-42660000Y12080000D02*
X-35535000Y4955000D01*
X-35420000Y26525000D02*
X-32960000Y26525000D01*
X-38880000Y32920000D02*
X-39890000Y31910000D01*
X-27230000Y32920000D02*
X-35080000Y32920000D01*
X-35080000Y32920000D02*
X-38880000Y32920000D01*
X-32960000Y30800000D02*
X-32960000Y26525000D01*
X-35080000Y32920000D02*
X-32960000Y30800000D01*
G04 #@! TO.N,Net-(BZ1-Pad1)*
X-18530000Y31870000D02*
X-18530000Y32920000D01*
X-21280000Y29120000D02*
X-18530000Y31870000D01*
X-28990000Y29120000D02*
X-21280000Y29120000D01*
D29*
G04 #@! TO.N,VDD*
X-32895000Y24080000D02*
X-32920000Y24105000D01*
X-31920000Y23435000D02*
X-32960000Y24475000D01*
D32*
X-28185000Y23435000D02*
X-31920000Y23435000D01*
D31*
X-36920000Y24470000D02*
X-35425000Y24470000D01*
X-38160000Y25570000D02*
X-38020000Y25570000D01*
X-35425000Y24470000D02*
X-35420000Y24475000D01*
X-38020000Y25570000D02*
X-36920000Y24470000D01*
X-35420000Y24475000D02*
X-32960000Y24475000D01*
D33*
X-31397211Y12627211D02*
X-31340000Y12570000D01*
X-2897000Y10080000D02*
X-3830000Y10080000D01*
X-2330000Y10647000D02*
X-2897000Y10080000D01*
X-2330000Y25513000D02*
X-2330000Y10647000D01*
X-2897000Y26080000D02*
X-2330000Y25513000D01*
X-3830000Y26080000D02*
X-2897000Y26080000D01*
D31*
X-11005000Y26955000D02*
X-10130000Y26080000D01*
X-12330000Y26955000D02*
X-11005000Y26955000D01*
X-10130000Y26080000D02*
X-3830000Y26080000D01*
D32*
X-21153600Y23435000D02*
X-19719211Y22000611D01*
X-22285000Y23435000D02*
X-21153600Y23435000D01*
D31*
X-10130000Y10080000D02*
X-3830000Y10080000D01*
X-31310000Y12960000D02*
X-31310000Y12110000D01*
X-35580000Y17230000D02*
X-31310000Y12960000D01*
X-35420000Y24475000D02*
X-35580000Y24315000D01*
X-35580000Y24315000D02*
X-35580000Y17230000D01*
X-12330000Y5493000D02*
X-13743000Y4080000D01*
X-13743000Y4080000D02*
X-14930000Y4080000D01*
X-12330000Y10955000D02*
X-12330000Y5493000D01*
X-14930000Y4080000D02*
X-21230000Y4080000D01*
X-19719211Y19569211D02*
X-19719211Y22000611D01*
X-14330000Y11980000D02*
X-14330000Y14180000D01*
X-13330000Y10980000D02*
X-14330000Y11980000D01*
X-14330000Y14180000D02*
X-19719211Y19569211D01*
D32*
X-28185000Y23435000D02*
X-22285000Y23435000D01*
D31*
X-11030000Y10980000D02*
X-10130000Y10080000D01*
X-13330000Y10980000D02*
X-11030000Y10980000D01*
D29*
G04 #@! TO.N,Ctrl_One*
X-12330000Y13005000D02*
X-12055000Y13005000D01*
D32*
X-22285000Y24085000D02*
X-18935000Y24085000D01*
D31*
X-11005000Y13005000D02*
X-10130000Y13880000D01*
X-12330000Y13005000D02*
X-11005000Y13005000D01*
X-10130000Y13880000D02*
X-3830000Y13880000D01*
X-18935000Y24085000D02*
X-17935000Y24085000D01*
X-12330000Y18480000D02*
X-12330000Y13005000D01*
X-17935000Y24085000D02*
X-12330000Y18480000D01*
D32*
G04 #@! TO.N,Ctrl_Ten*
X-22285000Y25385000D02*
X-18675000Y25385000D01*
D31*
X-12355000Y28980000D02*
X-12330000Y29005000D01*
X-14080000Y28980000D02*
X-12355000Y28980000D01*
X-18675000Y25385000D02*
X-17675000Y25385000D01*
X-17675000Y25385000D02*
X-14080000Y28980000D01*
X-11005000Y29005000D02*
X-10130000Y29880000D01*
X-12330000Y29005000D02*
X-11005000Y29005000D01*
X-10130000Y29880000D02*
X-3830000Y29880000D01*
D29*
G04 #@! TO.N,USB_D-*
X-45417500Y28280000D02*
X-45414291Y28276791D01*
X-45417500Y28280000D02*
X-43120000Y28280000D01*
X-43099999Y28300001D02*
X-42500000Y28900000D01*
X-43120000Y28280000D02*
X-43099999Y28300001D01*
X-31275000Y22785000D02*
X-33080000Y20980000D01*
D32*
X-28185000Y22785000D02*
X-31275000Y22785000D01*
D29*
G04 #@! TO.N,USB_D+*
X-43039999Y27629999D02*
X-42440000Y27030000D01*
X-45417500Y27630000D02*
X-43039999Y27629999D01*
X-29674992Y22135000D02*
X-33080000Y18729992D01*
D32*
X-28185000Y22135000D02*
X-29674992Y22135000D01*
D29*
G04 #@! TO.N,Buzzer*
X-31040000Y28320000D02*
X-31040000Y29120000D01*
X-31040000Y27108600D02*
X-31040000Y28320000D01*
X-29316400Y25385000D02*
X-31040000Y27108600D01*
D32*
X-28185000Y25385000D02*
X-29316400Y25385000D01*
D31*
G04 #@! TO.N,BOOT0*
X-16919999Y13029999D02*
X-22285000Y18395000D01*
X-16919999Y12959999D02*
X-16919999Y13029999D01*
X-16070000Y12110000D02*
X-16919999Y12959999D01*
X-16070000Y9020000D02*
X-14930000Y7880000D01*
X-16070000Y12110000D02*
X-16070000Y9020000D01*
X-14930000Y7880000D02*
X-21230000Y7880000D01*
X-22105000Y7005000D02*
X-21230000Y7880000D01*
X-23430000Y7005000D02*
X-22105000Y7005000D01*
X-22285000Y18395000D02*
X-22285000Y20605000D01*
G04 #@! TO.N,Net-(BT1-Pad1)*
X-42660000Y22120000D02*
X-40160000Y24620000D01*
X-42660000Y19680000D02*
X-42660000Y22120000D01*
X-42660000Y19680000D02*
X-38130000Y19680000D01*
X-38130000Y19680000D02*
X-38130000Y19680000D01*
X-42660000Y4480000D02*
X-38130000Y4480000D01*
X-38130000Y4480000D02*
X-38130000Y4480000D01*
D29*
G04 #@! TO.N,USB_VBUS*
X-45417500Y28930000D02*
X-44942500Y28930000D01*
D30*
X-45417500Y28930000D02*
X-44920214Y28930000D01*
D29*
X-44336100Y28930000D02*
X-42856100Y30410000D01*
X-45417500Y28930000D02*
X-44336100Y28930000D01*
X-42856100Y30410000D02*
X-35743000Y30410000D01*
G04 #@! TO.N,NRST*
X-31771414Y7937543D02*
X-31766414Y7932543D01*
D32*
X-22285000Y22785000D02*
X-24565000Y22785000D01*
D29*
X-24565000Y22785000D02*
X-26170000Y21180000D01*
D31*
X-26170000Y18980000D02*
X-26170000Y14590000D01*
X-26170000Y14590000D02*
X-23690000Y12110000D01*
D29*
X-26170000Y21180000D02*
X-26170000Y18980000D01*
D31*
X-23690000Y9820000D02*
X-25630000Y7880000D01*
X-23690000Y12110000D02*
X-23690000Y9820000D01*
X-25630000Y7880000D02*
X-31930000Y7880000D01*
X-32805000Y7005000D02*
X-31930000Y7880000D01*
X-34130000Y7005000D02*
X-32805000Y7005000D01*
D32*
G04 #@! TO.N,SWDIO*
X-28185000Y21485000D02*
X-29210762Y21485000D01*
X-29210762Y21485000D02*
X-30050000Y20645762D01*
D31*
X-30050000Y13390000D02*
X-28770000Y12110000D01*
D29*
X-30050000Y20645762D02*
X-30050000Y19460000D01*
D31*
X-30050000Y19460000D02*
X-30050000Y13390000D01*
G04 #@! TO.N,SWCLK*
X-26230000Y12110000D02*
X-28185000Y14065000D01*
X-28185000Y14065000D02*
X-28185000Y20535000D01*
G04 #@! TO.N,SDA*
X-18610000Y12760000D02*
X-18610000Y12110000D01*
X-23590000Y19000000D02*
X-23590000Y17740000D01*
X-23590000Y17740000D02*
X-18610000Y12760000D01*
D29*
X-23660000Y21135762D02*
X-23660000Y19150000D01*
D32*
X-22285000Y21485000D02*
X-23310762Y21485000D01*
X-23310762Y21485000D02*
X-23660000Y21135762D01*
G04 #@! TO.N,SCL*
X-22285000Y22135000D02*
X-24005000Y22135000D01*
D29*
X-24005000Y22135000D02*
X-24850000Y21290000D01*
D31*
X-24850000Y15810000D02*
X-21150000Y12110000D01*
X-24850000Y18980000D02*
X-24850000Y15810000D01*
D29*
X-24850000Y21290000D02*
X-24850000Y18980000D01*
D31*
G04 #@! TO.N,Net-(D1-Pad1)*
X-40160000Y26520000D02*
X-40160000Y28640000D01*
D29*
G04 #@! TO.N,Net-(J1-Pad6)*
X-48117500Y30430000D02*
X-48117500Y24130000D01*
X-48117500Y31130000D02*
X-48117500Y30430000D01*
G04 #@! TD*
M02*
