<?xml version="1.0" standalone="no"?>
 <!DOCTYPE svg PUBLIC "-//W3C//DTD SVG 1.1//EN" 
 "http://www.w3.org/Graphics/SVG/1.1/DTD/svg11.dtd"> 
<svg xmlns="http://www.w3.org/2000/svg" version="1.1" 
    width="29.7002cm" height="21.0007cm" viewBox="0 0 116930 82680 ">
<title>SVG Picture created as kroneum-F_Cu.svg date 2019/06/23 14:02:59 </title>
  <desc>Picture generated by PCBNEW </desc>
<g style="fill:#000000; fill-opacity:1;stroke:#000000; stroke-opacity:1;
stroke-linecap:round; stroke-linejoin:round; "
 transform="translate(0 0) scale(1 1)">
</g>
<g style="fill:#000000; fill-opacity:0.0; 
stroke:#000000; stroke-width:-0.000393701; stroke-opacity:1; 
stroke-linecap:round; stroke-linejoin:round;">
</g>
<g style="fill:#000000; fill-opacity:0.0; 
stroke:#000000; stroke-width:19.685; stroke-opacity:1; 
stroke-linecap:round; stroke-linejoin:round;">
<path d="M65118.1 52342.5 A393.701 393.701 0.0 0 0 65511.8 51948.8 " />
<path d="M49763.8 51948.8 A393.701 393.701 0.0 0 0 50157.5 52342.5 " />
<path d="M50157.5 36594.5 A393.701 393.701 0.0 0 0 49763.8 36988.2 " />
<path d="M65511.8 36988.2 A393.701 393.701 0.0 0 0 65118.1 36594.5 " />
<path d="M65118 52342
L50157 52342
" />
<path d="M65511 36988
L65511 51948
" />
<path d="M50157 36594
L65118 36594
" />
<path d="M49763 51948
L49763 36988
" />
<g >
</g>
<g style="fill:#000000; fill-opacity:0.0; 
stroke:#000000; stroke-width:0; stroke-opacity:1; 
stroke-linecap:round; stroke-linejoin:round;">
</g>
<g style="fill:#000000; fill-opacity:1.0; 
stroke:#000000; stroke-width:0; stroke-opacity:1; 
stroke-linecap:round; stroke-linejoin:round;">
<path style="fill:#000000; fill-opacity:1.0; 
stroke:#000000; stroke-width:0; stroke-opacity:1; 
stroke-linecap:round; stroke-linejoin:round;fill-rule:evenodd;"
d="M 51087,38366
51096,38368
51106,38370
51115,38373
51124,38377
51132,38382
51140,38388
51147,38394
51153,38402
51159,38409
51164,38418
51168,38426
51171,38435
51174,38445
51175,38454
51176,38464
51176,38661
51175,38671
51174,38680
51171,38689
51168,38699
51164,38707
51159,38716
51153,38723
51147,38731
51140,38737
51132,38743
51124,38748
51115,38752
51106,38755
51096,38757
51087,38759
51077,38759
50880,38759
50871,38759
50861,38757
50852,38755
50843,38752
50834,38748
50826,38743
50818,38737
50811,38731
50804,38723
50799,38716
50794,38707
50789,38699
50786,38689
50784,38680
50782,38671
50782,38661
50782,38464
50782,38454
50784,38445
50786,38435
50789,38426
50794,38418
50799,38409
50804,38402
50811,38394
50818,38388
50826,38382
50834,38377
50843,38373
50852,38370
50861,38368
50871,38366
50880,38366
51077,38366
51087,38366
Z" /> 
<path style="fill:#000000; fill-opacity:1.0; 
stroke:#000000; stroke-width:0; stroke-opacity:1; 
stroke-linecap:round; stroke-linejoin:round;fill-rule:evenodd;"
d="M 50713,39212
51245,39212
51245,39370
50713,39370
50713,39212
Z" /> 
<path style="fill:#000000; fill-opacity:1.0; 
stroke:#000000; stroke-width:0; stroke-opacity:1; 
stroke-linecap:round; stroke-linejoin:round;fill-rule:evenodd;"
d="M 50713,38956
51245,38956
51245,39114
50713,39114
50713,38956
Z" /> 
<path style="fill:#000000; fill-opacity:1.0; 
stroke:#000000; stroke-width:0; stroke-opacity:1; 
stroke-linecap:round; stroke-linejoin:round;fill-rule:evenodd;"
d="M 50713,39980
51245,39980
51245,40137
50713,40137
50713,39980
Z" /> 
<path style="fill:#000000; fill-opacity:1.0; 
stroke:#000000; stroke-width:0; stroke-opacity:1; 
stroke-linecap:round; stroke-linejoin:round;fill-rule:evenodd;"
d="M 50713,39724
51245,39724
51245,39881
50713,39881
50713,39724
Z" /> 
<path style="fill:#000000; fill-opacity:1.0; 
stroke:#000000; stroke-width:0; stroke-opacity:1; 
stroke-linecap:round; stroke-linejoin:round;fill-rule:evenodd;"
d="M 50713,39468
51245,39468
51245,39625
50713,39625
50713,39468
Z" /> 
<path style="fill:#000000; fill-opacity:1.0; 
stroke:#000000; stroke-width:0; stroke-opacity:1; 
stroke-linecap:round; stroke-linejoin:round;fill-rule:evenodd;"
d="M 51087,40335
51096,40336
51106,40338
51115,40342
51124,40346
51132,40351
51140,40356
51147,40363
51153,40370
51159,40378
51164,40386
51168,40395
51171,40404
51174,40413
51175,40423
51176,40433
51176,40629
51175,40639
51174,40649
51171,40658
51168,40667
51164,40676
51159,40684
51153,40692
51147,40699
51140,40706
51132,40711
51124,40716
51115,40720
51106,40724
51096,40726
51087,40727
51077,40728
50880,40728
50871,40727
50861,40726
50852,40724
50843,40720
50834,40716
50826,40711
50818,40706
50811,40699
50804,40692
50799,40684
50794,40676
50789,40667
50786,40658
50784,40649
50782,40639
50782,40629
50782,40433
50782,40423
50784,40413
50786,40404
50789,40395
50794,40386
50799,40378
50804,40370
50811,40363
50818,40356
50826,40351
50834,40346
50843,40342
50852,40338
50861,40336
50871,40335
50880,40334
51077,40334
51087,40335
Z" /> 
<path style="fill:#000000; fill-opacity:1.0; 
stroke:#000000; stroke-width:0; stroke-opacity:1; 
stroke-linecap:round; stroke-linejoin:round;fill-rule:evenodd;"
d="M 50464,37933
50475,37935
50487,37938
50497,37942
50508,37947
50518,37952
50527,37959
50536,37967
50544,37976
50550,37985
50556,37995
50561,38005
50565,38016
50568,38028
50570,38039
50570,38051
50570,38287
50570,38298
50568,38310
50565,38321
50561,38332
50556,38343
50550,38353
50544,38362
50536,38370
50527,38378
50518,38385
50508,38391
50497,38396
50487,38400
50475,38403
50464,38404
50452,38405
49940,38405
49929,38404
49917,38403
49906,38400
49895,38396
49885,38391
49875,38385
49866,38378
49857,38370
49849,38362
49842,38353
49836,38343
49831,38332
49827,38321
49825,38310
49823,38298
49822,38287
49822,38051
49823,38039
49825,38028
49827,38016
49831,38005
49836,37995
49842,37985
49849,37976
49857,37967
49866,37959
49875,37952
49885,37947
49895,37942
49906,37938
49917,37935
49929,37933
49940,37933
50452,37933
50464,37933
Z" /> 
<path style="fill:#000000; fill-opacity:1.0; 
stroke:#000000; stroke-width:0; stroke-opacity:1; 
stroke-linecap:round; stroke-linejoin:round;fill-rule:evenodd;"
d="M 50464,40689
50475,40691
50487,40694
50497,40697
50508,40702
50518,40708
50527,40715
50536,40723
50544,40732
50550,40741
50556,40751
50561,40761
50565,40772
50568,40784
50570,40795
50570,40807
50570,41043
50570,41054
50568,41066
50565,41077
50561,41088
50556,41098
50550,41108
50544,41118
50536,41126
50527,41134
50518,41141
50508,41147
50497,41152
50487,41156
50475,41159
50464,41160
50452,41161
49940,41161
49929,41160
49917,41159
49906,41156
49895,41152
49885,41147
49875,41141
49866,41134
49857,41126
49849,41118
49842,41108
49836,41098
49831,41088
49827,41077
49825,41066
49823,41054
49822,41043
49822,40807
49823,40795
49825,40784
49827,40772
49831,40761
49836,40751
49842,40741
49849,40732
49857,40723
49866,40715
49875,40708
49885,40702
49895,40697
49906,40694
49917,40691
49929,40689
49940,40688
50452,40688
50464,40689
Z" /> 
</g>
<g >
</g>
<g >
</g>
<g >
</g>
<g >
</g>
<g >
<path style="fill:#000000; fill-opacity:1.0; 
stroke:#000000; stroke-width:0; stroke-opacity:1; 
stroke-linecap:round; stroke-linejoin:round;fill-rule:evenodd;"
d="M 61122,44397
61122,44555
60551,44555
60551,44397
61122,44397
Z" /> 
<path style="fill:#000000; fill-opacity:1.0; 
stroke:#000000; stroke-width:0; stroke-opacity:1; 
stroke-linecap:round; stroke-linejoin:round;fill-rule:evenodd;"
d="M 61122,44141
61122,44299
60551,44299
60551,44141
61122,44141
Z" /> 
<path style="fill:#000000; fill-opacity:1.0; 
stroke:#000000; stroke-width:0; stroke-opacity:1; 
stroke-linecap:round; stroke-linejoin:round;fill-rule:evenodd;"
d="M 61122,43885
61122,44043
60551,44043
60551,43885
61122,43885
Z" /> 
<path style="fill:#000000; fill-opacity:1.0; 
stroke:#000000; stroke-width:0; stroke-opacity:1; 
stroke-linecap:round; stroke-linejoin:round;fill-rule:evenodd;"
d="M 61122,43629
61122,43787
60551,43787
60551,43629
61122,43629
Z" /> 
<path style="fill:#000000; fill-opacity:1.0; 
stroke:#000000; stroke-width:0; stroke-opacity:1; 
stroke-linecap:round; stroke-linejoin:round;fill-rule:evenodd;"
d="M 61122,43374
61122,43531
60551,43531
60551,43374
61122,43374
Z" /> 
<path style="fill:#000000; fill-opacity:1.0; 
stroke:#000000; stroke-width:0; stroke-opacity:1; 
stroke-linecap:round; stroke-linejoin:round;fill-rule:evenodd;"
d="M 61122,43118
61122,43275
60551,43275
60551,43118
61122,43118
Z" /> 
<path style="fill:#000000; fill-opacity:1.0; 
stroke:#000000; stroke-width:0; stroke-opacity:1; 
stroke-linecap:round; stroke-linejoin:round;fill-rule:evenodd;"
d="M 61122,42862
61122,43019
60551,43019
60551,42862
61122,42862
Z" /> 
<path style="fill:#000000; fill-opacity:1.0; 
stroke:#000000; stroke-width:0; stroke-opacity:1; 
stroke-linecap:round; stroke-linejoin:round;fill-rule:evenodd;"
d="M 61122,42606
61122,42763
60551,42763
60551,42606
61122,42606
Z" /> 
<path style="fill:#000000; fill-opacity:1.0; 
stroke:#000000; stroke-width:0; stroke-opacity:1; 
stroke-linecap:round; stroke-linejoin:round;fill-rule:evenodd;"
d="M 61122,42350
61122,42507
60551,42507
60551,42350
61122,42350
Z" /> 
<path style="fill:#000000; fill-opacity:1.0; 
stroke:#000000; stroke-width:0; stroke-opacity:1; 
stroke-linecap:round; stroke-linejoin:round;fill-rule:evenodd;"
d="M 61122,42094
61122,42251
60551,42251
60551,42094
61122,42094
Z" /> 
<path style="fill:#000000; fill-opacity:1.0; 
stroke:#000000; stroke-width:0; stroke-opacity:1; 
stroke-linecap:round; stroke-linejoin:round;fill-rule:evenodd;"
d="M 58799,42094
58799,42251
58228,42251
58228,42094
58799,42094
Z" /> 
<path style="fill:#000000; fill-opacity:1.0; 
stroke:#000000; stroke-width:0; stroke-opacity:1; 
stroke-linecap:round; stroke-linejoin:round;fill-rule:evenodd;"
d="M 58799,42350
58799,42507
58228,42507
58228,42350
58799,42350
Z" /> 
<path style="fill:#000000; fill-opacity:1.0; 
stroke:#000000; stroke-width:0; stroke-opacity:1; 
stroke-linecap:round; stroke-linejoin:round;fill-rule:evenodd;"
d="M 58799,42606
58799,42763
58228,42763
58228,42606
58799,42606
Z" /> 
<path style="fill:#000000; fill-opacity:1.0; 
stroke:#000000; stroke-width:0; stroke-opacity:1; 
stroke-linecap:round; stroke-linejoin:round;fill-rule:evenodd;"
d="M 58799,42862
58799,43019
58228,43019
58228,42862
58799,42862
Z" /> 
<path style="fill:#000000; fill-opacity:1.0; 
stroke:#000000; stroke-width:0; stroke-opacity:1; 
stroke-linecap:round; stroke-linejoin:round;fill-rule:evenodd;"
d="M 58799,43118
58799,43275
58228,43275
58228,43118
58799,43118
Z" /> 
<path style="fill:#000000; fill-opacity:1.0; 
stroke:#000000; stroke-width:0; stroke-opacity:1; 
stroke-linecap:round; stroke-linejoin:round;fill-rule:evenodd;"
d="M 58799,43374
58799,43531
58228,43531
58228,43374
58799,43374
Z" /> 
<path style="fill:#000000; fill-opacity:1.0; 
stroke:#000000; stroke-width:0; stroke-opacity:1; 
stroke-linecap:round; stroke-linejoin:round;fill-rule:evenodd;"
d="M 58799,43629
58799,43787
58228,43787
58228,43629
58799,43629
Z" /> 
<path style="fill:#000000; fill-opacity:1.0; 
stroke:#000000; stroke-width:0; stroke-opacity:1; 
stroke-linecap:round; stroke-linejoin:round;fill-rule:evenodd;"
d="M 58799,43885
58799,44043
58228,44043
58228,43885
58799,43885
Z" /> 
<path style="fill:#000000; fill-opacity:1.0; 
stroke:#000000; stroke-width:0; stroke-opacity:1; 
stroke-linecap:round; stroke-linejoin:round;fill-rule:evenodd;"
d="M 58799,44141
58799,44299
58228,44299
58228,44141
58799,44141
Z" /> 
<path style="fill:#000000; fill-opacity:1.0; 
stroke:#000000; stroke-width:0; stroke-opacity:1; 
stroke-linecap:round; stroke-linejoin:round;fill-rule:evenodd;"
d="M 58799,44397
58799,44555
58228,44555
58228,44397
58799,44397
Z" /> 
</g>
<g >
<path style="fill:#000000; fill-opacity:1.0; 
stroke:#000000; stroke-width:0; stroke-opacity:1; 
stroke-linecap:round; stroke-linejoin:round;fill-rule:evenodd;"
d="M 53936,38881
53542,38606
53542,38291
53936,38015
53936,38881
Z" /> 
<path style="fill:#000000; fill-opacity:1.0; 
stroke:#000000; stroke-width:0; stroke-opacity:1; 
stroke-linecap:round; stroke-linejoin:round;fill-rule:evenodd;"
d="M 53932,38015
54656,38015
54656,38881
53932,38881
53932,38015
Z" /> 
<path style="fill:#000000; fill-opacity:1.0; 
stroke:#000000; stroke-width:0; stroke-opacity:1; 
stroke-linecap:round; stroke-linejoin:round;fill-rule:evenodd;"
d="M 52891,38842
53482,38842
53482,39236
52891,39236
52891,38842
Z" /> 
<path style="fill:#000000; fill-opacity:1.0; 
stroke:#000000; stroke-width:0; stroke-opacity:1; 
stroke-linecap:round; stroke-linejoin:round;fill-rule:evenodd;"
d="M 52890,38251
53599,38251
53599,38645
52890,38645
52890,38251
Z" /> 
<path style="fill:#000000; fill-opacity:1.0; 
stroke:#000000; stroke-width:0; stroke-opacity:1; 
stroke-linecap:round; stroke-linejoin:round;fill-rule:evenodd;"
d="M 52891,37661
53482,37661
53482,38055
52891,38055
52891,37661
Z" /> 
<path style="fill:#000000; fill-opacity:1.0; 
stroke:#000000; stroke-width:0; stroke-opacity:1; 
stroke-linecap:round; stroke-linejoin:round;fill-rule:evenodd;"
d="M 54652,38015
54987,38251
54987,38645
54652,38881
54652,38015
Z" /> 
</g>
<g >
<path style="fill:#000000; fill-opacity:1.0; 
stroke:#000000; stroke-width:0; stroke-opacity:1; 
stroke-linecap:round; stroke-linejoin:round;fill-rule:evenodd;"
d="M 63425,48198
63818,48198
63818,48533
63425,48533
63425,48198
Z" /> 
<path style="fill:#000000; fill-opacity:1.0; 
stroke:#000000; stroke-width:0; stroke-opacity:1; 
stroke-linecap:round; stroke-linejoin:round;fill-rule:evenodd;"
d="M 63425,50679
63818,50679
63818,51013
63425,51013
63425,50679
Z" /> 
<path style="fill:#000000; fill-opacity:1.0; 
stroke:#000000; stroke-width:0; stroke-opacity:1; 
stroke-linecap:round; stroke-linejoin:round;fill-rule:evenodd;"
d="M 61929,48198
62322,48198
62322,48533
61929,48533
61929,48198
Z" /> 
<path style="fill:#000000; fill-opacity:1.0; 
stroke:#000000; stroke-width:0; stroke-opacity:1; 
stroke-linecap:round; stroke-linejoin:round;fill-rule:evenodd;"
d="M 61929,50679
62322,50679
62322,51013
61929,51013
61929,50679
Z" /> 
</g>
<g >
<path style="fill:#000000; fill-opacity:1.0; 
stroke:#000000; stroke-width:0; stroke-opacity:1; 
stroke-linecap:round; stroke-linejoin:round;fill-rule:evenodd;"
d="M 57814,42234
57824,42236
57833,42238
57842,42241
57851,42245
57859,42250
57867,42256
57874,42263
57881,42270
57886,42277
57891,42286
57896,42295
57899,42304
57901,42313
57903,42323
57903,42332
57903,42687
57903,42696
57901,42706
57899,42715
57896,42724
57891,42733
57886,42741
57881,42749
57874,42756
57867,42763
57859,42768
57851,42773
57842,42777
57833,42781
57824,42783
57814,42784
57805,42785
57549,42785
57539,42784
57530,42783
57520,42781
57511,42777
57502,42773
57494,42768
57486,42763
57479,42756
57473,42749
57467,42741
57462,42733
57458,42724
57455,42715
57452,42706
57451,42696
57450,42687
57450,42332
57451,42323
57452,42313
57455,42304
57458,42295
57462,42286
57467,42277
57473,42270
57479,42263
57486,42256
57494,42250
57502,42245
57511,42241
57520,42238
57530,42236
57539,42234
57549,42234
57805,42234
57814,42234
Z" /> 
<path style="fill:#000000; fill-opacity:1.0; 
stroke:#000000; stroke-width:0; stroke-opacity:1; 
stroke-linecap:round; stroke-linejoin:round;fill-rule:evenodd;"
d="M 57007,42234
57017,42236
57026,42238
57035,42241
57044,42245
57052,42250
57060,42256
57067,42263
57074,42270
57079,42277
57084,42286
57088,42295
57092,42304
57094,42313
57095,42323
57096,42332
57096,42687
57095,42696
57094,42706
57092,42715
57088,42724
57084,42733
57079,42741
57074,42749
57067,42756
57060,42763
57052,42768
57044,42773
57035,42777
57026,42781
57017,42783
57007,42784
56998,42785
56742,42785
56732,42784
56722,42783
56713,42781
56704,42777
56695,42773
56687,42768
56679,42763
56672,42756
56666,42749
56660,42741
56655,42733
56651,42724
56647,42715
56645,42706
56644,42696
56643,42687
56643,42332
56644,42323
56645,42313
56647,42304
56651,42295
56655,42286
56660,42277
56666,42270
56672,42263
56679,42256
56687,42250
56695,42245
56704,42241
56713,42238
56722,42236
56732,42234
56742,42234
56998,42234
57007,42234
Z" /> 
</g>
<g >
<path style="fill:#000000; fill-opacity:1.0; 
stroke:#000000; stroke-width:0; stroke-opacity:1; 
stroke-linecap:round; stroke-linejoin:round;fill-rule:evenodd;"
d="M 57007,41388
57017,41389
57026,41392
57035,41395
57044,41399
57052,41404
57060,41410
57067,41416
57074,41423
57079,41431
57084,41439
57088,41448
57092,41457
57094,41467
57095,41476
57096,41486
57096,41840
57095,41850
57094,41859
57092,41869
57088,41878
57084,41886
57079,41895
57074,41902
57067,41910
57060,41916
57052,41922
57044,41927
57035,41931
57026,41934
57017,41937
57007,41938
56998,41938
56742,41938
56732,41938
56722,41937
56713,41934
56704,41931
56695,41927
56687,41922
56679,41916
56672,41910
56666,41902
56660,41895
56655,41886
56651,41878
56647,41869
56645,41859
56644,41850
56643,41840
56643,41486
56644,41476
56645,41467
56647,41457
56651,41448
56655,41439
56660,41431
56666,41423
56672,41416
56679,41410
56687,41404
56695,41399
56704,41395
56713,41392
56722,41389
56732,41388
56742,41387
56998,41387
57007,41388
Z" /> 
<path style="fill:#000000; fill-opacity:1.0; 
stroke:#000000; stroke-width:0; stroke-opacity:1; 
stroke-linecap:round; stroke-linejoin:round;fill-rule:evenodd;"
d="M 57814,41388
57824,41389
57833,41392
57842,41395
57851,41399
57859,41404
57867,41410
57874,41416
57881,41423
57886,41431
57891,41439
57896,41448
57899,41457
57901,41467
57903,41476
57903,41486
57903,41840
57903,41850
57901,41859
57899,41869
57896,41878
57891,41886
57886,41895
57881,41902
57874,41910
57867,41916
57859,41922
57851,41927
57842,41931
57833,41934
57824,41937
57814,41938
57805,41938
57549,41938
57539,41938
57530,41937
57520,41934
57511,41931
57502,41927
57494,41922
57486,41916
57479,41910
57473,41902
57467,41895
57462,41886
57458,41878
57455,41869
57452,41859
57451,41850
57450,41840
57450,41486
57451,41476
57452,41467
57455,41457
57458,41448
57462,41439
57467,41431
57473,41423
57479,41416
57486,41410
57494,41404
57502,41399
57511,41395
57520,41392
57530,41389
57539,41388
57549,41387
57805,41387
57814,41388
Z" /> 
</g>
<g >
<path style="fill:#000000; fill-opacity:1.0; 
stroke:#000000; stroke-width:0; stroke-opacity:1; 
stroke-linecap:round; stroke-linejoin:round;fill-rule:evenodd;"
d="M 58818,48780
58828,48781
58837,48783
58846,48787
58855,48791
58863,48796
58871,48801
58878,48808
58885,48815
58890,48823
58895,48831
58899,48840
58903,48849
58905,48858
58907,48868
58907,48877
58907,49232
58907,49241
58905,49251
58903,49260
58899,49269
58895,49278
58890,49286
58885,49294
58878,49301
58871,49308
58863,49314
58855,49319
58846,49323
58837,49326
58828,49328
58818,49330
58809,49330
58553,49330
58543,49330
58533,49328
58524,49326
58515,49323
58506,49319
58498,49314
58490,49308
58483,49301
58477,49294
58471,49286
58466,49278
58462,49269
58458,49260
58456,49251
58455,49241
58454,49232
58454,48877
58455,48868
58456,48858
58458,48849
58462,48840
58466,48831
58471,48823
58477,48815
58483,48808
58490,48801
58498,48796
58506,48791
58515,48787
58524,48783
58533,48781
58543,48780
58553,48779
58809,48779
58818,48780
Z" /> 
<path style="fill:#000000; fill-opacity:1.0; 
stroke:#000000; stroke-width:0; stroke-opacity:1; 
stroke-linecap:round; stroke-linejoin:round;fill-rule:evenodd;"
d="M 58011,48780
58021,48781
58030,48783
58039,48787
58048,48791
58056,48796
58064,48801
58071,48808
58078,48815
58083,48823
58088,48831
58092,48840
58096,48849
58098,48858
58099,48868
58100,48877
58100,49232
58099,49241
58098,49251
58096,49260
58092,49269
58088,49278
58083,49286
58078,49294
58071,49301
58064,49308
58056,49314
58048,49319
58039,49323
58030,49326
58021,49328
58011,49330
58001,49330
57746,49330
57736,49330
57726,49328
57717,49326
57708,49323
57699,49319
57691,49314
57683,49308
57676,49301
57669,49294
57664,49286
57659,49278
57655,49269
57651,49260
57649,49251
57648,49241
57647,49232
57647,48877
57648,48868
57649,48858
57651,48849
57655,48840
57659,48831
57664,48823
57669,48815
57676,48808
57683,48801
57691,48796
57699,48791
57708,48787
57717,48783
57726,48781
57736,48780
57746,48779
58001,48779
58011,48780
Z" /> 
</g>
<g >
<path style="fill:#000000; fill-opacity:1.0; 
stroke:#000000; stroke-width:0; stroke-opacity:1; 
stroke-linecap:round; stroke-linejoin:round;fill-rule:evenodd;"
d="M 62608,47283
62617,47285
62626,47287
62636,47290
62644,47295
62653,47300
62660,47305
62668,47312
62674,47319
62680,47327
62685,47335
62689,47344
62692,47353
62694,47362
62696,47372
62696,47381
62696,47736
62696,47745
62694,47755
62692,47764
62689,47773
62685,47782
62680,47790
62674,47798
62668,47805
62660,47812
62653,47818
62644,47823
62636,47827
62626,47830
62617,47832
62608,47834
62598,47834
62342,47834
62332,47834
62323,47832
62313,47830
62304,47827
62296,47823
62287,47818
62280,47812
62272,47805
62266,47798
62260,47790
62255,47782
62251,47773
62248,47764
62245,47755
62244,47745
62244,47736
62244,47381
62244,47372
62245,47362
62248,47353
62251,47344
62255,47335
62260,47327
62266,47319
62272,47312
62280,47305
62287,47300
62296,47295
62304,47290
62313,47287
62323,47285
62332,47283
62342,47283
62598,47283
62608,47283
Z" /> 
<path style="fill:#000000; fill-opacity:1.0; 
stroke:#000000; stroke-width:0; stroke-opacity:1; 
stroke-linecap:round; stroke-linejoin:round;fill-rule:evenodd;"
d="M 63415,47283
63424,47285
63434,47287
63443,47290
63451,47295
63460,47300
63467,47305
63475,47312
63481,47319
63487,47327
63492,47335
63496,47344
63499,47353
63502,47362
63503,47372
63503,47381
63503,47736
63503,47745
63502,47755
63499,47764
63496,47773
63492,47782
63487,47790
63481,47798
63475,47805
63467,47812
63460,47818
63451,47823
63443,47827
63434,47830
63424,47832
63415,47834
63405,47834
63149,47834
63139,47834
63130,47832
63121,47830
63111,47827
63103,47823
63094,47818
63087,47812
63080,47805
63073,47798
63067,47790
63062,47782
63058,47773
63055,47764
63053,47755
63051,47745
63051,47736
63051,47381
63051,47372
63053,47362
63055,47353
63058,47344
63062,47335
63067,47327
63073,47319
63080,47312
63087,47305
63094,47300
63103,47295
63111,47290
63121,47287
63130,47285
63139,47283
63149,47283
63405,47283
63415,47283
Z" /> 
</g>
<g >
<path style="fill:#000000; fill-opacity:1.0; 
stroke:#000000; stroke-width:0; stroke-opacity:1; 
stroke-linecap:round; stroke-linejoin:round;fill-rule:evenodd;"
d="M 63415,41102
63424,41104
63434,41106
63443,41109
63451,41113
63460,41118
63467,41124
63475,41131
63481,41138
63487,41146
63492,41154
63496,41163
63499,41172
63502,41181
63503,41191
63503,41200
63503,41555
63503,41564
63502,41574
63499,41583
63496,41592
63492,41601
63487,41609
63481,41617
63475,41624
63467,41631
63460,41636
63451,41641
63443,41646
63434,41649
63424,41651
63415,41653
63405,41653
63149,41653
63139,41653
63130,41651
63121,41649
63111,41646
63103,41641
63094,41636
63087,41631
63080,41624
63073,41617
63067,41609
63062,41601
63058,41592
63055,41583
63053,41574
63051,41564
63051,41555
63051,41200
63051,41191
63053,41181
63055,41172
63058,41163
63062,41154
63067,41146
63073,41138
63080,41131
63087,41124
63094,41118
63103,41113
63111,41109
63121,41106
63130,41104
63139,41102
63149,41102
63405,41102
63415,41102
Z" /> 
<path style="fill:#000000; fill-opacity:1.0; 
stroke:#000000; stroke-width:0; stroke-opacity:1; 
stroke-linecap:round; stroke-linejoin:round;fill-rule:evenodd;"
d="M 62608,41102
62617,41104
62626,41106
62636,41109
62644,41113
62653,41118
62660,41124
62668,41131
62674,41138
62680,41146
62685,41154
62689,41163
62692,41172
62694,41181
62696,41191
62696,41200
62696,41555
62696,41564
62694,41574
62692,41583
62689,41592
62685,41601
62680,41609
62674,41617
62668,41624
62660,41631
62653,41636
62644,41641
62636,41646
62626,41649
62617,41651
62608,41653
62598,41653
62342,41653
62332,41653
62323,41651
62313,41649
62304,41646
62296,41641
62287,41636
62280,41631
62272,41624
62266,41617
62260,41609
62255,41601
62251,41592
62248,41583
62245,41574
62244,41564
62244,41555
62244,41200
62244,41191
62245,41181
62248,41172
62251,41163
62255,41154
62260,41146
62266,41138
62272,41131
62280,41124
62287,41118
62296,41113
62304,41109
62313,41106
62323,41104
62332,41102
62342,41102
62598,41102
62608,41102
Z" /> 
</g>
<g >
<path style="fill:#000000; fill-opacity:1.0; 
stroke:#000000; stroke-width:0; stroke-opacity:1; 
stroke-linecap:round; stroke-linejoin:round;fill-rule:evenodd;"
d="M 59704,40935
59714,40936
59723,40939
59732,40942
59741,40946
59749,40951
59757,40957
59764,40963
59770,40971
59776,40978
59781,40987
59785,40995
59789,41004
59791,41014
59792,41023
59793,41033
59793,41387
59792,41397
59791,41406
59789,41416
59785,41425
59781,41434
59776,41442
59770,41450
59764,41457
59757,41463
59749,41469
59741,41474
59732,41478
59723,41481
59714,41484
59704,41485
59694,41486
59438,41486
59429,41485
59419,41484
59410,41481
59401,41478
59392,41474
59384,41469
59376,41463
59369,41457
59362,41450
59357,41442
59352,41434
59348,41425
59344,41416
59342,41406
59341,41397
59340,41387
59340,41033
59341,41023
59342,41014
59344,41004
59348,40995
59352,40987
59357,40978
59362,40971
59369,40963
59376,40957
59384,40951
59392,40946
59401,40942
59410,40939
59419,40936
59429,40935
59438,40935
59694,40935
59704,40935
Z" /> 
<path style="fill:#000000; fill-opacity:1.0; 
stroke:#000000; stroke-width:0; stroke-opacity:1; 
stroke-linecap:round; stroke-linejoin:round;fill-rule:evenodd;"
d="M 58897,40935
58906,40936
58916,40939
58925,40942
58934,40946
58942,40951
58950,40957
58957,40963
58963,40971
58969,40978
58974,40987
58978,40995
58981,41004
58984,41014
58985,41023
58986,41033
58986,41387
58985,41397
58984,41406
58981,41416
58978,41425
58974,41434
58969,41442
58963,41450
58957,41457
58950,41463
58942,41469
58934,41474
58925,41478
58916,41481
58906,41484
58897,41485
58887,41486
58631,41486
58622,41485
58612,41484
58603,41481
58594,41478
58585,41474
58577,41469
58569,41463
58562,41457
58555,41450
58550,41442
58545,41434
58540,41425
58537,41416
58535,41406
58533,41397
58533,41387
58533,41033
58533,41023
58535,41014
58537,41004
58540,40995
58545,40987
58550,40978
58555,40971
58562,40963
58569,40957
58577,40951
58585,40946
58594,40942
58603,40939
58612,40936
58622,40935
58631,40935
58887,40935
58897,40935
Z" /> 
</g>
<g >
<path style="fill:#000000; fill-opacity:1.0; 
stroke:#000000; stroke-width:0; stroke-opacity:1; 
stroke-linecap:round; stroke-linejoin:round;fill-rule:evenodd;"
d="M 58818,47933
58828,47934
58837,47937
58846,47940
58855,47944
58863,47949
58871,47955
58878,47961
58885,47969
58890,47976
58895,47985
58899,47993
58903,48002
58905,48012
58907,48021
58907,48031
58907,48385
58907,48395
58905,48405
58903,48414
58899,48423
58895,48432
58890,48440
58885,48448
58878,48455
58871,48461
58863,48467
58855,48472
58846,48476
58837,48480
58828,48482
58818,48483
58809,48484
58553,48484
58543,48483
58533,48482
58524,48480
58515,48476
58506,48472
58498,48467
58490,48461
58483,48455
58477,48448
58471,48440
58466,48432
58462,48423
58458,48414
58456,48405
58455,48395
58454,48385
58454,48031
58455,48021
58456,48012
58458,48002
58462,47993
58466,47985
58471,47976
58477,47969
58483,47961
58490,47955
58498,47949
58506,47944
58515,47940
58524,47937
58533,47934
58543,47933
58553,47933
58809,47933
58818,47933
Z" /> 
<path style="fill:#000000; fill-opacity:1.0; 
stroke:#000000; stroke-width:0; stroke-opacity:1; 
stroke-linecap:round; stroke-linejoin:round;fill-rule:evenodd;"
d="M 58011,47933
58021,47934
58030,47937
58039,47940
58048,47944
58056,47949
58064,47955
58071,47961
58078,47969
58083,47976
58088,47985
58092,47993
58096,48002
58098,48012
58099,48021
58100,48031
58100,48385
58099,48395
58098,48405
58096,48414
58092,48423
58088,48432
58083,48440
58078,48448
58071,48455
58064,48461
58056,48467
58048,48472
58039,48476
58030,48480
58021,48482
58011,48483
58001,48484
57746,48484
57736,48483
57726,48482
57717,48480
57708,48476
57699,48472
57691,48467
57683,48461
57676,48455
57669,48448
57664,48440
57659,48432
57655,48423
57651,48414
57649,48405
57648,48395
57647,48385
57647,48031
57648,48021
57649,48012
57651,48002
57655,47993
57659,47985
57664,47976
57669,47969
57676,47961
57683,47955
57691,47949
57699,47944
57708,47940
57717,47937
57726,47934
57736,47933
57746,47933
58001,47933
58011,47933
Z" /> 
</g>
<g >
<path style="fill:#000000; fill-opacity:1.0; 
stroke:#000000; stroke-width:0; stroke-opacity:1; 
stroke-linecap:round; stroke-linejoin:round;fill-rule:evenodd;"
d="M 53159,40933
53159,40618
53513,40618
53513,40933
53159,40933
Z" /> 
<path style="fill:#000000; fill-opacity:1.0; 
stroke:#000000; stroke-width:0; stroke-opacity:1; 
stroke-linecap:round; stroke-linejoin:round;fill-rule:evenodd;"
d="M 53159,41681
53159,41366
53513,41366
53513,41681
53159,41681
Z" /> 
<path style="fill:#000000; fill-opacity:1.0; 
stroke:#000000; stroke-width:0; stroke-opacity:1; 
stroke-linecap:round; stroke-linejoin:round;fill-rule:evenodd;"
d="M 53946,41307
53946,40992
54301,40992
54301,41307
53946,41307
Z" /> 
</g>
<g >
<path style="fill:#000000; fill-opacity:1.0; 
stroke:#000000; stroke-width:0; stroke-opacity:1; 
stroke-linecap:round; stroke-linejoin:round;fill-rule:evenodd;"
d="M 59753,38011
59753,39350
59242,39350
59242,38011
59753,38011
Z" /> 
<path style="fill:#000000; fill-opacity:1.0; 
stroke:#000000; stroke-width:0; stroke-opacity:1; 
stroke-linecap:round; stroke-linejoin:round;fill-rule:evenodd;"
d="M 56328,38011
56328,39350
55816,39350
55816,38011
56328,38011
Z" /> 
</g>
<g >
<path style="fill:#000000; fill-opacity:1.0; 
stroke:#000000; stroke-width:0; stroke-opacity:1; 
stroke-linecap:round; stroke-linejoin:round;fill-rule:evenodd;"
d="M 56870,50275
56870,49881
57204,49881
57204,50275
56870,50275
Z" /> 
<path style="fill:#000000; fill-opacity:1.0; 
stroke:#000000; stroke-width:0; stroke-opacity:1; 
stroke-linecap:round; stroke-linejoin:round;fill-rule:evenodd;"
d="M 59350,50275
59350,49881
59685,49881
59685,50275
59350,50275
Z" /> 
<path style="fill:#000000; fill-opacity:1.0; 
stroke:#000000; stroke-width:0; stroke-opacity:1; 
stroke-linecap:round; stroke-linejoin:round;fill-rule:evenodd;"
d="M 56870,51771
56870,51377
57204,51377
57204,51771
56870,51771
Z" /> 
<path style="fill:#000000; fill-opacity:1.0; 
stroke:#000000; stroke-width:0; stroke-opacity:1; 
stroke-linecap:round; stroke-linejoin:round;fill-rule:evenodd;"
d="M 59350,51771
59350,51377
59685,51377
59685,51771
59350,51771
Z" /> 
</g>
<g >
<path style="fill:#000000; fill-opacity:1.0; 
stroke:#000000; stroke-width:0; stroke-opacity:1; 
stroke-linecap:round; stroke-linejoin:round;fill-rule:evenodd;"
d="M 61929,40403
62322,40403
62322,40738
61929,40738
61929,40403
Z" /> 
<path style="fill:#000000; fill-opacity:1.0; 
stroke:#000000; stroke-width:0; stroke-opacity:1; 
stroke-linecap:round; stroke-linejoin:round;fill-rule:evenodd;"
d="M 61929,37923
62322,37923
62322,38257
61929,38257
61929,37923
Z" /> 
<path style="fill:#000000; fill-opacity:1.0; 
stroke:#000000; stroke-width:0; stroke-opacity:1; 
stroke-linecap:round; stroke-linejoin:round;fill-rule:evenodd;"
d="M 63425,40403
63818,40403
63818,40738
63425,40738
63425,40403
Z" /> 
<path style="fill:#000000; fill-opacity:1.0; 
stroke:#000000; stroke-width:0; stroke-opacity:1; 
stroke-linecap:round; stroke-linejoin:round;fill-rule:evenodd;"
d="M 63425,37923
63818,37923
63818,38257
63425,38257
63425,37923
Z" /> 
</g>
<g >
<path style="fill:#000000; fill-opacity:1.0; 
stroke:#000000; stroke-width:0; stroke-opacity:1; 
stroke-linecap:round; stroke-linejoin:round;fill-rule:evenodd;"
d="M 59685,46988
59685,47381
59350,47381
59350,46988
59685,46988
Z" /> 
<path style="fill:#000000; fill-opacity:1.0; 
stroke:#000000; stroke-width:0; stroke-opacity:1; 
stroke-linecap:round; stroke-linejoin:round;fill-rule:evenodd;"
d="M 57204,46988
57204,47381
56870,47381
56870,46988
57204,46988
Z" /> 
<path style="fill:#000000; fill-opacity:1.0; 
stroke:#000000; stroke-width:0; stroke-opacity:1; 
stroke-linecap:round; stroke-linejoin:round;fill-rule:evenodd;"
d="M 59685,45492
59685,45885
59350,45885
59350,45492
59685,45492
Z" /> 
<path style="fill:#000000; fill-opacity:1.0; 
stroke:#000000; stroke-width:0; stroke-opacity:1; 
stroke-linecap:round; stroke-linejoin:round;fill-rule:evenodd;"
d="M 57204,45492
57204,45885
56870,45885
56870,45492
57204,45492
Z" /> 
</g>
<g >
<path style="fill:#000000; fill-opacity:1.0; 
stroke:#000000; stroke-width:0; stroke-opacity:1; 
stroke-linecap:round; stroke-linejoin:round;fill-rule:evenodd;"
d="M 52306,37417
52316,37419
52325,37421
52334,37424
52343,37428
52351,37433
52359,37439
52366,37446
52373,37453
52379,37461
52384,37469
52388,37478
52391,37487
52393,37496
52395,37506
52395,37515
52395,37771
52395,37781
52393,37790
52391,37800
52388,37809
52384,37818
52379,37826
52373,37834
52366,37841
52359,37847
52351,37853
52343,37858
52334,37862
52325,37865
52316,37868
52306,37869
52297,37870
51942,37870
51933,37869
51923,37868
51914,37865
51905,37862
51896,37858
51888,37853
51880,37847
51873,37841
51866,37834
51861,37826
51856,37818
51851,37809
51848,37800
51846,37790
51844,37781
51844,37771
51844,37515
51844,37506
51846,37496
51848,37487
51851,37478
51856,37469
51861,37461
51866,37453
51873,37446
51880,37439
51888,37433
51896,37428
51905,37424
51914,37421
51923,37419
51933,37417
51942,37417
52297,37417
52306,37417
Z" /> 
<path style="fill:#000000; fill-opacity:1.0; 
stroke:#000000; stroke-width:0; stroke-opacity:1; 
stroke-linecap:round; stroke-linejoin:round;fill-rule:evenodd;"
d="M 52306,38224
52316,38226
52325,38228
52334,38231
52343,38236
52351,38240
52359,38246
52366,38253
52373,38260
52379,38268
52384,38276
52388,38285
52391,38294
52393,38303
52395,38313
52395,38322
52395,38578
52395,38588
52393,38597
52391,38607
52388,38616
52384,38625
52379,38633
52373,38641
52366,38648
52359,38654
52351,38660
52343,38665
52334,38669
52325,38672
52316,38675
52306,38676
52297,38677
51942,38677
51933,38676
51923,38675
51914,38672
51905,38669
51896,38665
51888,38660
51880,38654
51873,38648
51866,38641
51861,38633
51856,38625
51851,38616
51848,38607
51846,38597
51844,38588
51844,38578
51844,38322
51844,38313
51846,38303
51848,38294
51851,38285
51856,38276
51861,38268
51866,38260
51873,38253
51880,38246
51888,38240
51896,38236
51905,38231
51914,38228
51923,38226
51933,38224
51942,38224
52297,38224
52306,38224
Z" /> 
</g>
<g >
<path style="fill:#000000; fill-opacity:1.0; 
stroke:#000000; stroke-width:0; stroke-opacity:1; 
stroke-linecap:round; stroke-linejoin:round;fill-rule:evenodd;"
d="M 51941,40495
51951,40497
51960,40499
51969,40502
51978,40506
51986,40511
51994,40517
52001,40524
52007,40531
52013,40539
52018,40547
52022,40556
52026,40565
52028,40574
52029,40584
52030,40593
52030,40948
52029,40957
52028,40967
52026,40976
52022,40985
52018,40994
52013,41002
52007,41010
52001,41017
51994,41024
51986,41029
51978,41034
51969,41038
51960,41042
51951,41044
51941,41045
51931,41046
51675,41046
51666,41045
51656,41044
51647,41042
51638,41038
51629,41034
51621,41029
51613,41024
51606,41017
51599,41010
51594,41002
51589,40994
51585,40985
51581,40976
51579,40967
51578,40957
51577,40948
51577,40593
51578,40584
51579,40574
51581,40565
51585,40556
51589,40547
51594,40539
51599,40531
51606,40524
51613,40517
51621,40511
51629,40506
51638,40502
51647,40499
51656,40497
51666,40495
51675,40495
51931,40495
51941,40495
Z" /> 
<path style="fill:#000000; fill-opacity:1.0; 
stroke:#000000; stroke-width:0; stroke-opacity:1; 
stroke-linecap:round; stroke-linejoin:round;fill-rule:evenodd;"
d="M 52748,40495
52758,40497
52767,40499
52776,40502
52785,40506
52793,40511
52801,40517
52808,40524
52815,40531
52820,40539
52825,40547
52829,40556
52833,40565
52835,40574
52836,40584
52837,40593
52837,40948
52836,40957
52835,40967
52833,40976
52829,40985
52825,40994
52820,41002
52815,41010
52808,41017
52801,41024
52793,41029
52785,41034
52776,41038
52767,41042
52758,41044
52748,41045
52738,41046
52483,41046
52473,41045
52463,41044
52454,41042
52445,41038
52436,41034
52428,41029
52420,41024
52413,41017
52406,41010
52401,41002
52396,40994
52392,40985
52388,40976
52386,40967
52385,40957
52384,40948
52384,40593
52385,40584
52386,40574
52388,40565
52392,40556
52396,40547
52401,40539
52406,40531
52413,40524
52420,40517
52428,40511
52436,40506
52445,40502
52454,40499
52463,40497
52473,40495
52483,40495
52738,40495
52748,40495
Z" /> 
</g>
<g >
<path style="fill:#000000; fill-opacity:1.0; 
stroke:#000000; stroke-width:0; stroke-opacity:1; 
stroke-linecap:round; stroke-linejoin:round;fill-rule:evenodd;"
d="M 51870,42153
53877,42153
53877,43137
51870,43137
51870,42153
Z" /> 
<path style="fill:#000000; fill-opacity:1.0; 
stroke:#000000; stroke-width:0; stroke-opacity:1; 
stroke-linecap:round; stroke-linejoin:round;fill-rule:evenodd;"
d="M 51870,51169
53877,51169
53877,52153
51870,52153
51870,51169
Z" /> 
<path style="fill:#000000; fill-opacity:1.0; 
stroke:#000000; stroke-width:0; stroke-opacity:1; 
stroke-linecap:round; stroke-linejoin:round;fill-rule:evenodd;"
d="M 55901,47602
55843,47897
55756,48184
55641,48462
55499,48727
55332,48976
55142,49209
54929,49421
54697,49612
54447,49779
54182,49920
53905,50035
53617,50122
53323,50181
53024,50210
52723,50210
52424,50181
52130,50122
51842,50035
51565,49920
51300,49779
51050,49612
50818,49421
50605,49209
50415,48976
50248,48727
50106,48462
49991,48184
49904,47897
49846,47602
49816,47303
49816,47003
49846,46704
49904,46409
49991,46122
50106,45844
50248,45579
50415,45330
50605,45097
50818,44885
51050,44694
51300,44528
51565,44386
51842,44271
52130,44184
52424,44125
52723,44096
53024,44096
53323,44125
53617,44184
53905,44271
54182,44386
54447,44528
54697,44694
54929,44885
55142,45097
55332,45330
55499,45579
55641,45844
55756,46122
55843,46409
55901,46704
55931,47003
55931,47303
55901,47602
Z" /> 
</g>
<g >
<circle cx="52352.4" cy="39173.2" r="275.591" /> 
</g>
<g style="fill:#000000; fill-opacity:1.0; 
stroke:#000000; stroke-width:7.87402; stroke-opacity:1; 
stroke-linecap:round; stroke-linejoin:round;">
</g>
<g style="fill:#000000; fill-opacity:1.0; 
stroke:#000000; stroke-width:0; stroke-opacity:1; 
stroke-linecap:round; stroke-linejoin:round;">
<circle cx="56919.3" cy="43769.7" r="275.591" /> 
</g>
<g style="fill:#000000; fill-opacity:1.0; 
stroke:#000000; stroke-width:7.87402; stroke-opacity:1; 
stroke-linecap:round; stroke-linejoin:round;">
</g>
<g style="fill:#000000; fill-opacity:1.0; 
stroke:#000000; stroke-width:0; stroke-opacity:1; 
stroke-linecap:round; stroke-linejoin:round;">
<circle cx="56919.3" cy="44537.4" r="275.591" /> 
</g>
<g style="fill:#000000; fill-opacity:1.0; 
stroke:#000000; stroke-width:7.87402; stroke-opacity:1; 
stroke-linecap:round; stroke-linejoin:round;">
</g>
<g style="fill:#000000; fill-opacity:1.0; 
stroke:#000000; stroke-width:0; stroke-opacity:1; 
stroke-linecap:round; stroke-linejoin:round;">
<circle cx="52224.4" cy="39921.3" r="275.591" /> 
</g>
<g style="fill:#000000; fill-opacity:1.0; 
stroke:#000000; stroke-width:7.87402; stroke-opacity:1; 
stroke-linecap:round; stroke-linejoin:round;">
</g>
<g style="fill:#000000; fill-opacity:1.0; 
stroke:#000000; stroke-width:0; stroke-opacity:1; 
stroke-linecap:round; stroke-linejoin:round;">
<circle cx="59281.5" cy="43799.2" r="157.48" /> 
</g>
<g style="fill:#000000; fill-opacity:1.0; 
stroke:#000000; stroke-width:7.87402; stroke-opacity:1; 
stroke-linecap:round; stroke-linejoin:round;">
</g>
<g style="fill:#000000; fill-opacity:1.0; 
stroke:#000000; stroke-width:0; stroke-opacity:1; 
stroke-linecap:round; stroke-linejoin:round;">
<circle cx="59281.5" cy="44301.2" r="157.48" /> 
</g>
<g style="fill:#000000; fill-opacity:1.0; 
stroke:#000000; stroke-width:7.87402; stroke-opacity:1; 
stroke-linecap:round; stroke-linejoin:round;">
</g>
<g style="fill:#000000; fill-opacity:1.0; 
stroke:#000000; stroke-width:0; stroke-opacity:1; 
stroke-linecap:round; stroke-linejoin:round;">
<circle cx="60068.9" cy="44301.2" r="157.48" /> 
</g>
<g style="fill:#000000; fill-opacity:1.0; 
stroke:#000000; stroke-width:7.87402; stroke-opacity:1; 
stroke-linecap:round; stroke-linejoin:round;">
</g>
<g style="fill:#000000; fill-opacity:1.0; 
stroke:#000000; stroke-width:0; stroke-opacity:1; 
stroke-linecap:round; stroke-linejoin:round;">
<circle cx="60068.9" cy="43799.2" r="157.48" /> 
</g>
<g style="fill:#000000; fill-opacity:1.0; 
stroke:#000000; stroke-width:7.87402; stroke-opacity:1; 
stroke-linecap:round; stroke-linejoin:round;">
</g>
<g >
</g>
<g style="fill:#000000; fill-opacity:1.0; 
stroke:#000000; stroke-width:160; stroke-opacity:1; 
stroke-linecap:round; stroke-linejoin:round;">
</g>
<g style="fill:#000000; fill-opacity:0.0; 
stroke:#000000; stroke-width:160; stroke-opacity:1; 
stroke-linecap:round; stroke-linejoin:round;">
<path d="M50979 40059
L51166 40059
" />
</g>
<g style="fill:#000000; fill-opacity:0.0; 
stroke:#000000; stroke-width:300; stroke-opacity:1; 
stroke-linecap:round; stroke-linejoin:round;">
<path d="M51096 37645
L51098 37643
" />
</g>
<g style="fill:#000000; fill-opacity:0.0; 
stroke:#000000; stroke-width:160; stroke-opacity:1; 
stroke-linecap:round; stroke-linejoin:round;">
<path d="M58068 43196
L57657 42785
" />
<path d="M57657 42785
L57657 42509
" />
<path d="M58513 43196
L58068 43196
" />
<path d="M50979 40059
L51427 40059
" />
</g>
<g style="fill:#000000; fill-opacity:0.0; 
stroke:#000000; stroke-width:300; stroke-opacity:1; 
stroke-linecap:round; stroke-linejoin:round;">
<path d="M52937 37643
L53155 37862
" />
<path d="M52120 37643
L52937 37643
" />
<path d="M53155 37862
L53253 37862
" />
<path d="M57677 41663
L57677 42509
" />
</g>
<g style="fill:#000000; fill-opacity:0.0; 
stroke:#000000; stroke-width:160; stroke-opacity:1; 
stroke-linecap:round; stroke-linejoin:round;">
<path d="M51803 40416
L51803 40770
" />
<path d="M50979 40059
L51446 40059
" />
<path d="M51446 40059
L51803 40416
" />
</g>
<g style="fill:#000000; fill-opacity:0.0; 
stroke:#000000; stroke-width:300; stroke-opacity:1; 
stroke-linecap:round; stroke-linejoin:round;">
<path d="M55767 37057
L56072 37362
" />
<path d="M52120 37643
L52706 37057
" />
<path d="M56072 37362
L56072 38681
" />
<path d="M52706 37057
L55767 37057
" />
<path d="M57677 41348
L57677 41663
" />
<path d="M56628 38681
L57677 39729
" />
<path d="M57677 39729
L57677 41348
" />
<path d="M56072 38681
L56628 38681
" />
<path d="M57037 51574
L59517 51574
" />
<path d="M57874 48208
L57874 49055
" />
<path d="M56791 51574
L57037 51574
" />
<path d="M56309 51092
L56791 51574
" />
<path d="M56309 49734
L56309 51092
" />
<path d="M57874 49055
L56988 49055
" />
<path d="M56988 49055
L56309 49734
" />
<path d="M53929 48208
L57874 48208
" />
<path d="M52874 47153
L53929 48208
" />
<path d="M50380 44659
L52874 47153
" />
<path d="M50380 42194
L50380 44659
" />
<path d="M51803 40770
L50380 42194
" />
</g>
<g style="fill:#000000; fill-opacity:0.0; 
stroke:#000000; stroke-width:160; stroke-opacity:1; 
stroke-linecap:round; stroke-linejoin:round;">
<path d="M50157 40455
L50157 40724
" />
<path d="M50553 40059
L50157 40455
" />
<path d="M50979 40059
L50553 40059
" />
</g>
<g style="fill:#000000; fill-opacity:0.0; 
stroke:#000000; stroke-width:300; stroke-opacity:1; 
stroke-linecap:round; stroke-linejoin:round;">
<path d="M50157 40925
L50157 40724
" />
<path d="M50157 40724
L50157 38169
" />
<path d="M50441 37884
L50157 38169
" />
<path d="M52120 37643
L50683 37643
" />
<path d="M50683 37643
L50441 37884
" />
<path d="M58750 41200
L58759 41210
" />
<path d="M59498 38681
L59498 39005
" />
<path d="M58750 39753
L58750 41200
" />
<path d="M59498 39005
L58750 39753
" />
</g>
<g style="fill:#000000; fill-opacity:0.0; 
stroke:#000000; stroke-width:160; stroke-opacity:1; 
stroke-linecap:round; stroke-linejoin:round;">
<path d="M57793 43452
L56850 42509
" />
<path d="M58513 43452
L57793 43452
" />
</g>
<g style="fill:#000000; fill-opacity:0.0; 
stroke:#000000; stroke-width:300; stroke-opacity:1; 
stroke-linecap:round; stroke-linejoin:round;">
<path d="M56356 41149
L56870 41663
" />
<path d="M54124 41149
L56356 41149
" />
<path d="M56870 41663
L56870 42509
" />
</g>
<g style="fill:#000000; fill-opacity:0.0; 
stroke:#000000; stroke-width:160; stroke-opacity:1; 
stroke-linecap:round; stroke-linejoin:round;">
<path d="M59917 43482
L59665 43734
" />
<path d="M58513 43452
L60106 43452
" />
<path d="M60106 43452
L60836 43452
" />
<path d="M59665 43734
L59665 44793
" />
<path d="M58513 43452
L58959 43452
" />
<path d="M58959 43452
L60226 42185
" />
<path d="M62055 43452
L62263 43661
" />
<path d="M60836 43452
L62055 43452
" />
<path d="M59665 44793
L59665 44990
" />
</g>
<g style="fill:#000000; fill-opacity:0.0; 
stroke:#000000; stroke-width:300; stroke-opacity:1; 
stroke-linecap:round; stroke-linejoin:round;">
<path d="M59517 45285
L59517 45688
" />
<path d="M59665 44990
L59517 45137
" />
<path d="M59517 45137
L59517 45285
" />
<path d="M57037 45688
L59517 45688
" />
<path d="M60452 41377
L62470 41377
" />
</g>
<g style="fill:#000000; fill-opacity:0.0; 
stroke:#000000; stroke-width:160; stroke-opacity:1; 
stroke-linecap:round; stroke-linejoin:round;">
<path d="M60226 42185
L60226 41604
" />
</g>
<g style="fill:#000000; fill-opacity:0.0; 
stroke:#000000; stroke-width:300; stroke-opacity:1; 
stroke-linecap:round; stroke-linejoin:round;">
<path d="M60226 41604
L60452 41377
" />
<path d="M62470 40915
L62125 40570
" />
<path d="M62470 41377
L62470 40915
" />
<path d="M62125 48444
L62125 50767
" />
<path d="M62470 48100
L62125 48444
" />
<path d="M62263 43661
L62470 43868
" />
<path d="M62470 43868
L62470 48100
" />
<path d="M62125 40570
L62125 38090
" />
</g>
<g style="fill:#000000; fill-opacity:0.0; 
stroke:#000000; stroke-width:160; stroke-opacity:1; 
stroke-linecap:round; stroke-linejoin:round;">
<path d="M60836 43196
L62606 43196
" />
</g>
<g style="fill:#000000; fill-opacity:0.0; 
stroke:#000000; stroke-width:300; stroke-opacity:1; 
stroke-linecap:round; stroke-linejoin:round;">
<path d="M63622 48307
L63622 50767
" />
<path d="M63287 47972
L63622 48307
" />
<path d="M62606 43196
L63287 43877
" />
<path d="M63287 43877
L63287 47972
" />
</g>
<g style="fill:#000000; fill-opacity:0.0; 
stroke:#000000; stroke-width:160; stroke-opacity:1; 
stroke-linecap:round; stroke-linejoin:round;">
<path d="M60836 42685
L61282 42685
" />
<path d="M61282 42685
L62452 42685
" />
<path d="M62452 42685
L62509 42627
" />
</g>
<g style="fill:#000000; fill-opacity:0.0; 
stroke:#000000; stroke-width:300; stroke-opacity:1; 
stroke-linecap:round; stroke-linejoin:round;">
<path d="M63267 41387
L63277 41377
" />
<path d="M63267 42411
L63267 41387
" />
<path d="M62452 42685
L62994 42685
" />
<path d="M62994 42685
L63267 42411
" />
<path d="M63277 40915
L63622 40570
" />
<path d="M63277 41377
L63277 40915
" />
<path d="M63622 38090
L63622 40570
" />
</g>
<g style="fill:#000000; fill-opacity:0.0; 
stroke:#000000; stroke-width:160; stroke-opacity:1; 
stroke-linecap:round; stroke-linejoin:round;">
<path d="M50979 39291
L50980 39292
" />
<path d="M56980 43708
L56919 43769
" />
<path d="M58393 43708
L56980 43708
" />
<path d="M52234 39291
L52352 39173
" />
<path d="M50979 39291
L52234 39291
" />
</g>
<g style="fill:#000000; fill-opacity:0.0; 
stroke:#000000; stroke-width:157.48; stroke-opacity:1; 
stroke-linecap:round; stroke-linejoin:round;">
<path d="M58393 43964
L57807 43964
" />
</g>
<g style="fill:#000000; fill-opacity:0.0; 
stroke:#000000; stroke-width:160; stroke-opacity:1; 
stroke-linecap:round; stroke-linejoin:round;">
<path d="M50979 39547
L51850 39547
" />
<path d="M51948 39645
L52224 39921
" />
<path d="M51850 39547
L51948 39645
" />
<path d="M58393 43964
L57492 43964
" />
<path d="M57492 43964
L56919 44537
" />
<path d="M59566 42372
L59566 41210
" />
<path d="M58513 42685
L59253 42685
" />
<path d="M59253 42685
L59566 42372
" />
<path d="M60836 44476
L60629 44476
" />
<path d="M60836 44476
L60836 44715
" />
<path d="M60836 44715
L60836 44990
" />
</g>
<g style="fill:#000000; fill-opacity:0.0; 
stroke:#000000; stroke-width:300; stroke-opacity:1; 
stroke-linecap:round; stroke-linejoin:round;">
<path d="M57037 47185
L59517 47185
" />
<path d="M60836 44990
L60846 45000
" />
<path d="M60846 45000
L60846 46023
" />
<path d="M58681 48208
L59763 48208
" />
<path d="M60846 47125
L60846 46023
" />
<path d="M59763 48208
L60846 47125
" />
<path d="M59104 47185
L59517 47185
" />
<path d="M58681 48208
L58681 47608
" />
<path d="M58681 47608
L59104 47185
" />
<path d="M53336 41523
L53336 42183
" />
</g>
<g style="fill:#000000; fill-opacity:0.0; 
stroke:#000000; stroke-width:160; stroke-opacity:1; 
stroke-linecap:round; stroke-linejoin:round;">
<path d="M50979 39035
L51166 39035
" />
</g>
<g style="fill:#000000; fill-opacity:0.0; 
stroke:#000000; stroke-width:98.4252; stroke-opacity:1; 
stroke-linecap:round; stroke-linejoin:round;">
<path d="M50979 39035
L51175 39035
" />
</g>
<g style="fill:#000000; fill-opacity:0.0; 
stroke:#000000; stroke-width:160; stroke-opacity:1; 
stroke-linecap:round; stroke-linejoin:round;">
<path d="M51405 39035
L51987 38452
" />
<path d="M50979 39035
L51405 39035
" />
</g>
<g style="fill:#000000; fill-opacity:0.0; 
stroke:#000000; stroke-width:300; stroke-opacity:1; 
stroke-linecap:round; stroke-linejoin:round;">
<path d="M53706 38450
L53708 38452
" />
<path d="M52120 38450
L53706 38450
" />
<path d="M53708 38452
L54788 38452
" />
</g>
<g style="fill:#000000; fill-opacity:0.0; 
stroke:#000000; stroke-width:160; stroke-opacity:1; 
stroke-linecap:round; stroke-linejoin:round;">
<path d="M61282 43708
L61820 44247
" />
<path d="M60836 43708
L61282 43708
" />
</g>
<g style="fill:#000000; fill-opacity:0.0; 
stroke:#000000; stroke-width:300; stroke-opacity:1; 
stroke-linecap:round; stroke-linejoin:round;">
<path d="M57037 50078
L59517 50078
" />
<path d="M58681 49655
L58681 49055
" />
<path d="M59517 50078
L59104 50078
" />
<path d="M59104 50078
L58681 49655
" />
<path d="M59842 49045
L58690 49045
" />
<path d="M61860 47027
L59842 49045
" />
<path d="M61820 44247
L61860 44286
" />
<path d="M61860 44286
L61860 47027
" />
</g>
<g style="fill:#000000; fill-opacity:0.0; 
stroke:#000000; stroke-width:160; stroke-opacity:1; 
stroke-linecap:round; stroke-linejoin:round;">
<path d="M58860 44220
L58513 44220
" />
<path d="M59281 43799
L58860 44220
" />
<path d="M58513 44476
L58307 44476
" />
<path d="M59037 44476
L59212 44301
" />
<path d="M58513 44476
L59037 44476
" />
<path d="M60149 44220
L60068 44301
" />
<path d="M60836 44220
L60149 44220
" />
<path d="M60234 43964
L60068 43799
" />
<path d="M60836 43964
L60234 43964
" />
</g>
<g style="fill:#000000; fill-opacity:0.0; 
stroke:#000000; stroke-width:300; stroke-opacity:1; 
stroke-linecap:round; stroke-linejoin:round;">
<path d="M52611 40770
L53239 40770
" />
<path d="M52611 40564
L52611 40770
" />
<path d="M53155 39043
L53155 40019
" />
<path d="M53155 40019
L52611 40564
" />
</g>
<g >
</g>
</g> 
</svg>
