  0
SECTION
  2
HEADER
  9
$ACADVER
  1
AC1014
  9
$HANDSEED
  5
FFFF
  9
$MEASUREMENT
 70
     1
  0
ENDSEC
  0
SECTION
  2
TABLES
  0
TABLE
  2
VPORT
  5
8
330
0
100
AcDbSymbolTable
 70
     4
  0
VPORT
  5
2E
330
8
100
AcDbSymbolTableRecord
100
AcDbViewportTableRecord
  2
*ACTIVE
 70
     0
 10
0.0
 20
0.0
 11
1.0
 21
1.0
 12
210.0
 22
148.5
 13
0.0
 23
0.0
 14
10.0
 24
10.0
 15
10.0
 25
10.0
 16
0.0
 26
0.0
 36
1.0
 17
0.0
 27
0.0
 37
0.0
 40
341.0
 41
1.24
 42
50.0
 43
0.0
 44
0.0
 50
0.0
 51
0.0
 71
     0
 72
   100
 73
     1
 74
     3
 75
     0
 76
     0
 77
     0
 78
     0
  0
ENDTAB
  0
TABLE
  2
LTYPE
  5
5
330
0
100
AcDbSymbolTable
 70
     1
  0
LTYPE
  5
14
330
5
100
AcDbSymbolTableRecord
100
AcDbLinetypeTableRecord
  2
BYBLOCK
 70
     0
  3

 72
    65
 73
     0
 40
0.0
  0
LTYPE
  5
15
330
5
100
AcDbSymbolTableRecord
100
AcDbLinetypeTableRecord
  2
BYLAYER
 70
     0
  3

 72
    65
 73
     0
 40
0.0
  0
LTYPE
  5
16
330
5
100
AcDbSymbolTableRecord
100
AcDbLinetypeTableRecord
  2
CONTINUOUS
 70
     0
  3
Solid line
 72
    65
 73
     0
 40
0.0
  0
ENDTAB
  0
TABLE
  2
LAYER
  5
2
100
AcDbSymbolTable
 70
1
  0
LAYER
  5
50
100
AcDbSymbolTableRecord
100
AcDbLayerTableRecord
  2
0
 70
0
  6
CONTINUOUS
  0
ENDTAB
  0
TABLE
  2
STYLE
  5
3
330
0
100
AcDbSymbolTable
 70
     1
  0
STYLE
  5
11
330
3
100
AcDbSymbolTableRecord
100
AcDbTextStyleTableRecord
  2
STANDARD
 70
     0
 40
0.0
 41
1.0
 50
0.0
 71
     0
 42
2.5
  3
txt
  4

  0
ENDTAB
  0
TABLE
  2
VIEW
  5
6
330
0
100
AcDbSymbolTable
 70
     0
  0
ENDTAB
  0
TABLE
  2
UCS
  5
7
330
0
100
AcDbSymbolTable
 70
     0
  0
ENDTAB
  0
TABLE
  2
APPID
  5
9
330
0
100
AcDbSymbolTable
 70
     2
  0
APPID
  5
12
330
9
100
AcDbSymbolTableRecord
100
AcDbRegAppTableRecord
  2
ACAD
 70
     0
  0
ENDTAB
  0
TABLE
  2
DIMSTYLE
  5
A
330
0
100
AcDbSymbolTable
 70
     1
  0
DIMSTYLE
105
27
330
A
100
AcDbSymbolTableRecord
100
AcDbDimStyleTableRecord
  2
ISO-25
 70
     0
  3

  4

  5

  6

  7

 40
1.0
 41
2.5
 42
0.625
 43
3.75
 44
1.25
 45
0.0
 46
0.0
 47
0.0
 48
0.0
140
2.5
141
2.5
142
0.0
143
0.03937007874016
144
1.0
145
0.0
146
1.0
147
0.625
 71
     0
 72
     0
 73
     0
 74
     0
 75
     0
 76
     0
 77
     1
 78
     8
170
     0
171
     3
172
     1
173
     0
174
     0
175
     0
176
     0
177
     0
178
     0
270
     2
271
     2
272
     2
273
     2
274
     3
340
11
275
     0
280
     0
281
     0
282
     0
283
     0
284
     8
285
     0
286
     0
287
     3
288
     0
  0
ENDTAB
  0
TABLE
  2
BLOCK_RECORD
  5
1
330
0
100
AcDbSymbolTable
 70
     1
  0
BLOCK_RECORD
  5
1F
330
1
100
AcDbSymbolTableRecord
100
AcDbBlockTableRecord
  2
*MODEL_SPACE
  0
BLOCK_RECORD
  5
1B
330
1
100
AcDbSymbolTableRecord
100
AcDbBlockTableRecord
  2
*PAPER_SPACE
  0
ENDTAB
  0
ENDSEC
  0
SECTION
  2
BLOCKS
  0
BLOCK
  5
20
330
1F
100
AcDbEntity
  8
0
100
AcDbBlockBegin
  2
*MODEL_SPACE
 70
     0
 10
0.0
 20
0.0
 30
0.0
  3
*MODEL_SPACE
  1

  0
ENDBLK
  5
21
330
1F
100
AcDbEntity
  8
0
100
AcDbBlockEnd
  0
BLOCK
  5
1C
330
1B
100
AcDbEntity
 67
     1
  8
0
100
AcDbBlockBegin
  2
*PAPER_SPACE
  1

  0
ENDBLK
  5
1D
330
1B
100
AcDbEntity
 67
     1
  8
0
100
AcDbBlockEnd
  0
ENDSEC
  0
SECTION
  2
ENTITIES
  0
SPLINE
  5
100
100
AcDbEntity
  8
0
 62
7
100
AcDbSpline
 70
8
 71
3
 72
8
 73
4
 74
0
 40
0
 40
0
 40
0
 40
0
 40
1
 40
1
 40
1
 40
1
 10
7.845038
 20
3.699075
 30
0.0
 10
7.640486
 20
3.406950
 30
0.0
 10
7.568305
 20
3.344475
 30
0.0
 10
7.506659
 20
3.406125
 30
0.0
  0
SPLINE
  5
101
100
AcDbEntity
  8
0
 62
7
100
AcDbSpline
 70
8
 71
3
 72
8
 73
4
 74
0
 40
0
 40
0
 40
0
 40
0
 40
1
 40
1
 40
1
 40
1
 10
8.115370
 20
3.814050
 30
0.0
 10
8.166400
 20
4.074150
 30
0.0
 10
8.082745
 20
4.038525
 30
0.0
 10
7.845038
 20
3.699075
 30
0.0
  0
SPLINE
  5
102
100
AcDbEntity
  8
0
 62
7
100
AcDbSpline
 70
8
 71
3
 72
8
 73
4
 74
0
 40
0
 40
0
 40
0
 40
0
 40
1
 40
1
 40
1
 40
1
 10
8.365676
 20
3.636075
 30
0.0
 10
8.094692
 20
3.277500
 30
0.0
 10
8.020460
 20
3.330225
 30
0.0
 10
8.115370
 20
3.813825
 30
0.0
  0
SPLINE
  5
103
100
AcDbEntity
  8
0
 62
7
100
AcDbSpline
 70
8
 71
3
 72
8
 73
4
 74
0
 40
0
 40
0
 40
0
 40
0
 40
1
 40
1
 40
1
 40
1
 10
8.590278
 20
3.873075
 30
0.0
 10
8.565295
 20
3.873075
 30
0.0
 10
8.464223
 20
3.766425
 30
0.0
 10
8.365676
 20
3.636075
 30
0.0
  0
SPLINE
  5
104
100
AcDbEntity
  8
0
 62
7
100
AcDbSpline
 70
8
 71
3
 72
8
 73
4
 74
0
 40
0
 40
0
 40
0
 40
0
 40
1
 40
1
 40
1
 40
1
 10
8.650153
 20
3.647325
 30
0.0
 10
8.642203
 20
3.771150
 30
0.0
 10
8.615256
 20
3.872475
 30
0.0
 10
8.590281
 20
3.872475
 30
0.0
  0
SPLINE
  5
105
100
AcDbEntity
  8
0
 62
7
100
AcDbSpline
 70
8
 71
3
 72
8
 73
4
 74
0
 40
0
 40
0
 40
0
 40
0
 40
1
 40
1
 40
1
 40
1
 10
8.749878
 20
3.422100
 30
0.0
 10
8.681793
 20
3.422100
 30
0.0
 10
8.661696
 20
3.467100
 30
0.0
 10
8.650157
 20
3.647325
 30
0.0
  0
SPLINE
  5
106
100
AcDbEntity
  8
0
 62
7
100
AcDbSpline
 70
8
 71
3
 72
8
 73
4
 74
0
 40
0
 40
0
 40
0
 40
0
 40
1
 40
1
 40
1
 40
1
 10
8.812583
 20
3.670575
 30
0.0
 10
8.832195
 20
3.454200
 30
0.0
 10
8.823998
 20
3.421650
 30
0.0
 10
8.749875
 20
3.421650
 30
0.0
  0
SPLINE
  5
107
100
AcDbEntity
  8
0
 62
7
100
AcDbSpline
 70
8
 71
3
 72
8
 73
4
 74
0
 40
0
 40
0
 40
0
 40
0
 40
1
 40
1
 40
1
 40
1
 10
8.602491
 20
4.085475
 30
0.0
 10
8.699342
 20
4.085475
 30
0.0
 10
8.791462
 20
3.903600
 30
0.0
 10
8.812580
 20
3.670575
 30
0.0
  0
SPLINE
  5
108
100
AcDbEntity
  8
0
 62
7
100
AcDbSpline
 70
8
 71
3
 72
8
 73
4
 74
0
 40
0
 40
0
 40
0
 40
0
 40
1
 40
1
 40
1
 40
1
 10
8.443892
 20
3.969075
 30
0.0
 10
8.507904
 20
4.033575
 30
0.0
 10
8.579270
 20
4.085475
 30
0.0
 10
8.602491
 20
4.085475
 30
0.0
  0
LWPOLYLINE
  5
109
100
AcDbEntity
  8
0
 62
7
100
AcDbPolyline
 90
2
 70
0
 10
8.327512
 20
3.852750
 30
0.0
 10
8.443892
 20
3.969075
 30
0.0
  0
SPLINE
  5
10a
100
AcDbEntity
  8
0
 62
7
100
AcDbSpline
 70
8
 71
3
 72
8
 73
4
 74
0
 40
0
 40
0
 40
0
 40
0
 40
1
 40
1
 40
1
 40
1
 10
8.100923
 20
4.192425
 30
0.0
 10
8.207119
 20
4.227675
 30
0.0
 10
8.327512
 20
4.104975
 30
0.0
 10
8.327512
 20
3.961575
 30
0.0
  0
SPLINE
  5
10b
100
AcDbEntity
  8
0
 62
7
100
AcDbSpline
 70
8
 71
3
 72
8
 73
4
 74
0
 40
0
 40
0
 40
0
 40
0
 40
1
 40
1
 40
1
 40
1
 10
7.861748
 20
3.993075
 30
0.0
 10
7.948414
 20
4.087875
 30
0.0
 10
8.056043
 20
4.177650
 30
0.0
 10
8.100923
 20
4.192575
 30
0.0
  0
SPLINE
  5
10c
100
AcDbEntity
  8
0
 62
7
100
AcDbSpline
 70
8
 71
3
 72
8
 73
4
 74
0
 40
0
 40
0
 40
0
 40
0
 40
1
 40
1
 40
1
 40
1
 10
7.741009
 20
3.939225
 30
0.0
 10
7.708384
 20
3.834225
 30
0.0
 10
7.722191
 20
3.840375
 30
0.0
 10
7.861748
 20
3.993225
 30
0.0
  0
SPLINE
  5
10d
100
AcDbEntity
  8
0
 62
7
100
AcDbSpline
 70
8
 71
3
 72
8
 73
4
 74
0
 40
0
 40
0
 40
0
 40
0
 40
1
 40
1
 40
1
 40
1
 10
7.730338
 20
4.351275
 30
0.0
 10
7.789730
 20
4.330275
 30
0.0
 10
7.795348
 20
4.114275
 30
0.0
 10
7.741010
 20
3.939375
 30
0.0
  0
SPLINE
  5
10e
100
AcDbEntity
  8
0
 62
7
100
AcDbSpline
 70
8
 71
3
 72
8
 73
4
 74
0
 40
0
 40
0
 40
0
 40
0
 40
1
 40
1
 40
1
 40
1
 10
7.576093
 20
4.023825
 30
0.0
 10
7.633663
 20
4.218150
 30
0.0
 10
7.701131
 20
4.361250
 30
0.0
 10
7.730339
 20
4.351275
 30
0.0
  0
SPLINE
  5
10f
100
AcDbEntity
  8
0
 62
7
100
AcDbSpline
 70
8
 71
3
 72
8
 73
4
 74
0
 40
0
 40
0
 40
0
 40
0
 40
1
 40
1
 40
1
 40
1
 10
7.506660
 20
3.400950
 30
0.0
 10
7.448152
 20
3.459450
 30
0.0
 10
7.471865
 20
3.672150
 30
0.0
 10
7.576095
 20
4.023825
 30
0.0
  0
SPLINE
  5
110
100
AcDbEntity
  8
0
 62
7
100
AcDbSpline
 70
8
 71
3
 72
8
 73
4
 74
0
 40
0
 40
0
 40
0
 40
0
 40
1
 40
1
 40
1
 40
1
 10
6.907162
 20
3.556500
 30
0.0
 10
6.694353
 20
3.332775
 30
0.0
 10
6.520258
 20
3.309750
 30
0.0
 10
6.402291
 20
3.489750
 30
0.0
  0
SPLINE
  5
111
100
AcDbEntity
  8
0
 62
7
100
AcDbSpline
 70
8
 71
3
 72
8
 73
4
 74
0
 40
0
 40
0
 40
0
 40
0
 40
1
 40
1
 40
1
 40
1
 10
7.200996
 20
4.231275
 30
0.0
 10
7.279053
 20
4.153275
 30
0.0
 10
7.113755
 20
3.773625
 30
0.0
 10
6.907162
 20
3.556425
 30
0.0
  0
SPLINE
  5
112
100
AcDbEntity
  8
0
 62
7
100
AcDbSpline
 70
8
 71
3
 72
8
 73
4
 74
0
 40
0
 40
0
 40
0
 40
0
 40
1
 40
1
 40
1
 40
1
 10
6.999968
 20
4.034250
 30
0.0
 10
7.055393
 20
4.240050
 30
0.0
 10
7.124484
 20
4.307850
 30
0.0
 10
7.200996
 20
4.231275
 30
0.0
  0
SPLINE
  5
113
100
AcDbEntity
  8
0
 62
7
100
AcDbSpline
 70
8
 71
3
 72
8
 73
4
 74
0
 40
0
 40
0
 40
0
 40
0
 40
1
 40
1
 40
1
 40
1
 10
6.616401
 20
3.560025
 30
0.0
 10
6.738937
 20
3.560025
 30
0.0
 10
6.938801
 20
3.807075
 30
0.0
 10
6.999968
 20
4.034250
 30
0.0
  0
SPLINE
  5
114
100
AcDbEntity
  8
0
 62
7
100
AcDbSpline
 70
8
 71
3
 72
8
 73
4
 74
0
 40
0
 40
0
 40
0
 40
0
 40
1
 40
1
 40
1
 40
1
 10
6.621657
 20
3.980250
 30
0.0
 10
6.499166
 20
3.710325
 30
0.0
 10
6.497286
 20
3.560250
 30
0.0
 10
6.616437
 20
3.560250
 30
0.0
  0
SPLINE
  5
115
100
AcDbEntity
  8
0
 62
7
100
AcDbSpline
 70
8
 71
3
 72
8
 73
4
 74
0
 40
0
 40
0
 40
0
 40
0
 40
1
 40
1
 40
1
 40
1
 10
6.480285
 20
4.157250
 30
0.0
 10
6.667229
 20
4.543500
 30
0.0
 10
6.801157
 20
4.376325
 30
0.0
 10
6.621690
 20
3.980775
 30
0.0
  0
SPLINE
  5
116
100
AcDbEntity
  8
0
 62
7
100
AcDbSpline
 70
8
 71
3
 72
8
 73
4
 74
0
 40
0
 40
0
 40
0
 40
0
 40
1
 40
1
 40
1
 40
1
 10
6.402323
 20
3.490500
 30
0.0
 10
6.307926
 20
3.634575
 30
0.0
 10
6.333614
 20
3.854325
 30
0.0
 10
6.480285
 20
4.157250
 30
0.0
  0
SPLINE
  5
117
100
AcDbEntity
  8
0
 62
7
100
AcDbSpline
 70
8
 71
3
 72
8
 73
4
 74
0
 40
0
 40
0
 40
0
 40
0
 40
1
 40
1
 40
1
 40
1
 10
4.866334
 20
3.414825
 30
0.0
 10
4.866334
 20
3.255675
 30
0.0
 10
4.797753
 20
3.233475
 30
0.0
 10
4.725099
 20
3.369075
 30
0.0
  0
SPLINE
  5
118
100
AcDbEntity
  8
0
 62
7
100
AcDbSpline
 70
8
 71
3
 72
8
 73
4
 74
0
 40
0
 40
0
 40
0
 40
0
 40
1
 40
1
 40
1
 40
1
 10
4.922342
 20
3.795975
 30
0.0
 10
4.891535
 20
3.662550
 30
0.0
 10
4.866333
 20
3.490950
 30
0.0
 10
4.866333
 20
3.414675
 30
0.0
  0
SPLINE
  5
119
100
AcDbEntity
  8
0
 62
7
100
AcDbSpline
 70
8
 71
3
 72
8
 73
4
 74
0
 40
0
 40
0
 40
0
 40
0
 40
1
 40
1
 40
1
 40
1
 10
4.884977
 20
4.131975
 30
0.0
 10
4.969951
 20
4.047000
 30
0.0
 10
4.973311
 20
4.016775
 30
0.0
 10
4.922339
 20
3.795975
 30
0.0
  0
SPLINE
  5
11a
100
AcDbEntity
  8
0
 62
7
100
AcDbSpline
 70
8
 71
3
 72
8
 73
4
 74
0
 40
0
 40
0
 40
0
 40
0
 40
1
 40
1
 40
1
 40
1
 10
4.566546
 20
4.082625
 30
0.0
 10
4.790434
 20
4.224600
 30
0.0
 10
4.792091
 20
4.224900
 30
0.0
 10
4.884975
 20
4.132125
 30
0.0
  0
SPLINE
  5
11b
100
AcDbEntity
  8
0
 62
7
100
AcDbSpline
 70
8
 71
3
 72
8
 73
4
 74
0
 40
0
 40
0
 40
0
 40
0
 40
1
 40
1
 40
1
 40
1
 10
4.331280
 20
3.940050
 30
0.0
 10
4.336897
 20
3.940050
 30
0.0
 10
4.442763
 20
4.004550
 30
0.0
 10
4.566546
 20
4.082775
 30
0.0
  0
SPLINE
  5
11c
100
AcDbEntity
  8
0
 62
7
100
AcDbSpline
 70
8
 71
3
 72
8
 73
4
 74
0
 40
0
 40
0
 40
0
 40
0
 40
1
 40
1
 40
1
 40
1
 10
4.321073
 20
4.113525
 30
0.0
 10
4.321073
 20
4.018050
 30
0.0
 10
4.325663
 20
3.940125
 30
0.0
 10
4.331279
 20
3.940125
 30
0.0
  0
SPLINE
  5
11d
100
AcDbEntity
  8
0
 62
7
100
AcDbSpline
 70
8
 71
3
 72
8
 73
4
 74
0
 40
0
 40
0
 40
0
 40
0
 40
1
 40
1
 40
1
 40
1
 10
4.169327
 20
4.142250
 30
0.0
 10
4.235021
 20
4.362900
 30
0.0
 10
4.321072
 20
4.346475
 30
0.0
 10
4.321072
 20
4.113750
 30
0.0
  0
SPLINE
  5
11e
100
AcDbEntity
  8
0
 62
7
100
AcDbSpline
 70
8
 71
3
 72
8
 73
4
 74
0
 40
0
 40
0
 40
0
 40
0
 40
1
 40
1
 40
1
 40
1
 10
4.044264
 20
3.774375
 30
0.0
 10
4.083825
 20
3.878700
 30
0.0
 10
4.140102
 20
4.044375
 30
0.0
 10
4.169327
 20
4.142475
 30
0.0
  0
SPLINE
  5
11f
100
AcDbEntity
  8
0
 62
7
100
AcDbSpline
 70
8
 71
3
 72
8
 73
4
 74
0
 40
0
 40
0
 40
0
 40
0
 40
1
 40
1
 40
1
 40
1
 10
4.036778
 20
3.518550
 30
0.0
 10
3.982442
 20
3.574050
 30
0.0
 10
3.983615
 20
3.614475
 30
0.0
 10
4.044263
 20
3.774375
 30
0.0
  0
SPLINE
  5
120
100
AcDbEntity
  8
0
 62
7
100
AcDbSpline
 70
8
 71
3
 72
8
 73
4
 74
0
 40
0
 40
0
 40
0
 40
0
 40
1
 40
1
 40
1
 40
1
 10
4.397027
 20
3.720375
 30
0.0
 10
4.145242
 20
3.492525
 30
0.0
 10
4.091627
 20
3.462525
 30
0.0
 10
4.036776
 20
3.518850
 30
0.0
  0
SPLINE
  5
121
100
AcDbEntity
  8
0
 62
7
100
AcDbSpline
 70
8
 71
3
 72
8
 73
4
 74
0
 40
0
 40
0
 40
0
 40
0
 40
1
 40
1
 40
1
 40
1
 10
4.722268
 20
3.666150
 30
0.0
 10
4.816183
 20
4.073250
 30
0.0
 10
4.791538
 20
4.077375
 30
0.0
 10
4.397027
 20
3.720150
 30
0.0
  0
SPLINE
  5
122
100
AcDbEntity
  8
0
 62
7
100
AcDbSpline
 70
8
 71
3
 72
8
 73
4
 74
0
 40
0
 40
0
 40
0
 40
0
 40
1
 40
1
 40
1
 40
1
 10
4.725094
 20
3.369600
 30
0.0
 10
4.691258
 20
3.432600
 30
0.0
 10
4.690354
 20
3.527550
 30
0.0
 10
4.722266
 20
3.665925
 30
0.0
  0
SPLINE
  5
123
100
AcDbEntity
  8
0
 62
7
100
AcDbSpline
 70
8
 71
3
 72
8
 73
4
 74
0
 40
0
 40
0
 40
0
 40
0
 40
1
 40
1
 40
1
 40
1
 10
2.986590
 20
3.490800
 30
0.0
 10
3.028455
 20
3.381750
 30
0.0
 10
3.092735
 20
3.402750
 30
0.0
 10
3.275104
 20
3.585075
 30
0.0
  0
SPLINE
  5
124
100
AcDbEntity
  8
0
 62
7
100
AcDbSpline
 70
8
 71
3
 72
8
 73
4
 74
0
 40
0
 40
0
 40
0
 40
0
 40
1
 40
1
 40
1
 40
1
 10
3.420042
 20
4.177500
 30
0.0
 10
3.267297
 20
4.177500
 30
0.0
 10
2.928843
 20
3.641325
 30
0.0
 10
2.986590
 20
3.490800
 30
0.0
  0
SPLINE
  5
125
100
AcDbEntity
  8
0
 62
7
100
AcDbSpline
 70
8
 71
3
 72
8
 73
4
 74
0
 40
0
 40
0
 40
0
 40
0
 40
1
 40
1
 40
1
 40
1
 10
3.275104
 20
3.585075
 30
0.0
 10
3.504440
 20
3.814425
 30
0.0
 10
3.593265
 20
4.177500
 30
0.0
 10
3.420042
 20
4.177500
 30
0.0
  0
SPLINE
  5
126
100
AcDbEntity
  8
0
 62
7
100
AcDbSpline
 70
8
 71
3
 72
8
 73
4
 74
0
 40
0
 40
0
 40
0
 40
0
 40
1
 40
1
 40
1
 40
1
 10
2.996925
 20
3.276600
 30
0.0
 10
2.957116
 20
3.276600
 30
0.0
 10
2.890161
 20
3.329100
 30
0.0
 10
2.848139
 20
3.393225
 30
0.0
  0
SPLINE
  5
127
100
AcDbEntity
  8
0
 62
7
100
AcDbSpline
 70
8
 71
3
 72
8
 73
4
 74
0
 40
0
 40
0
 40
0
 40
0
 40
1
 40
1
 40
1
 40
1
 10
3.627773
 20
3.783225
 30
0.0
 10
3.503440
 20
3.541200
 30
0.0
 10
3.173960
 20
3.276600
 30
0.0
 10
2.996925
 20
3.276600
 30
0.0
  0
SPLINE
  5
128
100
AcDbEntity
  8
0
 62
7
100
AcDbSpline
 70
8
 71
3
 72
8
 73
4
 74
0
 40
0
 40
0
 40
0
 40
0
 40
1
 40
1
 40
1
 40
1
 10
3.448415
 20
4.366950
 30
0.0
 10
3.643092
 20
4.366950
 30
0.0
 10
3.749683
 20
4.020525
 30
0.0
 10
3.627773
 20
3.783225
 30
0.0
  0
SPLINE
  5
129
100
AcDbEntity
  8
0
 62
7
100
AcDbSpline
 70
8
 71
3
 72
8
 73
4
 74
0
 40
0
 40
0
 40
0
 40
0
 40
1
 40
1
 40
1
 40
1
 10
2.952297
 20
4.001550
 30
0.0
 10
3.072242
 20
4.187175
 30
0.0
 10
3.315953
 20
4.366650
 30
0.0
 10
3.448415
 20
4.366950
 30
0.0
  0
SPLINE
  5
12a
100
AcDbEntity
  8
0
 62
7
100
AcDbSpline
 70
8
 71
3
 72
8
 73
4
 74
0
 40
0
 40
0
 40
0
 40
0
 40
1
 40
1
 40
1
 40
1
 10
2.848139
 20
3.393225
 30
0.0
 10
2.753311
 20
3.537975
 30
0.0
 10
2.789573
 20
3.749775
 30
0.0
 10
2.952297
 20
4.001550
 30
0.0
  0
SPLINE
  5
12b
100
AcDbEntity
  8
0
 62
7
100
AcDbSpline
 70
8
 71
3
 72
8
 73
4
 74
0
 40
0
 40
0
 40
0
 40
0
 40
1
 40
1
 40
1
 40
1
 10
1.959511
 20
3.491250
 30
0.0
 10
1.889034
 20
3.287700
 30
0.0
 10
1.801087
 20
3.225450
 30
0.0
 10
1.754702
 20
3.346350
 30
0.0
  0
SPLINE
  5
12c
100
AcDbEntity
  8
0
 62
7
100
AcDbSpline
 70
8
 71
3
 72
8
 73
4
 74
0
 40
0
 40
0
 40
0
 40
0
 40
1
 40
1
 40
1
 40
1
 10
2.500425
 20
4.042200
 30
0.0
 10
2.212845
 20
3.905625
 30
0.0
 10
2.043140
 20
3.732825
 30
0.0
 10
1.959511
 20
3.491250
 30
0.0
  0
SPLINE
  5
12d
100
AcDbEntity
  8
0
 62
7
100
AcDbSpline
 70
8
 71
3
 72
8
 73
4
 74
0
 40
0
 40
0
 40
0
 40
0
 40
1
 40
1
 40
1
 40
1
 10
2.611049
 20
4.224900
 30
0.0
 10
2.794744
 20
4.224900
 30
0.0
 10
2.758222
 20
4.164900
 30
0.0
 10
2.500425
 20
4.042200
 30
0.0
  0
SPLINE
  5
12e
100
AcDbEntity
  8
0
 62
7
100
AcDbSpline
 70
8
 71
3
 72
8
 73
4
 74
0
 40
0
 40
0
 40
0
 40
0
 40
1
 40
1
 40
1
 40
1
 10
2.151881
 20
3.997200
 30
0.0
 10
2.322403
 20
4.156200
 30
0.0
 10
2.461309
 20
4.225200
 30
0.0
 10
2.611049
 20
4.225200
 30
0.0
  0
SPLINE
  5
12f
100
AcDbEntity
  8
0
 62
7
100
AcDbSpline
 70
8
 71
3
 72
8
 73
4
 74
0
 40
0
 40
0
 40
0
 40
0
 40
1
 40
1
 40
1
 40
1
 10
2.092614
 20
4.083000
 30
0.0
 10
1.986645
 20
3.897600
 30
0.0
 10
2.009555
 20
3.864450
 30
0.0
 10
2.151881
 20
3.997200
 30
0.0
  0
SPLINE
  5
130
100
AcDbEntity
  8
0
 62
7
100
AcDbSpline
 70
8
 71
3
 72
8
 73
4
 74
0
 40
0
 40
0
 40
0
 40
0
 40
1
 40
1
 40
1
 40
1
 10
2.104467
 20
4.403400
 30
0.0
 10
2.185255
 20
4.429650
 30
0.0
 10
2.177948
 20
4.232175
 30
0.0
 10
2.092613
 20
4.083000
 30
0.0
  0
SPLINE
  5
131
100
AcDbEntity
  8
0
 62
7
100
AcDbSpline
 70
8
 71
3
 72
8
 73
4
 74
0
 40
0
 40
0
 40
0
 40
0
 40
1
 40
1
 40
1
 40
1
 10
1.754701
 20
3.346650
 30
0.0
 10
1.684613
 20
3.529275
 30
0.0
 10
1.958126
 20
4.355625
 30
0.0
 10
2.104467
 20
4.403400
 30
0.0
  0
SPLINE
  5
132
100
AcDbEntity
  8
0
 62
7
100
AcDbSpline
 70
8
 71
3
 72
8
 73
4
 74
0
 40
0
 40
0
 40
0
 40
0
 40
1
 40
1
 40
1
 40
1
 10
5.623795
 20
3.918450
 30
0.0
 10
5.699359
 20
3.827400
 30
0.0
 10
5.716086
 20
3.827850
 30
0.0
 10
5.822724
 20
3.925950
 30
0.0
  0
SPLINE
  5
133
100
AcDbEntity
  8
0
 62
7
100
AcDbSpline
 70
8
 71
3
 72
8
 73
4
 74
0
 40
0
 40
0
 40
0
 40
0
 40
1
 40
1
 40
1
 40
1
 10
5.673668
 20
4.109700
 30
0.0
 10
5.582372
 20
4.012425
 30
0.0
 10
5.573872
 20
3.980175
 30
0.0
 10
5.623795
 20
3.920025
 30
0.0
  0
SPLINE
  5
134
100
AcDbEntity
  8
0
 62
7
100
AcDbSpline
 70
8
 71
3
 72
8
 73
4
 74
0
 40
0
 40
0
 40
0
 40
0
 40
1
 40
1
 40
1
 40
1
 10
5.846576
 20
4.226775
 30
0.0
 10
5.812005
 20
4.226775
 30
0.0
 10
5.734197
 20
4.173525
 30
0.0
 10
5.673668
 20
4.109700
 30
0.0
  0
SPLINE
  5
135
100
AcDbEntity
  8
0
 62
7
100
AcDbSpline
 70
8
 71
3
 72
8
 73
4
 74
0
 40
0
 40
0
 40
0
 40
0
 40
1
 40
1
 40
1
 40
1
 10
5.822724
 20
3.925950
 30
0.0
 10
5.922856
 20
4.016625
 30
0.0
 10
5.939523
 20
4.226775
 30
0.0
 10
5.846575
 20
4.226775
 30
0.0
  0
SPLINE
  5
136
100
AcDbEntity
  8
0
 62
7
100
AcDbSpline
 70
8
 71
3
 72
8
 73
4
 74
0
 40
0
 40
0
 40
0
 40
0
 40
1
 40
1
 40
1
 40
1
 10
5.547778
 20
3.231300
 30
0.0
 10
5.466219
 20
3.231300
 30
0.0
 10
5.370206
 20
3.266550
 30
0.0
 10
5.334416
 20
3.309525
 30
0.0
  0
SPLINE
  5
137
100
AcDbEntity
  8
0
 62
7
100
AcDbSpline
 70
8
 71
3
 72
8
 73
4
 74
0
 40
0
 40
0
 40
0
 40
0
 40
1
 40
1
 40
1
 40
1
 10
6.004258
 20
3.464625
 30
0.0
 10
6.004258
 20
3.385875
 30
0.0
 10
5.702189
 20
3.231450
 30
0.0
 10
5.547778
 20
3.231300
 30
0.0
  0
SPLINE
  5
138
100
AcDbEntity
  8
0
 62
7
100
AcDbSpline
 70
8
 71
3
 72
8
 73
4
 74
0
 40
0
 40
0
 40
0
 40
0
 40
1
 40
1
 40
1
 40
1
 10
5.787938
 20
3.465750
 30
0.0
 10
5.924248
 20
3.555600
 30
0.0
 10
6.004258
 20
3.555300
 30
0.0
 10
6.004258
 20
3.465750
 30
0.0
  0
SPLINE
  5
139
100
AcDbEntity
  8
0
 62
7
100
AcDbSpline
 70
8
 71
3
 72
8
 73
4
 74
0
 40
0
 40
0
 40
0
 40
0
 40
1
 40
1
 40
1
 40
1
 10
5.541973
 20
3.374775
 30
0.0
 10
5.600647
 20
3.374775
 30
0.0
 10
5.711332
 20
3.416025
 30
0.0
 10
5.787938
 20
3.466875
 30
0.0
  0
SPLINE
  5
13a
100
AcDbEntity
  8
0
 62
7
100
AcDbSpline
 70
8
 71
3
 72
8
 73
4
 74
0
 40
0
 40
0
 40
0
 40
0
 40
1
 40
1
 40
1
 40
1
 10
5.435292
 20
3.556200
 30
0.0
 10
5.435292
 20
3.399225
 30
0.0
 10
5.449840
 20
3.374475
 30
0.0
 10
5.541973
 20
3.374775
 30
0.0
  0
SPLINE
  5
13b
100
AcDbEntity
  8
0
 62
7
100
AcDbSpline
 70
8
 71
3
 72
8
 73
4
 74
0
 40
0
 40
0
 40
0
 40
0
 40
1
 40
1
 40
1
 40
1
 10
5.588183
 20
3.748050
 30
0.0
 10
5.465783
 20
3.814050
 30
0.0
 10
5.435291
 20
3.775050
 30
0.0
 10
5.435291
 20
3.556200
 30
0.0
  0
SPLINE
  5
13c
100
AcDbEntity
  8
0
 62
7
100
AcDbSpline
 70
8
 71
3
 72
8
 73
4
 74
0
 40
0
 40
0
 40
0
 40
0
 40
1
 40
1
 40
1
 40
1
 10
6.005551
 20
3.909150
 30
0.0
 10
5.901827
 20
3.738975
 30
0.0
 10
5.729416
 20
3.672525
 30
0.0
 10
5.588183
 20
3.748050
 30
0.0
  0
SPLINE
  5
13d
100
AcDbEntity
  8
0
 62
7
100
AcDbSpline
 70
8
 71
3
 72
8
 73
4
 74
0
 40
0
 40
0
 40
0
 40
0
 40
1
 40
1
 40
1
 40
1
 10
6.024578
 20
4.295625
 30
0.0
 10
6.123361
 20
4.196850
 30
0.0
 10
6.118301
 20
4.094100
 30
0.0
 10
6.005552
 20
3.909150
 30
0.0
  0
SPLINE
  5
13e
100
AcDbEntity
  8
0
 62
7
100
AcDbSpline
 70
8
 71
3
 72
8
 73
4
 74
0
 40
0
 40
0
 40
0
 40
0
 40
1
 40
1
 40
1
 40
1
 10
5.379224
 20
3.974400
 30
0.0
 10
5.556980
 20
4.321725
 30
0.0
 10
5.851727
 20
4.468350
 30
0.0
 10
6.024580
 20
4.295550
 30
0.0
  0
SPLINE
  5
13f
100
AcDbEntity
  8
0
 62
7
100
AcDbSpline
 70
8
 71
3
 72
8
 73
4
 74
0
 40
0
 40
0
 40
0
 40
0
 40
1
 40
1
 40
1
 40
1
 10
5.334416
 20
3.310500
 30
0.0
 10
5.240564
 20
3.423600
 30
0.0
 10
5.262319
 20
3.745950
 30
0.0
 10
5.379224
 20
3.974400
 30
0.0
  0
SPLINE
  5
140
100
AcDbEntity
  8
0
 62
7
100
AcDbSpline
 70
8
 71
3
 72
8
 73
4
 74
0
 40
0
 40
0
 40
0
 40
0
 40
1
 40
1
 40
1
 40
1
 10
4.500558
 20
1.257300
 30
0.0
 10
4.378497
 20
1.008450
 30
0.0
 10
4.249658
 20
0.911250
 30
0.0
 10
4.249658
 20
1.068150
 30
0.0
  0
SPLINE
  5
141
100
AcDbEntity
  8
0
 62
7
100
AcDbSpline
 70
8
 71
3
 72
8
 73
4
 74
0
 40
0
 40
0
 40
0
 40
0
 40
1
 40
1
 40
1
 40
1
 10
4.628969
 20
1.968450
 30
0.0
 10
4.628969
 20
1.575975
 30
0.0
 10
4.612712
 20
1.485900
 30
0.0
 10
4.500558
 20
1.257300
 30
0.0
  0
SPLINE
  5
142
100
AcDbEntity
  8
0
 62
7
100
AcDbSpline
 70
8
 71
3
 72
8
 73
4
 74
0
 40
0
 40
0
 40
0
 40
0
 40
1
 40
1
 40
1
 40
1
 10
4.557848
 20
2.417775
 30
0.0
 10
4.616064
 20
2.417775
 30
0.0
 10
4.628970
 20
2.336325
 30
0.0
 10
4.628970
 20
1.968450
 30
0.0
  0
SPLINE
  5
143
100
AcDbEntity
  8
0
 62
7
100
AcDbSpline
 70
8
 71
3
 72
8
 73
4
 74
0
 40
0
 40
0
 40
0
 40
0
 40
1
 40
1
 40
1
 40
1
 10
4.486728
 20
2.013450
 30
0.0
 10
4.486728
 20
2.341425
 30
0.0
 10
4.500186
 20
2.417925
 30
0.0
 10
4.557849
 20
2.417925
 30
0.0
  0
SPLINE
  5
144
100
AcDbEntity
  8
0
 62
7
100
AcDbSpline
 70
8
 71
3
 72
8
 73
4
 74
0
 40
0
 40
0
 40
0
 40
0
 40
1
 40
1
 40
1
 40
1
 10
4.368194
 20
1.374900
 30
0.0
 10
4.467095
 20
1.570050
 30
0.0
 10
4.486729
 20
1.675875
 30
0.0
 10
4.486729
 20
2.013450
 30
0.0
  0
SPLINE
  5
145
100
AcDbEntity
  8
0
 62
7
100
AcDbSpline
 70
8
 71
3
 72
8
 73
4
 74
0
 40
0
 40
0
 40
0
 40
0
 40
1
 40
1
 40
1
 40
1
 10
4.249659
 20
1.068300
 30
0.0
 10
4.249659
 20
1.108050
 30
0.0
 10
4.303000
 20
1.246200
 30
0.0
 10
4.368194
 20
1.374900
 30
0.0
  0
SPLINE
  5
146
100
AcDbEntity
  8
0
 62
7
100
AcDbSpline
 70
8
 71
3
 72
8
 73
4
 74
0
 40
0
 40
0
 40
0
 40
0
 40
1
 40
1
 40
1
 40
1
 10
4.131124
 20
0.643200
 30
0.0
 10
4.332373
 20
0.538800
 30
0.0
 10
4.780134
 20
0.547125
 30
0.0
 10
4.998318
 20
0.658950
 30
0.0
  0
SPLINE
  5
147
100
AcDbEntity
  8
0
 62
7
100
AcDbSpline
 70
8
 71
3
 72
8
 73
4
 74
0
 40
0
 40
0
 40
0
 40
0
 40
1
 40
1
 40
1
 40
1
 10
3.538451
 20
1.582950
 30
0.0
 10
3.538451
 20
1.185600
 30
0.0
 10
3.758764
 20
0.836175
 30
0.0
 10
4.131124
 20
0.642900
 30
0.0
  0
SPLINE
  5
148
100
AcDbEntity
  8
0
 62
7
100
AcDbSpline
 70
8
 71
3
 72
8
 73
4
 74
0
 40
0
 40
0
 40
0
 40
0
 40
1
 40
1
 40
1
 40
1
 10
3.779708
 20
2.249175
 30
0.0
 10
3.583303
 20
2.025525
 30
0.0
 10
3.538451
 20
1.901700
 30
0.0
 10
3.538451
 20
1.582950
 30
0.0
  0
SPLINE
  5
149
100
AcDbEntity
  8
0
 62
7
100
AcDbSpline
 70
8
 71
3
 72
8
 73
4
 74
0
 40
0
 40
0
 40
0
 40
0
 40
1
 40
1
 40
1
 40
1
 10
4.557849
 20
2.607300
 30
0.0
 10
4.239875
 20
2.607300
 30
0.0
 10
3.995280
 20
2.494725
 30
0.0
 10
3.779708
 20
2.249175
 30
0.0
  0
SPLINE
  5
14a
100
AcDbEntity
  8
0
 62
7
100
AcDbSpline
 70
8
 71
3
 72
8
 73
4
 74
0
 40
0
 40
0
 40
0
 40
0
 40
1
 40
1
 40
1
 40
1
 10
5.577248
 20
1.563375
 30
0.0
 10
5.577248
 20
2.162175
 30
0.0
 10
5.142613
 20
2.607300
 30
0.0
 10
4.557849
 20
2.607300
 30
0.0
  0
SPLINE
  5
14b
100
AcDbEntity
  8
0
 62
7
100
AcDbSpline
 70
8
 71
3
 72
8
 73
4
 74
0
 40
0
 40
0
 40
0
 40
0
 40
1
 40
1
 40
1
 40
1
 10
4.998318
 20
0.658950
 30
0.0
 10
5.358527
 20
0.844275
 30
0.0
 10
5.577248
 20
1.185900
 30
0.0
 10
5.577248
 20
1.563375
 30
0.0
  0
SPLINE
  5
14c
100
AcDbEntity
  8
0
 62
7
100
AcDbSpline
 70
8
 71
3
 72
8
 73
4
 74
0
 40
0
 40
0
 40
0
 40
0
 40
1
 40
1
 40
1
 40
1
 10
5.082834
 20
0.511650
 30
0.0
 10
4.879537
 20
0.406875
 30
0.0
 10
4.437791
 20
0.358500
 30
0.0
 10
4.249352
 20
0.420300
 30
0.0
  0
SPLINE
  5
14d
100
AcDbEntity
  8
0
 62
7
100
AcDbSpline
 70
8
 71
3
 72
8
 73
4
 74
0
 40
0
 40
0
 40
0
 40
0
 40
1
 40
1
 40
1
 40
1
 10
5.643856
 20
1.077375
 30
0.0
 10
5.534196
 20
0.859725
 30
0.0
 10
5.299947
 20
0.623475
 30
0.0
 10
5.082834
 20
0.511650
 30
0.0
  0
SPLINE
  5
14e
100
AcDbEntity
  8
0
 62
7
100
AcDbSpline
 70
8
 71
3
 72
8
 73
4
 74
0
 40
0
 40
0
 40
0
 40
0
 40
1
 40
1
 40
1
 40
1
 10
5.082655
 20
2.668500
 30
0.0
 10
5.657822
 20
2.364900
 30
0.0
 10
5.919197
 20
1.623825
 30
0.0
 10
5.643875
 20
1.077375
 30
0.0
  0
SPLINE
  5
14f
100
AcDbEntity
  8
0
 62
7
100
AcDbSpline
 70
8
 71
3
 72
8
 73
4
 74
0
 40
0
 40
0
 40
0
 40
0
 40
1
 40
1
 40
1
 40
1
 10
4.036316
 20
2.669325
 30
0.0
 10
4.301900
 20
2.810925
 30
0.0
 10
4.813757
 20
2.810625
 30
0.0
 10
5.082655
 20
2.669325
 30
0.0
  0
SPLINE
  5
150
100
AcDbEntity
  8
0
 62
7
100
AcDbSpline
 70
8
 71
3
 72
8
 73
4
 74
0
 40
0
 40
0
 40
0
 40
0
 40
1
 40
1
 40
1
 40
1
 10
3.375023
 20
1.588650
 30
0.0
 10
3.375023
 20
2.068875
 30
0.0
 10
3.600667
 20
2.437725
 30
0.0
 10
4.036316
 20
2.670075
 30
0.0
  0
SPLINE
  5
151
100
AcDbEntity
  8
0
 62
7
100
AcDbSpline
 70
8
 71
3
 72
8
 73
4
 74
0
 40
0
 40
0
 40
0
 40
0
 40
1
 40
1
 40
1
 40
1
 10
3.697873
 20
0.766725
 30
0.0
 10
3.449427
 20
1.030800
 30
0.0
 10
3.375023
 20
1.220250
 30
0.0
 10
3.375023
 20
1.588650
 30
0.0
  0
SPLINE
  5
152
100
AcDbEntity
  8
0
 62
7
100
AcDbSpline
 70
8
 71
3
 72
8
 73
4
 74
0
 40
0
 40
0
 40
0
 40
0
 40
1
 40
1
 40
1
 40
1
 10
4.249372
 20
0.421125
 30
0.0
 10
4.030474
 20
0.493125
 30
0.0
 10
3.847841
 20
0.607350
 30
0.0
 10
3.697873
 20
0.766725
 30
0.0
  0
SPLINE
  5
153
100
AcDbEntity
  8
0
 62
7
100
AcDbSpline
 70
8
 71
3
 72
8
 73
4
 74
0
 40
0
 40
0
 40
0
 40
0
 40
1
 40
1
 40
1
 40
1
 10
0.268472
 20
3.102225
 30
0.0
 10
0.265389
 20
3.073725
 30
0.0
 10
0.175680
 20
3.093975
 30
0.0
 10
0.154371
 20
3.127725
 30
0.0
  0
SPLINE
  5
154
100
AcDbEntity
  8
0
 62
7
100
AcDbSpline
 70
8
 71
3
 72
8
 73
4
 74
0
 40
0
 40
0
 40
0
 40
0
 40
1
 40
1
 40
1
 40
1
 10
0.424889
 20
3.584250
 30
0.0
 10
0.339560
 20
3.325125
 30
0.0
 10
0.269173
 20
3.107850
 30
0.0
 10
0.268472
 20
3.101400
 30
0.0
  0
LWPOLYLINE
  5
155
100
AcDbEntity
  8
0
 62
7
100
AcDbPolyline
 90
2
 70
0
 10
8.327512
 20
3.961575
 30
0.0
 10
8.327512
 20
3.848550
 30
0.0
  0
LWPOLYLINE
  5
156
100
AcDbEntity
  8
0
 62
7
100
AcDbPolyline
 90
2
 70
0
 10
0.580033
 20
4.055250
 30
0.0
 10
0.424889
 20
3.584250
 30
0.0
  0
SPLINE
  5
157
100
AcDbEntity
  8
0
 62
7
100
AcDbSpline
 70
8
 71
3
 72
8
 73
4
 74
0
 40
0
 40
0
 40
0
 40
0
 40
1
 40
1
 40
1
 40
1
 10
1.292175
 20
3.089475
 30
0.0
 10
1.114185
 20
3.089475
 30
0.0
 10
0.807286
 20
3.431925
 30
0.0
 10
0.685199
 20
3.766800
 30
0.0
  0
SPLINE
  5
158
100
AcDbEntity
  8
0
 62
7
100
AcDbSpline
 70
8
 71
3
 72
8
 73
4
 74
0
 40
0
 40
0
 40
0
 40
0
 40
1
 40
1
 40
1
 40
1
 10
1.274743
 20
3.297150
 30
0.0
 10
1.436833
 20
3.212850
 30
0.0
 10
1.447186
 20
3.089475
 30
0.0
 10
1.292174
 20
3.089475
 30
0.0
  0
SPLINE
  5
159
100
AcDbEntity
  8
0
 62
7
100
AcDbSpline
 70
8
 71
3
 72
8
 73
4
 74
0
 40
0
 40
0
 40
0
 40
0
 40
1
 40
1
 40
1
 40
1
 10
0.862133
 20
3.764325
 30
0.0
 10
0.949202
 20
3.555900
 30
0.0
 10
1.095284
 20
3.390525
 30
0.0
 10
1.274742
 20
3.297150
 30
0.0
  0
SPLINE
  5
15a
100
AcDbEntity
  8
0
 62
7
100
AcDbSpline
 70
8
 71
3
 72
8
 73
4
 74
0
 40
0
 40
0
 40
0
 40
0
 40
1
 40
1
 40
1
 40
1
 10
0.919137
 20
4.254375
 30
0.0
 10
0.768468
 20
4.155900
 30
0.0
 10
0.753237
 20
4.024875
 30
0.0
 10
0.862134
 20
3.764325
 30
0.0
  0
SPLINE
  5
15b
100
AcDbEntity
  8
0
 62
7
100
AcDbSpline
 70
8
 71
3
 72
8
 73
4
 74
0
 40
0
 40
0
 40
0
 40
0
 40
1
 40
1
 40
1
 40
1
 10
1.109203
 20
4.399125
 30
0.0
 10
1.076380
 20
4.366125
 30
0.0
 10
0.990851
 20
4.301325
 30
0.0
 10
0.919138
 20
4.254375
 30
0.0
  0
SPLINE
  5
15c
100
AcDbEntity
  8
0
 62
7
100
AcDbSpline
 70
8
 71
3
 72
8
 73
4
 74
0
 40
0
 40
0
 40
0
 40
0
 40
1
 40
1
 40
1
 40
1
 10
1.547782
 20
4.725600
 30
0.0
 10
1.339386
 20
4.578750
 30
0.0
 10
1.142026
 20
4.431750
 30
0.0
 10
1.109203
 20
4.399125
 30
0.0
  0
SPLINE
  5
15d
100
AcDbEntity
  8
0
 62
7
100
AcDbSpline
 70
8
 71
3
 72
8
 73
4
 74
0
 40
0
 40
0
 40
0
 40
0
 40
1
 40
1
 40
1
 40
1
 10
1.885510
 20
5.148150
 30
0.0
 10
1.988282
 20
5.084400
 30
0.0
 10
1.899294
 20
4.973325
 30
0.0
 10
1.547782
 20
4.725600
 30
0.0
  0
SPLINE
  5
15e
100
AcDbEntity
  8
0
 62
7
100
AcDbSpline
 70
8
 71
3
 72
8
 73
4
 74
0
 40
0
 40
0
 40
0
 40
0
 40
1
 40
1
 40
1
 40
1
 10
1.011505
 20
4.549575
 30
0.0
 10
1.432369
 20
4.897575
 30
0.0
 10
1.839726
 20
5.176425
 30
0.0
 10
1.885510
 20
5.148150
 30
0.0
  0
SPLINE
  5
15f
100
AcDbEntity
  8
0
 62
7
100
AcDbSpline
 70
8
 71
3
 72
8
 73
4
 74
0
 40
0
 40
0
 40
0
 40
0
 40
1
 40
1
 40
1
 40
1
 10
0.716341
 20
4.322250
 30
0.0
 10
0.727382
 20
4.322250
 30
0.0
 10
0.860204
 20
4.424550
 30
0.0
 10
1.011505
 20
4.549575
 30
0.0
  0
SPLINE
  5
160
100
AcDbEntity
  8
0
 62
7
100
AcDbSpline
 70
8
 71
3
 72
8
 73
4
 74
0
 40
0
 40
0
 40
0
 40
0
 40
1
 40
1
 40
1
 40
1
 10
0.905533
 20
4.815150
 30
0.0
 10
0.737696
 20
4.440375
 30
0.0
 10
0.692373
 20
4.322250
 30
0.0
 10
0.716341
 20
4.322250
 30
0.0
  0
SPLINE
  5
161
100
AcDbEntity
  8
0
 62
7
100
AcDbSpline
 70
8
 71
3
 72
8
 73
4
 74
0
 40
0
 40
0
 40
0
 40
0
 40
1
 40
1
 40
1
 40
1
 10
0.930496
 20
5.223150
 30
0.0
 10
1.035294
 20
5.223150
 30
0.0
 10
1.026915
 20
5.086200
 30
0.0
 10
0.905531
 20
4.815150
 30
0.0
  0
SPLINE
  5
162
100
AcDbEntity
  8
0
 62
7
100
AcDbSpline
 70
8
 71
3
 72
8
 73
4
 74
0
 40
0
 40
0
 40
0
 40
0
 40
1
 40
1
 40
1
 40
1
 10
0.154350
 20
3.127725
 30
0.0
 10
0.072734
 20
3.259725
 30
0.0
 10
0.799948
 20
5.223150
 30
0.0
 10
0.930476
 20
5.223150
 30
0.0
  0
LWPOLYLINE
  5
163
100
AcDbEntity
  8
0
 62
7
100
AcDbPolyline
 90
2
 70
0
 10
0.685199
 20
3.766800
 30
0.0
 10
0.580033
 20
4.055250
 30
0.0
  0
ENDSEC
  0
SECTION
  2
OBJECTS
  0
DICTIONARY
  5
C
330
0
100
AcDbDictionary
  3
ACAD_GROUP
350
D
  3
ACAD_MLINESTYLE
350
17
  0
DICTIONARY
  5
D
330
C
100
AcDbDictionary
  0
DICTIONARY
  5
1A
330
C
100
AcDbDictionary
  0
DICTIONARY
  5
17
330
C
100
AcDbDictionary
  3
STANDARD
350
18
  0
DICTIONARY
  5
19
330
C
100
AcDbDictionary
  0
ENDSEC
  0
EOF
