<?xml version="1.0" encoding="UTF-8" standalone="no"?>
<svg
   xmlns:dc="http://purl.org/dc/elements/1.1/"
   xmlns:cc="http://creativecommons.org/ns#"
   xmlns:rdf="http://www.w3.org/1999/02/22-rdf-syntax-ns#"
   xmlns:svg="http://www.w3.org/2000/svg"
   xmlns="http://www.w3.org/2000/svg"
   xmlns:sodipodi="http://sodipodi.sourceforge.net/DTD/sodipodi-0.dtd"
   xmlns:inkscape="http://www.inkscape.org/namespaces/inkscape"
   width="12"
   height="8"
   version="1.1"
   id="svg220"
   sodipodi:docname="kroneum-silkscreen-logo.svg"
   inkscape:version="0.92.4 5da689c313, 2019-01-14">
  <metadata
     id="metadata224">
    <rdf:RDF>
      <cc:Work
         rdf:about="">
        <dc:format>image/svg+xml</dc:format>
        <dc:type
           rdf:resource="http://purl.org/dc/dcmitype/StillImage" />
        <dc:title></dc:title>
      </cc:Work>
    </rdf:RDF>
  </metadata>
  <sodipodi:namedview
     pagecolor="#ffffff"
     bordercolor="#666666"
     borderopacity="1"
     objecttolerance="10"
     gridtolerance="10"
     guidetolerance="10"
     inkscape:pageopacity="0"
     inkscape:pageshadow="2"
     inkscape:window-width="1920"
     inkscape:window-height="1016"
     id="namedview222"
     showgrid="false"
     inkscape:zoom="53.821775"
     inkscape:cx="8.1942784"
     inkscape:cy="3.3369733"
     inkscape:window-x="0"
     inkscape:window-y="27"
     inkscape:window-maximized="1"
     inkscape:current-layer="g218" />
  <desc
     id="desc2">/home/azasypkin/Downloads/kroneum.dxf - scale = 1.000000, origin = (0.000000, 0.000000), method = manual</desc>
  <defs
     id="defs16">
    <marker
       id="DistanceX"
       orient="auto"
       refX="0"
       refY="0"
       style="overflow:visible">
      <path
         d="M 3,-3 -3,3 M 0,-5 V 5"
         style="stroke:#000000;stroke-width:0.5"
         id="path4"
         inkscape:connector-curvature="0" />
    </marker>
    <pattern
       height="8"
       id="Hatch"
       patternUnits="userSpaceOnUse"
       width="8"
       x="0"
       y="0">
      <path
         d="M8 4 l-4,4"
         linecap="square"
         stroke="#000000"
         stroke-width="0.25"
         id="path7" />
      <path
         d="M6 2 l-4,4"
         linecap="square"
         stroke="#000000"
         stroke-width="0.25"
         id="path9" />
      <path
         d="M4 0 l-4,4"
         linecap="square"
         stroke="#000000"
         stroke-width="0.25"
         id="path11" />
    </pattern>
    <symbol
       id="*MODEL_SPACE" />
    <symbol
       id="*PAPER_SPACE" />
  </defs>
  <g
     inkscape:groupmode="layer"
     inkscape:label="0"
     id="g218"
     transform="translate(0,-1114.5197)">
    <path
       id="path216"
       style="fill:none;stroke:#000000;stroke-width:0.0796454"
       d="m 10.46005,1117.5876 c -0.272736,0.3895 -0.368977,0.4728 -0.451172,0.3906 m 0.811615,-0.5439 c 0.06804,-0.3468 -0.0435,-0.2993 -0.360443,0.1533 m 0.694185,0.084 c -0.361312,0.4781 -0.460289,0.4078 -0.333742,-0.237 m 0.633211,-0.079 c -0.03331,0 -0.168073,0.1422 -0.299469,0.316 m 0.379303,-0.015 c -0.0106,-0.1651 -0.04653,-0.3002 -0.07983,-0.3002 m 0.212796,0.6005 c -0.09078,0 -0.117576,-0.06 -0.132962,-0.3003 m 0.216568,-0.031 c 0.02615,0.2885 0.01522,0.3319 -0.08361,0.3319 m -0.196512,-0.8851 c 0.129135,0 0.251961,0.2425 0.280118,0.5532 m -0.491584,-0.398 c 0.08535,-0.086 0.180505,-0.1552 0.211466,-0.1552 m -0.366639,0.3103 0.155173,-0.1551 m -0.155173,0.01 v 0.1507 m -0.302118,-0.4585 c 0.141594,-0.047 0.302118,0.1166 0.302118,0.3078 m -0.621019,-0.042 c 0.115555,-0.1264 0.25906,-0.2461 0.318901,-0.266 m -0.479886,0.3378 c -0.0435,0.14 -0.02509,0.1318 0.160985,-0.072 m -0.175213,-0.4774 c 0.07919,0.028 0.08668,0.316 0.01423,0.5492 m -0.21989,-0.1126 c 0.07676,-0.2591 0.166718,-0.4499 0.205661,-0.4366 m -0.298238,1.2671 c -0.078011,-0.078 -0.046393,-0.3616 0.09258,-0.8305 m -0.8919107,0.6231 c -0.2837455,0.2983 -0.5158715,0.329 -0.6731615,0.089 m 1.0649401,-0.9887 c 0.1040756,0.104 -0.1163215,0.6102 -0.3917786,0.8998 m 0.1237411,-0.6371 c 0.0739,-0.2744 0.1660211,-0.3648 0.2680375,-0.2627 m -0.7794605,0.895 c 0.1633819,0 0.4298675,-0.3294 0.511423,-0.6323 m -0.5044145,0.072 c -0.1633209,0.3599 -0.1658275,0.56 -0.00696,0.56 m -0.1815358,-0.796 c 0.249259,-0.515 0.4278292,-0.2921 0.1885402,0.2353 m -0.292489,0.6537 c -0.1258633,-0.1921 -0.091612,-0.4851 0.1039488,-0.889 m -2.1519351,0.9899 c 0,0.2122 -0.091441,0.2418 -0.1883132,0.061 m 0.2629905,-0.5692 c -0.041075,0.1779 -0.074678,0.4067 -0.074678,0.5084 m 0.024859,-0.9564 c 0.1132985,0.1133 0.1177782,0.1536 0.049815,0.448 m -0.4743909,-0.3822 c 0.2985173,-0.1893 0.3007267,-0.1897 0.4245726,-0.066 m -0.7382601,0.2561 c 0.00749,0 0.1486441,-0.086 0.3136875,-0.1903 m -0.3272974,-0.041 c 0,0.1273 0.00612,0.2312 0.013609,0.2312 m -0.2159363,-0.2695 c 0.087592,-0.2942 0.2023265,-0.2723 0.2023265,0.038 m -0.3690773,0.4525 c 0.052748,-0.1391 0.1277836,-0.36 0.1667508,-0.4908 m -0.1767325,0.8319 c -0.072448,-0.074 -0.070883,-0.1279 0.00998,-0.3411 m 0.4703518,0.072 c -0.3357124,0.3038 -0.407199,0.3438 -0.4803335,0.2687 m 0.9139882,-0.1964 c 0.1252212,-0.5428 0.092361,-0.5483 -0.4336547,-0.072 m 0.4374232,0.4674 c -0.045115,-0.084 -0.04632,-0.2106 -0.00377,-0.3951 m -2.3142349,0.2335 c 0.05582,0.1454 0.1415267,0.1174 0.384685,-0.1257 m 0.1932507,-0.7899 c -0.2036601,0 -0.6549325,0.7149 -0.5779357,0.9156 m 0.384685,-0.1257 c 0.3057819,-0.3058 0.424215,-0.7899 0.1932507,-0.7899 m -0.5641554,1.2012 c -0.053079,0 -0.1423527,-0.07 -0.1983824,-0.1555 m 1.039512,-0.52 c -0.1657766,0.3227 -0.605083,0.6755 -0.8411296,0.6755 m 0.6019861,-1.4538 c 0.2595687,0 0.40169,0.4619 0.2391435,0.7783 m -0.900634,-0.2911 c 0.1599263,-0.2475 0.4848739,-0.4868 0.6614905,-0.4872 m -0.8003685,1.2983 c -0.1264366,-0.193 -0.078088,-0.4754 0.138878,-0.8111 m -1.3237148,0.6804 c -0.093969,0.2714 -0.2112323,0.3544 -0.2730793,0.1932 m 0.9942973,-0.9278 c -0.3834394,0.1821 -0.6097132,0.4125 -0.721218,0.7346 m 0.8687179,-0.9782 c 0.2449267,0 0.1962298,0.08 -0.1474999,0.2436 m -0.4647246,0.06 c 0.2273628,-0.212 0.4125712,-0.304 0.6122245,-0.304 m -0.6912475,0.1896 c -0.1412915,0.2472 -0.1107455,0.2914 0.079023,0.1144 m -0.063219,-0.5416 c 0.1077172,-0.035 0.097975,0.2283 -0.015805,0.4272 m -0.4505497,0.9818 c -0.09345,-0.2435 0.2712334,-1.3453 0.4663544,-1.409 m 4.6924381,0.6466 c 0.1007523,0.1214 0.1230542,0.1208 0.2652387,-0.01 m -0.1987411,-0.245 c -0.1217281,0.1297 -0.1330613,0.1727 -0.066498,0.2529 m 0.2970412,-0.409 c -0.046094,0 -0.1498386,0.071 -0.2305436,0.1561 m 0.1987412,0.245 c 0.1335087,-0.1209 0.1557317,-0.4011 0.031801,-0.4011 m -0.3983956,1.3273 c -0.1087453,0 -0.2367625,-0.047 -0.2844833,-0.1043 m 0.8931237,-0.2068 c 0,0.105 -0.4027588,0.3109 -0.6086404,0.3111 m 0.3202136,-0.3126 c 0.1817459,-0.1198 0.2884268,-0.1194 0.2884268,0 m -0.6163802,0.1213 c 0.078232,0 0.2258119,-0.055 0.3279534,-0.1228 m -0.4701954,-0.1191 c 0,0.2093 0.019398,0.2423 0.142242,0.2419 m 0.061613,-0.4977 c -0.1632003,-0.088 -0.2038554,-0.036 -0.2038554,0.2558 m 0.7603465,-0.4706 c -0.1382984,0.2269 -0.3681807,0.3155 -0.5564911,0.2148 m 0.5818607,-0.7301 c 0.1317097,0.1317 0.1249627,0.2687 -0.025368,0.5153 m -0.8351048,-0.087 c 0.2370088,-0.4631 0.6300039,-0.6586 0.8604744,-0.4282 m -0.9202176,1.3134 c -0.1251371,-0.1508 -0.09613,-0.5806 0.059743,-0.8852 m -1.1715544,3.6228 c -0.1627482,0.3318 -0.3345328,0.4614 -0.3345328,0.2522 m 0.5057482,-1.2004 c 0,0.5233 -0.021677,0.6434 -0.1712154,0.9482 m 0.076387,-1.5473 c 0.077621,0 0.094829,0.1086 0.094829,0.5991 m -0.1896555,-0.06 c 0,-0.4373 0.017944,-0.5393 0.094828,-0.5393 m -0.2528739,1.3907 c 0.1318679,-0.2602 0.1580466,-0.4013 0.1580466,-0.8514 m -0.3160926,1.2602 c 0,-0.053 0.071121,-0.2372 0.158046,-0.4088 m -0.3160927,0.9756 c 0.2683313,0.1392 0.8653465,0.1281 1.1562585,-0.021 m -1.94649,-1.232 c 0,0.5298 0.2937515,0.9957 0.7902315,1.2534 m -0.4685557,-2.1417 c -0.2618725,0.2982 -0.3216758,0.4633 -0.3216758,0.8883 m 1.3591981,-1.3658 c -0.4239658,0 -0.7500924,0.1501 -1.0375223,0.4775 m 2.396721,0.9144 c 0,-0.7984 -0.5795139,-1.3919 -1.3591987,-1.3919 m 0.5872919,2.5978 c 0.4802789,-0.2471 0.7719068,-0.7026 0.7719068,-1.2059 m -0.6592186,1.4023 c -0.2710635,0.1397 -0.8600577,0.2042 -1.1113092,0.1218 m 1.8593383,-0.8761 c -0.1462138,0.2902 -0.458545,0.6052 -0.7480291,0.7543 m -2.387e-4,-2.8758 c 0.7668893,0.4048 1.1153884,1.3929 0.7482933,2.1215 m -2.143413,-2.1226 c 0.3541129,-0.1888 1.0365885,-0.1884 1.3951197,0 m -2.2768429,1.4409 c 0,-0.6403 0.3008589,-1.1321 0.8817232,-1.4419 m -0.4512573,2.5378 c -0.3312612,-0.3521 -0.4304659,-0.6047 -0.4304659,-1.0959 m 1.1657978,1.5567 c -0.2918631,-0.096 -0.5353743,-0.2483 -0.7353319,-0.4608 m -4.57253405,-3.114 c -0.004111,0.038 -0.12372304,0.011 -0.15213432,-0.034 m 0.36069013,-0.6087 c -0.11377149,0.3455 -0.20762156,0.6352 -0.20855581,0.6438 m 0.41541405,-1.2718 -0.20685824,0.628 m 0.34708028,-0.2434 -0.14022204,-0.3846 m 0.9495232,1.2877 c -0.2373201,0 -0.6465187,-0.4566 -0.80930116,-0.9031 m 0.78605856,0.6262 c 0.2161206,0.1124 0.229924,0.2769 0.023241,0.2769 m -0.5733871,-0.8998 c 0.116091,0.2779 0.3108678,0.4984 0.5501446,0.6229 m -0.4741394,-1.2763 c -0.2008926,0.1313 -0.2212007,0.306 -0.076005,0.6534 m 0.3294261,-0.8464 c -0.043764,0.044 -0.1578026,0.1304 -0.2534209,0.193 m 0.8381922,-0.6283 c -0.2778609,0.1958 -0.5410079,0.3918 -0.5847713,0.4353 m 1.0350752,-0.9987 c 0.1370298,0.085 0.018379,0.2331 -0.4503039,0.5634 m -0.715036,0.2347 c 0.5611531,-0.464 1.1042957,-0.8358 1.1653399,-0.7981 m -1.55889206,1.1012 c 0.0147219,0 0.19181796,-0.1364 0.39355216,-0.3031 m -0.1412962,-0.3541 c -0.22378259,0.4997 -0.2842126,0.6572 -0.25225596,0.6572 m 0.28554046,-1.2012 c 0.1397312,0 0.1285585,0.1826 -0.033286,0.544 m -1.00157522,2.2499 c -0.1088207,-0.176 0.86079782,-2.7939 1.03483422,-2.7939"
       inkscape:connector-curvature="0" />
  </g>
</svg>
