G04 #@! TF.GenerationSoftware,KiCad,Pcbnew,5.1.4*
G04 #@! TF.CreationDate,2019-09-01T13:26:14+02:00*
G04 #@! TF.ProjectId,kroneum,6b726f6e-6575-46d2-9e6b-696361645f70,rev?*
G04 #@! TF.SameCoordinates,PX9eae8f0PY7ec80e0*
G04 #@! TF.FileFunction,Soldermask,Bot*
G04 #@! TF.FilePolarity,Negative*
%FSLAX46Y46*%
G04 Gerber Fmt 4.6, Leading zero omitted, Abs format (unit mm)*
G04 Created by KiCad (PCBNEW 5.1.4) date 2019-09-01 13:26:14*
%MOMM*%
%LPD*%
G04 APERTURE LIST*
%ADD10C,0.020000*%
G04 APERTURE END LIST*
D10*
G36*
X-11739000Y17964000D02*
G01*
X-13841000Y17964000D01*
X-13841000Y20066000D01*
X-11739000Y20066000D01*
X-11739000Y17964000D01*
X-11739000Y17964000D01*
G37*
G36*
X-15789000Y17964000D02*
G01*
X-17891000Y17964000D01*
X-17891000Y20066000D01*
X-15789000Y20066000D01*
X-15789000Y17964000D01*
X-15789000Y17964000D01*
G37*
G36*
X-11739000Y22014000D02*
G01*
X-13841000Y22014000D01*
X-13841000Y24116000D01*
X-11739000Y24116000D01*
X-11739000Y22014000D01*
X-11739000Y22014000D01*
G37*
G36*
X-15789000Y22014000D02*
G01*
X-17891000Y22014000D01*
X-17891000Y24116000D01*
X-15789000Y24116000D01*
X-15789000Y22014000D01*
X-15789000Y22014000D01*
G37*
G36*
X-36741779Y30519826D02*
G01*
X-36641505Y30478291D01*
X-36641504Y30478290D01*
X-36551258Y30417990D01*
X-36474510Y30341242D01*
X-36474509Y30341240D01*
X-36414209Y30250995D01*
X-36372674Y30150721D01*
X-36351500Y30044270D01*
X-36351500Y29935730D01*
X-36372674Y29829279D01*
X-36414209Y29729005D01*
X-36414210Y29729004D01*
X-36474510Y29638758D01*
X-36551258Y29562010D01*
X-36596688Y29531655D01*
X-36641505Y29501709D01*
X-36741779Y29460174D01*
X-36848230Y29439000D01*
X-36956770Y29439000D01*
X-37063221Y29460174D01*
X-37163495Y29501709D01*
X-37208312Y29531655D01*
X-37253742Y29562010D01*
X-37330490Y29638758D01*
X-37390790Y29729004D01*
X-37390791Y29729005D01*
X-37432326Y29829279D01*
X-37453500Y29935730D01*
X-37453500Y30044270D01*
X-37432326Y30150721D01*
X-37390791Y30250995D01*
X-37330491Y30341240D01*
X-37330490Y30341242D01*
X-37253742Y30417990D01*
X-37163496Y30478290D01*
X-37163495Y30478291D01*
X-37063221Y30519826D01*
X-36956770Y30541000D01*
X-36848230Y30541000D01*
X-36741779Y30519826D01*
X-36741779Y30519826D01*
G37*
G36*
X-36741779Y35519826D02*
G01*
X-36641505Y35478291D01*
X-36641504Y35478290D01*
X-36551258Y35417990D01*
X-36474510Y35341242D01*
X-36474509Y35341240D01*
X-36414209Y35250995D01*
X-36372674Y35150721D01*
X-36351500Y35044270D01*
X-36351500Y34935730D01*
X-36372674Y34829279D01*
X-36414209Y34729005D01*
X-36414210Y34729004D01*
X-36474510Y34638758D01*
X-36551258Y34562010D01*
X-36596688Y34531655D01*
X-36641505Y34501709D01*
X-36741779Y34460174D01*
X-36848230Y34439000D01*
X-36956770Y34439000D01*
X-37063221Y34460174D01*
X-37163495Y34501709D01*
X-37208312Y34531655D01*
X-37253742Y34562010D01*
X-37330490Y34638758D01*
X-37390790Y34729004D01*
X-37390791Y34729005D01*
X-37432326Y34829279D01*
X-37453500Y34935730D01*
X-37453500Y35044270D01*
X-37432326Y35150721D01*
X-37390791Y35250995D01*
X-37330491Y35341240D01*
X-37330490Y35341242D01*
X-37253742Y35417990D01*
X-37163496Y35478290D01*
X-37163495Y35478291D01*
X-37063221Y35519826D01*
X-36956770Y35541000D01*
X-36848230Y35541000D01*
X-36741779Y35519826D01*
X-36741779Y35519826D01*
G37*
M02*
