G04 #@! TF.GenerationSoftware,KiCad,Pcbnew,5.1.4*
G04 #@! TF.CreationDate,2019-09-01T13:26:14+02:00*
G04 #@! TF.ProjectId,kroneum,6b726f6e-6575-46d2-9e6b-696361645f70,rev?*
G04 #@! TF.SameCoordinates,PX9eae8f0PY7ec80e0*
G04 #@! TF.FileFunction,Legend,Top*
G04 #@! TF.FilePolarity,Positive*
%FSLAX46Y46*%
G04 Gerber Fmt 4.6, Leading zero omitted, Abs format (unit mm)*
G04 Created by KiCad (PCBNEW 5.1.4) date 2019-09-01 13:26:14*
%MOMM*%
%LPD*%
G04 APERTURE LIST*
%ADD10C,0.120000*%
%ADD11C,0.150000*%
%ADD12C,0.100000*%
%ADD13C,0.050000*%
G04 APERTURE END LIST*
D10*
G04 #@! TO.C,J1*
X-36052500Y34190000D02*
X-36502500Y34190000D01*
X-36052500Y34190000D02*
X-36052500Y33740000D01*
X-36602500Y28590000D02*
X-36602500Y29040000D01*
X-38452500Y28590000D02*
X-36602500Y28590000D01*
X-41002500Y36390000D02*
X-40752500Y36390000D01*
X-41002500Y28590000D02*
X-40752500Y28590000D01*
X-38452500Y36390000D02*
X-36602500Y36390000D01*
X-36602500Y36390000D02*
X-36602500Y35940000D01*
D11*
G04 #@! TO.C,U1*
X-12590000Y26345000D02*
X-17040000Y26345000D01*
X-11065000Y19445000D02*
X-17040000Y19445000D01*
D10*
G04 #@! TO.C,U2*
X-28035000Y37680000D02*
X-28035000Y36480000D01*
X-32035000Y37680000D02*
X-28035000Y37680000D01*
X-28035000Y32880000D02*
X-30735000Y32880000D01*
X-28035000Y34080000D02*
X-28035000Y32880000D01*
G04 #@! TO.C,One*
X-8990000Y8640000D02*
X-9440000Y8190000D01*
X-8990000Y5240000D02*
X-9440000Y5690000D01*
X-4390000Y5240000D02*
X-3940000Y5690000D01*
X-4390000Y8640000D02*
X-3940000Y8190000D01*
X-5690000Y4190000D02*
X-7690000Y4190000D01*
X-9440000Y8190000D02*
X-9440000Y5690000D01*
X-5690000Y9690000D02*
X-7690000Y9690000D01*
X-3940000Y8190000D02*
X-3940000Y5690000D01*
G04 #@! TO.C,C1*
X-21176252Y24255000D02*
X-20653748Y24255000D01*
X-21176252Y25675000D02*
X-20653748Y25675000D01*
G04 #@! TO.C,C3*
X-21176252Y27825000D02*
X-20653748Y27825000D01*
X-21176252Y26405000D02*
X-20653748Y26405000D01*
G04 #@! TO.C,C7*
X-18103748Y7630000D02*
X-18626252Y7630000D01*
X-18103748Y9050000D02*
X-18626252Y9050000D01*
G04 #@! TO.C,C8*
X-6951252Y12850000D02*
X-6428748Y12850000D01*
X-6951252Y11430000D02*
X-6428748Y11430000D01*
G04 #@! TO.C,C9*
X-6951252Y27130000D02*
X-6428748Y27130000D01*
X-6951252Y28550000D02*
X-6428748Y28550000D01*
G04 #@! TO.C,R1*
X-16376252Y27555000D02*
X-15853748Y27555000D01*
X-16376252Y28975000D02*
X-15853748Y28975000D01*
G04 #@! TO.C,R2*
X-18103748Y9780000D02*
X-18626252Y9780000D01*
X-18103748Y11200000D02*
X-18626252Y11200000D01*
G04 #@! TO.C,D1*
X-29155000Y26840000D02*
X-29155000Y27770000D01*
X-29155000Y30000000D02*
X-29155000Y29070000D01*
X-29155000Y30000000D02*
X-31315000Y30000000D01*
X-29155000Y26840000D02*
X-30615000Y26840000D01*
G04 #@! TO.C,BZ1*
X-15005000Y32730000D02*
X-14675000Y32730000D01*
X-15005000Y39300000D02*
X-15005000Y36650000D01*
X-24225000Y39300000D02*
X-15005000Y39300000D01*
X-24225000Y36650000D02*
X-24225000Y39300000D01*
X-24225000Y30080000D02*
X-24225000Y32730000D01*
X-15005000Y30080000D02*
X-24225000Y30080000D01*
X-15005000Y32730000D02*
X-15005000Y30080000D01*
G04 #@! TO.C,Reset*
X-20065000Y1540000D02*
X-19615000Y1090000D01*
X-16665000Y1540000D02*
X-17115000Y1090000D01*
X-16665000Y6140000D02*
X-17115000Y6590000D01*
X-20065000Y6140000D02*
X-19615000Y6590000D01*
X-15615000Y4840000D02*
X-15615000Y2840000D01*
X-19615000Y1090000D02*
X-17115000Y1090000D01*
X-21115000Y4840000D02*
X-21115000Y2840000D01*
X-19615000Y6590000D02*
X-17115000Y6590000D01*
G04 #@! TO.C,Ten*
X-3940000Y34290000D02*
X-3940000Y31790000D01*
X-5690000Y35790000D02*
X-7690000Y35790000D01*
X-9440000Y34290000D02*
X-9440000Y31790000D01*
X-5690000Y30290000D02*
X-7690000Y30290000D01*
X-4390000Y34740000D02*
X-3940000Y34290000D01*
X-4390000Y31340000D02*
X-3940000Y31790000D01*
X-8990000Y31340000D02*
X-9440000Y31790000D01*
X-8990000Y34740000D02*
X-9440000Y34290000D01*
G04 #@! TO.C,Boot*
X-16665000Y17290000D02*
X-17115000Y17740000D01*
X-20065000Y17290000D02*
X-19615000Y17740000D01*
X-20065000Y12690000D02*
X-19615000Y12240000D01*
X-16665000Y12690000D02*
X-17115000Y12240000D01*
X-21115000Y13990000D02*
X-21115000Y15990000D01*
X-17115000Y17740000D02*
X-19615000Y17740000D01*
X-15615000Y13990000D02*
X-15615000Y15990000D01*
X-17115000Y12240000D02*
X-19615000Y12240000D01*
G04 #@! TO.C,C2*
X-33295000Y36561252D02*
X-33295000Y36038748D01*
X-34715000Y36561252D02*
X-34715000Y36038748D01*
G04 #@! TO.C,C4*
X-33521748Y30092000D02*
X-34044252Y30092000D01*
X-33521748Y28672000D02*
X-34044252Y28672000D01*
D11*
G04 #@! TO.C,BT1*
X-39840000Y23720000D02*
X-35590000Y23720000D01*
X-24340000Y23720000D02*
X-28590000Y23720000D01*
X-24340000Y2620000D02*
X-28590000Y2620000D01*
X-39840000Y2620000D02*
X-35590000Y2620000D01*
X-24340000Y23720000D02*
X-24340000Y18670000D01*
X-24340000Y2620000D02*
X-24340000Y7670000D01*
X-39840000Y23720000D02*
X-39840000Y18670000D01*
X-39840000Y2620000D02*
X-39840000Y7670000D01*
D12*
X-21965000Y13170000D02*
G75*
G03X-21965000Y13170000I-250000J0D01*
G01*
G04 #@! TD*
G04 #@! TO.C,J1*
D11*
X-36020334Y36742620D02*
X-36020334Y36028334D01*
X-36067953Y35885477D01*
X-36163191Y35790239D01*
X-36306048Y35742620D01*
X-36401286Y35742620D01*
X-35020334Y35742620D02*
X-35591762Y35742620D01*
X-35306048Y35742620D02*
X-35306048Y36742620D01*
X-35401286Y36599762D01*
X-35496524Y36504524D01*
X-35591762Y36456905D01*
G04 #@! TO.C,U1*
X-15576905Y19142620D02*
X-15576905Y18333096D01*
X-15529286Y18237858D01*
X-15481667Y18190239D01*
X-15386429Y18142620D01*
X-15195953Y18142620D01*
X-15100715Y18190239D01*
X-15053096Y18237858D01*
X-15005477Y18333096D01*
X-15005477Y19142620D01*
X-14005477Y18142620D02*
X-14576905Y18142620D01*
X-14291191Y18142620D02*
X-14291191Y19142620D01*
X-14386429Y18999762D01*
X-14481667Y18904524D01*
X-14576905Y18856905D01*
G04 #@! TO.C,U2*
X-30126905Y39027620D02*
X-30126905Y38218096D01*
X-30079286Y38122858D01*
X-30031667Y38075239D01*
X-29936429Y38027620D01*
X-29745953Y38027620D01*
X-29650715Y38075239D01*
X-29603096Y38122858D01*
X-29555477Y38218096D01*
X-29555477Y39027620D01*
X-29126905Y38932381D02*
X-29079286Y38980000D01*
X-28984048Y39027620D01*
X-28745953Y39027620D01*
X-28650715Y38980000D01*
X-28603096Y38932381D01*
X-28555477Y38837143D01*
X-28555477Y38741905D01*
X-28603096Y38599048D01*
X-29174524Y38027620D01*
X-28555477Y38027620D01*
G04 #@! TO.C,One*
X-7327620Y5883810D02*
X-7327620Y6074286D01*
X-7280000Y6169524D01*
X-7184762Y6264762D01*
X-6994286Y6312381D01*
X-6660953Y6312381D01*
X-6470477Y6264762D01*
X-6375239Y6169524D01*
X-6327620Y6074286D01*
X-6327620Y5883810D01*
X-6375239Y5788572D01*
X-6470477Y5693334D01*
X-6660953Y5645715D01*
X-6994286Y5645715D01*
X-7184762Y5693334D01*
X-7280000Y5788572D01*
X-7327620Y5883810D01*
X-6994286Y6740953D02*
X-6327620Y6740953D01*
X-6899048Y6740953D02*
X-6946667Y6788572D01*
X-6994286Y6883810D01*
X-6994286Y7026667D01*
X-6946667Y7121905D01*
X-6851429Y7169524D01*
X-6327620Y7169524D01*
X-6375239Y8026667D02*
X-6327620Y7931429D01*
X-6327620Y7740953D01*
X-6375239Y7645715D01*
X-6470477Y7598096D01*
X-6851429Y7598096D01*
X-6946667Y7645715D01*
X-6994286Y7740953D01*
X-6994286Y7931429D01*
X-6946667Y8026667D01*
X-6851429Y8074286D01*
X-6756191Y8074286D01*
X-6660953Y7598096D01*
G04 #@! TO.C,C1*
X-23956667Y24560258D02*
X-24004286Y24512639D01*
X-24147143Y24465020D01*
X-24242381Y24465020D01*
X-24385239Y24512639D01*
X-24480477Y24607877D01*
X-24528096Y24703115D01*
X-24575715Y24893591D01*
X-24575715Y25036448D01*
X-24528096Y25226924D01*
X-24480477Y25322162D01*
X-24385239Y25417400D01*
X-24242381Y25465020D01*
X-24147143Y25465020D01*
X-24004286Y25417400D01*
X-23956667Y25369781D01*
X-23004286Y24465020D02*
X-23575715Y24465020D01*
X-23290000Y24465020D02*
X-23290000Y25465020D01*
X-23385239Y25322162D01*
X-23480477Y25226924D01*
X-23575715Y25179305D01*
G04 #@! TO.C,C3*
X-23956667Y26566858D02*
X-24004286Y26519239D01*
X-24147143Y26471620D01*
X-24242381Y26471620D01*
X-24385239Y26519239D01*
X-24480477Y26614477D01*
X-24528096Y26709715D01*
X-24575715Y26900191D01*
X-24575715Y27043048D01*
X-24528096Y27233524D01*
X-24480477Y27328762D01*
X-24385239Y27424000D01*
X-24242381Y27471620D01*
X-24147143Y27471620D01*
X-24004286Y27424000D01*
X-23956667Y27376381D01*
X-23623334Y27471620D02*
X-23004286Y27471620D01*
X-23337620Y27090667D01*
X-23194762Y27090667D01*
X-23099524Y27043048D01*
X-23051905Y26995429D01*
X-23004286Y26900191D01*
X-23004286Y26662096D01*
X-23051905Y26566858D01*
X-23099524Y26519239D01*
X-23194762Y26471620D01*
X-23480477Y26471620D01*
X-23575715Y26519239D01*
X-23623334Y26566858D01*
G04 #@! TO.C,C7*
X-15626667Y7902858D02*
X-15674286Y7855239D01*
X-15817143Y7807620D01*
X-15912381Y7807620D01*
X-16055239Y7855239D01*
X-16150477Y7950477D01*
X-16198096Y8045715D01*
X-16245715Y8236191D01*
X-16245715Y8379048D01*
X-16198096Y8569524D01*
X-16150477Y8664762D01*
X-16055239Y8760000D01*
X-15912381Y8807620D01*
X-15817143Y8807620D01*
X-15674286Y8760000D01*
X-15626667Y8712381D01*
X-15293334Y8807620D02*
X-14626667Y8807620D01*
X-15055239Y7807620D01*
G04 #@! TO.C,C8*
X-6856667Y13432858D02*
X-6904286Y13385239D01*
X-7047143Y13337620D01*
X-7142381Y13337620D01*
X-7285239Y13385239D01*
X-7380477Y13480477D01*
X-7428096Y13575715D01*
X-7475715Y13766191D01*
X-7475715Y13909048D01*
X-7428096Y14099524D01*
X-7380477Y14194762D01*
X-7285239Y14290000D01*
X-7142381Y14337620D01*
X-7047143Y14337620D01*
X-6904286Y14290000D01*
X-6856667Y14242381D01*
X-6285239Y13909048D02*
X-6380477Y13956667D01*
X-6428096Y14004286D01*
X-6475715Y14099524D01*
X-6475715Y14147143D01*
X-6428096Y14242381D01*
X-6380477Y14290000D01*
X-6285239Y14337620D01*
X-6094762Y14337620D01*
X-5999524Y14290000D01*
X-5951905Y14242381D01*
X-5904286Y14147143D01*
X-5904286Y14099524D01*
X-5951905Y14004286D01*
X-5999524Y13956667D01*
X-6094762Y13909048D01*
X-6285239Y13909048D01*
X-6380477Y13861429D01*
X-6428096Y13813810D01*
X-6475715Y13718572D01*
X-6475715Y13528096D01*
X-6428096Y13432858D01*
X-6380477Y13385239D01*
X-6285239Y13337620D01*
X-6094762Y13337620D01*
X-5999524Y13385239D01*
X-5951905Y13432858D01*
X-5904286Y13528096D01*
X-5904286Y13718572D01*
X-5951905Y13813810D01*
X-5999524Y13861429D01*
X-6094762Y13909048D01*
G04 #@! TO.C,C9*
X-6856667Y29132858D02*
X-6904286Y29085239D01*
X-7047143Y29037620D01*
X-7142381Y29037620D01*
X-7285239Y29085239D01*
X-7380477Y29180477D01*
X-7428096Y29275715D01*
X-7475715Y29466191D01*
X-7475715Y29609048D01*
X-7428096Y29799524D01*
X-7380477Y29894762D01*
X-7285239Y29990000D01*
X-7142381Y30037620D01*
X-7047143Y30037620D01*
X-6904286Y29990000D01*
X-6856667Y29942381D01*
X-6380477Y29037620D02*
X-6190000Y29037620D01*
X-6094762Y29085239D01*
X-6047143Y29132858D01*
X-5951905Y29275715D01*
X-5904286Y29466191D01*
X-5904286Y29847143D01*
X-5951905Y29942381D01*
X-5999524Y29990000D01*
X-6094762Y30037620D01*
X-6285239Y30037620D01*
X-6380477Y29990000D01*
X-6428096Y29942381D01*
X-6475715Y29847143D01*
X-6475715Y29609048D01*
X-6428096Y29513810D01*
X-6380477Y29466191D01*
X-6285239Y29418572D01*
X-6094762Y29418572D01*
X-5999524Y29466191D01*
X-5951905Y29513810D01*
X-5904286Y29609048D01*
G04 #@! TO.C,R1*
X-13654067Y29062420D02*
X-13987400Y29538610D01*
X-14225496Y29062420D02*
X-14225496Y30062420D01*
X-13844543Y30062420D01*
X-13749305Y30014800D01*
X-13701686Y29967181D01*
X-13654067Y29871943D01*
X-13654067Y29729086D01*
X-13701686Y29633848D01*
X-13749305Y29586229D01*
X-13844543Y29538610D01*
X-14225496Y29538610D01*
X-12701686Y29062420D02*
X-13273115Y29062420D01*
X-12987400Y29062420D02*
X-12987400Y30062420D01*
X-13082639Y29919562D01*
X-13177877Y29824324D01*
X-13273115Y29776705D01*
G04 #@! TO.C,R2*
X-15596667Y9887620D02*
X-15930000Y10363810D01*
X-16168096Y9887620D02*
X-16168096Y10887620D01*
X-15787143Y10887620D01*
X-15691905Y10840000D01*
X-15644286Y10792381D01*
X-15596667Y10697143D01*
X-15596667Y10554286D01*
X-15644286Y10459048D01*
X-15691905Y10411429D01*
X-15787143Y10363810D01*
X-16168096Y10363810D01*
X-15215715Y10792381D02*
X-15168096Y10840000D01*
X-15072858Y10887620D01*
X-14834762Y10887620D01*
X-14739524Y10840000D01*
X-14691905Y10792381D01*
X-14644286Y10697143D01*
X-14644286Y10601905D01*
X-14691905Y10459048D01*
X-15263334Y9887620D01*
X-14644286Y9887620D01*
G04 #@! TO.C,D1*
X-30653096Y30467620D02*
X-30653096Y31467620D01*
X-30415000Y31467620D01*
X-30272143Y31420000D01*
X-30176905Y31324762D01*
X-30129286Y31229524D01*
X-30081667Y31039048D01*
X-30081667Y30896191D01*
X-30129286Y30705715D01*
X-30176905Y30610477D01*
X-30272143Y30515239D01*
X-30415000Y30467620D01*
X-30653096Y30467620D01*
X-29129286Y30467620D02*
X-29700715Y30467620D01*
X-29415000Y30467620D02*
X-29415000Y31467620D01*
X-29510239Y31324762D01*
X-29605477Y31229524D01*
X-29700715Y31181905D01*
G04 #@! TO.C,BZ1*
X-20700953Y34671429D02*
X-20558096Y34623810D01*
X-20510477Y34576191D01*
X-20462858Y34480953D01*
X-20462858Y34338096D01*
X-20510477Y34242858D01*
X-20558096Y34195239D01*
X-20653334Y34147620D01*
X-21034286Y34147620D01*
X-21034286Y35147620D01*
X-20700953Y35147620D01*
X-20605715Y35100000D01*
X-20558096Y35052381D01*
X-20510477Y34957143D01*
X-20510477Y34861905D01*
X-20558096Y34766667D01*
X-20605715Y34719048D01*
X-20700953Y34671429D01*
X-21034286Y34671429D01*
X-20129524Y35147620D02*
X-19462858Y35147620D01*
X-20129524Y34147620D01*
X-19462858Y34147620D01*
X-18558096Y34147620D02*
X-19129524Y34147620D01*
X-18843810Y34147620D02*
X-18843810Y35147620D01*
X-18939048Y35004762D01*
X-19034286Y34909524D01*
X-19129524Y34861905D01*
G04 #@! TO.C,Reset*
X-19598096Y3507620D02*
X-19931429Y3983810D01*
X-20169524Y3507620D02*
X-20169524Y4507620D01*
X-19788572Y4507620D01*
X-19693334Y4460000D01*
X-19645715Y4412381D01*
X-19598096Y4317143D01*
X-19598096Y4174286D01*
X-19645715Y4079048D01*
X-19693334Y4031429D01*
X-19788572Y3983810D01*
X-20169524Y3983810D01*
X-18788572Y3555239D02*
X-18883810Y3507620D01*
X-19074286Y3507620D01*
X-19169524Y3555239D01*
X-19217143Y3650477D01*
X-19217143Y4031429D01*
X-19169524Y4126667D01*
X-19074286Y4174286D01*
X-18883810Y4174286D01*
X-18788572Y4126667D01*
X-18740953Y4031429D01*
X-18740953Y3936191D01*
X-19217143Y3840953D01*
X-18360000Y3555239D02*
X-18264762Y3507620D01*
X-18074286Y3507620D01*
X-17979048Y3555239D01*
X-17931429Y3650477D01*
X-17931429Y3698096D01*
X-17979048Y3793334D01*
X-18074286Y3840953D01*
X-18217143Y3840953D01*
X-18312381Y3888572D01*
X-18360000Y3983810D01*
X-18360000Y4031429D01*
X-18312381Y4126667D01*
X-18217143Y4174286D01*
X-18074286Y4174286D01*
X-17979048Y4126667D01*
X-17121905Y3555239D02*
X-17217143Y3507620D01*
X-17407620Y3507620D01*
X-17502858Y3555239D01*
X-17550477Y3650477D01*
X-17550477Y4031429D01*
X-17502858Y4126667D01*
X-17407620Y4174286D01*
X-17217143Y4174286D01*
X-17121905Y4126667D01*
X-17074286Y4031429D01*
X-17074286Y3936191D01*
X-17550477Y3840953D01*
X-16788572Y4174286D02*
X-16407620Y4174286D01*
X-16645715Y4507620D02*
X-16645715Y3650477D01*
X-16598096Y3555239D01*
X-16502858Y3507620D01*
X-16407620Y3507620D01*
G04 #@! TO.C,Ten*
X-7057620Y31923334D02*
X-7057620Y32494762D01*
X-6057620Y32209048D02*
X-7057620Y32209048D01*
X-6105239Y33209048D02*
X-6057620Y33113810D01*
X-6057620Y32923334D01*
X-6105239Y32828096D01*
X-6200477Y32780477D01*
X-6581429Y32780477D01*
X-6676667Y32828096D01*
X-6724286Y32923334D01*
X-6724286Y33113810D01*
X-6676667Y33209048D01*
X-6581429Y33256667D01*
X-6486191Y33256667D01*
X-6390953Y32780477D01*
X-6724286Y33685239D02*
X-6057620Y33685239D01*
X-6629048Y33685239D02*
X-6676667Y33732858D01*
X-6724286Y33828096D01*
X-6724286Y33970953D01*
X-6676667Y34066191D01*
X-6581429Y34113810D01*
X-6057620Y34113810D01*
G04 #@! TO.C,Boot*
X-19449048Y14921429D02*
X-19306191Y14873810D01*
X-19258572Y14826191D01*
X-19210953Y14730953D01*
X-19210953Y14588096D01*
X-19258572Y14492858D01*
X-19306191Y14445239D01*
X-19401429Y14397620D01*
X-19782381Y14397620D01*
X-19782381Y15397620D01*
X-19449048Y15397620D01*
X-19353810Y15350000D01*
X-19306191Y15302381D01*
X-19258572Y15207143D01*
X-19258572Y15111905D01*
X-19306191Y15016667D01*
X-19353810Y14969048D01*
X-19449048Y14921429D01*
X-19782381Y14921429D01*
X-18639524Y14397620D02*
X-18734762Y14445239D01*
X-18782381Y14492858D01*
X-18830000Y14588096D01*
X-18830000Y14873810D01*
X-18782381Y14969048D01*
X-18734762Y15016667D01*
X-18639524Y15064286D01*
X-18496667Y15064286D01*
X-18401429Y15016667D01*
X-18353810Y14969048D01*
X-18306191Y14873810D01*
X-18306191Y14588096D01*
X-18353810Y14492858D01*
X-18401429Y14445239D01*
X-18496667Y14397620D01*
X-18639524Y14397620D01*
X-17734762Y14397620D02*
X-17830000Y14445239D01*
X-17877620Y14492858D01*
X-17925239Y14588096D01*
X-17925239Y14873810D01*
X-17877620Y14969048D01*
X-17830000Y15016667D01*
X-17734762Y15064286D01*
X-17591905Y15064286D01*
X-17496667Y15016667D01*
X-17449048Y14969048D01*
X-17401429Y14873810D01*
X-17401429Y14588096D01*
X-17449048Y14492858D01*
X-17496667Y14445239D01*
X-17591905Y14397620D01*
X-17734762Y14397620D01*
X-17115715Y15064286D02*
X-16734762Y15064286D01*
X-16972858Y15397620D02*
X-16972858Y14540477D01*
X-16925239Y14445239D01*
X-16830000Y14397620D01*
X-16734762Y14397620D01*
G04 #@! TO.C,C2*
X-34202667Y38403258D02*
X-34250286Y38355639D01*
X-34393143Y38308020D01*
X-34488381Y38308020D01*
X-34631239Y38355639D01*
X-34726477Y38450877D01*
X-34774096Y38546115D01*
X-34821715Y38736591D01*
X-34821715Y38879448D01*
X-34774096Y39069924D01*
X-34726477Y39165162D01*
X-34631239Y39260400D01*
X-34488381Y39308020D01*
X-34393143Y39308020D01*
X-34250286Y39260400D01*
X-34202667Y39212781D01*
X-33821715Y39212781D02*
X-33774096Y39260400D01*
X-33678858Y39308020D01*
X-33440762Y39308020D01*
X-33345524Y39260400D01*
X-33297905Y39212781D01*
X-33250286Y39117543D01*
X-33250286Y39022305D01*
X-33297905Y38879448D01*
X-33869334Y38308020D01*
X-33250286Y38308020D01*
G04 #@! TO.C,C4*
X-33949667Y27374858D02*
X-33997286Y27327239D01*
X-34140143Y27279620D01*
X-34235381Y27279620D01*
X-34378239Y27327239D01*
X-34473477Y27422477D01*
X-34521096Y27517715D01*
X-34568715Y27708191D01*
X-34568715Y27851048D01*
X-34521096Y28041524D01*
X-34473477Y28136762D01*
X-34378239Y28232000D01*
X-34235381Y28279620D01*
X-34140143Y28279620D01*
X-33997286Y28232000D01*
X-33949667Y28184381D01*
X-33092524Y27946286D02*
X-33092524Y27279620D01*
X-33330620Y28327239D02*
X-33568715Y27612953D01*
X-32949667Y27612953D01*
G04 #@! TO.C,BT1*
D13*
X-21846243Y23701327D02*
X-21808748Y23813813D01*
X-21771253Y23851309D01*
X-21696262Y23888804D01*
X-21583776Y23888804D01*
X-21508785Y23851309D01*
X-21471290Y23813813D01*
X-21433795Y23738823D01*
X-21433795Y23438860D01*
X-22221197Y23438860D01*
X-22221197Y23701327D01*
X-22183701Y23776318D01*
X-22146206Y23813813D01*
X-22071215Y23851309D01*
X-21996225Y23851309D01*
X-21921234Y23813813D01*
X-21883739Y23776318D01*
X-21846243Y23701327D01*
X-21846243Y23438860D01*
X-22221197Y24113776D02*
X-22221197Y24563720D01*
X-21433795Y24338748D02*
X-22221197Y24338748D01*
X-21433795Y25238636D02*
X-21433795Y24788692D01*
X-21433795Y25013664D02*
X-22221197Y25013664D01*
X-22108711Y24938673D01*
X-22033720Y24863683D01*
X-21996225Y24788692D01*
X-35645286Y4465629D02*
X-35516715Y4418010D01*
X-35473858Y4370391D01*
X-35431000Y4275153D01*
X-35431000Y4132296D01*
X-35473858Y4037058D01*
X-35516715Y3989439D01*
X-35602429Y3941820D01*
X-35945286Y3941820D01*
X-35945286Y4941820D01*
X-35645286Y4941820D01*
X-35559572Y4894200D01*
X-35516715Y4846581D01*
X-35473858Y4751343D01*
X-35473858Y4656105D01*
X-35516715Y4560867D01*
X-35559572Y4513248D01*
X-35645286Y4465629D01*
X-35945286Y4465629D01*
X-34659572Y3941820D02*
X-34659572Y4465629D01*
X-34702429Y4560867D01*
X-34788143Y4608486D01*
X-34959572Y4608486D01*
X-35045286Y4560867D01*
X-34659572Y3989439D02*
X-34745286Y3941820D01*
X-34959572Y3941820D01*
X-35045286Y3989439D01*
X-35088143Y4084677D01*
X-35088143Y4179915D01*
X-35045286Y4275153D01*
X-34959572Y4322772D01*
X-34745286Y4322772D01*
X-34659572Y4370391D01*
X-34359572Y4608486D02*
X-34016715Y4608486D01*
X-34231000Y4941820D02*
X-34231000Y4084677D01*
X-34188143Y3989439D01*
X-34102429Y3941820D01*
X-34016715Y3941820D01*
X-33845286Y4608486D02*
X-33502429Y4608486D01*
X-33716715Y4941820D02*
X-33716715Y4084677D01*
X-33673858Y3989439D01*
X-33588143Y3941820D01*
X-33502429Y3941820D01*
X-32859572Y3989439D02*
X-32945286Y3941820D01*
X-33116715Y3941820D01*
X-33202429Y3989439D01*
X-33245286Y4084677D01*
X-33245286Y4465629D01*
X-33202429Y4560867D01*
X-33116715Y4608486D01*
X-32945286Y4608486D01*
X-32859572Y4560867D01*
X-32816715Y4465629D01*
X-32816715Y4370391D01*
X-33245286Y4275153D01*
X-32431000Y3941820D02*
X-32431000Y4608486D01*
X-32431000Y4418010D02*
X-32388143Y4513248D01*
X-32345286Y4560867D01*
X-32259572Y4608486D01*
X-32173858Y4608486D01*
X-31959572Y4608486D02*
X-31745286Y3941820D01*
X-31531000Y4608486D02*
X-31745286Y3941820D01*
X-31831000Y3703724D01*
X-31873858Y3656105D01*
X-31959572Y3608486D01*
X-31402429Y3846581D02*
X-30716715Y3846581D01*
X-29988143Y4037058D02*
X-30031000Y3989439D01*
X-30159572Y3941820D01*
X-30245286Y3941820D01*
X-30373858Y3989439D01*
X-30459572Y4084677D01*
X-30502429Y4179915D01*
X-30545286Y4370391D01*
X-30545286Y4513248D01*
X-30502429Y4703724D01*
X-30459572Y4798962D01*
X-30373858Y4894200D01*
X-30245286Y4941820D01*
X-30159572Y4941820D01*
X-30031000Y4894200D01*
X-29988143Y4846581D01*
X-29259572Y3989439D02*
X-29345286Y3941820D01*
X-29516715Y3941820D01*
X-29602429Y3989439D01*
X-29645286Y4084677D01*
X-29645286Y4465629D01*
X-29602429Y4560867D01*
X-29516715Y4608486D01*
X-29345286Y4608486D01*
X-29259572Y4560867D01*
X-29216715Y4465629D01*
X-29216715Y4370391D01*
X-29645286Y4275153D01*
X-28702429Y3941820D02*
X-28788143Y3989439D01*
X-28831000Y4084677D01*
X-28831000Y4941820D01*
X-28231000Y3941820D02*
X-28316715Y3989439D01*
X-28359572Y4084677D01*
X-28359572Y4941820D01*
G04 #@! TD*
M02*
