G04 #@! TF.GenerationSoftware,KiCad,Pcbnew,5.1.4*
G04 #@! TF.CreationDate,2019-09-01T13:26:14+02:00*
G04 #@! TF.ProjectId,kroneum,6b726f6e-6575-46d2-9e6b-696361645f70,rev?*
G04 #@! TF.SameCoordinates,PX9eae8f0PY7ec80e0*
G04 #@! TF.FileFunction,Paste,Top*
G04 #@! TF.FilePolarity,Positive*
%FSLAX46Y46*%
G04 Gerber Fmt 4.6, Leading zero omitted, Abs format (unit mm)*
G04 Created by KiCad (PCBNEW 5.1.4) date 2019-09-01 13:26:14*
%MOMM*%
%LPD*%
G04 APERTURE LIST*
%ADD10C,0.020000*%
%ADD11C,1.200000*%
%ADD12R,1.350000X0.400000*%
%ADD13R,1.450000X0.400000*%
%ADD14C,1.000000*%
%ADD15R,1.840000X2.200000*%
%ADD16R,1.500000X1.000000*%
%ADD17R,1.800000X1.000000*%
%ADD18C,0.850000*%
%ADD19R,1.000000X0.850000*%
%ADD20C,1.150000*%
%ADD21R,0.900000X0.800000*%
%ADD22R,1.300000X3.400000*%
%ADD23R,0.850000X1.000000*%
%ADD24R,5.100000X2.500000*%
%ADD25C,15.000000*%
G04 APERTURE END LIST*
D10*
G04 #@! TO.C,J1*
G36*
X-38210595Y29588555D02*
G01*
X-38181473Y29584236D01*
X-38152915Y29577082D01*
X-38125195Y29567164D01*
X-38098581Y29554576D01*
X-38073329Y29539441D01*
X-38049682Y29521903D01*
X-38027868Y29502132D01*
X-38008097Y29480318D01*
X-37990559Y29456671D01*
X-37975424Y29431419D01*
X-37962836Y29404805D01*
X-37952918Y29377085D01*
X-37945764Y29348527D01*
X-37941445Y29319405D01*
X-37940000Y29290000D01*
X-37940000Y28690000D01*
X-37941445Y28660595D01*
X-37945764Y28631473D01*
X-37952918Y28602915D01*
X-37962836Y28575195D01*
X-37975424Y28548581D01*
X-37990559Y28523329D01*
X-38008097Y28499682D01*
X-38027868Y28477868D01*
X-38049682Y28458097D01*
X-38073329Y28440559D01*
X-38098581Y28425424D01*
X-38125195Y28412836D01*
X-38152915Y28402918D01*
X-38181473Y28395764D01*
X-38210595Y28391445D01*
X-38240000Y28390000D01*
X-39540000Y28390000D01*
X-39569405Y28391445D01*
X-39598527Y28395764D01*
X-39627085Y28402918D01*
X-39654805Y28412836D01*
X-39681419Y28425424D01*
X-39706671Y28440559D01*
X-39730318Y28458097D01*
X-39752132Y28477868D01*
X-39771903Y28499682D01*
X-39789441Y28523329D01*
X-39804576Y28548581D01*
X-39817164Y28575195D01*
X-39827082Y28602915D01*
X-39834236Y28631473D01*
X-39838555Y28660595D01*
X-39840000Y28690000D01*
X-39840000Y29290000D01*
X-39838555Y29319405D01*
X-39834236Y29348527D01*
X-39827082Y29377085D01*
X-39817164Y29404805D01*
X-39804576Y29431419D01*
X-39789441Y29456671D01*
X-39771903Y29480318D01*
X-39752132Y29502132D01*
X-39730318Y29521903D01*
X-39706671Y29539441D01*
X-39681419Y29554576D01*
X-39654805Y29567164D01*
X-39627085Y29577082D01*
X-39598527Y29584236D01*
X-39569405Y29588555D01*
X-39540000Y29590000D01*
X-38240000Y29590000D01*
X-38210595Y29588555D01*
X-38210595Y29588555D01*
G37*
D11*
X-38890000Y28990000D03*
D10*
G36*
X-38210595Y36588555D02*
G01*
X-38181473Y36584236D01*
X-38152915Y36577082D01*
X-38125195Y36567164D01*
X-38098581Y36554576D01*
X-38073329Y36539441D01*
X-38049682Y36521903D01*
X-38027868Y36502132D01*
X-38008097Y36480318D01*
X-37990559Y36456671D01*
X-37975424Y36431419D01*
X-37962836Y36404805D01*
X-37952918Y36377085D01*
X-37945764Y36348527D01*
X-37941445Y36319405D01*
X-37940000Y36290000D01*
X-37940000Y35690000D01*
X-37941445Y35660595D01*
X-37945764Y35631473D01*
X-37952918Y35602915D01*
X-37962836Y35575195D01*
X-37975424Y35548581D01*
X-37990559Y35523329D01*
X-38008097Y35499682D01*
X-38027868Y35477868D01*
X-38049682Y35458097D01*
X-38073329Y35440559D01*
X-38098581Y35425424D01*
X-38125195Y35412836D01*
X-38152915Y35402918D01*
X-38181473Y35395764D01*
X-38210595Y35391445D01*
X-38240000Y35390000D01*
X-39540000Y35390000D01*
X-39569405Y35391445D01*
X-39598527Y35395764D01*
X-39627085Y35402918D01*
X-39654805Y35412836D01*
X-39681419Y35425424D01*
X-39706671Y35440559D01*
X-39730318Y35458097D01*
X-39752132Y35477868D01*
X-39771903Y35499682D01*
X-39789441Y35523329D01*
X-39804576Y35548581D01*
X-39817164Y35575195D01*
X-39827082Y35602915D01*
X-39834236Y35631473D01*
X-39838555Y35660595D01*
X-39840000Y35690000D01*
X-39840000Y36290000D01*
X-39838555Y36319405D01*
X-39834236Y36348527D01*
X-39827082Y36377085D01*
X-39817164Y36404805D01*
X-39804576Y36431419D01*
X-39789441Y36456671D01*
X-39771903Y36480318D01*
X-39752132Y36502132D01*
X-39730318Y36521903D01*
X-39706671Y36539441D01*
X-39681419Y36554576D01*
X-39654805Y36567164D01*
X-39627085Y36577082D01*
X-39598527Y36584236D01*
X-39569405Y36588555D01*
X-39540000Y36590000D01*
X-38240000Y36590000D01*
X-38210595Y36588555D01*
X-38210595Y36588555D01*
G37*
D11*
X-38890000Y35990000D03*
D12*
X-36902500Y32490000D03*
X-36902500Y31840000D03*
X-36902500Y31190000D03*
X-36902500Y33790000D03*
X-36902500Y33140000D03*
G04 #@! TD*
D13*
G04 #@! TO.C,U1*
X-11865000Y19970000D03*
X-11865000Y20620000D03*
X-11865000Y21270000D03*
X-11865000Y21920000D03*
X-11865000Y22570000D03*
X-11865000Y23220000D03*
X-11865000Y23870000D03*
X-11865000Y24520000D03*
X-11865000Y25170000D03*
X-11865000Y25820000D03*
X-17765000Y25820000D03*
X-17765000Y25170000D03*
X-17765000Y24520000D03*
X-17765000Y23870000D03*
X-17765000Y23220000D03*
X-17765000Y22570000D03*
X-17765000Y21920000D03*
X-17765000Y21270000D03*
X-17765000Y20620000D03*
X-17765000Y19970000D03*
G04 #@! TD*
D14*
G04 #@! TO.C,U2*
X-29891200Y35280000D03*
D10*
G36*
X-29391200Y34180000D02*
G01*
X-30391200Y34880000D01*
X-30391200Y35680000D01*
X-29391200Y36380000D01*
X-29391200Y34180000D01*
X-29391200Y34180000D01*
G37*
D15*
X-28481500Y35280000D03*
D16*
X-31295000Y33780000D03*
D17*
X-31148500Y35280000D03*
D16*
X-31295000Y36780000D03*
D18*
X-27148000Y35280000D03*
D10*
G36*
X-27573000Y36380000D02*
G01*
X-26723000Y35780000D01*
X-26723000Y34780000D01*
X-27573000Y34180000D01*
X-27573000Y36380000D01*
X-27573000Y36380000D01*
G37*
G04 #@! TD*
D19*
G04 #@! TO.C,One*
X-4790000Y10090000D03*
X-4790000Y3790000D03*
X-8590000Y10090000D03*
X-8590000Y3790000D03*
G04 #@! TD*
D10*
G04 #@! TO.C,C1*
G36*
X-19540495Y25663796D02*
G01*
X-19516227Y25660196D01*
X-19492428Y25654235D01*
X-19469329Y25645970D01*
X-19447150Y25635480D01*
X-19426107Y25622868D01*
X-19406401Y25608253D01*
X-19388223Y25591777D01*
X-19371747Y25573599D01*
X-19357132Y25553893D01*
X-19344520Y25532850D01*
X-19334030Y25510671D01*
X-19325765Y25487572D01*
X-19319804Y25463773D01*
X-19316204Y25439505D01*
X-19315000Y25415001D01*
X-19315000Y24514999D01*
X-19316204Y24490495D01*
X-19319804Y24466227D01*
X-19325765Y24442428D01*
X-19334030Y24419329D01*
X-19344520Y24397150D01*
X-19357132Y24376107D01*
X-19371747Y24356401D01*
X-19388223Y24338223D01*
X-19406401Y24321747D01*
X-19426107Y24307132D01*
X-19447150Y24294520D01*
X-19469329Y24284030D01*
X-19492428Y24275765D01*
X-19516227Y24269804D01*
X-19540495Y24266204D01*
X-19564999Y24265000D01*
X-20215001Y24265000D01*
X-20239505Y24266204D01*
X-20263773Y24269804D01*
X-20287572Y24275765D01*
X-20310671Y24284030D01*
X-20332850Y24294520D01*
X-20353893Y24307132D01*
X-20373599Y24321747D01*
X-20391777Y24338223D01*
X-20408253Y24356401D01*
X-20422868Y24376107D01*
X-20435480Y24397150D01*
X-20445970Y24419329D01*
X-20454235Y24442428D01*
X-20460196Y24466227D01*
X-20463796Y24490495D01*
X-20465000Y24514999D01*
X-20465000Y25415001D01*
X-20463796Y25439505D01*
X-20460196Y25463773D01*
X-20454235Y25487572D01*
X-20445970Y25510671D01*
X-20435480Y25532850D01*
X-20422868Y25553893D01*
X-20408253Y25573599D01*
X-20391777Y25591777D01*
X-20373599Y25608253D01*
X-20353893Y25622868D01*
X-20332850Y25635480D01*
X-20310671Y25645970D01*
X-20287572Y25654235D01*
X-20263773Y25660196D01*
X-20239505Y25663796D01*
X-20215001Y25665000D01*
X-19564999Y25665000D01*
X-19540495Y25663796D01*
X-19540495Y25663796D01*
G37*
D20*
X-19890000Y24965000D03*
D10*
G36*
X-21590495Y25663796D02*
G01*
X-21566227Y25660196D01*
X-21542428Y25654235D01*
X-21519329Y25645970D01*
X-21497150Y25635480D01*
X-21476107Y25622868D01*
X-21456401Y25608253D01*
X-21438223Y25591777D01*
X-21421747Y25573599D01*
X-21407132Y25553893D01*
X-21394520Y25532850D01*
X-21384030Y25510671D01*
X-21375765Y25487572D01*
X-21369804Y25463773D01*
X-21366204Y25439505D01*
X-21365000Y25415001D01*
X-21365000Y24514999D01*
X-21366204Y24490495D01*
X-21369804Y24466227D01*
X-21375765Y24442428D01*
X-21384030Y24419329D01*
X-21394520Y24397150D01*
X-21407132Y24376107D01*
X-21421747Y24356401D01*
X-21438223Y24338223D01*
X-21456401Y24321747D01*
X-21476107Y24307132D01*
X-21497150Y24294520D01*
X-21519329Y24284030D01*
X-21542428Y24275765D01*
X-21566227Y24269804D01*
X-21590495Y24266204D01*
X-21614999Y24265000D01*
X-22265001Y24265000D01*
X-22289505Y24266204D01*
X-22313773Y24269804D01*
X-22337572Y24275765D01*
X-22360671Y24284030D01*
X-22382850Y24294520D01*
X-22403893Y24307132D01*
X-22423599Y24321747D01*
X-22441777Y24338223D01*
X-22458253Y24356401D01*
X-22472868Y24376107D01*
X-22485480Y24397150D01*
X-22495970Y24419329D01*
X-22504235Y24442428D01*
X-22510196Y24466227D01*
X-22513796Y24490495D01*
X-22515000Y24514999D01*
X-22515000Y25415001D01*
X-22513796Y25439505D01*
X-22510196Y25463773D01*
X-22504235Y25487572D01*
X-22495970Y25510671D01*
X-22485480Y25532850D01*
X-22472868Y25553893D01*
X-22458253Y25573599D01*
X-22441777Y25591777D01*
X-22423599Y25608253D01*
X-22403893Y25622868D01*
X-22382850Y25635480D01*
X-22360671Y25645970D01*
X-22337572Y25654235D01*
X-22313773Y25660196D01*
X-22289505Y25663796D01*
X-22265001Y25665000D01*
X-21614999Y25665000D01*
X-21590495Y25663796D01*
X-21590495Y25663796D01*
G37*
D20*
X-21940000Y24965000D03*
G04 #@! TD*
D10*
G04 #@! TO.C,C3*
G36*
X-21590495Y27813796D02*
G01*
X-21566227Y27810196D01*
X-21542428Y27804235D01*
X-21519329Y27795970D01*
X-21497150Y27785480D01*
X-21476107Y27772868D01*
X-21456401Y27758253D01*
X-21438223Y27741777D01*
X-21421747Y27723599D01*
X-21407132Y27703893D01*
X-21394520Y27682850D01*
X-21384030Y27660671D01*
X-21375765Y27637572D01*
X-21369804Y27613773D01*
X-21366204Y27589505D01*
X-21365000Y27565001D01*
X-21365000Y26664999D01*
X-21366204Y26640495D01*
X-21369804Y26616227D01*
X-21375765Y26592428D01*
X-21384030Y26569329D01*
X-21394520Y26547150D01*
X-21407132Y26526107D01*
X-21421747Y26506401D01*
X-21438223Y26488223D01*
X-21456401Y26471747D01*
X-21476107Y26457132D01*
X-21497150Y26444520D01*
X-21519329Y26434030D01*
X-21542428Y26425765D01*
X-21566227Y26419804D01*
X-21590495Y26416204D01*
X-21614999Y26415000D01*
X-22265001Y26415000D01*
X-22289505Y26416204D01*
X-22313773Y26419804D01*
X-22337572Y26425765D01*
X-22360671Y26434030D01*
X-22382850Y26444520D01*
X-22403893Y26457132D01*
X-22423599Y26471747D01*
X-22441777Y26488223D01*
X-22458253Y26506401D01*
X-22472868Y26526107D01*
X-22485480Y26547150D01*
X-22495970Y26569329D01*
X-22504235Y26592428D01*
X-22510196Y26616227D01*
X-22513796Y26640495D01*
X-22515000Y26664999D01*
X-22515000Y27565001D01*
X-22513796Y27589505D01*
X-22510196Y27613773D01*
X-22504235Y27637572D01*
X-22495970Y27660671D01*
X-22485480Y27682850D01*
X-22472868Y27703893D01*
X-22458253Y27723599D01*
X-22441777Y27741777D01*
X-22423599Y27758253D01*
X-22403893Y27772868D01*
X-22382850Y27785480D01*
X-22360671Y27795970D01*
X-22337572Y27804235D01*
X-22313773Y27810196D01*
X-22289505Y27813796D01*
X-22265001Y27815000D01*
X-21614999Y27815000D01*
X-21590495Y27813796D01*
X-21590495Y27813796D01*
G37*
D20*
X-21940000Y27115000D03*
D10*
G36*
X-19540495Y27813796D02*
G01*
X-19516227Y27810196D01*
X-19492428Y27804235D01*
X-19469329Y27795970D01*
X-19447150Y27785480D01*
X-19426107Y27772868D01*
X-19406401Y27758253D01*
X-19388223Y27741777D01*
X-19371747Y27723599D01*
X-19357132Y27703893D01*
X-19344520Y27682850D01*
X-19334030Y27660671D01*
X-19325765Y27637572D01*
X-19319804Y27613773D01*
X-19316204Y27589505D01*
X-19315000Y27565001D01*
X-19315000Y26664999D01*
X-19316204Y26640495D01*
X-19319804Y26616227D01*
X-19325765Y26592428D01*
X-19334030Y26569329D01*
X-19344520Y26547150D01*
X-19357132Y26526107D01*
X-19371747Y26506401D01*
X-19388223Y26488223D01*
X-19406401Y26471747D01*
X-19426107Y26457132D01*
X-19447150Y26444520D01*
X-19469329Y26434030D01*
X-19492428Y26425765D01*
X-19516227Y26419804D01*
X-19540495Y26416204D01*
X-19564999Y26415000D01*
X-20215001Y26415000D01*
X-20239505Y26416204D01*
X-20263773Y26419804D01*
X-20287572Y26425765D01*
X-20310671Y26434030D01*
X-20332850Y26444520D01*
X-20353893Y26457132D01*
X-20373599Y26471747D01*
X-20391777Y26488223D01*
X-20408253Y26506401D01*
X-20422868Y26526107D01*
X-20435480Y26547150D01*
X-20445970Y26569329D01*
X-20454235Y26592428D01*
X-20460196Y26616227D01*
X-20463796Y26640495D01*
X-20465000Y26664999D01*
X-20465000Y27565001D01*
X-20463796Y27589505D01*
X-20460196Y27613773D01*
X-20454235Y27637572D01*
X-20445970Y27660671D01*
X-20435480Y27682850D01*
X-20422868Y27703893D01*
X-20408253Y27723599D01*
X-20391777Y27741777D01*
X-20373599Y27758253D01*
X-20353893Y27772868D01*
X-20332850Y27785480D01*
X-20310671Y27795970D01*
X-20287572Y27804235D01*
X-20263773Y27810196D01*
X-20239505Y27813796D01*
X-20215001Y27815000D01*
X-19564999Y27815000D01*
X-19540495Y27813796D01*
X-19540495Y27813796D01*
G37*
D20*
X-19890000Y27115000D03*
G04 #@! TD*
D10*
G04 #@! TO.C,C7*
G36*
X-16990495Y9038796D02*
G01*
X-16966227Y9035196D01*
X-16942428Y9029235D01*
X-16919329Y9020970D01*
X-16897150Y9010480D01*
X-16876107Y8997868D01*
X-16856401Y8983253D01*
X-16838223Y8966777D01*
X-16821747Y8948599D01*
X-16807132Y8928893D01*
X-16794520Y8907850D01*
X-16784030Y8885671D01*
X-16775765Y8862572D01*
X-16769804Y8838773D01*
X-16766204Y8814505D01*
X-16765000Y8790001D01*
X-16765000Y7889999D01*
X-16766204Y7865495D01*
X-16769804Y7841227D01*
X-16775765Y7817428D01*
X-16784030Y7794329D01*
X-16794520Y7772150D01*
X-16807132Y7751107D01*
X-16821747Y7731401D01*
X-16838223Y7713223D01*
X-16856401Y7696747D01*
X-16876107Y7682132D01*
X-16897150Y7669520D01*
X-16919329Y7659030D01*
X-16942428Y7650765D01*
X-16966227Y7644804D01*
X-16990495Y7641204D01*
X-17014999Y7640000D01*
X-17665001Y7640000D01*
X-17689505Y7641204D01*
X-17713773Y7644804D01*
X-17737572Y7650765D01*
X-17760671Y7659030D01*
X-17782850Y7669520D01*
X-17803893Y7682132D01*
X-17823599Y7696747D01*
X-17841777Y7713223D01*
X-17858253Y7731401D01*
X-17872868Y7751107D01*
X-17885480Y7772150D01*
X-17895970Y7794329D01*
X-17904235Y7817428D01*
X-17910196Y7841227D01*
X-17913796Y7865495D01*
X-17915000Y7889999D01*
X-17915000Y8790001D01*
X-17913796Y8814505D01*
X-17910196Y8838773D01*
X-17904235Y8862572D01*
X-17895970Y8885671D01*
X-17885480Y8907850D01*
X-17872868Y8928893D01*
X-17858253Y8948599D01*
X-17841777Y8966777D01*
X-17823599Y8983253D01*
X-17803893Y8997868D01*
X-17782850Y9010480D01*
X-17760671Y9020970D01*
X-17737572Y9029235D01*
X-17713773Y9035196D01*
X-17689505Y9038796D01*
X-17665001Y9040000D01*
X-17014999Y9040000D01*
X-16990495Y9038796D01*
X-16990495Y9038796D01*
G37*
D20*
X-17340000Y8340000D03*
D10*
G36*
X-19040495Y9038796D02*
G01*
X-19016227Y9035196D01*
X-18992428Y9029235D01*
X-18969329Y9020970D01*
X-18947150Y9010480D01*
X-18926107Y8997868D01*
X-18906401Y8983253D01*
X-18888223Y8966777D01*
X-18871747Y8948599D01*
X-18857132Y8928893D01*
X-18844520Y8907850D01*
X-18834030Y8885671D01*
X-18825765Y8862572D01*
X-18819804Y8838773D01*
X-18816204Y8814505D01*
X-18815000Y8790001D01*
X-18815000Y7889999D01*
X-18816204Y7865495D01*
X-18819804Y7841227D01*
X-18825765Y7817428D01*
X-18834030Y7794329D01*
X-18844520Y7772150D01*
X-18857132Y7751107D01*
X-18871747Y7731401D01*
X-18888223Y7713223D01*
X-18906401Y7696747D01*
X-18926107Y7682132D01*
X-18947150Y7669520D01*
X-18969329Y7659030D01*
X-18992428Y7650765D01*
X-19016227Y7644804D01*
X-19040495Y7641204D01*
X-19064999Y7640000D01*
X-19715001Y7640000D01*
X-19739505Y7641204D01*
X-19763773Y7644804D01*
X-19787572Y7650765D01*
X-19810671Y7659030D01*
X-19832850Y7669520D01*
X-19853893Y7682132D01*
X-19873599Y7696747D01*
X-19891777Y7713223D01*
X-19908253Y7731401D01*
X-19922868Y7751107D01*
X-19935480Y7772150D01*
X-19945970Y7794329D01*
X-19954235Y7817428D01*
X-19960196Y7841227D01*
X-19963796Y7865495D01*
X-19965000Y7889999D01*
X-19965000Y8790001D01*
X-19963796Y8814505D01*
X-19960196Y8838773D01*
X-19954235Y8862572D01*
X-19945970Y8885671D01*
X-19935480Y8907850D01*
X-19922868Y8928893D01*
X-19908253Y8948599D01*
X-19891777Y8966777D01*
X-19873599Y8983253D01*
X-19853893Y8997868D01*
X-19832850Y9010480D01*
X-19810671Y9020970D01*
X-19787572Y9029235D01*
X-19763773Y9035196D01*
X-19739505Y9038796D01*
X-19715001Y9040000D01*
X-19064999Y9040000D01*
X-19040495Y9038796D01*
X-19040495Y9038796D01*
G37*
D20*
X-19390000Y8340000D03*
G04 #@! TD*
D10*
G04 #@! TO.C,C8*
G36*
X-7365495Y12838796D02*
G01*
X-7341227Y12835196D01*
X-7317428Y12829235D01*
X-7294329Y12820970D01*
X-7272150Y12810480D01*
X-7251107Y12797868D01*
X-7231401Y12783253D01*
X-7213223Y12766777D01*
X-7196747Y12748599D01*
X-7182132Y12728893D01*
X-7169520Y12707850D01*
X-7159030Y12685671D01*
X-7150765Y12662572D01*
X-7144804Y12638773D01*
X-7141204Y12614505D01*
X-7140000Y12590001D01*
X-7140000Y11689999D01*
X-7141204Y11665495D01*
X-7144804Y11641227D01*
X-7150765Y11617428D01*
X-7159030Y11594329D01*
X-7169520Y11572150D01*
X-7182132Y11551107D01*
X-7196747Y11531401D01*
X-7213223Y11513223D01*
X-7231401Y11496747D01*
X-7251107Y11482132D01*
X-7272150Y11469520D01*
X-7294329Y11459030D01*
X-7317428Y11450765D01*
X-7341227Y11444804D01*
X-7365495Y11441204D01*
X-7389999Y11440000D01*
X-8040001Y11440000D01*
X-8064505Y11441204D01*
X-8088773Y11444804D01*
X-8112572Y11450765D01*
X-8135671Y11459030D01*
X-8157850Y11469520D01*
X-8178893Y11482132D01*
X-8198599Y11496747D01*
X-8216777Y11513223D01*
X-8233253Y11531401D01*
X-8247868Y11551107D01*
X-8260480Y11572150D01*
X-8270970Y11594329D01*
X-8279235Y11617428D01*
X-8285196Y11641227D01*
X-8288796Y11665495D01*
X-8290000Y11689999D01*
X-8290000Y12590001D01*
X-8288796Y12614505D01*
X-8285196Y12638773D01*
X-8279235Y12662572D01*
X-8270970Y12685671D01*
X-8260480Y12707850D01*
X-8247868Y12728893D01*
X-8233253Y12748599D01*
X-8216777Y12766777D01*
X-8198599Y12783253D01*
X-8178893Y12797868D01*
X-8157850Y12810480D01*
X-8135671Y12820970D01*
X-8112572Y12829235D01*
X-8088773Y12835196D01*
X-8064505Y12838796D01*
X-8040001Y12840000D01*
X-7389999Y12840000D01*
X-7365495Y12838796D01*
X-7365495Y12838796D01*
G37*
D20*
X-7715000Y12140000D03*
D10*
G36*
X-5315495Y12838796D02*
G01*
X-5291227Y12835196D01*
X-5267428Y12829235D01*
X-5244329Y12820970D01*
X-5222150Y12810480D01*
X-5201107Y12797868D01*
X-5181401Y12783253D01*
X-5163223Y12766777D01*
X-5146747Y12748599D01*
X-5132132Y12728893D01*
X-5119520Y12707850D01*
X-5109030Y12685671D01*
X-5100765Y12662572D01*
X-5094804Y12638773D01*
X-5091204Y12614505D01*
X-5090000Y12590001D01*
X-5090000Y11689999D01*
X-5091204Y11665495D01*
X-5094804Y11641227D01*
X-5100765Y11617428D01*
X-5109030Y11594329D01*
X-5119520Y11572150D01*
X-5132132Y11551107D01*
X-5146747Y11531401D01*
X-5163223Y11513223D01*
X-5181401Y11496747D01*
X-5201107Y11482132D01*
X-5222150Y11469520D01*
X-5244329Y11459030D01*
X-5267428Y11450765D01*
X-5291227Y11444804D01*
X-5315495Y11441204D01*
X-5339999Y11440000D01*
X-5990001Y11440000D01*
X-6014505Y11441204D01*
X-6038773Y11444804D01*
X-6062572Y11450765D01*
X-6085671Y11459030D01*
X-6107850Y11469520D01*
X-6128893Y11482132D01*
X-6148599Y11496747D01*
X-6166777Y11513223D01*
X-6183253Y11531401D01*
X-6197868Y11551107D01*
X-6210480Y11572150D01*
X-6220970Y11594329D01*
X-6229235Y11617428D01*
X-6235196Y11641227D01*
X-6238796Y11665495D01*
X-6240000Y11689999D01*
X-6240000Y12590001D01*
X-6238796Y12614505D01*
X-6235196Y12638773D01*
X-6229235Y12662572D01*
X-6220970Y12685671D01*
X-6210480Y12707850D01*
X-6197868Y12728893D01*
X-6183253Y12748599D01*
X-6166777Y12766777D01*
X-6148599Y12783253D01*
X-6128893Y12797868D01*
X-6107850Y12810480D01*
X-6085671Y12820970D01*
X-6062572Y12829235D01*
X-6038773Y12835196D01*
X-6014505Y12838796D01*
X-5990001Y12840000D01*
X-5339999Y12840000D01*
X-5315495Y12838796D01*
X-5315495Y12838796D01*
G37*
D20*
X-5665000Y12140000D03*
G04 #@! TD*
D10*
G04 #@! TO.C,C9*
G36*
X-5315495Y28538796D02*
G01*
X-5291227Y28535196D01*
X-5267428Y28529235D01*
X-5244329Y28520970D01*
X-5222150Y28510480D01*
X-5201107Y28497868D01*
X-5181401Y28483253D01*
X-5163223Y28466777D01*
X-5146747Y28448599D01*
X-5132132Y28428893D01*
X-5119520Y28407850D01*
X-5109030Y28385671D01*
X-5100765Y28362572D01*
X-5094804Y28338773D01*
X-5091204Y28314505D01*
X-5090000Y28290001D01*
X-5090000Y27389999D01*
X-5091204Y27365495D01*
X-5094804Y27341227D01*
X-5100765Y27317428D01*
X-5109030Y27294329D01*
X-5119520Y27272150D01*
X-5132132Y27251107D01*
X-5146747Y27231401D01*
X-5163223Y27213223D01*
X-5181401Y27196747D01*
X-5201107Y27182132D01*
X-5222150Y27169520D01*
X-5244329Y27159030D01*
X-5267428Y27150765D01*
X-5291227Y27144804D01*
X-5315495Y27141204D01*
X-5339999Y27140000D01*
X-5990001Y27140000D01*
X-6014505Y27141204D01*
X-6038773Y27144804D01*
X-6062572Y27150765D01*
X-6085671Y27159030D01*
X-6107850Y27169520D01*
X-6128893Y27182132D01*
X-6148599Y27196747D01*
X-6166777Y27213223D01*
X-6183253Y27231401D01*
X-6197868Y27251107D01*
X-6210480Y27272150D01*
X-6220970Y27294329D01*
X-6229235Y27317428D01*
X-6235196Y27341227D01*
X-6238796Y27365495D01*
X-6240000Y27389999D01*
X-6240000Y28290001D01*
X-6238796Y28314505D01*
X-6235196Y28338773D01*
X-6229235Y28362572D01*
X-6220970Y28385671D01*
X-6210480Y28407850D01*
X-6197868Y28428893D01*
X-6183253Y28448599D01*
X-6166777Y28466777D01*
X-6148599Y28483253D01*
X-6128893Y28497868D01*
X-6107850Y28510480D01*
X-6085671Y28520970D01*
X-6062572Y28529235D01*
X-6038773Y28535196D01*
X-6014505Y28538796D01*
X-5990001Y28540000D01*
X-5339999Y28540000D01*
X-5315495Y28538796D01*
X-5315495Y28538796D01*
G37*
D20*
X-5665000Y27840000D03*
D10*
G36*
X-7365495Y28538796D02*
G01*
X-7341227Y28535196D01*
X-7317428Y28529235D01*
X-7294329Y28520970D01*
X-7272150Y28510480D01*
X-7251107Y28497868D01*
X-7231401Y28483253D01*
X-7213223Y28466777D01*
X-7196747Y28448599D01*
X-7182132Y28428893D01*
X-7169520Y28407850D01*
X-7159030Y28385671D01*
X-7150765Y28362572D01*
X-7144804Y28338773D01*
X-7141204Y28314505D01*
X-7140000Y28290001D01*
X-7140000Y27389999D01*
X-7141204Y27365495D01*
X-7144804Y27341227D01*
X-7150765Y27317428D01*
X-7159030Y27294329D01*
X-7169520Y27272150D01*
X-7182132Y27251107D01*
X-7196747Y27231401D01*
X-7213223Y27213223D01*
X-7231401Y27196747D01*
X-7251107Y27182132D01*
X-7272150Y27169520D01*
X-7294329Y27159030D01*
X-7317428Y27150765D01*
X-7341227Y27144804D01*
X-7365495Y27141204D01*
X-7389999Y27140000D01*
X-8040001Y27140000D01*
X-8064505Y27141204D01*
X-8088773Y27144804D01*
X-8112572Y27150765D01*
X-8135671Y27159030D01*
X-8157850Y27169520D01*
X-8178893Y27182132D01*
X-8198599Y27196747D01*
X-8216777Y27213223D01*
X-8233253Y27231401D01*
X-8247868Y27251107D01*
X-8260480Y27272150D01*
X-8270970Y27294329D01*
X-8279235Y27317428D01*
X-8285196Y27341227D01*
X-8288796Y27365495D01*
X-8290000Y27389999D01*
X-8290000Y28290001D01*
X-8288796Y28314505D01*
X-8285196Y28338773D01*
X-8279235Y28362572D01*
X-8270970Y28385671D01*
X-8260480Y28407850D01*
X-8247868Y28428893D01*
X-8233253Y28448599D01*
X-8216777Y28466777D01*
X-8198599Y28483253D01*
X-8178893Y28497868D01*
X-8157850Y28510480D01*
X-8135671Y28520970D01*
X-8112572Y28529235D01*
X-8088773Y28535196D01*
X-8064505Y28538796D01*
X-8040001Y28540000D01*
X-7389999Y28540000D01*
X-7365495Y28538796D01*
X-7365495Y28538796D01*
G37*
D20*
X-7715000Y27840000D03*
G04 #@! TD*
D10*
G04 #@! TO.C,R1*
G36*
X-14740495Y28963796D02*
G01*
X-14716227Y28960196D01*
X-14692428Y28954235D01*
X-14669329Y28945970D01*
X-14647150Y28935480D01*
X-14626107Y28922868D01*
X-14606401Y28908253D01*
X-14588223Y28891777D01*
X-14571747Y28873599D01*
X-14557132Y28853893D01*
X-14544520Y28832850D01*
X-14534030Y28810671D01*
X-14525765Y28787572D01*
X-14519804Y28763773D01*
X-14516204Y28739505D01*
X-14515000Y28715001D01*
X-14515000Y27814999D01*
X-14516204Y27790495D01*
X-14519804Y27766227D01*
X-14525765Y27742428D01*
X-14534030Y27719329D01*
X-14544520Y27697150D01*
X-14557132Y27676107D01*
X-14571747Y27656401D01*
X-14588223Y27638223D01*
X-14606401Y27621747D01*
X-14626107Y27607132D01*
X-14647150Y27594520D01*
X-14669329Y27584030D01*
X-14692428Y27575765D01*
X-14716227Y27569804D01*
X-14740495Y27566204D01*
X-14764999Y27565000D01*
X-15415001Y27565000D01*
X-15439505Y27566204D01*
X-15463773Y27569804D01*
X-15487572Y27575765D01*
X-15510671Y27584030D01*
X-15532850Y27594520D01*
X-15553893Y27607132D01*
X-15573599Y27621747D01*
X-15591777Y27638223D01*
X-15608253Y27656401D01*
X-15622868Y27676107D01*
X-15635480Y27697150D01*
X-15645970Y27719329D01*
X-15654235Y27742428D01*
X-15660196Y27766227D01*
X-15663796Y27790495D01*
X-15665000Y27814999D01*
X-15665000Y28715001D01*
X-15663796Y28739505D01*
X-15660196Y28763773D01*
X-15654235Y28787572D01*
X-15645970Y28810671D01*
X-15635480Y28832850D01*
X-15622868Y28853893D01*
X-15608253Y28873599D01*
X-15591777Y28891777D01*
X-15573599Y28908253D01*
X-15553893Y28922868D01*
X-15532850Y28935480D01*
X-15510671Y28945970D01*
X-15487572Y28954235D01*
X-15463773Y28960196D01*
X-15439505Y28963796D01*
X-15415001Y28965000D01*
X-14764999Y28965000D01*
X-14740495Y28963796D01*
X-14740495Y28963796D01*
G37*
D20*
X-15090000Y28265000D03*
D10*
G36*
X-16790495Y28963796D02*
G01*
X-16766227Y28960196D01*
X-16742428Y28954235D01*
X-16719329Y28945970D01*
X-16697150Y28935480D01*
X-16676107Y28922868D01*
X-16656401Y28908253D01*
X-16638223Y28891777D01*
X-16621747Y28873599D01*
X-16607132Y28853893D01*
X-16594520Y28832850D01*
X-16584030Y28810671D01*
X-16575765Y28787572D01*
X-16569804Y28763773D01*
X-16566204Y28739505D01*
X-16565000Y28715001D01*
X-16565000Y27814999D01*
X-16566204Y27790495D01*
X-16569804Y27766227D01*
X-16575765Y27742428D01*
X-16584030Y27719329D01*
X-16594520Y27697150D01*
X-16607132Y27676107D01*
X-16621747Y27656401D01*
X-16638223Y27638223D01*
X-16656401Y27621747D01*
X-16676107Y27607132D01*
X-16697150Y27594520D01*
X-16719329Y27584030D01*
X-16742428Y27575765D01*
X-16766227Y27569804D01*
X-16790495Y27566204D01*
X-16814999Y27565000D01*
X-17465001Y27565000D01*
X-17489505Y27566204D01*
X-17513773Y27569804D01*
X-17537572Y27575765D01*
X-17560671Y27584030D01*
X-17582850Y27594520D01*
X-17603893Y27607132D01*
X-17623599Y27621747D01*
X-17641777Y27638223D01*
X-17658253Y27656401D01*
X-17672868Y27676107D01*
X-17685480Y27697150D01*
X-17695970Y27719329D01*
X-17704235Y27742428D01*
X-17710196Y27766227D01*
X-17713796Y27790495D01*
X-17715000Y27814999D01*
X-17715000Y28715001D01*
X-17713796Y28739505D01*
X-17710196Y28763773D01*
X-17704235Y28787572D01*
X-17695970Y28810671D01*
X-17685480Y28832850D01*
X-17672868Y28853893D01*
X-17658253Y28873599D01*
X-17641777Y28891777D01*
X-17623599Y28908253D01*
X-17603893Y28922868D01*
X-17582850Y28935480D01*
X-17560671Y28945970D01*
X-17537572Y28954235D01*
X-17513773Y28960196D01*
X-17489505Y28963796D01*
X-17465001Y28965000D01*
X-16814999Y28965000D01*
X-16790495Y28963796D01*
X-16790495Y28963796D01*
G37*
D20*
X-17140000Y28265000D03*
G04 #@! TD*
D10*
G04 #@! TO.C,R2*
G36*
X-16990495Y11188796D02*
G01*
X-16966227Y11185196D01*
X-16942428Y11179235D01*
X-16919329Y11170970D01*
X-16897150Y11160480D01*
X-16876107Y11147868D01*
X-16856401Y11133253D01*
X-16838223Y11116777D01*
X-16821747Y11098599D01*
X-16807132Y11078893D01*
X-16794520Y11057850D01*
X-16784030Y11035671D01*
X-16775765Y11012572D01*
X-16769804Y10988773D01*
X-16766204Y10964505D01*
X-16765000Y10940001D01*
X-16765000Y10039999D01*
X-16766204Y10015495D01*
X-16769804Y9991227D01*
X-16775765Y9967428D01*
X-16784030Y9944329D01*
X-16794520Y9922150D01*
X-16807132Y9901107D01*
X-16821747Y9881401D01*
X-16838223Y9863223D01*
X-16856401Y9846747D01*
X-16876107Y9832132D01*
X-16897150Y9819520D01*
X-16919329Y9809030D01*
X-16942428Y9800765D01*
X-16966227Y9794804D01*
X-16990495Y9791204D01*
X-17014999Y9790000D01*
X-17665001Y9790000D01*
X-17689505Y9791204D01*
X-17713773Y9794804D01*
X-17737572Y9800765D01*
X-17760671Y9809030D01*
X-17782850Y9819520D01*
X-17803893Y9832132D01*
X-17823599Y9846747D01*
X-17841777Y9863223D01*
X-17858253Y9881401D01*
X-17872868Y9901107D01*
X-17885480Y9922150D01*
X-17895970Y9944329D01*
X-17904235Y9967428D01*
X-17910196Y9991227D01*
X-17913796Y10015495D01*
X-17915000Y10039999D01*
X-17915000Y10940001D01*
X-17913796Y10964505D01*
X-17910196Y10988773D01*
X-17904235Y11012572D01*
X-17895970Y11035671D01*
X-17885480Y11057850D01*
X-17872868Y11078893D01*
X-17858253Y11098599D01*
X-17841777Y11116777D01*
X-17823599Y11133253D01*
X-17803893Y11147868D01*
X-17782850Y11160480D01*
X-17760671Y11170970D01*
X-17737572Y11179235D01*
X-17713773Y11185196D01*
X-17689505Y11188796D01*
X-17665001Y11190000D01*
X-17014999Y11190000D01*
X-16990495Y11188796D01*
X-16990495Y11188796D01*
G37*
D20*
X-17340000Y10490000D03*
D10*
G36*
X-19040495Y11188796D02*
G01*
X-19016227Y11185196D01*
X-18992428Y11179235D01*
X-18969329Y11170970D01*
X-18947150Y11160480D01*
X-18926107Y11147868D01*
X-18906401Y11133253D01*
X-18888223Y11116777D01*
X-18871747Y11098599D01*
X-18857132Y11078893D01*
X-18844520Y11057850D01*
X-18834030Y11035671D01*
X-18825765Y11012572D01*
X-18819804Y10988773D01*
X-18816204Y10964505D01*
X-18815000Y10940001D01*
X-18815000Y10039999D01*
X-18816204Y10015495D01*
X-18819804Y9991227D01*
X-18825765Y9967428D01*
X-18834030Y9944329D01*
X-18844520Y9922150D01*
X-18857132Y9901107D01*
X-18871747Y9881401D01*
X-18888223Y9863223D01*
X-18906401Y9846747D01*
X-18926107Y9832132D01*
X-18947150Y9819520D01*
X-18969329Y9809030D01*
X-18992428Y9800765D01*
X-19016227Y9794804D01*
X-19040495Y9791204D01*
X-19064999Y9790000D01*
X-19715001Y9790000D01*
X-19739505Y9791204D01*
X-19763773Y9794804D01*
X-19787572Y9800765D01*
X-19810671Y9809030D01*
X-19832850Y9819520D01*
X-19853893Y9832132D01*
X-19873599Y9846747D01*
X-19891777Y9863223D01*
X-19908253Y9881401D01*
X-19922868Y9901107D01*
X-19935480Y9922150D01*
X-19945970Y9944329D01*
X-19954235Y9967428D01*
X-19960196Y9991227D01*
X-19963796Y10015495D01*
X-19965000Y10039999D01*
X-19965000Y10940001D01*
X-19963796Y10964505D01*
X-19960196Y10988773D01*
X-19954235Y11012572D01*
X-19945970Y11035671D01*
X-19935480Y11057850D01*
X-19922868Y11078893D01*
X-19908253Y11098599D01*
X-19891777Y11116777D01*
X-19873599Y11133253D01*
X-19853893Y11147868D01*
X-19832850Y11160480D01*
X-19810671Y11170970D01*
X-19787572Y11179235D01*
X-19763773Y11185196D01*
X-19739505Y11188796D01*
X-19715001Y11190000D01*
X-19064999Y11190000D01*
X-19040495Y11188796D01*
X-19040495Y11188796D01*
G37*
D20*
X-19390000Y10490000D03*
G04 #@! TD*
D21*
G04 #@! TO.C,D1*
X-30915000Y29370000D03*
X-30915000Y27470000D03*
X-28915000Y28420000D03*
G04 #@! TD*
D22*
G04 #@! TO.C,BZ1*
X-15265000Y34690000D03*
X-23965000Y34690000D03*
G04 #@! TD*
D23*
G04 #@! TO.C,Reset*
X-21515000Y5740000D03*
X-15215000Y5740000D03*
X-21515000Y1940000D03*
X-15215000Y1940000D03*
G04 #@! TD*
D19*
G04 #@! TO.C,Ten*
X-8590000Y29890000D03*
X-8590000Y36190000D03*
X-4790000Y29890000D03*
X-4790000Y36190000D03*
G04 #@! TD*
D23*
G04 #@! TO.C,Boot*
X-15215000Y13090000D03*
X-21515000Y13090000D03*
X-15215000Y16890000D03*
X-21515000Y16890000D03*
G04 #@! TD*
D10*
G04 #@! TO.C,C2*
G36*
X-33530495Y37898796D02*
G01*
X-33506227Y37895196D01*
X-33482428Y37889235D01*
X-33459329Y37880970D01*
X-33437150Y37870480D01*
X-33416107Y37857868D01*
X-33396401Y37843253D01*
X-33378223Y37826777D01*
X-33361747Y37808599D01*
X-33347132Y37788893D01*
X-33334520Y37767850D01*
X-33324030Y37745671D01*
X-33315765Y37722572D01*
X-33309804Y37698773D01*
X-33306204Y37674505D01*
X-33305000Y37650001D01*
X-33305000Y36999999D01*
X-33306204Y36975495D01*
X-33309804Y36951227D01*
X-33315765Y36927428D01*
X-33324030Y36904329D01*
X-33334520Y36882150D01*
X-33347132Y36861107D01*
X-33361747Y36841401D01*
X-33378223Y36823223D01*
X-33396401Y36806747D01*
X-33416107Y36792132D01*
X-33437150Y36779520D01*
X-33459329Y36769030D01*
X-33482428Y36760765D01*
X-33506227Y36754804D01*
X-33530495Y36751204D01*
X-33554999Y36750000D01*
X-34455001Y36750000D01*
X-34479505Y36751204D01*
X-34503773Y36754804D01*
X-34527572Y36760765D01*
X-34550671Y36769030D01*
X-34572850Y36779520D01*
X-34593893Y36792132D01*
X-34613599Y36806747D01*
X-34631777Y36823223D01*
X-34648253Y36841401D01*
X-34662868Y36861107D01*
X-34675480Y36882150D01*
X-34685970Y36904329D01*
X-34694235Y36927428D01*
X-34700196Y36951227D01*
X-34703796Y36975495D01*
X-34705000Y36999999D01*
X-34705000Y37650001D01*
X-34703796Y37674505D01*
X-34700196Y37698773D01*
X-34694235Y37722572D01*
X-34685970Y37745671D01*
X-34675480Y37767850D01*
X-34662868Y37788893D01*
X-34648253Y37808599D01*
X-34631777Y37826777D01*
X-34613599Y37843253D01*
X-34593893Y37857868D01*
X-34572850Y37870480D01*
X-34550671Y37880970D01*
X-34527572Y37889235D01*
X-34503773Y37895196D01*
X-34479505Y37898796D01*
X-34455001Y37900000D01*
X-33554999Y37900000D01*
X-33530495Y37898796D01*
X-33530495Y37898796D01*
G37*
D20*
X-34005000Y37325000D03*
D10*
G36*
X-33530495Y35848796D02*
G01*
X-33506227Y35845196D01*
X-33482428Y35839235D01*
X-33459329Y35830970D01*
X-33437150Y35820480D01*
X-33416107Y35807868D01*
X-33396401Y35793253D01*
X-33378223Y35776777D01*
X-33361747Y35758599D01*
X-33347132Y35738893D01*
X-33334520Y35717850D01*
X-33324030Y35695671D01*
X-33315765Y35672572D01*
X-33309804Y35648773D01*
X-33306204Y35624505D01*
X-33305000Y35600001D01*
X-33305000Y34949999D01*
X-33306204Y34925495D01*
X-33309804Y34901227D01*
X-33315765Y34877428D01*
X-33324030Y34854329D01*
X-33334520Y34832150D01*
X-33347132Y34811107D01*
X-33361747Y34791401D01*
X-33378223Y34773223D01*
X-33396401Y34756747D01*
X-33416107Y34742132D01*
X-33437150Y34729520D01*
X-33459329Y34719030D01*
X-33482428Y34710765D01*
X-33506227Y34704804D01*
X-33530495Y34701204D01*
X-33554999Y34700000D01*
X-34455001Y34700000D01*
X-34479505Y34701204D01*
X-34503773Y34704804D01*
X-34527572Y34710765D01*
X-34550671Y34719030D01*
X-34572850Y34729520D01*
X-34593893Y34742132D01*
X-34613599Y34756747D01*
X-34631777Y34773223D01*
X-34648253Y34791401D01*
X-34662868Y34811107D01*
X-34675480Y34832150D01*
X-34685970Y34854329D01*
X-34694235Y34877428D01*
X-34700196Y34901227D01*
X-34703796Y34925495D01*
X-34705000Y34949999D01*
X-34705000Y35600001D01*
X-34703796Y35624505D01*
X-34700196Y35648773D01*
X-34694235Y35672572D01*
X-34685970Y35695671D01*
X-34675480Y35717850D01*
X-34662868Y35738893D01*
X-34648253Y35758599D01*
X-34631777Y35776777D01*
X-34613599Y35793253D01*
X-34593893Y35807868D01*
X-34572850Y35820480D01*
X-34550671Y35830970D01*
X-34527572Y35839235D01*
X-34503773Y35845196D01*
X-34479505Y35848796D01*
X-34455001Y35850000D01*
X-33554999Y35850000D01*
X-33530495Y35848796D01*
X-33530495Y35848796D01*
G37*
D20*
X-34005000Y35275000D03*
G04 #@! TD*
D10*
G04 #@! TO.C,C4*
G36*
X-34458495Y30080796D02*
G01*
X-34434227Y30077196D01*
X-34410428Y30071235D01*
X-34387329Y30062970D01*
X-34365150Y30052480D01*
X-34344107Y30039868D01*
X-34324401Y30025253D01*
X-34306223Y30008777D01*
X-34289747Y29990599D01*
X-34275132Y29970893D01*
X-34262520Y29949850D01*
X-34252030Y29927671D01*
X-34243765Y29904572D01*
X-34237804Y29880773D01*
X-34234204Y29856505D01*
X-34233000Y29832001D01*
X-34233000Y28931999D01*
X-34234204Y28907495D01*
X-34237804Y28883227D01*
X-34243765Y28859428D01*
X-34252030Y28836329D01*
X-34262520Y28814150D01*
X-34275132Y28793107D01*
X-34289747Y28773401D01*
X-34306223Y28755223D01*
X-34324401Y28738747D01*
X-34344107Y28724132D01*
X-34365150Y28711520D01*
X-34387329Y28701030D01*
X-34410428Y28692765D01*
X-34434227Y28686804D01*
X-34458495Y28683204D01*
X-34482999Y28682000D01*
X-35133001Y28682000D01*
X-35157505Y28683204D01*
X-35181773Y28686804D01*
X-35205572Y28692765D01*
X-35228671Y28701030D01*
X-35250850Y28711520D01*
X-35271893Y28724132D01*
X-35291599Y28738747D01*
X-35309777Y28755223D01*
X-35326253Y28773401D01*
X-35340868Y28793107D01*
X-35353480Y28814150D01*
X-35363970Y28836329D01*
X-35372235Y28859428D01*
X-35378196Y28883227D01*
X-35381796Y28907495D01*
X-35383000Y28931999D01*
X-35383000Y29832001D01*
X-35381796Y29856505D01*
X-35378196Y29880773D01*
X-35372235Y29904572D01*
X-35363970Y29927671D01*
X-35353480Y29949850D01*
X-35340868Y29970893D01*
X-35326253Y29990599D01*
X-35309777Y30008777D01*
X-35291599Y30025253D01*
X-35271893Y30039868D01*
X-35250850Y30052480D01*
X-35228671Y30062970D01*
X-35205572Y30071235D01*
X-35181773Y30077196D01*
X-35157505Y30080796D01*
X-35133001Y30082000D01*
X-34482999Y30082000D01*
X-34458495Y30080796D01*
X-34458495Y30080796D01*
G37*
D20*
X-34808000Y29382000D03*
D10*
G36*
X-32408495Y30080796D02*
G01*
X-32384227Y30077196D01*
X-32360428Y30071235D01*
X-32337329Y30062970D01*
X-32315150Y30052480D01*
X-32294107Y30039868D01*
X-32274401Y30025253D01*
X-32256223Y30008777D01*
X-32239747Y29990599D01*
X-32225132Y29970893D01*
X-32212520Y29949850D01*
X-32202030Y29927671D01*
X-32193765Y29904572D01*
X-32187804Y29880773D01*
X-32184204Y29856505D01*
X-32183000Y29832001D01*
X-32183000Y28931999D01*
X-32184204Y28907495D01*
X-32187804Y28883227D01*
X-32193765Y28859428D01*
X-32202030Y28836329D01*
X-32212520Y28814150D01*
X-32225132Y28793107D01*
X-32239747Y28773401D01*
X-32256223Y28755223D01*
X-32274401Y28738747D01*
X-32294107Y28724132D01*
X-32315150Y28711520D01*
X-32337329Y28701030D01*
X-32360428Y28692765D01*
X-32384227Y28686804D01*
X-32408495Y28683204D01*
X-32432999Y28682000D01*
X-33083001Y28682000D01*
X-33107505Y28683204D01*
X-33131773Y28686804D01*
X-33155572Y28692765D01*
X-33178671Y28701030D01*
X-33200850Y28711520D01*
X-33221893Y28724132D01*
X-33241599Y28738747D01*
X-33259777Y28755223D01*
X-33276253Y28773401D01*
X-33290868Y28793107D01*
X-33303480Y28814150D01*
X-33313970Y28836329D01*
X-33322235Y28859428D01*
X-33328196Y28883227D01*
X-33331796Y28907495D01*
X-33333000Y28931999D01*
X-33333000Y29832001D01*
X-33331796Y29856505D01*
X-33328196Y29880773D01*
X-33322235Y29904572D01*
X-33313970Y29927671D01*
X-33303480Y29949850D01*
X-33290868Y29970893D01*
X-33276253Y29990599D01*
X-33259777Y30008777D01*
X-33241599Y30025253D01*
X-33221893Y30039868D01*
X-33200850Y30052480D01*
X-33178671Y30062970D01*
X-33155572Y30071235D01*
X-33131773Y30077196D01*
X-33107505Y30080796D01*
X-33083001Y30082000D01*
X-32432999Y30082000D01*
X-32408495Y30080796D01*
X-32408495Y30080796D01*
G37*
D20*
X-32758000Y29382000D03*
G04 #@! TD*
D24*
G04 #@! TO.C,BT1*
X-32090000Y24620000D03*
X-32090000Y1720000D03*
D25*
X-32090000Y13170000D03*
D10*
G36*
X-24671176Y12069521D02*
G01*
X-24814766Y11347649D01*
X-25028420Y10643326D01*
X-25310080Y9963337D01*
X-25657035Y9314229D01*
X-26065944Y8702255D01*
X-26532867Y8133308D01*
X-27053308Y7612867D01*
X-27622255Y7145944D01*
X-28234229Y6737035D01*
X-28883337Y6390080D01*
X-29563326Y6108420D01*
X-30267649Y5894766D01*
X-30989521Y5751176D01*
X-31721992Y5679034D01*
X-32458008Y5679034D01*
X-33190479Y5751176D01*
X-33912351Y5894766D01*
X-34616674Y6108420D01*
X-35296663Y6390080D01*
X-35945771Y6737035D01*
X-36557745Y7145944D01*
X-37126692Y7612867D01*
X-37647133Y8133308D01*
X-38114056Y8702255D01*
X-38522965Y9314229D01*
X-38869920Y9963337D01*
X-39151580Y10643326D01*
X-39365234Y11347649D01*
X-39508824Y12069521D01*
X-39580966Y12801992D01*
X-39580966Y13538008D01*
X-39508824Y14270479D01*
X-39365234Y14992351D01*
X-39151580Y15696674D01*
X-38869920Y16376663D01*
X-38522965Y17025771D01*
X-38114056Y17637745D01*
X-37647133Y18206692D01*
X-37126692Y18727133D01*
X-36557745Y19194056D01*
X-35945771Y19602965D01*
X-35296663Y19949920D01*
X-34616674Y20231580D01*
X-33912351Y20445234D01*
X-33190479Y20588824D01*
X-32458008Y20660966D01*
X-31721992Y20660966D01*
X-30989521Y20588824D01*
X-30267649Y20445234D01*
X-29563326Y20231580D01*
X-28883337Y19949920D01*
X-28234229Y19602965D01*
X-27622255Y19194056D01*
X-27053308Y18727133D01*
X-26532867Y18206692D01*
X-26065944Y17637745D01*
X-25657035Y17025771D01*
X-25310080Y16376663D01*
X-25028420Y15696674D01*
X-24814766Y14992351D01*
X-24671176Y14270479D01*
X-24599034Y13538008D01*
X-24599034Y12801992D01*
X-24671176Y12069521D01*
X-24671176Y12069521D01*
G37*
G04 #@! TD*
M02*
