G04 #@! TF.GenerationSoftware,KiCad,Pcbnew,5.1.4*
G04 #@! TF.CreationDate,2019-09-01T13:26:14+02:00*
G04 #@! TF.ProjectId,kroneum,6b726f6e-6575-46d2-9e6b-696361645f70,rev?*
G04 #@! TF.SameCoordinates,PX9eae8f0PY7ec80e0*
G04 #@! TF.FileFunction,Legend,Bot*
G04 #@! TF.FilePolarity,Positive*
%FSLAX46Y46*%
G04 Gerber Fmt 4.6, Leading zero omitted, Abs format (unit mm)*
G04 Created by KiCad (PCBNEW 5.1.4) date 2019-09-01 13:26:14*
%MOMM*%
%LPD*%
G04 APERTURE LIST*
%ADD10C,0.120000*%
%ADD11C,0.150000*%
G04 APERTURE END LIST*
D10*
G04 #@! TO.C,TP4*
X-15640000Y21865000D02*
X-15640000Y24265000D01*
X-18040000Y21865000D02*
X-15640000Y21865000D01*
X-18040000Y24265000D02*
X-18040000Y21865000D01*
X-15640000Y24265000D02*
X-18040000Y24265000D01*
G04 #@! TO.C,TP3*
X-15640000Y17815000D02*
X-15640000Y20215000D01*
X-18040000Y17815000D02*
X-15640000Y17815000D01*
X-18040000Y20215000D02*
X-18040000Y17815000D01*
X-15640000Y20215000D02*
X-18040000Y20215000D01*
G04 #@! TO.C,TP2*
X-11590000Y21865000D02*
X-11590000Y24265000D01*
X-13990000Y21865000D02*
X-11590000Y21865000D01*
X-13990000Y24265000D02*
X-13990000Y21865000D01*
X-11590000Y24265000D02*
X-13990000Y24265000D01*
G04 #@! TO.C,TP1*
X-11590000Y17815000D02*
X-11590000Y20215000D01*
X-13990000Y17815000D02*
X-11590000Y17815000D01*
X-13990000Y20215000D02*
X-13990000Y17815000D01*
X-11590000Y20215000D02*
X-13990000Y20215000D01*
G04 #@! TD*
G04 #@! TO.C,TP4*
D11*
X-15578096Y25610620D02*
X-16149524Y25610620D01*
X-15863810Y24610620D02*
X-15863810Y25610620D01*
X-16482858Y24610620D02*
X-16482858Y25610620D01*
X-16863810Y25610620D01*
X-16959048Y25563000D01*
X-17006667Y25515381D01*
X-17054286Y25420143D01*
X-17054286Y25277286D01*
X-17006667Y25182048D01*
X-16959048Y25134429D01*
X-16863810Y25086810D01*
X-16482858Y25086810D01*
X-17911429Y25277286D02*
X-17911429Y24610620D01*
X-17673334Y25658239D02*
X-17435239Y24943953D01*
X-18054286Y24943953D01*
G04 #@! TO.C,TP3*
X-15578296Y17387820D02*
X-16149724Y17387820D01*
X-15864010Y16387820D02*
X-15864010Y17387820D01*
X-16483058Y16387820D02*
X-16483058Y17387820D01*
X-16864010Y17387820D01*
X-16959248Y17340200D01*
X-17006867Y17292581D01*
X-17054486Y17197343D01*
X-17054486Y17054486D01*
X-17006867Y16959248D01*
X-16959248Y16911629D01*
X-16864010Y16864010D01*
X-16483058Y16864010D01*
X-17387820Y17387820D02*
X-18006867Y17387820D01*
X-17673534Y17006867D01*
X-17816391Y17006867D01*
X-17911629Y16959248D01*
X-17959248Y16911629D01*
X-18006867Y16816391D01*
X-18006867Y16578296D01*
X-17959248Y16483058D01*
X-17911629Y16435439D01*
X-17816391Y16387820D01*
X-17530677Y16387820D01*
X-17435439Y16435439D01*
X-17387820Y16483058D01*
G04 #@! TO.C,TP2*
X-11528096Y25610620D02*
X-12099524Y25610620D01*
X-11813810Y24610620D02*
X-11813810Y25610620D01*
X-12432858Y24610620D02*
X-12432858Y25610620D01*
X-12813810Y25610620D01*
X-12909048Y25563000D01*
X-12956667Y25515381D01*
X-13004286Y25420143D01*
X-13004286Y25277286D01*
X-12956667Y25182048D01*
X-12909048Y25134429D01*
X-12813810Y25086810D01*
X-12432858Y25086810D01*
X-13385239Y25515381D02*
X-13432858Y25563000D01*
X-13528096Y25610620D01*
X-13766191Y25610620D01*
X-13861429Y25563000D01*
X-13909048Y25515381D01*
X-13956667Y25420143D01*
X-13956667Y25324905D01*
X-13909048Y25182048D01*
X-13337620Y24610620D01*
X-13956667Y24610620D01*
G04 #@! TO.C,TP1*
X-11528096Y17387820D02*
X-12099524Y17387820D01*
X-11813810Y16387820D02*
X-11813810Y17387820D01*
X-12432858Y16387820D02*
X-12432858Y17387820D01*
X-12813810Y17387820D01*
X-12909048Y17340200D01*
X-12956667Y17292581D01*
X-13004286Y17197343D01*
X-13004286Y17054486D01*
X-12956667Y16959248D01*
X-12909048Y16911629D01*
X-12813810Y16864010D01*
X-12432858Y16864010D01*
X-13956667Y16387820D02*
X-13385239Y16387820D01*
X-13670953Y16387820D02*
X-13670953Y17387820D01*
X-13575715Y17244962D01*
X-13480477Y17149724D01*
X-13385239Y17102105D01*
G04 #@! TD*
M02*
