<?xml version="1.0" standalone="no"?>
 <!DOCTYPE svg PUBLIC "-//W3C//DTD SVG 1.1//EN" 
 "http://www.w3.org/Graphics/SVG/1.1/DTD/svg11.dtd"> 
<svg xmlns="http://www.w3.org/2000/svg" version="1.1" 
    width="4.37642cm" height="3.99796cm" viewBox="0 0 17230 15740 ">
<title>SVG Picture created as kroneum-brd.svg date 2019/06/23 10:06:38 </title>
  <desc>Picture generated by PCBNEW </desc>
<g style="fill:#000000; fill-opacity:1;stroke:#000000; stroke-opacity:1;
stroke-linecap:round; stroke-linejoin:round; "
 transform="translate(0 0) scale(1 1)">
</g>
<g style="fill:#000000; fill-opacity:0.0; 
stroke:#000000; stroke-width:-0.000393701; stroke-opacity:1; 
stroke-linecap:round; stroke-linejoin:round;">
<g >
</g>
<g style="fill:#000000; fill-opacity:0.0; 
stroke:#000000; stroke-width:0; stroke-opacity:1; 
stroke-linecap:round; stroke-linejoin:round;">
</g>
<g style="fill:#000000; fill-opacity:1.0; 
stroke:#000000; stroke-width:0; stroke-opacity:1; 
stroke-linecap:round; stroke-linejoin:round;">
<path style="fill:#000000; fill-opacity:1.0; 
stroke:#000000; stroke-width:0; stroke-opacity:1; 
stroke-linecap:round; stroke-linejoin:round;fill-rule:evenodd;"
d="M 2812,1772
2822,1773
2831,1776
2840,1779
2849,1783
2857,1788
2865,1794
2872,1800
2879,1807
2884,1815
2889,1823
2894,1832
2897,1841
2899,1851
2901,1860
2901,1870
2901,2067
2901,2076
2899,2086
2897,2095
2894,2104
2889,2113
2884,2121
2879,2129
2872,2136
2865,2143
2857,2148
2849,2153
2840,2158
2831,2161
2822,2163
2812,2165
2803,2165
2606,2165
2596,2165
2587,2163
2577,2161
2568,2158
2559,2153
2551,2148
2543,2143
2536,2136
2530,2129
2524,2121
2519,2113
2515,2104
2512,2095
2509,2086
2508,2076
2507,2067
2507,1870
2508,1860
2509,1851
2512,1841
2515,1832
2519,1823
2524,1815
2530,1807
2536,1800
2543,1794
2551,1788
2559,1783
2568,1779
2577,1776
2587,1773
2596,1772
2606,1771
2803,1771
2812,1772
Z" /> 
<path style="fill:#000000; fill-opacity:1.0; 
stroke:#000000; stroke-width:0; stroke-opacity:1; 
stroke-linecap:round; stroke-linejoin:round;fill-rule:evenodd;"
d="M 2438,2618
2970,2618
2970,2775
2438,2775
2438,2618
Z" /> 
<path style="fill:#000000; fill-opacity:1.0; 
stroke:#000000; stroke-width:0; stroke-opacity:1; 
stroke-linecap:round; stroke-linejoin:round;fill-rule:evenodd;"
d="M 2438,2362
2970,2362
2970,2519
2438,2519
2438,2362
Z" /> 
<path style="fill:#000000; fill-opacity:1.0; 
stroke:#000000; stroke-width:0; stroke-opacity:1; 
stroke-linecap:round; stroke-linejoin:round;fill-rule:evenodd;"
d="M 2438,3386
2970,3386
2970,3543
2438,3543
2438,3386
Z" /> 
<path style="fill:#000000; fill-opacity:1.0; 
stroke:#000000; stroke-width:0; stroke-opacity:1; 
stroke-linecap:round; stroke-linejoin:round;fill-rule:evenodd;"
d="M 2438,3130
2970,3130
2970,3287
2438,3287
2438,3130
Z" /> 
<path style="fill:#000000; fill-opacity:1.0; 
stroke:#000000; stroke-width:0; stroke-opacity:1; 
stroke-linecap:round; stroke-linejoin:round;fill-rule:evenodd;"
d="M 2438,2874
2970,2874
2970,3031
2438,3031
2438,2874
Z" /> 
<path style="fill:#000000; fill-opacity:1.0; 
stroke:#000000; stroke-width:0; stroke-opacity:1; 
stroke-linecap:round; stroke-linejoin:round;fill-rule:evenodd;"
d="M 2812,3740
2822,3742
2831,3744
2840,3747
2849,3751
2857,3756
2865,3762
2872,3769
2879,3776
2884,3784
2889,3792
2894,3801
2897,3810
2899,3819
2901,3829
2901,3838
2901,4035
2901,4045
2899,4054
2897,4064
2894,4073
2889,4082
2884,4090
2879,4098
2872,4105
2865,4111
2857,4117
2849,4122
2840,4126
2831,4129
2822,4132
2812,4133
2803,4134
2606,4134
2596,4133
2587,4132
2577,4129
2568,4126
2559,4122
2551,4117
2543,4111
2536,4105
2530,4098
2524,4090
2519,4082
2515,4073
2512,4064
2509,4054
2508,4045
2507,4035
2507,3838
2508,3829
2509,3819
2512,3810
2515,3801
2519,3792
2524,3784
2530,3776
2536,3769
2543,3762
2551,3756
2559,3751
2568,3747
2577,3744
2587,3742
2596,3740
2606,3740
2803,3740
2812,3740
Z" /> 
<path style="fill:#000000; fill-opacity:1.0; 
stroke:#000000; stroke-width:0; stroke-opacity:1; 
stroke-linecap:round; stroke-linejoin:round;fill-rule:evenodd;"
d="M 2189,1339
2201,1341
2212,1343
2223,1347
2233,1352
2243,1358
2253,1365
2261,1373
2269,1381
2276,1391
2282,1401
2287,1411
2291,1422
2293,1433
2295,1445
2296,1456
2296,1693
2295,1704
2293,1716
2291,1727
2287,1738
2282,1748
2276,1758
2269,1768
2261,1776
2253,1784
2243,1791
2233,1797
2223,1802
2212,1806
2201,1808
2189,1810
2178,1811
1666,1811
1654,1810
1643,1808
1632,1806
1621,1802
1610,1797
1600,1791
1591,1784
1582,1776
1575,1768
1568,1758
1562,1748
1557,1738
1553,1727
1550,1716
1548,1704
1548,1693
1548,1456
1548,1445
1550,1433
1553,1422
1557,1411
1562,1401
1568,1391
1575,1381
1582,1373
1591,1365
1600,1358
1610,1352
1621,1347
1632,1343
1643,1341
1654,1339
1666,1338
2178,1338
2189,1339
Z" /> 
<path style="fill:#000000; fill-opacity:1.0; 
stroke:#000000; stroke-width:0; stroke-opacity:1; 
stroke-linecap:round; stroke-linejoin:round;fill-rule:evenodd;"
d="M 2189,4095
2201,4096
2212,4099
2223,4103
2233,4108
2243,4114
2253,4121
2261,4129
2269,4137
2276,4147
2282,4157
2287,4167
2291,4178
2293,4189
2295,4201
2296,4212
2296,4449
2295,4460
2293,4472
2291,4483
2287,4494
2282,4504
2276,4514
2269,4523
2261,4532
2253,4540
2243,4547
2233,4553
2223,4558
2212,4562
2201,4564
2189,4566
2178,4567
1666,4567
1654,4566
1643,4564
1632,4562
1621,4558
1610,4553
1600,4547
1591,4540
1582,4532
1575,4523
1568,4514
1562,4504
1557,4494
1553,4483
1550,4472
1548,4460
1548,4449
1548,4212
1548,4201
1550,4189
1553,4178
1557,4167
1562,4157
1568,4147
1575,4137
1582,4129
1591,4121
1600,4114
1610,4108
1621,4103
1632,4099
1643,4096
1654,4095
1666,4094
2178,4094
2189,4095
Z" /> 
</g>
<g >
</g>
<g >
</g>
<g >
</g>
<g >
</g>
<g >
<path style="fill:#000000; fill-opacity:1.0; 
stroke:#000000; stroke-width:0; stroke-opacity:1; 
stroke-linecap:round; stroke-linejoin:round;fill-rule:evenodd;"
d="M 12847,7803
12847,7960
12276,7960
12276,7803
12847,7803
Z" /> 
<path style="fill:#000000; fill-opacity:1.0; 
stroke:#000000; stroke-width:0; stroke-opacity:1; 
stroke-linecap:round; stroke-linejoin:round;fill-rule:evenodd;"
d="M 12847,7547
12847,7704
12276,7704
12276,7547
12847,7547
Z" /> 
<path style="fill:#000000; fill-opacity:1.0; 
stroke:#000000; stroke-width:0; stroke-opacity:1; 
stroke-linecap:round; stroke-linejoin:round;fill-rule:evenodd;"
d="M 12847,7291
12847,7449
12276,7449
12276,7291
12847,7291
Z" /> 
<path style="fill:#000000; fill-opacity:1.0; 
stroke:#000000; stroke-width:0; stroke-opacity:1; 
stroke-linecap:round; stroke-linejoin:round;fill-rule:evenodd;"
d="M 12847,7035
12847,7193
12276,7193
12276,7035
12847,7035
Z" /> 
<path style="fill:#000000; fill-opacity:1.0; 
stroke:#000000; stroke-width:0; stroke-opacity:1; 
stroke-linecap:round; stroke-linejoin:round;fill-rule:evenodd;"
d="M 12847,6779
12847,6937
12276,6937
12276,6779
12847,6779
Z" /> 
<path style="fill:#000000; fill-opacity:1.0; 
stroke:#000000; stroke-width:0; stroke-opacity:1; 
stroke-linecap:round; stroke-linejoin:round;fill-rule:evenodd;"
d="M 12847,6523
12847,6681
12276,6681
12276,6523
12847,6523
Z" /> 
<path style="fill:#000000; fill-opacity:1.0; 
stroke:#000000; stroke-width:0; stroke-opacity:1; 
stroke-linecap:round; stroke-linejoin:round;fill-rule:evenodd;"
d="M 12847,6267
12847,6425
12276,6425
12276,6267
12847,6267
Z" /> 
<path style="fill:#000000; fill-opacity:1.0; 
stroke:#000000; stroke-width:0; stroke-opacity:1; 
stroke-linecap:round; stroke-linejoin:round;fill-rule:evenodd;"
d="M 12847,6012
12847,6169
12276,6169
12276,6012
12847,6012
Z" /> 
<path style="fill:#000000; fill-opacity:1.0; 
stroke:#000000; stroke-width:0; stroke-opacity:1; 
stroke-linecap:round; stroke-linejoin:round;fill-rule:evenodd;"
d="M 12847,5756
12847,5913
12276,5913
12276,5756
12847,5756
Z" /> 
<path style="fill:#000000; fill-opacity:1.0; 
stroke:#000000; stroke-width:0; stroke-opacity:1; 
stroke-linecap:round; stroke-linejoin:round;fill-rule:evenodd;"
d="M 12847,5500
12847,5657
12276,5657
12276,5500
12847,5500
Z" /> 
<path style="fill:#000000; fill-opacity:1.0; 
stroke:#000000; stroke-width:0; stroke-opacity:1; 
stroke-linecap:round; stroke-linejoin:round;fill-rule:evenodd;"
d="M 10524,5500
10524,5657
9953,5657
9953,5500
10524,5500
Z" /> 
<path style="fill:#000000; fill-opacity:1.0; 
stroke:#000000; stroke-width:0; stroke-opacity:1; 
stroke-linecap:round; stroke-linejoin:round;fill-rule:evenodd;"
d="M 10524,5756
10524,5913
9953,5913
9953,5756
10524,5756
Z" /> 
<path style="fill:#000000; fill-opacity:1.0; 
stroke:#000000; stroke-width:0; stroke-opacity:1; 
stroke-linecap:round; stroke-linejoin:round;fill-rule:evenodd;"
d="M 10524,6012
10524,6169
9953,6169
9953,6012
10524,6012
Z" /> 
<path style="fill:#000000; fill-opacity:1.0; 
stroke:#000000; stroke-width:0; stroke-opacity:1; 
stroke-linecap:round; stroke-linejoin:round;fill-rule:evenodd;"
d="M 10524,6267
10524,6425
9953,6425
9953,6267
10524,6267
Z" /> 
<path style="fill:#000000; fill-opacity:1.0; 
stroke:#000000; stroke-width:0; stroke-opacity:1; 
stroke-linecap:round; stroke-linejoin:round;fill-rule:evenodd;"
d="M 10524,6523
10524,6681
9953,6681
9953,6523
10524,6523
Z" /> 
<path style="fill:#000000; fill-opacity:1.0; 
stroke:#000000; stroke-width:0; stroke-opacity:1; 
stroke-linecap:round; stroke-linejoin:round;fill-rule:evenodd;"
d="M 10524,6779
10524,6937
9953,6937
9953,6779
10524,6779
Z" /> 
<path style="fill:#000000; fill-opacity:1.0; 
stroke:#000000; stroke-width:0; stroke-opacity:1; 
stroke-linecap:round; stroke-linejoin:round;fill-rule:evenodd;"
d="M 10524,7035
10524,7193
9953,7193
9953,7035
10524,7035
Z" /> 
<path style="fill:#000000; fill-opacity:1.0; 
stroke:#000000; stroke-width:0; stroke-opacity:1; 
stroke-linecap:round; stroke-linejoin:round;fill-rule:evenodd;"
d="M 10524,7291
10524,7449
9953,7449
9953,7291
10524,7291
Z" /> 
<path style="fill:#000000; fill-opacity:1.0; 
stroke:#000000; stroke-width:0; stroke-opacity:1; 
stroke-linecap:round; stroke-linejoin:round;fill-rule:evenodd;"
d="M 10524,7547
10524,7704
9953,7704
9953,7547
10524,7547
Z" /> 
<path style="fill:#000000; fill-opacity:1.0; 
stroke:#000000; stroke-width:0; stroke-opacity:1; 
stroke-linecap:round; stroke-linejoin:round;fill-rule:evenodd;"
d="M 10524,7803
10524,7960
9953,7960
9953,7803
10524,7803
Z" /> 
</g>
<g >
<path style="fill:#000000; fill-opacity:1.0; 
stroke:#000000; stroke-width:0; stroke-opacity:1; 
stroke-linecap:round; stroke-linejoin:round;fill-rule:evenodd;"
d="M 5661,2287
5268,2012
5268,1697
5661,1421
5661,2287
Z" /> 
<path style="fill:#000000; fill-opacity:1.0; 
stroke:#000000; stroke-width:0; stroke-opacity:1; 
stroke-linecap:round; stroke-linejoin:round;fill-rule:evenodd;"
d="M 5657,1421
6382,1421
6382,2287
5657,2287
5657,1421
Z" /> 
<path style="fill:#000000; fill-opacity:1.0; 
stroke:#000000; stroke-width:0; stroke-opacity:1; 
stroke-linecap:round; stroke-linejoin:round;fill-rule:evenodd;"
d="M 4617,2248
5207,2248
5207,2641
4617,2641
4617,2248
Z" /> 
<path style="fill:#000000; fill-opacity:1.0; 
stroke:#000000; stroke-width:0; stroke-opacity:1; 
stroke-linecap:round; stroke-linejoin:round;fill-rule:evenodd;"
d="M 4615,1657
5324,1657
5324,2051
4615,2051
4615,1657
Z" /> 
<path style="fill:#000000; fill-opacity:1.0; 
stroke:#000000; stroke-width:0; stroke-opacity:1; 
stroke-linecap:round; stroke-linejoin:round;fill-rule:evenodd;"
d="M 4617,1067
5207,1067
5207,1460
4617,1460
4617,1067
Z" /> 
<path style="fill:#000000; fill-opacity:1.0; 
stroke:#000000; stroke-width:0; stroke-opacity:1; 
stroke-linecap:round; stroke-linejoin:round;fill-rule:evenodd;"
d="M 6377,1421
6712,1657
6712,2051
6377,2287
6377,1421
Z" /> 
</g>
<g >
<path style="fill:#000000; fill-opacity:1.0; 
stroke:#000000; stroke-width:0; stroke-opacity:1; 
stroke-linecap:round; stroke-linejoin:round;fill-rule:evenodd;"
d="M 15150,11604
15544,11604
15544,11939
15150,11939
15150,11604
Z" /> 
<path style="fill:#000000; fill-opacity:1.0; 
stroke:#000000; stroke-width:0; stroke-opacity:1; 
stroke-linecap:round; stroke-linejoin:round;fill-rule:evenodd;"
d="M 15150,14084
15544,14084
15544,14419
15150,14419
15150,14084
Z" /> 
<path style="fill:#000000; fill-opacity:1.0; 
stroke:#000000; stroke-width:0; stroke-opacity:1; 
stroke-linecap:round; stroke-linejoin:round;fill-rule:evenodd;"
d="M 13654,11604
14048,11604
14048,11939
13654,11939
13654,11604
Z" /> 
<path style="fill:#000000; fill-opacity:1.0; 
stroke:#000000; stroke-width:0; stroke-opacity:1; 
stroke-linecap:round; stroke-linejoin:round;fill-rule:evenodd;"
d="M 13654,14084
14048,14084
14048,14419
13654,14419
13654,14084
Z" /> 
</g>
<g >
<path style="fill:#000000; fill-opacity:1.0; 
stroke:#000000; stroke-width:0; stroke-opacity:1; 
stroke-linecap:round; stroke-linejoin:round;fill-rule:evenodd;"
d="M 9540,5640
9549,5641
9559,5644
9568,5647
9576,5651
9585,5656
9592,5662
9600,5668
9606,5675
9612,5683
9617,5691
9621,5700
9624,5709
9627,5719
9628,5728
9628,5738
9628,6092
9628,6102
9627,6111
9624,6121
9621,6130
9617,6139
9612,6147
9606,6155
9600,6162
9592,6168
9585,6174
9576,6179
9568,6183
9559,6186
9549,6189
9540,6190
9530,6191
9274,6191
9264,6190
9255,6189
9246,6186
9236,6183
9228,6179
9219,6174
9212,6168
9205,6162
9198,6155
9192,6147
9187,6139
9183,6130
9180,6121
9178,6111
9176,6102
9176,6092
9176,5738
9176,5728
9178,5719
9180,5709
9183,5700
9187,5691
9192,5683
9198,5675
9205,5668
9212,5662
9219,5656
9228,5651
9236,5647
9246,5644
9255,5641
9264,5640
9274,5639
9530,5639
9540,5640
Z" /> 
<path style="fill:#000000; fill-opacity:1.0; 
stroke:#000000; stroke-width:0; stroke-opacity:1; 
stroke-linecap:round; stroke-linejoin:round;fill-rule:evenodd;"
d="M 8733,5640
8742,5641
8751,5644
8761,5647
8769,5651
8778,5656
8785,5662
8793,5668
8799,5675
8805,5683
8810,5691
8814,5700
8817,5709
8819,5719
8821,5728
8821,5738
8821,6092
8821,6102
8819,6111
8817,6121
8814,6130
8810,6139
8805,6147
8799,6155
8793,6162
8785,6168
8778,6174
8769,6179
8761,6183
8751,6186
8742,6189
8733,6190
8723,6191
8467,6191
8457,6190
8448,6189
8438,6186
8429,6183
8421,6179
8412,6174
8405,6168
8397,6162
8391,6155
8385,6147
8380,6139
8376,6130
8373,6121
8370,6111
8369,6102
8369,6092
8369,5738
8369,5728
8370,5719
8373,5709
8376,5700
8380,5691
8385,5683
8391,5675
8397,5668
8405,5662
8412,5656
8421,5651
8429,5647
8438,5644
8448,5641
8457,5640
8467,5639
8723,5639
8733,5640
Z" /> 
</g>
<g >
<path style="fill:#000000; fill-opacity:1.0; 
stroke:#000000; stroke-width:0; stroke-opacity:1; 
stroke-linecap:round; stroke-linejoin:round;fill-rule:evenodd;"
d="M 8733,4793
8742,4795
8751,4797
8761,4800
8769,4805
8778,4810
8785,4815
8793,4822
8799,4829
8805,4837
8810,4845
8814,4854
8817,4863
8819,4872
8821,4882
8821,4891
8821,5246
8821,5255
8819,5265
8817,5274
8814,5283
8810,5292
8805,5300
8799,5308
8793,5315
8785,5322
8778,5328
8769,5333
8761,5337
8751,5340
8742,5342
8733,5344
8723,5344
8467,5344
8457,5344
8448,5342
8438,5340
8429,5337
8421,5333
8412,5328
8405,5322
8397,5315
8391,5308
8385,5300
8380,5292
8376,5283
8373,5274
8370,5265
8369,5255
8369,5246
8369,4891
8369,4882
8370,4872
8373,4863
8376,4854
8380,4845
8385,4837
8391,4829
8397,4822
8405,4815
8412,4810
8421,4805
8429,4800
8438,4797
8448,4795
8457,4793
8467,4793
8723,4793
8733,4793
Z" /> 
<path style="fill:#000000; fill-opacity:1.0; 
stroke:#000000; stroke-width:0; stroke-opacity:1; 
stroke-linecap:round; stroke-linejoin:round;fill-rule:evenodd;"
d="M 9540,4793
9549,4795
9559,4797
9568,4800
9576,4805
9585,4810
9592,4815
9600,4822
9606,4829
9612,4837
9617,4845
9621,4854
9624,4863
9627,4872
9628,4882
9628,4891
9628,5246
9628,5255
9627,5265
9624,5274
9621,5283
9617,5292
9612,5300
9606,5308
9600,5315
9592,5322
9585,5328
9576,5333
9568,5337
9559,5340
9549,5342
9540,5344
9530,5344
9274,5344
9264,5344
9255,5342
9246,5340
9236,5337
9228,5333
9219,5328
9212,5322
9205,5315
9198,5308
9192,5300
9187,5292
9183,5283
9180,5274
9178,5265
9176,5255
9176,5246
9176,4891
9176,4882
9178,4872
9180,4863
9183,4854
9187,4845
9192,4837
9198,4829
9205,4822
9212,4815
9219,4810
9228,4805
9236,4800
9246,4797
9255,4795
9264,4793
9274,4793
9530,4793
9540,4793
Z" /> 
</g>
<g >
<path style="fill:#000000; fill-opacity:1.0; 
stroke:#000000; stroke-width:0; stroke-opacity:1; 
stroke-linecap:round; stroke-linejoin:round;fill-rule:evenodd;"
d="M 10544,12185
10553,12187
10563,12189
10572,12192
10580,12196
10589,12201
10596,12207
10604,12214
10610,12221
10616,12228
10621,12237
10625,12245
10628,12255
10630,12264
10632,12274
10632,12283
10632,12637
10632,12647
10630,12657
10628,12666
10625,12675
10621,12684
10616,12692
10610,12700
10604,12707
10596,12714
10589,12719
10580,12724
10572,12728
10563,12732
10553,12734
10544,12735
10534,12736
10278,12736
10268,12735
10259,12734
10249,12732
10240,12728
10232,12724
10223,12719
10216,12714
10208,12707
10202,12700
10196,12692
10191,12684
10187,12675
10184,12666
10182,12657
10180,12647
10180,12637
10180,12283
10180,12274
10182,12264
10184,12255
10187,12245
10191,12237
10196,12228
10202,12221
10208,12214
10216,12207
10223,12201
10232,12196
10240,12192
10249,12189
10259,12187
10268,12185
10278,12185
10534,12185
10544,12185
Z" /> 
<path style="fill:#000000; fill-opacity:1.0; 
stroke:#000000; stroke-width:0; stroke-opacity:1; 
stroke-linecap:round; stroke-linejoin:round;fill-rule:evenodd;"
d="M 9737,12185
9746,12187
9755,12189
9765,12192
9773,12196
9782,12201
9789,12207
9796,12214
9803,12221
9809,12228
9814,12237
9818,12245
9821,12255
9823,12264
9825,12274
9825,12283
9825,12637
9825,12647
9823,12657
9821,12666
9818,12675
9814,12684
9809,12692
9803,12700
9796,12707
9789,12714
9782,12719
9773,12724
9765,12728
9755,12732
9746,12734
9737,12735
9727,12736
9471,12736
9461,12735
9452,12734
9442,12732
9433,12728
9425,12724
9416,12719
9409,12714
9401,12707
9395,12700
9389,12692
9384,12684
9380,12675
9377,12666
9374,12657
9373,12647
9373,12637
9373,12283
9373,12274
9374,12264
9377,12255
9380,12245
9384,12237
9389,12228
9395,12221
9401,12214
9409,12207
9416,12201
9425,12196
9433,12192
9442,12189
9452,12187
9461,12185
9471,12185
9727,12185
9737,12185
Z" /> 
</g>
<g >
<path style="fill:#000000; fill-opacity:1.0; 
stroke:#000000; stroke-width:0; stroke-opacity:1; 
stroke-linecap:round; stroke-linejoin:round;fill-rule:evenodd;"
d="M 14333,10689
14343,10691
14352,10693
14361,10696
14370,10700
14378,10705
14386,10711
14393,10718
14399,10725
14405,10732
14410,10741
14414,10749
14418,10759
14420,10768
14421,10777
14422,10787
14422,11141
14421,11151
14420,11161
14418,11170
14414,11179
14410,11188
14405,11196
14399,11204
14393,11211
14386,11218
14378,11223
14370,11228
14361,11232
14352,11236
14343,11238
14333,11239
14323,11240
14067,11240
14058,11239
14048,11238
14039,11236
14030,11232
14021,11228
14013,11223
14005,11218
13998,11211
13991,11204
13986,11196
13981,11188
13976,11179
13973,11170
13971,11161
13969,11151
13969,11141
13969,10787
13969,10777
13971,10768
13973,10759
13976,10749
13981,10741
13986,10732
13991,10725
13998,10718
14005,10711
14013,10705
14021,10700
14030,10696
14039,10693
14048,10691
14058,10689
14067,10689
14323,10689
14333,10689
Z" /> 
<path style="fill:#000000; fill-opacity:1.0; 
stroke:#000000; stroke-width:0; stroke-opacity:1; 
stroke-linecap:round; stroke-linejoin:round;fill-rule:evenodd;"
d="M 15140,10689
15150,10691
15159,10693
15168,10696
15177,10700
15185,10705
15193,10711
15200,10718
15206,10725
15212,10732
15217,10741
15221,10749
15225,10759
15227,10768
15228,10777
15229,10787
15229,11141
15228,11151
15227,11161
15225,11170
15221,11179
15217,11188
15212,11196
15206,11204
15200,11211
15193,11218
15185,11223
15177,11228
15168,11232
15159,11236
15150,11238
15140,11239
15130,11240
14874,11240
14865,11239
14855,11238
14846,11236
14837,11232
14828,11228
14820,11223
14812,11218
14805,11211
14798,11204
14793,11196
14788,11188
14784,11179
14780,11170
14778,11161
14777,11151
14776,11141
14776,10787
14777,10777
14778,10768
14780,10759
14784,10749
14788,10741
14793,10732
14798,10725
14805,10718
14812,10711
14820,10705
14828,10700
14837,10696
14846,10693
14855,10691
14865,10689
14874,10689
15130,10689
15140,10689
Z" /> 
</g>
<g >
<path style="fill:#000000; fill-opacity:1.0; 
stroke:#000000; stroke-width:0; stroke-opacity:1; 
stroke-linecap:round; stroke-linejoin:round;fill-rule:evenodd;"
d="M 15140,4508
15150,4509
15159,4512
15168,4515
15177,4519
15185,4524
15193,4530
15200,4536
15206,4544
15212,4551
15217,4560
15221,4568
15225,4577
15227,4587
15228,4596
15229,4606
15229,4960
15228,4970
15227,4980
15225,4989
15221,4998
15217,5007
15212,5015
15206,5023
15200,5030
15193,5036
15185,5042
15177,5047
15168,5051
15159,5055
15150,5057
15140,5058
15130,5059
14874,5059
14865,5058
14855,5057
14846,5055
14837,5051
14828,5047
14820,5042
14812,5036
14805,5030
14798,5023
14793,5015
14788,5007
14784,4998
14780,4989
14778,4980
14777,4970
14776,4960
14776,4606
14777,4596
14778,4587
14780,4577
14784,4568
14788,4560
14793,4551
14798,4544
14805,4536
14812,4530
14820,4524
14828,4519
14837,4515
14846,4512
14855,4509
14865,4508
14874,4508
15130,4508
15140,4508
Z" /> 
<path style="fill:#000000; fill-opacity:1.0; 
stroke:#000000; stroke-width:0; stroke-opacity:1; 
stroke-linecap:round; stroke-linejoin:round;fill-rule:evenodd;"
d="M 14333,4508
14343,4509
14352,4512
14361,4515
14370,4519
14378,4524
14386,4530
14393,4536
14399,4544
14405,4551
14410,4560
14414,4568
14418,4577
14420,4587
14421,4596
14422,4606
14422,4960
14421,4970
14420,4980
14418,4989
14414,4998
14410,5007
14405,5015
14399,5023
14393,5030
14386,5036
14378,5042
14370,5047
14361,5051
14352,5055
14343,5057
14333,5058
14323,5059
14067,5059
14058,5058
14048,5057
14039,5055
14030,5051
14021,5047
14013,5042
14005,5036
13998,5030
13991,5023
13986,5015
13981,5007
13976,4998
13973,4989
13971,4980
13969,4970
13969,4960
13969,4606
13969,4596
13971,4587
13973,4577
13976,4568
13981,4560
13986,4551
13991,4544
13998,4536
14005,4530
14013,4524
14021,4519
14030,4515
14039,4512
14048,4509
14058,4508
14067,4508
14323,4508
14333,4508
Z" /> 
</g>
<g >
<path style="fill:#000000; fill-opacity:1.0; 
stroke:#000000; stroke-width:0; stroke-opacity:1; 
stroke-linecap:round; stroke-linejoin:round;fill-rule:evenodd;"
d="M 11429,4341
11439,4342
11448,4344
11457,4348
11466,4352
11474,4357
11482,4363
11489,4369
11496,4376
11502,4384
11507,4392
11511,4401
11514,4410
11516,4419
11518,4429
11518,4439
11518,4793
11518,4803
11516,4812
11514,4822
11511,4831
11507,4839
11502,4848
11496,4855
11489,4863
11482,4869
11474,4875
11466,4880
11457,4884
11448,4887
11439,4890
11429,4891
11420,4891
11164,4891
11154,4891
11145,4890
11135,4887
11126,4884
11117,4880
11109,4875
11101,4869
11094,4863
11088,4855
11082,4848
11077,4839
11073,4831
11070,4822
11067,4812
11066,4803
11065,4793
11065,4439
11066,4429
11067,4419
11070,4410
11073,4401
11077,4392
11082,4384
11088,4376
11094,4369
11101,4363
11109,4357
11117,4352
11126,4348
11135,4344
11145,4342
11154,4341
11164,4340
11420,4340
11429,4341
Z" /> 
<path style="fill:#000000; fill-opacity:1.0; 
stroke:#000000; stroke-width:0; stroke-opacity:1; 
stroke-linecap:round; stroke-linejoin:round;fill-rule:evenodd;"
d="M 10622,4341
10632,4342
10641,4344
10650,4348
10659,4352
10667,4357
10675,4363
10682,4369
10689,4376
10695,4384
10699,4392
10704,4401
10707,4410
10709,4419
10711,4429
10711,4439
10711,4793
10711,4803
10709,4812
10707,4822
10704,4831
10699,4839
10695,4848
10689,4855
10682,4863
10675,4869
10667,4875
10659,4880
10650,4884
10641,4887
10632,4890
10622,4891
10613,4891
10357,4891
10347,4891
10338,4890
10328,4887
10319,4884
10310,4880
10302,4875
10294,4869
10287,4863
10281,4855
10275,4848
10270,4839
10266,4831
10263,4822
10260,4812
10259,4803
10258,4793
10258,4439
10259,4429
10260,4419
10263,4410
10266,4401
10270,4392
10275,4384
10281,4376
10287,4369
10294,4363
10302,4357
10310,4352
10319,4348
10328,4344
10338,4342
10347,4341
10357,4340
10613,4340
10622,4341
Z" /> 
</g>
<g >
<path style="fill:#000000; fill-opacity:1.0; 
stroke:#000000; stroke-width:0; stroke-opacity:1; 
stroke-linecap:round; stroke-linejoin:round;fill-rule:evenodd;"
d="M 10544,11339
10553,11340
10563,11343
10572,11346
10580,11350
10589,11355
10596,11361
10604,11367
10610,11374
10616,11382
10621,11390
10625,11399
10628,11408
10630,11418
10632,11427
10632,11437
10632,11791
10632,11801
10630,11810
10628,11820
10625,11829
10621,11837
10616,11846
10610,11853
10604,11861
10596,11867
10589,11873
10580,11878
10572,11882
10563,11885
10553,11888
10544,11889
10534,11889
10278,11889
10268,11889
10259,11888
10249,11885
10240,11882
10232,11878
10223,11873
10216,11867
10208,11861
10202,11853
10196,11846
10191,11837
10187,11829
10184,11820
10182,11810
10180,11801
10180,11791
10180,11437
10180,11427
10182,11418
10184,11408
10187,11399
10191,11390
10196,11382
10202,11374
10208,11367
10216,11361
10223,11355
10232,11350
10240,11346
10249,11343
10259,11340
10268,11339
10278,11338
10534,11338
10544,11339
Z" /> 
<path style="fill:#000000; fill-opacity:1.0; 
stroke:#000000; stroke-width:0; stroke-opacity:1; 
stroke-linecap:round; stroke-linejoin:round;fill-rule:evenodd;"
d="M 9737,11339
9746,11340
9755,11343
9765,11346
9773,11350
9782,11355
9789,11361
9796,11367
9803,11374
9809,11382
9814,11390
9818,11399
9821,11408
9823,11418
9825,11427
9825,11437
9825,11791
9825,11801
9823,11810
9821,11820
9818,11829
9814,11837
9809,11846
9803,11853
9796,11861
9789,11867
9782,11873
9773,11878
9765,11882
9755,11885
9746,11888
9737,11889
9727,11889
9471,11889
9461,11889
9452,11888
9442,11885
9433,11882
9425,11878
9416,11873
9409,11867
9401,11861
9395,11853
9389,11846
9384,11837
9380,11829
9377,11820
9374,11810
9373,11801
9373,11791
9373,11437
9373,11427
9374,11418
9377,11408
9380,11399
9384,11390
9389,11382
9395,11374
9401,11367
9409,11361
9416,11355
9425,11350
9433,11346
9442,11343
9452,11340
9461,11339
9471,11338
9727,11338
9737,11339
Z" /> 
</g>
<g >
<path style="fill:#000000; fill-opacity:1.0; 
stroke:#000000; stroke-width:0; stroke-opacity:1; 
stroke-linecap:round; stroke-linejoin:round;fill-rule:evenodd;"
d="M 4884,4338
4884,4023
5239,4023
5239,4338
4884,4338
Z" /> 
<path style="fill:#000000; fill-opacity:1.0; 
stroke:#000000; stroke-width:0; stroke-opacity:1; 
stroke-linecap:round; stroke-linejoin:round;fill-rule:evenodd;"
d="M 4884,5086
4884,4771
5239,4771
5239,5086
4884,5086
Z" /> 
<path style="fill:#000000; fill-opacity:1.0; 
stroke:#000000; stroke-width:0; stroke-opacity:1; 
stroke-linecap:round; stroke-linejoin:round;fill-rule:evenodd;"
d="M 5672,4712
5672,4397
6026,4397
6026,4712
5672,4712
Z" /> 
</g>
<g >
<path style="fill:#000000; fill-opacity:1.0; 
stroke:#000000; stroke-width:0; stroke-opacity:1; 
stroke-linecap:round; stroke-linejoin:round;fill-rule:evenodd;"
d="M 11479,1417
11479,2756
10967,2756
10967,1417
11479,1417
Z" /> 
<path style="fill:#000000; fill-opacity:1.0; 
stroke:#000000; stroke-width:0; stroke-opacity:1; 
stroke-linecap:round; stroke-linejoin:round;fill-rule:evenodd;"
d="M 8054,1417
8054,2756
7542,2756
7542,1417
8054,1417
Z" /> 
</g>
<g >
<path style="fill:#000000; fill-opacity:1.0; 
stroke:#000000; stroke-width:0; stroke-opacity:1; 
stroke-linecap:round; stroke-linejoin:round;fill-rule:evenodd;"
d="M 8595,13681
8595,13287
8930,13287
8930,13681
8595,13681
Z" /> 
<path style="fill:#000000; fill-opacity:1.0; 
stroke:#000000; stroke-width:0; stroke-opacity:1; 
stroke-linecap:round; stroke-linejoin:round;fill-rule:evenodd;"
d="M 11075,13681
11075,13287
11410,13287
11410,13681
11075,13681
Z" /> 
<path style="fill:#000000; fill-opacity:1.0; 
stroke:#000000; stroke-width:0; stroke-opacity:1; 
stroke-linecap:round; stroke-linejoin:round;fill-rule:evenodd;"
d="M 8595,15177
8595,14783
8930,14783
8930,15177
8595,15177
Z" /> 
<path style="fill:#000000; fill-opacity:1.0; 
stroke:#000000; stroke-width:0; stroke-opacity:1; 
stroke-linecap:round; stroke-linejoin:round;fill-rule:evenodd;"
d="M 11075,15177
11075,14783
11410,14783
11410,15177
11075,15177
Z" /> 
</g>
<g >
<path style="fill:#000000; fill-opacity:1.0; 
stroke:#000000; stroke-width:0; stroke-opacity:1; 
stroke-linecap:round; stroke-linejoin:round;fill-rule:evenodd;"
d="M 13654,3809
14048,3809
14048,4143
13654,4143
13654,3809
Z" /> 
<path style="fill:#000000; fill-opacity:1.0; 
stroke:#000000; stroke-width:0; stroke-opacity:1; 
stroke-linecap:round; stroke-linejoin:round;fill-rule:evenodd;"
d="M 13654,1328
14048,1328
14048,1663
13654,1663
13654,1328
Z" /> 
<path style="fill:#000000; fill-opacity:1.0; 
stroke:#000000; stroke-width:0; stroke-opacity:1; 
stroke-linecap:round; stroke-linejoin:round;fill-rule:evenodd;"
d="M 15150,3809
15544,3809
15544,4143
15150,4143
15150,3809
Z" /> 
<path style="fill:#000000; fill-opacity:1.0; 
stroke:#000000; stroke-width:0; stroke-opacity:1; 
stroke-linecap:round; stroke-linejoin:round;fill-rule:evenodd;"
d="M 15150,1328
15544,1328
15544,1663
15150,1663
15150,1328
Z" /> 
</g>
<g >
<path style="fill:#000000; fill-opacity:1.0; 
stroke:#000000; stroke-width:0; stroke-opacity:1; 
stroke-linecap:round; stroke-linejoin:round;fill-rule:evenodd;"
d="M 11410,10393
11410,10787
11075,10787
11075,10393
11410,10393
Z" /> 
<path style="fill:#000000; fill-opacity:1.0; 
stroke:#000000; stroke-width:0; stroke-opacity:1; 
stroke-linecap:round; stroke-linejoin:round;fill-rule:evenodd;"
d="M 8930,10393
8930,10787
8595,10787
8595,10393
8930,10393
Z" /> 
<path style="fill:#000000; fill-opacity:1.0; 
stroke:#000000; stroke-width:0; stroke-opacity:1; 
stroke-linecap:round; stroke-linejoin:round;fill-rule:evenodd;"
d="M 11410,8897
11410,9291
11075,9291
11075,8897
11410,8897
Z" /> 
<path style="fill:#000000; fill-opacity:1.0; 
stroke:#000000; stroke-width:0; stroke-opacity:1; 
stroke-linecap:round; stroke-linejoin:round;fill-rule:evenodd;"
d="M 8930,8897
8930,9291
8595,9291
8595,8897
8930,8897
Z" /> 
</g>
<g >
<path style="fill:#000000; fill-opacity:1.0; 
stroke:#000000; stroke-width:0; stroke-opacity:1; 
stroke-linecap:round; stroke-linejoin:round;fill-rule:evenodd;"
d="M 4032,823
4041,824
4051,827
4060,830
4069,834
4077,839
4085,845
4092,851
4098,859
4104,866
4109,875
4113,883
4116,892
4119,902
4120,911
4121,921
4121,1177
4120,1187
4119,1196
4116,1205
4113,1215
4109,1223
4104,1232
4098,1239
4092,1246
4085,1253
4077,1259
4069,1264
4060,1268
4051,1271
4041,1273
4032,1275
4022,1275
3668,1275
3658,1275
3649,1273
3639,1271
3630,1268
3621,1264
3613,1259
3605,1253
3598,1246
3592,1239
3586,1232
3581,1223
3577,1215
3574,1205
3571,1196
3570,1187
3569,1177
3569,921
3570,911
3571,902
3574,892
3577,883
3581,875
3586,866
3592,859
3598,851
3605,845
3613,839
3621,834
3630,830
3639,827
3649,824
3658,823
3668,823
4022,823
4032,823
Z" /> 
<path style="fill:#000000; fill-opacity:1.0; 
stroke:#000000; stroke-width:0; stroke-opacity:1; 
stroke-linecap:round; stroke-linejoin:round;fill-rule:evenodd;"
d="M 4032,1630
4041,1632
4051,1634
4060,1637
4069,1641
4077,1646
4085,1652
4092,1658
4098,1666
4104,1673
4109,1682
4113,1690
4116,1699
4119,1709
4120,1718
4121,1728
4121,1984
4120,1994
4119,2003
4116,2013
4113,2022
4109,2030
4104,2039
4098,2046
4092,2054
4085,2060
4077,2066
4069,2071
4060,2075
4051,2078
4041,2080
4032,2082
4022,2082
3668,2082
3658,2082
3649,2080
3639,2078
3630,2075
3621,2071
3613,2066
3605,2060
3598,2054
3592,2046
3586,2039
3581,2030
3577,2022
3574,2013
3571,2003
3570,1994
3569,1984
3569,1728
3570,1718
3571,1709
3574,1699
3577,1690
3581,1682
3586,1673
3592,1666
3598,1658
3605,1652
3613,1646
3621,1641
3630,1637
3639,1634
3649,1632
3658,1630
3668,1630
4022,1630
4032,1630
Z" /> 
</g>
<g >
<path style="fill:#000000; fill-opacity:1.0; 
stroke:#000000; stroke-width:0; stroke-opacity:1; 
stroke-linecap:round; stroke-linejoin:round;fill-rule:evenodd;"
d="M 3666,3901
3676,3902
3685,3905
3694,3908
3703,3912
3711,3917
3719,3923
3726,3929
3733,3936
3739,3944
3744,3953
3748,3961
3751,3970
3753,3980
3755,3989
3755,3999
3755,4353
3755,4363
3753,4372
3751,4382
3748,4391
3744,4400
3739,4408
3733,4416
3726,4423
3719,4429
3711,4435
3703,4440
3694,4444
3685,4447
3676,4450
3666,4451
3657,4452
3401,4452
3391,4451
3382,4450
3372,4447
3363,4444
3354,4440
3346,4435
3338,4429
3331,4423
3325,4416
3319,4408
3314,4400
3310,4391
3307,4382
3304,4372
3303,4363
3302,4353
3302,3999
3303,3989
3304,3980
3307,3970
3310,3961
3314,3953
3319,3944
3325,3936
3331,3929
3338,3923
3346,3917
3354,3912
3363,3908
3372,3905
3382,3902
3391,3901
3401,3900
3657,3900
3666,3901
Z" /> 
<path style="fill:#000000; fill-opacity:1.0; 
stroke:#000000; stroke-width:0; stroke-opacity:1; 
stroke-linecap:round; stroke-linejoin:round;fill-rule:evenodd;"
d="M 4474,3901
4483,3902
4492,3905
4502,3908
4510,3912
4519,3917
4526,3923
4533,3929
4540,3936
4546,3944
4551,3953
4555,3961
4558,3970
4560,3980
4562,3989
4562,3999
4562,4353
4562,4363
4560,4372
4558,4382
4555,4391
4551,4400
4546,4408
4540,4416
4533,4423
4526,4429
4519,4435
4510,4440
4502,4444
4492,4447
4483,4450
4474,4451
4464,4452
4208,4452
4198,4451
4189,4450
4179,4447
4170,4444
4162,4440
4153,4435
4146,4429
4138,4423
4132,4416
4126,4408
4121,4400
4117,4391
4114,4382
4111,4372
4110,4363
4110,4353
4110,3999
4110,3989
4111,3980
4114,3970
4117,3961
4121,3953
4126,3944
4132,3936
4138,3929
4146,3923
4153,3917
4162,3912
4170,3908
4179,3905
4189,3902
4198,3901
4208,3900
4464,3900
4474,3901
Z" /> 
</g>
<g >
<path style="fill:#000000; fill-opacity:1.0; 
stroke:#000000; stroke-width:0; stroke-opacity:1; 
stroke-linecap:round; stroke-linejoin:round;fill-rule:evenodd;"
d="M 3595,5559
5603,5559
5603,6543
3595,6543
3595,5559
Z" /> 
<path style="fill:#000000; fill-opacity:1.0; 
stroke:#000000; stroke-width:0; stroke-opacity:1; 
stroke-linecap:round; stroke-linejoin:round;fill-rule:evenodd;"
d="M 3595,14575
5603,14575
5603,15559
3595,15559
3595,14575
Z" /> 
<path style="fill:#000000; fill-opacity:1.0; 
stroke:#000000; stroke-width:0; stroke-opacity:1; 
stroke-linecap:round; stroke-linejoin:round;fill-rule:evenodd;"
d="M 7627,11008
7568,11303
7481,11590
7366,11868
7224,12132
7058,12382
6867,12614
6655,12827
6422,13017
6173,13184
5908,13326
5630,13441
5343,13528
5048,13587
4749,13616
4449,13616
4150,13587
3855,13528
3568,13441
3290,13326
3025,13184
2775,13017
2543,12827
2331,12614
2140,12382
1973,12132
1832,11868
1717,11590
1630,11303
1571,11008
1542,10709
1542,10409
1571,10110
1630,9815
1717,9528
1832,9250
1973,8985
2140,8735
2331,8503
2543,8291
2775,8100
3025,7933
3290,7792
3568,7677
3855,7589
4150,7531
4449,7501
4749,7501
5048,7531
5343,7589
5630,7677
5908,7792
6173,7933
6422,8100
6655,8291
6867,8503
7058,8735
7224,8985
7366,9250
7481,9528
7568,9815
7627,10110
7656,10409
7656,10709
7627,11008
Z" /> 
</g>
<g >
<circle cx="4077.76" cy="2578.94" r="275.591" /> 
</g>
<g style="fill:#000000; fill-opacity:1.0; 
stroke:#000000; stroke-width:0.393701; stroke-opacity:1; 
stroke-linecap:round; stroke-linejoin:round;">
</g>
<g style="fill:#000000; fill-opacity:1.0; 
stroke:#000000; stroke-width:0; stroke-opacity:1; 
stroke-linecap:round; stroke-linejoin:round;">
<circle cx="8644.69" cy="7175.39" r="275.591" /> 
</g>
<g style="fill:#000000; fill-opacity:1.0; 
stroke:#000000; stroke-width:0.393701; stroke-opacity:1; 
stroke-linecap:round; stroke-linejoin:round;">
</g>
<g style="fill:#000000; fill-opacity:1.0; 
stroke:#000000; stroke-width:0; stroke-opacity:1; 
stroke-linecap:round; stroke-linejoin:round;">
<circle cx="8644.69" cy="7943.11" r="275.591" /> 
</g>
<g style="fill:#000000; fill-opacity:1.0; 
stroke:#000000; stroke-width:0.393701; stroke-opacity:1; 
stroke-linecap:round; stroke-linejoin:round;">
</g>
<g style="fill:#000000; fill-opacity:1.0; 
stroke:#000000; stroke-width:0; stroke-opacity:1; 
stroke-linecap:round; stroke-linejoin:round;">
<circle cx="3949.8" cy="3326.97" r="275.591" /> 
</g>
<g style="fill:#000000; fill-opacity:1.0; 
stroke:#000000; stroke-width:0.393701; stroke-opacity:1; 
stroke-linecap:round; stroke-linejoin:round;">
</g>
<g style="fill:#000000; fill-opacity:1.0; 
stroke:#000000; stroke-width:0; stroke-opacity:1; 
stroke-linecap:round; stroke-linejoin:round;">
<circle cx="11006.9" cy="7204.92" r="157.48" /> 
</g>
<g style="fill:#000000; fill-opacity:1.0; 
stroke:#000000; stroke-width:0.393701; stroke-opacity:1; 
stroke-linecap:round; stroke-linejoin:round;">
</g>
<g style="fill:#000000; fill-opacity:1.0; 
stroke:#000000; stroke-width:0; stroke-opacity:1; 
stroke-linecap:round; stroke-linejoin:round;">
<circle cx="11006.9" cy="7706.89" r="157.48" /> 
</g>
<g style="fill:#000000; fill-opacity:1.0; 
stroke:#000000; stroke-width:0.393701; stroke-opacity:1; 
stroke-linecap:round; stroke-linejoin:round;">
</g>
<g style="fill:#000000; fill-opacity:1.0; 
stroke:#000000; stroke-width:0; stroke-opacity:1; 
stroke-linecap:round; stroke-linejoin:round;">
<circle cx="11794.3" cy="7706.89" r="157.48" /> 
</g>
<g style="fill:#000000; fill-opacity:1.0; 
stroke:#000000; stroke-width:0.393701; stroke-opacity:1; 
stroke-linecap:round; stroke-linejoin:round;">
</g>
<g style="fill:#000000; fill-opacity:1.0; 
stroke:#000000; stroke-width:0; stroke-opacity:1; 
stroke-linecap:round; stroke-linejoin:round;">
<circle cx="11794.3" cy="7204.92" r="157.48" /> 
</g>
<g style="fill:#000000; fill-opacity:1.0; 
stroke:#000000; stroke-width:0.393701; stroke-opacity:1; 
stroke-linecap:round; stroke-linejoin:round;">
</g>
<g >
</g>
<g style="fill:#000000; fill-opacity:1.0; 
stroke:#000000; stroke-width:160; stroke-opacity:1; 
stroke-linecap:round; stroke-linejoin:round;">
</g>
<g style="fill:#000000; fill-opacity:0.0; 
stroke:#000000; stroke-width:160; stroke-opacity:1; 
stroke-linecap:round; stroke-linejoin:round;">
<path d="M2704 3464
L2891 3464
" />
</g>
<g style="fill:#000000; fill-opacity:0.0; 
stroke:#000000; stroke-width:300; stroke-opacity:1; 
stroke-linecap:round; stroke-linejoin:round;">
<path d="M2821 1051
L2823 1049
" />
</g>
<g style="fill:#000000; fill-opacity:0.0; 
stroke:#000000; stroke-width:160; stroke-opacity:1; 
stroke-linecap:round; stroke-linejoin:round;">
<path d="M9793 6602
L9382 6191
" />
<path d="M9382 6191
L9382 5915
" />
<path d="M10239 6602
L9793 6602
" />
<path d="M2704 3464
L3152 3464
" />
</g>
<g style="fill:#000000; fill-opacity:0.0; 
stroke:#000000; stroke-width:300; stroke-opacity:1; 
stroke-linecap:round; stroke-linejoin:round;">
<path d="M4662 1049
L4880 1267
" />
<path d="M3845 1049
L4662 1049
" />
<path d="M4880 1267
L4979 1267
" />
<path d="M9402 5069
L9402 5915
" />
</g>
<g style="fill:#000000; fill-opacity:0.0; 
stroke:#000000; stroke-width:160; stroke-opacity:1; 
stroke-linecap:round; stroke-linejoin:round;">
<path d="M3529 3821
L3529 4176
" />
<path d="M2704 3464
L3172 3464
" />
<path d="M3172 3464
L3529 3821
" />
</g>
<g style="fill:#000000; fill-opacity:0.0; 
stroke:#000000; stroke-width:300; stroke-opacity:1; 
stroke-linecap:round; stroke-linejoin:round;">
<path d="M7493 462
L7798 767
" />
<path d="M3845 1049
L4432 462
" />
<path d="M7798 767
L7798 2086
" />
<path d="M4432 462
L7493 462
" />
<path d="M9402 4754
L9402 5069
" />
<path d="M8354 2086
L9402 3135
" />
<path d="M9402 3135
L9402 4754
" />
<path d="M7798 2086
L8354 2086
" />
<path d="M8762 14980
L11243 14980
" />
<path d="M9599 11614
L9599 12460
" />
<path d="M8516 14980
L8762 14980
" />
<path d="M8034 14498
L8516 14980
" />
<path d="M8034 13139
L8034 14498
" />
<path d="M9599 12460
L8713 12460
" />
<path d="M8713 12460
L8034 13139
" />
<path d="M5654 11614
L9599 11614
" />
<path d="M4599 10559
L5654 11614
" />
<path d="M2105 8065
L4599 10559
" />
<path d="M2105 5600
L2105 8065
" />
<path d="M3529 4176
L2105 5600
" />
</g>
<g style="fill:#000000; fill-opacity:0.0; 
stroke:#000000; stroke-width:160; stroke-opacity:1; 
stroke-linecap:round; stroke-linejoin:round;">
<path d="M1882 3860
L1882 4130
" />
<path d="M2278 3464
L1882 3860
" />
<path d="M2704 3464
L2278 3464
" />
</g>
<g style="fill:#000000; fill-opacity:0.0; 
stroke:#000000; stroke-width:300; stroke-opacity:1; 
stroke-linecap:round; stroke-linejoin:round;">
<path d="M1882 4330
L1882 4130
" />
<path d="M1882 4130
L1882 1575
" />
<path d="M2167 1290
L1882 1575
" />
<path d="M3845 1049
L2408 1049
" />
<path d="M2408 1049
L2167 1290
" />
<path d="M10475 4606
L10485 4616
" />
<path d="M11223 2086
L11223 2411
" />
<path d="M10475 3159
L10475 4606
" />
<path d="M11223 2411
L10475 3159
" />
</g>
<g style="fill:#000000; fill-opacity:0.0; 
stroke:#000000; stroke-width:160; stroke-opacity:1; 
stroke-linecap:round; stroke-linejoin:round;">
<path d="M9518 6858
L8575 5915
" />
<path d="M10239 6858
L9518 6858
" />
</g>
<g style="fill:#000000; fill-opacity:0.0; 
stroke:#000000; stroke-width:300; stroke-opacity:1; 
stroke-linecap:round; stroke-linejoin:round;">
<path d="M8081 4555
L8595 5069
" />
<path d="M5849 4555
L8081 4555
" />
<path d="M8595 5069
L8595 5915
" />
</g>
<g style="fill:#000000; fill-opacity:0.0; 
stroke:#000000; stroke-width:160; stroke-opacity:1; 
stroke-linecap:round; stroke-linejoin:round;">
<path d="M11642 6888
L11390 7140
" />
<path d="M10239 6858
L11831 6858
" />
<path d="M11831 6858
L12562 6858
" />
<path d="M11390 7140
L11390 8199
" />
<path d="M10239 6858
L10684 6858
" />
<path d="M10684 6858
L11951 5591
" />
<path d="M13780 6858
L13989 7067
" />
<path d="M12562 6858
L13780 6858
" />
<path d="M11390 8199
L11390 8395
" />
</g>
<g style="fill:#000000; fill-opacity:0.0; 
stroke:#000000; stroke-width:300; stroke-opacity:1; 
stroke-linecap:round; stroke-linejoin:round;">
<path d="M11243 8691
L11243 9094
" />
<path d="M11390 8395
L11243 8543
" />
<path d="M11243 8543
L11243 8691
" />
<path d="M8762 9094
L11243 9094
" />
<path d="M12178 4783
L14195 4783
" />
</g>
<g style="fill:#000000; fill-opacity:0.0; 
stroke:#000000; stroke-width:160; stroke-opacity:1; 
stroke-linecap:round; stroke-linejoin:round;">
<path d="M11951 5591
L11951 5010
" />
</g>
<g style="fill:#000000; fill-opacity:0.0; 
stroke:#000000; stroke-width:300; stroke-opacity:1; 
stroke-linecap:round; stroke-linejoin:round;">
<path d="M11951 5010
L12178 4783
" />
<path d="M14195 4321
L13851 3976
" />
<path d="M14195 4783
L14195 4321
" />
<path d="M13851 11850
L13851 14173
" />
<path d="M14195 11506
L13851 11850
" />
<path d="M13989 7067
L14195 7273
" />
<path d="M14195 7273
L14195 11506
" />
<path d="M13851 3976
L13851 1496
" />
</g>
<g style="fill:#000000; fill-opacity:0.0; 
stroke:#000000; stroke-width:160; stroke-opacity:1; 
stroke-linecap:round; stroke-linejoin:round;">
<path d="M12562 6602
L14331 6602
" />
</g>
<g style="fill:#000000; fill-opacity:0.0; 
stroke:#000000; stroke-width:300; stroke-opacity:1; 
stroke-linecap:round; stroke-linejoin:round;">
<path d="M15347 11712
L15347 14173
" />
<path d="M15012 11378
L15347 11712
" />
<path d="M14331 6602
L15012 7283
" />
<path d="M15012 7283
L15012 11378
" />
</g>
<g style="fill:#000000; fill-opacity:0.0; 
stroke:#000000; stroke-width:160; stroke-opacity:1; 
stroke-linecap:round; stroke-linejoin:round;">
<path d="M12562 6090
L13007 6090
" />
<path d="M13007 6090
L14178 6090
" />
<path d="M14178 6090
L14235 6033
" />
</g>
<g style="fill:#000000; fill-opacity:0.0; 
stroke:#000000; stroke-width:300; stroke-opacity:1; 
stroke-linecap:round; stroke-linejoin:round;">
<path d="M14993 4793
L15002 4783
" />
<path d="M14993 5817
L14993 4793
" />
<path d="M14178 6090
L14719 6090
" />
<path d="M14719 6090
L14993 5817
" />
<path d="M15002 4321
L15347 3976
" />
<path d="M15002 4783
L15002 4321
" />
<path d="M15347 1496
L15347 3976
" />
</g>
<g style="fill:#000000; fill-opacity:0.0; 
stroke:#000000; stroke-width:160; stroke-opacity:1; 
stroke-linecap:round; stroke-linejoin:round;">
<path d="M2704 2697
L2705 2698
" />
<path d="M8705 7114
L8644 7175
" />
<path d="M10119 7114
L8705 7114
" />
<path d="M3959 2697
L4077 2578
" />
<path d="M2704 2697
L3959 2697
" />
</g>
<g style="fill:#000000; fill-opacity:0.0; 
stroke:#000000; stroke-width:157.48; stroke-opacity:1; 
stroke-linecap:round; stroke-linejoin:round;">
<path d="M10119 7370
L9532 7370
" />
</g>
<g style="fill:#000000; fill-opacity:0.0; 
stroke:#000000; stroke-width:160; stroke-opacity:1; 
stroke-linecap:round; stroke-linejoin:round;">
<path d="M2704 2952
L3575 2952
" />
<path d="M3674 3051
L3949 3326
" />
<path d="M3575 2952
L3674 3051
" />
<path d="M10119 7370
L9217 7370
" />
<path d="M9217 7370
L8644 7943
" />
<path d="M11292 5777
L11292 4616
" />
<path d="M10239 6090
L10979 6090
" />
<path d="M10979 6090
L11292 5777
" />
<path d="M12562 7882
L12355 7882
" />
<path d="M12562 7882
L12562 8120
" />
<path d="M12562 8120
L12562 8395
" />
</g>
<g style="fill:#000000; fill-opacity:0.0; 
stroke:#000000; stroke-width:300; stroke-opacity:1; 
stroke-linecap:round; stroke-linejoin:round;">
<path d="M8762 10590
L11243 10590
" />
<path d="M12562 8395
L12571 8405
" />
<path d="M12571 8405
L12571 9429
" />
<path d="M10406 11614
L11489 11614
" />
<path d="M12571 10531
L12571 9429
" />
<path d="M11489 11614
L12571 10531
" />
<path d="M10829 10590
L11243 10590
" />
<path d="M10406 11614
L10406 11013
" />
<path d="M10406 11013
L10829 10590
" />
<path d="M5062 4929
L5062 5588
" />
</g>
<g style="fill:#000000; fill-opacity:0.0; 
stroke:#000000; stroke-width:160; stroke-opacity:1; 
stroke-linecap:round; stroke-linejoin:round;">
<path d="M2704 2441
L2891 2441
" />
</g>
<g style="fill:#000000; fill-opacity:0.0; 
stroke:#000000; stroke-width:98.4252; stroke-opacity:1; 
stroke-linecap:round; stroke-linejoin:round;">
<path d="M2704 2441
L2900 2441
" />
</g>
<g style="fill:#000000; fill-opacity:0.0; 
stroke:#000000; stroke-width:160; stroke-opacity:1; 
stroke-linecap:round; stroke-linejoin:round;">
<path d="M3130 2441
L3713 1858
" />
<path d="M2704 2441
L3130 2441
" />
</g>
<g style="fill:#000000; fill-opacity:0.0; 
stroke:#000000; stroke-width:300; stroke-opacity:1; 
stroke-linecap:round; stroke-linejoin:round;">
<path d="M5431 1856
L5433 1858
" />
<path d="M3845 1856
L5431 1856
" />
<path d="M5433 1858
L6513 1858
" />
</g>
<g style="fill:#000000; fill-opacity:0.0; 
stroke:#000000; stroke-width:160; stroke-opacity:1; 
stroke-linecap:round; stroke-linejoin:round;">
<path d="M13007 7114
L13546 7653
" />
<path d="M12562 7114
L13007 7114
" />
</g>
<g style="fill:#000000; fill-opacity:0.0; 
stroke:#000000; stroke-width:300; stroke-opacity:1; 
stroke-linecap:round; stroke-linejoin:round;">
<path d="M8762 13484
L11243 13484
" />
<path d="M10406 13061
L10406 12460
" />
<path d="M11243 13484
L10829 13484
" />
<path d="M10829 13484
L10406 13061
" />
<path d="M11567 12450
L10416 12450
" />
<path d="M13585 10433
L11567 12450
" />
<path d="M13546 7653
L13585 7692
" />
<path d="M13585 7692
L13585 10433
" />
</g>
<g style="fill:#000000; fill-opacity:0.0; 
stroke:#000000; stroke-width:160; stroke-opacity:1; 
stroke-linecap:round; stroke-linejoin:round;">
<path d="M10585 7626
L10239 7626
" />
<path d="M11006 7204
L10585 7626
" />
<path d="M10239 7882
L10032 7882
" />
<path d="M10762 7882
L10937 7706
" />
<path d="M10239 7882
L10762 7882
" />
<path d="M11875 7626
L11794 7706
" />
<path d="M12562 7626
L11875 7626
" />
<path d="M11959 7370
L11794 7204
" />
<path d="M12562 7370
L11959 7370
" />
</g>
<g style="fill:#000000; fill-opacity:0.0; 
stroke:#000000; stroke-width:300; stroke-opacity:1; 
stroke-linecap:round; stroke-linejoin:round;">
<path d="M4336 4176
L4965 4176
" />
<path d="M4336 3969
L4336 4176
" />
<path d="M4880 2449
L4880 3425
" />
<path d="M4880 3425
L4336 3969
" />
</g>
<g >
</g>
</g>
<g style="fill:#FFFFFF; fill-opacity:0.0; 
stroke:#FFFFFF; stroke-width:300; stroke-opacity:1; 
stroke-linecap:round; stroke-linejoin:round;">
</g>
<g style="fill:#FFFFFF; fill-opacity:1.0; 
stroke:#FFFFFF; stroke-width:0; stroke-opacity:1; 
stroke-linecap:round; stroke-linejoin:round;">
<circle cx="4077.76" cy="2578.94" r="177.165" /> 
</g>
<g style="fill:#FFFFFF; fill-opacity:1.0; 
stroke:#FFFFFF; stroke-width:0.393701; stroke-opacity:1; 
stroke-linecap:round; stroke-linejoin:round;">
</g>
<g style="fill:#FFFFFF; fill-opacity:1.0; 
stroke:#FFFFFF; stroke-width:0; stroke-opacity:1; 
stroke-linecap:round; stroke-linejoin:round;">
<circle cx="8644.69" cy="7175.39" r="177.165" /> 
</g>
<g style="fill:#FFFFFF; fill-opacity:1.0; 
stroke:#FFFFFF; stroke-width:0.393701; stroke-opacity:1; 
stroke-linecap:round; stroke-linejoin:round;">
</g>
<g style="fill:#FFFFFF; fill-opacity:1.0; 
stroke:#FFFFFF; stroke-width:0; stroke-opacity:1; 
stroke-linecap:round; stroke-linejoin:round;">
<circle cx="8644.69" cy="7943.11" r="177.165" /> 
</g>
<g style="fill:#FFFFFF; fill-opacity:1.0; 
stroke:#FFFFFF; stroke-width:0.393701; stroke-opacity:1; 
stroke-linecap:round; stroke-linejoin:round;">
</g>
<g style="fill:#FFFFFF; fill-opacity:1.0; 
stroke:#FFFFFF; stroke-width:0; stroke-opacity:1; 
stroke-linecap:round; stroke-linejoin:round;">
<circle cx="3949.8" cy="3326.97" r="177.165" /> 
</g>
<g style="fill:#FFFFFF; fill-opacity:1.0; 
stroke:#FFFFFF; stroke-width:0.393701; stroke-opacity:1; 
stroke-linecap:round; stroke-linejoin:round;">
</g>
<g style="fill:#FFFFFF; fill-opacity:1.0; 
stroke:#FFFFFF; stroke-width:0; stroke-opacity:1; 
stroke-linecap:round; stroke-linejoin:round;">
<circle cx="11006.9" cy="7204.92" r="78.7402" /> 
</g>
<g style="fill:#FFFFFF; fill-opacity:1.0; 
stroke:#FFFFFF; stroke-width:0.393701; stroke-opacity:1; 
stroke-linecap:round; stroke-linejoin:round;">
</g>
<g style="fill:#FFFFFF; fill-opacity:1.0; 
stroke:#FFFFFF; stroke-width:0; stroke-opacity:1; 
stroke-linecap:round; stroke-linejoin:round;">
<circle cx="11006.9" cy="7706.89" r="78.7402" /> 
</g>
<g style="fill:#FFFFFF; fill-opacity:1.0; 
stroke:#FFFFFF; stroke-width:0.393701; stroke-opacity:1; 
stroke-linecap:round; stroke-linejoin:round;">
</g>
<g style="fill:#FFFFFF; fill-opacity:1.0; 
stroke:#FFFFFF; stroke-width:0; stroke-opacity:1; 
stroke-linecap:round; stroke-linejoin:round;">
<circle cx="11794.3" cy="7706.89" r="78.7402" /> 
</g>
<g style="fill:#FFFFFF; fill-opacity:1.0; 
stroke:#FFFFFF; stroke-width:0.393701; stroke-opacity:1; 
stroke-linecap:round; stroke-linejoin:round;">
</g>
<g style="fill:#FFFFFF; fill-opacity:1.0; 
stroke:#FFFFFF; stroke-width:0; stroke-opacity:1; 
stroke-linecap:round; stroke-linejoin:round;">
<circle cx="11794.3" cy="7204.92" r="78.7402" /> 
</g>
<g style="fill:#FFFFFF; fill-opacity:1.0; 
stroke:#FFFFFF; stroke-width:0.393701; stroke-opacity:1; 
stroke-linecap:round; stroke-linejoin:round;">
</g>
<g style="fill:#000000; fill-opacity:1.0; 
stroke:#000000; stroke-width:0.393701; stroke-opacity:1; 
stroke-linecap:round; stroke-linejoin:round;">
</g>
<g style="fill:#000000; fill-opacity:0.0; 
stroke:#000000; stroke-width:0.393701; stroke-opacity:1; 
stroke-linecap:round; stroke-linejoin:round;">
<path d="M16843.5 15748.2 A393.701 393.701 0.0 0 0 17237.2 15354.5 " />
<path d="M1489.17 15354.5 A393.701 393.701 0.0 0 0 1882.87 15748.2 " />
<path d="M1882.87 0.197244 A393.701 393.701 0.0 0 0 1489.17 393.898 " />
<path d="M17237.2 393.898 A393.701 393.701 0.0 0 0 16843.5 0.197244 " />
<path d="M16843 15748
L1882 15748
" />
<path d="M17237 393
L17237 15354
" />
<path d="M1882 0
L16843 0
" />
<path d="M1489 15354
L1489 393
" />
<g >
</g>
<g >
</g>
<g >
</g>
<g >
</g>
<g >
</g>
<g >
</g>
<g >
</g>
<g >
</g>
<g >
</g>
<g >
</g>
<g >
</g>
<g >
</g>
<g >
</g>
<g >
</g>
<g >
</g>
<g >
</g>
<g >
</g>
<g >
</g>
<g >
</g>
<g >
</g>
<g >
</g>
<g >
</g>
<g >
</g>
<g >
</g>
</g> 
</svg>
