G04 #@! TF.GenerationSoftware,KiCad,Pcbnew,5.1.4*
G04 #@! TF.CreationDate,2019-09-27T00:42:17+02:00*
G04 #@! TF.ProjectId,kroneum,6b726f6e-6575-46d2-9e6b-696361645f70,rev?*
G04 #@! TF.SameCoordinates,PX9527980PY7539c40*
G04 #@! TF.FileFunction,Soldermask,Bot*
G04 #@! TF.FilePolarity,Negative*
%FSLAX46Y46*%
G04 Gerber Fmt 4.6, Leading zero omitted, Abs format (unit mm)*
G04 Created by KiCad (PCBNEW 5.1.4) date 2019-09-27 00:42:17*
%MOMM*%
%LPD*%
G04 APERTURE LIST*
%ADD10C,0.020000*%
G04 APERTURE END LIST*
D10*
G36*
X-25849000Y1869000D02*
G01*
X-27951000Y1869000D01*
X-27951000Y3971000D01*
X-25849000Y3971000D01*
X-25849000Y1869000D01*
X-25849000Y1869000D01*
G37*
G36*
X-2049000Y1869000D02*
G01*
X-4151000Y1869000D01*
X-4151000Y3971000D01*
X-2049000Y3971000D01*
X-2049000Y1869000D01*
X-2049000Y1869000D01*
G37*
G36*
X-12399000Y3599000D02*
G01*
X-17601000Y3599000D01*
X-17601000Y6201000D01*
X-12399000Y6201000D01*
X-12399000Y3599000D01*
X-12399000Y3599000D01*
G37*
G36*
X-2049000Y4869000D02*
G01*
X-4151000Y4869000D01*
X-4151000Y6971000D01*
X-2049000Y6971000D01*
X-2049000Y4869000D01*
X-2049000Y4869000D01*
G37*
G36*
X-25849000Y4869000D02*
G01*
X-27951000Y4869000D01*
X-27951000Y6971000D01*
X-25849000Y6971000D01*
X-25849000Y4869000D01*
X-25849000Y4869000D01*
G37*
G36*
X-2049000Y7869000D02*
G01*
X-4151000Y7869000D01*
X-4151000Y9971000D01*
X-2049000Y9971000D01*
X-2049000Y7869000D01*
X-2049000Y7869000D01*
G37*
G36*
X-25849000Y7869000D02*
G01*
X-27951000Y7869000D01*
X-27951000Y9971000D01*
X-25849000Y9971000D01*
X-25849000Y7869000D01*
X-25849000Y7869000D01*
G37*
G36*
X-14248731Y23863543D02*
G01*
X-12818771Y23579107D01*
X-12797352Y23572609D01*
X-11450357Y23014665D01*
X-11430612Y23004111D01*
X-10218348Y22194102D01*
X-10201043Y22179901D01*
X-9170099Y21148957D01*
X-9155898Y21131652D01*
X-8345889Y19919388D01*
X-8335335Y19899643D01*
X-7777391Y18552648D01*
X-7770893Y18531229D01*
X-7486457Y17101269D01*
X-7484263Y17078989D01*
X-7484263Y15621011D01*
X-7486457Y15598731D01*
X-7770893Y14168771D01*
X-7777391Y14147352D01*
X-8335335Y12800357D01*
X-8345889Y12780612D01*
X-9155898Y11568348D01*
X-9170099Y11551043D01*
X-10201043Y10520099D01*
X-10218348Y10505898D01*
X-11430612Y9695889D01*
X-11450357Y9685335D01*
X-12797352Y9127391D01*
X-12818771Y9120893D01*
X-14248731Y8836457D01*
X-14271011Y8834263D01*
X-15728989Y8834263D01*
X-15751269Y8836457D01*
X-17181229Y9120893D01*
X-17202648Y9127391D01*
X-18549643Y9685335D01*
X-18569388Y9695889D01*
X-19781652Y10505898D01*
X-19798957Y10520099D01*
X-20829901Y11551043D01*
X-20844102Y11568348D01*
X-21654111Y12780612D01*
X-21664665Y12800357D01*
X-22222609Y14147352D01*
X-22229107Y14168771D01*
X-22513543Y15598731D01*
X-22515737Y15621011D01*
X-22515737Y17078989D01*
X-22513543Y17101269D01*
X-22229107Y18531229D01*
X-22222609Y18552648D01*
X-21664665Y19899643D01*
X-21654111Y19919388D01*
X-20844102Y21131652D01*
X-20829901Y21148957D01*
X-19798957Y22179901D01*
X-19781652Y22194102D01*
X-18569388Y23004111D01*
X-18549643Y23014665D01*
X-17202648Y23572609D01*
X-17181229Y23579107D01*
X-15751269Y23863543D01*
X-15728989Y23865737D01*
X-14271011Y23865737D01*
X-14248731Y23863543D01*
X-14248731Y23863543D01*
G37*
G36*
X-2049000Y10869000D02*
G01*
X-4151000Y10869000D01*
X-4151000Y12971000D01*
X-2049000Y12971000D01*
X-2049000Y10869000D01*
X-2049000Y10869000D01*
G37*
G36*
X-25849000Y10869000D02*
G01*
X-27951000Y10869000D01*
X-27951000Y12971000D01*
X-25849000Y12971000D01*
X-25849000Y10869000D01*
X-25849000Y10869000D01*
G37*
G36*
X-2049000Y13869000D02*
G01*
X-4151000Y13869000D01*
X-4151000Y15971000D01*
X-2049000Y15971000D01*
X-2049000Y13869000D01*
X-2049000Y13869000D01*
G37*
G36*
X-25849000Y13869000D02*
G01*
X-27951000Y13869000D01*
X-27951000Y15971000D01*
X-25849000Y15971000D01*
X-25849000Y13869000D01*
X-25849000Y13869000D01*
G37*
G36*
X-1993000Y16869000D02*
G01*
X-4095000Y16869000D01*
X-4095000Y18971000D01*
X-1993000Y18971000D01*
X-1993000Y16869000D01*
X-1993000Y16869000D01*
G37*
G36*
X-25849000Y16869000D02*
G01*
X-27951000Y16869000D01*
X-27951000Y18971000D01*
X-25849000Y18971000D01*
X-25849000Y16869000D01*
X-25849000Y16869000D01*
G37*
G36*
X-12399000Y26499000D02*
G01*
X-17601000Y26499000D01*
X-17601000Y29101000D01*
X-12399000Y29101000D01*
X-12399000Y26499000D01*
X-12399000Y26499000D01*
G37*
M02*
