G04 #@! TF.GenerationSoftware,KiCad,Pcbnew,5.1.4*
G04 #@! TF.CreationDate,2019-09-26T21:19:46+02:00*
G04 #@! TF.ProjectId,kroneum,6b726f6e-6575-46d2-9e6b-696361645f70,rev?*
G04 #@! TF.SameCoordinates,PX9527980PY7539c40*
G04 #@! TF.FileFunction,Copper,L2,Bot*
G04 #@! TF.FilePolarity,Positive*
%FSLAX46Y46*%
G04 Gerber Fmt 4.6, Leading zero omitted, Abs format (unit mm)*
G04 Created by KiCad (PCBNEW 5.1.4) date 2019-09-26 21:19:46*
%MOMM*%
%LPD*%
G04 APERTURE LIST*
G04 #@! TA.AperFunction,SMDPad,CuDef*
%ADD10R,2.000000X2.000000*%
G04 #@! TD*
G04 #@! TA.AperFunction,SMDPad,CuDef*
%ADD11R,5.100000X2.500000*%
G04 #@! TD*
G04 #@! TA.AperFunction,SMDPad,CuDef*
%ADD12C,15.000000*%
G04 #@! TD*
G04 #@! TA.AperFunction,Conductor*
%ADD13C,0.020000*%
G04 #@! TD*
G04 #@! TA.AperFunction,ViaPad*
%ADD14C,0.800000*%
G04 #@! TD*
G04 #@! TA.AperFunction,Conductor*
%ADD15C,0.406400*%
G04 #@! TD*
G04 #@! TA.AperFunction,Conductor*
%ADD16C,0.254000*%
G04 #@! TD*
G04 APERTURE END LIST*
D10*
G04 #@! TO.P,SCK,1*
G04 #@! TO.N,SCK*
X-3044000Y17920000D03*
G04 #@! TD*
G04 #@! TO.P,NSS,1*
G04 #@! TO.N,NSS*
X-3100000Y8920000D03*
G04 #@! TD*
G04 #@! TO.P,MOSI,1*
G04 #@! TO.N,MOSI*
X-3100000Y11920000D03*
G04 #@! TD*
G04 #@! TO.P,MISO,1*
G04 #@! TO.N,MISO*
X-3100000Y14920000D03*
G04 #@! TD*
G04 #@! TO.P,ADC3,1*
G04 #@! TO.N,ADC3*
X-3100000Y5920000D03*
G04 #@! TD*
G04 #@! TO.P,ADC1,1*
G04 #@! TO.N,ADC1*
X-3100000Y2920000D03*
G04 #@! TD*
G04 #@! TO.P,VDD,1*
G04 #@! TO.N,VDD*
X-26900000Y2920000D03*
G04 #@! TD*
G04 #@! TO.P,GND,1*
G04 #@! TO.N,GND*
X-26900000Y5920000D03*
G04 #@! TD*
G04 #@! TO.P,SWDIO,1*
G04 #@! TO.N,SWDIO*
X-26900000Y14920000D03*
G04 #@! TD*
G04 #@! TO.P,SWCLK,1*
G04 #@! TO.N,SWCLK*
X-26900000Y17920000D03*
G04 #@! TD*
G04 #@! TO.P,SCL,1*
G04 #@! TO.N,SCL*
X-26900000Y8920000D03*
G04 #@! TD*
G04 #@! TO.P,SDA,1*
G04 #@! TO.N,SDA*
X-26900000Y11920000D03*
G04 #@! TD*
D11*
G04 #@! TO.P,BT1,1*
G04 #@! TO.N,N/C*
X-15000000Y4900000D03*
G04 #@! TO.N,Net-(BT1-Pad1)*
X-15000000Y27800000D03*
D12*
G04 #@! TO.P,BT1,2*
G04 #@! TO.N,GND*
X-15000000Y16350000D03*
D13*
G04 #@! TD*
G04 #@! TO.N,GND*
G04 #@! TO.C,BT1*
G36*
X-22418824Y17450479D02*
G01*
X-22275234Y18172351D01*
X-22061580Y18876674D01*
X-21779920Y19556663D01*
X-21432965Y20205771D01*
X-21024056Y20817745D01*
X-20557133Y21386692D01*
X-20036692Y21907133D01*
X-19467745Y22374056D01*
X-18855771Y22782965D01*
X-18206663Y23129920D01*
X-17526674Y23411580D01*
X-16822351Y23625234D01*
X-16100479Y23768824D01*
X-15368008Y23840966D01*
X-14631992Y23840966D01*
X-13899521Y23768824D01*
X-13177649Y23625234D01*
X-12473326Y23411580D01*
X-11793337Y23129920D01*
X-11144229Y22782965D01*
X-10532255Y22374056D01*
X-9963308Y21907133D01*
X-9442867Y21386692D01*
X-8975944Y20817745D01*
X-8567035Y20205771D01*
X-8220080Y19556663D01*
X-7938420Y18876674D01*
X-7724766Y18172351D01*
X-7581176Y17450479D01*
X-7509034Y16718008D01*
X-7509034Y15981992D01*
X-7581176Y15249521D01*
X-7724766Y14527649D01*
X-7938420Y13823326D01*
X-8220080Y13143337D01*
X-8567035Y12494229D01*
X-8975944Y11882255D01*
X-9442867Y11313308D01*
X-9963308Y10792867D01*
X-10532255Y10325944D01*
X-11144229Y9917035D01*
X-11793337Y9570080D01*
X-12473326Y9288420D01*
X-13177649Y9074766D01*
X-13899521Y8931176D01*
X-14631992Y8859034D01*
X-15368008Y8859034D01*
X-16100479Y8931176D01*
X-16822351Y9074766D01*
X-17526674Y9288420D01*
X-18206663Y9570080D01*
X-18855771Y9917035D01*
X-19467745Y10325944D01*
X-20036692Y10792867D01*
X-20557133Y11313308D01*
X-21024056Y11882255D01*
X-21432965Y12494229D01*
X-21779920Y13143337D01*
X-22061580Y13823326D01*
X-22275234Y14527649D01*
X-22418824Y15249521D01*
X-22490966Y15981992D01*
X-22490966Y16718008D01*
X-22418824Y17450479D01*
X-22418824Y17450479D01*
G37*
D14*
G04 #@! TO.N,GND*
X-28900000Y7770000D03*
X-14015000Y25255000D03*
G04 #@! TO.N,VDD*
X-26860000Y2020000D03*
G04 #@! TO.N,USB_D-*
X-24400000Y25080000D03*
X-24400000Y20710000D03*
G04 #@! TO.N,USB_D+*
X-25400000Y23660000D03*
X-25400000Y20130000D03*
G04 #@! TO.N,Net-(BT1-Pad1)*
X-15640000Y27410000D03*
G04 #@! TO.N,SWDIO*
X-23400000Y15320000D03*
G04 #@! TO.N,SWCLK*
X-23400000Y16350000D03*
G04 #@! TO.N,SDA*
X-23400000Y10560000D03*
G04 #@! TO.N,SCL*
X-23400000Y9490000D03*
G04 #@! TO.N,ADC1*
X-14025000Y2420000D03*
G04 #@! TO.N,ADC3*
X-6600000Y8420000D03*
G04 #@! TO.N,MISO*
X-6600000Y15320000D03*
G04 #@! TO.N,MOSI*
X-6600000Y10560000D03*
G04 #@! TO.N,NSS*
X-6600000Y9490000D03*
G04 #@! TO.N,SCK*
X-6600000Y16350000D03*
G04 #@! TD*
D15*
G04 #@! TO.N,GND*
X-12318085Y12357400D02*
X-11752400Y12357400D01*
X-12641400Y12357400D02*
X-12318085Y12357400D01*
X-12368881Y10757200D02*
X-11803196Y10757200D01*
X-12539800Y10757200D02*
X-12368881Y10757200D01*
X-14015000Y17335000D02*
X-15000000Y16350000D01*
X-14015000Y25255000D02*
X-14015000Y17335000D01*
G04 #@! TO.N,USB_D-*
X-24400000Y20750000D02*
X-24360000Y20710000D01*
X-24400000Y25080000D02*
X-24400000Y20750000D01*
G04 #@! TO.N,USB_D+*
X-25400000Y23660000D02*
X-25400000Y20210000D01*
X-25400000Y20210000D02*
X-25320000Y20130000D01*
G04 #@! TO.N,SWDIO*
X-26500000Y15320000D02*
X-26900000Y14920000D01*
X-23400000Y15320000D02*
X-26500000Y15320000D01*
G04 #@! TO.N,SWCLK*
X-24970000Y17920000D02*
X-26900000Y17920000D01*
X-23400000Y16350000D02*
X-24970000Y17920000D01*
G04 #@! TO.N,SDA*
X-25493600Y11920000D02*
X-26900000Y11920000D01*
X-24194315Y11920000D02*
X-25493600Y11920000D01*
X-23400000Y11125685D02*
X-24194315Y11920000D01*
X-23400000Y10560000D02*
X-23400000Y11125685D01*
G04 #@! TO.N,SCL*
X-26330000Y9490000D02*
X-26900000Y8920000D01*
X-23400000Y9490000D02*
X-26330000Y9490000D01*
G04 #@! TO.N,ADC1*
X-3600000Y2420000D02*
X-3100000Y2920000D01*
X-13990000Y2420000D02*
X-3600000Y2420000D01*
G04 #@! TO.N,ADC3*
X-6600000Y7000000D02*
X-6600000Y8420000D01*
X-3100000Y5920000D02*
X-5520000Y5920000D01*
X-5520000Y5920000D02*
X-6600000Y7000000D01*
G04 #@! TO.N,MISO*
X-3500000Y15320000D02*
X-3100000Y14920000D01*
X-6600000Y15320000D02*
X-3500000Y15320000D01*
G04 #@! TO.N,MOSI*
X-6600000Y11120000D02*
X-6600000Y10560000D01*
X-3100000Y11920000D02*
X-5800000Y11920000D01*
X-5800000Y11920000D02*
X-6600000Y11120000D01*
G04 #@! TO.N,NSS*
X-3670000Y9490000D02*
X-3100000Y8920000D01*
X-6600000Y9490000D02*
X-3670000Y9490000D01*
G04 #@! TO.N,SCK*
X-6600000Y16350000D02*
X-5030000Y17920000D01*
X-5030000Y17920000D02*
X-3044000Y17920000D01*
G04 #@! TD*
D16*
G04 #@! TO.N,GND*
G36*
X-18132075Y29291103D02*
G01*
X-18167927Y29172913D01*
X-18180033Y29050000D01*
X-18180033Y26550000D01*
X-18167927Y26427087D01*
X-18132075Y26308897D01*
X-18073853Y26199972D01*
X-17995501Y26104499D01*
X-17900028Y26026147D01*
X-17791103Y25967925D01*
X-17672913Y25932073D01*
X-17550000Y25919967D01*
X-12450000Y25919967D01*
X-12327087Y25932073D01*
X-12208897Y25967925D01*
X-12099972Y26026147D01*
X-12004499Y26104499D01*
X-11926147Y26199972D01*
X-11867925Y26308897D01*
X-11832073Y26427087D01*
X-11819967Y26550000D01*
X-11819967Y29050000D01*
X-11832073Y29172913D01*
X-11867925Y29291103D01*
X-11882302Y29318000D01*
X-1031887Y29318000D01*
X-933012Y29308305D01*
X-868581Y29288852D01*
X-809150Y29257252D01*
X-756989Y29214711D01*
X-714087Y29162851D01*
X-682075Y29103645D01*
X-662170Y29039344D01*
X-652000Y28942583D01*
X-651999Y1001896D01*
X-661695Y903014D01*
X-681148Y838580D01*
X-712748Y779150D01*
X-755287Y726991D01*
X-807151Y684085D01*
X-866352Y652076D01*
X-930656Y632170D01*
X-1027417Y622000D01*
X-28968114Y622000D01*
X-29066986Y631695D01*
X-29131420Y651148D01*
X-29190850Y682748D01*
X-29243009Y725287D01*
X-29285915Y777151D01*
X-29317924Y836352D01*
X-29337830Y900656D01*
X-29348000Y997417D01*
X-29348000Y4920000D01*
X-28538072Y4920000D01*
X-28525812Y4795518D01*
X-28489502Y4675820D01*
X-28430537Y4565506D01*
X-28351185Y4468815D01*
X-28285398Y4414826D01*
X-28345501Y4365501D01*
X-28423853Y4270028D01*
X-28482075Y4161103D01*
X-28517927Y4042913D01*
X-28530033Y3920000D01*
X-28530033Y1920000D01*
X-28517927Y1797087D01*
X-28482075Y1678897D01*
X-28423853Y1569972D01*
X-28345501Y1474499D01*
X-28250028Y1396147D01*
X-28141103Y1337925D01*
X-28022913Y1302073D01*
X-27900000Y1289967D01*
X-27582364Y1289967D01*
X-27514674Y1222277D01*
X-27346467Y1109885D01*
X-27159565Y1032467D01*
X-26961151Y993000D01*
X-26758849Y993000D01*
X-26560435Y1032467D01*
X-26373533Y1109885D01*
X-26205326Y1222277D01*
X-26137636Y1289967D01*
X-25900000Y1289967D01*
X-25777087Y1302073D01*
X-25658897Y1337925D01*
X-25549972Y1396147D01*
X-25454499Y1474499D01*
X-25376147Y1569972D01*
X-25317925Y1678897D01*
X-25282073Y1797087D01*
X-25269967Y1920000D01*
X-25269967Y3920000D01*
X-25282073Y4042913D01*
X-25317925Y4161103D01*
X-25376147Y4270028D01*
X-25454499Y4365501D01*
X-25514602Y4414826D01*
X-25448815Y4468815D01*
X-25369463Y4565506D01*
X-25310498Y4675820D01*
X-25274188Y4795518D01*
X-25261928Y4920000D01*
X-25265000Y5634250D01*
X-25423750Y5793000D01*
X-26773000Y5793000D01*
X-26773000Y5773000D01*
X-27027000Y5773000D01*
X-27027000Y5793000D01*
X-28376250Y5793000D01*
X-28535000Y5634250D01*
X-28538072Y4920000D01*
X-29348000Y4920000D01*
X-29348000Y6920000D01*
X-28538072Y6920000D01*
X-28535000Y6205750D01*
X-28376250Y6047000D01*
X-27027000Y6047000D01*
X-27027000Y6067000D01*
X-26773000Y6067000D01*
X-26773000Y6047000D01*
X-25423750Y6047000D01*
X-25265000Y6205750D01*
X-25261928Y6920000D01*
X-25274188Y7044482D01*
X-25310498Y7164180D01*
X-25369463Y7274494D01*
X-25448815Y7371185D01*
X-25514602Y7425174D01*
X-25454499Y7474499D01*
X-25376147Y7569972D01*
X-25317925Y7678897D01*
X-25282073Y7797087D01*
X-25269967Y7920000D01*
X-25269967Y8659800D01*
X-24006069Y8659800D01*
X-23886467Y8579885D01*
X-23699565Y8502467D01*
X-23501151Y8463000D01*
X-23298849Y8463000D01*
X-23100435Y8502467D01*
X-22913533Y8579885D01*
X-22745326Y8692277D01*
X-22602277Y8835326D01*
X-22489885Y9003533D01*
X-22412467Y9190435D01*
X-22373000Y9388849D01*
X-22373000Y9591151D01*
X-22412467Y9789565D01*
X-22489885Y9976467D01*
X-22522314Y10025000D01*
X-22489885Y10073533D01*
X-22412467Y10260435D01*
X-22373000Y10458849D01*
X-22373000Y10661151D01*
X-22412467Y10859565D01*
X-22489885Y11046467D01*
X-22569755Y11166001D01*
X-22574549Y11214674D01*
X-22581813Y11288432D01*
X-22629285Y11444926D01*
X-22642749Y11470115D01*
X-22706375Y11589152D01*
X-22784127Y11683893D01*
X-22784130Y11683896D01*
X-22810120Y11715565D01*
X-22841789Y11741555D01*
X-23578441Y12478206D01*
X-23604435Y12509880D01*
X-23730849Y12613625D01*
X-23875074Y12690715D01*
X-24031568Y12738187D01*
X-24153539Y12750200D01*
X-24153542Y12750200D01*
X-24194315Y12754216D01*
X-24235088Y12750200D01*
X-25269967Y12750200D01*
X-25269967Y12920000D01*
X-25282073Y13042913D01*
X-25317925Y13161103D01*
X-25376147Y13270028D01*
X-25454499Y13365501D01*
X-25520907Y13420000D01*
X-25454499Y13474499D01*
X-25376147Y13569972D01*
X-25317925Y13678897D01*
X-25282073Y13797087D01*
X-25269967Y13920000D01*
X-25269967Y14489800D01*
X-24006069Y14489800D01*
X-23886467Y14409885D01*
X-23699565Y14332467D01*
X-23501151Y14293000D01*
X-23298849Y14293000D01*
X-23100435Y14332467D01*
X-22913533Y14409885D01*
X-22872085Y14437580D01*
X-22794981Y14049952D01*
X-22759128Y13931761D01*
X-22196484Y12573420D01*
X-22138263Y12464496D01*
X-21321432Y11242022D01*
X-21243079Y11146549D01*
X-20203451Y10106921D01*
X-20107978Y10028568D01*
X-18885504Y9211737D01*
X-18776580Y9153516D01*
X-17418239Y8590872D01*
X-17300048Y8555019D01*
X-15858042Y8268187D01*
X-15735129Y8256081D01*
X-14264871Y8256081D01*
X-14141958Y8268187D01*
X-12699952Y8555019D01*
X-12581761Y8590872D01*
X-11223420Y9153516D01*
X-11114496Y9211737D01*
X-9892022Y10028568D01*
X-9796549Y10106921D01*
X-8756921Y11146549D01*
X-8678568Y11242022D01*
X-7861737Y12464496D01*
X-7803516Y12573420D01*
X-7240872Y13931761D01*
X-7205019Y14049952D01*
X-7127915Y14437580D01*
X-7086467Y14409885D01*
X-6899565Y14332467D01*
X-6701151Y14293000D01*
X-6498849Y14293000D01*
X-6300435Y14332467D01*
X-6113533Y14409885D01*
X-5993931Y14489800D01*
X-4730033Y14489800D01*
X-4730033Y13920000D01*
X-4717927Y13797087D01*
X-4682075Y13678897D01*
X-4623853Y13569972D01*
X-4545501Y13474499D01*
X-4479093Y13420000D01*
X-4545501Y13365501D01*
X-4623853Y13270028D01*
X-4682075Y13161103D01*
X-4717927Y13042913D01*
X-4730033Y12920000D01*
X-4730033Y12750200D01*
X-5759227Y12750200D01*
X-5800000Y12754216D01*
X-5840773Y12750200D01*
X-5840776Y12750200D01*
X-5962747Y12738187D01*
X-6119241Y12690715D01*
X-6263466Y12613625D01*
X-6389880Y12509880D01*
X-6415875Y12478205D01*
X-7158205Y11735875D01*
X-7189880Y11709880D01*
X-7215873Y11678207D01*
X-7293625Y11583466D01*
X-7312831Y11547533D01*
X-7370715Y11439240D01*
X-7418187Y11282746D01*
X-7424891Y11214674D01*
X-7429588Y11166984D01*
X-7510115Y11046467D01*
X-7587533Y10859565D01*
X-7627000Y10661151D01*
X-7627000Y10458849D01*
X-7587533Y10260435D01*
X-7510115Y10073533D01*
X-7477686Y10025000D01*
X-7510115Y9976467D01*
X-7587533Y9789565D01*
X-7627000Y9591151D01*
X-7627000Y9388849D01*
X-7587533Y9190435D01*
X-7510115Y9003533D01*
X-7477686Y8955000D01*
X-7510115Y8906467D01*
X-7587533Y8719565D01*
X-7627000Y8521151D01*
X-7627000Y8318849D01*
X-7587533Y8120435D01*
X-7510115Y7933533D01*
X-7430199Y7813931D01*
X-7430200Y7040773D01*
X-7434216Y7000000D01*
X-7430200Y6959227D01*
X-7430200Y6959225D01*
X-7418187Y6837254D01*
X-7391779Y6750200D01*
X-7370715Y6680760D01*
X-7293625Y6536534D01*
X-7263665Y6500028D01*
X-7189880Y6410120D01*
X-7158205Y6384125D01*
X-6135875Y5361795D01*
X-6109880Y5330120D01*
X-6078207Y5304127D01*
X-5983466Y5226375D01*
X-5839241Y5149285D01*
X-5682747Y5101813D01*
X-5520000Y5085784D01*
X-5479224Y5089800D01*
X-4730033Y5089800D01*
X-4730033Y4920000D01*
X-4717927Y4797087D01*
X-4682075Y4678897D01*
X-4623853Y4569972D01*
X-4545501Y4474499D01*
X-4479093Y4420000D01*
X-4545501Y4365501D01*
X-4623853Y4270028D01*
X-4682075Y4161103D01*
X-4717927Y4042913D01*
X-4730033Y3920000D01*
X-4730033Y3250200D01*
X-11966993Y3250200D01*
X-11926147Y3299972D01*
X-11867925Y3408897D01*
X-11832073Y3527087D01*
X-11819967Y3650000D01*
X-11819967Y6150000D01*
X-11832073Y6272913D01*
X-11867925Y6391103D01*
X-11926147Y6500028D01*
X-12004499Y6595501D01*
X-12099972Y6673853D01*
X-12208897Y6732075D01*
X-12327087Y6767927D01*
X-12450000Y6780033D01*
X-17550000Y6780033D01*
X-17672913Y6767927D01*
X-17791103Y6732075D01*
X-17900028Y6673853D01*
X-17995501Y6595501D01*
X-18073853Y6500028D01*
X-18132075Y6391103D01*
X-18167927Y6272913D01*
X-18180033Y6150000D01*
X-18180033Y3650000D01*
X-18167927Y3527087D01*
X-18132075Y3408897D01*
X-18073853Y3299972D01*
X-17995501Y3204499D01*
X-17900028Y3126147D01*
X-17791103Y3067925D01*
X-17672913Y3032073D01*
X-17550000Y3019967D01*
X-14859277Y3019967D01*
X-14935115Y2906467D01*
X-15012533Y2719565D01*
X-15052000Y2521151D01*
X-15052000Y2318849D01*
X-15012533Y2120435D01*
X-14935115Y1933533D01*
X-14822723Y1765326D01*
X-14679674Y1622277D01*
X-14511467Y1509885D01*
X-14324565Y1432467D01*
X-14126151Y1393000D01*
X-13923849Y1393000D01*
X-13725435Y1432467D01*
X-13538533Y1509885D01*
X-13418931Y1589800D01*
X-4634451Y1589800D01*
X-4623853Y1569972D01*
X-4545501Y1474499D01*
X-4450028Y1396147D01*
X-4341103Y1337925D01*
X-4222913Y1302073D01*
X-4100000Y1289967D01*
X-2100000Y1289967D01*
X-1977087Y1302073D01*
X-1858897Y1337925D01*
X-1749972Y1396147D01*
X-1654499Y1474499D01*
X-1576147Y1569972D01*
X-1517925Y1678897D01*
X-1482073Y1797087D01*
X-1469967Y1920000D01*
X-1469967Y3920000D01*
X-1482073Y4042913D01*
X-1517925Y4161103D01*
X-1576147Y4270028D01*
X-1654499Y4365501D01*
X-1720907Y4420000D01*
X-1654499Y4474499D01*
X-1576147Y4569972D01*
X-1517925Y4678897D01*
X-1482073Y4797087D01*
X-1469967Y4920000D01*
X-1469967Y6920000D01*
X-1482073Y7042913D01*
X-1517925Y7161103D01*
X-1576147Y7270028D01*
X-1654499Y7365501D01*
X-1720907Y7420000D01*
X-1654499Y7474499D01*
X-1576147Y7569972D01*
X-1517925Y7678897D01*
X-1482073Y7797087D01*
X-1469967Y7920000D01*
X-1469967Y9920000D01*
X-1482073Y10042913D01*
X-1517925Y10161103D01*
X-1576147Y10270028D01*
X-1654499Y10365501D01*
X-1720907Y10420000D01*
X-1654499Y10474499D01*
X-1576147Y10569972D01*
X-1517925Y10678897D01*
X-1482073Y10797087D01*
X-1469967Y10920000D01*
X-1469967Y12920000D01*
X-1482073Y13042913D01*
X-1517925Y13161103D01*
X-1576147Y13270028D01*
X-1654499Y13365501D01*
X-1720907Y13420000D01*
X-1654499Y13474499D01*
X-1576147Y13569972D01*
X-1517925Y13678897D01*
X-1482073Y13797087D01*
X-1469967Y13920000D01*
X-1469967Y15920000D01*
X-1482073Y16042913D01*
X-1517925Y16161103D01*
X-1576147Y16270028D01*
X-1654499Y16365501D01*
X-1692907Y16397021D01*
X-1598499Y16474499D01*
X-1520147Y16569972D01*
X-1461925Y16678897D01*
X-1426073Y16797087D01*
X-1413967Y16920000D01*
X-1413967Y18920000D01*
X-1426073Y19042913D01*
X-1461925Y19161103D01*
X-1520147Y19270028D01*
X-1598499Y19365501D01*
X-1693972Y19443853D01*
X-1802897Y19502075D01*
X-1921087Y19537927D01*
X-2044000Y19550033D01*
X-4044000Y19550033D01*
X-4166913Y19537927D01*
X-4285103Y19502075D01*
X-4394028Y19443853D01*
X-4489501Y19365501D01*
X-4567853Y19270028D01*
X-4626075Y19161103D01*
X-4661927Y19042913D01*
X-4674033Y18920000D01*
X-4674033Y18750200D01*
X-4989228Y18750200D01*
X-5030001Y18754216D01*
X-5070774Y18750200D01*
X-5070776Y18750200D01*
X-5192747Y18738187D01*
X-5349241Y18690715D01*
X-5493466Y18613625D01*
X-5619880Y18509880D01*
X-5645875Y18478205D01*
X-6758484Y17365596D01*
X-6899565Y17337533D01*
X-6940566Y17320550D01*
X-7205019Y18650048D01*
X-7240872Y18768239D01*
X-7803516Y20126580D01*
X-7861737Y20235504D01*
X-8678568Y21457978D01*
X-8756921Y21553451D01*
X-9796549Y22593079D01*
X-9892022Y22671432D01*
X-11114496Y23488263D01*
X-11223420Y23546484D01*
X-12581761Y24109128D01*
X-12699952Y24144981D01*
X-14141958Y24431813D01*
X-14264871Y24443919D01*
X-15735129Y24443919D01*
X-15858042Y24431813D01*
X-17300048Y24144981D01*
X-17418239Y24109128D01*
X-18776580Y23546484D01*
X-18885504Y23488263D01*
X-20107978Y22671432D01*
X-20203451Y22593079D01*
X-21243079Y21553451D01*
X-21321432Y21457978D01*
X-22138263Y20235504D01*
X-22196484Y20126580D01*
X-22759128Y18768239D01*
X-22794981Y18650048D01*
X-23059434Y17320550D01*
X-23100435Y17337533D01*
X-23241516Y17365596D01*
X-24354125Y18478205D01*
X-24380120Y18509880D01*
X-24506534Y18613625D01*
X-24650759Y18690715D01*
X-24807253Y18738187D01*
X-24929224Y18750200D01*
X-24929227Y18750200D01*
X-24970000Y18754216D01*
X-25010773Y18750200D01*
X-25269967Y18750200D01*
X-25269967Y18920000D01*
X-25282073Y19042913D01*
X-25300300Y19103000D01*
X-25298849Y19103000D01*
X-25100435Y19142467D01*
X-24913533Y19219885D01*
X-24745326Y19332277D01*
X-24602277Y19475326D01*
X-24489885Y19643533D01*
X-24473537Y19683000D01*
X-24298849Y19683000D01*
X-24100435Y19722467D01*
X-23913533Y19799885D01*
X-23745326Y19912277D01*
X-23602277Y20055326D01*
X-23489885Y20223533D01*
X-23412467Y20410435D01*
X-23373000Y20608849D01*
X-23373000Y20811151D01*
X-23412467Y21009565D01*
X-23489885Y21196467D01*
X-23569800Y21316069D01*
X-23569800Y24473931D01*
X-23489885Y24593533D01*
X-23412467Y24780435D01*
X-23373000Y24978849D01*
X-23373000Y25181151D01*
X-23412467Y25379565D01*
X-23489885Y25566467D01*
X-23602277Y25734674D01*
X-23745326Y25877723D01*
X-23913533Y25990115D01*
X-24100435Y26067533D01*
X-24298849Y26107000D01*
X-24501151Y26107000D01*
X-24699565Y26067533D01*
X-24886467Y25990115D01*
X-25054674Y25877723D01*
X-25197723Y25734674D01*
X-25310115Y25566467D01*
X-25387533Y25379565D01*
X-25427000Y25181151D01*
X-25427000Y24978849D01*
X-25387533Y24780435D01*
X-25348831Y24687000D01*
X-25501151Y24687000D01*
X-25699565Y24647533D01*
X-25886467Y24570115D01*
X-26054674Y24457723D01*
X-26197723Y24314674D01*
X-26310115Y24146467D01*
X-26387533Y23959565D01*
X-26427000Y23761151D01*
X-26427000Y23558849D01*
X-26387533Y23360435D01*
X-26310115Y23173533D01*
X-26230200Y23053931D01*
X-26230199Y20736070D01*
X-26310115Y20616467D01*
X-26387533Y20429565D01*
X-26427000Y20231151D01*
X-26427000Y20028849D01*
X-26387533Y19830435D01*
X-26310115Y19643533D01*
X-26247640Y19550033D01*
X-27900000Y19550033D01*
X-28022913Y19537927D01*
X-28141103Y19502075D01*
X-28250028Y19443853D01*
X-28345501Y19365501D01*
X-28423853Y19270028D01*
X-28482075Y19161103D01*
X-28517927Y19042913D01*
X-28530033Y18920000D01*
X-28530033Y16920000D01*
X-28517927Y16797087D01*
X-28482075Y16678897D01*
X-28423853Y16569972D01*
X-28345501Y16474499D01*
X-28279093Y16420000D01*
X-28345501Y16365501D01*
X-28423853Y16270028D01*
X-28482075Y16161103D01*
X-28517927Y16042913D01*
X-28530033Y15920000D01*
X-28530033Y13920000D01*
X-28517927Y13797087D01*
X-28482075Y13678897D01*
X-28423853Y13569972D01*
X-28345501Y13474499D01*
X-28279093Y13420000D01*
X-28345501Y13365501D01*
X-28423853Y13270028D01*
X-28482075Y13161103D01*
X-28517927Y13042913D01*
X-28530033Y12920000D01*
X-28530033Y10920000D01*
X-28517927Y10797087D01*
X-28482075Y10678897D01*
X-28423853Y10569972D01*
X-28345501Y10474499D01*
X-28279093Y10420000D01*
X-28345501Y10365501D01*
X-28423853Y10270028D01*
X-28482075Y10161103D01*
X-28517927Y10042913D01*
X-28530033Y9920000D01*
X-28530033Y7920000D01*
X-28517927Y7797087D01*
X-28482075Y7678897D01*
X-28423853Y7569972D01*
X-28345501Y7474499D01*
X-28285398Y7425174D01*
X-28351185Y7371185D01*
X-28430537Y7274494D01*
X-28489502Y7164180D01*
X-28525812Y7044482D01*
X-28538072Y6920000D01*
X-29348000Y6920000D01*
X-29348000Y28938113D01*
X-29338305Y29036988D01*
X-29318852Y29101419D01*
X-29287252Y29160850D01*
X-29244711Y29213011D01*
X-29192851Y29255913D01*
X-29133645Y29287925D01*
X-29069344Y29307830D01*
X-28972583Y29318000D01*
X-18117698Y29318000D01*
X-18132075Y29291103D01*
X-18132075Y29291103D01*
G37*
X-18132075Y29291103D02*
X-18167927Y29172913D01*
X-18180033Y29050000D01*
X-18180033Y26550000D01*
X-18167927Y26427087D01*
X-18132075Y26308897D01*
X-18073853Y26199972D01*
X-17995501Y26104499D01*
X-17900028Y26026147D01*
X-17791103Y25967925D01*
X-17672913Y25932073D01*
X-17550000Y25919967D01*
X-12450000Y25919967D01*
X-12327087Y25932073D01*
X-12208897Y25967925D01*
X-12099972Y26026147D01*
X-12004499Y26104499D01*
X-11926147Y26199972D01*
X-11867925Y26308897D01*
X-11832073Y26427087D01*
X-11819967Y26550000D01*
X-11819967Y29050000D01*
X-11832073Y29172913D01*
X-11867925Y29291103D01*
X-11882302Y29318000D01*
X-1031887Y29318000D01*
X-933012Y29308305D01*
X-868581Y29288852D01*
X-809150Y29257252D01*
X-756989Y29214711D01*
X-714087Y29162851D01*
X-682075Y29103645D01*
X-662170Y29039344D01*
X-652000Y28942583D01*
X-651999Y1001896D01*
X-661695Y903014D01*
X-681148Y838580D01*
X-712748Y779150D01*
X-755287Y726991D01*
X-807151Y684085D01*
X-866352Y652076D01*
X-930656Y632170D01*
X-1027417Y622000D01*
X-28968114Y622000D01*
X-29066986Y631695D01*
X-29131420Y651148D01*
X-29190850Y682748D01*
X-29243009Y725287D01*
X-29285915Y777151D01*
X-29317924Y836352D01*
X-29337830Y900656D01*
X-29348000Y997417D01*
X-29348000Y4920000D01*
X-28538072Y4920000D01*
X-28525812Y4795518D01*
X-28489502Y4675820D01*
X-28430537Y4565506D01*
X-28351185Y4468815D01*
X-28285398Y4414826D01*
X-28345501Y4365501D01*
X-28423853Y4270028D01*
X-28482075Y4161103D01*
X-28517927Y4042913D01*
X-28530033Y3920000D01*
X-28530033Y1920000D01*
X-28517927Y1797087D01*
X-28482075Y1678897D01*
X-28423853Y1569972D01*
X-28345501Y1474499D01*
X-28250028Y1396147D01*
X-28141103Y1337925D01*
X-28022913Y1302073D01*
X-27900000Y1289967D01*
X-27582364Y1289967D01*
X-27514674Y1222277D01*
X-27346467Y1109885D01*
X-27159565Y1032467D01*
X-26961151Y993000D01*
X-26758849Y993000D01*
X-26560435Y1032467D01*
X-26373533Y1109885D01*
X-26205326Y1222277D01*
X-26137636Y1289967D01*
X-25900000Y1289967D01*
X-25777087Y1302073D01*
X-25658897Y1337925D01*
X-25549972Y1396147D01*
X-25454499Y1474499D01*
X-25376147Y1569972D01*
X-25317925Y1678897D01*
X-25282073Y1797087D01*
X-25269967Y1920000D01*
X-25269967Y3920000D01*
X-25282073Y4042913D01*
X-25317925Y4161103D01*
X-25376147Y4270028D01*
X-25454499Y4365501D01*
X-25514602Y4414826D01*
X-25448815Y4468815D01*
X-25369463Y4565506D01*
X-25310498Y4675820D01*
X-25274188Y4795518D01*
X-25261928Y4920000D01*
X-25265000Y5634250D01*
X-25423750Y5793000D01*
X-26773000Y5793000D01*
X-26773000Y5773000D01*
X-27027000Y5773000D01*
X-27027000Y5793000D01*
X-28376250Y5793000D01*
X-28535000Y5634250D01*
X-28538072Y4920000D01*
X-29348000Y4920000D01*
X-29348000Y6920000D01*
X-28538072Y6920000D01*
X-28535000Y6205750D01*
X-28376250Y6047000D01*
X-27027000Y6047000D01*
X-27027000Y6067000D01*
X-26773000Y6067000D01*
X-26773000Y6047000D01*
X-25423750Y6047000D01*
X-25265000Y6205750D01*
X-25261928Y6920000D01*
X-25274188Y7044482D01*
X-25310498Y7164180D01*
X-25369463Y7274494D01*
X-25448815Y7371185D01*
X-25514602Y7425174D01*
X-25454499Y7474499D01*
X-25376147Y7569972D01*
X-25317925Y7678897D01*
X-25282073Y7797087D01*
X-25269967Y7920000D01*
X-25269967Y8659800D01*
X-24006069Y8659800D01*
X-23886467Y8579885D01*
X-23699565Y8502467D01*
X-23501151Y8463000D01*
X-23298849Y8463000D01*
X-23100435Y8502467D01*
X-22913533Y8579885D01*
X-22745326Y8692277D01*
X-22602277Y8835326D01*
X-22489885Y9003533D01*
X-22412467Y9190435D01*
X-22373000Y9388849D01*
X-22373000Y9591151D01*
X-22412467Y9789565D01*
X-22489885Y9976467D01*
X-22522314Y10025000D01*
X-22489885Y10073533D01*
X-22412467Y10260435D01*
X-22373000Y10458849D01*
X-22373000Y10661151D01*
X-22412467Y10859565D01*
X-22489885Y11046467D01*
X-22569755Y11166001D01*
X-22574549Y11214674D01*
X-22581813Y11288432D01*
X-22629285Y11444926D01*
X-22642749Y11470115D01*
X-22706375Y11589152D01*
X-22784127Y11683893D01*
X-22784130Y11683896D01*
X-22810120Y11715565D01*
X-22841789Y11741555D01*
X-23578441Y12478206D01*
X-23604435Y12509880D01*
X-23730849Y12613625D01*
X-23875074Y12690715D01*
X-24031568Y12738187D01*
X-24153539Y12750200D01*
X-24153542Y12750200D01*
X-24194315Y12754216D01*
X-24235088Y12750200D01*
X-25269967Y12750200D01*
X-25269967Y12920000D01*
X-25282073Y13042913D01*
X-25317925Y13161103D01*
X-25376147Y13270028D01*
X-25454499Y13365501D01*
X-25520907Y13420000D01*
X-25454499Y13474499D01*
X-25376147Y13569972D01*
X-25317925Y13678897D01*
X-25282073Y13797087D01*
X-25269967Y13920000D01*
X-25269967Y14489800D01*
X-24006069Y14489800D01*
X-23886467Y14409885D01*
X-23699565Y14332467D01*
X-23501151Y14293000D01*
X-23298849Y14293000D01*
X-23100435Y14332467D01*
X-22913533Y14409885D01*
X-22872085Y14437580D01*
X-22794981Y14049952D01*
X-22759128Y13931761D01*
X-22196484Y12573420D01*
X-22138263Y12464496D01*
X-21321432Y11242022D01*
X-21243079Y11146549D01*
X-20203451Y10106921D01*
X-20107978Y10028568D01*
X-18885504Y9211737D01*
X-18776580Y9153516D01*
X-17418239Y8590872D01*
X-17300048Y8555019D01*
X-15858042Y8268187D01*
X-15735129Y8256081D01*
X-14264871Y8256081D01*
X-14141958Y8268187D01*
X-12699952Y8555019D01*
X-12581761Y8590872D01*
X-11223420Y9153516D01*
X-11114496Y9211737D01*
X-9892022Y10028568D01*
X-9796549Y10106921D01*
X-8756921Y11146549D01*
X-8678568Y11242022D01*
X-7861737Y12464496D01*
X-7803516Y12573420D01*
X-7240872Y13931761D01*
X-7205019Y14049952D01*
X-7127915Y14437580D01*
X-7086467Y14409885D01*
X-6899565Y14332467D01*
X-6701151Y14293000D01*
X-6498849Y14293000D01*
X-6300435Y14332467D01*
X-6113533Y14409885D01*
X-5993931Y14489800D01*
X-4730033Y14489800D01*
X-4730033Y13920000D01*
X-4717927Y13797087D01*
X-4682075Y13678897D01*
X-4623853Y13569972D01*
X-4545501Y13474499D01*
X-4479093Y13420000D01*
X-4545501Y13365501D01*
X-4623853Y13270028D01*
X-4682075Y13161103D01*
X-4717927Y13042913D01*
X-4730033Y12920000D01*
X-4730033Y12750200D01*
X-5759227Y12750200D01*
X-5800000Y12754216D01*
X-5840773Y12750200D01*
X-5840776Y12750200D01*
X-5962747Y12738187D01*
X-6119241Y12690715D01*
X-6263466Y12613625D01*
X-6389880Y12509880D01*
X-6415875Y12478205D01*
X-7158205Y11735875D01*
X-7189880Y11709880D01*
X-7215873Y11678207D01*
X-7293625Y11583466D01*
X-7312831Y11547533D01*
X-7370715Y11439240D01*
X-7418187Y11282746D01*
X-7424891Y11214674D01*
X-7429588Y11166984D01*
X-7510115Y11046467D01*
X-7587533Y10859565D01*
X-7627000Y10661151D01*
X-7627000Y10458849D01*
X-7587533Y10260435D01*
X-7510115Y10073533D01*
X-7477686Y10025000D01*
X-7510115Y9976467D01*
X-7587533Y9789565D01*
X-7627000Y9591151D01*
X-7627000Y9388849D01*
X-7587533Y9190435D01*
X-7510115Y9003533D01*
X-7477686Y8955000D01*
X-7510115Y8906467D01*
X-7587533Y8719565D01*
X-7627000Y8521151D01*
X-7627000Y8318849D01*
X-7587533Y8120435D01*
X-7510115Y7933533D01*
X-7430199Y7813931D01*
X-7430200Y7040773D01*
X-7434216Y7000000D01*
X-7430200Y6959227D01*
X-7430200Y6959225D01*
X-7418187Y6837254D01*
X-7391779Y6750200D01*
X-7370715Y6680760D01*
X-7293625Y6536534D01*
X-7263665Y6500028D01*
X-7189880Y6410120D01*
X-7158205Y6384125D01*
X-6135875Y5361795D01*
X-6109880Y5330120D01*
X-6078207Y5304127D01*
X-5983466Y5226375D01*
X-5839241Y5149285D01*
X-5682747Y5101813D01*
X-5520000Y5085784D01*
X-5479224Y5089800D01*
X-4730033Y5089800D01*
X-4730033Y4920000D01*
X-4717927Y4797087D01*
X-4682075Y4678897D01*
X-4623853Y4569972D01*
X-4545501Y4474499D01*
X-4479093Y4420000D01*
X-4545501Y4365501D01*
X-4623853Y4270028D01*
X-4682075Y4161103D01*
X-4717927Y4042913D01*
X-4730033Y3920000D01*
X-4730033Y3250200D01*
X-11966993Y3250200D01*
X-11926147Y3299972D01*
X-11867925Y3408897D01*
X-11832073Y3527087D01*
X-11819967Y3650000D01*
X-11819967Y6150000D01*
X-11832073Y6272913D01*
X-11867925Y6391103D01*
X-11926147Y6500028D01*
X-12004499Y6595501D01*
X-12099972Y6673853D01*
X-12208897Y6732075D01*
X-12327087Y6767927D01*
X-12450000Y6780033D01*
X-17550000Y6780033D01*
X-17672913Y6767927D01*
X-17791103Y6732075D01*
X-17900028Y6673853D01*
X-17995501Y6595501D01*
X-18073853Y6500028D01*
X-18132075Y6391103D01*
X-18167927Y6272913D01*
X-18180033Y6150000D01*
X-18180033Y3650000D01*
X-18167927Y3527087D01*
X-18132075Y3408897D01*
X-18073853Y3299972D01*
X-17995501Y3204499D01*
X-17900028Y3126147D01*
X-17791103Y3067925D01*
X-17672913Y3032073D01*
X-17550000Y3019967D01*
X-14859277Y3019967D01*
X-14935115Y2906467D01*
X-15012533Y2719565D01*
X-15052000Y2521151D01*
X-15052000Y2318849D01*
X-15012533Y2120435D01*
X-14935115Y1933533D01*
X-14822723Y1765326D01*
X-14679674Y1622277D01*
X-14511467Y1509885D01*
X-14324565Y1432467D01*
X-14126151Y1393000D01*
X-13923849Y1393000D01*
X-13725435Y1432467D01*
X-13538533Y1509885D01*
X-13418931Y1589800D01*
X-4634451Y1589800D01*
X-4623853Y1569972D01*
X-4545501Y1474499D01*
X-4450028Y1396147D01*
X-4341103Y1337925D01*
X-4222913Y1302073D01*
X-4100000Y1289967D01*
X-2100000Y1289967D01*
X-1977087Y1302073D01*
X-1858897Y1337925D01*
X-1749972Y1396147D01*
X-1654499Y1474499D01*
X-1576147Y1569972D01*
X-1517925Y1678897D01*
X-1482073Y1797087D01*
X-1469967Y1920000D01*
X-1469967Y3920000D01*
X-1482073Y4042913D01*
X-1517925Y4161103D01*
X-1576147Y4270028D01*
X-1654499Y4365501D01*
X-1720907Y4420000D01*
X-1654499Y4474499D01*
X-1576147Y4569972D01*
X-1517925Y4678897D01*
X-1482073Y4797087D01*
X-1469967Y4920000D01*
X-1469967Y6920000D01*
X-1482073Y7042913D01*
X-1517925Y7161103D01*
X-1576147Y7270028D01*
X-1654499Y7365501D01*
X-1720907Y7420000D01*
X-1654499Y7474499D01*
X-1576147Y7569972D01*
X-1517925Y7678897D01*
X-1482073Y7797087D01*
X-1469967Y7920000D01*
X-1469967Y9920000D01*
X-1482073Y10042913D01*
X-1517925Y10161103D01*
X-1576147Y10270028D01*
X-1654499Y10365501D01*
X-1720907Y10420000D01*
X-1654499Y10474499D01*
X-1576147Y10569972D01*
X-1517925Y10678897D01*
X-1482073Y10797087D01*
X-1469967Y10920000D01*
X-1469967Y12920000D01*
X-1482073Y13042913D01*
X-1517925Y13161103D01*
X-1576147Y13270028D01*
X-1654499Y13365501D01*
X-1720907Y13420000D01*
X-1654499Y13474499D01*
X-1576147Y13569972D01*
X-1517925Y13678897D01*
X-1482073Y13797087D01*
X-1469967Y13920000D01*
X-1469967Y15920000D01*
X-1482073Y16042913D01*
X-1517925Y16161103D01*
X-1576147Y16270028D01*
X-1654499Y16365501D01*
X-1692907Y16397021D01*
X-1598499Y16474499D01*
X-1520147Y16569972D01*
X-1461925Y16678897D01*
X-1426073Y16797087D01*
X-1413967Y16920000D01*
X-1413967Y18920000D01*
X-1426073Y19042913D01*
X-1461925Y19161103D01*
X-1520147Y19270028D01*
X-1598499Y19365501D01*
X-1693972Y19443853D01*
X-1802897Y19502075D01*
X-1921087Y19537927D01*
X-2044000Y19550033D01*
X-4044000Y19550033D01*
X-4166913Y19537927D01*
X-4285103Y19502075D01*
X-4394028Y19443853D01*
X-4489501Y19365501D01*
X-4567853Y19270028D01*
X-4626075Y19161103D01*
X-4661927Y19042913D01*
X-4674033Y18920000D01*
X-4674033Y18750200D01*
X-4989228Y18750200D01*
X-5030001Y18754216D01*
X-5070774Y18750200D01*
X-5070776Y18750200D01*
X-5192747Y18738187D01*
X-5349241Y18690715D01*
X-5493466Y18613625D01*
X-5619880Y18509880D01*
X-5645875Y18478205D01*
X-6758484Y17365596D01*
X-6899565Y17337533D01*
X-6940566Y17320550D01*
X-7205019Y18650048D01*
X-7240872Y18768239D01*
X-7803516Y20126580D01*
X-7861737Y20235504D01*
X-8678568Y21457978D01*
X-8756921Y21553451D01*
X-9796549Y22593079D01*
X-9892022Y22671432D01*
X-11114496Y23488263D01*
X-11223420Y23546484D01*
X-12581761Y24109128D01*
X-12699952Y24144981D01*
X-14141958Y24431813D01*
X-14264871Y24443919D01*
X-15735129Y24443919D01*
X-15858042Y24431813D01*
X-17300048Y24144981D01*
X-17418239Y24109128D01*
X-18776580Y23546484D01*
X-18885504Y23488263D01*
X-20107978Y22671432D01*
X-20203451Y22593079D01*
X-21243079Y21553451D01*
X-21321432Y21457978D01*
X-22138263Y20235504D01*
X-22196484Y20126580D01*
X-22759128Y18768239D01*
X-22794981Y18650048D01*
X-23059434Y17320550D01*
X-23100435Y17337533D01*
X-23241516Y17365596D01*
X-24354125Y18478205D01*
X-24380120Y18509880D01*
X-24506534Y18613625D01*
X-24650759Y18690715D01*
X-24807253Y18738187D01*
X-24929224Y18750200D01*
X-24929227Y18750200D01*
X-24970000Y18754216D01*
X-25010773Y18750200D01*
X-25269967Y18750200D01*
X-25269967Y18920000D01*
X-25282073Y19042913D01*
X-25300300Y19103000D01*
X-25298849Y19103000D01*
X-25100435Y19142467D01*
X-24913533Y19219885D01*
X-24745326Y19332277D01*
X-24602277Y19475326D01*
X-24489885Y19643533D01*
X-24473537Y19683000D01*
X-24298849Y19683000D01*
X-24100435Y19722467D01*
X-23913533Y19799885D01*
X-23745326Y19912277D01*
X-23602277Y20055326D01*
X-23489885Y20223533D01*
X-23412467Y20410435D01*
X-23373000Y20608849D01*
X-23373000Y20811151D01*
X-23412467Y21009565D01*
X-23489885Y21196467D01*
X-23569800Y21316069D01*
X-23569800Y24473931D01*
X-23489885Y24593533D01*
X-23412467Y24780435D01*
X-23373000Y24978849D01*
X-23373000Y25181151D01*
X-23412467Y25379565D01*
X-23489885Y25566467D01*
X-23602277Y25734674D01*
X-23745326Y25877723D01*
X-23913533Y25990115D01*
X-24100435Y26067533D01*
X-24298849Y26107000D01*
X-24501151Y26107000D01*
X-24699565Y26067533D01*
X-24886467Y25990115D01*
X-25054674Y25877723D01*
X-25197723Y25734674D01*
X-25310115Y25566467D01*
X-25387533Y25379565D01*
X-25427000Y25181151D01*
X-25427000Y24978849D01*
X-25387533Y24780435D01*
X-25348831Y24687000D01*
X-25501151Y24687000D01*
X-25699565Y24647533D01*
X-25886467Y24570115D01*
X-26054674Y24457723D01*
X-26197723Y24314674D01*
X-26310115Y24146467D01*
X-26387533Y23959565D01*
X-26427000Y23761151D01*
X-26427000Y23558849D01*
X-26387533Y23360435D01*
X-26310115Y23173533D01*
X-26230200Y23053931D01*
X-26230199Y20736070D01*
X-26310115Y20616467D01*
X-26387533Y20429565D01*
X-26427000Y20231151D01*
X-26427000Y20028849D01*
X-26387533Y19830435D01*
X-26310115Y19643533D01*
X-26247640Y19550033D01*
X-27900000Y19550033D01*
X-28022913Y19537927D01*
X-28141103Y19502075D01*
X-28250028Y19443853D01*
X-28345501Y19365501D01*
X-28423853Y19270028D01*
X-28482075Y19161103D01*
X-28517927Y19042913D01*
X-28530033Y18920000D01*
X-28530033Y16920000D01*
X-28517927Y16797087D01*
X-28482075Y16678897D01*
X-28423853Y16569972D01*
X-28345501Y16474499D01*
X-28279093Y16420000D01*
X-28345501Y16365501D01*
X-28423853Y16270028D01*
X-28482075Y16161103D01*
X-28517927Y16042913D01*
X-28530033Y15920000D01*
X-28530033Y13920000D01*
X-28517927Y13797087D01*
X-28482075Y13678897D01*
X-28423853Y13569972D01*
X-28345501Y13474499D01*
X-28279093Y13420000D01*
X-28345501Y13365501D01*
X-28423853Y13270028D01*
X-28482075Y13161103D01*
X-28517927Y13042913D01*
X-28530033Y12920000D01*
X-28530033Y10920000D01*
X-28517927Y10797087D01*
X-28482075Y10678897D01*
X-28423853Y10569972D01*
X-28345501Y10474499D01*
X-28279093Y10420000D01*
X-28345501Y10365501D01*
X-28423853Y10270028D01*
X-28482075Y10161103D01*
X-28517927Y10042913D01*
X-28530033Y9920000D01*
X-28530033Y7920000D01*
X-28517927Y7797087D01*
X-28482075Y7678897D01*
X-28423853Y7569972D01*
X-28345501Y7474499D01*
X-28285398Y7425174D01*
X-28351185Y7371185D01*
X-28430537Y7274494D01*
X-28489502Y7164180D01*
X-28525812Y7044482D01*
X-28538072Y6920000D01*
X-29348000Y6920000D01*
X-29348000Y28938113D01*
X-29338305Y29036988D01*
X-29318852Y29101419D01*
X-29287252Y29160850D01*
X-29244711Y29213011D01*
X-29192851Y29255913D01*
X-29133645Y29287925D01*
X-29069344Y29307830D01*
X-28972583Y29318000D01*
X-18117698Y29318000D01*
X-18132075Y29291103D01*
G04 #@! TD*
M02*
