G04 #@! TF.GenerationSoftware,KiCad,Pcbnew,5.1.4*
G04 #@! TF.CreationDate,2019-09-27T00:42:17+02:00*
G04 #@! TF.ProjectId,kroneum,6b726f6e-6575-46d2-9e6b-696361645f70,rev?*
G04 #@! TF.SameCoordinates,PX9527980PY7539c40*
G04 #@! TF.FileFunction,Soldermask,Top*
G04 #@! TF.FilePolarity,Negative*
%FSLAX46Y46*%
G04 Gerber Fmt 4.6, Leading zero omitted, Abs format (unit mm)*
G04 Created by KiCad (PCBNEW 5.1.4) date 2019-09-27 00:42:17*
%MOMM*%
%LPD*%
G04 APERTURE LIST*
%ADD10C,0.020000*%
G04 APERTURE END LIST*
D10*
G36*
X-1774000Y1469000D02*
G01*
X-2726000Y1469000D01*
X-2726000Y2571000D01*
X-1774000Y2571000D01*
X-1774000Y1469000D01*
X-1774000Y1469000D01*
G37*
G36*
X-8074000Y1469000D02*
G01*
X-9026000Y1469000D01*
X-9026000Y2571000D01*
X-8074000Y2571000D01*
X-8074000Y1469000D01*
X-8074000Y1469000D01*
G37*
G36*
X-20974000Y1469000D02*
G01*
X-21926000Y1469000D01*
X-21926000Y2571000D01*
X-20974000Y2571000D01*
X-20974000Y1469000D01*
X-20974000Y1469000D01*
G37*
G36*
X-27274000Y1469000D02*
G01*
X-28226000Y1469000D01*
X-28226000Y2571000D01*
X-27274000Y2571000D01*
X-27274000Y1469000D01*
X-27274000Y1469000D01*
G37*
G36*
X-19011326Y3516535D02*
G01*
X-18973633Y3505101D01*
X-18938897Y3486534D01*
X-18908452Y3461548D01*
X-18883466Y3431103D01*
X-18864899Y3396367D01*
X-18853465Y3358674D01*
X-18849000Y3313339D01*
X-18849000Y2476661D01*
X-18853465Y2431326D01*
X-18864899Y2393633D01*
X-18883466Y2358897D01*
X-18908452Y2328452D01*
X-18938897Y2303466D01*
X-18973633Y2284899D01*
X-19011326Y2273465D01*
X-19056661Y2269000D01*
X-20143339Y2269000D01*
X-20188674Y2273465D01*
X-20226367Y2284899D01*
X-20261103Y2303466D01*
X-20291548Y2328452D01*
X-20316534Y2358897D01*
X-20335101Y2393633D01*
X-20346535Y2431326D01*
X-20351000Y2476661D01*
X-20351000Y3313339D01*
X-20346535Y3358674D01*
X-20335101Y3396367D01*
X-20316534Y3431103D01*
X-20291548Y3461548D01*
X-20261103Y3486534D01*
X-20226367Y3505101D01*
X-20188674Y3516535D01*
X-20143339Y3521000D01*
X-19056661Y3521000D01*
X-19011326Y3516535D01*
X-19011326Y3516535D01*
G37*
G36*
X-9811326Y3516535D02*
G01*
X-9773633Y3505101D01*
X-9738897Y3486534D01*
X-9708452Y3461548D01*
X-9683466Y3431103D01*
X-9664899Y3396367D01*
X-9653465Y3358674D01*
X-9649000Y3313339D01*
X-9649000Y2476661D01*
X-9653465Y2431326D01*
X-9664899Y2393633D01*
X-9683466Y2358897D01*
X-9708452Y2328452D01*
X-9738897Y2303466D01*
X-9773633Y2284899D01*
X-9811326Y2273465D01*
X-9856661Y2269000D01*
X-10943339Y2269000D01*
X-10988674Y2273465D01*
X-11026367Y2284899D01*
X-11061103Y2303466D01*
X-11091548Y2328452D01*
X-11116534Y2358897D01*
X-11135101Y2393633D01*
X-11146535Y2431326D01*
X-11151000Y2476661D01*
X-11151000Y3313339D01*
X-11146535Y3358674D01*
X-11135101Y3396367D01*
X-11116534Y3431103D01*
X-11091548Y3461548D01*
X-11061103Y3486534D01*
X-11026367Y3505101D01*
X-10988674Y3516535D01*
X-10943339Y3521000D01*
X-9856661Y3521000D01*
X-9811326Y3516535D01*
X-9811326Y3516535D01*
G37*
G36*
X-19011326Y5566535D02*
G01*
X-18973633Y5555101D01*
X-18938897Y5536534D01*
X-18908452Y5511548D01*
X-18883466Y5481103D01*
X-18864899Y5446367D01*
X-18853465Y5408674D01*
X-18849000Y5363339D01*
X-18849000Y4526661D01*
X-18853465Y4481326D01*
X-18864899Y4443633D01*
X-18883466Y4408897D01*
X-18908452Y4378452D01*
X-18938897Y4353466D01*
X-18973633Y4334899D01*
X-19011326Y4323465D01*
X-19056661Y4319000D01*
X-20143339Y4319000D01*
X-20188674Y4323465D01*
X-20226367Y4334899D01*
X-20261103Y4353466D01*
X-20291548Y4378452D01*
X-20316534Y4408897D01*
X-20335101Y4443633D01*
X-20346535Y4481326D01*
X-20351000Y4526661D01*
X-20351000Y5363339D01*
X-20346535Y5408674D01*
X-20335101Y5446367D01*
X-20316534Y5481103D01*
X-20291548Y5511548D01*
X-20261103Y5536534D01*
X-20226367Y5555101D01*
X-20188674Y5566535D01*
X-20143339Y5571000D01*
X-19056661Y5571000D01*
X-19011326Y5566535D01*
X-19011326Y5566535D01*
G37*
G36*
X-9811326Y5566535D02*
G01*
X-9773633Y5555101D01*
X-9738897Y5536534D01*
X-9708452Y5511548D01*
X-9683466Y5481103D01*
X-9664899Y5446367D01*
X-9653465Y5408674D01*
X-9649000Y5363339D01*
X-9649000Y4526661D01*
X-9653465Y4481326D01*
X-9664899Y4443633D01*
X-9683466Y4408897D01*
X-9708452Y4378452D01*
X-9738897Y4353466D01*
X-9773633Y4334899D01*
X-9811326Y4323465D01*
X-9856661Y4319000D01*
X-10943339Y4319000D01*
X-10988674Y4323465D01*
X-11026367Y4334899D01*
X-11061103Y4353466D01*
X-11091548Y4378452D01*
X-11116534Y4408897D01*
X-11135101Y4443633D01*
X-11146535Y4481326D01*
X-11151000Y4526661D01*
X-11151000Y5363339D01*
X-11146535Y5408674D01*
X-11135101Y5446367D01*
X-11116534Y5481103D01*
X-11091548Y5511548D01*
X-11061103Y5536534D01*
X-11026367Y5555101D01*
X-10988674Y5566535D01*
X-10943339Y5571000D01*
X-9856661Y5571000D01*
X-9811326Y5566535D01*
X-9811326Y5566535D01*
G37*
G36*
X-27274000Y5269000D02*
G01*
X-28226000Y5269000D01*
X-28226000Y6371000D01*
X-27274000Y6371000D01*
X-27274000Y5269000D01*
X-27274000Y5269000D01*
G37*
G36*
X-20974000Y5269000D02*
G01*
X-21926000Y5269000D01*
X-21926000Y6371000D01*
X-20974000Y6371000D01*
X-20974000Y5269000D01*
X-20974000Y5269000D01*
G37*
G36*
X-8074000Y5269000D02*
G01*
X-9026000Y5269000D01*
X-9026000Y6371000D01*
X-8074000Y6371000D01*
X-8074000Y5269000D01*
X-8074000Y5269000D01*
G37*
G36*
X-1774000Y5269000D02*
G01*
X-2726000Y5269000D01*
X-2726000Y6371000D01*
X-1774000Y6371000D01*
X-1774000Y5269000D01*
X-1774000Y5269000D01*
G37*
G36*
X-20274000Y7469000D02*
G01*
X-21226000Y7469000D01*
X-21226000Y8571000D01*
X-20274000Y8571000D01*
X-20274000Y7469000D01*
X-20274000Y7469000D01*
G37*
G36*
X-26574000Y7469000D02*
G01*
X-27526000Y7469000D01*
X-27526000Y8571000D01*
X-26574000Y8571000D01*
X-26574000Y7469000D01*
X-26574000Y7469000D01*
G37*
G36*
X-28311326Y9516535D02*
G01*
X-28273633Y9505101D01*
X-28238897Y9486534D01*
X-28208452Y9461548D01*
X-28183466Y9431103D01*
X-28164899Y9396367D01*
X-28153465Y9358674D01*
X-28149000Y9313339D01*
X-28149000Y8476661D01*
X-28153465Y8431326D01*
X-28164899Y8393633D01*
X-28183466Y8358897D01*
X-28208452Y8328452D01*
X-28238897Y8303466D01*
X-28273633Y8284899D01*
X-28311326Y8273465D01*
X-28356661Y8269000D01*
X-29443339Y8269000D01*
X-29488674Y8273465D01*
X-29526367Y8284899D01*
X-29561103Y8303466D01*
X-29591548Y8328452D01*
X-29616534Y8358897D01*
X-29635101Y8393633D01*
X-29646535Y8431326D01*
X-29651000Y8476661D01*
X-29651000Y9313339D01*
X-29646535Y9358674D01*
X-29635101Y9396367D01*
X-29616534Y9431103D01*
X-29591548Y9461548D01*
X-29561103Y9486534D01*
X-29526367Y9505101D01*
X-29488674Y9516535D01*
X-29443339Y9521000D01*
X-28356661Y9521000D01*
X-28311326Y9516535D01*
X-28311326Y9516535D01*
G37*
G36*
X-28311326Y11566535D02*
G01*
X-28273633Y11555101D01*
X-28238897Y11536534D01*
X-28208452Y11511548D01*
X-28183466Y11481103D01*
X-28164899Y11446367D01*
X-28153465Y11408674D01*
X-28149000Y11363339D01*
X-28149000Y10526661D01*
X-28153465Y10481326D01*
X-28164899Y10443633D01*
X-28183466Y10408897D01*
X-28208452Y10378452D01*
X-28238897Y10353466D01*
X-28273633Y10334899D01*
X-28311326Y10323465D01*
X-28356661Y10319000D01*
X-29443339Y10319000D01*
X-29488674Y10323465D01*
X-29526367Y10334899D01*
X-29561103Y10353466D01*
X-29591548Y10378452D01*
X-29616534Y10408897D01*
X-29635101Y10443633D01*
X-29646535Y10481326D01*
X-29651000Y10526661D01*
X-29651000Y11363339D01*
X-29646535Y11408674D01*
X-29635101Y11446367D01*
X-29616534Y11481103D01*
X-29591548Y11511548D01*
X-29561103Y11536534D01*
X-29526367Y11555101D01*
X-29488674Y11566535D01*
X-29443339Y11571000D01*
X-28356661Y11571000D01*
X-28311326Y11566535D01*
X-28311326Y11566535D01*
G37*
G36*
X-11824000Y11244000D02*
G01*
X-18176000Y11244000D01*
X-18176000Y12796000D01*
X-11824000Y12796000D01*
X-11824000Y11244000D01*
X-11824000Y11244000D01*
G37*
G36*
X-20274000Y11269000D02*
G01*
X-21226000Y11269000D01*
X-21226000Y12371000D01*
X-20274000Y12371000D01*
X-20274000Y11269000D01*
X-20274000Y11269000D01*
G37*
G36*
X-26574000Y11269000D02*
G01*
X-27526000Y11269000D01*
X-27526000Y12371000D01*
X-26574000Y12371000D01*
X-26574000Y11269000D01*
X-26574000Y11269000D01*
G37*
G36*
X-26574000Y13469000D02*
G01*
X-27526000Y13469000D01*
X-27526000Y14571000D01*
X-26574000Y14571000D01*
X-26574000Y13469000D01*
X-26574000Y13469000D01*
G37*
G36*
X-20274000Y13469000D02*
G01*
X-21226000Y13469000D01*
X-21226000Y14571000D01*
X-20274000Y14571000D01*
X-20274000Y13469000D01*
X-20274000Y13469000D01*
G37*
G36*
X-28311326Y15516535D02*
G01*
X-28273633Y15505101D01*
X-28238897Y15486534D01*
X-28208452Y15461548D01*
X-28183466Y15431103D01*
X-28164899Y15396367D01*
X-28153465Y15358674D01*
X-28149000Y15313339D01*
X-28149000Y14476661D01*
X-28153465Y14431326D01*
X-28164899Y14393633D01*
X-28183466Y14358897D01*
X-28208452Y14328452D01*
X-28238897Y14303466D01*
X-28273633Y14284899D01*
X-28311326Y14273465D01*
X-28356661Y14269000D01*
X-29443339Y14269000D01*
X-29488674Y14273465D01*
X-29526367Y14284899D01*
X-29561103Y14303466D01*
X-29591548Y14328452D01*
X-29616534Y14358897D01*
X-29635101Y14393633D01*
X-29646535Y14431326D01*
X-29651000Y14476661D01*
X-29651000Y15313339D01*
X-29646535Y15358674D01*
X-29635101Y15396367D01*
X-29616534Y15431103D01*
X-29591548Y15461548D01*
X-29561103Y15486534D01*
X-29526367Y15505101D01*
X-29488674Y15516535D01*
X-29443339Y15521000D01*
X-28356661Y15521000D01*
X-28311326Y15516535D01*
X-28311326Y15516535D01*
G37*
G36*
X-28311326Y17566535D02*
G01*
X-28273633Y17555101D01*
X-28238897Y17536534D01*
X-28208452Y17511548D01*
X-28183466Y17481103D01*
X-28164899Y17446367D01*
X-28153465Y17408674D01*
X-28149000Y17363339D01*
X-28149000Y16526661D01*
X-28153465Y16481326D01*
X-28164899Y16443633D01*
X-28183466Y16408897D01*
X-28208452Y16378452D01*
X-28238897Y16353466D01*
X-28273633Y16334899D01*
X-28311326Y16323465D01*
X-28356661Y16319000D01*
X-29443339Y16319000D01*
X-29488674Y16323465D01*
X-29526367Y16334899D01*
X-29561103Y16353466D01*
X-29591548Y16378452D01*
X-29616534Y16408897D01*
X-29635101Y16443633D01*
X-29646535Y16481326D01*
X-29651000Y16526661D01*
X-29651000Y17363339D01*
X-29646535Y17408674D01*
X-29635101Y17446367D01*
X-29616534Y17481103D01*
X-29591548Y17511548D01*
X-29561103Y17536534D01*
X-29526367Y17555101D01*
X-29488674Y17566535D01*
X-29443339Y17571000D01*
X-28356661Y17571000D01*
X-28311326Y17566535D01*
X-28311326Y17566535D01*
G37*
G36*
X-11824000Y17144000D02*
G01*
X-18176000Y17144000D01*
X-18176000Y18696000D01*
X-11824000Y18696000D01*
X-11824000Y17144000D01*
X-11824000Y17144000D01*
G37*
G36*
X-26574000Y17269000D02*
G01*
X-27526000Y17269000D01*
X-27526000Y18371000D01*
X-26574000Y18371000D01*
X-26574000Y17269000D01*
X-26574000Y17269000D01*
G37*
G36*
X-20274000Y17269000D02*
G01*
X-21226000Y17269000D01*
X-21226000Y18371000D01*
X-20274000Y18371000D01*
X-20274000Y17269000D01*
X-20274000Y17269000D01*
G37*
G36*
X-6961326Y19166535D02*
G01*
X-6923633Y19155101D01*
X-6888897Y19136534D01*
X-6858452Y19111548D01*
X-6833466Y19081103D01*
X-6814899Y19046367D01*
X-6803465Y19008674D01*
X-6799000Y18963339D01*
X-6799000Y17876661D01*
X-6803465Y17831326D01*
X-6814899Y17793633D01*
X-6833466Y17758897D01*
X-6858452Y17728452D01*
X-6888897Y17703466D01*
X-6923633Y17684899D01*
X-6961326Y17673465D01*
X-7006661Y17669000D01*
X-7843339Y17669000D01*
X-7888674Y17673465D01*
X-7926367Y17684899D01*
X-7961103Y17703466D01*
X-7991548Y17728452D01*
X-8016534Y17758897D01*
X-8035101Y17793633D01*
X-8046535Y17831326D01*
X-8051000Y17876661D01*
X-8051000Y18963339D01*
X-8046535Y19008674D01*
X-8035101Y19046367D01*
X-8016534Y19081103D01*
X-7991548Y19111548D01*
X-7961103Y19136534D01*
X-7926367Y19155101D01*
X-7888674Y19166535D01*
X-7843339Y19171000D01*
X-7006661Y19171000D01*
X-6961326Y19166535D01*
X-6961326Y19166535D01*
G37*
G36*
X-4911326Y19166535D02*
G01*
X-4873633Y19155101D01*
X-4838897Y19136534D01*
X-4808452Y19111548D01*
X-4783466Y19081103D01*
X-4764899Y19046367D01*
X-4753465Y19008674D01*
X-4749000Y18963339D01*
X-4749000Y17876661D01*
X-4753465Y17831326D01*
X-4764899Y17793633D01*
X-4783466Y17758897D01*
X-4808452Y17728452D01*
X-4838897Y17703466D01*
X-4873633Y17684899D01*
X-4911326Y17673465D01*
X-4956661Y17669000D01*
X-5793339Y17669000D01*
X-5838674Y17673465D01*
X-5876367Y17684899D01*
X-5911103Y17703466D01*
X-5941548Y17728452D01*
X-5966534Y17758897D01*
X-5985101Y17793633D01*
X-5996535Y17831326D01*
X-6001000Y17876661D01*
X-6001000Y18963339D01*
X-5996535Y19008674D01*
X-5985101Y19046367D01*
X-5966534Y19081103D01*
X-5941548Y19111548D01*
X-5911103Y19136534D01*
X-5876367Y19155101D01*
X-5838674Y19166535D01*
X-5793339Y19171000D01*
X-4956661Y19171000D01*
X-4911326Y19166535D01*
X-4911326Y19166535D01*
G37*
G36*
X-28150808Y21175354D02*
G01*
X-28101586Y21160422D01*
X-28056222Y21136174D01*
X-28016458Y21103542D01*
X-27983826Y21063778D01*
X-27959578Y21018414D01*
X-27944646Y20969192D01*
X-27939000Y20911860D01*
X-27939000Y20148140D01*
X-27944646Y20090808D01*
X-27959578Y20041586D01*
X-27983826Y19996222D01*
X-28016458Y19956458D01*
X-28056222Y19923826D01*
X-28101586Y19899578D01*
X-28150808Y19884646D01*
X-28208140Y19879000D01*
X-29671860Y19879000D01*
X-29729192Y19884646D01*
X-29778414Y19899578D01*
X-29823778Y19923826D01*
X-29863542Y19956458D01*
X-29896174Y19996222D01*
X-29920422Y20041586D01*
X-29935354Y20090808D01*
X-29941000Y20148140D01*
X-29941000Y20911860D01*
X-29935354Y20969192D01*
X-29920422Y21018414D01*
X-29896174Y21063778D01*
X-29863542Y21103542D01*
X-29823778Y21136174D01*
X-29778414Y21160422D01*
X-29729192Y21175354D01*
X-29671860Y21181000D01*
X-28208140Y21181000D01*
X-28150808Y21175354D01*
X-28150808Y21175354D01*
G37*
G36*
X-13551326Y22090315D02*
G01*
X-13513633Y22078881D01*
X-13478897Y22060314D01*
X-13448452Y22035328D01*
X-13423466Y22004883D01*
X-13404899Y21970147D01*
X-13393465Y21932454D01*
X-13389000Y21887119D01*
X-13389000Y20800441D01*
X-13393465Y20755106D01*
X-13404899Y20717413D01*
X-13423466Y20682677D01*
X-13448452Y20652232D01*
X-13478897Y20627246D01*
X-13513633Y20608679D01*
X-13551326Y20597245D01*
X-13596661Y20592780D01*
X-14433339Y20592780D01*
X-14478674Y20597245D01*
X-14516367Y20608679D01*
X-14551103Y20627246D01*
X-14581548Y20652232D01*
X-14606534Y20682677D01*
X-14625101Y20717413D01*
X-14636535Y20755106D01*
X-14641000Y20800441D01*
X-14641000Y21887119D01*
X-14636535Y21932454D01*
X-14625101Y21970147D01*
X-14606534Y22004883D01*
X-14581548Y22035328D01*
X-14551103Y22060314D01*
X-14516367Y22078881D01*
X-14478674Y22090315D01*
X-14433339Y22094780D01*
X-13596661Y22094780D01*
X-13551326Y22090315D01*
X-13551326Y22090315D01*
G37*
G36*
X-15601326Y22090315D02*
G01*
X-15563633Y22078881D01*
X-15528897Y22060314D01*
X-15498452Y22035328D01*
X-15473466Y22004883D01*
X-15454899Y21970147D01*
X-15443465Y21932454D01*
X-15439000Y21887119D01*
X-15439000Y20800441D01*
X-15443465Y20755106D01*
X-15454899Y20717413D01*
X-15473466Y20682677D01*
X-15498452Y20652232D01*
X-15528897Y20627246D01*
X-15563633Y20608679D01*
X-15601326Y20597245D01*
X-15646661Y20592780D01*
X-16483339Y20592780D01*
X-16528674Y20597245D01*
X-16566367Y20608679D01*
X-16601103Y20627246D01*
X-16631548Y20652232D01*
X-16656534Y20682677D01*
X-16675101Y20717413D01*
X-16686535Y20755106D01*
X-16691000Y20800441D01*
X-16691000Y21887119D01*
X-16686535Y21932454D01*
X-16675101Y21970147D01*
X-16656534Y22004883D01*
X-16631548Y22035328D01*
X-16601103Y22060314D01*
X-16566367Y22078881D01*
X-16528674Y22090315D01*
X-16483339Y22094780D01*
X-15646661Y22094780D01*
X-15601326Y22090315D01*
X-15601326Y22090315D01*
G37*
G36*
X-19230640Y20920320D02*
G01*
X-20132640Y20920320D01*
X-20132640Y21922320D01*
X-19230640Y21922320D01*
X-19230640Y20920320D01*
X-19230640Y20920320D01*
G37*
G36*
X-22252726Y22200735D02*
G01*
X-22215033Y22189301D01*
X-22180297Y22170734D01*
X-22149852Y22145748D01*
X-22124866Y22115303D01*
X-22106299Y22080567D01*
X-22094865Y22042874D01*
X-22090400Y21997539D01*
X-22090400Y21160861D01*
X-22094865Y21115526D01*
X-22106299Y21077833D01*
X-22124866Y21043097D01*
X-22149852Y21012652D01*
X-22180297Y20987666D01*
X-22215033Y20969099D01*
X-22252726Y20957665D01*
X-22298061Y20953200D01*
X-23384739Y20953200D01*
X-23430074Y20957665D01*
X-23467767Y20969099D01*
X-23502503Y20987666D01*
X-23532948Y21012652D01*
X-23557934Y21043097D01*
X-23576501Y21077833D01*
X-23587935Y21115526D01*
X-23592400Y21160861D01*
X-23592400Y21997539D01*
X-23587935Y22042874D01*
X-23576501Y22080567D01*
X-23557934Y22115303D01*
X-23532948Y22145748D01*
X-23502503Y22170734D01*
X-23467767Y22189301D01*
X-23430074Y22200735D01*
X-23384739Y22205200D01*
X-22298061Y22205200D01*
X-22252726Y22200735D01*
X-22252726Y22200735D01*
G37*
G36*
X-26791779Y22059826D02*
G01*
X-26691505Y22018291D01*
X-26671439Y22004883D01*
X-26601258Y21957990D01*
X-26524510Y21881242D01*
X-26494155Y21835812D01*
X-26464209Y21790995D01*
X-26422674Y21690721D01*
X-26401500Y21584270D01*
X-26401500Y21475730D01*
X-26422674Y21369279D01*
X-26464209Y21269005D01*
X-26464210Y21269004D01*
X-26524510Y21178758D01*
X-26601258Y21102010D01*
X-26625723Y21085663D01*
X-26691505Y21041709D01*
X-26791779Y21000174D01*
X-26898230Y20979000D01*
X-27006770Y20979000D01*
X-27113221Y21000174D01*
X-27213495Y21041709D01*
X-27279277Y21085663D01*
X-27303742Y21102010D01*
X-27380490Y21178758D01*
X-27440790Y21269004D01*
X-27440791Y21269005D01*
X-27482326Y21369279D01*
X-27503500Y21475730D01*
X-27503500Y21584270D01*
X-27482326Y21690721D01*
X-27440791Y21790995D01*
X-27410845Y21835812D01*
X-27380490Y21881242D01*
X-27303742Y21957990D01*
X-27233561Y22004883D01*
X-27213495Y22018291D01*
X-27113221Y22059826D01*
X-27006770Y22081000D01*
X-26898230Y22081000D01*
X-26791779Y22059826D01*
X-26791779Y22059826D01*
G37*
G36*
X-26226500Y22479000D02*
G01*
X-27678500Y22479000D01*
X-27678500Y25581000D01*
X-26226500Y25581000D01*
X-26226500Y22479000D01*
X-26226500Y22479000D01*
G37*
G36*
X-13551326Y24240315D02*
G01*
X-13513633Y24228881D01*
X-13478897Y24210314D01*
X-13448452Y24185328D01*
X-13423466Y24154883D01*
X-13404899Y24120147D01*
X-13393465Y24082454D01*
X-13389000Y24037119D01*
X-13389000Y22950441D01*
X-13393465Y22905106D01*
X-13404899Y22867413D01*
X-13423466Y22832677D01*
X-13448452Y22802232D01*
X-13478897Y22777246D01*
X-13513633Y22758679D01*
X-13551326Y22747245D01*
X-13596661Y22742780D01*
X-14433339Y22742780D01*
X-14478674Y22747245D01*
X-14516367Y22758679D01*
X-14551103Y22777246D01*
X-14581548Y22802232D01*
X-14606534Y22832677D01*
X-14625101Y22867413D01*
X-14636535Y22905106D01*
X-14641000Y22950441D01*
X-14641000Y24037119D01*
X-14636535Y24082454D01*
X-14625101Y24120147D01*
X-14606534Y24154883D01*
X-14581548Y24185328D01*
X-14551103Y24210314D01*
X-14516367Y24228881D01*
X-14478674Y24240315D01*
X-14433339Y24244780D01*
X-13596661Y24244780D01*
X-13551326Y24240315D01*
X-13551326Y24240315D01*
G37*
G36*
X-15601326Y24240315D02*
G01*
X-15563633Y24228881D01*
X-15528897Y24210314D01*
X-15498452Y24185328D01*
X-15473466Y24154883D01*
X-15454899Y24120147D01*
X-15443465Y24082454D01*
X-15439000Y24037119D01*
X-15439000Y22950441D01*
X-15443465Y22905106D01*
X-15454899Y22867413D01*
X-15473466Y22832677D01*
X-15498452Y22802232D01*
X-15528897Y22777246D01*
X-15563633Y22758679D01*
X-15601326Y22747245D01*
X-15646661Y22742780D01*
X-16483339Y22742780D01*
X-16528674Y22747245D01*
X-16566367Y22758679D01*
X-16601103Y22777246D01*
X-16631548Y22802232D01*
X-16656534Y22832677D01*
X-16675101Y22867413D01*
X-16686535Y22905106D01*
X-16691000Y22950441D01*
X-16691000Y24037119D01*
X-16686535Y24082454D01*
X-16675101Y24120147D01*
X-16656534Y24154883D01*
X-16631548Y24185328D01*
X-16601103Y24210314D01*
X-16566367Y24228881D01*
X-16528674Y24240315D01*
X-16483339Y24244780D01*
X-15646661Y24244780D01*
X-15601326Y24240315D01*
X-15601326Y24240315D01*
G37*
G36*
X-10049000Y22919000D02*
G01*
X-11451000Y22919000D01*
X-11451000Y26421000D01*
X-10049000Y26421000D01*
X-10049000Y22919000D01*
X-10049000Y22919000D01*
G37*
G36*
X-1349000Y22919000D02*
G01*
X-2751000Y22919000D01*
X-2751000Y26421000D01*
X-1349000Y26421000D01*
X-1349000Y22919000D01*
X-1349000Y22919000D01*
G37*
G36*
X-18280640Y22920320D02*
G01*
X-19182640Y22920320D01*
X-19182640Y23922320D01*
X-18280640Y23922320D01*
X-18280640Y22920320D01*
X-18280640Y22920320D01*
G37*
G36*
X-20180640Y22920320D02*
G01*
X-21082640Y22920320D01*
X-21082640Y23922320D01*
X-20180640Y23922320D01*
X-20180640Y22920320D01*
X-20180640Y22920320D01*
G37*
G36*
X-22252726Y24250735D02*
G01*
X-22215033Y24239301D01*
X-22180297Y24220734D01*
X-22149852Y24195748D01*
X-22124866Y24165303D01*
X-22106299Y24130567D01*
X-22094865Y24092874D01*
X-22090400Y24047539D01*
X-22090400Y23210861D01*
X-22094865Y23165526D01*
X-22106299Y23127833D01*
X-22124866Y23093097D01*
X-22149852Y23062652D01*
X-22180297Y23037666D01*
X-22215033Y23019099D01*
X-22252726Y23007665D01*
X-22298061Y23003200D01*
X-23384739Y23003200D01*
X-23430074Y23007665D01*
X-23467767Y23019099D01*
X-23502503Y23037666D01*
X-23532948Y23062652D01*
X-23557934Y23093097D01*
X-23576501Y23127833D01*
X-23587935Y23165526D01*
X-23592400Y23210861D01*
X-23592400Y24047539D01*
X-23587935Y24092874D01*
X-23576501Y24130567D01*
X-23557934Y24165303D01*
X-23532948Y24195748D01*
X-23502503Y24220734D01*
X-23467767Y24239301D01*
X-23430074Y24250735D01*
X-23384739Y24255200D01*
X-22298061Y24255200D01*
X-22252726Y24250735D01*
X-22252726Y24250735D01*
G37*
G36*
X-20559000Y25069000D02*
G01*
X-22161000Y25069000D01*
X-22161000Y26171000D01*
X-20559000Y26171000D01*
X-20559000Y25069000D01*
X-20559000Y25069000D01*
G37*
G36*
X-17654224Y28293879D02*
G01*
X-17632916Y28281778D01*
X-17609657Y28274067D01*
X-17582139Y28271000D01*
X-17570765Y28271000D01*
X-17565985Y28255243D01*
X-17554434Y28233632D01*
X-17538889Y28214690D01*
X-17522586Y28200958D01*
X-16737000Y27646426D01*
X-16737000Y26593574D01*
X-17522586Y26039042D01*
X-17541123Y26023017D01*
X-17556178Y26003683D01*
X-17567172Y25981784D01*
X-17570695Y25969000D01*
X-17582139Y25969000D01*
X-17606525Y25966598D01*
X-17629974Y25959485D01*
X-17654224Y25946121D01*
X-17707449Y25908550D01*
X-17710066Y25913447D01*
X-17725611Y25932389D01*
X-17744553Y25947934D01*
X-17766164Y25959485D01*
X-17789613Y25966598D01*
X-17813999Y25969000D01*
X-19280201Y25969000D01*
X-19304587Y25966598D01*
X-19328036Y25959485D01*
X-19349647Y25947934D01*
X-19368589Y25932389D01*
X-19384134Y25913447D01*
X-19386525Y25908974D01*
X-19439996Y25946404D01*
X-19461351Y25958421D01*
X-19484640Y25966041D01*
X-19511678Y25969000D01*
X-19522644Y25969000D01*
X-19527015Y25983410D01*
X-19538566Y26005021D01*
X-19554111Y26023963D01*
X-19570817Y26037978D01*
X-20297140Y26546404D01*
X-20318495Y26558421D01*
X-20341784Y26566041D01*
X-20368822Y26569000D01*
X-22164500Y26569000D01*
X-22164500Y27671000D01*
X-20368822Y27671000D01*
X-20344436Y27673402D01*
X-20320987Y27680515D01*
X-20297140Y27693596D01*
X-19570817Y28202022D01*
X-19552216Y28217974D01*
X-19537085Y28237248D01*
X-19526005Y28259104D01*
X-19522676Y28271000D01*
X-19511678Y28271000D01*
X-19487292Y28273402D01*
X-19463843Y28280515D01*
X-19439996Y28293596D01*
X-19386525Y28331026D01*
X-19384134Y28326553D01*
X-19368589Y28307611D01*
X-19349647Y28292066D01*
X-19328036Y28280515D01*
X-19304587Y28273402D01*
X-19280201Y28271000D01*
X-17813999Y28271000D01*
X-17789613Y28273402D01*
X-17766164Y28280515D01*
X-17744553Y28292066D01*
X-17725611Y28307611D01*
X-17710066Y28326553D01*
X-17707449Y28331450D01*
X-17654224Y28293879D01*
X-17654224Y28293879D01*
G37*
G36*
X-26791779Y27059826D02*
G01*
X-26691505Y27018291D01*
X-26691504Y27018290D01*
X-26601258Y26957990D01*
X-26524510Y26881242D01*
X-26524509Y26881240D01*
X-26464209Y26790995D01*
X-26422674Y26690721D01*
X-26401500Y26584270D01*
X-26401500Y26475730D01*
X-26422674Y26369279D01*
X-26464209Y26269005D01*
X-26472457Y26256661D01*
X-26524510Y26178758D01*
X-26601258Y26102010D01*
X-26629011Y26083466D01*
X-26691505Y26041709D01*
X-26791779Y26000174D01*
X-26898230Y25979000D01*
X-27006770Y25979000D01*
X-27113221Y26000174D01*
X-27213495Y26041709D01*
X-27275989Y26083466D01*
X-27303742Y26102010D01*
X-27380490Y26178758D01*
X-27432543Y26256661D01*
X-27440791Y26269005D01*
X-27482326Y26369279D01*
X-27503500Y26475730D01*
X-27503500Y26584270D01*
X-27482326Y26690721D01*
X-27440791Y26790995D01*
X-27380491Y26881240D01*
X-27380490Y26881242D01*
X-27303742Y26957990D01*
X-27213496Y27018290D01*
X-27213495Y27018291D01*
X-27113221Y27059826D01*
X-27006770Y27081000D01*
X-26898230Y27081000D01*
X-26791779Y27059826D01*
X-26791779Y27059826D01*
G37*
G36*
X-23471326Y27296535D02*
G01*
X-23433633Y27285101D01*
X-23398897Y27266534D01*
X-23368452Y27241548D01*
X-23343466Y27211103D01*
X-23324899Y27176367D01*
X-23313465Y27138674D01*
X-23309000Y27093339D01*
X-23309000Y26256661D01*
X-23313465Y26211326D01*
X-23324899Y26173633D01*
X-23343466Y26138897D01*
X-23368452Y26108452D01*
X-23398897Y26083466D01*
X-23433633Y26064899D01*
X-23471326Y26053465D01*
X-23516661Y26049000D01*
X-24603339Y26049000D01*
X-24648674Y26053465D01*
X-24686367Y26064899D01*
X-24721103Y26083466D01*
X-24751548Y26108452D01*
X-24776534Y26138897D01*
X-24795101Y26173633D01*
X-24806535Y26211326D01*
X-24811000Y26256661D01*
X-24811000Y27093339D01*
X-24806535Y27138674D01*
X-24795101Y27176367D01*
X-24776534Y27211103D01*
X-24751548Y27241548D01*
X-24721103Y27266534D01*
X-24686367Y27285101D01*
X-24648674Y27296535D01*
X-24603339Y27301000D01*
X-23516661Y27301000D01*
X-23471326Y27296535D01*
X-23471326Y27296535D01*
G37*
G36*
X-28150808Y28175354D02*
G01*
X-28101586Y28160422D01*
X-28056222Y28136174D01*
X-28016458Y28103542D01*
X-27983826Y28063778D01*
X-27959578Y28018414D01*
X-27944646Y27969192D01*
X-27939000Y27911860D01*
X-27939000Y27148140D01*
X-27944646Y27090808D01*
X-27959578Y27041586D01*
X-27983826Y26996222D01*
X-28016458Y26956458D01*
X-28056222Y26923826D01*
X-28101586Y26899578D01*
X-28150808Y26884646D01*
X-28208140Y26879000D01*
X-29671860Y26879000D01*
X-29729192Y26884646D01*
X-29778414Y26899578D01*
X-29823778Y26923826D01*
X-29863542Y26956458D01*
X-29896174Y26996222D01*
X-29920422Y27041586D01*
X-29935354Y27090808D01*
X-29941000Y27148140D01*
X-29941000Y27911860D01*
X-29935354Y27969192D01*
X-29920422Y28018414D01*
X-29896174Y28063778D01*
X-29863542Y28103542D01*
X-29823778Y28136174D01*
X-29778414Y28160422D01*
X-29729192Y28175354D01*
X-29671860Y28181000D01*
X-28208140Y28181000D01*
X-28150808Y28175354D01*
X-28150808Y28175354D01*
G37*
G36*
X-20559000Y28069000D02*
G01*
X-22161000Y28069000D01*
X-22161000Y29171000D01*
X-20559000Y29171000D01*
X-20559000Y28069000D01*
X-20559000Y28069000D01*
G37*
G36*
X-23471326Y29346535D02*
G01*
X-23433633Y29335101D01*
X-23398897Y29316534D01*
X-23368452Y29291548D01*
X-23343466Y29261103D01*
X-23324899Y29226367D01*
X-23313465Y29188674D01*
X-23309000Y29143339D01*
X-23309000Y28306661D01*
X-23313465Y28261326D01*
X-23324899Y28223633D01*
X-23343466Y28188897D01*
X-23368452Y28158452D01*
X-23398897Y28133466D01*
X-23433633Y28114899D01*
X-23471326Y28103465D01*
X-23516661Y28099000D01*
X-24603339Y28099000D01*
X-24648674Y28103465D01*
X-24686367Y28114899D01*
X-24721103Y28133466D01*
X-24751548Y28158452D01*
X-24776534Y28188897D01*
X-24795101Y28223633D01*
X-24806535Y28261326D01*
X-24811000Y28306661D01*
X-24811000Y29143339D01*
X-24806535Y29188674D01*
X-24795101Y29226367D01*
X-24776534Y29261103D01*
X-24751548Y29291548D01*
X-24721103Y29316534D01*
X-24686367Y29335101D01*
X-24648674Y29346535D01*
X-24603339Y29351000D01*
X-23516661Y29351000D01*
X-23471326Y29346535D01*
X-23471326Y29346535D01*
G37*
M02*
