G04 #@! TF.GenerationSoftware,KiCad,Pcbnew,5.1.4*
G04 #@! TF.CreationDate,2019-09-26T21:19:46+02:00*
G04 #@! TF.ProjectId,kroneum,6b726f6e-6575-46d2-9e6b-696361645f70,rev?*
G04 #@! TF.SameCoordinates,PX9527980PY7539c40*
G04 #@! TF.FileFunction,Legend,Bot*
G04 #@! TF.FilePolarity,Positive*
%FSLAX46Y46*%
G04 Gerber Fmt 4.6, Leading zero omitted, Abs format (unit mm)*
G04 Created by KiCad (PCBNEW 5.1.4) date 2019-09-26 21:19:46*
%MOMM*%
%LPD*%
G04 APERTURE LIST*
%ADD10C,0.120000*%
%ADD11C,0.150000*%
%ADD12C,0.100000*%
%ADD13C,0.080000*%
G04 APERTURE END LIST*
D10*
G04 #@! TO.C,SCK*
X-4300000Y19120000D02*
X-4300000Y16720000D01*
X-1900000Y19120000D02*
X-4300000Y19120000D01*
X-1900000Y16720000D02*
X-1900000Y19120000D01*
X-4300000Y16720000D02*
X-1900000Y16720000D01*
G04 #@! TO.C,NSS*
X-4300000Y10120000D02*
X-4300000Y7720000D01*
X-1900000Y10120000D02*
X-4300000Y10120000D01*
X-1900000Y7720000D02*
X-1900000Y10120000D01*
X-4300000Y7720000D02*
X-1900000Y7720000D01*
G04 #@! TO.C,MOSI*
X-4300000Y13120000D02*
X-4300000Y10720000D01*
X-1900000Y13120000D02*
X-4300000Y13120000D01*
X-1900000Y10720000D02*
X-1900000Y13120000D01*
X-4300000Y10720000D02*
X-1900000Y10720000D01*
G04 #@! TO.C,MISO*
X-4300000Y16120000D02*
X-4300000Y13720000D01*
X-1900000Y16120000D02*
X-4300000Y16120000D01*
X-1900000Y13720000D02*
X-1900000Y16120000D01*
X-4300000Y13720000D02*
X-1900000Y13720000D01*
G04 #@! TO.C,ADC3*
X-4300000Y7120000D02*
X-4300000Y4720000D01*
X-1900000Y7120000D02*
X-4300000Y7120000D01*
X-1900000Y4720000D02*
X-1900000Y7120000D01*
X-4300000Y4720000D02*
X-1900000Y4720000D01*
G04 #@! TO.C,ADC1*
X-4300000Y4120000D02*
X-4300000Y1720000D01*
X-1900000Y4120000D02*
X-4300000Y4120000D01*
X-1900000Y1720000D02*
X-1900000Y4120000D01*
X-4300000Y1720000D02*
X-1900000Y1720000D01*
G04 #@! TO.C,VDD*
X-28100000Y4120000D02*
X-28100000Y1720000D01*
X-25700000Y4120000D02*
X-28100000Y4120000D01*
X-25700000Y1720000D02*
X-25700000Y4120000D01*
X-28100000Y1720000D02*
X-25700000Y1720000D01*
G04 #@! TO.C,GND*
X-28100000Y7120000D02*
X-28100000Y4720000D01*
X-25700000Y7120000D02*
X-28100000Y7120000D01*
X-25700000Y4720000D02*
X-25700000Y7120000D01*
X-28100000Y4720000D02*
X-25700000Y4720000D01*
G04 #@! TO.C,SWDIO*
X-25700000Y16120000D02*
X-28100000Y16120000D01*
X-28100000Y16120000D02*
X-28100000Y13720000D01*
X-28100000Y13720000D02*
X-25700000Y13720000D01*
X-25700000Y13720000D02*
X-25700000Y16120000D01*
G04 #@! TO.C,SWCLK*
X-25700000Y19120000D02*
X-28100000Y19120000D01*
X-28100000Y19120000D02*
X-28100000Y16720000D01*
X-28100000Y16720000D02*
X-25700000Y16720000D01*
X-25700000Y16720000D02*
X-25700000Y19120000D01*
G04 #@! TO.C,SCL*
X-25700000Y10120000D02*
X-28100000Y10120000D01*
X-28100000Y10120000D02*
X-28100000Y7720000D01*
X-28100000Y7720000D02*
X-25700000Y7720000D01*
X-25700000Y7720000D02*
X-25700000Y10120000D01*
G04 #@! TO.C,SDA*
X-25700000Y13120000D02*
X-28100000Y13120000D01*
X-28100000Y13120000D02*
X-28100000Y10720000D01*
X-28100000Y10720000D02*
X-25700000Y10720000D01*
X-25700000Y10720000D02*
X-25700000Y13120000D01*
D11*
G04 #@! TO.C,BT1*
X-22750000Y5800000D02*
X-18500000Y5800000D01*
X-7250000Y5800000D02*
X-11500000Y5800000D01*
X-7250000Y26900000D02*
X-11500000Y26900000D01*
X-22750000Y26900000D02*
X-18500000Y26900000D01*
X-7250000Y5800000D02*
X-7250000Y10850000D01*
X-7250000Y26900000D02*
X-7250000Y21850000D01*
X-22750000Y5800000D02*
X-22750000Y10850000D01*
X-22750000Y26900000D02*
X-22750000Y21850000D01*
D12*
X-4875000Y16350000D02*
G75*
G03X-4875000Y16350000I-250000J0D01*
G01*
G04 #@! TD*
G04 #@! TO.C,SCK*
D13*
X-897620Y18562858D02*
X-873810Y18491429D01*
X-873810Y18372381D01*
X-897620Y18324762D01*
X-921429Y18300953D01*
X-969048Y18277143D01*
X-1016667Y18277143D01*
X-1064286Y18300953D01*
X-1088096Y18324762D01*
X-1111905Y18372381D01*
X-1135715Y18467620D01*
X-1159524Y18515239D01*
X-1183334Y18539048D01*
X-1230953Y18562858D01*
X-1278572Y18562858D01*
X-1326191Y18539048D01*
X-1350000Y18515239D01*
X-1373810Y18467620D01*
X-1373810Y18348572D01*
X-1350000Y18277143D01*
X-921429Y17777143D02*
X-897620Y17800953D01*
X-873810Y17872381D01*
X-873810Y17920000D01*
X-897620Y17991429D01*
X-945239Y18039048D01*
X-992858Y18062858D01*
X-1088096Y18086667D01*
X-1159524Y18086667D01*
X-1254762Y18062858D01*
X-1302381Y18039048D01*
X-1350000Y17991429D01*
X-1373810Y17920000D01*
X-1373810Y17872381D01*
X-1350000Y17800953D01*
X-1326191Y17777143D01*
X-873810Y17562858D02*
X-1373810Y17562858D01*
X-873810Y17277143D02*
X-1159524Y17491429D01*
X-1373810Y17277143D02*
X-1088096Y17562858D01*
G04 #@! TO.C,NSS*
X-873810Y9539048D02*
X-1373810Y9539048D01*
X-873810Y9253334D01*
X-1373810Y9253334D01*
X-897620Y9039048D02*
X-873810Y8967620D01*
X-873810Y8848572D01*
X-897620Y8800953D01*
X-921429Y8777143D01*
X-969048Y8753334D01*
X-1016667Y8753334D01*
X-1064286Y8777143D01*
X-1088096Y8800953D01*
X-1111905Y8848572D01*
X-1135715Y8943810D01*
X-1159524Y8991429D01*
X-1183334Y9015239D01*
X-1230953Y9039048D01*
X-1278572Y9039048D01*
X-1326191Y9015239D01*
X-1350000Y8991429D01*
X-1373810Y8943810D01*
X-1373810Y8824762D01*
X-1350000Y8753334D01*
X-897620Y8562858D02*
X-873810Y8491429D01*
X-873810Y8372381D01*
X-897620Y8324762D01*
X-921429Y8300953D01*
X-969048Y8277143D01*
X-1016667Y8277143D01*
X-1064286Y8300953D01*
X-1088096Y8324762D01*
X-1111905Y8372381D01*
X-1135715Y8467620D01*
X-1159524Y8515239D01*
X-1183334Y8539048D01*
X-1230953Y8562858D01*
X-1278572Y8562858D01*
X-1326191Y8539048D01*
X-1350000Y8515239D01*
X-1373810Y8467620D01*
X-1373810Y8348572D01*
X-1350000Y8277143D01*
G04 #@! TO.C,MOSI*
X-873810Y12705715D02*
X-1373810Y12705715D01*
X-1016667Y12539048D01*
X-1373810Y12372381D01*
X-873810Y12372381D01*
X-1373810Y12039048D02*
X-1373810Y11943810D01*
X-1350000Y11896191D01*
X-1302381Y11848572D01*
X-1207143Y11824762D01*
X-1040477Y11824762D01*
X-945239Y11848572D01*
X-897620Y11896191D01*
X-873810Y11943810D01*
X-873810Y12039048D01*
X-897620Y12086667D01*
X-945239Y12134286D01*
X-1040477Y12158096D01*
X-1207143Y12158096D01*
X-1302381Y12134286D01*
X-1350000Y12086667D01*
X-1373810Y12039048D01*
X-897620Y11634286D02*
X-873810Y11562858D01*
X-873810Y11443810D01*
X-897620Y11396191D01*
X-921429Y11372381D01*
X-969048Y11348572D01*
X-1016667Y11348572D01*
X-1064286Y11372381D01*
X-1088096Y11396191D01*
X-1111905Y11443810D01*
X-1135715Y11539048D01*
X-1159524Y11586667D01*
X-1183334Y11610477D01*
X-1230953Y11634286D01*
X-1278572Y11634286D01*
X-1326191Y11610477D01*
X-1350000Y11586667D01*
X-1373810Y11539048D01*
X-1373810Y11420000D01*
X-1350000Y11348572D01*
X-873810Y11134286D02*
X-1373810Y11134286D01*
G04 #@! TO.C,MISO*
X-873810Y15705715D02*
X-1373810Y15705715D01*
X-1016667Y15539048D01*
X-1373810Y15372381D01*
X-873810Y15372381D01*
X-873810Y15134286D02*
X-1373810Y15134286D01*
X-897620Y14920000D02*
X-873810Y14848572D01*
X-873810Y14729524D01*
X-897620Y14681905D01*
X-921429Y14658096D01*
X-969048Y14634286D01*
X-1016667Y14634286D01*
X-1064286Y14658096D01*
X-1088096Y14681905D01*
X-1111905Y14729524D01*
X-1135715Y14824762D01*
X-1159524Y14872381D01*
X-1183334Y14896191D01*
X-1230953Y14920000D01*
X-1278572Y14920000D01*
X-1326191Y14896191D01*
X-1350000Y14872381D01*
X-1373810Y14824762D01*
X-1373810Y14705715D01*
X-1350000Y14634286D01*
X-1373810Y14324762D02*
X-1373810Y14229524D01*
X-1350000Y14181905D01*
X-1302381Y14134286D01*
X-1207143Y14110477D01*
X-1040477Y14110477D01*
X-945239Y14134286D01*
X-897620Y14181905D01*
X-873810Y14229524D01*
X-873810Y14324762D01*
X-897620Y14372381D01*
X-945239Y14420000D01*
X-1040477Y14443810D01*
X-1207143Y14443810D01*
X-1302381Y14420000D01*
X-1350000Y14372381D01*
X-1373810Y14324762D01*
G04 #@! TO.C,ADC3*
X-1016667Y6777143D02*
X-1016667Y6539048D01*
X-873810Y6824762D02*
X-1373810Y6658096D01*
X-873810Y6491429D01*
X-873810Y6324762D02*
X-1373810Y6324762D01*
X-1373810Y6205715D01*
X-1350000Y6134286D01*
X-1302381Y6086667D01*
X-1254762Y6062858D01*
X-1159524Y6039048D01*
X-1088096Y6039048D01*
X-992858Y6062858D01*
X-945239Y6086667D01*
X-897620Y6134286D01*
X-873810Y6205715D01*
X-873810Y6324762D01*
X-921429Y5539048D02*
X-897620Y5562858D01*
X-873810Y5634286D01*
X-873810Y5681905D01*
X-897620Y5753334D01*
X-945239Y5800953D01*
X-992858Y5824762D01*
X-1088096Y5848572D01*
X-1159524Y5848572D01*
X-1254762Y5824762D01*
X-1302381Y5800953D01*
X-1350000Y5753334D01*
X-1373810Y5681905D01*
X-1373810Y5634286D01*
X-1350000Y5562858D01*
X-1326191Y5539048D01*
X-1373810Y5372381D02*
X-1373810Y5062858D01*
X-1183334Y5229524D01*
X-1183334Y5158096D01*
X-1159524Y5110477D01*
X-1135715Y5086667D01*
X-1088096Y5062858D01*
X-969048Y5062858D01*
X-921429Y5086667D01*
X-897620Y5110477D01*
X-873810Y5158096D01*
X-873810Y5300953D01*
X-897620Y5348572D01*
X-921429Y5372381D01*
G04 #@! TO.C,ADC1*
X-1016667Y3777143D02*
X-1016667Y3539048D01*
X-873810Y3824762D02*
X-1373810Y3658096D01*
X-873810Y3491429D01*
X-873810Y3324762D02*
X-1373810Y3324762D01*
X-1373810Y3205715D01*
X-1350000Y3134286D01*
X-1302381Y3086667D01*
X-1254762Y3062858D01*
X-1159524Y3039048D01*
X-1088096Y3039048D01*
X-992858Y3062858D01*
X-945239Y3086667D01*
X-897620Y3134286D01*
X-873810Y3205715D01*
X-873810Y3324762D01*
X-921429Y2539048D02*
X-897620Y2562858D01*
X-873810Y2634286D01*
X-873810Y2681905D01*
X-897620Y2753334D01*
X-945239Y2800953D01*
X-992858Y2824762D01*
X-1088096Y2848572D01*
X-1159524Y2848572D01*
X-1254762Y2824762D01*
X-1302381Y2800953D01*
X-1350000Y2753334D01*
X-1373810Y2681905D01*
X-1373810Y2634286D01*
X-1350000Y2562858D01*
X-1326191Y2539048D01*
X-873810Y2062858D02*
X-873810Y2348572D01*
X-873810Y2205715D02*
X-1373810Y2205715D01*
X-1302381Y2253334D01*
X-1254762Y2300953D01*
X-1230953Y2348572D01*
G04 #@! TO.C,VDD*
X-29173810Y3586667D02*
X-28673810Y3420000D01*
X-29173810Y3253334D01*
X-28673810Y3086667D02*
X-29173810Y3086667D01*
X-29173810Y2967620D01*
X-29150000Y2896191D01*
X-29102381Y2848572D01*
X-29054762Y2824762D01*
X-28959524Y2800953D01*
X-28888096Y2800953D01*
X-28792858Y2824762D01*
X-28745239Y2848572D01*
X-28697620Y2896191D01*
X-28673810Y2967620D01*
X-28673810Y3086667D01*
X-28673810Y2586667D02*
X-29173810Y2586667D01*
X-29173810Y2467620D01*
X-29150000Y2396191D01*
X-29102381Y2348572D01*
X-29054762Y2324762D01*
X-28959524Y2300953D01*
X-28888096Y2300953D01*
X-28792858Y2324762D01*
X-28745239Y2348572D01*
X-28697620Y2396191D01*
X-28673810Y2467620D01*
X-28673810Y2586667D01*
G04 #@! TO.C,GND*
X-29150000Y6300953D02*
X-29173810Y6348572D01*
X-29173810Y6420000D01*
X-29150000Y6491429D01*
X-29102381Y6539048D01*
X-29054762Y6562858D01*
X-28959524Y6586667D01*
X-28888096Y6586667D01*
X-28792858Y6562858D01*
X-28745239Y6539048D01*
X-28697620Y6491429D01*
X-28673810Y6420000D01*
X-28673810Y6372381D01*
X-28697620Y6300953D01*
X-28721429Y6277143D01*
X-28888096Y6277143D01*
X-28888096Y6372381D01*
X-28673810Y6062858D02*
X-29173810Y6062858D01*
X-28673810Y5777143D01*
X-29173810Y5777143D01*
X-28673810Y5539048D02*
X-29173810Y5539048D01*
X-29173810Y5420000D01*
X-29150000Y5348572D01*
X-29102381Y5300953D01*
X-29054762Y5277143D01*
X-28959524Y5253334D01*
X-28888096Y5253334D01*
X-28792858Y5277143D01*
X-28745239Y5300953D01*
X-28697620Y5348572D01*
X-28673810Y5420000D01*
X-28673810Y5539048D01*
G04 #@! TO.C,SWDIO*
X-28697620Y15979524D02*
X-28673810Y15908096D01*
X-28673810Y15789048D01*
X-28697620Y15741429D01*
X-28721429Y15717620D01*
X-28769048Y15693810D01*
X-28816667Y15693810D01*
X-28864286Y15717620D01*
X-28888096Y15741429D01*
X-28911905Y15789048D01*
X-28935715Y15884286D01*
X-28959524Y15931905D01*
X-28983334Y15955715D01*
X-29030953Y15979524D01*
X-29078572Y15979524D01*
X-29126191Y15955715D01*
X-29150000Y15931905D01*
X-29173810Y15884286D01*
X-29173810Y15765239D01*
X-29150000Y15693810D01*
X-29173810Y15527143D02*
X-28673810Y15408096D01*
X-29030953Y15312858D01*
X-28673810Y15217620D01*
X-29173810Y15098572D01*
X-28673810Y14908096D02*
X-29173810Y14908096D01*
X-29173810Y14789048D01*
X-29150000Y14717620D01*
X-29102381Y14670000D01*
X-29054762Y14646191D01*
X-28959524Y14622381D01*
X-28888096Y14622381D01*
X-28792858Y14646191D01*
X-28745239Y14670000D01*
X-28697620Y14717620D01*
X-28673810Y14789048D01*
X-28673810Y14908096D01*
X-28673810Y14408096D02*
X-29173810Y14408096D01*
X-29173810Y14074762D02*
X-29173810Y13979524D01*
X-29150000Y13931905D01*
X-29102381Y13884286D01*
X-29007143Y13860477D01*
X-28840477Y13860477D01*
X-28745239Y13884286D01*
X-28697620Y13931905D01*
X-28673810Y13979524D01*
X-28673810Y14074762D01*
X-28697620Y14122381D01*
X-28745239Y14170000D01*
X-28840477Y14193810D01*
X-29007143Y14193810D01*
X-29102381Y14170000D01*
X-29150000Y14122381D01*
X-29173810Y14074762D01*
G04 #@! TO.C,SWCLK*
X-28697620Y19050953D02*
X-28673810Y18979524D01*
X-28673810Y18860477D01*
X-28697620Y18812858D01*
X-28721429Y18789048D01*
X-28769048Y18765239D01*
X-28816667Y18765239D01*
X-28864286Y18789048D01*
X-28888096Y18812858D01*
X-28911905Y18860477D01*
X-28935715Y18955715D01*
X-28959524Y19003334D01*
X-28983334Y19027143D01*
X-29030953Y19050953D01*
X-29078572Y19050953D01*
X-29126191Y19027143D01*
X-29150000Y19003334D01*
X-29173810Y18955715D01*
X-29173810Y18836667D01*
X-29150000Y18765239D01*
X-29173810Y18598572D02*
X-28673810Y18479524D01*
X-29030953Y18384286D01*
X-28673810Y18289048D01*
X-29173810Y18170000D01*
X-28721429Y17693810D02*
X-28697620Y17717620D01*
X-28673810Y17789048D01*
X-28673810Y17836667D01*
X-28697620Y17908096D01*
X-28745239Y17955715D01*
X-28792858Y17979524D01*
X-28888096Y18003334D01*
X-28959524Y18003334D01*
X-29054762Y17979524D01*
X-29102381Y17955715D01*
X-29150000Y17908096D01*
X-29173810Y17836667D01*
X-29173810Y17789048D01*
X-29150000Y17717620D01*
X-29126191Y17693810D01*
X-28673810Y17241429D02*
X-28673810Y17479524D01*
X-29173810Y17479524D01*
X-28673810Y17074762D02*
X-29173810Y17074762D01*
X-28673810Y16789048D02*
X-28959524Y17003334D01*
X-29173810Y16789048D02*
X-28888096Y17074762D01*
G04 #@! TO.C,SCL*
X-28697620Y9515239D02*
X-28673810Y9443810D01*
X-28673810Y9324762D01*
X-28697620Y9277143D01*
X-28721429Y9253334D01*
X-28769048Y9229524D01*
X-28816667Y9229524D01*
X-28864286Y9253334D01*
X-28888096Y9277143D01*
X-28911905Y9324762D01*
X-28935715Y9420000D01*
X-28959524Y9467620D01*
X-28983334Y9491429D01*
X-29030953Y9515239D01*
X-29078572Y9515239D01*
X-29126191Y9491429D01*
X-29150000Y9467620D01*
X-29173810Y9420000D01*
X-29173810Y9300953D01*
X-29150000Y9229524D01*
X-28721429Y8729524D02*
X-28697620Y8753334D01*
X-28673810Y8824762D01*
X-28673810Y8872381D01*
X-28697620Y8943810D01*
X-28745239Y8991429D01*
X-28792858Y9015239D01*
X-28888096Y9039048D01*
X-28959524Y9039048D01*
X-29054762Y9015239D01*
X-29102381Y8991429D01*
X-29150000Y8943810D01*
X-29173810Y8872381D01*
X-29173810Y8824762D01*
X-29150000Y8753334D01*
X-29126191Y8729524D01*
X-28673810Y8277143D02*
X-28673810Y8515239D01*
X-29173810Y8515239D01*
G04 #@! TO.C,SDA*
X-28697620Y12527143D02*
X-28673810Y12455715D01*
X-28673810Y12336667D01*
X-28697620Y12289048D01*
X-28721429Y12265239D01*
X-28769048Y12241429D01*
X-28816667Y12241429D01*
X-28864286Y12265239D01*
X-28888096Y12289048D01*
X-28911905Y12336667D01*
X-28935715Y12431905D01*
X-28959524Y12479524D01*
X-28983334Y12503334D01*
X-29030953Y12527143D01*
X-29078572Y12527143D01*
X-29126191Y12503334D01*
X-29150000Y12479524D01*
X-29173810Y12431905D01*
X-29173810Y12312858D01*
X-29150000Y12241429D01*
X-28673810Y12027143D02*
X-29173810Y12027143D01*
X-29173810Y11908096D01*
X-29150000Y11836667D01*
X-29102381Y11789048D01*
X-29054762Y11765239D01*
X-28959524Y11741429D01*
X-28888096Y11741429D01*
X-28792858Y11765239D01*
X-28745239Y11789048D01*
X-28697620Y11836667D01*
X-28673810Y11908096D01*
X-28673810Y12027143D01*
X-28816667Y11550953D02*
X-28816667Y11312858D01*
X-28673810Y11598572D02*
X-29173810Y11431905D01*
X-28673810Y11265239D01*
G04 #@! TO.C,BT1*
X-9146243Y7998673D02*
X-9108748Y7886187D01*
X-9071253Y7848692D01*
X-8996262Y7811197D01*
X-8883776Y7811197D01*
X-8808785Y7848692D01*
X-8771290Y7886187D01*
X-8733795Y7961178D01*
X-8733795Y8261141D01*
X-9521197Y8261141D01*
X-9521197Y7998673D01*
X-9483701Y7923683D01*
X-9446206Y7886187D01*
X-9371215Y7848692D01*
X-9296225Y7848692D01*
X-9221234Y7886187D01*
X-9183739Y7923683D01*
X-9146243Y7998673D01*
X-9146243Y8261141D01*
X-9521197Y7586225D02*
X-9521197Y7136281D01*
X-8733795Y7361253D02*
X-9521197Y7361253D01*
X-8733795Y6461365D02*
X-8733795Y6911309D01*
X-8733795Y6686337D02*
X-9521197Y6686337D01*
X-9408711Y6761327D01*
X-9333720Y6836318D01*
X-9296225Y6911309D01*
X-13176715Y25197229D02*
X-13305286Y25149610D01*
X-13348143Y25101991D01*
X-13391000Y25006753D01*
X-13391000Y24863896D01*
X-13348143Y24768658D01*
X-13305286Y24721039D01*
X-13219572Y24673420D01*
X-12876715Y24673420D01*
X-12876715Y25673420D01*
X-13176715Y25673420D01*
X-13262429Y25625800D01*
X-13305286Y25578181D01*
X-13348143Y25482943D01*
X-13348143Y25387705D01*
X-13305286Y25292467D01*
X-13262429Y25244848D01*
X-13176715Y25197229D01*
X-12876715Y25197229D01*
X-14162429Y24673420D02*
X-14162429Y25197229D01*
X-14119572Y25292467D01*
X-14033858Y25340086D01*
X-13862429Y25340086D01*
X-13776715Y25292467D01*
X-14162429Y24721039D02*
X-14076715Y24673420D01*
X-13862429Y24673420D01*
X-13776715Y24721039D01*
X-13733858Y24816277D01*
X-13733858Y24911515D01*
X-13776715Y25006753D01*
X-13862429Y25054372D01*
X-14076715Y25054372D01*
X-14162429Y25101991D01*
X-14462429Y25340086D02*
X-14805286Y25340086D01*
X-14591000Y25673420D02*
X-14591000Y24816277D01*
X-14633858Y24721039D01*
X-14719572Y24673420D01*
X-14805286Y24673420D01*
X-14976715Y25340086D02*
X-15319572Y25340086D01*
X-15105286Y25673420D02*
X-15105286Y24816277D01*
X-15148143Y24721039D01*
X-15233858Y24673420D01*
X-15319572Y24673420D01*
X-15962429Y24721039D02*
X-15876715Y24673420D01*
X-15705286Y24673420D01*
X-15619572Y24721039D01*
X-15576715Y24816277D01*
X-15576715Y25197229D01*
X-15619572Y25292467D01*
X-15705286Y25340086D01*
X-15876715Y25340086D01*
X-15962429Y25292467D01*
X-16005286Y25197229D01*
X-16005286Y25101991D01*
X-15576715Y25006753D01*
X-16391000Y24673420D02*
X-16391000Y25340086D01*
X-16391000Y25149610D02*
X-16433858Y25244848D01*
X-16476715Y25292467D01*
X-16562429Y25340086D01*
X-16648143Y25340086D01*
X-16862429Y25340086D02*
X-17076715Y24673420D01*
X-17291000Y25340086D02*
X-17076715Y24673420D01*
X-16991000Y24435324D01*
X-16948143Y24387705D01*
X-16862429Y24340086D01*
G04 #@! TD*
M02*
