<?xml version="1.0" standalone="no"?>
 <!DOCTYPE svg PUBLIC "-//W3C//DTD SVG 1.1//EN" 
 "http://www.w3.org/Graphics/SVG/1.1/DTD/svg11.dtd"> 
<svg xmlns="http://www.w3.org/2000/svg" version="1.1" 
    width="29.7002cm" height="21.0007cm" viewBox="0 0 116930 82680 ">
<title>SVG Picture created as kroneum-F.Cu.svg date 2019/02/24 23:38:20 </title>
  <desc>Picture generated by PCBNEW </desc>
<g style="fill:#000000; fill-opacity:1;stroke:#000000; stroke-opacity:1;
stroke-linecap:round; stroke-linejoin:round; "
 transform="translate(0 0) scale(1 1)">
</g>
<g style="fill:#000000; fill-opacity:0.0; 
stroke:#000000; stroke-width:-0.000393701; stroke-opacity:1; 
stroke-linecap:round; stroke-linejoin:round;">
</g>
<g style="fill:#000000; fill-opacity:0.0; 
stroke:#000000; stroke-width:39.3701; stroke-opacity:1; 
stroke-linecap:round; stroke-linejoin:round;">
</g>
<g style="fill:#000000; fill-opacity:0.0; 
stroke:#000000; stroke-width:59.0551; stroke-opacity:1; 
stroke-linecap:round; stroke-linejoin:round;">
<rect x="69685.9" y="65357.2" width="42519.7" height="12598.4" rx="0" />
</g>
<g style="fill:#000000; fill-opacity:0.0; 
stroke:#000000; stroke-width:39.3701; stroke-opacity:1; 
stroke-linecap:round; stroke-linejoin:round;">
</g>
<g style="fill:#000000; fill-opacity:0.0; 
stroke:#000000; stroke-width:59.0551; stroke-opacity:1; 
stroke-linecap:round; stroke-linejoin:round;">
<rect x="3937.01" y="3937.01" width="109056" height="74806" rx="0" />
</g>
<g style="fill:#000000; fill-opacity:0.0; 
stroke:#000000; stroke-width:39.3701; stroke-opacity:1; 
stroke-linecap:round; stroke-linejoin:round;">
</g>
<g style="fill:#000000; fill-opacity:0.0; 
stroke:#000000; stroke-width:59.0551; stroke-opacity:1; 
stroke-linecap:round; stroke-linejoin:round;">
<rect x="4724.41" y="4724.41" width="107481" height="73231.2" rx="0" />
</g>
<g style="fill:#000000; fill-opacity:0.0; 
stroke:#000000; stroke-width:39.3701; stroke-opacity:1; 
stroke-linecap:round; stroke-linejoin:round;">
</g>
<g style="fill:#000000; fill-opacity:0.0; 
stroke:#000000; stroke-width:59.0551; stroke-opacity:1; 
stroke-linecap:round; stroke-linejoin:round;">
<path d="M23622 4724
L23622 3937
" />
</g>
<g style="fill:#000000; fill-opacity:0.0; 
stroke:#000000; stroke-width:39.3701; stroke-opacity:1; 
stroke-linecap:round; stroke-linejoin:round;">
</g>
<g style="fill:#000000; fill-opacity:0.0; 
stroke:#000000; stroke-width:59.0551; stroke-opacity:1; 
stroke-linecap:round; stroke-linejoin:round;">
<path d="M43307 4724
L43307 3937
" />
</g>
<g style="fill:#000000; fill-opacity:0.0; 
stroke:#000000; stroke-width:39.3701; stroke-opacity:1; 
stroke-linecap:round; stroke-linejoin:round;">
</g>
<g style="fill:#000000; fill-opacity:0.0; 
stroke:#000000; stroke-width:59.0551; stroke-opacity:1; 
stroke-linecap:round; stroke-linejoin:round;">
<path d="M62992 4724
L62992 3937
" />
</g>
<g style="fill:#000000; fill-opacity:0.0; 
stroke:#000000; stroke-width:39.3701; stroke-opacity:1; 
stroke-linecap:round; stroke-linejoin:round;">
</g>
<g style="fill:#000000; fill-opacity:0.0; 
stroke:#000000; stroke-width:59.0551; stroke-opacity:1; 
stroke-linecap:round; stroke-linejoin:round;">
<path d="M82677 4724
L82677 3937
" />
</g>
<g style="fill:#000000; fill-opacity:0.0; 
stroke:#000000; stroke-width:39.3701; stroke-opacity:1; 
stroke-linecap:round; stroke-linejoin:round;">
</g>
<g style="fill:#000000; fill-opacity:0.0; 
stroke:#000000; stroke-width:59.0551; stroke-opacity:1; 
stroke-linecap:round; stroke-linejoin:round;">
<path d="M102362 4724
L102362 3937
" />
</g>
<g style="fill:#000000; fill-opacity:0.0; 
stroke:#000000; stroke-width:39.3701; stroke-opacity:1; 
stroke-linecap:round; stroke-linejoin:round;">
</g>
<g style="fill:#000000; fill-opacity:0.0; 
stroke:#000000; stroke-width:59.0551; stroke-opacity:1; 
stroke-linecap:round; stroke-linejoin:round;">
<path d="M14199 4562
L13906 4562
" />
<path d="M14052 4562
L14052 4050
L14004 4123
L13955 4172
L13906 4196
" />
</g>
<g style="fill:#000000; fill-opacity:0.0; 
stroke:#000000; stroke-width:39.3701; stroke-opacity:1; 
stroke-linecap:round; stroke-linejoin:round;">
</g>
<g style="fill:#000000; fill-opacity:0.0; 
stroke:#000000; stroke-width:59.0551; stroke-opacity:1; 
stroke-linecap:round; stroke-linejoin:round;">
<path d="M33591 4099
L33615 4074
L33664 4050
L33786 4050
L33835 4074
L33859 4099
L33884 4147
L33884 4196
L33859 4269
L33567 4562
L33884 4562
" />
</g>
<g style="fill:#000000; fill-opacity:0.0; 
stroke:#000000; stroke-width:39.3701; stroke-opacity:1; 
stroke-linecap:round; stroke-linejoin:round;">
</g>
<g style="fill:#000000; fill-opacity:0.0; 
stroke:#000000; stroke-width:59.0551; stroke-opacity:1; 
stroke-linecap:round; stroke-linejoin:round;">
<path d="M53252 4050
L53569 4050
L53398 4245
L53471 4245
L53520 4269
L53544 4294
L53569 4342
L53569 4464
L53544 4513
L53520 4537
L53471 4562
L53325 4562
L53276 4537
L53252 4513
" />
</g>
<g style="fill:#000000; fill-opacity:0.0; 
stroke:#000000; stroke-width:39.3701; stroke-opacity:1; 
stroke-linecap:round; stroke-linejoin:round;">
</g>
<g style="fill:#000000; fill-opacity:0.0; 
stroke:#000000; stroke-width:59.0551; stroke-opacity:1; 
stroke-linecap:round; stroke-linejoin:round;">
<path d="M73205 4221
L73205 4562
" />
<path d="M73083 4026
L72961 4391
L73278 4391
" />
</g>
<g style="fill:#000000; fill-opacity:0.0; 
stroke:#000000; stroke-width:39.3701; stroke-opacity:1; 
stroke-linecap:round; stroke-linejoin:round;">
</g>
<g style="fill:#000000; fill-opacity:0.0; 
stroke:#000000; stroke-width:59.0551; stroke-opacity:1; 
stroke-linecap:round; stroke-linejoin:round;">
<path d="M92914 4050
L92671 4050
L92646 4294
L92671 4269
L92719 4245
L92841 4245
L92890 4269
L92914 4294
L92939 4342
L92939 4464
L92914 4513
L92890 4537
L92841 4562
L92719 4562
L92671 4537
L92646 4513
" />
</g>
<g style="fill:#000000; fill-opacity:0.0; 
stroke:#000000; stroke-width:39.3701; stroke-opacity:1; 
stroke-linecap:round; stroke-linejoin:round;">
</g>
<g style="fill:#000000; fill-opacity:0.0; 
stroke:#000000; stroke-width:59.0551; stroke-opacity:1; 
stroke-linecap:round; stroke-linejoin:round;">
<path d="M112575 4050
L112477 4050
L112429 4074
L112404 4099
L112356 4172
L112331 4269
L112331 4464
L112356 4513
L112380 4537
L112429 4562
L112526 4562
L112575 4537
L112599 4513
L112624 4464
L112624 4342
L112599 4294
L112575 4269
L112526 4245
L112429 4245
L112380 4269
L112356 4294
L112331 4342
" />
</g>
<g style="fill:#000000; fill-opacity:0.0; 
stroke:#000000; stroke-width:39.3701; stroke-opacity:1; 
stroke-linecap:round; stroke-linejoin:round;">
</g>
<g style="fill:#000000; fill-opacity:0.0; 
stroke:#000000; stroke-width:59.0551; stroke-opacity:1; 
stroke-linecap:round; stroke-linejoin:round;">
<path d="M23622 77955
L23622 78742
" />
</g>
<g style="fill:#000000; fill-opacity:0.0; 
stroke:#000000; stroke-width:39.3701; stroke-opacity:1; 
stroke-linecap:round; stroke-linejoin:round;">
</g>
<g style="fill:#000000; fill-opacity:0.0; 
stroke:#000000; stroke-width:59.0551; stroke-opacity:1; 
stroke-linecap:round; stroke-linejoin:round;">
<path d="M43307 77955
L43307 78742
" />
</g>
<g style="fill:#000000; fill-opacity:0.0; 
stroke:#000000; stroke-width:39.3701; stroke-opacity:1; 
stroke-linecap:round; stroke-linejoin:round;">
</g>
<g style="fill:#000000; fill-opacity:0.0; 
stroke:#000000; stroke-width:59.0551; stroke-opacity:1; 
stroke-linecap:round; stroke-linejoin:round;">
<path d="M62992 77955
L62992 78742
" />
</g>
<g style="fill:#000000; fill-opacity:0.0; 
stroke:#000000; stroke-width:39.3701; stroke-opacity:1; 
stroke-linecap:round; stroke-linejoin:round;">
</g>
<g style="fill:#000000; fill-opacity:0.0; 
stroke:#000000; stroke-width:59.0551; stroke-opacity:1; 
stroke-linecap:round; stroke-linejoin:round;">
<path d="M82677 77955
L82677 78742
" />
</g>
<g style="fill:#000000; fill-opacity:0.0; 
stroke:#000000; stroke-width:39.3701; stroke-opacity:1; 
stroke-linecap:round; stroke-linejoin:round;">
</g>
<g style="fill:#000000; fill-opacity:0.0; 
stroke:#000000; stroke-width:59.0551; stroke-opacity:1; 
stroke-linecap:round; stroke-linejoin:round;">
<path d="M102362 77955
L102362 78742
" />
</g>
<g style="fill:#000000; fill-opacity:0.0; 
stroke:#000000; stroke-width:39.3701; stroke-opacity:1; 
stroke-linecap:round; stroke-linejoin:round;">
</g>
<g style="fill:#000000; fill-opacity:0.0; 
stroke:#000000; stroke-width:59.0551; stroke-opacity:1; 
stroke-linecap:round; stroke-linejoin:round;">
<path d="M14199 78580
L13906 78580
" />
<path d="M14052 78580
L14052 78069
L14004 78142
L13955 78190
L13906 78215
" />
</g>
<g style="fill:#000000; fill-opacity:0.0; 
stroke:#000000; stroke-width:39.3701; stroke-opacity:1; 
stroke-linecap:round; stroke-linejoin:round;">
</g>
<g style="fill:#000000; fill-opacity:0.0; 
stroke:#000000; stroke-width:59.0551; stroke-opacity:1; 
stroke-linecap:round; stroke-linejoin:round;">
<path d="M33591 78117
L33615 78093
L33664 78069
L33786 78069
L33835 78093
L33859 78117
L33884 78166
L33884 78215
L33859 78288
L33567 78580
L33884 78580
" />
</g>
<g style="fill:#000000; fill-opacity:0.0; 
stroke:#000000; stroke-width:39.3701; stroke-opacity:1; 
stroke-linecap:round; stroke-linejoin:round;">
</g>
<g style="fill:#000000; fill-opacity:0.0; 
stroke:#000000; stroke-width:59.0551; stroke-opacity:1; 
stroke-linecap:round; stroke-linejoin:round;">
<path d="M53252 78069
L53569 78069
L53398 78263
L53471 78263
L53520 78288
L53544 78312
L53569 78361
L53569 78483
L53544 78532
L53520 78556
L53471 78580
L53325 78580
L53276 78556
L53252 78532
" />
</g>
<g style="fill:#000000; fill-opacity:0.0; 
stroke:#000000; stroke-width:39.3701; stroke-opacity:1; 
stroke-linecap:round; stroke-linejoin:round;">
</g>
<g style="fill:#000000; fill-opacity:0.0; 
stroke:#000000; stroke-width:59.0551; stroke-opacity:1; 
stroke-linecap:round; stroke-linejoin:round;">
<path d="M73205 78239
L73205 78580
" />
<path d="M73083 78044
L72961 78410
L73278 78410
" />
</g>
<g style="fill:#000000; fill-opacity:0.0; 
stroke:#000000; stroke-width:39.3701; stroke-opacity:1; 
stroke-linecap:round; stroke-linejoin:round;">
</g>
<g style="fill:#000000; fill-opacity:0.0; 
stroke:#000000; stroke-width:59.0551; stroke-opacity:1; 
stroke-linecap:round; stroke-linejoin:round;">
<path d="M92914 78069
L92671 78069
L92646 78312
L92671 78288
L92719 78263
L92841 78263
L92890 78288
L92914 78312
L92939 78361
L92939 78483
L92914 78532
L92890 78556
L92841 78580
L92719 78580
L92671 78556
L92646 78532
" />
</g>
<g style="fill:#000000; fill-opacity:0.0; 
stroke:#000000; stroke-width:39.3701; stroke-opacity:1; 
stroke-linecap:round; stroke-linejoin:round;">
</g>
<g style="fill:#000000; fill-opacity:0.0; 
stroke:#000000; stroke-width:59.0551; stroke-opacity:1; 
stroke-linecap:round; stroke-linejoin:round;">
<path d="M112575 78069
L112477 78069
L112429 78093
L112404 78117
L112356 78190
L112331 78288
L112331 78483
L112356 78532
L112380 78556
L112429 78580
L112526 78580
L112575 78556
L112599 78532
L112624 78483
L112624 78361
L112599 78312
L112575 78288
L112526 78263
L112429 78263
L112380 78288
L112356 78312
L112331 78361
" />
</g>
<g style="fill:#000000; fill-opacity:0.0; 
stroke:#000000; stroke-width:39.3701; stroke-opacity:1; 
stroke-linecap:round; stroke-linejoin:round;">
</g>
<g style="fill:#000000; fill-opacity:0.0; 
stroke:#000000; stroke-width:59.0551; stroke-opacity:1; 
stroke-linecap:round; stroke-linejoin:round;">
<path d="M3937 23622
L4724 23622
" />
</g>
<g style="fill:#000000; fill-opacity:0.0; 
stroke:#000000; stroke-width:39.3701; stroke-opacity:1; 
stroke-linecap:round; stroke-linejoin:round;">
</g>
<g style="fill:#000000; fill-opacity:0.0; 
stroke:#000000; stroke-width:59.0551; stroke-opacity:1; 
stroke-linecap:round; stroke-linejoin:round;">
<path d="M3937 43307
L4724 43307
" />
</g>
<g style="fill:#000000; fill-opacity:0.0; 
stroke:#000000; stroke-width:39.3701; stroke-opacity:1; 
stroke-linecap:round; stroke-linejoin:round;">
</g>
<g style="fill:#000000; fill-opacity:0.0; 
stroke:#000000; stroke-width:59.0551; stroke-opacity:1; 
stroke-linecap:round; stroke-linejoin:round;">
<path d="M3937 62992
L4724 62992
" />
</g>
<g style="fill:#000000; fill-opacity:0.0; 
stroke:#000000; stroke-width:39.3701; stroke-opacity:1; 
stroke-linecap:round; stroke-linejoin:round;">
</g>
<g style="fill:#000000; fill-opacity:0.0; 
stroke:#000000; stroke-width:59.0551; stroke-opacity:1; 
stroke-linecap:round; stroke-linejoin:round;">
<path d="M4208 13864
L4452 13864
" />
<path d="M4160 14011
L4330 13499
L4501 14011
" />
</g>
<g style="fill:#000000; fill-opacity:0.0; 
stroke:#000000; stroke-width:39.3701; stroke-opacity:1; 
stroke-linecap:round; stroke-linejoin:round;">
</g>
<g style="fill:#000000; fill-opacity:0.0; 
stroke:#000000; stroke-width:59.0551; stroke-opacity:1; 
stroke-linecap:round; stroke-linejoin:round;">
<path d="M4367 33428
L4440 33452
L4464 33476
L4489 33525
L4489 33598
L4464 33647
L4440 33671
L4391 33696
L4196 33696
L4196 33184
L4367 33184
L4416 33208
L4440 33233
L4464 33281
L4464 33330
L4440 33379
L4416 33403
L4367 33428
L4196 33428
" />
</g>
<g style="fill:#000000; fill-opacity:0.0; 
stroke:#000000; stroke-width:39.3701; stroke-opacity:1; 
stroke-linecap:round; stroke-linejoin:round;">
</g>
<g style="fill:#000000; fill-opacity:0.0; 
stroke:#000000; stroke-width:59.0551; stroke-opacity:1; 
stroke-linecap:round; stroke-linejoin:round;">
<path d="M4489 53332
L4464 53356
L4391 53381
L4342 53381
L4269 53356
L4221 53308
L4196 53259
L4172 53161
L4172 53088
L4196 52991
L4221 52942
L4269 52893
L4342 52869
L4391 52869
L4464 52893
L4489 52918
" />
</g>
<g style="fill:#000000; fill-opacity:0.0; 
stroke:#000000; stroke-width:39.3701; stroke-opacity:1; 
stroke-linecap:round; stroke-linejoin:round;">
</g>
<g style="fill:#000000; fill-opacity:0.0; 
stroke:#000000; stroke-width:59.0551; stroke-opacity:1; 
stroke-linecap:round; stroke-linejoin:round;">
<path d="M4196 73066
L4196 72554
L4318 72554
L4391 72578
L4440 72627
L4464 72676
L4489 72773
L4489 72846
L4464 72944
L4440 72993
L4391 73041
L4318 73066
L4196 73066
" />
</g>
<g style="fill:#000000; fill-opacity:0.0; 
stroke:#000000; stroke-width:39.3701; stroke-opacity:1; 
stroke-linecap:round; stroke-linejoin:round;">
</g>
<g style="fill:#000000; fill-opacity:0.0; 
stroke:#000000; stroke-width:59.0551; stroke-opacity:1; 
stroke-linecap:round; stroke-linejoin:round;">
<path d="M112992 23622
L112205 23622
" />
</g>
<g style="fill:#000000; fill-opacity:0.0; 
stroke:#000000; stroke-width:39.3701; stroke-opacity:1; 
stroke-linecap:round; stroke-linejoin:round;">
</g>
<g style="fill:#000000; fill-opacity:0.0; 
stroke:#000000; stroke-width:59.0551; stroke-opacity:1; 
stroke-linecap:round; stroke-linejoin:round;">
<path d="M112992 43307
L112205 43307
" />
</g>
<g style="fill:#000000; fill-opacity:0.0; 
stroke:#000000; stroke-width:39.3701; stroke-opacity:1; 
stroke-linecap:round; stroke-linejoin:round;">
</g>
<g style="fill:#000000; fill-opacity:0.0; 
stroke:#000000; stroke-width:59.0551; stroke-opacity:1; 
stroke-linecap:round; stroke-linejoin:round;">
<path d="M112992 62992
L112205 62992
" />
</g>
<g style="fill:#000000; fill-opacity:0.0; 
stroke:#000000; stroke-width:39.3701; stroke-opacity:1; 
stroke-linecap:round; stroke-linejoin:round;">
</g>
<g style="fill:#000000; fill-opacity:0.0; 
stroke:#000000; stroke-width:59.0551; stroke-opacity:1; 
stroke-linecap:round; stroke-linejoin:round;">
<path d="M112477 13864
L112721 13864
" />
<path d="M112428 14011
L112599 13499
L112769 14011
" />
</g>
<g style="fill:#000000; fill-opacity:0.0; 
stroke:#000000; stroke-width:39.3701; stroke-opacity:1; 
stroke-linecap:round; stroke-linejoin:round;">
</g>
<g style="fill:#000000; fill-opacity:0.0; 
stroke:#000000; stroke-width:59.0551; stroke-opacity:1; 
stroke-linecap:round; stroke-linejoin:round;">
<path d="M112635 33428
L112708 33452
L112733 33476
L112757 33525
L112757 33598
L112733 33647
L112708 33671
L112660 33696
L112465 33696
L112465 33184
L112635 33184
L112684 33208
L112708 33233
L112733 33281
L112733 33330
L112708 33379
L112684 33403
L112635 33428
L112465 33428
" />
</g>
<g style="fill:#000000; fill-opacity:0.0; 
stroke:#000000; stroke-width:39.3701; stroke-opacity:1; 
stroke-linecap:round; stroke-linejoin:round;">
</g>
<g style="fill:#000000; fill-opacity:0.0; 
stroke:#000000; stroke-width:59.0551; stroke-opacity:1; 
stroke-linecap:round; stroke-linejoin:round;">
<path d="M112757 53332
L112733 53356
L112660 53381
L112611 53381
L112538 53356
L112489 53308
L112465 53259
L112440 53161
L112440 53088
L112465 52991
L112489 52942
L112538 52893
L112611 52869
L112660 52869
L112733 52893
L112757 52918
" />
</g>
<g style="fill:#000000; fill-opacity:0.0; 
stroke:#000000; stroke-width:39.3701; stroke-opacity:1; 
stroke-linecap:round; stroke-linejoin:round;">
</g>
<g style="fill:#000000; fill-opacity:0.0; 
stroke:#000000; stroke-width:59.0551; stroke-opacity:1; 
stroke-linecap:round; stroke-linejoin:round;">
<path d="M112465 73066
L112465 72554
L112587 72554
L112660 72578
L112708 72627
L112733 72676
L112757 72773
L112757 72846
L112733 72944
L112708 72993
L112660 73041
L112587 73066
L112465 73066
" />
</g>
<g style="fill:#000000; fill-opacity:0.0; 
stroke:#000000; stroke-width:39.3701; stroke-opacity:1; 
stroke-linecap:round; stroke-linejoin:round;">
</g>
<g style="fill:#000000; fill-opacity:0.0; 
stroke:#000000; stroke-width:59.0551; stroke-opacity:1; 
stroke-linecap:round; stroke-linejoin:round;">
<path d="M78911 76293
L78911 75703
L79051 75703
L79136 75731
L79192 75787
L79220 75843
L79248 75956
L79248 76040
L79220 76153
L79192 76209
L79136 76265
L79051 76293
L78911 76293
" />
<path d="M79754 76293
L79754 75984
L79726 75928
L79670 75899
L79557 75899
L79501 75928
" />
<path d="M79754 76265
L79698 76293
L79557 76293
L79501 76265
L79473 76209
L79473 76153
L79501 76096
L79557 76068
L79698 76068
L79754 76040
" />
<path d="M79951 75899
L80176 75899
" />
<path d="M80036 75703
L80036 76209
L80064 76265
L80120 76293
L80176 76293
" />
<path d="M80598 76265
L80542 76293
L80429 76293
L80373 76265
L80345 76209
L80345 75984
L80373 75928
L80429 75899
L80542 75899
L80598 75928
L80626 75984
L80626 76040
L80345 76096
" />
<path d="M80879 76237
L80907 76265
L80879 76293
L80851 76265
L80879 76237
L80879 76293
" />
<path d="M80879 75928
L80907 75956
L80879 75984
L80851 75956
L80879 75928
L80879 75984
" />
</g>
<g style="fill:#000000; fill-opacity:0.0; 
stroke:#000000; stroke-width:39.3701; stroke-opacity:1; 
stroke-linecap:round; stroke-linejoin:round;">
</g>
<g style="fill:#000000; fill-opacity:0.0; 
stroke:#000000; stroke-width:59.0551; stroke-opacity:1; 
stroke-linecap:round; stroke-linejoin:round;">
<path d="M69685 76577
L112205 76577
" />
</g>
<g style="fill:#000000; fill-opacity:0.0; 
stroke:#000000; stroke-width:39.3701; stroke-opacity:1; 
stroke-linecap:round; stroke-linejoin:round;">
</g>
<g style="fill:#000000; fill-opacity:0.0; 
stroke:#000000; stroke-width:59.0551; stroke-opacity:1; 
stroke-linecap:round; stroke-linejoin:round;">
<path d="M70249 77395
L70249 76805
" />
<path d="M70587 77395
L70334 77058
" />
<path d="M70587 76805
L70249 77142
" />
<path d="M70840 77395
L70840 77002
" />
<path d="M70840 76805
L70812 76833
L70840 76861
L70868 76833
L70840 76805
L70840 76861
" />
<path d="M71458 77339
L71430 77367
L71346 77395
L71290 77395
L71205 77367
L71149 77311
L71121 77255
L71093 77142
L71093 77058
L71121 76946
L71149 76889
L71205 76833
L71290 76805
L71346 76805
L71430 76833
L71458 76861
" />
<path d="M71965 77395
L71965 77086
L71937 77030
L71880 77002
L71768 77002
L71712 77030
" />
<path d="M71965 77367
L71908 77395
L71768 77395
L71712 77367
L71683 77311
L71683 77255
L71712 77199
L71768 77171
L71908 77171
L71965 77142
" />
<path d="M72499 77395
L72499 76805
" />
<path d="M72499 77367
L72443 77395
L72330 77395
L72274 77367
L72246 77339
L72218 77283
L72218 77114
L72246 77058
L72274 77030
L72330 77002
L72443 77002
L72499 77030
" />
<path d="M73230 77086
L73427 77086
" />
<path d="M73511 77395
L73230 77395
L73230 76805
L73511 76805
" />
<path d="M73764 77339
L73793 77367
L73764 77395
L73736 77367
L73764 77339
L73764 77395
" />
<path d="M74046 77395
L74046 76805
L74186 76805
L74271 76833
L74327 76889
L74355 76946
L74383 77058
L74383 77142
L74355 77255
L74327 77311
L74271 77367
L74186 77395
L74046 77395
" />
<path d="M74636 77339
L74664 77367
L74636 77395
L74608 77367
L74636 77339
L74636 77395
" />
<path d="M74889 77227
L75171 77227
" />
<path d="M74833 77395
L75030 76805
L75227 77395
" />
<path d="M75424 77339
L75452 77367
L75424 77395
L75395 77367
L75424 77339
L75424 77395
" />
<path d="M76605 77395
L76605 76805
" />
<path d="M76661 77171
L76830 77395
" />
<path d="M76830 77002
L76605 77227
" />
<path d="M77083 77395
L77083 77002
" />
<path d="M77083 76805
L77055 76833
L77083 76861
L77111 76833
L77083 76805
L77083 76861
" />
<path d="M77617 77367
L77561 77395
L77448 77395
L77392 77367
L77364 77339
L77336 77283
L77336 77114
L77364 77058
L77392 77030
L77448 77002
L77561 77002
L77617 77030
" />
<path d="M78123 77395
L78123 77086
L78095 77030
L78039 77002
L77926 77002
L77870 77030
" />
<path d="M78123 77367
L78067 77395
L77926 77395
L77870 77367
L77842 77311
L77842 77255
L77870 77199
L77926 77171
L78067 77171
L78123 77142
" />
<path d="M78658 77395
L78658 76805
" />
<path d="M78658 77367
L78601 77395
L78489 77395
L78433 77367
L78404 77339
L78376 77283
L78376 77114
L78404 77058
L78433 77030
L78489 77002
L78601 77002
L78658 77030
" />
<path d="M79670 76805
L79389 76805
L79361 77086
L79389 77058
L79445 77030
L79586 77030
L79642 77058
L79670 77086
L79698 77142
L79698 77283
L79670 77339
L79642 77367
L79586 77395
L79445 77395
L79389 77367
L79361 77339
" />
<path d="M79951 77339
L79979 77367
L79951 77395
L79923 77367
L79951 77339
L79951 77395
" />
<path d="M80345 76805
L80401 76805
L80457 76833
L80485 76861
L80514 76917
L80542 77030
L80542 77171
L80514 77283
L80485 77339
L80457 77367
L80401 77395
L80345 77395
L80289 77367
L80260 77339
L80232 77283
L80204 77171
L80204 77030
L80232 76917
L80260 76861
L80289 76833
L80345 76805
" />
<path d="M80795 77339
L80823 77367
L80795 77395
L80767 77367
L80795 77339
L80795 77395
" />
<path d="M81385 77395
L81048 77395
" />
<path d="M81217 77395
L81217 76805
L81160 76889
L81104 76946
L81048 76974
" />
</g>
<g style="fill:#000000; fill-opacity:0.0; 
stroke:#000000; stroke-width:39.3701; stroke-opacity:1; 
stroke-linecap:round; stroke-linejoin:round;">
</g>
<g style="fill:#000000; fill-opacity:0.0; 
stroke:#000000; stroke-width:59.0551; stroke-opacity:1; 
stroke-linecap:round; stroke-linejoin:round;">
<path d="M69685 75396
L112205 75396
" />
</g>
<g style="fill:#000000; fill-opacity:0.0; 
stroke:#000000; stroke-width:39.3701; stroke-opacity:1; 
stroke-linecap:round; stroke-linejoin:round;">
</g>
<g style="fill:#000000; fill-opacity:0.0; 
stroke:#000000; stroke-width:118.11; stroke-opacity:1; 
stroke-linecap:round; stroke-linejoin:round;">
<path d="M104099 76293
L103902 76012
" />
<path d="M103761 76293
L103761 75703
L103986 75703
L104042 75731
L104070 75759
L104099 75815
L104099 75899
L104070 75956
L104042 75984
L103986 76012
L103761 76012
" />
<path d="M104577 76265
L104520 76293
L104408 76293
L104352 76265
L104323 76209
L104323 75984
L104352 75928
L104408 75899
L104520 75899
L104577 75928
L104605 75984
L104605 76040
L104323 76096
" />
<path d="M104802 75899
L104942 76293
L105083 75899
" />
<path d="M105308 76237
L105336 76265
L105308 76293
L105280 76265
L105308 76237
L105308 76293
" />
<path d="M105308 75928
L105336 75956
L105308 75984
L105280 75956
L105308 75928
L105308 75984
" />
</g>
<g style="fill:#000000; fill-opacity:0.0; 
stroke:#000000; stroke-width:39.3701; stroke-opacity:1; 
stroke-linecap:round; stroke-linejoin:round;">
</g>
<g style="fill:#000000; fill-opacity:0.0; 
stroke:#000000; stroke-width:59.0551; stroke-opacity:1; 
stroke-linecap:round; stroke-linejoin:round;">
<path d="M70221 76265
L70305 76293
L70446 76293
L70502 76265
L70530 76237
L70559 76181
L70559 76124
L70530 76068
L70502 76040
L70446 76012
L70334 75984
L70277 75956
L70249 75928
L70221 75871
L70221 75815
L70249 75759
L70277 75731
L70334 75703
L70474 75703
L70559 75731
" />
<path d="M70812 76293
L70812 75899
" />
<path d="M70812 75703
L70784 75731
L70812 75759
L70840 75731
L70812 75703
L70812 75759
" />
<path d="M71037 75899
L71346 75899
L71037 76293
L71346 76293
" />
<path d="M71796 76265
L71740 76293
L71627 76293
L71571 76265
L71543 76209
L71543 75984
L71571 75928
L71627 75899
L71740 75899
L71796 75928
L71824 75984
L71824 76040
L71543 76096
" />
<path d="M72077 76237
L72105 76265
L72077 76293
L72049 76265
L72077 76237
L72077 76293
" />
<path d="M72077 75928
L72105 75956
L72077 75984
L72049 75956
L72077 75928
L72077 75984
" />
<path d="M72780 76124
L73061 76124
" />
<path d="M72724 76293
L72921 75703
L73118 76293
" />
<path d="M73568 75899
L73568 76293
" />
<path d="M73427 75674
L73286 76096
L73652 76096
" />
</g>
<g style="fill:#000000; fill-opacity:0.0; 
stroke:#000000; stroke-width:39.3701; stroke-opacity:1; 
stroke-linecap:round; stroke-linejoin:round;">
</g>
<g style="fill:#000000; fill-opacity:0.0; 
stroke:#000000; stroke-width:59.0551; stroke-opacity:1; 
stroke-linecap:round; stroke-linejoin:round;">
<path d="M103714 77395
L103714 76805
" />
<path d="M104248 77395
L104248 76805
" />
<path d="M104248 77367
L104192 77395
L104079 77395
L104023 77367
L103995 77339
L103967 77283
L103967 77114
L103995 77058
L104023 77030
L104079 77002
L104192 77002
L104248 77030
" />
<path d="M104529 77339
L104557 77367
L104529 77395
L104501 77367
L104529 77339
L104529 77395
" />
<path d="M104529 77030
L104557 77058
L104529 77086
L104501 77058
L104529 77030
L104529 77086
" />
<path d="M105570 77395
L105232 77395
" />
<path d="M105401 77395
L105401 76805
L105345 76889
L105289 76946
L105232 76974
" />
<path d="M106245 76777
L105739 77536
" />
<path d="M106751 77395
L106413 77395
" />
<path d="M106582 77395
L106582 76805
L106526 76889
L106470 76946
L106413 76974
" />
</g>
<g style="fill:#000000; fill-opacity:0.0; 
stroke:#000000; stroke-width:39.3701; stroke-opacity:1; 
stroke-linecap:round; stroke-linejoin:round;">
</g>
<g style="fill:#000000; fill-opacity:0.0; 
stroke:#000000; stroke-width:59.0551; stroke-opacity:1; 
stroke-linecap:round; stroke-linejoin:round;">
<path d="M69685 73821
L112205 73821
" />
</g>
<g style="fill:#000000; fill-opacity:0.0; 
stroke:#000000; stroke-width:39.3701; stroke-opacity:1; 
stroke-linecap:round; stroke-linejoin:round;">
</g>
<g style="fill:#000000; fill-opacity:0.0; 
stroke:#000000; stroke-width:157.48; stroke-opacity:1; 
stroke-linecap:round; stroke-linejoin:round;">
<path d="M70360 74099
L70810 74099
" />
<path d="M70486 74886
L70585 74099
" />
<path d="M70974 74886
L71039 74361
" />
<path d="M71072 74099
L71030 74136
L71063 74174
L71105 74136
L71072 74099
L71063 74174
" />
<path d="M71302 74361
L71602 74361
" />
<path d="M71447 74099
L71363 74774
L71391 74849
L71461 74886
L71536 74886
" />
<path d="M71911 74886
L71841 74849
L71813 74774
L71897 74099
" />
<path d="M72516 74849
L72436 74886
L72286 74886
L72216 74849
L72187 74774
L72225 74474
L72272 74399
L72352 74361
L72501 74361
L72572 74399
L72600 74474
L72591 74549
L72206 74624
" />
<path d="M72895 74811
L72928 74849
L72886 74886
L72853 74849
L72895 74811
L72886 74886
" />
<path d="M72947 74399
L72980 74436
L72937 74474
L72905 74436
L72947 74399
L72937 74474
" />
</g>
<g style="fill:#000000; fill-opacity:0.0; 
stroke:#000000; stroke-width:39.3701; stroke-opacity:1; 
stroke-linecap:round; stroke-linejoin:round;">
</g>
<g style="fill:#000000; fill-opacity:0.0; 
stroke:#000000; stroke-width:59.0551; stroke-opacity:1; 
stroke-linecap:round; stroke-linejoin:round;">
<path d="M70446 73070
L70249 73070
" />
<path d="M70249 73380
L70249 72789
L70530 72789
" />
<path d="M70755 73380
L70755 72986
" />
<path d="M70755 72789
L70727 72817
L70755 72845
L70784 72817
L70755 72789
L70755 72845
" />
<path d="M71121 73380
L71065 73352
L71037 73295
L71037 72789
" />
<path d="M71571 73352
L71515 73380
L71402 73380
L71346 73352
L71318 73295
L71318 73070
L71346 73014
L71402 72986
L71515 72986
L71571 73014
L71599 73070
L71599 73127
L71318 73183
" />
<path d="M71852 73323
L71880 73352
L71852 73380
L71824 73352
L71852 73323
L71852 73380
" />
<path d="M71852 73014
L71880 73042
L71852 73070
L71824 73042
L71852 73014
L71852 73070
" />
<path d="M72583 73380
L72583 72789
" />
<path d="M72640 73155
L72808 73380
" />
<path d="M72808 72986
L72583 73211
" />
<path d="M73061 73380
L73061 72986
" />
<path d="M73061 73099
L73090 73042
L73118 73014
L73174 72986
L73230 72986
" />
<path d="M73511 73380
L73455 73352
L73427 73323
L73399 73267
L73399 73099
L73427 73042
L73455 73014
L73511 72986
L73596 72986
L73652 73014
L73680 73042
L73708 73099
L73708 73267
L73680 73323
L73652 73352
L73596 73380
L73511 73380
" />
<path d="M73961 72986
L73961 73380
" />
<path d="M73961 73042
L73989 73014
L74046 72986
L74130 72986
L74186 73014
L74214 73070
L74214 73380
" />
<path d="M74721 73352
L74664 73380
L74552 73380
L74496 73352
L74467 73295
L74467 73070
L74496 73014
L74552 72986
L74664 72986
L74721 73014
L74749 73070
L74749 73127
L74467 73183
" />
<path d="M75255 72986
L75255 73380
" />
<path d="M75002 72986
L75002 73295
L75030 73352
L75086 73380
L75171 73380
L75227 73352
L75255 73323
" />
<path d="M75536 73380
L75536 72986
" />
<path d="M75536 73042
L75564 73014
L75620 72986
L75705 72986
L75761 73014
L75789 73070
L75789 73380
" />
<path d="M75789 73070
L75817 73014
L75874 72986
L75958 72986
L76014 73014
L76042 73070
L76042 73380
" />
<path d="M76323 73323
L76352 73352
L76323 73380
L76295 73352
L76323 73323
L76323 73380
" />
<path d="M76605 73380
L76605 72789
" />
<path d="M76661 73155
L76830 73380
" />
<path d="M76830 72986
L76605 73211
" />
<path d="M77083 73380
L77083 72986
" />
<path d="M77083 72789
L77055 72817
L77083 72845
L77111 72817
L77083 72789
L77083 72845
" />
<path d="M77617 73352
L77561 73380
L77448 73380
L77392 73352
L77364 73323
L77336 73267
L77336 73099
L77364 73042
L77392 73014
L77448 72986
L77561 72986
L77617 73014
" />
<path d="M78123 73380
L78123 73070
L78095 73014
L78039 72986
L77926 72986
L77870 73014
" />
<path d="M78123 73352
L78067 73380
L77926 73380
L77870 73352
L77842 73295
L77842 73239
L77870 73183
L77926 73155
L78067 73155
L78123 73127
" />
<path d="M78658 73380
L78658 72789
" />
<path d="M78658 73352
L78601 73380
L78489 73380
L78433 73352
L78404 73323
L78376 73267
L78376 73099
L78404 73042
L78433 73014
L78489 72986
L78601 72986
L78658 73014
" />
<path d="M78798 73436
L79248 73436
" />
<path d="M79389 72986
L79389 73577
" />
<path d="M79389 73014
L79445 72986
L79557 72986
L79614 73014
L79642 73042
L79670 73099
L79670 73267
L79642 73323
L79614 73352
L79557 73380
L79445 73380
L79389 73352
" />
<path d="M80176 73352
L80120 73380
L80007 73380
L79951 73352
L79923 73323
L79895 73267
L79895 73099
L79923 73042
L79951 73014
L80007 72986
L80120 72986
L80176 73014
" />
<path d="M80429 73380
L80429 72789
" />
<path d="M80429 73014
L80485 72986
L80598 72986
L80654 73014
L80682 73042
L80710 73099
L80710 73267
L80682 73323
L80654 73352
L80598 73380
L80485 73380
L80429 73352
" />
</g>
<g style="fill:#000000; fill-opacity:0.0; 
stroke:#000000; stroke-width:39.3701; stroke-opacity:1; 
stroke-linecap:round; stroke-linejoin:round;">
</g>
<g style="fill:#000000; fill-opacity:0.0; 
stroke:#000000; stroke-width:59.0551; stroke-opacity:1; 
stroke-linecap:round; stroke-linejoin:round;">
<path d="M69685 71459
L112205 71459
" />
</g>
<g style="fill:#000000; fill-opacity:0.0; 
stroke:#000000; stroke-width:39.3701; stroke-opacity:1; 
stroke-linecap:round; stroke-linejoin:round;">
</g>
<g style="fill:#000000; fill-opacity:0.0; 
stroke:#000000; stroke-width:59.0551; stroke-opacity:1; 
stroke-linecap:round; stroke-linejoin:round;">
<path d="M70221 72289
L70305 72317
L70446 72317
L70502 72289
L70530 72260
L70559 72204
L70559 72148
L70530 72092
L70502 72064
L70446 72036
L70334 72007
L70277 71979
L70249 71951
L70221 71895
L70221 71839
L70249 71782
L70277 71754
L70334 71726
L70474 71726
L70559 71754
" />
<path d="M70812 72317
L70812 71726
" />
<path d="M71065 72317
L71065 72007
L71037 71951
L70980 71923
L70896 71923
L70840 71951
L70812 71979
" />
<path d="M71571 72289
L71515 72317
L71402 72317
L71346 72289
L71318 72232
L71318 72007
L71346 71951
L71402 71923
L71515 71923
L71571 71951
L71599 72007
L71599 72064
L71318 72120
" />
<path d="M72077 72289
L72021 72317
L71908 72317
L71852 72289
L71824 72232
L71824 72007
L71852 71951
L71908 71923
L72021 71923
L72077 71951
L72105 72007
L72105 72064
L71824 72120
" />
<path d="M72274 71923
L72499 71923
" />
<path d="M72358 71726
L72358 72232
L72386 72289
L72443 72317
L72499 72317
" />
<path d="M72696 72260
L72724 72289
L72696 72317
L72668 72289
L72696 72260
L72696 72317
" />
<path d="M72696 71951
L72724 71979
L72696 72007
L72668 71979
L72696 71951
L72696 72007
" />
</g>
<g style="fill:#000000; fill-opacity:0.0; 
stroke:#000000; stroke-width:39.3701; stroke-opacity:1; 
stroke-linecap:round; stroke-linejoin:round;">
</g>
<g style="fill:#000000; fill-opacity:0.0; 
stroke:#000000; stroke-width:59.0551; stroke-opacity:1; 
stroke-linecap:round; stroke-linejoin:round;">
<path d="M77559 75396
L77559 76577
" />
</g>
<g style="fill:#000000; fill-opacity:0.0; 
stroke:#000000; stroke-width:39.3701; stroke-opacity:1; 
stroke-linecap:round; stroke-linejoin:round;">
</g>
<g style="fill:#000000; fill-opacity:0.0; 
stroke:#000000; stroke-width:59.0551; stroke-opacity:1; 
stroke-linecap:round; stroke-linejoin:round;">
<path d="M102756 75396
L102756 77955
" />
</g>
<g style="fill:#848400; fill-opacity:0.0; 
stroke:#848400; stroke-width:59.0551; stroke-opacity:1; 
stroke-linecap:round; stroke-linejoin:round;">
</g>
<g style="fill:#848400; fill-opacity:0.0; 
stroke:#848400; stroke-width:0; stroke-opacity:1; 
stroke-linecap:round; stroke-linejoin:round;">
</g>
<g style="fill:#848400; fill-opacity:1.0; 
stroke:#848400; stroke-width:0; stroke-opacity:1; 
stroke-linecap:round; stroke-linejoin:round;">
<polyline style="fill-rule:evenodd;"
points="49679,38386
49689,38387
49698,38390
49707,38393
49716,38397
49724,38402
49732,38408
49739,38414
49746,38421
49752,38429
49757,38437
49761,38446
49764,38455
49766,38465
49768,38474
49768,38484
49768,38681
49768,38690
49766,38700
49764,38709
49761,38718
49757,38727
49752,38735
49746,38743
49739,38750
49732,38757
49724,38762
49716,38767
49707,38772
49698,38775
49689,38777
49679,38779
49670,38779
49473,38779
49463,38779
49454,38777
49444,38775
49435,38772
49427,38767
49418,38762
49410,38757
49403,38750
49397,38743
49391,38735
49386,38727
49382,38718
49379,38709
49376,38700
49375,38690
49375,38681
49375,38484
49375,38474
49376,38465
49379,38455
49382,38446
49386,38437
49391,38429
49397,38421
49403,38414
49410,38408
49418,38402
49427,38397
49435,38393
49444,38390
49454,38387
49463,38386
49473,38385
49670,38385
49679,38386
" /> 
</g>
<g style="fill:#840000; fill-opacity:1.0; 
stroke:#840000; stroke-width:0; stroke-opacity:1; 
stroke-linecap:round; stroke-linejoin:round;">
<polyline style="fill-rule:evenodd;"
points="49306,39232
49837,39232
49837,39389
49306,39389
49306,39232
" /> 
<polyline style="fill-rule:evenodd;"
points="49306,38976
49837,38976
49837,39133
49306,39133
49306,38976
" /> 
<polyline style="fill-rule:evenodd;"
points="49306,40000
49837,40000
49837,40157
49306,40157
49306,40000
" /> 
<polyline style="fill-rule:evenodd;"
points="49306,39744
49837,39744
49837,39901
49306,39901
49306,39744
" /> 
<polyline style="fill-rule:evenodd;"
points="49306,39488
49837,39488
49837,39645
49306,39645
49306,39488
" /> 
</g>
<g style="fill:#848400; fill-opacity:1.0; 
stroke:#848400; stroke-width:0; stroke-opacity:1; 
stroke-linecap:round; stroke-linejoin:round;">
<polyline style="fill-rule:evenodd;"
points="49679,40354
49689,40356
49698,40358
49707,40361
49716,40365
49724,40370
49732,40376
49739,40383
49746,40390
49752,40398
49757,40406
49761,40415
49764,40424
49766,40433
49768,40443
49768,40452
49768,40649
49768,40659
49766,40668
49764,40678
49761,40687
49757,40696
49752,40704
49746,40712
49739,40719
49732,40725
49724,40731
49716,40736
49707,40740
49698,40743
49689,40746
49679,40747
49670,40748
49473,40748
49463,40747
49454,40746
49444,40743
49435,40740
49427,40736
49418,40731
49410,40725
49403,40719
49397,40712
49391,40704
49386,40696
49382,40687
49379,40678
49376,40668
49375,40659
49375,40649
49375,40452
49375,40443
49376,40433
49379,40424
49382,40415
49386,40406
49391,40398
49397,40390
49403,40383
49410,40376
49418,40370
49427,40365
49435,40361
49444,40358
49454,40356
49463,40354
49473,40354
49670,40354
49679,40354
" /> 
<polyline style="fill-rule:evenodd;"
points="48776,37953
48787,37955
48799,37957
48809,37961
48820,37966
48830,37972
48839,37979
48848,37987
48856,37995
48862,38005
48868,38015
48873,38025
48877,38036
48880,38047
48882,38059
48882,38070
48882,38307
48882,38318
48880,38330
48877,38341
48873,38352
48868,38362
48862,38372
48856,38382
48848,38390
48839,38398
48830,38405
48820,38411
48809,38416
48799,38420
48787,38422
48776,38424
48764,38425
48252,38425
48241,38424
48229,38422
48218,38420
48207,38416
48197,38411
48187,38405
48178,38398
48169,38390
48161,38382
48154,38372
48148,38362
48143,38352
48139,38341
48137,38330
48135,38318
48134,38307
48134,38070
48135,38059
48137,38047
48139,38036
48143,38025
48148,38015
48154,38005
48161,37995
48169,37987
48178,37979
48187,37972
48197,37966
48207,37961
48218,37957
48229,37955
48241,37953
48252,37952
48764,37952
48776,37953
" /> 
<polyline style="fill-rule:evenodd;"
points="48776,40709
48787,40710
48799,40713
48809,40717
48820,40722
48830,40728
48839,40735
48848,40743
48856,40751
48862,40761
48868,40771
48873,40781
48877,40792
48880,40803
48882,40815
48882,40826
48882,41062
48882,41074
48880,41086
48877,41097
48873,41108
48868,41118
48862,41128
48856,41137
48848,41146
48839,41154
48830,41161
48820,41167
48809,41172
48799,41176
48787,41178
48776,41180
48764,41181
48252,41181
48241,41180
48229,41178
48218,41176
48207,41172
48197,41167
48187,41161
48178,41154
48169,41146
48161,41137
48154,41128
48148,41118
48143,41108
48139,41097
48137,41086
48135,41074
48134,41062
48134,40826
48135,40815
48137,40803
48139,40792
48143,40781
48148,40771
48154,40761
48161,40751
48169,40743
48178,40735
48187,40728
48197,40722
48207,40717
48218,40713
48229,40710
48241,40709
48252,40708
48764,40708
48776,40709
" /> 
</g>
<g style="fill:#840000; fill-opacity:1.0; 
stroke:#840000; stroke-width:0; stroke-opacity:1; 
stroke-linecap:round; stroke-linejoin:round;">
<polyline style="fill-rule:evenodd;"
points="53213,38039
53548,38275
53548,38669
53213,38905
53213,38039
" /> 
<polyline style="fill-rule:evenodd;"
points="51452,37685
52043,37685
52043,38078
51452,38078
51452,37685
" /> 
<polyline style="fill-rule:evenodd;"
points="51451,38275
52160,38275
52160,38669
51451,38669
51451,38275
" /> 
<polyline style="fill-rule:evenodd;"
points="51452,38866
52043,38866
52043,39259
51452,39259
51452,38866
" /> 
<polyline style="fill-rule:evenodd;"
points="52493,38039
53217,38039
53217,38905
52493,38905
52493,38039
" /> 
<polyline style="fill-rule:evenodd;"
points="52497,38905
52103,38629
52103,38314
52497,38039
52497,38905
" /> 
<polyline style="fill-rule:evenodd;"
points="63543,46230
63937,46230
63937,46564
63543,46564
63543,46230
" /> 
<polyline style="fill-rule:evenodd;"
points="63543,48710
63937,48710
63937,49045
63543,49045
63543,48710
" /> 
<polyline style="fill-rule:evenodd;"
points="62047,46230
62440,46230
62440,46564
62047,46564
62047,46230
" /> 
<polyline style="fill-rule:evenodd;"
points="62047,48710
62440,48710
62440,49045
62047,49045
62047,48710
" /> 
<polyline style="fill-rule:evenodd;"
points="56407,42254
56416,42255
56426,42258
56435,42261
56444,42265
56452,42270
56460,42276
56467,42282
56473,42289
56479,42297
56484,42305
56488,42314
56491,42323
56494,42333
56495,42342
56496,42352
56496,42706
56495,42716
56494,42725
56491,42735
56488,42744
56484,42753
56479,42761
56473,42769
56467,42776
56460,42782
56452,42788
56444,42793
56435,42797
56426,42800
56416,42803
56407,42804
56397,42805
56141,42805
56132,42804
56122,42803
56113,42800
56104,42797
56095,42793
56087,42788
56079,42782
56072,42776
56065,42769
56059,42761
56054,42753
56050,42744
56047,42735
56045,42725
56043,42716
56043,42706
56043,42352
56043,42342
56045,42333
56047,42323
56050,42314
56054,42305
56059,42297
56065,42289
56072,42282
56079,42276
56087,42270
56095,42265
56104,42261
56113,42258
56122,42255
56132,42254
56141,42253
56397,42253
56407,42254
" /> 
<polyline style="fill-rule:evenodd;"
points="55600,42254
55609,42255
55619,42258
55628,42261
55636,42265
55645,42270
55652,42276
55660,42282
55666,42289
55672,42297
55677,42305
55681,42314
55684,42323
55687,42333
55688,42342
55688,42352
55688,42706
55688,42716
55687,42725
55684,42735
55681,42744
55677,42753
55672,42761
55666,42769
55660,42776
55652,42782
55645,42788
55636,42793
55628,42797
55619,42800
55609,42803
55600,42804
55590,42805
55334,42805
55324,42804
55315,42803
55306,42800
55296,42797
55288,42793
55279,42788
55272,42782
55265,42776
55258,42769
55252,42761
55247,42753
55243,42744
55240,42735
55238,42725
55236,42716
55236,42706
55236,42352
55236,42342
55238,42333
55240,42323
55243,42314
55247,42305
55252,42297
55258,42289
55265,42282
55272,42276
55279,42270
55288,42265
55296,42261
55306,42258
55315,42255
55324,42254
55334,42253
55590,42253
55600,42254
" /> 
<polyline style="fill-rule:evenodd;"
points="55600,41407
55609,41409
55619,41411
55628,41414
55636,41419
55645,41424
55652,41429
55660,41436
55666,41443
55672,41451
55677,41459
55681,41468
55684,41477
55687,41486
55688,41496
55688,41505
55688,41860
55688,41869
55687,41879
55684,41888
55681,41897
55677,41906
55672,41914
55666,41922
55660,41929
55652,41936
55645,41942
55636,41947
55628,41951
55619,41954
55609,41956
55600,41958
55590,41958
55334,41958
55324,41958
55315,41956
55306,41954
55296,41951
55288,41947
55279,41942
55272,41936
55265,41929
55258,41922
55252,41914
55247,41906
55243,41897
55240,41888
55238,41879
55236,41869
55236,41860
55236,41505
55236,41496
55238,41486
55240,41477
55243,41468
55247,41459
55252,41451
55258,41443
55265,41436
55272,41429
55279,41424
55288,41419
55296,41414
55306,41411
55315,41409
55324,41407
55334,41407
55590,41407
55600,41407
" /> 
<polyline style="fill-rule:evenodd;"
points="56407,41407
56416,41409
56426,41411
56435,41414
56444,41419
56452,41424
56460,41429
56467,41436
56473,41443
56479,41451
56484,41459
56488,41468
56491,41477
56494,41486
56495,41496
56496,41505
56496,41860
56495,41869
56494,41879
56491,41888
56488,41897
56484,41906
56479,41914
56473,41922
56467,41929
56460,41936
56452,41942
56444,41947
56435,41951
56426,41954
56416,41956
56407,41958
56397,41958
56141,41958
56132,41958
56122,41956
56113,41954
56104,41951
56095,41947
56087,41942
56079,41936
56072,41929
56065,41922
56059,41914
56054,41906
56050,41897
56047,41888
56045,41879
56043,41869
56043,41860
56043,41505
56043,41496
56045,41486
56047,41477
56050,41468
56054,41459
56059,41451
56065,41443
56072,41436
56079,41429
56087,41424
56095,41419
56104,41414
56113,41411
56122,41409
56132,41407
56141,41407
56397,41407
56407,41407
" /> 
<polyline style="fill-rule:evenodd;"
points="55895,50157
55905,50159
55914,50161
55923,50164
55932,50169
55940,50174
55948,50179
55955,50186
55961,50193
55967,50201
55972,50209
55976,50218
55980,50227
55982,50236
55983,50246
55984,50255
55984,50511
55983,50521
55982,50531
55980,50540
55976,50549
55972,50558
55967,50566
55961,50574
55955,50581
55948,50587
55940,50593
55932,50598
55923,50602
55914,50605
55905,50608
55895,50609
55885,50610
55531,50610
55521,50609
55512,50608
55502,50605
55493,50602
55485,50598
55476,50593
55469,50587
55461,50581
55455,50574
55449,50566
55444,50558
55440,50549
55437,50540
55434,50531
55433,50521
55433,50511
55433,50255
55433,50246
55434,50236
55437,50227
55440,50218
55444,50209
55449,50201
55455,50193
55461,50186
55469,50179
55476,50174
55485,50169
55493,50164
55502,50161
55512,50159
55521,50157
55531,50157
55885,50157
55895,50157
" /> 
<polyline style="fill-rule:evenodd;"
points="55895,50965
55905,50966
55914,50968
55923,50972
55932,50976
55940,50981
55948,50986
55955,50993
55961,51000
55967,51008
55972,51016
55976,51025
55980,51034
55982,51043
55983,51053
55984,51062
55984,51318
55983,51328
55982,51338
55980,51347
55976,51356
55972,51365
55967,51373
55961,51381
55955,51388
55948,51394
55940,51400
55932,51405
55923,51409
55914,51413
55905,51415
55895,51416
55885,51417
55531,51417
55521,51416
55512,51415
55502,51413
55493,51409
55485,51405
55476,51400
55469,51394
55461,51388
55455,51381
55449,51373
55444,51365
55440,51356
55437,51347
55434,51338
55433,51328
55433,51318
55433,51062
55433,51053
55434,51043
55437,51034
55440,51025
55444,51016
55449,51008
55455,51000
55461,50993
55469,50986
55476,50981
55485,50976
55493,50972
55502,50968
55512,50966
55521,50965
55531,50964
55885,50964
55895,50965
" /> 
<polyline style="fill-rule:evenodd;"
points="62726,49331
62735,49332
62745,49334
62754,49338
62762,49342
62771,49347
62778,49353
62786,49359
62792,49366
62798,49374
62803,49382
62807,49391
62810,49400
62813,49409
62814,49419
62814,49429
62814,49783
62814,49793
62813,49802
62810,49812
62807,49821
62803,49829
62798,49838
62792,49845
62786,49853
62778,49859
62771,49865
62762,49870
62754,49874
62745,49877
62735,49879
62726,49881
62716,49881
62460,49881
62450,49881
62441,49879
62432,49877
62422,49874
62414,49870
62405,49865
62398,49859
62391,49853
62384,49845
62378,49838
62373,49829
62369,49821
62366,49812
62364,49802
62362,49793
62362,49783
62362,49429
62362,49419
62364,49409
62366,49400
62369,49391
62373,49382
62378,49374
62384,49366
62391,49359
62398,49353
62405,49347
62414,49342
62422,49338
62432,49334
62441,49332
62450,49331
62460,49330
62716,49330
62726,49331
" /> 
<polyline style="fill-rule:evenodd;"
points="63533,49331
63542,49332
63552,49334
63561,49338
63570,49342
63578,49347
63586,49353
63593,49359
63599,49366
63605,49374
63610,49382
63614,49391
63617,49400
63620,49409
63621,49419
63622,49429
63622,49783
63621,49793
63620,49802
63617,49812
63614,49821
63610,49829
63605,49838
63599,49845
63593,49853
63586,49859
63578,49865
63570,49870
63561,49874
63552,49877
63542,49879
63533,49881
63523,49881
63267,49881
63258,49881
63248,49879
63239,49877
63230,49874
63221,49870
63213,49865
63205,49859
63198,49853
63191,49845
63185,49838
63180,49829
63176,49821
63173,49812
63171,49802
63169,49793
63169,49783
63169,49429
63169,49419
63171,49409
63173,49400
63176,49391
63180,49382
63185,49374
63191,49366
63198,49359
63205,49353
63213,49347
63221,49342
63230,49338
63239,49334
63248,49332
63258,49331
63267,49330
63523,49330
63533,49331
" /> 
<polyline style="fill-rule:evenodd;"
points="62726,39094
62735,39096
62745,39098
62754,39101
62762,39106
62771,39111
62778,39116
62786,39123
62792,39130
62798,39138
62803,39146
62807,39155
62810,39164
62813,39173
62814,39183
62814,39192
62814,39547
62814,39556
62813,39566
62810,39575
62807,39584
62803,39593
62798,39601
62792,39609
62786,39616
62778,39623
62771,39629
62762,39634
62754,39638
62745,39641
62735,39643
62726,39645
62716,39645
62460,39645
62450,39645
62441,39643
62432,39641
62422,39638
62414,39634
62405,39629
62398,39623
62391,39616
62384,39609
62378,39601
62373,39593
62369,39584
62366,39575
62364,39566
62362,39556
62362,39547
62362,39192
62362,39183
62364,39173
62366,39164
62369,39155
62373,39146
62378,39138
62384,39130
62391,39123
62398,39116
62405,39111
62414,39106
62422,39101
62432,39098
62441,39096
62450,39094
62460,39094
62716,39094
62726,39094
" /> 
<polyline style="fill-rule:evenodd;"
points="63533,39094
63542,39096
63552,39098
63561,39101
63570,39106
63578,39111
63586,39116
63593,39123
63599,39130
63605,39138
63610,39146
63614,39155
63617,39164
63620,39173
63621,39183
63622,39192
63622,39547
63621,39556
63620,39566
63617,39575
63614,39584
63610,39593
63605,39601
63599,39609
63593,39616
63586,39623
63578,39629
63570,39634
63561,39638
63552,39641
63542,39643
63533,39645
63523,39645
63267,39645
63258,39645
63248,39643
63239,39641
63230,39638
63221,39634
63213,39629
63205,39623
63198,39616
63191,39609
63185,39601
63180,39593
63176,39584
63173,39575
63171,39566
63169,39556
63169,39547
63169,39192
63169,39183
63171,39173
63173,39164
63176,39155
63180,39146
63185,39138
63191,39130
63198,39123
63205,39116
63213,39111
63221,39106
63230,39101
63239,39098
63248,39096
63258,39094
63267,39094
63523,39094
63533,39094
" /> 
<polyline style="fill-rule:evenodd;"
points="58001,41102
58011,41104
58020,41106
58029,41109
58038,41113
58046,41118
58054,41124
58061,41131
58068,41138
58073,41146
58078,41154
58083,41163
58086,41172
58088,41181
58090,41191
58090,41200
58090,41555
58090,41564
58088,41574
58086,41583
58083,41592
58078,41601
58073,41609
58068,41617
58061,41624
58054,41631
58046,41636
58038,41641
58029,41646
58020,41649
58011,41651
58001,41653
57992,41653
57736,41653
57726,41653
57717,41651
57707,41649
57698,41646
57689,41641
57681,41636
57673,41631
57666,41624
57660,41617
57654,41609
57649,41601
57645,41592
57642,41583
57639,41574
57638,41564
57637,41555
57637,41200
57638,41191
57639,41181
57642,41172
57645,41163
57649,41154
57654,41146
57660,41138
57666,41131
57673,41124
57681,41118
57689,41113
57698,41109
57707,41106
57717,41104
57726,41102
57736,41102
57992,41102
58001,41102
" /> 
<polyline style="fill-rule:evenodd;"
points="58808,41102
58818,41104
58827,41106
58836,41109
58845,41113
58853,41118
58861,41124
58868,41131
58875,41138
58881,41146
58886,41154
58890,41163
58893,41172
58895,41181
58897,41191
58897,41200
58897,41555
58897,41564
58895,41574
58893,41583
58890,41592
58886,41601
58881,41609
58875,41617
58868,41624
58861,41631
58853,41636
58845,41641
58836,41646
58827,41649
58818,41651
58808,41653
58799,41653
58543,41653
58533,41653
58524,41651
58514,41649
58505,41646
58496,41641
58488,41636
58480,41631
58473,41624
58467,41617
58461,41609
58456,41601
58452,41592
58449,41583
58446,41574
58445,41564
58444,41555
58444,41200
58445,41191
58446,41181
58449,41172
58452,41163
58456,41154
58461,41146
58467,41138
58473,41131
58480,41124
58488,41118
58496,41113
58505,41109
58514,41106
58524,41104
58533,41102
58543,41102
58799,41102
58808,41102
" /> 
<polyline style="fill-rule:evenodd;"
points="55895,48405
55905,48407
55914,48409
55923,48413
55932,48417
55940,48422
55948,48427
55955,48434
55961,48441
55967,48449
55972,48457
55976,48466
55980,48475
55982,48484
55983,48494
55984,48503
55984,48759
55983,48769
55982,48779
55980,48788
55976,48797
55972,48806
55967,48814
55961,48822
55955,48829
55948,48835
55940,48841
55932,48846
55923,48850
55914,48854
55905,48856
55895,48857
55885,48858
55531,48858
55521,48857
55512,48856
55502,48854
55493,48850
55485,48846
55476,48841
55469,48835
55461,48829
55455,48822
55449,48814
55444,48806
55440,48797
55437,48788
55434,48779
55433,48769
55433,48759
55433,48503
55433,48494
55434,48484
55437,48475
55440,48466
55444,48457
55449,48449
55455,48441
55461,48434
55469,48427
55476,48422
55485,48417
55493,48413
55502,48409
55512,48407
55521,48405
55531,48405
55885,48405
55895,48405
" /> 
<polyline style="fill-rule:evenodd;"
points="55895,47598
55905,47600
55914,47602
55923,47605
55932,47610
55940,47615
55948,47620
55955,47627
55961,47634
55967,47642
55972,47650
55976,47659
55980,47668
55982,47677
55983,47687
55984,47696
55984,47952
55983,47962
55982,47971
55980,47981
55976,47990
55972,47999
55967,48007
55961,48015
55955,48022
55948,48028
55940,48034
55932,48039
55923,48043
55914,48046
55905,48049
55895,48050
55885,48051
55531,48051
55521,48050
55512,48049
55502,48046
55493,48043
55485,48039
55476,48034
55469,48028
55461,48022
55455,48015
55449,48007
55444,47999
55440,47990
55437,47981
55434,47971
55433,47962
55433,47952
55433,47696
55433,47687
55434,47677
55437,47668
55440,47659
55444,47650
55449,47642
55455,47634
55461,47627
55469,47620
55476,47615
55485,47610
55493,47605
55502,47602
55512,47600
55521,47598
55531,47598
55885,47598
55895,47598
" /> 
<polyline style="fill-rule:evenodd;"
points="51751,40952
51751,40637
52106,40637
52106,40952
51751,40952
" /> 
<polyline style="fill-rule:evenodd;"
points="51751,41700
51751,41385
52106,41385
52106,41700
51751,41700
" /> 
<polyline style="fill-rule:evenodd;"
points="52539,41326
52539,41011
52893,41011
52893,41326
52539,41326
" /> 
<polyline style="fill-rule:evenodd;"
points="60236,38356
60236,39694
59724,39694
59724,38356
60236,38356
" /> 
<polyline style="fill-rule:evenodd;"
points="56811,38356
56811,39694
56299,39694
56299,38356
56811,38356
" /> 
<polyline style="fill-rule:evenodd;"
points="56466,50236
56466,49842
56801,49842
56801,50236
56466,50236
" /> 
<polyline style="fill-rule:evenodd;"
points="58946,50236
58946,49842
59281,49842
59281,50236
58946,50236
" /> 
<polyline style="fill-rule:evenodd;"
points="56466,51732
56466,51338
56801,51338
56801,51732
56466,51732
" /> 
<polyline style="fill-rule:evenodd;"
points="58946,51732
58946,51338
59281,51338
59281,51732
58946,51732
" /> 
<polyline style="fill-rule:evenodd;"
points="63937,40265
63543,40265
63543,39931
63937,39931
63937,40265
" /> 
<polyline style="fill-rule:evenodd;"
points="63937,42746
63543,42746
63543,42411
63937,42411
63937,42746
" /> 
<polyline style="fill-rule:evenodd;"
points="62440,40265
62047,40265
62047,39931
62440,39931
62440,40265
" /> 
<polyline style="fill-rule:evenodd;"
points="62440,42746
62047,42746
62047,42411
62440,42411
62440,42746
" /> 
<polyline style="fill-rule:evenodd;"
points="59281,48779
59281,49173
58946,49173
58946,48779
59281,48779
" /> 
<polyline style="fill-rule:evenodd;"
points="56801,48779
56801,49173
56466,49173
56466,48779
56801,48779
" /> 
<polyline style="fill-rule:evenodd;"
points="59281,47283
59281,47677
58946,47677
58946,47283
59281,47283
" /> 
<polyline style="fill-rule:evenodd;"
points="56801,47283
56801,47677
56466,47677
56466,47283
56801,47283
" /> 
<polyline style="fill-rule:evenodd;"
points="59714,44417
59714,44574
59143,44574
59143,44417
59714,44417
" /> 
<polyline style="fill-rule:evenodd;"
points="59714,44161
59714,44318
59143,44318
59143,44161
59714,44161
" /> 
<polyline style="fill-rule:evenodd;"
points="59714,43905
59714,44062
59143,44062
59143,43905
59714,43905
" /> 
<polyline style="fill-rule:evenodd;"
points="59714,43649
59714,43807
59143,43807
59143,43649
59714,43649
" /> 
<polyline style="fill-rule:evenodd;"
points="59714,43393
59714,43551
59143,43551
59143,43393
59714,43393
" /> 
<polyline style="fill-rule:evenodd;"
points="59714,43137
59714,43295
59143,43295
59143,43137
59714,43137
" /> 
<polyline style="fill-rule:evenodd;"
points="59714,42881
59714,43039
59143,43039
59143,42881
59714,42881
" /> 
<polyline style="fill-rule:evenodd;"
points="59714,42625
59714,42783
59143,42783
59143,42625
59714,42625
" /> 
<polyline style="fill-rule:evenodd;"
points="59714,42370
59714,42527
59143,42527
59143,42370
59714,42370
" /> 
<polyline style="fill-rule:evenodd;"
points="59714,42114
59714,42271
59143,42271
59143,42114
59714,42114
" /> 
<polyline style="fill-rule:evenodd;"
points="57391,42114
57391,42271
56820,42271
56820,42114
57391,42114
" /> 
<polyline style="fill-rule:evenodd;"
points="57391,42370
57391,42527
56820,42527
56820,42370
57391,42370
" /> 
<polyline style="fill-rule:evenodd;"
points="57391,42625
57391,42783
56820,42783
56820,42625
57391,42625
" /> 
<polyline style="fill-rule:evenodd;"
points="57391,42881
57391,43039
56820,43039
56820,42881
57391,42881
" /> 
<polyline style="fill-rule:evenodd;"
points="57391,43137
57391,43295
56820,43295
56820,43137
57391,43137
" /> 
<polyline style="fill-rule:evenodd;"
points="57391,43393
57391,43551
56820,43551
56820,43393
57391,43393
" /> 
<polyline style="fill-rule:evenodd;"
points="57391,43649
57391,43807
56820,43807
56820,43649
57391,43649
" /> 
<polyline style="fill-rule:evenodd;"
points="57391,43905
57391,44062
56820,44062
56820,43905
57391,43905
" /> 
<polyline style="fill-rule:evenodd;"
points="57391,44161
57391,44318
56820,44318
56820,44161
57391,44161
" /> 
<polyline style="fill-rule:evenodd;"
points="57391,44417
57391,44574
56820,44574
56820,44417
57391,44417
" /> 
<polyline style="fill-rule:evenodd;"
points="50899,37437
50908,37438
50918,37441
50927,37444
50936,37448
50944,37453
50952,37459
50959,37465
50965,37472
50971,37480
50976,37489
50980,37497
50983,37506
50986,37516
50987,37525
50988,37535
50988,37791
50987,37800
50986,37810
50983,37819
50980,37829
50976,37837
50971,37846
50965,37853
50959,37860
50952,37867
50944,37873
50936,37878
50927,37882
50918,37885
50908,37887
50899,37889
50889,37889
50535,37889
50525,37889
50516,37887
50506,37885
50497,37882
50489,37878
50480,37873
50472,37867
50465,37860
50459,37853
50453,37846
50448,37837
50444,37829
50441,37819
50438,37810
50437,37800
50437,37791
50437,37535
50437,37525
50438,37516
50441,37506
50444,37497
50448,37489
50453,37480
50459,37472
50465,37465
50472,37459
50480,37453
50489,37448
50497,37444
50506,37441
50516,37438
50525,37437
50535,37437
50889,37437
50899,37437
" /> 
<polyline style="fill-rule:evenodd;"
points="50899,38244
50908,38245
50918,38248
50927,38251
50936,38255
50944,38260
50952,38266
50959,38272
50965,38280
50971,38287
50976,38296
50980,38304
50983,38313
50986,38323
50987,38332
50988,38342
50988,38598
50987,38608
50986,38617
50983,38626
50980,38636
50976,38644
50971,38653
50965,38660
50959,38668
50952,38674
50944,38680
50936,38685
50927,38689
50918,38692
50908,38694
50899,38696
50889,38696
50535,38696
50525,38696
50516,38694
50506,38692
50497,38689
50489,38685
50480,38680
50472,38674
50465,38668
50459,38660
50453,38653
50448,38644
50444,38636
50441,38626
50438,38617
50437,38608
50437,38598
50437,38342
50437,38332
50438,38323
50441,38313
50444,38304
50448,38296
50453,38287
50459,38280
50465,38272
50472,38266
50480,38260
50489,38255
50497,38251
50506,38248
50516,38245
50525,38244
50535,38244
50889,38244
50899,38244
" /> 
<polyline style="fill-rule:evenodd;"
points="50534,40515
50543,40516
50552,40519
50562,40522
50570,40526
50579,40531
50586,40537
50594,40543
50600,40550
50606,40558
50611,40566
50615,40575
50618,40584
50620,40594
50622,40603
50622,40613
50622,40967
50622,40977
50620,40986
50618,40996
50615,41005
50611,41014
50606,41022
50600,41030
50594,41037
50586,41043
50579,41049
50570,41054
50562,41058
50552,41061
50543,41064
50534,41065
50524,41066
50268,41066
50258,41065
50249,41064
50239,41061
50230,41058
50222,41054
50213,41049
50206,41043
50198,41037
50192,41030
50186,41022
50181,41014
50177,41005
50174,40996
50171,40986
50170,40977
50170,40967
50170,40613
50170,40603
50171,40594
50174,40584
50177,40575
50181,40566
50186,40558
50192,40550
50198,40543
50206,40537
50213,40531
50222,40526
50230,40522
50239,40519
50249,40516
50258,40515
50268,40514
50524,40514
50534,40515
" /> 
<polyline style="fill-rule:evenodd;"
points="51341,40515
51350,40516
51360,40519
51369,40522
51377,40526
51386,40531
51393,40537
51401,40543
51407,40550
51413,40558
51418,40566
51422,40575
51425,40584
51428,40594
51429,40603
51429,40613
51429,40967
51429,40977
51428,40986
51425,40996
51422,41005
51418,41014
51413,41022
51407,41030
51401,41037
51393,41043
51386,41049
51377,41054
51369,41058
51360,41061
51350,41064
51341,41065
51331,41066
51075,41066
51065,41065
51056,41064
51047,41061
51037,41058
51029,41054
51020,41049
51013,41043
51005,41037
50999,41030
50993,41022
50988,41014
50984,41005
50981,40996
50979,40986
50977,40977
50977,40967
50977,40613
50977,40603
50979,40594
50981,40584
50984,40575
50988,40566
50993,40558
50999,40550
51005,40543
51013,40537
51020,40531
51029,40526
51037,40522
51047,40519
51056,40516
51065,40515
51075,40514
51331,40514
51341,40515
" /> 
<polyline style="fill-rule:evenodd;"
points="50462,42173
52470,42173
52470,43157
50462,43157
50462,42173
" /> 
<polyline style="fill-rule:evenodd;"
points="50462,51188
52470,51188
52470,52173
50462,52173
50462,51188
" /> 
<circle cx="51466.5" cy="47173.2" r="3503.94" /> 
</g>
<g style="fill:#840000; fill-opacity:1.0; 
stroke:#840000; stroke-width:39.3701; stroke-opacity:1; 
stroke-linecap:round; stroke-linejoin:round;">
</g>
<g style="fill:#848400; fill-opacity:1.0; 
stroke:#848400; stroke-width:39.3701; stroke-opacity:1; 
stroke-linecap:round; stroke-linejoin:round;">
</g>
<g style="fill:#848400; fill-opacity:1.0; 
stroke:#848400; stroke-width:0; stroke-opacity:1; 
stroke-linecap:round; stroke-linejoin:round;">
<polyline style="fill-rule:evenodd;"
points="59616,46456
59616,45669
60403,45669
60403,46456
59616,46456
" /> 
<polyline style="fill-rule:evenodd;"
points="58435,46456
58435,45669
59222,45669
59222,46456
58435,46456
" /> 
<polyline style="fill-rule:evenodd;"
points="56496,46456
56496,45669
57283,45669
57283,46456
56496,46456
" /> 
<polyline style="fill-rule:evenodd;"
points="55314,46456
55314,45669
56102,45669
56102,46456
55314,46456
" /> 
</g>
<g style="fill:#C2C2C2; fill-opacity:1.0; 
stroke:#C2C2C2; stroke-width:0; stroke-opacity:1; 
stroke-linecap:round; stroke-linejoin:round;">
<circle cx="50944.9" cy="39192.9" r="275.591" /> 
</g>
<g style="fill:#C2C2C2; fill-opacity:1.0; 
stroke:#C2C2C2; stroke-width:39.3701; stroke-opacity:1; 
stroke-linecap:round; stroke-linejoin:round;">
</g>
<g style="fill:#C2C2C2; fill-opacity:1.0; 
stroke:#C2C2C2; stroke-width:0; stroke-opacity:1; 
stroke-linecap:round; stroke-linejoin:round;">
<circle cx="55511.8" cy="43789.4" r="275.591" /> 
</g>
<g style="fill:#C2C2C2; fill-opacity:1.0; 
stroke:#C2C2C2; stroke-width:39.3701; stroke-opacity:1; 
stroke-linecap:round; stroke-linejoin:round;">
</g>
<g style="fill:#C2C2C2; fill-opacity:1.0; 
stroke:#C2C2C2; stroke-width:0; stroke-opacity:1; 
stroke-linecap:round; stroke-linejoin:round;">
<circle cx="55511.8" cy="44557.1" r="275.591" /> 
</g>
<g style="fill:#C2C2C2; fill-opacity:1.0; 
stroke:#C2C2C2; stroke-width:39.3701; stroke-opacity:1; 
stroke-linecap:round; stroke-linejoin:round;">
</g>
<g style="fill:#C2C2C2; fill-opacity:1.0; 
stroke:#C2C2C2; stroke-width:0; stroke-opacity:1; 
stroke-linecap:round; stroke-linejoin:round;">
<circle cx="50816.9" cy="39940.9" r="275.591" /> 
</g>
<g style="fill:#C2C2C2; fill-opacity:1.0; 
stroke:#C2C2C2; stroke-width:39.3701; stroke-opacity:1; 
stroke-linecap:round; stroke-linejoin:round;">
</g>
<g style="fill:#C2C2C2; fill-opacity:1.0; 
stroke:#C2C2C2; stroke-width:0; stroke-opacity:1; 
stroke-linecap:round; stroke-linejoin:round;">
<circle cx="49606.3" cy="51681.1" r="275.591" /> 
</g>
<g style="fill:#C2C2C2; fill-opacity:1.0; 
stroke:#C2C2C2; stroke-width:39.3701; stroke-opacity:1; 
stroke-linecap:round; stroke-linejoin:round;">
</g>
<g style="fill:#C2C2C2; fill-opacity:1.0; 
stroke:#C2C2C2; stroke-width:0; stroke-opacity:1; 
stroke-linecap:round; stroke-linejoin:round;">
<circle cx="49606.3" cy="42665.4" r="275.591" /> 
</g>
<g style="fill:#C2C2C2; fill-opacity:1.0; 
stroke:#C2C2C2; stroke-width:39.3701; stroke-opacity:1; 
stroke-linecap:round; stroke-linejoin:round;">
</g>
<g style="fill:#840000; fill-opacity:1.0; 
stroke:#840000; stroke-width:39.3701; stroke-opacity:1; 
stroke-linecap:round; stroke-linejoin:round;">
</g>
<g style="fill:#840000; fill-opacity:1.0; 
stroke:#840000; stroke-width:160; stroke-opacity:1; 
stroke-linecap:round; stroke-linejoin:round;">
</g>
<g style="fill:#840000; fill-opacity:0.0; 
stroke:#840000; stroke-width:160; stroke-opacity:1; 
stroke-linecap:round; stroke-linejoin:round;">
<path d="M49571 40078
L49758 40078
" />
</g>
<g style="fill:#840000; fill-opacity:0.0; 
stroke:#840000; stroke-width:300; stroke-opacity:1; 
stroke-linecap:round; stroke-linejoin:round;">
<path d="M49690 37663
L50712 37663
" />
<path d="M49688 37665
L49690 37663
" />
</g>
<g style="fill:#840000; fill-opacity:0.0; 
stroke:#840000; stroke-width:160; stroke-opacity:1; 
stroke-linecap:round; stroke-linejoin:round;">
<path d="M56660 43216
L56250 42805
" />
<path d="M56250 42805
L56250 42529
" />
<path d="M57106 43216
L56660 43216
" />
<path d="M49571 40078
L50019 40078
" />
</g>
<g style="fill:#840000; fill-opacity:0.0; 
stroke:#840000; stroke-width:300; stroke-opacity:1; 
stroke-linecap:round; stroke-linejoin:round;">
<path d="M51529 37663
L51748 37881
" />
<path d="M50712 37663
L51529 37663
" />
<path d="M56555 38612
L56555 39025
" />
<path d="M51748 37881
L51846 37881
" />
<path d="M56269 41683
L56269 42529
" />
<path d="M48508 38188
L48508 40944
" />
<path d="M48508 44215
L51466 47173
" />
<path d="M48508 40944
L48508 44215
" />
<path d="M54742 47173
L51466 47173
" />
<path d="M55393 47824
L54742 47173
" />
<path d="M55708 47824
L55393 47824
" />
<path d="M56633 51535
L59114 51535
" />
<path d="M55708 51190
L54271 51190
" />
<path d="M51466 48385
L51466 47173
" />
<path d="M54271 51190
L51466 48385
" />
</g>
<g style="fill:#840000; fill-opacity:0.0; 
stroke:#840000; stroke-width:160; stroke-opacity:1; 
stroke-linecap:round; stroke-linejoin:round;">
<path d="M49571 40078
L49146 40078
" />
</g>
<g style="fill:#840000; fill-opacity:0.0; 
stroke:#840000; stroke-width:300; stroke-opacity:1; 
stroke-linecap:round; stroke-linejoin:round;">
<path d="M56289 51190
L56633 51535
" />
<path d="M55708 51190
L56289 51190
" />
</g>
<g style="fill:#840000; fill-opacity:0.0; 
stroke:#840000; stroke-width:160; stroke-opacity:1; 
stroke-linecap:round; stroke-linejoin:round;">
<path d="M50396 40435
L50396 40790
" />
<path d="M49571 40078
L50039 40078
" />
<path d="M50039 40078
L50396 40435
" />
<path d="M57551 43216
L57687 43080
" />
<path d="M57106 43216
L57551 43216
" />
<path d="M57687 43080
L57952 43080
" />
</g>
<g style="fill:#840000; fill-opacity:0.0; 
stroke:#840000; stroke-width:300; stroke-opacity:1; 
stroke-linecap:round; stroke-linejoin:round;">
<path d="M59424 39025
L59980 39025
" />
<path d="M58671 39778
L59424 39025
" />
<path d="M58671 41377
L58671 39778
" />
</g>
<g style="fill:#840000; fill-opacity:0.0; 
stroke:#840000; stroke-width:160; stroke-opacity:1; 
stroke-linecap:round; stroke-linejoin:round;">
<path d="M56385 43472
L55442 42529
" />
<path d="M57106 43472
L56385 43472
" />
</g>
<g style="fill:#840000; fill-opacity:0.0; 
stroke:#840000; stroke-width:300; stroke-opacity:1; 
stroke-linecap:round; stroke-linejoin:round;">
<path d="M54948 41169
L55462 41683
" />
<path d="M52716 41169
L54948 41169
" />
<path d="M55462 41683
L55462 42529
" />
<path d="M62244 46397
L62244 48877
" />
<path d="M63740 40098
L63740 42578
" />
</g>
<g style="fill:#840000; fill-opacity:0.0; 
stroke:#840000; stroke-width:160; stroke-opacity:1; 
stroke-linecap:round; stroke-linejoin:round;">
<path d="M57106 43472
L59429 43472
" />
<path d="M57551 43472
L57106 43472
" />
<path d="M57874 43794
L57551 43472
" />
<path d="M59143 47470
L58336 47470
" />
<path d="M59429 43472
L60391 43472
" />
<path d="M60391 43472
L60775 43472
" />
<path d="M60775 43472
L61318 44015
" />
</g>
<g style="fill:#840000; fill-opacity:0.0; 
stroke:#840000; stroke-width:300; stroke-opacity:1; 
stroke-linecap:round; stroke-linejoin:round;">
<path d="M62244 49261
L62588 49606
" />
<path d="M62244 48877
L62244 49261
" />
<path d="M63740 39714
L63395 39370
" />
<path d="M63740 40098
L63740 39714
" />
<path d="M62244 46397
L62244 44940
" />
<path d="M62244 44940
L61318 44015
" />
<path d="M62588 50748
L62588 49606
" />
<path d="M63740 43046
L64537 43843
" />
<path d="M63740 42578
L63740 43046
" />
<path d="M62775 50935
L62588 50748
" />
<path d="M64537 43843
L64537 50511
" />
<path d="M64537 50511
L64114 50935
" />
<path d="M64114 50935
L62775 50935
" />
<path d="M57874 47224
L58120 47470
" />
<path d="M57874 45511
L57874 47224
" />
<path d="M56663 47470
L58120 47470
" />
<path d="M58120 47470
L59143 47470
" />
</g>
<g style="fill:#840000; fill-opacity:0.0; 
stroke:#840000; stroke-width:160; stroke-opacity:1; 
stroke-linecap:round; stroke-linejoin:round;">
<path d="M57874 47007
L57874 45511
" />
<path d="M57874 45511
L57874 43794
" />
</g>
<g style="fill:#840000; fill-opacity:0.0; 
stroke:#840000; stroke-width:300; stroke-opacity:1; 
stroke-linecap:round; stroke-linejoin:round;">
<path d="M63740 46397
L63740 48877
" />
</g>
<g style="fill:#840000; fill-opacity:0.0; 
stroke:#840000; stroke-width:160; stroke-opacity:1; 
stroke-linecap:round; stroke-linejoin:round;">
<path d="M59429 43216
L61131 43216
" />
</g>
<g style="fill:#840000; fill-opacity:0.0; 
stroke:#840000; stroke-width:300; stroke-opacity:1; 
stroke-linecap:round; stroke-linejoin:round;">
<path d="M63740 49261
L63395 49606
" />
<path d="M63740 48877
L63740 49261
" />
<path d="M63740 46397
L63740 45610
" />
<path d="M61346 43216
L61131 43216
" />
<path d="M63740 45610
L61346 43216
" />
<path d="M62244 40098
L62244 42578
" />
<path d="M60797 42578
L60246 42578
" />
<path d="M62244 42578
L60797 42578
" />
</g>
<g style="fill:#840000; fill-opacity:0.0; 
stroke:#840000; stroke-width:160; stroke-opacity:1; 
stroke-linecap:round; stroke-linejoin:round;">
<path d="M60078 42578
L60246 42578
" />
<path d="M59429 42704
L59952 42704
" />
<path d="M59952 42704
L60078 42578
" />
</g>
<g style="fill:#840000; fill-opacity:0.0; 
stroke:#840000; stroke-width:300; stroke-opacity:1; 
stroke-linecap:round; stroke-linejoin:round;">
<path d="M62244 39714
L62588 39370
" />
<path d="M62244 40098
L62244 39714
" />
</g>
<g style="fill:#840000; fill-opacity:0.0; 
stroke:#840000; stroke-width:160; stroke-opacity:1; 
stroke-linecap:round; stroke-linejoin:round;">
<path d="M49571 39311
L49573 39312
" />
<path d="M55572 43728
L55511 43789
" />
<path d="M56986 43728
L55572 43728
" />
<path d="M50826 39311
L50944 39192
" />
<path d="M49571 39311
L50826 39311
" />
</g>
<g style="fill:#840000; fill-opacity:0.0; 
stroke:#840000; stroke-width:157.48; stroke-opacity:1; 
stroke-linecap:round; stroke-linejoin:round;">
<path d="M56986 43984
L56399 43984
" />
</g>
<g style="fill:#840000; fill-opacity:0.0; 
stroke:#840000; stroke-width:160; stroke-opacity:1; 
stroke-linecap:round; stroke-linejoin:round;">
<path d="M56084 43984
L55511 44557
" />
<path d="M56986 43984
L56084 43984
" />
<path d="M49571 39566
L50442 39566
" />
<path d="M50541 39665
L50816 39940
" />
<path d="M50442 39566
L50541 39665
" />
<path d="M57864 42559
L57864 41377
" />
<path d="M56986 42704
L57718 42704
" />
<path d="M57718 42704
L57864 42559
" />
<path d="M59309 44496
L59948 44496
" />
<path d="M59948 44496
L60935 45482
" />
</g>
<g style="fill:#840000; fill-opacity:0.0; 
stroke:#840000; stroke-width:300; stroke-opacity:1; 
stroke-linecap:round; stroke-linejoin:round;">
<path d="M59133 48956
L59143 48966
" />
<path d="M60935 47204
L60935 45482
" />
<path d="M59114 48976
L59163 48976
" />
<path d="M59163 48976
L60935 47204
" />
<path d="M56289 48631
L56633 48976
" />
<path d="M55708 48631
L56289 48631
" />
<path d="M56633 48976
L59114 48976
" />
<path d="M51929 41543
L51929 42202
" />
<path d="M51466 42665
L49606 42665
" />
<path d="M51466 51681
L49606 51681
" />
</g>
<g style="fill:#840000; fill-opacity:0.0; 
stroke:#840000; stroke-width:160; stroke-opacity:1; 
stroke-linecap:round; stroke-linejoin:round;">
<path d="M49571 39055
L49758 39055
" />
</g>
<g style="fill:#840000; fill-opacity:0.0; 
stroke:#840000; stroke-width:98.4252; stroke-opacity:1; 
stroke-linecap:round; stroke-linejoin:round;">
<path d="M49571 39055
L49767 39055
" />
</g>
<g style="fill:#840000; fill-opacity:0.0; 
stroke:#840000; stroke-width:160; stroke-opacity:1; 
stroke-linecap:round; stroke-linejoin:round;">
<path d="M49997 39055
L50580 38472
" />
<path d="M49571 39055
L49997 39055
" />
</g>
<g style="fill:#840000; fill-opacity:0.0; 
stroke:#840000; stroke-width:300; stroke-opacity:1; 
stroke-linecap:round; stroke-linejoin:round;">
<path d="M52298 38470
L52300 38472
" />
<path d="M50712 38470
L52298 38470
" />
<path d="M52300 38472
L53380 38472
" />
</g>
<g style="fill:#840000; fill-opacity:0.0; 
stroke:#840000; stroke-width:160; stroke-opacity:1; 
stroke-linecap:round; stroke-linejoin:round;">
<path d="M59429 43728
L59874 43728
" />
</g>
<g style="fill:#840000; fill-opacity:0.0; 
stroke:#840000; stroke-width:300; stroke-opacity:1; 
stroke-linecap:round; stroke-linejoin:round;">
<path d="M59114 50009
L61437 47687
" />
<path d="M59114 50039
L59114 50009
" />
<path d="M61437 45290
L61244 45098
" />
<path d="M61437 47687
L61437 45290
" />
</g>
<g style="fill:#840000; fill-opacity:0.0; 
stroke:#840000; stroke-width:160; stroke-opacity:1; 
stroke-linecap:round; stroke-linejoin:round;">
<path d="M59874 43728
L61244 45098
" />
<path d="M61244 45098
L61348 45202
" />
</g>
<g style="fill:#840000; fill-opacity:0.0; 
stroke:#840000; stroke-width:300; stroke-opacity:1; 
stroke-linecap:round; stroke-linejoin:round;">
<path d="M56289 50383
L56633 50039
" />
<path d="M55708 50383
L56289 50383
" />
<path d="M56633 50039
L59114 50039
" />
</g>
<g style="fill:#840000; fill-opacity:0.0; 
stroke:#840000; stroke-width:160; stroke-opacity:1; 
stroke-linecap:round; stroke-linejoin:round;">
<path d="M55708 45509
L55708 46062
" />
<path d="M55708 45192
L55708 45509
" />
<path d="M56660 44240
L55708 45192
" />
<path d="M57106 44240
L56660 44240
" />
<path d="M57106 45846
L56889 46062
" />
<path d="M57106 44496
L57106 45846
" />
<path d="M60009 45846
L60009 46062
" />
<path d="M58840 44240
L58690 44389
" />
<path d="M59309 44240
L58840 44240
" />
<path d="M58690 44389
L58690 44665
" />
<path d="M58690 44665
L60009 45984
" />
<path d="M60009 45984
L60009 46062
" />
<path d="M58287 44143
L58287 45285
" />
<path d="M58828 45826
L58828 46062
" />
<path d="M59309 43984
L58446 43984
" />
<path d="M58287 45285
L58828 45826
" />
<path d="M58446 43984
L58287 44143
" />
</g>
<g style="fill:#840000; fill-opacity:0.0; 
stroke:#840000; stroke-width:300; stroke-opacity:1; 
stroke-linecap:round; stroke-linejoin:round;">
<path d="M51203 40790
L51832 40790
" />
<path d="M51203 40583
L51203 40790
" />
<path d="M51748 39062
L51748 40039
" />
<path d="M51748 40039
L51203 40583
" />
</g>
<g style="fill:#840000; fill-opacity:1.0; 
stroke:#840000; stroke-width:118.11; stroke-opacity:1; 
stroke-linecap:round; stroke-linejoin:round;">
<polyline style="fill-rule:evenodd;"
points="64675,43407
64152,42884
64174,42844
64189,42796
64194,42746
64194,42411
64189,42361
64174,42313
64150,42268
64146,42262
64146,40414
64150,40408
64174,40364
64189,40315
64194,40265
64194,39931
64189,39880
64174,39832
64150,39788
64146,39782
64146,39734
64148,39714
64146,39694
64146,39694
64140,39634
64139,39632
64129,39601
64116,39558
64079,39487
64028,39426
64013,39413
63879,39279
63879,39192
63872,39123
63852,39056
63819,38995
63775,38941
63721,38897
63659,38864
63592,38844
63523,38837
63267,38837
63198,38844
63131,38864
63070,38897
63016,38941
62992,38970
62967,38941
62914,38897
62852,38864
62785,38844
62716,38837
62460,38837
62391,38844
62324,38864
62263,38897
62209,38941
62164,38995
62132,39056
62111,39123
62105,39192
62105,39279
61971,39413
61955,39426
61942,39441
61942,39441
61904,39487
61867,39558
61844,39634
61836,39714
61838,39734
61838,39782
61833,39788
61809,39832
61795,39880
61790,39931
61790,40265
61795,40315
61809,40364
61833,40408
61838,40414
61838,42172
60226,42172
60166,42178
60089,42201
60019,42239
60007,42249
59971,42260
59971,42114
59966,42064
59952,42015
59928,41971
59896,41932
59857,41900
59812,41876
59764,41861
59714,41857
59143,41857
59093,41861
59045,41876
59000,41900
58961,41932
58929,41971
58906,42015
58891,42064
58886,42114
58886,42271
58891,42320
58886,42370
58886,42527
58891,42576
58886,42625
58886,42783
58891,42832
58886,42881
58886,43039
58891,43088
58886,43136
57653,43136
57686,43104
57687,43108
57687,43103
57686,43104
57675,43051
57671,43040
57702,43040
57718,43042
57735,43040
57735,43040
57784,43035
57847,43016
57906,42985
57957,42943
57967,42930
58090,42808
58102,42797
58144,42746
58176,42688
58195,42624
58200,42575
58200,42575
58201,42559
58200,42542
58200,41842
58243,41806
58267,41777
58291,41806
58345,41850
58407,41883
58473,41903
58543,41910
58799,41910
58868,41903
58935,41883
58996,41850
59050,41806
59094,41752
59127,41691
59147,41624
59154,41555
59154,41200
59147,41131
59127,41064
59094,41003
59077,40981
59077,39946
59467,39556
59467,39694
59472,39745
59486,39793
59510,39837
59542,39876
59581,39908
59626,39932
59674,39947
59724,39952
60236,39952
60286,39947
60334,39932
60379,39908
60418,39876
60450,39837
60473,39793
60488,39745
60493,39694
60493,38356
60488,38306
60473,38257
60450,38213
60418,38174
60379,38142
60334,38118
60286,38104
60236,38099
59724,38099
59674,38104
59626,38118
59581,38142
59542,38174
59510,38213
59486,38257
59472,38306
59467,38356
59467,38619
59444,38619
59424,38617
59344,38625
59268,38648
59247,38659
59197,38686
59136,38737
59123,38752
58398,39477
58382,39490
58370,39505
58370,39505
58332,39552
58294,39622
58271,39699
58263,39778
58265,39798
58265,40975
58243,40949
58189,40905
58128,40872
58061,40852
57992,40845
57736,40845
57666,40852
57600,40872
57538,40905
57484,40949
57440,41003
57407,41064
57387,41131
57380,41200
57380,41555
57387,41624
57407,41691
57440,41752
57484,41806
57528,41842
57528,41896
57490,41876
57441,41861
57391,41857
56820,41857
56791,41859
56791,41815
56717,41742
56328,41742
56328,42470
56336,42470
56336,42588
56328,42588
56328,42596
56210,42596
56210,42588
56202,42588
56202,42470
56210,42470
56210,41742
56202,41742
56202,41624
56210,41624
56210,41186
56328,41186
56328,41624
56717,41624
56791,41550
56791,41378
56779,41321
56757,41267
56725,41219
56684,41178
56635,41145
56582,41123
56525,41112
56402,41112
56328,41186
56210,41186
56136,41112
56014,41112
55957,41123
55903,41145
55855,41178
55813,41219
55808,41227
55788,41210
55726,41177
55659,41157
55590,41150
55503,41150
55249,40896
55237,40880
55175,40830
55104,40792
55028,40769
54968,40763
54968,40763
54948,40761
54928,40763
52956,40763
52943,40759
52893,40754
52539,40754
52489,40759
52440,40774
52396,40798
52363,40825
52363,40637
52358,40587
52343,40539
52320,40494
52288,40455
52249,40423
52204,40400
52156,40385
52106,40380
51980,40380
52020,40340
52036,40327
52087,40265
52124,40195
52148,40118
52153,40059
52153,40059
52155,40039
52153,40019
52153,39490
52186,39473
52225,39441
52257,39402
52280,39358
52295,39310
52300,39259
52300,39081
52327,39100
52350,39119
52395,39143
52443,39157
52493,39162
53217,39162
53219,39162
53219,39162
53224,39162
53260,39158
56003,39158
56003,39723
56015,39781
56037,39834
56069,39883
56110,39924
56159,39956
56213,39978
56270,39990
56422,39990
56496,39916
56496,39084
56614,39084
56614,39916
56687,39990
56840,39990
56897,39978
56950,39956
56999,39924
57040,39883
57072,39834
57094,39781
57106,39723
57106,39158
57032,39084
56614,39084
56496,39084
56077,39084
56003,39158
53260,39158
53268,39157
53316,39143
53360,39119
53387,39097
53696,38879
53729,38851
53761,38812
53785,38767
53800,38719
53805,38669
53805,38327
56003,38327
56003,38892
56077,38966
56496,38966
56496,38134
56614,38134
56614,38966
57032,38966
57106,38892
57106,38327
57094,38270
57072,38216
57040,38168
56999,38126
56950,38094
56897,38072
56840,38061
56687,38061
56614,38134
56496,38134
56422,38061
56270,38061
56213,38072
56159,38094
56110,38126
56069,38168
56037,38216
56015,38270
56003,38327
53805,38327
53805,38275
53801,38231
53788,38183
53765,38138
53734,38098
53696,38065
53387,37847
53360,37825
53316,37801
53268,37787
53217,37782
52493,37782
52492,37782
52491,37782
52487,37782
52443,37787
52395,37801
52350,37825
52338,37835
52338,37822
52264,37822
52338,37749
52338,37655
52327,37598
52304,37545
52272,37496
52231,37455
52183,37423
52129,37401
52072,37389
51880,37389
51807,37463
51807,37822
51814,37822
51814,37940
51807,37940
51807,37948
51688,37948
51688,37940
51681,37940
51681,37822
51688,37822
51688,37463
51615,37389
51423,37389
51366,37401
51312,37423
51283,37443
51283,37407
51272,37350
51249,37297
51217,37248
51176,37207
51128,37175
51074,37153
51017,37141
50845,37141
50771,37215
50771,37604
50779,37604
50779,37722
50771,37722
50771,37730
50653,37730
50653,37722
50215,37722
50141,37796
50141,37821
49728,37795
49716,37795
49705,37798
49694,37803
49685,37810
49677,37818
49671,37828
49667,37839
49665,37846
49627,38128
49473,38128
49404,38135
49337,38155
49275,38188
49222,38232
49177,38286
49165,38309
49104,38248
48567,38248
48567,38646
48641,38720
48911,38720
48969,38709
49022,38686
49071,38654
49112,38613
49117,38605
49117,38681
49124,38750
49135,38785
49124,38794
49092,38833
49068,38877
49053,38926
49048,38976
49048,39133
49053,39183
49048,39232
49048,39389
49053,39438
49048,39488
49048,39645
49053,39694
49048,39744
49048,39853
49044,39860
49022,39913
49011,39966
49084,40039
49089,40039
49092,40044
49124,40083
49163,40115
49168,40118
49084,40118
49011,40191
49022,40243
49044,40297
49076,40345
49117,40386
49123,40390
49117,40452
49117,40528
49112,40520
49071,40479
49022,40446
48969,40424
48911,40413
48641,40413
48567,40487
48567,40885
49104,40885
49165,40824
49177,40847
49222,40901
49275,40945
49337,40978
49404,40998
49473,41005
49670,41005
49739,40998
49806,40978
49867,40945
49874,40939
49874,41095
49886,41152
49908,41206
49940,41254
49981,41295
50030,41327
50083,41350
50140,41361
50263,41361
50337,41287
50337,40849
50329,40849
50329,40731
50337,40731
50337,40723
50455,40723
50455,40731
50463,40731
50463,40849
50455,40849
50455,41287
50529,41361
50651,41361
50708,41350
50762,41327
50811,41295
50852,41254
50857,41246
50878,41263
50939,41296
51006,41316
51075,41323
51331,41323
51400,41316
51467,41296
51526,41264
51514,41287
51499,41335
51494,41385
51494,41700
51499,41750
51514,41799
51523,41815
51523,41916
50462,41916
50412,41921
50364,41935
50319,41959
50280,41991
50248,42030
50225,42074
50210,42123
50205,42173
50205,42259
49952,42259
49945,42252
49858,42194
49761,42154
49658,42133
49553,42133
49451,42154
49354,42194
49267,42252
49193,42326
49135,42413
49095,42510
49074,42613
49074,42717
49095,42820
49135,42917
49193,43004
49267,43078
49354,43136
49451,43176
49553,43196
49658,43196
49761,43176
49858,43136
49945,43078
49952,43071
50205,43071
50205,43157
50210,43207
50225,43255
50248,43300
50280,43339
50319,43371
50364,43395
50412,43409
50462,43414
50802,43414
50089,43612
49421,43949
49270,44050
48861,44484
51466,47089
54071,44484
53662,44050
53010,43681
52300,43447
52029,43414
52470,43414
52520,43409
52568,43395
52613,43371
52652,43339
52684,43300
52708,43255
52722,43207
52727,43157
52727,42173
52722,42123
52708,42074
52684,42030
52652,41991
52613,41959
52568,41935
52520,41921
52470,41916
52335,41916
52335,41815
52343,41799
52358,41750
52363,41700
52363,41513
52396,41540
52440,41564
52489,41578
52539,41583
52893,41583
52943,41578
52956,41575
54780,41575
54979,41773
54979,41860
54985,41929
55006,41996
55039,42057
55056,42079
55056,42133
55039,42154
55006,42216
54985,42282
54979,42352
54979,42706
54985,42776
55006,42842
55039,42904
55046,42913
54911,42913
54899,42914
54888,42917
54878,42923
54869,42930
54862,42939
54856,42949
54853,42960
54852,42972
54853,42983
54856,42995
54862,43005
54869,43014
54878,43021
54889,43027
54901,43032
54901,45068
54902,45080
54906,45091
54911,45101
54918,45110
54927,45118
54938,45123
54949,45126
54960,45127
55377,45127
55372,45175
55372,45175
55371,45192
55372,45208
55372,45412
55314,45412
55264,45417
55216,45431
55172,45455
55133,45487
55101,45526
55077,45570
55062,45619
55057,45669
55057,45906
55027,45796
54690,45128
54589,44977
54155,44568
51550,47173
54155,49778
54589,49369
54957,48717
55149,48137
55149,48137
55171,48191
55203,48239
55244,48280
55252,48285
55235,48306
55202,48367
55182,48434
55175,48503
55175,48759
55182,48829
55202,48895
55235,48957
55280,49011
55333,49055
55395,49088
55462,49108
55531,49115
55885,49115
55955,49108
56021,49088
56083,49055
56104,49037
56121,49037
56209,49125
56209,49173
56214,49223
56228,49271
56252,49316
56284,49355
56323,49387
56368,49410
56416,49425
56466,49430
56801,49430
56851,49425
56899,49410
56944,49387
56949,49382
58798,49382
58803,49387
58848,49410
58896,49425
58946,49430
59119,49430
58964,49585
58946,49585
58896,49590
58848,49604
58803,49628
58798,49633
56949,49633
56944,49628
56899,49604
56851,49590
56801,49585
56466,49585
56416,49590
56368,49604
56323,49628
56284,49660
56252,49699
56228,49744
56214,49792
56209,49842
56209,49889
56121,49977
56104,49977
56083,49960
56021,49927
55955,49907
55885,49900
55531,49900
55462,49907
55395,49927
55333,49960
55280,50004
55235,50058
55202,50119
55182,50186
55175,50255
55175,50511
55182,50581
55202,50647
55235,50709
55252,50729
55244,50735
55203,50776
55171,50824
55149,50878
55137,50935
55137,51058
55211,51131
55649,51131
55649,51124
55767,51124
55767,51131
55775,51131
55775,51250
55767,51250
55767,51638
55841,51712
56013,51712
56070,51701
56124,51678
56172,51646
56213,51605
56220,51594
56245,51594
56171,51668
56171,51761
56182,51818
56204,51872
56237,51920
56278,51961
56326,51993
56380,52016
56437,52027
56500,52027
56574,51953
56574,51594
56692,51594
56692,51953
56766,52027
56830,52027
56887,52016
56941,51993
56989,51961
57030,51920
57062,51872
57085,51818
57096,51761
57096,51668
58651,51668
58651,51761
58662,51818
58685,51872
58717,51920
58758,51961
58806,51993
58860,52016
58917,52027
58981,52027
59055,51953
59055,51594
59173,51594
59173,51953
59247,52027
59310,52027
59367,52016
59421,51993
59469,51961
59510,51920
59543,51872
59565,51818
59576,51761
59576,51668
59502,51594
59173,51594
59055,51594
58725,51594
58651,51668
57096,51668
57022,51594
56692,51594
56574,51594
56566,51594
56566,51476
56574,51476
56574,51117
56692,51117
56692,51476
57022,51476
57096,51402
57096,51309
58651,51309
58651,51402
58725,51476
59055,51476
59055,51117
59173,51117
59173,51476
59502,51476
59576,51402
59576,51309
59565,51252
59543,51198
59510,51150
59469,51109
59421,51076
59367,51054
59310,51043
59247,51043
59173,51117
59055,51117
58981,51043
58917,51043
58860,51054
58806,51076
58758,51109
58717,51150
58685,51198
58662,51252
58651,51309
57096,51309
57085,51252
57062,51198
57030,51150
56989,51109
56941,51076
56887,51054
56830,51043
56766,51043
56692,51117
56574,51117
56500,51043
56437,51043
56380,51054
56326,51076
56278,51109
56255,51131
56205,51131
56279,51058
56279,50935
56268,50878
56245,50824
56222,50789
56269,50789
56289,50791
56309,50789
56309,50789
56368,50783
56445,50760
56515,50722
56577,50672
56590,50656
56753,50493
56801,50493
56851,50488
56899,50473
56944,50450
56949,50445
58798,50445
58803,50450
58848,50473
58896,50488
58946,50493
59281,50493
59331,50488
59379,50473
59424,50450
59463,50418
59495,50379
59519,50334
59533,50286
59538,50236
59538,50159
61709,47988
61725,47975
61776,47913
61813,47843
61832,47782
61837,47766
61838,47754
61838,48561
61833,48567
61809,48612
61795,48660
61790,48710
61790,49045
61795,49095
61809,49143
61833,49188
61838,49193
61838,49241
61836,49261
61844,49341
61857,49384
61867,49417
61904,49488
61955,49550
61971,49562
62105,49696
62105,49783
62111,49852
62132,49919
62164,49981
62182,50002
62182,50728
62180,50748
62182,50767
62182,50767
62188,50827
62211,50904
62249,50974
62300,51036
62315,51049
62474,51207
62487,51223
62548,51274
62619,51311
62696,51335
62755,51340
62755,51340
62775,51342
62795,51340
64094,51340
64114,51342
64134,51340
64134,51340
64193,51335
64270,51311
64340,51274
64402,51223
64415,51207
64675,50948
64675,52076
52727,52076
52727,51323
55137,51323
55137,51446
55149,51503
55171,51557
55203,51605
55244,51646
55293,51678
55346,51701
55403,51712
55575,51712
55649,51638
55649,51250
55211,51250
55137,51323
52727,51323
52727,51188
52722,51138
52708,51090
52684,51046
52652,51007
52613,50975
52568,50951
52520,50936
52470,50931
52130,50931
52843,50733
53511,50397
53662,50296
54071,49861
51466,47256
48861,49861
49270,50296
49922,50664
50632,50898
50903,50931
50462,50931
50412,50936
50364,50951
50319,50975
50280,51007
50248,51046
50225,51090
50210,51138
50205,51188
50205,51275
49952,51275
49945,51268
49858,51210
49761,51170
49658,51149
49553,51149
49451,51170
49354,51210
49267,51268
49193,51342
49135,51429
49095,51526
49074,51628
49074,51733
49095,51836
49135,51932
49193,52019
49250,52076
48061,52076
48061,48857
48242,49218
48343,49369
48777,49778
51383,47173
48777,44568
48343,44977
48061,45477
48061,41467
48105,41476
48375,41476
48449,41402
48449,41003
48567,41003
48567,41402
48641,41476
48911,41476
48969,41465
49022,41442
49071,41410
49112,41369
49144,41320
49166,41267
49178,41210
49178,41077
49104,41003
48567,41003
48449,41003
48441,41003
48441,40885
48449,40885
48449,40487
48375,40413
48105,40413
48061,40422
48061,40191
49010,40191
49011,40191
49010,40186
49010,40191
48061,40191
48061,39970
49010,39970
49011,39966
49010,39965
49010,39970
48061,39970
48061,38711
48105,38720
48375,38720
48449,38646
48449,38248
48441,38248
48441,38129
48449,38129
48449,37731
48567,37731
48567,38129
49104,38129
49178,38056
49178,37923
49166,37866
49144,37812
49112,37764
49071,37723
49022,37691
48969,37668
48911,37657
48641,37657
48567,37731
48449,37731
48375,37657
48105,37657
48061,37666
48061,37407
50141,37407
50141,37530
50215,37604
50653,37604
50653,37215
50579,37141
50407,37141
50350,37153
50297,37175
50248,37207
50207,37248
50175,37297
50153,37350
50141,37407
48061,37407
48061,36899
64675,36899
64675,43407
" /> 
<polyline style="fill-rule:evenodd;"
points="56314,46638
56353,46670
56397,46694
56445,46708
56496,46713
57283,46713
57333,46708
57381,46694
57426,46670
57465,46638
57468,46635
57468,47064
56934,47064
56899,47045
56851,47031
56801,47026
56466,47026
56416,47031
56368,47045
56323,47069
56284,47101
56252,47140
56228,47185
56214,47233
56209,47283
56209,47405
56172,47369
56124,47336
56070,47314
56013,47303
55841,47303
55767,47376
55767,47765
55775,47765
55775,47883
55767,47883
55767,47891
55649,47891
55649,47883
55641,47883
55641,47765
55649,47765
55649,47376
55575,47303
55403,47303
55346,47314
55293,47336
55272,47350
55283,47264
55241,46701
55264,46708
55314,46713
56102,46713
56152,46708
56200,46694
56245,46670
56284,46638
56299,46620
56314,46638
" /> 
</g>
<g style="fill:#FFFFFF; fill-opacity:1.0; 
stroke:#FFFFFF; stroke-width:118.11; stroke-opacity:1; 
stroke-linecap:round; stroke-linejoin:round;">
</g>
<g style="fill:#FFFFFF; fill-opacity:1.0; 
stroke:#FFFFFF; stroke-width:0; stroke-opacity:1; 
stroke-linecap:round; stroke-linejoin:round;">
<circle cx="50944.9" cy="39192.9" r="177.165" /> 
</g>
<g style="fill:#FFFFFF; fill-opacity:1.0; 
stroke:#FFFFFF; stroke-width:39.3701; stroke-opacity:1; 
stroke-linecap:round; stroke-linejoin:round;">
</g>
<g style="fill:#FFFFFF; fill-opacity:1.0; 
stroke:#FFFFFF; stroke-width:0; stroke-opacity:1; 
stroke-linecap:round; stroke-linejoin:round;">
<circle cx="55511.8" cy="43789.4" r="177.165" /> 
</g>
<g style="fill:#FFFFFF; fill-opacity:1.0; 
stroke:#FFFFFF; stroke-width:39.3701; stroke-opacity:1; 
stroke-linecap:round; stroke-linejoin:round;">
</g>
<g style="fill:#FFFFFF; fill-opacity:1.0; 
stroke:#FFFFFF; stroke-width:0; stroke-opacity:1; 
stroke-linecap:round; stroke-linejoin:round;">
<circle cx="55511.8" cy="44557.1" r="177.165" /> 
</g>
<g style="fill:#FFFFFF; fill-opacity:1.0; 
stroke:#FFFFFF; stroke-width:39.3701; stroke-opacity:1; 
stroke-linecap:round; stroke-linejoin:round;">
</g>
<g style="fill:#FFFFFF; fill-opacity:1.0; 
stroke:#FFFFFF; stroke-width:0; stroke-opacity:1; 
stroke-linecap:round; stroke-linejoin:round;">
<circle cx="50816.9" cy="39940.9" r="177.165" /> 
</g>
<g style="fill:#FFFFFF; fill-opacity:1.0; 
stroke:#FFFFFF; stroke-width:39.3701; stroke-opacity:1; 
stroke-linecap:round; stroke-linejoin:round;">
</g>
<g style="fill:#FFFFFF; fill-opacity:1.0; 
stroke:#FFFFFF; stroke-width:0; stroke-opacity:1; 
stroke-linecap:round; stroke-linejoin:round;">
<circle cx="49606.3" cy="51681.1" r="177.165" /> 
</g>
<g style="fill:#FFFFFF; fill-opacity:1.0; 
stroke:#FFFFFF; stroke-width:39.3701; stroke-opacity:1; 
stroke-linecap:round; stroke-linejoin:round;">
</g>
<g style="fill:#FFFFFF; fill-opacity:1.0; 
stroke:#FFFFFF; stroke-width:0; stroke-opacity:1; 
stroke-linecap:round; stroke-linejoin:round;">
<circle cx="49606.3" cy="42665.4" r="177.165" /> 
</g>
<g style="fill:#FFFFFF; fill-opacity:1.0; 
stroke:#FFFFFF; stroke-width:39.3701; stroke-opacity:1; 
stroke-linecap:round; stroke-linejoin:round;">
</g>
<g style="fill:#FFFFFF; fill-opacity:1.0; 
stroke:#FFFFFF; stroke-width:0; stroke-opacity:1; 
stroke-linecap:round; stroke-linejoin:round;">
<circle cx="49571.9" cy="38582.7" r="177.165" /> 
</g>
<g style="fill:#FFFFFF; fill-opacity:1.0; 
stroke:#FFFFFF; stroke-width:39.3701; stroke-opacity:1; 
stroke-linecap:round; stroke-linejoin:round;">
</g>
<g style="fill:#FFFFFF; fill-opacity:1.0; 
stroke:#FFFFFF; stroke-width:0; stroke-opacity:1; 
stroke-linecap:round; stroke-linejoin:round;">
<circle cx="49571.9" cy="40551.2" r="177.165" /> 
</g>
<g style="fill:#FFFFFF; fill-opacity:1.0; 
stroke:#FFFFFF; stroke-width:39.3701; stroke-opacity:1; 
stroke-linecap:round; stroke-linejoin:round;">
</g>
<g style="fill:#FFFFFF; fill-opacity:1.0; 
stroke:#FFFFFF; stroke-width:0; stroke-opacity:1; 
stroke-linecap:round; stroke-linejoin:round;">
<circle cx="48508.9" cy="38189" r="177.165" /> 
</g>
<g style="fill:#FFFFFF; fill-opacity:1.0; 
stroke:#FFFFFF; stroke-width:39.3701; stroke-opacity:1; 
stroke-linecap:round; stroke-linejoin:round;">
</g>
<g style="fill:#FFFFFF; fill-opacity:1.0; 
stroke:#FFFFFF; stroke-width:0; stroke-opacity:1; 
stroke-linecap:round; stroke-linejoin:round;">
<circle cx="48508.9" cy="40944.9" r="177.165" /> 
</g>
<g style="fill:#FFFFFF; fill-opacity:1.0; 
stroke:#FFFFFF; stroke-width:39.3701; stroke-opacity:1; 
stroke-linecap:round; stroke-linejoin:round;">
</g>
<g style="fill:#FFFFFF; fill-opacity:1.0; 
stroke:#FFFFFF; stroke-width:0; stroke-opacity:1; 
stroke-linecap:round; stroke-linejoin:round;">
<circle cx="60009.8" cy="46063" r="196.85" /> 
</g>
<g style="fill:#FFFFFF; fill-opacity:1.0; 
stroke:#FFFFFF; stroke-width:39.3701; stroke-opacity:1; 
stroke-linecap:round; stroke-linejoin:round;">
</g>
<g style="fill:#FFFFFF; fill-opacity:1.0; 
stroke:#FFFFFF; stroke-width:0; stroke-opacity:1; 
stroke-linecap:round; stroke-linejoin:round;">
<circle cx="58828.7" cy="46063" r="196.85" /> 
</g>
<g style="fill:#FFFFFF; fill-opacity:1.0; 
stroke:#FFFFFF; stroke-width:39.3701; stroke-opacity:1; 
stroke-linecap:round; stroke-linejoin:round;">
</g>
<g style="fill:#FFFFFF; fill-opacity:1.0; 
stroke:#FFFFFF; stroke-width:0; stroke-opacity:1; 
stroke-linecap:round; stroke-linejoin:round;">
<circle cx="56889.8" cy="46063" r="196.85" /> 
</g>
<g style="fill:#FFFFFF; fill-opacity:1.0; 
stroke:#FFFFFF; stroke-width:39.3701; stroke-opacity:1; 
stroke-linecap:round; stroke-linejoin:round;">
</g>
<g style="fill:#FFFFFF; fill-opacity:1.0; 
stroke:#FFFFFF; stroke-width:0; stroke-opacity:1; 
stroke-linecap:round; stroke-linejoin:round;">
<circle cx="55708.7" cy="46063" r="196.85" /> 
</g>
<g style="fill:#FFFFFF; fill-opacity:1.0; 
stroke:#FFFFFF; stroke-width:39.3701; stroke-opacity:1; 
stroke-linecap:round; stroke-linejoin:round;">
</g>
<g style="fill:#000000; fill-opacity:1.0; 
stroke:#000000; stroke-width:39.3701; stroke-opacity:1; 
stroke-linecap:round; stroke-linejoin:round;">
</g>
<g style="fill:#C2C200; fill-opacity:1.0; 
stroke:#C2C200; stroke-width:39.3701; stroke-opacity:1; 
stroke-linecap:round; stroke-linejoin:round;">
</g>
<g style="fill:#C2C200; fill-opacity:1.0; 
stroke:#C2C200; stroke-width:59.0551; stroke-opacity:1; 
stroke-linecap:round; stroke-linejoin:round;">
</g>
<g style="fill:#C2C200; fill-opacity:0.0; 
stroke:#C2C200; stroke-width:59.0551; stroke-opacity:1; 
stroke-linecap:round; stroke-linejoin:round;">
<path d="M64960 52362
L47775 52362
" />
<path d="M64960 36614
L64960 52362
" />
<path d="M47775 36614
L64960 36614
" />
<path d="M47775 52362
L47775 36614
" />
</g> 
</svg>
