  0
SECTION
  2
HEADER
  9
$ANGBASE
  50
0.0
  9
$ANGDIR
  70
  1
  9
$MEASUREMENT
  70
0
  0
ENDSEC
  0
SECTION
  2
TABLES
  0
TABLE
  2
LTYPE
  70
4
  0
LTYPE
  5
40F
  2
CONTINUOUS
  70
0
  3
Solid line
  72
65
  73
0
  40
0.0
  0
LTYPE
  5
410
  2
DASHDOT
 70
0
  3
Dash Dot ____ _ ____ _
 72
65
 73
4
 40
2.0
 49
1.25
 49
-0.25
 49
0.25
 49
-0.25
  0
LTYPE
  5
411
  2
DASHED
 70
0
  3
Dashed __ __ __ __ __
 72
65
 73
2
 40
0.75
 49
0.5
 49
-0.25
  0
LTYPE
  5
43B
  2
DOTTED
 70
0
  3
Dotted .  .  .  .
 72
65
 73
2
 40
0.2
 49
0.0
 49
-0.2
  0
ENDTAB
  0
TABLE
  2
STYLE
  70
4
  0
STYLE
  2
KICAD
  70
0
  40
0
  41
1
  42
1
  50
0
  71
0
  3
isocp.shx
  0
STYLE
  2
KICADB
  70
0
  40
0
  41
1
  42
1
  50
0
  71
0
  3
isocp.shx
  0
STYLE
  2
KICADI
  70
0
  40
0
  41
1
  42
1
  50
15
  71
0
  3
isocp.shx
  0
STYLE
  2
KICADBI
  70
0
  40
0
  41
1
  42
1
  50
15
  71
0
  3
isocp.shx
  0
ENDTAB
  0
TABLE
  2
LAYER
  70
30
  0
LAYER
  2
BLACK
  70
0
  62
7
  6
CONTINUOUS
  0
LAYER
  2
GRAY1
  70
0
  62
251
  6
CONTINUOUS
  0
LAYER
  2
GRAY2
  70
0
  62
8
  6
CONTINUOUS
  0
LAYER
  2
GRAY3
  70
0
  62
9
  6
CONTINUOUS
  0
LAYER
  2
WHITE
  70
0
  62
7
  6
CONTINUOUS
  0
LAYER
  2
LYELLOW
  70
0
  62
51
  6
CONTINUOUS
  0
LAYER
  2
BLUE1
  70
0
  62
178
  6
CONTINUOUS
  0
LAYER
  2
GREEN1
  70
0
  62
98
  6
CONTINUOUS
  0
LAYER
  2
CYAN1
  70
0
  62
138
  6
CONTINUOUS
  0
LAYER
  2
RED1
  70
0
  62
18
  6
CONTINUOUS
  0
LAYER
  2
MAGENTA1
  70
0
  62
228
  6
CONTINUOUS
  0
LAYER
  2
BROWN1
  70
0
  62
58
  6
CONTINUOUS
  0
LAYER
  2
BLUE2
  70
0
  62
5
  6
CONTINUOUS
  0
LAYER
  2
GREEN2
  70
0
  62
3
  6
CONTINUOUS
  0
LAYER
  2
CYAN2
  70
0
  62
4
  6
CONTINUOUS
  0
LAYER
  2
RED2
  70
0
  62
1
  6
CONTINUOUS
  0
LAYER
  2
MAGENTA2
  70
0
  62
6
  6
CONTINUOUS
  0
LAYER
  2
BROWN2
  70
0
  62
54
  6
CONTINUOUS
  0
LAYER
  2
BLUE3
  70
0
  62
171
  6
CONTINUOUS
  0
LAYER
  2
GREEN3
  70
0
  62
91
  6
CONTINUOUS
  0
LAYER
  2
CYAN3
  70
0
  62
131
  6
CONTINUOUS
  0
LAYER
  2
RED3
  70
0
  62
11
  6
CONTINUOUS
  0
LAYER
  2
MAGENTA3
  70
0
  62
221
  6
CONTINUOUS
  0
LAYER
  2
YELLOW3
  70
0
  62
2
  6
CONTINUOUS
  0
LAYER
  2
BLUE4
  70
0
  62
5
  6
CONTINUOUS
  0
LAYER
  2
GREEN4
  70
0
  62
3
  6
CONTINUOUS
  0
LAYER
  2
CYAN4
  70
0
  62
4
  6
CONTINUOUS
  0
LAYER
  2
RED4
  70
0
  62
1
  6
CONTINUOUS
  0
LAYER
  2
MAGENTA4
  70
0
  62
6
  6
CONTINUOUS
  0
LAYER
  2
YELLOW4
  70
0
  62
2
  6
CONTINUOUS
  0
ENDTAB
  0
ENDSEC
  0
SECTION
  2
ENTITIES
0
LINE
8
BLACK
6
CONTINUOUS
10
-29.54
20
0.47
11
-34.64
21
0.47
0
LINE
8
BLACK
6
CONTINUOUS
10
-34.64
20
0.47
11
-34.64
21
2.97
0
LINE
8
BLACK
6
CONTINUOUS
10
-34.64
20
2.97
11
-29.54
21
2.97
0
LINE
8
BLACK
6
CONTINUOUS
10
-29.54
20
2.97
11
-29.54
21
0.47
0
LINE
8
BLACK
6
CONTINUOUS
10
-19.4693
20
27.796
11
-19.4261
21
27.7729
0
LINE
8
BLACK
6
CONTINUOUS
10
-19.4261
20
27.7729
11
-19.3882
21
27.7418
0
LINE
8
BLACK
6
CONTINUOUS
10
-19.3882
20
27.7418
11
-19.3571
21
27.7039
0
LINE
8
BLACK
6
CONTINUOUS
10
-19.3571
20
27.7039
11
-19.334
21
27.6607
0
LINE
8
BLACK
6
CONTINUOUS
10
-19.334
20
27.6607
11
-19.3198
21
27.6138
0
LINE
8
BLACK
6
CONTINUOUS
10
-19.3198
20
27.6138
11
-19.315
21
27.565
0
LINE
8
BLACK
6
CONTINUOUS
10
-19.315
20
27.565
11
-19.315
21
26.665
0
LINE
8
BLACK
6
CONTINUOUS
10
-19.315
20
26.665
11
-19.3198
21
26.6162
0
LINE
8
BLACK
6
CONTINUOUS
10
-19.3198
20
26.6162
11
-19.334
21
26.5693
0
LINE
8
BLACK
6
CONTINUOUS
10
-19.334
20
26.5693
11
-19.3571
21
26.5261
0
LINE
8
BLACK
6
CONTINUOUS
10
-19.3571
20
26.5261
11
-19.3882
21
26.4882
0
LINE
8
BLACK
6
CONTINUOUS
10
-19.3882
20
26.4882
11
-19.4261
21
26.4571
0
LINE
8
BLACK
6
CONTINUOUS
10
-19.4261
20
26.4571
11
-19.4693
21
26.434
0
LINE
8
BLACK
6
CONTINUOUS
10
-19.4693
20
26.434
11
-19.509
21
26.422
0
LINE
8
BLACK
6
CONTINUOUS
10
-19.509
20
26.422
11
-19.509
21
25.658
0
LINE
8
BLACK
6
CONTINUOUS
10
-19.509
20
25.658
11
-19.4693
21
25.646
0
LINE
8
BLACK
6
CONTINUOUS
10
-19.4693
20
25.646
11
-19.4261
21
25.6229
0
LINE
8
BLACK
6
CONTINUOUS
10
-19.4261
20
25.6229
11
-19.3882
21
25.5918
0
LINE
8
BLACK
6
CONTINUOUS
10
-19.3882
20
25.5918
11
-19.3571
21
25.5539
0
LINE
8
BLACK
6
CONTINUOUS
10
-19.3571
20
25.5539
11
-19.334
21
25.5107
0
LINE
8
BLACK
6
CONTINUOUS
10
-19.334
20
25.5107
11
-19.3198
21
25.4638
0
LINE
8
BLACK
6
CONTINUOUS
10
-19.3198
20
25.4638
11
-19.315
21
25.415
0
LINE
8
BLACK
6
CONTINUOUS
10
-19.315
20
25.415
11
-19.315
21
24.515
0
LINE
8
BLACK
6
CONTINUOUS
10
-19.315
20
24.515
11
-19.3198
21
24.4662
0
LINE
8
BLACK
6
CONTINUOUS
10
-19.3198
20
24.4662
11
-19.334
21
24.4193
0
LINE
8
BLACK
6
CONTINUOUS
10
-19.334
20
24.4193
11
-19.3571
21
24.3761
0
LINE
8
BLACK
6
CONTINUOUS
10
-19.3571
20
24.3761
11
-19.3882
21
24.3382
0
LINE
8
BLACK
6
CONTINUOUS
10
-19.3882
20
24.3382
11
-19.4261
21
24.3071
0
LINE
8
BLACK
6
CONTINUOUS
10
-19.4261
20
24.3071
11
-19.4693
21
24.284
0
LINE
8
BLACK
6
CONTINUOUS
10
-19.4693
20
24.284
11
-19.5162
21
24.2698
0
LINE
8
BLACK
6
CONTINUOUS
10
-19.5162
20
24.2698
11
-19.565
21
24.265
0
LINE
8
BLACK
6
CONTINUOUS
10
-19.565
20
24.265
11
-19.654
21
24.265
0
LINE
8
BLACK
6
CONTINUOUS
10
-19.654
20
24.265
11
-18.8122
21
23.4232
0
LINE
8
BLACK
6
CONTINUOUS
10
-18.8122
20
23.4232
11
-17.755
21
23.4232
0
LINE
8
BLACK
6
CONTINUOUS
10
-17.755
20
23.4232
11
-17.7252
21
23.4203
0
LINE
8
BLACK
6
CONTINUOUS
10
-17.7252
20
23.4203
11
-17.7243
21
23.42
0
LINE
8
BLACK
6
CONTINUOUS
10
-17.7243
20
23.42
11
-17.04
21
23.42
0
LINE
8
BLACK
6
CONTINUOUS
10
-17.04
20
23.42
11
-17.04
21
23.02
0
LINE
8
BLACK
6
CONTINUOUS
10
-17.04
20
23.02
11
-17.7243
21
23.02
0
LINE
8
BLACK
6
CONTINUOUS
10
-17.7243
20
23.02
11
-17.7252
21
23.0197
0
LINE
8
BLACK
6
CONTINUOUS
10
-17.7252
20
23.0197
11
-17.755
21
23.0168
0
LINE
8
BLACK
6
CONTINUOUS
10
-17.755
20
23.0168
11
-18.8864
21
23.0168
0
LINE
8
BLACK
6
CONTINUOUS
10
-18.8864
20
23.0168
11
-18.8964
21
23.0158
0
LINE
8
BLACK
6
CONTINUOUS
10
-18.8964
20
23.0158
11
-18.9064
21
23.0168
0
LINE
8
BLACK
6
CONTINUOUS
10
-18.9064
20
23.0168
11
-18.9064
21
23.0168
0
LINE
8
BLACK
6
CONTINUOUS
10
-18.9064
20
23.0168
11
-18.9362
21
23.0197
0
LINE
8
BLACK
6
CONTINUOUS
10
-18.9362
20
23.0197
11
-18.9745
21
23.0314
0
LINE
8
BLACK
6
CONTINUOUS
10
-18.9745
20
23.0314
11
-19.0098
21
23.0502
0
LINE
8
BLACK
6
CONTINUOUS
10
-19.0098
20
23.0502
11
-19.0408
21
23.0756
0
LINE
8
BLACK
6
CONTINUOUS
10
-19.0408
20
23.0756
11
-19.0471
21
23.0834
0
LINE
8
BLACK
6
CONTINUOUS
10
-19.0471
20
23.0834
11
-20.0766
21
24.1129
0
LINE
8
BLACK
6
CONTINUOUS
10
-20.0766
20
24.1129
11
-20.0844
21
24.1192
0
LINE
8
BLACK
6
CONTINUOUS
10
-20.0844
20
24.1192
11
-20.1006
21
24.139
0
LINE
8
BLACK
6
CONTINUOUS
10
-20.1006
20
24.139
11
-20.1098
21
24.1502
0
LINE
8
BLACK
6
CONTINUOUS
10
-20.1098
20
24.1502
11
-20.1286
21
24.1855
0
LINE
8
BLACK
6
CONTINUOUS
10
-20.1286
20
24.1855
11
-20.1286
21
24.1855
0
LINE
8
BLACK
6
CONTINUOUS
10
-20.1286
20
24.1855
11
-20.1403
21
24.2238
0
LINE
8
BLACK
6
CONTINUOUS
10
-20.1403
20
24.2238
11
-20.1432
21
24.2536
0
LINE
8
BLACK
6
CONTINUOUS
10
-20.1432
20
24.2536
11
-20.1432
21
24.2536
0
LINE
8
BLACK
6
CONTINUOUS
10
-20.1432
20
24.2536
11
-20.1442
21
24.2636
0
LINE
8
BLACK
6
CONTINUOUS
10
-20.1442
20
24.2636
11
-20.144
21
24.265
0
LINE
8
BLACK
6
CONTINUOUS
10
-20.144
20
24.265
11
-20.215
21
24.265
0
LINE
8
BLACK
6
CONTINUOUS
10
-20.215
20
24.265
11
-20.2638
21
24.2698
0
LINE
8
BLACK
6
CONTINUOUS
10
-20.2638
20
24.2698
11
-20.3107
21
24.284
0
LINE
8
BLACK
6
CONTINUOUS
10
-20.3107
20
24.284
11
-20.3539
21
24.3071
0
LINE
8
BLACK
6
CONTINUOUS
10
-20.3539
20
24.3071
11
-20.3918
21
24.3382
0
LINE
8
BLACK
6
CONTINUOUS
10
-20.3918
20
24.3382
11
-20.4229
21
24.3761
0
LINE
8
BLACK
6
CONTINUOUS
10
-20.4229
20
24.3761
11
-20.446
21
24.4193
0
LINE
8
BLACK
6
CONTINUOUS
10
-20.446
20
24.4193
11
-20.4602
21
24.4662
0
LINE
8
BLACK
6
CONTINUOUS
10
-20.4602
20
24.4662
11
-20.465
21
24.515
0
LINE
8
BLACK
6
CONTINUOUS
10
-20.465
20
24.515
11
-20.465
21
25.415
0
LINE
8
BLACK
6
CONTINUOUS
10
-20.465
20
25.415
11
-20.4602
21
25.4638
0
LINE
8
BLACK
6
CONTINUOUS
10
-20.4602
20
25.4638
11
-20.446
21
25.5107
0
LINE
8
BLACK
6
CONTINUOUS
10
-20.446
20
25.5107
11
-20.4229
21
25.5539
0
LINE
8
BLACK
6
CONTINUOUS
10
-20.4229
20
25.5539
11
-20.3918
21
25.5918
0
LINE
8
BLACK
6
CONTINUOUS
10
-20.3918
20
25.5918
11
-20.3539
21
25.6229
0
LINE
8
BLACK
6
CONTINUOUS
10
-20.3539
20
25.6229
11
-20.3107
21
25.646
0
LINE
8
BLACK
6
CONTINUOUS
10
-20.3107
20
25.646
11
-20.271
21
25.658
0
LINE
8
BLACK
6
CONTINUOUS
10
-20.271
20
25.658
11
-20.271
21
26.422
0
LINE
8
BLACK
6
CONTINUOUS
10
-20.271
20
26.422
11
-20.3107
21
26.434
0
LINE
8
BLACK
6
CONTINUOUS
10
-20.3107
20
26.434
11
-20.3539
21
26.4571
0
LINE
8
BLACK
6
CONTINUOUS
10
-20.3539
20
26.4571
11
-20.3918
21
26.4882
0
LINE
8
BLACK
6
CONTINUOUS
10
-20.3918
20
26.4882
11
-20.4229
21
26.5261
0
LINE
8
BLACK
6
CONTINUOUS
10
-20.4229
20
26.5261
11
-20.446
21
26.5693
0
LINE
8
BLACK
6
CONTINUOUS
10
-20.446
20
26.5693
11
-20.4602
21
26.6162
0
LINE
8
BLACK
6
CONTINUOUS
10
-20.4602
20
26.6162
11
-20.465
21
26.665
0
LINE
8
BLACK
6
CONTINUOUS
10
-20.465
20
26.665
11
-20.465
21
27.565
0
LINE
8
BLACK
6
CONTINUOUS
10
-20.465
20
27.565
11
-20.4602
21
27.6138
0
LINE
8
BLACK
6
CONTINUOUS
10
-20.4602
20
27.6138
11
-20.446
21
27.6607
0
LINE
8
BLACK
6
CONTINUOUS
10
-20.446
20
27.6607
11
-20.4229
21
27.7039
0
LINE
8
BLACK
6
CONTINUOUS
10
-20.4229
20
27.7039
11
-20.3918
21
27.7418
0
LINE
8
BLACK
6
CONTINUOUS
10
-20.3918
20
27.7418
11
-20.3539
21
27.7729
0
LINE
8
BLACK
6
CONTINUOUS
10
-20.3539
20
27.7729
11
-20.3107
21
27.796
0
LINE
8
BLACK
6
CONTINUOUS
10
-20.3107
20
27.796
11
-20.271
21
27.808
0
LINE
8
BLACK
6
CONTINUOUS
10
-20.271
20
27.808
11
-20.271
21
27.9337
0
LINE
8
BLACK
6
CONTINUOUS
10
-20.271
20
27.9337
11
-20.271
21
27.9337
0
LINE
8
BLACK
6
CONTINUOUS
10
-20.271
20
27.9337
11
-20.271
21
31.8692
0
LINE
8
BLACK
6
CONTINUOUS
10
-20.271
20
31.8692
11
-22.7108
21
34.309
0
LINE
8
BLACK
6
CONTINUOUS
10
-22.7108
20
34.309
11
-23.315
21
34.309
0
LINE
8
BLACK
6
CONTINUOUS
10
-23.315
20
34.309
11
-23.315
21
32.99
0
LINE
8
BLACK
6
CONTINUOUS
10
-23.315
20
32.99
11
-24.615
21
32.99
0
LINE
8
BLACK
6
CONTINUOUS
10
-24.615
20
32.99
11
-24.615
21
36.39
0
LINE
8
BLACK
6
CONTINUOUS
10
-24.615
20
36.39
11
-24.346
21
36.39
0
LINE
8
BLACK
6
CONTINUOUS
10
-24.346
20
36.39
11
-24.346
21
37.8822
0
LINE
8
BLACK
6
CONTINUOUS
10
-24.346
20
37.8822
11
-24.8978
21
38.434
0
LINE
8
BLACK
6
CONTINUOUS
10
-24.8978
20
38.434
11
-32.3572
21
38.434
0
LINE
8
BLACK
6
CONTINUOUS
10
-32.3572
20
38.434
11
-33.0852
21
37.706
0
LINE
8
BLACK
6
CONTINUOUS
10
-33.0852
20
37.706
11
-31.9487
21
37.706
0
LINE
8
BLACK
6
CONTINUOUS
10
-31.9487
20
37.706
11
-31.93
21
37.7078
0
LINE
8
BLACK
6
CONTINUOUS
10
-31.93
20
37.7078
11
-31.9113
21
37.706
0
LINE
8
BLACK
6
CONTINUOUS
10
-31.9113
20
37.706
11
-31.9113
21
37.706
0
LINE
8
BLACK
6
CONTINUOUS
10
-31.9113
20
37.706
11
-31.8553
21
37.7005
0
LINE
8
BLACK
6
CONTINUOUS
10
-31.8553
20
37.7005
11
-31.7835
21
37.6787
0
LINE
8
BLACK
6
CONTINUOUS
10
-31.7835
20
37.6787
11
-31.7173
21
37.6433
0
LINE
8
BLACK
6
CONTINUOUS
10
-31.7173
20
37.6433
11
-31.6593
21
37.5957
0
LINE
8
BLACK
6
CONTINUOUS
10
-31.6593
20
37.5957
11
-31.6474
21
37.5812
0
LINE
8
BLACK
6
CONTINUOUS
10
-31.6474
20
37.5812
11
-31.3462
21
37.28
0
LINE
8
BLACK
6
CONTINUOUS
10
-31.3462
20
37.28
11
-30.545
21
37.28
0
LINE
8
BLACK
6
CONTINUOUS
10
-30.545
20
37.28
11
-30.545
21
36.28
0
LINE
8
BLACK
6
CONTINUOUS
10
-30.545
20
36.28
11
-32.045
21
36.28
0
LINE
8
BLACK
6
CONTINUOUS
10
-32.045
20
36.28
11
-32.045
21
36.9012
0
LINE
8
BLACK
6
CONTINUOUS
10
-32.045
20
36.9012
11
-32.0878
21
36.944
0
LINE
8
BLACK
6
CONTINUOUS
10
-32.0878
20
36.944
11
-33.312
21
36.944
0
LINE
8
BLACK
6
CONTINUOUS
10
-33.312
20
36.944
11
-33.324
21
36.9043
0
LINE
8
BLACK
6
CONTINUOUS
10
-33.324
20
36.9043
11
-33.3471
21
36.8611
0
LINE
8
BLACK
6
CONTINUOUS
10
-33.3471
20
36.8611
11
-33.3782
21
36.8232
0
LINE
8
BLACK
6
CONTINUOUS
10
-33.3782
20
36.8232
11
-33.4161
21
36.7921
0
LINE
8
BLACK
6
CONTINUOUS
10
-33.4161
20
36.7921
11
-33.4593
21
36.769
0
LINE
8
BLACK
6
CONTINUOUS
10
-33.4593
20
36.769
11
-33.5062
21
36.7548
0
LINE
8
BLACK
6
CONTINUOUS
10
-33.5062
20
36.7548
11
-33.555
21
36.75
0
LINE
8
BLACK
6
CONTINUOUS
10
-33.555
20
36.75
11
-34.455
21
36.75
0
LINE
8
BLACK
6
CONTINUOUS
10
-34.455
20
36.75
11
-34.5038
21
36.7548
0
LINE
8
BLACK
6
CONTINUOUS
10
-34.5038
20
36.7548
11
-34.5507
21
36.769
0
LINE
8
BLACK
6
CONTINUOUS
10
-34.5507
20
36.769
11
-34.5939
21
36.7921
0
LINE
8
BLACK
6
CONTINUOUS
10
-34.5939
20
36.7921
11
-34.6318
21
36.8232
0
LINE
8
BLACK
6
CONTINUOUS
10
-34.6318
20
36.8232
11
-34.6629
21
36.8611
0
LINE
8
BLACK
6
CONTINUOUS
10
-34.6629
20
36.8611
11
-34.686
21
36.9043
0
LINE
8
BLACK
6
CONTINUOUS
10
-34.686
20
36.9043
11
-34.698
21
36.944
0
LINE
8
BLACK
6
CONTINUOUS
10
-34.698
20
36.944
11
-36.5355
21
36.944
0
LINE
8
BLACK
6
CONTINUOUS
10
-36.5355
20
36.944
11
-36.605
21
36.9372
0
LINE
8
BLACK
6
CONTINUOUS
10
-36.605
20
36.9372
11
-36.6745
21
36.944
0
LINE
8
BLACK
6
CONTINUOUS
10
-36.6745
20
36.944
11
-37.4972
21
36.944
0
LINE
8
BLACK
6
CONTINUOUS
10
-37.4972
20
36.944
11
-37.9849
21
36.4563
0
LINE
8
BLACK
6
CONTINUOUS
10
-37.9849
20
36.4563
11
-37.9849
21
36.4563
0
LINE
8
BLACK
6
CONTINUOUS
10
-37.9849
20
36.4563
11
-37.9885
21
36.4527
0
LINE
8
BLACK
6
CONTINUOUS
10
-37.9885
20
36.4527
11
-37.9628
21
36.4048
0
LINE
8
BLACK
6
CONTINUOUS
10
-37.9628
20
36.4048
11
-37.9458
21
36.3485
0
LINE
8
BLACK
6
CONTINUOUS
10
-37.9458
20
36.3485
11
-37.94
21
36.29
0
LINE
8
BLACK
6
CONTINUOUS
10
-37.94
20
36.29
11
-37.94
21
35.69
0
LINE
8
BLACK
6
CONTINUOUS
10
-37.94
20
35.69
11
-37.9458
21
35.6315
0
LINE
8
BLACK
6
CONTINUOUS
10
-37.9458
20
35.6315
11
-37.9628
21
35.5752
0
LINE
8
BLACK
6
CONTINUOUS
10
-37.9628
20
35.5752
11
-37.9906
21
35.5233
0
LINE
8
BLACK
6
CONTINUOUS
10
-37.9906
20
35.5233
11
-38.0279
21
35.4779
0
LINE
8
BLACK
6
CONTINUOUS
10
-38.0279
20
35.4779
11
-38.0733
21
35.4406
0
LINE
8
BLACK
6
CONTINUOUS
10
-38.0733
20
35.4406
11
-38.1252
21
35.4128
0
LINE
8
BLACK
6
CONTINUOUS
10
-38.1252
20
35.4128
11
-38.1815
21
35.3958
0
LINE
8
BLACK
6
CONTINUOUS
10
-38.1815
20
35.3958
11
-38.24
21
35.39
0
LINE
8
BLACK
6
CONTINUOUS
10
-38.24
20
35.39
11
-38.609
21
35.39
0
LINE
8
BLACK
6
CONTINUOUS
10
-38.609
20
35.39
11
-38.609
21
30.8523
0
LINE
8
BLACK
6
CONTINUOUS
10
-38.609
20
30.8523
11
-38.1346
21
31.3266
0
LINE
8
BLACK
6
CONTINUOUS
10
-38.1346
20
31.3266
11
-38.1283
21
31.3344
0
LINE
8
BLACK
6
CONTINUOUS
10
-38.1283
20
31.3344
11
-38.0973
21
31.3598
0
LINE
8
BLACK
6
CONTINUOUS
10
-38.0973
20
31.3598
11
-38.062
21
31.3786
0
LINE
8
BLACK
6
CONTINUOUS
10
-38.062
20
31.3786
11
-38.0237
21
31.3903
0
LINE
8
BLACK
6
CONTINUOUS
10
-38.0237
20
31.3903
11
-37.9939
21
31.3932
0
LINE
8
BLACK
6
CONTINUOUS
10
-37.9939
20
31.3932
11
-37.9939
21
31.3932
0
LINE
8
BLACK
6
CONTINUOUS
10
-37.9939
20
31.3932
11
-37.9839
21
31.3942
0
LINE
8
BLACK
6
CONTINUOUS
10
-37.9839
20
31.3942
11
-37.9739
21
31.3932
0
LINE
8
BLACK
6
CONTINUOUS
10
-37.9739
20
31.3932
11
-35.725
21
31.3932
0
LINE
8
BLACK
6
CONTINUOUS
10
-35.725
20
31.3932
11
-35.715
21
31.3942
0
LINE
8
BLACK
6
CONTINUOUS
10
-35.715
20
31.3942
11
-35.705
21
31.3932
0
LINE
8
BLACK
6
CONTINUOUS
10
-35.705
20
31.3932
11
-35.705
21
31.3932
0
LINE
8
BLACK
6
CONTINUOUS
10
-35.705
20
31.3932
11
-35.6752
21
31.3903
0
LINE
8
BLACK
6
CONTINUOUS
10
-35.6752
20
31.3903
11
-35.6369
21
31.3786
0
LINE
8
BLACK
6
CONTINUOUS
10
-35.6369
20
31.3786
11
-35.6016
21
31.3598
0
LINE
8
BLACK
6
CONTINUOUS
10
-35.6016
20
31.3598
11
-35.5706
21
31.3344
0
LINE
8
BLACK
6
CONTINUOUS
10
-35.5706
20
31.3344
11
-35.5643
21
31.3266
0
LINE
8
BLACK
6
CONTINUOUS
10
-35.5643
20
31.3266
11
-34.6714
21
30.4337
0
LINE
8
BLACK
6
CONTINUOUS
10
-34.6714
20
30.4337
11
-34.6636
21
30.4274
0
LINE
8
BLACK
6
CONTINUOUS
10
-34.6636
20
30.4274
11
-34.6573
21
30.4196
0
LINE
8
BLACK
6
CONTINUOUS
10
-34.6573
20
30.4196
11
-34.6382
21
30.3964
0
LINE
8
BLACK
6
CONTINUOUS
10
-34.6382
20
30.3964
11
-34.6194
21
30.3611
0
LINE
8
BLACK
6
CONTINUOUS
10
-34.6194
20
30.3611
11
-34.6171
21
30.3537
0
LINE
8
BLACK
6
CONTINUOUS
10
-34.6171
20
30.3537
11
-34.6077
21
30.3228
0
LINE
8
BLACK
6
CONTINUOUS
10
-34.6077
20
30.3228
11
-34.6048
21
30.293
0
LINE
8
BLACK
6
CONTINUOUS
10
-34.6048
20
30.293
11
-34.6048
21
30.293
0
LINE
8
BLACK
6
CONTINUOUS
10
-34.6048
20
30.293
11
-34.6038
21
30.283
0
LINE
8
BLACK
6
CONTINUOUS
10
-34.6038
20
30.283
11
-34.6048
21
30.273
0
LINE
8
BLACK
6
CONTINUOUS
10
-34.6048
20
30.273
11
-34.6048
21
30.082
0
LINE
8
BLACK
6
CONTINUOUS
10
-34.6048
20
30.082
11
-34.483
21
30.082
0
LINE
8
BLACK
6
CONTINUOUS
10
-34.483
20
30.082
11
-34.4342
21
30.0772
0
LINE
8
BLACK
6
CONTINUOUS
10
-34.4342
20
30.0772
11
-34.3873
21
30.063
0
LINE
8
BLACK
6
CONTINUOUS
10
-34.3873
20
30.063
11
-34.3441
21
30.0399
0
LINE
8
BLACK
6
CONTINUOUS
10
-34.3441
20
30.0399
11
-34.3062
21
30.0088
0
LINE
8
BLACK
6
CONTINUOUS
10
-34.3062
20
30.0088
11
-34.2751
21
29.9709
0
LINE
8
BLACK
6
CONTINUOUS
10
-34.2751
20
29.9709
11
-34.252
21
29.9277
0
LINE
8
BLACK
6
CONTINUOUS
10
-34.252
20
29.9277
11
-34.2378
21
29.8808
0
LINE
8
BLACK
6
CONTINUOUS
10
-34.2378
20
29.8808
11
-34.233
21
29.832
0
LINE
8
BLACK
6
CONTINUOUS
10
-34.233
20
29.832
11
-34.233
21
28.932
0
LINE
8
BLACK
6
CONTINUOUS
10
-34.233
20
28.932
11
-34.2378
21
28.8832
0
LINE
8
BLACK
6
CONTINUOUS
10
-34.2378
20
28.8832
11
-34.252
21
28.8363
0
LINE
8
BLACK
6
CONTINUOUS
10
-34.252
20
28.8363
11
-34.2751
21
28.7931
0
LINE
8
BLACK
6
CONTINUOUS
10
-34.2751
20
28.7931
11
-34.3062
21
28.7552
0
LINE
8
BLACK
6
CONTINUOUS
10
-34.3062
20
28.7552
11
-34.3441
21
28.7241
0
LINE
8
BLACK
6
CONTINUOUS
10
-34.3441
20
28.7241
11
-34.3873
21
28.701
0
LINE
8
BLACK
6
CONTINUOUS
10
-34.3873
20
28.701
11
-34.4342
21
28.6868
0
LINE
8
BLACK
6
CONTINUOUS
10
-34.4342
20
28.6868
11
-34.483
21
28.682
0
LINE
8
BLACK
6
CONTINUOUS
10
-34.483
20
28.682
11
-34.9692
21
28.682
0
LINE
8
BLACK
6
CONTINUOUS
10
-34.9692
20
28.682
11
-38.0427
21
25.6085
0
LINE
8
BLACK
6
CONTINUOUS
10
-38.0427
20
25.6085
11
-38.0427
21
19.6615
0
LINE
8
BLACK
6
CONTINUOUS
10
-38.0427
20
19.6615
11
-37.2919
21
18.9107
0
LINE
8
BLACK
6
CONTINUOUS
10
-37.2919
20
18.9107
11
-37.0224
21
19.1802
0
LINE
8
BLACK
6
CONTINUOUS
10
-37.0224
20
19.1802
11
-35.7551
21
20.0269
0
LINE
8
BLACK
6
CONTINUOUS
10
-35.7551
20
20.0269
11
-34.347
21
20.6102
0
LINE
8
BLACK
6
CONTINUOUS
10
-34.347
20
20.6102
11
-32.8521
21
20.9076
0
LINE
8
BLACK
6
CONTINUOUS
10
-32.8521
20
20.9076
11
-31.3279
21
20.9076
0
LINE
8
BLACK
6
CONTINUOUS
10
-31.3279
20
20.9076
11
-29.833
21
20.6102
0
LINE
8
BLACK
6
CONTINUOUS
10
-29.833
20
20.6102
11
-28.4249
21
20.0269
0
LINE
8
BLACK
6
CONTINUOUS
10
-28.4249
20
20.0269
11
-27.1576
21
19.1802
0
LINE
8
BLACK
6
CONTINUOUS
10
-27.1576
20
19.1802
11
-26.0798
21
18.1024
0
LINE
8
BLACK
6
CONTINUOUS
10
-26.0798
20
18.1024
11
-25.2331
21
16.8351
0
LINE
8
BLACK
6
CONTINUOUS
10
-25.2331
20
16.8351
11
-24.6498
21
15.427
0
LINE
8
BLACK
6
CONTINUOUS
10
-24.6498
20
15.427
11
-24.3524
21
13.9321
0
LINE
8
BLACK
6
CONTINUOUS
10
-24.3524
20
13.9321
11
-24.3524
21
12.4079
0
LINE
8
BLACK
6
CONTINUOUS
10
-24.3524
20
12.4079
11
-24.6498
21
10.913
0
LINE
8
BLACK
6
CONTINUOUS
10
-24.6498
20
10.913
11
-24.6672
21
10.871
0
LINE
8
BLACK
6
CONTINUOUS
10
-24.6672
20
10.871
11
-19.965
21
10.871
0
LINE
8
BLACK
6
CONTINUOUS
10
-19.965
20
10.871
11
-19.965
21
10.94
0
LINE
8
BLACK
6
CONTINUOUS
10
-19.965
20
10.94
11
-19.9602
21
10.9888
0
LINE
8
BLACK
6
CONTINUOUS
10
-19.9602
20
10.9888
11
-19.946
21
11.0357
0
LINE
8
BLACK
6
CONTINUOUS
10
-19.946
20
11.0357
11
-19.9229
21
11.0789
0
LINE
8
BLACK
6
CONTINUOUS
10
-19.9229
20
11.0789
11
-19.8918
21
11.1168
0
LINE
8
BLACK
6
CONTINUOUS
10
-19.8918
20
11.1168
11
-19.8539
21
11.1479
0
LINE
8
BLACK
6
CONTINUOUS
10
-19.8539
20
11.1479
11
-19.8107
21
11.171
0
LINE
8
BLACK
6
CONTINUOUS
10
-19.8107
20
11.171
11
-19.7638
21
11.1852
0
LINE
8
BLACK
6
CONTINUOUS
10
-19.7638
20
11.1852
11
-19.715
21
11.19
0
LINE
8
BLACK
6
CONTINUOUS
10
-19.715
20
11.19
11
-19.065
21
11.19
0
LINE
8
BLACK
6
CONTINUOUS
10
-19.065
20
11.19
11
-19.0162
21
11.1852
0
LINE
8
BLACK
6
CONTINUOUS
10
-19.0162
20
11.1852
11
-18.9693
21
11.171
0
LINE
8
BLACK
6
CONTINUOUS
10
-18.9693
20
11.171
11
-18.9261
21
11.1479
0
LINE
8
BLACK
6
CONTINUOUS
10
-18.9261
20
11.1479
11
-18.8882
21
11.1168
0
LINE
8
BLACK
6
CONTINUOUS
10
-18.8882
20
11.1168
11
-18.8571
21
11.0789
0
LINE
8
BLACK
6
CONTINUOUS
10
-18.8571
20
11.0789
11
-18.834
21
11.0357
0
LINE
8
BLACK
6
CONTINUOUS
10
-18.834
20
11.0357
11
-18.8198
21
10.9888
0
LINE
8
BLACK
6
CONTINUOUS
10
-18.8198
20
10.9888
11
-18.815
21
10.94
0
LINE
8
BLACK
6
CONTINUOUS
10
-18.815
20
10.94
11
-18.815
21
10.04
0
LINE
8
BLACK
6
CONTINUOUS
10
-18.815
20
10.04
11
-18.8198
21
9.99123
0
LINE
8
BLACK
6
CONTINUOUS
10
-18.8198
20
9.99123
11
-18.834
21
9.94433
0
LINE
8
BLACK
6
CONTINUOUS
10
-18.834
20
9.94433
11
-18.8571
21
9.90111
0
LINE
8
BLACK
6
CONTINUOUS
10
-18.8571
20
9.90111
11
-18.8882
21
9.86322
0
LINE
8
BLACK
6
CONTINUOUS
10
-18.8882
20
9.86322
11
-18.9261
21
9.83213
0
LINE
8
BLACK
6
CONTINUOUS
10
-18.9261
20
9.83213
11
-18.9693
21
9.80903
0
LINE
8
BLACK
6
CONTINUOUS
10
-18.9693
20
9.80903
11
-19.009
21
9.797
0
LINE
8
BLACK
6
CONTINUOUS
10
-19.009
20
9.797
11
-19.009
21
9.033
0
LINE
8
BLACK
6
CONTINUOUS
10
-19.009
20
9.033
11
-18.9693
21
9.02097
0
LINE
8
BLACK
6
CONTINUOUS
10
-18.9693
20
9.02097
11
-18.9261
21
8.99787
0
LINE
8
BLACK
6
CONTINUOUS
10
-18.9261
20
8.99787
11
-18.8882
21
8.96678
0
LINE
8
BLACK
6
CONTINUOUS
10
-18.8882
20
8.96678
11
-18.8571
21
8.92889
0
LINE
8
BLACK
6
CONTINUOUS
10
-18.8571
20
8.92889
11
-18.834
21
8.88567
0
LINE
8
BLACK
6
CONTINUOUS
10
-18.834
20
8.88567
11
-18.8198
21
8.83877
0
LINE
8
BLACK
6
CONTINUOUS
10
-18.8198
20
8.83877
11
-18.815
21
8.79
0
LINE
8
BLACK
6
CONTINUOUS
10
-18.815
20
8.79
11
-18.815
21
7.89
0
LINE
8
BLACK
6
CONTINUOUS
10
-18.815
20
7.89
11
-18.8198
21
7.84123
0
LINE
8
BLACK
6
CONTINUOUS
10
-18.8198
20
7.84123
11
-18.834
21
7.79433
0
LINE
8
BLACK
6
CONTINUOUS
10
-18.834
20
7.79433
11
-18.8571
21
7.75111
0
LINE
8
BLACK
6
CONTINUOUS
10
-18.8571
20
7.75111
11
-18.8882
21
7.71322
0
LINE
8
BLACK
6
CONTINUOUS
10
-18.8882
20
7.71322
11
-18.9261
21
7.68213
0
LINE
8
BLACK
6
CONTINUOUS
10
-18.9261
20
7.68213
11
-18.9693
21
7.65903
0
LINE
8
BLACK
6
CONTINUOUS
10
-18.9693
20
7.65903
11
-19.0162
21
7.6448
0
LINE
8
BLACK
6
CONTINUOUS
10
-19.0162
20
7.6448
11
-19.065
21
7.64
0
LINE
8
BLACK
6
CONTINUOUS
10
-19.065
20
7.64
11
-19.715
21
7.64
0
LINE
8
BLACK
6
CONTINUOUS
10
-19.715
20
7.64
11
-19.7638
21
7.6448
0
LINE
8
BLACK
6
CONTINUOUS
10
-19.7638
20
7.6448
11
-19.8107
21
7.65903
0
LINE
8
BLACK
6
CONTINUOUS
10
-19.8107
20
7.65903
11
-19.8539
21
7.68213
0
LINE
8
BLACK
6
CONTINUOUS
10
-19.8539
20
7.68213
11
-19.8918
21
7.71322
0
LINE
8
BLACK
6
CONTINUOUS
10
-19.8918
20
7.71322
11
-19.9229
21
7.75111
0
LINE
8
BLACK
6
CONTINUOUS
10
-19.9229
20
7.75111
11
-19.946
21
7.79433
0
LINE
8
BLACK
6
CONTINUOUS
10
-19.946
20
7.79433
11
-19.9602
21
7.84123
0
LINE
8
BLACK
6
CONTINUOUS
10
-19.9602
20
7.84123
11
-19.965
21
7.89
0
LINE
8
BLACK
6
CONTINUOUS
10
-19.965
20
7.89
11
-19.965
21
7.959
0
LINE
8
BLACK
6
CONTINUOUS
10
-19.965
20
7.959
11
-21.4822
21
7.959
0
LINE
8
BLACK
6
CONTINUOUS
10
-21.4822
20
7.959
11
-22.984
21
6.45719
0
LINE
8
BLACK
6
CONTINUOUS
10
-22.984
20
6.45719
11
-22.984
21
3.32281
0
LINE
8
BLACK
6
CONTINUOUS
10
-22.984
20
3.32281
11
-21.9822
21
2.321
0
LINE
8
BLACK
6
CONTINUOUS
10
-21.9822
20
2.321
11
-21.94
21
2.321
0
LINE
8
BLACK
6
CONTINUOUS
10
-21.94
20
2.321
11
-21.94
21
2.44
0
LINE
8
BLACK
6
CONTINUOUS
10
-21.94
20
2.44
11
-21.09
21
2.44
0
LINE
8
BLACK
6
CONTINUOUS
10
-21.09
20
2.44
11
-21.09
21
2.321
0
LINE
8
BLACK
6
CONTINUOUS
10
-21.09
20
2.321
11
-15.64
21
2.321
0
LINE
8
BLACK
6
CONTINUOUS
10
-15.64
20
2.321
11
-15.64
21
2.44
0
LINE
8
BLACK
6
CONTINUOUS
10
-15.64
20
2.44
11
-14.79
21
2.44
0
LINE
8
BLACK
6
CONTINUOUS
10
-14.79
20
2.44
11
-14.79
21
1.44
0
LINE
8
BLACK
6
CONTINUOUS
10
-14.79
20
1.44
11
-15.64
21
1.44
0
LINE
8
BLACK
6
CONTINUOUS
10
-15.64
20
1.44
11
-15.64
21
1.559
0
LINE
8
BLACK
6
CONTINUOUS
10
-15.64
20
1.559
11
-21.09
21
1.559
0
LINE
8
BLACK
6
CONTINUOUS
10
-21.09
20
1.559
11
-21.09
21
1.44
0
LINE
8
BLACK
6
CONTINUOUS
10
-21.09
20
1.44
11
-21.94
21
1.44
0
LINE
8
BLACK
6
CONTINUOUS
10
-21.94
20
1.44
11
-21.94
21
1.559
0
LINE
8
BLACK
6
CONTINUOUS
10
-21.94
20
1.559
11
-22.1213
21
1.559
0
LINE
8
BLACK
6
CONTINUOUS
10
-22.1213
20
1.559
11
-22.14
21
1.55716
0
LINE
8
BLACK
6
CONTINUOUS
10
-22.14
20
1.55716
11
-22.1587
21
1.559
0
LINE
8
BLACK
6
CONTINUOUS
10
-22.1587
20
1.559
11
-22.1587
21
1.559
0
LINE
8
BLACK
6
CONTINUOUS
10
-22.1587
20
1.559
11
-22.2147
21
1.56451
0
LINE
8
BLACK
6
CONTINUOUS
10
-22.2147
20
1.56451
11
-22.2865
21
1.5863
0
LINE
8
BLACK
6
CONTINUOUS
10
-22.2865
20
1.5863
11
-22.3527
21
1.62168
0
LINE
8
BLACK
6
CONTINUOUS
10
-22.3527
20
1.62168
11
-22.3962
21
1.65736
0
LINE
8
BLACK
6
CONTINUOUS
10
-22.3962
20
1.65736
11
-22.3962
21
1.65736
0
LINE
8
BLACK
6
CONTINUOUS
10
-22.3962
20
1.65736
11
-22.4107
21
1.66929
0
LINE
8
BLACK
6
CONTINUOUS
10
-22.4107
20
1.66929
11
-22.4226
21
1.68382
0
LINE
8
BLACK
6
CONTINUOUS
10
-22.4226
20
1.68382
11
-23.6212
21
2.88236
0
LINE
8
BLACK
6
CONTINUOUS
10
-23.6212
20
2.88236
11
-23.6357
21
2.89429
0
LINE
8
BLACK
6
CONTINUOUS
10
-23.6357
20
2.89429
11
-23.654
21
2.91656
0
LINE
8
BLACK
6
CONTINUOUS
10
-23.654
20
2.91656
11
-23.6833
21
2.9523
0
LINE
8
BLACK
6
CONTINUOUS
10
-23.6833
20
2.9523
11
-23.7187
21
3.01849
0
LINE
8
BLACK
6
CONTINUOUS
10
-23.7187
20
3.01849
11
-23.7405
21
3.09031
0
LINE
8
BLACK
6
CONTINUOUS
10
-23.7405
20
3.09031
11
-23.7478
21
3.165
0
LINE
8
BLACK
6
CONTINUOUS
10
-23.7478
20
3.165
11
-23.746
21
3.18372
0
LINE
8
BLACK
6
CONTINUOUS
10
-23.746
20
3.18372
11
-23.746
21
6.59629
0
LINE
8
BLACK
6
CONTINUOUS
10
-23.746
20
6.59629
11
-23.7478
21
6.615
0
LINE
8
BLACK
6
CONTINUOUS
10
-23.7478
20
6.615
11
-23.746
21
6.63371
0
LINE
8
BLACK
6
CONTINUOUS
10
-23.746
20
6.63371
11
-23.7405
21
6.68969
0
LINE
8
BLACK
6
CONTINUOUS
10
-23.7405
20
6.68969
11
-23.7187
21
6.76151
0
LINE
8
BLACK
6
CONTINUOUS
10
-23.7187
20
6.76151
11
-23.7187
21
6.76151
0
LINE
8
BLACK
6
CONTINUOUS
10
-23.7187
20
6.76151
11
-23.6833
21
6.8277
0
LINE
8
BLACK
6
CONTINUOUS
10
-23.6833
20
6.8277
11
-23.6673
21
6.84718
0
LINE
8
BLACK
6
CONTINUOUS
10
-23.6673
20
6.84718
11
-23.6357
21
6.88571
0
LINE
8
BLACK
6
CONTINUOUS
10
-23.6357
20
6.88571
11
-23.6212
21
6.89765
0
LINE
8
BLACK
6
CONTINUOUS
10
-23.6212
20
6.89765
11
-21.9226
21
8.59617
0
LINE
8
BLACK
6
CONTINUOUS
10
-21.9226
20
8.59617
11
-21.9107
21
8.61071
0
LINE
8
BLACK
6
CONTINUOUS
10
-21.9107
20
8.61071
11
-21.8802
21
8.63571
0
LINE
8
BLACK
6
CONTINUOUS
10
-21.8802
20
8.63571
11
-21.8527
21
8.65832
0
LINE
8
BLACK
6
CONTINUOUS
10
-21.8527
20
8.65832
11
-21.8296
21
8.67065
0
LINE
8
BLACK
6
CONTINUOUS
10
-21.8296
20
8.67065
11
-21.7865
21
8.6937
0
LINE
8
BLACK
6
CONTINUOUS
10
-21.7865
20
8.6937
11
-21.7147
21
8.71549
0
LINE
8
BLACK
6
CONTINUOUS
10
-21.7147
20
8.71549
11
-21.6587
21
8.721
0
LINE
8
BLACK
6
CONTINUOUS
10
-21.6587
20
8.721
11
-21.6587
21
8.721
0
LINE
8
BLACK
6
CONTINUOUS
10
-21.6587
20
8.721
11
-21.64
21
8.72284
0
LINE
8
BLACK
6
CONTINUOUS
10
-21.64
20
8.72284
11
-21.6213
21
8.721
0
LINE
8
BLACK
6
CONTINUOUS
10
-21.6213
20
8.721
11
-19.965
21
8.721
0
LINE
8
BLACK
6
CONTINUOUS
10
-19.965
20
8.721
11
-19.965
21
8.79
0
LINE
8
BLACK
6
CONTINUOUS
10
-19.965
20
8.79
11
-19.9602
21
8.83877
0
LINE
8
BLACK
6
CONTINUOUS
10
-19.9602
20
8.83877
11
-19.946
21
8.88567
0
LINE
8
BLACK
6
CONTINUOUS
10
-19.946
20
8.88567
11
-19.9229
21
8.92889
0
LINE
8
BLACK
6
CONTINUOUS
10
-19.9229
20
8.92889
11
-19.8918
21
8.96678
0
LINE
8
BLACK
6
CONTINUOUS
10
-19.8918
20
8.96678
11
-19.8539
21
8.99787
0
LINE
8
BLACK
6
CONTINUOUS
10
-19.8539
20
8.99787
11
-19.8107
21
9.02097
0
LINE
8
BLACK
6
CONTINUOUS
10
-19.8107
20
9.02097
11
-19.771
21
9.033
0
LINE
8
BLACK
6
CONTINUOUS
10
-19.771
20
9.033
11
-19.771
21
9.797
0
LINE
8
BLACK
6
CONTINUOUS
10
-19.771
20
9.797
11
-19.8107
21
9.80903
0
LINE
8
BLACK
6
CONTINUOUS
10
-19.8107
20
9.80903
11
-19.8539
21
9.83213
0
LINE
8
BLACK
6
CONTINUOUS
10
-19.8539
20
9.83213
11
-19.8918
21
9.86322
0
LINE
8
BLACK
6
CONTINUOUS
10
-19.8918
20
9.86322
11
-19.9229
21
9.90111
0
LINE
8
BLACK
6
CONTINUOUS
10
-19.9229
20
9.90111
11
-19.946
21
9.94433
0
LINE
8
BLACK
6
CONTINUOUS
10
-19.946
20
9.94433
11
-19.9602
21
9.99123
0
LINE
8
BLACK
6
CONTINUOUS
10
-19.9602
20
9.99123
11
-19.965
21
10.04
0
LINE
8
BLACK
6
CONTINUOUS
10
-19.965
20
10.04
11
-19.965
21
10.109
0
LINE
8
BLACK
6
CONTINUOUS
10
-19.965
20
10.109
11
-24.9828
21
10.109
0
LINE
8
BLACK
6
CONTINUOUS
10
-24.9828
20
10.109
11
-25.2331
21
9.50489
0
LINE
8
BLACK
6
CONTINUOUS
10
-25.2331
20
9.50489
11
-26.0798
21
8.23759
0
LINE
8
BLACK
6
CONTINUOUS
10
-26.0798
20
8.23759
11
-27.1576
21
7.15984
0
LINE
8
BLACK
6
CONTINUOUS
10
-27.1576
20
7.15984
11
-28.4249
21
6.31306
0
LINE
8
BLACK
6
CONTINUOUS
10
-28.4249
20
6.31306
11
-29.833
21
5.72979
0
LINE
8
BLACK
6
CONTINUOUS
10
-29.833
20
5.72979
11
-31.3279
21
5.43244
0
LINE
8
BLACK
6
CONTINUOUS
10
-31.3279
20
5.43244
11
-32.8521
21
5.43244
0
LINE
8
BLACK
6
CONTINUOUS
10
-32.8521
20
5.43244
11
-34.347
21
5.72979
0
LINE
8
BLACK
6
CONTINUOUS
10
-34.347
20
5.72979
11
-35.7551
21
6.31306
0
LINE
8
BLACK
6
CONTINUOUS
10
-35.7551
20
6.31306
11
-37.0224
21
7.15984
0
LINE
8
BLACK
6
CONTINUOUS
10
-37.0224
20
7.15984
11
-38.1002
21
8.23759
0
LINE
8
BLACK
6
CONTINUOUS
10
-38.1002
20
8.23759
11
-38.9469
21
9.50489
0
LINE
8
BLACK
6
CONTINUOUS
10
-38.9469
20
9.50489
11
-39.5302
21
10.913
0
LINE
8
BLACK
6
CONTINUOUS
10
-39.5302
20
10.913
11
-39.8276
21
12.4079
0
LINE
8
BLACK
6
CONTINUOUS
10
-39.8276
20
12.4079
11
-39.8276
21
13.9321
0
LINE
8
BLACK
6
CONTINUOUS
10
-39.8276
20
13.9321
11
-39.5302
21
15.427
0
LINE
8
BLACK
6
CONTINUOUS
10
-39.5302
20
15.427
11
-38.9469
21
16.8351
0
LINE
8
BLACK
6
CONTINUOUS
10
-38.9469
20
16.8351
11
-38.1002
21
18.1024
0
LINE
8
BLACK
6
CONTINUOUS
10
-38.1002
20
18.1024
11
-37.8307
21
18.3719
0
LINE
8
BLACK
6
CONTINUOUS
10
-37.8307
20
18.3719
11
-38.6798
21
19.221
0
LINE
8
BLACK
6
CONTINUOUS
10
-38.6798
20
19.221
11
-38.6944
21
19.2329
0
LINE
8
BLACK
6
CONTINUOUS
10
-38.6944
20
19.2329
11
-38.7126
21
19.2552
0
LINE
8
BLACK
6
CONTINUOUS
10
-38.7126
20
19.2552
11
-38.742
21
19.291
0
LINE
8
BLACK
6
CONTINUOUS
10
-38.742
20
19.291
11
-38.7774
21
19.3571
0
LINE
8
BLACK
6
CONTINUOUS
10
-38.7774
20
19.3571
11
-38.7991
21
19.429
0
LINE
8
BLACK
6
CONTINUOUS
10
-38.7991
20
19.429
11
-38.8065
21
19.5037
0
LINE
8
BLACK
6
CONTINUOUS
10
-38.8065
20
19.5037
11
-38.8047
21
19.5224
0
LINE
8
BLACK
6
CONTINUOUS
10
-38.8047
20
19.5224
11
-38.8047
21
25.7476
0
LINE
8
BLACK
6
CONTINUOUS
10
-38.8047
20
25.7476
11
-38.8065
21
25.7663
0
LINE
8
BLACK
6
CONTINUOUS
10
-38.8065
20
25.7663
11
-38.8043
21
25.7886
0
LINE
8
BLACK
6
CONTINUOUS
10
-38.8043
20
25.7886
11
-38.7991
21
25.841
0
LINE
8
BLACK
6
CONTINUOUS
10
-38.7991
20
25.841
11
-38.7774
21
25.9129
0
LINE
8
BLACK
6
CONTINUOUS
10
-38.7774
20
25.9129
11
-38.7666
21
25.933
0
LINE
8
BLACK
6
CONTINUOUS
10
-38.7666
20
25.933
11
-38.742
21
25.979
0
LINE
8
BLACK
6
CONTINUOUS
10
-38.742
20
25.979
11
-38.726
21
25.9985
0
LINE
8
BLACK
6
CONTINUOUS
10
-38.726
20
25.9985
11
-38.6944
21
26.0371
0
LINE
8
BLACK
6
CONTINUOUS
10
-38.6944
20
26.0371
11
-38.6798
21
26.049
0
LINE
8
BLACK
6
CONTINUOUS
10
-38.6798
20
26.049
11
-35.383
21
29.3458
0
LINE
8
BLACK
6
CONTINUOUS
10
-35.383
20
29.3458
11
-35.383
21
29.832
0
LINE
8
BLACK
6
CONTINUOUS
10
-35.383
20
29.832
11
-35.3782
21
29.8808
0
LINE
8
BLACK
6
CONTINUOUS
10
-35.3782
20
29.8808
11
-35.364
21
29.9277
0
LINE
8
BLACK
6
CONTINUOUS
10
-35.364
20
29.9277
11
-35.3409
21
29.9709
0
LINE
8
BLACK
6
CONTINUOUS
10
-35.3409
20
29.9709
11
-35.3098
21
30.0088
0
LINE
8
BLACK
6
CONTINUOUS
10
-35.3098
20
30.0088
11
-35.2719
21
30.0399
0
LINE
8
BLACK
6
CONTINUOUS
10
-35.2719
20
30.0399
11
-35.2287
21
30.063
0
LINE
8
BLACK
6
CONTINUOUS
10
-35.2287
20
30.063
11
-35.1818
21
30.0772
0
LINE
8
BLACK
6
CONTINUOUS
10
-35.1818
20
30.0772
11
-35.133
21
30.082
0
LINE
8
BLACK
6
CONTINUOUS
10
-35.133
20
30.082
11
-35.0112
21
30.082
0
LINE
8
BLACK
6
CONTINUOUS
10
-35.0112
20
30.082
11
-35.0112
21
30.1988
0
LINE
8
BLACK
6
CONTINUOUS
10
-35.0112
20
30.1988
11
-35.7992
21
30.9868
0
LINE
8
BLACK
6
CONTINUOUS
10
-35.7992
20
30.9868
11
-37.8997
21
30.9868
0
LINE
8
BLACK
6
CONTINUOUS
10
-37.8997
20
30.9868
11
-38.609
21
30.2775
0
LINE
8
BLACK
6
CONTINUOUS
10
-38.609
20
30.2775
11
-38.609
21
29.59
0
LINE
8
BLACK
6
CONTINUOUS
10
-38.609
20
29.59
11
-38.24
21
29.59
0
LINE
8
BLACK
6
CONTINUOUS
10
-38.24
20
29.59
11
-38.1815
21
29.5842
0
LINE
8
BLACK
6
CONTINUOUS
10
-38.1815
20
29.5842
11
-38.1252
21
29.5672
0
LINE
8
BLACK
6
CONTINUOUS
10
-38.1252
20
29.5672
11
-38.0733
21
29.5394
0
LINE
8
BLACK
6
CONTINUOUS
10
-38.0733
20
29.5394
11
-38.0279
21
29.5021
0
LINE
8
BLACK
6
CONTINUOUS
10
-38.0279
20
29.5021
11
-37.9906
21
29.4567
0
LINE
8
BLACK
6
CONTINUOUS
10
-37.9906
20
29.4567
11
-37.9628
21
29.4048
0
LINE
8
BLACK
6
CONTINUOUS
10
-37.9628
20
29.4048
11
-37.9458
21
29.3485
0
LINE
8
BLACK
6
CONTINUOUS
10
-37.9458
20
29.3485
11
-37.94
21
29.29
0
LINE
8
BLACK
6
CONTINUOUS
10
-37.94
20
29.29
11
-37.94
21
28.69
0
LINE
8
BLACK
6
CONTINUOUS
10
-37.94
20
28.69
11
-37.9458
21
28.6315
0
LINE
8
BLACK
6
CONTINUOUS
10
-37.9458
20
28.6315
11
-37.9628
21
28.5752
0
LINE
8
BLACK
6
CONTINUOUS
10
-37.9628
20
28.5752
11
-37.9906
21
28.5233
0
LINE
8
BLACK
6
CONTINUOUS
10
-37.9906
20
28.5233
11
-38.0279
21
28.4779
0
LINE
8
BLACK
6
CONTINUOUS
10
-38.0279
20
28.4779
11
-38.0733
21
28.4406
0
LINE
8
BLACK
6
CONTINUOUS
10
-38.0733
20
28.4406
11
-38.1252
21
28.4128
0
LINE
8
BLACK
6
CONTINUOUS
10
-38.1252
20
28.4128
11
-38.1815
21
28.3958
0
LINE
8
BLACK
6
CONTINUOUS
10
-38.1815
20
28.3958
11
-38.24
21
28.39
0
LINE
8
BLACK
6
CONTINUOUS
10
-38.24
20
28.39
11
-39.54
21
28.39
0
LINE
8
BLACK
6
CONTINUOUS
10
-39.54
20
28.39
11
-39.5985
21
28.3958
0
LINE
8
BLACK
6
CONTINUOUS
10
-39.5985
20
28.3958
11
-39.6548
21
28.4128
0
LINE
8
BLACK
6
CONTINUOUS
10
-39.6548
20
28.4128
11
-39.7067
21
28.4406
0
LINE
8
BLACK
6
CONTINUOUS
10
-39.7067
20
28.4406
11
-39.7521
21
28.4779
0
LINE
8
BLACK
6
CONTINUOUS
10
-39.7521
20
28.4779
11
-39.7894
21
28.5233
0
LINE
8
BLACK
6
CONTINUOUS
10
-39.7894
20
28.5233
11
-39.8172
21
28.5752
0
LINE
8
BLACK
6
CONTINUOUS
10
-39.8172
20
28.5752
11
-39.8342
21
28.6315
0
LINE
8
BLACK
6
CONTINUOUS
10
-39.8342
20
28.6315
11
-39.84
21
28.69
0
LINE
8
BLACK
6
CONTINUOUS
10
-39.84
20
28.69
11
-39.84
21
29.29
0
LINE
8
BLACK
6
CONTINUOUS
10
-39.84
20
29.29
11
-39.8342
21
29.3485
0
LINE
8
BLACK
6
CONTINUOUS
10
-39.8342
20
29.3485
11
-39.8172
21
29.4048
0
LINE
8
BLACK
6
CONTINUOUS
10
-39.8172
20
29.4048
11
-39.7894
21
29.4567
0
LINE
8
BLACK
6
CONTINUOUS
10
-39.7894
20
29.4567
11
-39.7521
21
29.5021
0
LINE
8
BLACK
6
CONTINUOUS
10
-39.7521
20
29.5021
11
-39.7067
21
29.5394
0
LINE
8
BLACK
6
CONTINUOUS
10
-39.7067
20
29.5394
11
-39.6548
21
29.5672
0
LINE
8
BLACK
6
CONTINUOUS
10
-39.6548
20
29.5672
11
-39.5985
21
29.5842
0
LINE
8
BLACK
6
CONTINUOUS
10
-39.5985
20
29.5842
11
-39.54
21
29.59
0
LINE
8
BLACK
6
CONTINUOUS
10
-39.54
20
29.59
11
-39.371
21
29.59
0
LINE
8
BLACK
6
CONTINUOUS
10
-39.371
20
29.59
11
-39.371
21
35.39
0
LINE
8
BLACK
6
CONTINUOUS
10
-39.371
20
35.39
11
-39.54
21
35.39
0
LINE
8
BLACK
6
CONTINUOUS
10
-39.54
20
35.39
11
-39.5985
21
35.3958
0
LINE
8
BLACK
6
CONTINUOUS
10
-39.5985
20
35.3958
11
-39.6548
21
35.4128
0
LINE
8
BLACK
6
CONTINUOUS
10
-39.6548
20
35.4128
11
-39.7067
21
35.4406
0
LINE
8
BLACK
6
CONTINUOUS
10
-39.7067
20
35.4406
11
-39.7521
21
35.4779
0
LINE
8
BLACK
6
CONTINUOUS
10
-39.7521
20
35.4779
11
-39.7894
21
35.5233
0
LINE
8
BLACK
6
CONTINUOUS
10
-39.7894
20
35.5233
11
-39.8172
21
35.5752
0
LINE
8
BLACK
6
CONTINUOUS
10
-39.8172
20
35.5752
11
-39.8342
21
35.6315
0
LINE
8
BLACK
6
CONTINUOUS
10
-39.8342
20
35.6315
11
-39.84
21
35.69
0
LINE
8
BLACK
6
CONTINUOUS
10
-39.84
20
35.69
11
-39.84
21
36.29
0
LINE
8
BLACK
6
CONTINUOUS
10
-39.84
20
36.29
11
-39.8342
21
36.3485
0
LINE
8
BLACK
6
CONTINUOUS
10
-39.8342
20
36.3485
11
-39.8172
21
36.4048
0
LINE
8
BLACK
6
CONTINUOUS
10
-39.8172
20
36.4048
11
-39.7894
21
36.4567
0
LINE
8
BLACK
6
CONTINUOUS
10
-39.7894
20
36.4567
11
-39.7521
21
36.5021
0
LINE
8
BLACK
6
CONTINUOUS
10
-39.7521
20
36.5021
11
-39.7067
21
36.5394
0
LINE
8
BLACK
6
CONTINUOUS
10
-39.7067
20
36.5394
11
-39.6548
21
36.5672
0
LINE
8
BLACK
6
CONTINUOUS
10
-39.6548
20
36.5672
11
-39.5985
21
36.5842
0
LINE
8
BLACK
6
CONTINUOUS
10
-39.5985
20
36.5842
11
-39.54
21
36.59
0
LINE
8
BLACK
6
CONTINUOUS
10
-39.54
20
36.59
11
-38.9288
21
36.59
0
LINE
8
BLACK
6
CONTINUOUS
10
-38.9288
20
36.59
11
-38.5237
21
36.9951
0
LINE
8
BLACK
6
CONTINUOUS
10
-38.5237
20
36.9951
11
-38.5237
21
36.9951
0
LINE
8
BLACK
6
CONTINUOUS
10
-38.5237
20
36.9951
11
-37.9376
21
37.5812
0
LINE
8
BLACK
6
CONTINUOUS
10
-37.9376
20
37.5812
11
-37.9257
21
37.5957
0
LINE
8
BLACK
6
CONTINUOUS
10
-37.9257
20
37.5957
11
-37.897
21
37.6193
0
LINE
8
BLACK
6
CONTINUOUS
10
-37.897
20
37.6193
11
-37.8677
21
37.6433
0
LINE
8
BLACK
6
CONTINUOUS
10
-37.8677
20
37.6433
11
-37.8015
21
37.6787
0
LINE
8
BLACK
6
CONTINUOUS
10
-37.8015
20
37.6787
11
-37.7297
21
37.7005
0
LINE
8
BLACK
6
CONTINUOUS
10
-37.7297
20
37.7005
11
-37.6737
21
37.706
0
LINE
8
BLACK
6
CONTINUOUS
10
-37.6737
20
37.706
11
-37.6737
21
37.706
0
LINE
8
BLACK
6
CONTINUOUS
10
-37.6737
20
37.706
11
-37.655
21
37.7078
0
LINE
8
BLACK
6
CONTINUOUS
10
-37.655
20
37.7078
11
-37.6363
21
37.706
0
LINE
8
BLACK
6
CONTINUOUS
10
-37.6363
20
37.706
11
-36.6187
21
37.706
0
LINE
8
BLACK
6
CONTINUOUS
10
-36.6187
20
37.706
11
-36.6
21
37.7078
0
LINE
8
BLACK
6
CONTINUOUS
10
-36.6
20
37.7078
11
-36.5813
21
37.706
0
LINE
8
BLACK
6
CONTINUOUS
10
-36.5813
20
37.706
11
-34.698
21
37.706
0
LINE
8
BLACK
6
CONTINUOUS
10
-34.698
20
37.706
11
-34.686
21
37.7457
0
LINE
8
BLACK
6
CONTINUOUS
10
-34.686
20
37.7457
11
-34.6629
21
37.7889
0
LINE
8
BLACK
6
CONTINUOUS
10
-34.6629
20
37.7889
11
-34.6318
21
37.8268
0
LINE
8
BLACK
6
CONTINUOUS
10
-34.6318
20
37.8268
11
-34.5939
21
37.8579
0
LINE
8
BLACK
6
CONTINUOUS
10
-34.5939
20
37.8579
11
-34.5507
21
37.881
0
LINE
8
BLACK
6
CONTINUOUS
10
-34.5507
20
37.881
11
-34.5038
21
37.8952
0
LINE
8
BLACK
6
CONTINUOUS
10
-34.5038
20
37.8952
11
-34.455
21
37.9
0
LINE
8
BLACK
6
CONTINUOUS
10
-34.455
20
37.9
11
-33.9688
21
37.9
0
LINE
8
BLACK
6
CONTINUOUS
10
-33.9688
20
37.9
11
-32.7976
21
39.0712
0
LINE
8
BLACK
6
CONTINUOUS
10
-32.7976
20
39.0712
11
-32.7857
21
39.0857
0
LINE
8
BLACK
6
CONTINUOUS
10
-32.7857
20
39.0857
11
-32.757
21
39.1092
0
LINE
8
BLACK
6
CONTINUOUS
10
-32.757
20
39.1092
11
-32.7277
21
39.1333
0
LINE
8
BLACK
6
CONTINUOUS
10
-32.7277
20
39.1333
11
-32.6615
21
39.1687
0
LINE
8
BLACK
6
CONTINUOUS
10
-32.6615
20
39.1687
11
-32.5897
21
39.1905
0
LINE
8
BLACK
6
CONTINUOUS
10
-32.5897
20
39.1905
11
-32.5337
21
39.196
0
LINE
8
BLACK
6
CONTINUOUS
10
-32.5337
20
39.196
11
-32.5337
21
39.196
0
LINE
8
BLACK
6
CONTINUOUS
10
-32.5337
20
39.196
11
-32.515
21
39.1978
0
LINE
8
BLACK
6
CONTINUOUS
10
-32.515
20
39.1978
11
-32.4963
21
39.196
0
LINE
8
BLACK
6
CONTINUOUS
10
-32.4963
20
39.196
11
-24.7587
21
39.196
0
LINE
8
BLACK
6
CONTINUOUS
10
-24.7587
20
39.196
11
-24.74
21
39.1978
0
LINE
8
BLACK
6
CONTINUOUS
10
-24.74
20
39.1978
11
-24.7213
21
39.196
0
LINE
8
BLACK
6
CONTINUOUS
10
-24.7213
20
39.196
11
-24.7213
21
39.196
0
LINE
8
BLACK
6
CONTINUOUS
10
-24.7213
20
39.196
11
-24.6653
21
39.1905
0
LINE
8
BLACK
6
CONTINUOUS
10
-24.6653
20
39.1905
11
-24.5935
21
39.1687
0
LINE
8
BLACK
6
CONTINUOUS
10
-24.5935
20
39.1687
11
-24.5273
21
39.1333
0
LINE
8
BLACK
6
CONTINUOUS
10
-24.5273
20
39.1333
11
-24.4693
21
39.0857
0
LINE
8
BLACK
6
CONTINUOUS
10
-24.4693
20
39.0857
11
-24.4574
21
39.0712
0
LINE
8
BLACK
6
CONTINUOUS
10
-24.4574
20
39.0712
11
-23.7088
21
38.3226
0
LINE
8
BLACK
6
CONTINUOUS
10
-23.7088
20
38.3226
11
-23.6943
21
38.3107
0
LINE
8
BLACK
6
CONTINUOUS
10
-23.6943
20
38.3107
11
-23.6824
21
38.2962
0
LINE
8
BLACK
6
CONTINUOUS
10
-23.6824
20
38.2962
11
-23.6824
21
38.2962
0
LINE
8
BLACK
6
CONTINUOUS
10
-23.6824
20
38.2962
11
-23.6467
21
38.2527
0
LINE
8
BLACK
6
CONTINUOUS
10
-23.6467
20
38.2527
11
-23.6113
21
38.1865
0
LINE
8
BLACK
6
CONTINUOUS
10
-23.6113
20
38.1865
11
-23.5895
21
38.1147
0
LINE
8
BLACK
6
CONTINUOUS
10
-23.5895
20
38.1147
11
-23.584
21
38.0587
0
LINE
8
BLACK
6
CONTINUOUS
10
-23.584
20
38.0587
11
-23.5822
21
38.04
0
LINE
8
BLACK
6
CONTINUOUS
10
-23.5822
20
38.04
11
-23.584
21
38.0213
0
LINE
8
BLACK
6
CONTINUOUS
10
-23.584
20
38.0213
11
-23.584
21
36.39
0
LINE
8
BLACK
6
CONTINUOUS
10
-23.584
20
36.39
11
-23.315
21
36.39
0
LINE
8
BLACK
6
CONTINUOUS
10
-23.315
20
36.39
11
-23.315
21
35.071
0
LINE
8
BLACK
6
CONTINUOUS
10
-23.315
20
35.071
11
-22.5717
21
35.071
0
LINE
8
BLACK
6
CONTINUOUS
10
-22.5717
20
35.071
11
-22.553
21
35.0728
0
LINE
8
BLACK
6
CONTINUOUS
10
-22.553
20
35.0728
11
-22.5343
21
35.071
0
LINE
8
BLACK
6
CONTINUOUS
10
-22.5343
20
35.071
11
-22.5343
21
35.071
0
LINE
8
BLACK
6
CONTINUOUS
10
-22.5343
20
35.071
11
-22.4783
21
35.0655
0
LINE
8
BLACK
6
CONTINUOUS
10
-22.4783
20
35.0655
11
-22.4065
21
35.0437
0
LINE
8
BLACK
6
CONTINUOUS
10
-22.4065
20
35.0437
11
-22.3403
21
35.0083
0
LINE
8
BLACK
6
CONTINUOUS
10
-22.3403
20
35.0083
11
-22.2823
21
34.9607
0
LINE
8
BLACK
6
CONTINUOUS
10
-22.2823
20
34.9607
11
-22.2704
21
34.9462
0
LINE
8
BLACK
6
CONTINUOUS
10
-22.2704
20
34.9462
11
-19.6338
21
32.3096
0
LINE
8
BLACK
6
CONTINUOUS
10
-19.6338
20
32.3096
11
-19.6193
21
32.2977
0
LINE
8
BLACK
6
CONTINUOUS
10
-19.6193
20
32.2977
11
-19.5957
21
32.269
0
LINE
8
BLACK
6
CONTINUOUS
10
-19.5957
20
32.269
11
-19.5717
21
32.2397
0
LINE
8
BLACK
6
CONTINUOUS
10
-19.5717
20
32.2397
11
-19.5385
21
32.1777
0
LINE
8
BLACK
6
CONTINUOUS
10
-19.5385
20
32.1777
11
-19.5363
21
32.1735
0
LINE
8
BLACK
6
CONTINUOUS
10
-19.5363
20
32.1735
11
-19.5145
21
32.1017
0
LINE
8
BLACK
6
CONTINUOUS
10
-19.5145
20
32.1017
11
-19.5096
21
32.0514
0
LINE
8
BLACK
6
CONTINUOUS
10
-19.5096
20
32.0514
11
-19.5072
21
32.027
0
LINE
8
BLACK
6
CONTINUOUS
10
-19.5072
20
32.027
11
-19.509
21
32.0083
0
LINE
8
BLACK
6
CONTINUOUS
10
-19.509
20
32.0083
11
-19.509
21
27.808
0
LINE
8
BLACK
6
CONTINUOUS
10
-19.509
20
27.808
11
-19.4693
21
27.796
0
LINE
8
BLACK
6
CONTINUOUS
10
-7.29531
20
23.5955
11
-7.22349
21
23.5737
0
LINE
8
BLACK
6
CONTINUOUS
10
-7.22349
20
23.5737
11
-7.1573
21
23.5383
0
LINE
8
BLACK
6
CONTINUOUS
10
-7.1573
20
23.5383
11
-7.11382
21
23.5026
0
LINE
8
BLACK
6
CONTINUOUS
10
-7.11382
20
23.5026
11
-5.38382
21
21.7726
0
LINE
8
BLACK
6
CONTINUOUS
10
-5.38382
20
21.7726
11
-5.36929
21
21.7607
0
LINE
8
BLACK
6
CONTINUOUS
10
-5.36929
20
21.7607
11
-5.34575
21
21.732
0
LINE
8
BLACK
6
CONTINUOUS
10
-5.34575
20
21.732
11
-5.32168
21
21.7027
0
LINE
8
BLACK
6
CONTINUOUS
10
-5.32168
20
21.7027
11
-5.31321
21
21.6869
0
LINE
8
BLACK
6
CONTINUOUS
10
-5.31321
20
21.6869
11
-5.2863
21
21.6365
0
LINE
8
BLACK
6
CONTINUOUS
10
-5.2863
20
21.6365
11
-5.26451
21
21.5647
0
LINE
8
BLACK
6
CONTINUOUS
10
-5.26451
20
21.5647
11
-5.259
21
21.5087
0
LINE
8
BLACK
6
CONTINUOUS
10
-5.259
20
21.5087
11
-5.259
21
21.5087
0
LINE
8
BLACK
6
CONTINUOUS
10
-5.259
20
21.5087
11
-5.25716
21
21.49
0
LINE
8
BLACK
6
CONTINUOUS
10
-5.25716
20
21.49
11
-5.259
21
21.4713
0
LINE
8
BLACK
6
CONTINUOUS
10
-5.259
20
21.4713
11
-5.259
21
12.8254
0
LINE
8
BLACK
6
CONTINUOUS
10
-5.259
20
12.8254
11
-5.24433
21
12.821
0
LINE
8
BLACK
6
CONTINUOUS
10
-5.24433
20
12.821
11
-5.20111
21
12.7979
0
LINE
8
BLACK
6
CONTINUOUS
10
-5.20111
20
12.7979
11
-5.16322
21
12.7668
0
LINE
8
BLACK
6
CONTINUOUS
10
-5.16322
20
12.7668
11
-5.13213
21
12.7289
0
LINE
8
BLACK
6
CONTINUOUS
10
-5.13213
20
12.7289
11
-5.10903
21
12.6857
0
LINE
8
BLACK
6
CONTINUOUS
10
-5.10903
20
12.6857
11
-5.0948
21
12.6388
0
LINE
8
BLACK
6
CONTINUOUS
10
-5.0948
20
12.6388
11
-5.09
21
12.59
0
LINE
8
BLACK
6
CONTINUOUS
10
-5.09
20
12.59
11
-5.09
21
11.69
0
LINE
8
BLACK
6
CONTINUOUS
10
-5.09
20
11.69
11
-5.0948
21
11.6412
0
LINE
8
BLACK
6
CONTINUOUS
10
-5.0948
20
11.6412
11
-5.10903
21
11.5943
0
LINE
8
BLACK
6
CONTINUOUS
10
-5.10903
20
11.5943
11
-5.13213
21
11.5511
0
LINE
8
BLACK
6
CONTINUOUS
10
-5.13213
20
11.5511
11
-5.16322
21
11.5132
0
LINE
8
BLACK
6
CONTINUOUS
10
-5.16322
20
11.5132
11
-5.20111
21
11.4821
0
LINE
8
BLACK
6
CONTINUOUS
10
-5.20111
20
11.4821
11
-5.24433
21
11.459
0
LINE
8
BLACK
6
CONTINUOUS
10
-5.24433
20
11.459
11
-5.259
21
11.4546
0
LINE
8
BLACK
6
CONTINUOUS
10
-5.259
20
11.4546
11
-5.259
21
11.2478
0
LINE
8
BLACK
6
CONTINUOUS
10
-5.259
20
11.2478
11
-4.53382
21
10.5226
0
LINE
8
BLACK
6
CONTINUOUS
10
-4.53382
20
10.5226
11
-4.52452
21
10.515
0
LINE
8
BLACK
6
CONTINUOUS
10
-4.52452
20
10.515
11
-4.29
21
10.515
0
LINE
8
BLACK
6
CONTINUOUS
10
-4.29
20
10.515
11
-4.29
21
9.665
0
LINE
8
BLACK
6
CONTINUOUS
10
-4.29
20
9.665
11
-4.409
21
9.665
0
LINE
8
BLACK
6
CONTINUOUS
10
-4.409
20
9.665
11
-4.409
21
4.215
0
LINE
8
BLACK
6
CONTINUOUS
10
-4.409
20
4.215
11
-4.29
21
4.215
0
LINE
8
BLACK
6
CONTINUOUS
10
-4.29
20
4.215
11
-4.29
21
3.365
0
LINE
8
BLACK
6
CONTINUOUS
10
-4.29
20
3.365
11
-5.29
21
3.365
0
LINE
8
BLACK
6
CONTINUOUS
10
-5.29
20
3.365
11
-5.29
21
4.215
0
LINE
8
BLACK
6
CONTINUOUS
10
-5.29
20
4.215
11
-5.171
21
4.215
0
LINE
8
BLACK
6
CONTINUOUS
10
-5.171
20
4.215
11
-5.171
21
9.665
0
LINE
8
BLACK
6
CONTINUOUS
10
-5.171
20
9.665
11
-5.29
21
9.665
0
LINE
8
BLACK
6
CONTINUOUS
10
-5.29
20
9.665
11
-5.29
21
10.2012
0
LINE
8
BLACK
6
CONTINUOUS
10
-5.29
20
10.2012
11
-5.89617
21
10.8074
0
LINE
8
BLACK
6
CONTINUOUS
10
-5.89617
20
10.8074
11
-5.91071
21
10.8193
0
LINE
8
BLACK
6
CONTINUOUS
10
-5.91071
20
10.8193
11
-5.93074
21
10.8437
0
LINE
8
BLACK
6
CONTINUOUS
10
-5.93074
20
10.8437
11
-5.95832
21
10.8773
0
LINE
8
BLACK
6
CONTINUOUS
10
-5.95832
20
10.8773
11
-5.9937
21
10.9435
0
LINE
8
BLACK
6
CONTINUOUS
10
-5.9937
20
10.9435
11
-6.01549
21
11.0153
0
LINE
8
BLACK
6
CONTINUOUS
10
-6.01549
20
11.0153
11
-6.02284
21
11.09
0
LINE
8
BLACK
6
CONTINUOUS
10
-6.02284
20
11.09
11
-6.021
21
11.1087
0
LINE
8
BLACK
6
CONTINUOUS
10
-6.021
20
11.1087
11
-6.021
21
11.4431
0
LINE
8
BLACK
6
CONTINUOUS
10
-6.021
20
11.4431
11
-6.03877
21
11.4448
0
LINE
8
BLACK
6
CONTINUOUS
10
-6.03877
20
11.4448
11
-6.08567
21
11.459
0
LINE
8
BLACK
6
CONTINUOUS
10
-6.08567
20
11.459
11
-6.12889
21
11.4821
0
LINE
8
BLACK
6
CONTINUOUS
10
-6.12889
20
11.4821
11
-6.16678
21
11.5132
0
LINE
8
BLACK
6
CONTINUOUS
10
-6.16678
20
11.5132
11
-6.19787
21
11.5511
0
LINE
8
BLACK
6
CONTINUOUS
10
-6.19787
20
11.5511
11
-6.22097
21
11.5943
0
LINE
8
BLACK
6
CONTINUOUS
10
-6.22097
20
11.5943
11
-6.2352
21
11.6412
0
LINE
8
BLACK
6
CONTINUOUS
10
-6.2352
20
11.6412
11
-6.24
21
11.69
0
LINE
8
BLACK
6
CONTINUOUS
10
-6.24
20
11.69
11
-6.24
21
12.59
0
LINE
8
BLACK
6
CONTINUOUS
10
-6.24
20
12.59
11
-6.2352
21
12.6388
0
LINE
8
BLACK
6
CONTINUOUS
10
-6.2352
20
12.6388
11
-6.22097
21
12.6857
0
LINE
8
BLACK
6
CONTINUOUS
10
-6.22097
20
12.6857
11
-6.19787
21
12.7289
0
LINE
8
BLACK
6
CONTINUOUS
10
-6.19787
20
12.7289
11
-6.16678
21
12.7668
0
LINE
8
BLACK
6
CONTINUOUS
10
-6.16678
20
12.7668
11
-6.12889
21
12.7979
0
LINE
8
BLACK
6
CONTINUOUS
10
-6.12889
20
12.7979
11
-6.08567
21
12.821
0
LINE
8
BLACK
6
CONTINUOUS
10
-6.08567
20
12.821
11
-6.03877
21
12.8352
0
LINE
8
BLACK
6
CONTINUOUS
10
-6.03877
20
12.8352
11
-6.021
21
12.8369
0
LINE
8
BLACK
6
CONTINUOUS
10
-6.021
20
12.8369
11
-6.021
21
21.3322
0
LINE
8
BLACK
6
CONTINUOUS
10
-6.021
20
21.3322
11
-7.65264
21
22.9638
0
LINE
8
BLACK
6
CONTINUOUS
10
-7.65264
20
22.9638
11
-7.68832
21
23.0073
0
LINE
8
BLACK
6
CONTINUOUS
10
-7.68832
20
23.0073
11
-7.6934
21
23.0168
0
LINE
8
BLACK
6
CONTINUOUS
10
-7.6934
20
23.0168
11
-11.875
21
23.0168
0
LINE
8
BLACK
6
CONTINUOUS
10
-11.875
20
23.0168
11
-11.9048
21
23.0197
0
LINE
8
BLACK
6
CONTINUOUS
10
-11.9048
20
23.0197
11
-11.9057
21
23.02
0
LINE
8
BLACK
6
CONTINUOUS
10
-11.9057
20
23.02
11
-12.59
21
23.02
0
LINE
8
BLACK
6
CONTINUOUS
10
-12.59
20
23.02
11
-12.59
21
23.42
0
LINE
8
BLACK
6
CONTINUOUS
10
-12.59
20
23.42
11
-11.9057
21
23.42
0
LINE
8
BLACK
6
CONTINUOUS
10
-11.9057
20
23.42
11
-11.9048
21
23.4203
0
LINE
8
BLACK
6
CONTINUOUS
10
-11.9048
20
23.4203
11
-11.875
21
23.4232
0
LINE
8
BLACK
6
CONTINUOUS
10
-11.875
20
23.4232
11
-7.6934
21
23.4232
0
LINE
8
BLACK
6
CONTINUOUS
10
-7.6934
20
23.4232
11
-7.68832
21
23.4327
0
LINE
8
BLACK
6
CONTINUOUS
10
-7.68832
20
23.4327
11
-7.64071
21
23.4907
0
LINE
8
BLACK
6
CONTINUOUS
10
-7.64071
20
23.4907
11
-7.5827
21
23.5383
0
LINE
8
BLACK
6
CONTINUOUS
10
-7.5827
20
23.5383
11
-7.51651
21
23.5737
0
LINE
8
BLACK
6
CONTINUOUS
10
-7.51651
20
23.5737
11
-7.44469
21
23.5955
0
LINE
8
BLACK
6
CONTINUOUS
10
-7.44469
20
23.5955
11
-7.37
21
23.6028
0
LINE
8
BLACK
6
CONTINUOUS
10
-7.37
20
23.6028
11
-7.29531
21
23.5955
0
LINE
8
BLACK
6
CONTINUOUS
10
-8.77
20
22.7742
11
-8.76003
21
22.7732
0
LINE
8
BLACK
6
CONTINUOUS
10
-8.76003
20
22.7732
11
-8.76002
21
22.7732
0
LINE
8
BLACK
6
CONTINUOUS
10
-8.76002
20
22.7732
11
-8.73017
21
22.7703
0
LINE
8
BLACK
6
CONTINUOUS
10
-8.73017
20
22.7703
11
-8.69186
21
22.7586
0
LINE
8
BLACK
6
CONTINUOUS
10
-8.69186
20
22.7586
11
-8.65656
21
22.7398
0
LINE
8
BLACK
6
CONTINUOUS
10
-8.65656
20
22.7398
11
-8.62562
21
22.7144
0
LINE
8
BLACK
6
CONTINUOUS
10
-8.62562
20
22.7144
11
-8.61925
21
22.7066
0
LINE
8
BLACK
6
CONTINUOUS
10
-8.61925
20
22.7066
11
-8.32499
21
22.4124
0
LINE
8
BLACK
6
CONTINUOUS
10
-8.32499
20
22.4124
11
-8.31469
21
22.4155
0
LINE
8
BLACK
6
CONTINUOUS
10
-8.31469
20
22.4155
11
-8.24
21
22.4228
0
LINE
8
BLACK
6
CONTINUOUS
10
-8.24
20
22.4228
11
-8.16531
21
22.4155
0
LINE
8
BLACK
6
CONTINUOUS
10
-8.16531
20
22.4155
11
-8.09349
21
22.3937
0
LINE
8
BLACK
6
CONTINUOUS
10
-8.09349
20
22.3937
11
-8.0273
21
22.3583
0
LINE
8
BLACK
6
CONTINUOUS
10
-8.0273
20
22.3583
11
-7.98382
21
22.3226
0
LINE
8
BLACK
6
CONTINUOUS
10
-7.98382
20
22.3226
11
-7.45883
21
21.7976
0
LINE
8
BLACK
6
CONTINUOUS
10
-7.45883
20
21.7976
11
-7.44429
21
21.7857
0
LINE
8
BLACK
6
CONTINUOUS
10
-7.44429
20
21.7857
11
-7.43236
21
21.7712
0
LINE
8
BLACK
6
CONTINUOUS
10
-7.43236
20
21.7712
11
-7.39668
21
21.7277
0
LINE
8
BLACK
6
CONTINUOUS
10
-7.39668
20
21.7277
11
-7.37485
21
21.6869
0
LINE
8
BLACK
6
CONTINUOUS
10
-7.37485
20
21.6869
11
-7.3613
21
21.6615
0
LINE
8
BLACK
6
CONTINUOUS
10
-7.3613
20
21.6615
11
-7.33951
21
21.5897
0
LINE
8
BLACK
6
CONTINUOUS
10
-7.33951
20
21.5897
11
-7.334
21
21.5337
0
LINE
8
BLACK
6
CONTINUOUS
10
-7.334
20
21.5337
11
-7.33216
21
21.515
0
LINE
8
BLACK
6
CONTINUOUS
10
-7.33216
20
21.515
11
-7.334
21
21.4963
0
LINE
8
BLACK
6
CONTINUOUS
10
-7.334
20
21.4963
11
-7.334
21
12.833
0
LINE
8
BLACK
6
CONTINUOUS
10
-7.334
20
12.833
11
-7.29433
21
12.821
0
LINE
8
BLACK
6
CONTINUOUS
10
-7.29433
20
12.821
11
-7.25111
21
12.7979
0
LINE
8
BLACK
6
CONTINUOUS
10
-7.25111
20
12.7979
11
-7.21322
21
12.7668
0
LINE
8
BLACK
6
CONTINUOUS
10
-7.21322
20
12.7668
11
-7.18213
21
12.7289
0
LINE
8
BLACK
6
CONTINUOUS
10
-7.18213
20
12.7289
11
-7.15903
21
12.6857
0
LINE
8
BLACK
6
CONTINUOUS
10
-7.15903
20
12.6857
11
-7.1448
21
12.6388
0
LINE
8
BLACK
6
CONTINUOUS
10
-7.1448
20
12.6388
11
-7.14
21
12.59
0
LINE
8
BLACK
6
CONTINUOUS
10
-7.14
20
12.59
11
-7.14
21
11.69
0
LINE
8
BLACK
6
CONTINUOUS
10
-7.14
20
11.69
11
-7.1448
21
11.6412
0
LINE
8
BLACK
6
CONTINUOUS
10
-7.1448
20
11.6412
11
-7.15903
21
11.5943
0
LINE
8
BLACK
6
CONTINUOUS
10
-7.15903
20
11.5943
11
-7.18213
21
11.5511
0
LINE
8
BLACK
6
CONTINUOUS
10
-7.18213
20
11.5511
11
-7.21322
21
11.5132
0
LINE
8
BLACK
6
CONTINUOUS
10
-7.21322
20
11.5132
11
-7.25111
21
11.4821
0
LINE
8
BLACK
6
CONTINUOUS
10
-7.25111
20
11.4821
11
-7.29433
21
11.459
0
LINE
8
BLACK
6
CONTINUOUS
10
-7.29433
20
11.459
11
-7.334
21
11.447
0
LINE
8
BLACK
6
CONTINUOUS
10
-7.334
20
11.447
11
-7.334
21
10.7837
0
LINE
8
BLACK
6
CONTINUOUS
10
-7.334
20
10.7837
11
-7.33216
21
10.765
0
LINE
8
BLACK
6
CONTINUOUS
10
-7.33216
20
10.765
11
-7.334
21
10.7463
0
LINE
8
BLACK
6
CONTINUOUS
10
-7.334
20
10.7463
11
-7.334
21
10.7463
0
LINE
8
BLACK
6
CONTINUOUS
10
-7.334
20
10.7463
11
-7.33951
21
10.6903
0
LINE
8
BLACK
6
CONTINUOUS
10
-7.33951
20
10.6903
11
-7.35583
21
10.6365
0
LINE
8
BLACK
6
CONTINUOUS
10
-7.35583
20
10.6365
11
-7.3613
21
10.6185
0
LINE
8
BLACK
6
CONTINUOUS
10
-7.3613
20
10.6185
11
-7.39668
21
10.5523
0
LINE
8
BLACK
6
CONTINUOUS
10
-7.39668
20
10.5523
11
-7.42075
21
10.523
0
LINE
8
BLACK
6
CONTINUOUS
10
-7.42075
20
10.523
11
-7.44429
21
10.4943
0
LINE
8
BLACK
6
CONTINUOUS
10
-7.44429
20
10.4943
11
-7.45883
21
10.4824
0
LINE
8
BLACK
6
CONTINUOUS
10
-7.45883
20
10.4824
11
-8.09
21
9.85119
0
LINE
8
BLACK
6
CONTINUOUS
10
-8.09
20
9.85119
11
-8.09
21
9.665
0
LINE
8
BLACK
6
CONTINUOUS
10
-8.09
20
9.665
11
-8.209
21
9.665
0
LINE
8
BLACK
6
CONTINUOUS
10
-8.209
20
9.665
11
-8.209
21
4.215
0
LINE
8
BLACK
6
CONTINUOUS
10
-8.209
20
4.215
11
-8.09
21
4.215
0
LINE
8
BLACK
6
CONTINUOUS
10
-8.09
20
4.215
11
-8.09
21
3.365
0
LINE
8
BLACK
6
CONTINUOUS
10
-8.09
20
3.365
11
-9.09
21
3.365
0
LINE
8
BLACK
6
CONTINUOUS
10
-9.09
20
3.365
11
-9.09
21
4.215
0
LINE
8
BLACK
6
CONTINUOUS
10
-9.09
20
4.215
11
-8.971
21
4.215
0
LINE
8
BLACK
6
CONTINUOUS
10
-8.971
20
4.215
11
-8.971
21
9.665
0
LINE
8
BLACK
6
CONTINUOUS
10
-8.971
20
9.665
11
-9.09
21
9.665
0
LINE
8
BLACK
6
CONTINUOUS
10
-9.09
20
9.665
11
-9.09
21
10.515
0
LINE
8
BLACK
6
CONTINUOUS
10
-9.09
20
10.515
11
-8.50381
21
10.515
0
LINE
8
BLACK
6
CONTINUOUS
10
-8.50381
20
10.515
11
-8.096
21
10.9228
0
LINE
8
BLACK
6
CONTINUOUS
10
-8.096
20
10.9228
11
-8.096
21
11.447
0
LINE
8
BLACK
6
CONTINUOUS
10
-8.096
20
11.447
11
-8.13567
21
11.459
0
LINE
8
BLACK
6
CONTINUOUS
10
-8.13567
20
11.459
11
-8.17889
21
11.4821
0
LINE
8
BLACK
6
CONTINUOUS
10
-8.17889
20
11.4821
11
-8.21678
21
11.5132
0
LINE
8
BLACK
6
CONTINUOUS
10
-8.21678
20
11.5132
11
-8.24787
21
11.5511
0
LINE
8
BLACK
6
CONTINUOUS
10
-8.24787
20
11.5511
11
-8.27097
21
11.5943
0
LINE
8
BLACK
6
CONTINUOUS
10
-8.27097
20
11.5943
11
-8.2852
21
11.6412
0
LINE
8
BLACK
6
CONTINUOUS
10
-8.2852
20
11.6412
11
-8.29
21
11.69
0
LINE
8
BLACK
6
CONTINUOUS
10
-8.29
20
11.69
11
-8.29
21
12.59
0
LINE
8
BLACK
6
CONTINUOUS
10
-8.29
20
12.59
11
-8.2852
21
12.6388
0
LINE
8
BLACK
6
CONTINUOUS
10
-8.2852
20
12.6388
11
-8.27097
21
12.6857
0
LINE
8
BLACK
6
CONTINUOUS
10
-8.27097
20
12.6857
11
-8.24787
21
12.7289
0
LINE
8
BLACK
6
CONTINUOUS
10
-8.24787
20
12.7289
11
-8.21678
21
12.7668
0
LINE
8
BLACK
6
CONTINUOUS
10
-8.21678
20
12.7668
11
-8.17889
21
12.7979
0
LINE
8
BLACK
6
CONTINUOUS
10
-8.17889
20
12.7979
11
-8.13567
21
12.821
0
LINE
8
BLACK
6
CONTINUOUS
10
-8.13567
20
12.821
11
-8.096
21
12.833
0
LINE
8
BLACK
6
CONTINUOUS
10
-8.096
20
12.833
11
-8.096
21
21.3572
0
LINE
8
BLACK
6
CONTINUOUS
10
-8.096
20
21.3572
11
-8.52264
21
21.7838
0
LINE
8
BLACK
6
CONTINUOUS
10
-8.52264
20
21.7838
11
-8.55832
21
21.8273
0
LINE
8
BLACK
6
CONTINUOUS
10
-8.55832
20
21.8273
11
-8.5937
21
21.8935
0
LINE
8
BLACK
6
CONTINUOUS
10
-8.5937
20
21.8935
11
-8.61549
21
21.9653
0
LINE
8
BLACK
6
CONTINUOUS
10
-8.61549
20
21.9653
11
-8.62284
21
22.04
0
LINE
8
BLACK
6
CONTINUOUS
10
-8.62284
20
22.04
11
-8.61549
21
22.1147
0
LINE
8
BLACK
6
CONTINUOUS
10
-8.61549
20
22.1147
11
-8.61236
21
22.125
0
LINE
8
BLACK
6
CONTINUOUS
10
-8.61236
20
22.125
11
-8.85417
21
22.3668
0
LINE
8
BLACK
6
CONTINUOUS
10
-8.85417
20
22.3668
11
-14.0414
21
22.3668
0
LINE
8
BLACK
6
CONTINUOUS
10
-14.0414
20
22.3668
11
-14.0498
21
22.3566
0
LINE
8
BLACK
6
CONTINUOUS
10
-14.0498
20
22.3566
11
-14.6368
21
21.7696
0
LINE
8
BLACK
6
CONTINUOUS
10
-14.6368
20
21.7696
11
-14.6368
21
18.9884
0
LINE
8
BLACK
6
CONTINUOUS
10
-14.6368
20
18.9884
11
-14.6273
21
18.9833
0
LINE
8
BLACK
6
CONTINUOUS
10
-14.6273
20
18.9833
11
-14.5693
21
18.9357
0
LINE
8
BLACK
6
CONTINUOUS
10
-14.5693
20
18.9357
11
-14.5217
21
18.8777
0
LINE
8
BLACK
6
CONTINUOUS
10
-14.5217
20
18.8777
11
-14.4863
21
18.8115
0
LINE
8
BLACK
6
CONTINUOUS
10
-14.4863
20
18.8115
11
-14.4645
21
18.7397
0
LINE
8
BLACK
6
CONTINUOUS
10
-14.4645
20
18.7397
11
-14.4572
21
18.665
0
LINE
8
BLACK
6
CONTINUOUS
10
-14.4572
20
18.665
11
-14.4645
21
18.5903
0
LINE
8
BLACK
6
CONTINUOUS
10
-14.4645
20
18.5903
11
-14.4863
21
18.5185
0
LINE
8
BLACK
6
CONTINUOUS
10
-14.4863
20
18.5185
11
-14.5217
21
18.4523
0
LINE
8
BLACK
6
CONTINUOUS
10
-14.5217
20
18.4523
11
-14.5574
21
18.4088
0
LINE
8
BLACK
6
CONTINUOUS
10
-14.5574
20
18.4088
11
-14.834
21
18.1322
0
LINE
8
BLACK
6
CONTINUOUS
10
-14.834
20
18.1322
11
-14.834
21
17.39
0
LINE
8
BLACK
6
CONTINUOUS
10
-14.834
20
17.39
11
-14.79
21
17.39
0
LINE
8
BLACK
6
CONTINUOUS
10
-14.79
20
17.39
11
-14.79
21
16.39
0
LINE
8
BLACK
6
CONTINUOUS
10
-14.79
20
16.39
11
-15.64
21
16.39
0
LINE
8
BLACK
6
CONTINUOUS
10
-15.64
20
16.39
11
-15.64
21
16.509
0
LINE
8
BLACK
6
CONTINUOUS
10
-15.64
20
16.509
11
-21.09
21
16.509
0
LINE
8
BLACK
6
CONTINUOUS
10
-21.09
20
16.509
11
-21.09
21
16.39
0
LINE
8
BLACK
6
CONTINUOUS
10
-21.09
20
16.39
11
-21.94
21
16.39
0
LINE
8
BLACK
6
CONTINUOUS
10
-21.94
20
16.39
11
-21.94
21
17.39
0
LINE
8
BLACK
6
CONTINUOUS
10
-21.94
20
17.39
11
-21.09
21
17.39
0
LINE
8
BLACK
6
CONTINUOUS
10
-21.09
20
17.39
11
-21.09
21
17.271
0
LINE
8
BLACK
6
CONTINUOUS
10
-21.09
20
17.271
11
-15.64
21
17.271
0
LINE
8
BLACK
6
CONTINUOUS
10
-15.64
20
17.271
11
-15.64
21
17.39
0
LINE
8
BLACK
6
CONTINUOUS
10
-15.64
20
17.39
11
-15.596
21
17.39
0
LINE
8
BLACK
6
CONTINUOUS
10
-15.596
20
17.39
11
-15.596
21
17.9337
0
LINE
8
BLACK
6
CONTINUOUS
10
-15.596
20
17.9337
11
-15.596
21
18.2713
0
LINE
8
BLACK
6
CONTINUOUS
10
-15.596
20
18.2713
11
-15.5978
21
18.29
0
LINE
8
BLACK
6
CONTINUOUS
10
-15.5978
20
18.29
11
-15.5947
21
18.3217
0
LINE
8
BLACK
6
CONTINUOUS
10
-15.5947
20
18.3217
11
-15.5905
21
18.3647
0
LINE
8
BLACK
6
CONTINUOUS
10
-15.5905
20
18.3647
11
-15.5687
21
18.4365
0
LINE
8
BLACK
6
CONTINUOUS
10
-15.5687
20
18.4365
11
-15.5382
21
18.4935
0
LINE
8
BLACK
6
CONTINUOUS
10
-15.5382
20
18.4935
11
-15.5333
21
18.5027
0
LINE
8
BLACK
6
CONTINUOUS
10
-15.5333
20
18.5027
11
-15.5173
21
18.5222
0
LINE
8
BLACK
6
CONTINUOUS
10
-15.5173
20
18.5222
11
-15.4857
21
18.5607
0
LINE
8
BLACK
6
CONTINUOUS
10
-15.4857
20
18.5607
11
-15.4712
21
18.5726
0
LINE
8
BLACK
6
CONTINUOUS
10
-15.4712
20
18.5726
11
-15.0962
21
18.9476
0
LINE
8
BLACK
6
CONTINUOUS
10
-15.0962
20
18.9476
11
-15.0527
21
18.9833
0
LINE
8
BLACK
6
CONTINUOUS
10
-15.0527
20
18.9833
11
-15.0432
21
18.9884
0
LINE
8
BLACK
6
CONTINUOUS
10
-15.0432
20
18.9884
11
-15.0432
21
19.175
0
LINE
8
BLACK
6
CONTINUOUS
10
-15.0432
20
19.175
11
-15.0432
21
19.175
0
LINE
8
BLACK
6
CONTINUOUS
10
-15.0432
20
19.175
11
-15.0432
21
21.8438
0
LINE
8
BLACK
6
CONTINUOUS
10
-15.0432
20
21.8438
11
-15.0442
21
21.8537
0
LINE
8
BLACK
6
CONTINUOUS
10
-15.0442
20
21.8537
11
-15.0432
21
21.8637
0
LINE
8
BLACK
6
CONTINUOUS
10
-15.0432
20
21.8637
11
-15.0432
21
21.8637
0
LINE
8
BLACK
6
CONTINUOUS
10
-15.0432
20
21.8637
11
-15.0403
21
21.8936
0
LINE
8
BLACK
6
CONTINUOUS
10
-15.0403
20
21.8936
11
-15.0286
21
21.9319
0
LINE
8
BLACK
6
CONTINUOUS
10
-15.0286
20
21.9319
11
-15.0137
21
21.9598
0
LINE
8
BLACK
6
CONTINUOUS
10
-15.0137
20
21.9598
11
-15.0098
21
21.9672
0
LINE
8
BLACK
6
CONTINUOUS
10
-15.0098
20
21.9672
11
-14.9989
21
21.9805
0
LINE
8
BLACK
6
CONTINUOUS
10
-14.9989
20
21.9805
11
-14.9844
21
21.9981
0
LINE
8
BLACK
6
CONTINUOUS
10
-14.9844
20
21.9981
11
-14.9766
21
22.0045
0
LINE
8
BLACK
6
CONTINUOUS
10
-14.9766
20
22.0045
11
-14.6143
21
22.3668
0
LINE
8
BLACK
6
CONTINUOUS
10
-14.6143
20
22.3668
11
-16.6236
21
22.3668
0
LINE
8
BLACK
6
CONTINUOUS
10
-16.6236
20
22.3668
11
-16.6336
21
22.3658
0
LINE
8
BLACK
6
CONTINUOUS
10
-16.6336
20
22.3658
11
-16.6436
21
22.3668
0
LINE
8
BLACK
6
CONTINUOUS
10
-16.6436
20
22.3668
11
-19.585
21
22.3668
0
LINE
8
BLACK
6
CONTINUOUS
10
-19.585
20
22.3668
11
-19.595
21
22.3658
0
LINE
8
BLACK
6
CONTINUOUS
10
-19.595
20
22.3658
11
-19.605
21
22.3668
0
LINE
8
BLACK
6
CONTINUOUS
10
-19.605
20
22.3668
11
-19.605
21
22.3668
0
LINE
8
BLACK
6
CONTINUOUS
10
-19.605
20
22.3668
11
-19.6348
21
22.3697
0
LINE
8
BLACK
6
CONTINUOUS
10
-19.6348
20
22.3697
11
-19.6731
21
22.3814
0
LINE
8
BLACK
6
CONTINUOUS
10
-19.6731
20
22.3814
11
-19.7084
21
22.4002
0
LINE
8
BLACK
6
CONTINUOUS
10
-19.7084
20
22.4002
11
-19.7394
21
22.4256
0
LINE
8
BLACK
6
CONTINUOUS
10
-19.7394
20
22.4256
11
-19.7457
21
22.4334
0
LINE
8
BLACK
6
CONTINUOUS
10
-19.7457
20
22.4334
11
-21.5807
21
24.2684
0
LINE
8
BLACK
6
CONTINUOUS
10
-21.5807
20
24.2684
11
-21.615
21
24.265
0
LINE
8
BLACK
6
CONTINUOUS
10
-21.615
20
24.265
11
-22.265
21
24.265
0
LINE
8
BLACK
6
CONTINUOUS
10
-22.265
20
24.265
11
-22.3138
21
24.2698
0
LINE
8
BLACK
6
CONTINUOUS
10
-22.3138
20
24.2698
11
-22.3607
21
24.284
0
LINE
8
BLACK
6
CONTINUOUS
10
-22.3607
20
24.284
11
-22.4039
21
24.3071
0
LINE
8
BLACK
6
CONTINUOUS
10
-22.4039
20
24.3071
11
-22.4418
21
24.3382
0
LINE
8
BLACK
6
CONTINUOUS
10
-22.4418
20
24.3382
11
-22.4729
21
24.3761
0
LINE
8
BLACK
6
CONTINUOUS
10
-22.4729
20
24.3761
11
-22.496
21
24.4193
0
LINE
8
BLACK
6
CONTINUOUS
10
-22.496
20
24.4193
11
-22.5102
21
24.4662
0
LINE
8
BLACK
6
CONTINUOUS
10
-22.5102
20
24.4662
11
-22.515
21
24.515
0
LINE
8
BLACK
6
CONTINUOUS
10
-22.515
20
24.515
11
-22.515
21
25.415
0
LINE
8
BLACK
6
CONTINUOUS
10
-22.515
20
25.415
11
-22.5102
21
25.4638
0
LINE
8
BLACK
6
CONTINUOUS
10
-22.5102
20
25.4638
11
-22.496
21
25.5107
0
LINE
8
BLACK
6
CONTINUOUS
10
-22.496
20
25.5107
11
-22.4729
21
25.5539
0
LINE
8
BLACK
6
CONTINUOUS
10
-22.4729
20
25.5539
11
-22.4418
21
25.5918
0
LINE
8
BLACK
6
CONTINUOUS
10
-22.4418
20
25.5918
11
-22.4039
21
25.6229
0
LINE
8
BLACK
6
CONTINUOUS
10
-22.4039
20
25.6229
11
-22.3607
21
25.646
0
LINE
8
BLACK
6
CONTINUOUS
10
-22.3607
20
25.646
11
-22.321
21
25.658
0
LINE
8
BLACK
6
CONTINUOUS
10
-22.321
20
25.658
11
-22.321
21
26.422
0
LINE
8
BLACK
6
CONTINUOUS
10
-22.321
20
26.422
11
-22.3607
21
26.434
0
LINE
8
BLACK
6
CONTINUOUS
10
-22.3607
20
26.434
11
-22.4039
21
26.4571
0
LINE
8
BLACK
6
CONTINUOUS
10
-22.4039
20
26.4571
11
-22.4418
21
26.4882
0
LINE
8
BLACK
6
CONTINUOUS
10
-22.4418
20
26.4882
11
-22.4729
21
26.5261
0
LINE
8
BLACK
6
CONTINUOUS
10
-22.4729
20
26.5261
11
-22.496
21
26.5693
0
LINE
8
BLACK
6
CONTINUOUS
10
-22.496
20
26.5693
11
-22.5102
21
26.6162
0
LINE
8
BLACK
6
CONTINUOUS
10
-22.5102
20
26.6162
11
-22.515
21
26.665
0
LINE
8
BLACK
6
CONTINUOUS
10
-22.515
20
26.665
11
-22.515
21
27.1512
0
LINE
8
BLACK
6
CONTINUOUS
10
-22.515
20
27.1512
11
-23.4028
21
28.039
0
LINE
8
BLACK
6
CONTINUOUS
10
-23.4028
20
28.039
11
-28.465
21
28.039
0
LINE
8
BLACK
6
CONTINUOUS
10
-28.465
20
28.039
11
-28.465
21
28.02
0
LINE
8
BLACK
6
CONTINUOUS
10
-28.465
20
28.02
11
-29.365
21
28.02
0
LINE
8
BLACK
6
CONTINUOUS
10
-29.365
20
28.02
11
-29.365
21
28.82
0
LINE
8
BLACK
6
CONTINUOUS
10
-29.365
20
28.82
11
-28.465
21
28.82
0
LINE
8
BLACK
6
CONTINUOUS
10
-28.465
20
28.82
11
-28.465
21
28.801
0
LINE
8
BLACK
6
CONTINUOUS
10
-28.465
20
28.801
11
-23.2637
21
28.801
0
LINE
8
BLACK
6
CONTINUOUS
10
-23.2637
20
28.801
11
-23.245
21
28.8028
0
LINE
8
BLACK
6
CONTINUOUS
10
-23.245
20
28.8028
11
-23.2263
21
28.801
0
LINE
8
BLACK
6
CONTINUOUS
10
-23.2263
20
28.801
11
-23.2263
21
28.801
0
LINE
8
BLACK
6
CONTINUOUS
10
-23.2263
20
28.801
11
-23.1703
21
28.7955
0
LINE
8
BLACK
6
CONTINUOUS
10
-23.1703
20
28.7955
11
-23.0985
21
28.7737
0
LINE
8
BLACK
6
CONTINUOUS
10
-23.0985
20
28.7737
11
-23.0323
21
28.7383
0
LINE
8
BLACK
6
CONTINUOUS
10
-23.0323
20
28.7383
11
-22.9743
21
28.6907
0
LINE
8
BLACK
6
CONTINUOUS
10
-22.9743
20
28.6907
11
-22.9624
21
28.6762
0
LINE
8
BLACK
6
CONTINUOUS
10
-22.9624
20
28.6762
11
-22.1012
21
27.815
0
LINE
8
BLACK
6
CONTINUOUS
10
-22.1012
20
27.815
11
-21.615
21
27.815
0
LINE
8
BLACK
6
CONTINUOUS
10
-21.615
20
27.815
11
-21.5662
21
27.8102
0
LINE
8
BLACK
6
CONTINUOUS
10
-21.5662
20
27.8102
11
-21.5193
21
27.796
0
LINE
8
BLACK
6
CONTINUOUS
10
-21.5193
20
27.796
11
-21.4761
21
27.7729
0
LINE
8
BLACK
6
CONTINUOUS
10
-21.4761
20
27.7729
11
-21.4382
21
27.7418
0
LINE
8
BLACK
6
CONTINUOUS
10
-21.4382
20
27.7418
11
-21.4071
21
27.7039
0
LINE
8
BLACK
6
CONTINUOUS
10
-21.4071
20
27.7039
11
-21.384
21
27.6607
0
LINE
8
BLACK
6
CONTINUOUS
10
-21.384
20
27.6607
11
-21.3698
21
27.6138
0
LINE
8
BLACK
6
CONTINUOUS
10
-21.3698
20
27.6138
11
-21.365
21
27.565
0
LINE
8
BLACK
6
CONTINUOUS
10
-21.365
20
27.565
11
-21.365
21
26.665
0
LINE
8
BLACK
6
CONTINUOUS
10
-21.365
20
26.665
11
-21.3698
21
26.6162
0
LINE
8
BLACK
6
CONTINUOUS
10
-21.3698
20
26.6162
11
-21.384
21
26.5693
0
LINE
8
BLACK
6
CONTINUOUS
10
-21.384
20
26.5693
11
-21.4071
21
26.5261
0
LINE
8
BLACK
6
CONTINUOUS
10
-21.4071
20
26.5261
11
-21.4382
21
26.4882
0
LINE
8
BLACK
6
CONTINUOUS
10
-21.4382
20
26.4882
11
-21.4761
21
26.4571
0
LINE
8
BLACK
6
CONTINUOUS
10
-21.4761
20
26.4571
11
-21.5193
21
26.434
0
LINE
8
BLACK
6
CONTINUOUS
10
-21.5193
20
26.434
11
-21.559
21
26.422
0
LINE
8
BLACK
6
CONTINUOUS
10
-21.559
20
26.422
11
-21.559
21
25.658
0
LINE
8
BLACK
6
CONTINUOUS
10
-21.559
20
25.658
11
-21.5193
21
25.646
0
LINE
8
BLACK
6
CONTINUOUS
10
-21.5193
20
25.646
11
-21.4761
21
25.6229
0
LINE
8
BLACK
6
CONTINUOUS
10
-21.4761
20
25.6229
11
-21.4382
21
25.5918
0
LINE
8
BLACK
6
CONTINUOUS
10
-21.4382
20
25.5918
11
-21.4071
21
25.5539
0
LINE
8
BLACK
6
CONTINUOUS
10
-21.4071
20
25.5539
11
-21.384
21
25.5107
0
LINE
8
BLACK
6
CONTINUOUS
10
-21.384
20
25.5107
11
-21.3698
21
25.4638
0
LINE
8
BLACK
6
CONTINUOUS
10
-21.3698
20
25.4638
11
-21.365
21
25.415
0
LINE
8
BLACK
6
CONTINUOUS
10
-21.365
20
25.415
11
-21.365
21
24.6274
0
LINE
8
BLACK
6
CONTINUOUS
10
-21.365
20
24.6274
11
-19.5108
21
22.7732
0
LINE
8
BLACK
6
CONTINUOUS
10
-19.5108
20
22.7732
11
-16.7178
21
22.7732
0
LINE
8
BLACK
6
CONTINUOUS
10
-16.7178
20
22.7732
11
-13.6182
21
25.8728
0
LINE
8
BLACK
6
CONTINUOUS
10
-13.6182
20
25.8728
11
-13.6182
21
26.9416
0
LINE
8
BLACK
6
CONTINUOUS
10
-13.6182
20
26.9416
11
-13.6277
21
26.9467
0
LINE
8
BLACK
6
CONTINUOUS
10
-13.6277
20
26.9467
11
-13.6857
21
26.9943
0
LINE
8
BLACK
6
CONTINUOUS
10
-13.6857
20
26.9943
11
-13.7333
21
27.0523
0
LINE
8
BLACK
6
CONTINUOUS
10
-13.7333
20
27.0523
11
-13.7687
21
27.1185
0
LINE
8
BLACK
6
CONTINUOUS
10
-13.7687
20
27.1185
11
-13.7905
21
27.1903
0
LINE
8
BLACK
6
CONTINUOUS
10
-13.7905
20
27.1903
11
-13.7978
21
27.265
0
LINE
8
BLACK
6
CONTINUOUS
10
-13.7978
20
27.265
11
-13.7905
21
27.3397
0
LINE
8
BLACK
6
CONTINUOUS
10
-13.7905
20
27.3397
11
-13.7687
21
27.4115
0
LINE
8
BLACK
6
CONTINUOUS
10
-13.7687
20
27.4115
11
-13.7333
21
27.4777
0
LINE
8
BLACK
6
CONTINUOUS
10
-13.7333
20
27.4777
11
-13.6976
21
27.5212
0
LINE
8
BLACK
6
CONTINUOUS
10
-13.6976
20
27.5212
11
-13.1226
21
28.0962
0
LINE
8
BLACK
6
CONTINUOUS
10
-13.1226
20
28.0962
11
-13.1107
21
28.1107
0
LINE
8
BLACK
6
CONTINUOUS
10
-13.1107
20
28.1107
11
-13.0708
21
28.1435
0
LINE
8
BLACK
6
CONTINUOUS
10
-13.0708
20
28.1435
11
-13.0527
21
28.1583
0
LINE
8
BLACK
6
CONTINUOUS
10
-13.0527
20
28.1583
11
-12.9865
21
28.1937
0
LINE
8
BLACK
6
CONTINUOUS
10
-12.9865
20
28.1937
11
-12.9147
21
28.2155
0
LINE
8
BLACK
6
CONTINUOUS
10
-12.9147
20
28.2155
11
-12.8587
21
28.221
0
LINE
8
BLACK
6
CONTINUOUS
10
-12.8587
20
28.221
11
-12.8587
21
28.221
0
LINE
8
BLACK
6
CONTINUOUS
10
-12.8587
20
28.221
11
-12.84
21
28.2228
0
LINE
8
BLACK
6
CONTINUOUS
10
-12.84
20
28.2228
11
-12.8213
21
28.221
0
LINE
8
BLACK
6
CONTINUOUS
10
-12.8213
20
28.221
11
-8.29
21
28.221
0
LINE
8
BLACK
6
CONTINUOUS
10
-8.29
20
28.221
11
-8.29
21
28.29
0
LINE
8
BLACK
6
CONTINUOUS
10
-8.29
20
28.29
11
-8.2852
21
28.3388
0
LINE
8
BLACK
6
CONTINUOUS
10
-8.2852
20
28.3388
11
-8.27097
21
28.3857
0
LINE
8
BLACK
6
CONTINUOUS
10
-8.27097
20
28.3857
11
-8.24787
21
28.4289
0
LINE
8
BLACK
6
CONTINUOUS
10
-8.24787
20
28.4289
11
-8.21678
21
28.4668
0
LINE
8
BLACK
6
CONTINUOUS
10
-8.21678
20
28.4668
11
-8.17889
21
28.4979
0
LINE
8
BLACK
6
CONTINUOUS
10
-8.17889
20
28.4979
11
-8.13567
21
28.521
0
LINE
8
BLACK
6
CONTINUOUS
10
-8.13567
20
28.521
11
-8.096
21
28.533
0
LINE
8
BLACK
6
CONTINUOUS
10
-8.096
20
28.533
11
-8.096
21
28.8572
0
LINE
8
BLACK
6
CONTINUOUS
10
-8.096
20
28.8572
11
-8.70381
21
29.465
0
LINE
8
BLACK
6
CONTINUOUS
10
-8.70381
20
29.465
11
-9.09
21
29.465
0
LINE
8
BLACK
6
CONTINUOUS
10
-9.09
20
29.465
11
-9.09
21
30.315
0
LINE
8
BLACK
6
CONTINUOUS
10
-9.09
20
30.315
11
-8.971
21
30.315
0
LINE
8
BLACK
6
CONTINUOUS
10
-8.971
20
30.315
11
-8.971
21
35.765
0
LINE
8
BLACK
6
CONTINUOUS
10
-8.971
20
35.765
11
-9.09
21
35.765
0
LINE
8
BLACK
6
CONTINUOUS
10
-9.09
20
35.765
11
-9.09
21
36.615
0
LINE
8
BLACK
6
CONTINUOUS
10
-9.09
20
36.615
11
-8.09
21
36.615
0
LINE
8
BLACK
6
CONTINUOUS
10
-8.09
20
36.615
11
-8.09
21
35.765
0
LINE
8
BLACK
6
CONTINUOUS
10
-8.09
20
35.765
11
-8.209
21
35.765
0
LINE
8
BLACK
6
CONTINUOUS
10
-8.209
20
35.765
11
-8.209
21
30.315
0
LINE
8
BLACK
6
CONTINUOUS
10
-8.209
20
30.315
11
-8.09
21
30.315
0
LINE
8
BLACK
6
CONTINUOUS
10
-8.09
20
30.315
11
-8.09
21
29.9288
0
LINE
8
BLACK
6
CONTINUOUS
10
-8.09
20
29.9288
11
-7.45883
21
29.2976
0
LINE
8
BLACK
6
CONTINUOUS
10
-7.45883
20
29.2976
11
-7.44429
21
29.2857
0
LINE
8
BLACK
6
CONTINUOUS
10
-7.44429
20
29.2857
11
-7.42075
21
29.257
0
LINE
8
BLACK
6
CONTINUOUS
10
-7.42075
20
29.257
11
-7.39668
21
29.2277
0
LINE
8
BLACK
6
CONTINUOUS
10
-7.39668
20
29.2277
11
-7.36547
21
29.1693
0
LINE
8
BLACK
6
CONTINUOUS
10
-7.36547
20
29.1693
11
-7.3613
21
29.1615
0
LINE
8
BLACK
6
CONTINUOUS
10
-7.3613
20
29.1615
11
-7.33951
21
29.0897
0
LINE
8
BLACK
6
CONTINUOUS
10
-7.33951
20
29.0897
11
-7.334
21
29.0337
0
LINE
8
BLACK
6
CONTINUOUS
10
-7.334
20
29.0337
11
-7.33216
21
29.015
0
LINE
8
BLACK
6
CONTINUOUS
10
-7.33216
20
29.015
11
-7.334
21
28.9963
0
LINE
8
BLACK
6
CONTINUOUS
10
-7.334
20
28.9963
11
-7.334
21
28.533
0
LINE
8
BLACK
6
CONTINUOUS
10
-7.334
20
28.533
11
-7.29433
21
28.521
0
LINE
8
BLACK
6
CONTINUOUS
10
-7.29433
20
28.521
11
-7.25111
21
28.4979
0
LINE
8
BLACK
6
CONTINUOUS
10
-7.25111
20
28.4979
11
-7.21322
21
28.4668
0
LINE
8
BLACK
6
CONTINUOUS
10
-7.21322
20
28.4668
11
-7.18213
21
28.4289
0
LINE
8
BLACK
6
CONTINUOUS
10
-7.18213
20
28.4289
11
-7.15903
21
28.3857
0
LINE
8
BLACK
6
CONTINUOUS
10
-7.15903
20
28.3857
11
-7.1448
21
28.3388
0
LINE
8
BLACK
6
CONTINUOUS
10
-7.1448
20
28.3388
11
-7.14
21
28.29
0
LINE
8
BLACK
6
CONTINUOUS
10
-7.14
20
28.29
11
-7.14
21
27.39
0
LINE
8
BLACK
6
CONTINUOUS
10
-7.14
20
27.39
11
-7.1448
21
27.3412
0
LINE
8
BLACK
6
CONTINUOUS
10
-7.1448
20
27.3412
11
-7.15903
21
27.2943
0
LINE
8
BLACK
6
CONTINUOUS
10
-7.15903
20
27.2943
11
-7.18213
21
27.2511
0
LINE
8
BLACK
6
CONTINUOUS
10
-7.18213
20
27.2511
11
-7.21322
21
27.2132
0
LINE
8
BLACK
6
CONTINUOUS
10
-7.21322
20
27.2132
11
-7.25111
21
27.1821
0
LINE
8
BLACK
6
CONTINUOUS
10
-7.25111
20
27.1821
11
-7.29433
21
27.159
0
LINE
8
BLACK
6
CONTINUOUS
10
-7.29433
20
27.159
11
-7.34123
21
27.1448
0
LINE
8
BLACK
6
CONTINUOUS
10
-7.34123
20
27.1448
11
-7.39
21
27.14
0
LINE
8
BLACK
6
CONTINUOUS
10
-7.39
20
27.14
11
-8.04
21
27.14
0
LINE
8
BLACK
6
CONTINUOUS
10
-8.04
20
27.14
11
-8.08877
21
27.1448
0
LINE
8
BLACK
6
CONTINUOUS
10
-8.08877
20
27.1448
11
-8.13567
21
27.159
0
LINE
8
BLACK
6
CONTINUOUS
10
-8.13567
20
27.159
11
-8.17889
21
27.1821
0
LINE
8
BLACK
6
CONTINUOUS
10
-8.17889
20
27.1821
11
-8.21678
21
27.2132
0
LINE
8
BLACK
6
CONTINUOUS
10
-8.21678
20
27.2132
11
-8.24787
21
27.2511
0
LINE
8
BLACK
6
CONTINUOUS
10
-8.24787
20
27.2511
11
-8.27097
21
27.2943
0
LINE
8
BLACK
6
CONTINUOUS
10
-8.27097
20
27.2943
11
-8.2852
21
27.3412
0
LINE
8
BLACK
6
CONTINUOUS
10
-8.2852
20
27.3412
11
-8.29
21
27.39
0
LINE
8
BLACK
6
CONTINUOUS
10
-8.29
20
27.39
11
-8.29
21
27.459
0
LINE
8
BLACK
6
CONTINUOUS
10
-8.29
20
27.459
11
-12.6822
21
27.459
0
LINE
8
BLACK
6
CONTINUOUS
10
-12.6822
20
27.459
11
-13.1588
21
26.9824
0
LINE
8
BLACK
6
CONTINUOUS
10
-13.1588
20
26.9824
11
-13.2023
21
26.9467
0
LINE
8
BLACK
6
CONTINUOUS
10
-13.2023
20
26.9467
11
-13.2118
21
26.9416
0
LINE
8
BLACK
6
CONTINUOUS
10
-13.2118
20
26.9416
11
-13.2118
21
25.7986
0
LINE
8
BLACK
6
CONTINUOUS
10
-13.2118
20
25.7986
11
-13.2108
21
25.7886
0
LINE
8
BLACK
6
CONTINUOUS
10
-13.2108
20
25.7886
11
-13.2118
21
25.7786
0
LINE
8
BLACK
6
CONTINUOUS
10
-13.2118
20
25.7786
11
-13.2118
21
25.7786
0
LINE
8
BLACK
6
CONTINUOUS
10
-13.2118
20
25.7786
11
-13.2147
21
25.7488
0
LINE
8
BLACK
6
CONTINUOUS
10
-13.2147
20
25.7488
11
-13.2264
21
25.7105
0
LINE
8
BLACK
6
CONTINUOUS
10
-13.2264
20
25.7105
11
-13.2264
21
25.7105
0
LINE
8
BLACK
6
CONTINUOUS
10
-13.2264
20
25.7105
11
-13.2452
21
25.6752
0
LINE
8
BLACK
6
CONTINUOUS
10
-13.2452
20
25.6752
11
-13.2575
21
25.6602
0
LINE
8
BLACK
6
CONTINUOUS
10
-13.2575
20
25.6602
11
-13.2706
21
25.6442
0
LINE
8
BLACK
6
CONTINUOUS
10
-13.2706
20
25.6442
11
-13.2784
21
25.6379
0
LINE
8
BLACK
6
CONTINUOUS
10
-13.2784
20
25.6379
11
-16.143
21
22.7732
0
LINE
8
BLACK
6
CONTINUOUS
10
-16.143
20
22.7732
11
-8.77997
21
22.7732
0
LINE
8
BLACK
6
CONTINUOUS
10
-8.77997
20
22.7732
11
-8.77
21
22.7742
0
LINE
8
BLACK
6
CONTINUOUS
10
-21.09
20
5.24
11
-21.94
21
5.24
0
LINE
8
BLACK
6
CONTINUOUS
10
-21.94
20
5.24
11
-21.94
21
6.24
0
LINE
8
BLACK
6
CONTINUOUS
10
-21.94
20
6.24
11
-21.09
21
6.24
0
LINE
8
BLACK
6
CONTINUOUS
10
-21.09
20
6.24
11
-21.09
21
6.121
0
LINE
8
BLACK
6
CONTINUOUS
10
-21.09
20
6.121
11
-17.1848
21
6.121
0
LINE
8
BLACK
6
CONTINUOUS
10
-17.1848
20
6.121
11
-17.5962
21
6.53235
0
LINE
8
BLACK
6
CONTINUOUS
10
-17.5962
20
6.53235
11
-17.6107
21
6.54429
0
LINE
8
BLACK
6
CONTINUOUS
10
-17.6107
20
6.54429
11
-17.6423
21
6.58282
0
LINE
8
BLACK
6
CONTINUOUS
10
-17.6423
20
6.58282
11
-17.6583
21
6.6023
0
LINE
8
BLACK
6
CONTINUOUS
10
-17.6583
20
6.6023
11
-17.6937
21
6.66849
0
LINE
8
BLACK
6
CONTINUOUS
10
-17.6937
20
6.66849
11
-17.7001
21
6.68969
0
LINE
8
BLACK
6
CONTINUOUS
10
-17.7001
20
6.68969
11
-17.7155
21
6.74031
0
LINE
8
BLACK
6
CONTINUOUS
10
-17.7155
20
6.74031
11
-17.721
21
6.79629
0
LINE
8
BLACK
6
CONTINUOUS
10
-17.721
20
6.79629
11
-17.721
21
6.79629
0
LINE
8
BLACK
6
CONTINUOUS
10
-17.721
20
6.79629
11
-17.7228
21
6.815
0
LINE
8
BLACK
6
CONTINUOUS
10
-17.7228
20
6.815
11
-17.721
21
6.83371
0
LINE
8
BLACK
6
CONTINUOUS
10
-17.721
20
6.83371
11
-17.721
21
7.647
0
LINE
8
BLACK
6
CONTINUOUS
10
-17.721
20
7.647
11
-17.7607
21
7.65903
0
LINE
8
BLACK
6
CONTINUOUS
10
-17.7607
20
7.65903
11
-17.8039
21
7.68213
0
LINE
8
BLACK
6
CONTINUOUS
10
-17.8039
20
7.68213
11
-17.8418
21
7.71322
0
LINE
8
BLACK
6
CONTINUOUS
10
-17.8418
20
7.71322
11
-17.8729
21
7.75111
0
LINE
8
BLACK
6
CONTINUOUS
10
-17.8729
20
7.75111
11
-17.896
21
7.79433
0
LINE
8
BLACK
6
CONTINUOUS
10
-17.896
20
7.79433
11
-17.9102
21
7.84123
0
LINE
8
BLACK
6
CONTINUOUS
10
-17.9102
20
7.84123
11
-17.915
21
7.89
0
LINE
8
BLACK
6
CONTINUOUS
10
-17.915
20
7.89
11
-17.915
21
8.79
0
LINE
8
BLACK
6
CONTINUOUS
10
-17.915
20
8.79
11
-17.9102
21
8.83877
0
LINE
8
BLACK
6
CONTINUOUS
10
-17.9102
20
8.83877
11
-17.896
21
8.88567
0
LINE
8
BLACK
6
CONTINUOUS
10
-17.896
20
8.88567
11
-17.8729
21
8.92889
0
LINE
8
BLACK
6
CONTINUOUS
10
-17.8729
20
8.92889
11
-17.8418
21
8.96678
0
LINE
8
BLACK
6
CONTINUOUS
10
-17.8418
20
8.96678
11
-17.8039
21
8.99787
0
LINE
8
BLACK
6
CONTINUOUS
10
-17.8039
20
8.99787
11
-17.7607
21
9.02097
0
LINE
8
BLACK
6
CONTINUOUS
10
-17.7607
20
9.02097
11
-17.7138
21
9.0352
0
LINE
8
BLACK
6
CONTINUOUS
10
-17.7138
20
9.0352
11
-17.665
21
9.04
0
LINE
8
BLACK
6
CONTINUOUS
10
-17.665
20
9.04
11
-17.015
21
9.04
0
LINE
8
BLACK
6
CONTINUOUS
10
-17.015
20
9.04
11
-16.9662
21
9.0352
0
LINE
8
BLACK
6
CONTINUOUS
10
-16.9662
20
9.0352
11
-16.9193
21
9.02097
0
LINE
8
BLACK
6
CONTINUOUS
10
-16.9193
20
9.02097
11
-16.8761
21
8.99787
0
LINE
8
BLACK
6
CONTINUOUS
10
-16.8761
20
8.99787
11
-16.8382
21
8.96678
0
LINE
8
BLACK
6
CONTINUOUS
10
-16.8382
20
8.96678
11
-16.8071
21
8.92889
0
LINE
8
BLACK
6
CONTINUOUS
10
-16.8071
20
8.92889
11
-16.784
21
8.88567
0
LINE
8
BLACK
6
CONTINUOUS
10
-16.784
20
8.88567
11
-16.7698
21
8.83877
0
LINE
8
BLACK
6
CONTINUOUS
10
-16.7698
20
8.83877
11
-16.765
21
8.79
0
LINE
8
BLACK
6
CONTINUOUS
10
-16.765
20
8.79
11
-16.765
21
8.746
0
LINE
8
BLACK
6
CONTINUOUS
10
-16.765
20
8.746
11
-14.5478
21
8.746
0
LINE
8
BLACK
6
CONTINUOUS
10
-14.5478
20
8.746
11
-9.646
21
13.6478
0
LINE
8
BLACK
6
CONTINUOUS
10
-9.646
20
13.6478
11
-9.646
21
20.2936
0
LINE
8
BLACK
6
CONTINUOUS
10
-9.646
20
20.2936
11
-9.64764
21
20.2952
0
LINE
8
BLACK
6
CONTINUOUS
10
-9.64764
20
20.2952
11
-9.68332
21
20.3387
0
LINE
8
BLACK
6
CONTINUOUS
10
-9.68332
20
20.3387
11
-9.7187
21
20.4049
0
LINE
8
BLACK
6
CONTINUOUS
10
-9.7187
20
20.4049
11
-9.74049
21
20.4767
0
LINE
8
BLACK
6
CONTINUOUS
10
-9.74049
20
20.4767
11
-9.74784
21
20.5514
0
LINE
8
BLACK
6
CONTINUOUS
10
-9.74784
20
20.5514
11
-9.74049
21
20.6261
0
LINE
8
BLACK
6
CONTINUOUS
10
-9.74049
20
20.6261
11
-9.73736
21
20.6364
0
LINE
8
BLACK
6
CONTINUOUS
10
-9.73736
20
20.6364
11
-10.8178
21
21.7168
0
LINE
8
BLACK
6
CONTINUOUS
10
-10.8178
20
21.7168
11
-11.875
21
21.7168
0
LINE
8
BLACK
6
CONTINUOUS
10
-11.875
20
21.7168
11
-11.9048
21
21.7197
0
LINE
8
BLACK
6
CONTINUOUS
10
-11.9048
20
21.7197
11
-11.9057
21
21.72
0
LINE
8
BLACK
6
CONTINUOUS
10
-11.9057
20
21.72
11
-12.59
21
21.72
0
LINE
8
BLACK
6
CONTINUOUS
10
-12.59
20
21.72
11
-12.59
21
22.12
0
LINE
8
BLACK
6
CONTINUOUS
10
-12.59
20
22.12
11
-11.9057
21
22.12
0
LINE
8
BLACK
6
CONTINUOUS
10
-11.9057
20
22.12
11
-11.9048
21
22.1203
0
LINE
8
BLACK
6
CONTINUOUS
10
-11.9048
20
22.1203
11
-11.875
21
22.1232
0
LINE
8
BLACK
6
CONTINUOUS
10
-11.875
20
22.1232
11
-10.7436
21
22.1232
0
LINE
8
BLACK
6
CONTINUOUS
10
-10.7436
20
22.1232
11
-10.7336
21
22.1242
0
LINE
8
BLACK
6
CONTINUOUS
10
-10.7336
20
22.1242
11
-10.7236
21
22.1232
0
LINE
8
BLACK
6
CONTINUOUS
10
-10.7236
20
22.1232
11
-10.7236
21
22.1232
0
LINE
8
BLACK
6
CONTINUOUS
10
-10.7236
20
22.1232
11
-10.6938
21
22.1203
0
LINE
8
BLACK
6
CONTINUOUS
10
-10.6938
20
22.1203
11
-10.6555
21
22.1086
0
LINE
8
BLACK
6
CONTINUOUS
10
-10.6555
20
22.1086
11
-10.6202
21
22.0898
0
LINE
8
BLACK
6
CONTINUOUS
10
-10.6202
20
22.0898
11
-10.5892
21
22.0644
0
LINE
8
BLACK
6
CONTINUOUS
10
-10.5892
20
22.0644
11
-10.5829
21
22.0566
0
LINE
8
BLACK
6
CONTINUOUS
10
-10.5829
20
22.0566
11
-9.44999
21
20.9238
0
LINE
8
BLACK
6
CONTINUOUS
10
-9.44999
20
20.9238
11
-9.43969
21
20.9269
0
LINE
8
BLACK
6
CONTINUOUS
10
-9.43969
20
20.9269
11
-9.365
21
20.9342
0
LINE
8
BLACK
6
CONTINUOUS
10
-9.365
20
20.9342
11
-9.29031
21
20.9269
0
LINE
8
BLACK
6
CONTINUOUS
10
-9.29031
20
20.9269
11
-9.21849
21
20.9051
0
LINE
8
BLACK
6
CONTINUOUS
10
-9.21849
20
20.9051
11
-9.1523
21
20.8697
0
LINE
8
BLACK
6
CONTINUOUS
10
-9.1523
20
20.8697
11
-9.10882
21
20.834
0
LINE
8
BLACK
6
CONTINUOUS
10
-9.10882
20
20.834
11
-9.00883
21
20.734
0
LINE
8
BLACK
6
CONTINUOUS
10
-9.00883
20
20.734
11
-8.99429
21
20.7221
0
LINE
8
BLACK
6
CONTINUOUS
10
-8.99429
20
20.7221
11
-8.94668
21
20.6641
0
LINE
8
BLACK
6
CONTINUOUS
10
-8.94668
20
20.6641
11
-8.9113
21
20.5979
0
LINE
8
BLACK
6
CONTINUOUS
10
-8.9113
20
20.5979
11
-8.88951
21
20.5261
0
LINE
8
BLACK
6
CONTINUOUS
10
-8.88951
20
20.5261
11
-8.884
21
20.4701
0
LINE
8
BLACK
6
CONTINUOUS
10
-8.884
20
20.4701
11
-8.884
21
20.4701
0
LINE
8
BLACK
6
CONTINUOUS
10
-8.884
20
20.4701
11
-8.88216
21
20.4514
0
LINE
8
BLACK
6
CONTINUOUS
10
-8.88216
20
20.4514
11
-8.884
21
20.4327
0
LINE
8
BLACK
6
CONTINUOUS
10
-8.884
20
20.4327
11
-8.884
21
13.5087
0
LINE
8
BLACK
6
CONTINUOUS
10
-8.884
20
13.5087
11
-8.88216
21
13.49
0
LINE
8
BLACK
6
CONTINUOUS
10
-8.88216
20
13.49
11
-8.884
21
13.4713
0
LINE
8
BLACK
6
CONTINUOUS
10
-8.884
20
13.4713
11
-8.884
21
13.4713
0
LINE
8
BLACK
6
CONTINUOUS
10
-8.884
20
13.4713
11
-8.88951
21
13.4153
0
LINE
8
BLACK
6
CONTINUOUS
10
-8.88951
20
13.4153
11
-8.89941
21
13.3827
0
LINE
8
BLACK
6
CONTINUOUS
10
-8.89941
20
13.3827
11
-8.9113
21
13.3435
0
LINE
8
BLACK
6
CONTINUOUS
10
-8.9113
20
13.3435
11
-8.94668
21
13.2773
0
LINE
8
BLACK
6
CONTINUOUS
10
-8.94668
20
13.2773
11
-8.98236
21
13.2338
0
LINE
8
BLACK
6
CONTINUOUS
10
-8.98236
20
13.2338
11
-8.98236
21
13.2338
0
LINE
8
BLACK
6
CONTINUOUS
10
-8.98236
20
13.2338
11
-8.99429
21
13.2193
0
LINE
8
BLACK
6
CONTINUOUS
10
-8.99429
20
13.2193
11
-9.00882
21
13.2074
0
LINE
8
BLACK
6
CONTINUOUS
10
-9.00882
20
13.2074
11
-14.1074
21
8.10883
0
LINE
8
BLACK
6
CONTINUOUS
10
-14.1074
20
8.10883
11
-14.1193
21
8.09429
0
LINE
8
BLACK
6
CONTINUOUS
10
-14.1193
20
8.09429
11
-14.1773
21
8.04668
0
LINE
8
BLACK
6
CONTINUOUS
10
-14.1773
20
8.04668
11
-14.2435
21
8.0113
0
LINE
8
BLACK
6
CONTINUOUS
10
-14.2435
20
8.0113
11
-14.3153
21
7.98951
0
LINE
8
BLACK
6
CONTINUOUS
10
-14.3153
20
7.98951
11
-14.3713
21
7.984
0
LINE
8
BLACK
6
CONTINUOUS
10
-14.3713
20
7.984
11
-14.3713
21
7.984
0
LINE
8
BLACK
6
CONTINUOUS
10
-14.3713
20
7.984
11
-14.39
21
7.98216
0
LINE
8
BLACK
6
CONTINUOUS
10
-14.39
20
7.98216
11
-14.4087
21
7.984
0
LINE
8
BLACK
6
CONTINUOUS
10
-14.4087
20
7.984
11
-16.765
21
7.984
0
LINE
8
BLACK
6
CONTINUOUS
10
-16.765
20
7.984
11
-16.765
21
7.89
0
LINE
8
BLACK
6
CONTINUOUS
10
-16.765
20
7.89
11
-16.7698
21
7.84123
0
LINE
8
BLACK
6
CONTINUOUS
10
-16.7698
20
7.84123
11
-16.784
21
7.79433
0
LINE
8
BLACK
6
CONTINUOUS
10
-16.784
20
7.79433
11
-16.8071
21
7.75111
0
LINE
8
BLACK
6
CONTINUOUS
10
-16.8071
20
7.75111
11
-16.8382
21
7.71322
0
LINE
8
BLACK
6
CONTINUOUS
10
-16.8382
20
7.71322
11
-16.8761
21
7.68213
0
LINE
8
BLACK
6
CONTINUOUS
10
-16.8761
20
7.68213
11
-16.9193
21
7.65903
0
LINE
8
BLACK
6
CONTINUOUS
10
-16.9193
20
7.65903
11
-16.959
21
7.647
0
LINE
8
BLACK
6
CONTINUOUS
10
-16.959
20
7.647
11
-16.959
21
6.97281
0
LINE
8
BLACK
6
CONTINUOUS
10
-16.959
20
6.97281
11
-16.1072
21
6.121
0
LINE
8
BLACK
6
CONTINUOUS
10
-16.1072
20
6.121
11
-15.64
21
6.121
0
LINE
8
BLACK
6
CONTINUOUS
10
-15.64
20
6.121
11
-15.64
21
6.24
0
LINE
8
BLACK
6
CONTINUOUS
10
-15.64
20
6.24
11
-14.79
21
6.24
0
LINE
8
BLACK
6
CONTINUOUS
10
-14.79
20
6.24
11
-14.79
21
5.24
0
LINE
8
BLACK
6
CONTINUOUS
10
-14.79
20
5.24
11
-15.64
21
5.24
0
LINE
8
BLACK
6
CONTINUOUS
10
-15.64
20
5.24
11
-15.64
21
5.359
0
LINE
8
BLACK
6
CONTINUOUS
10
-15.64
20
5.359
11
-16.2463
21
5.359
0
LINE
8
BLACK
6
CONTINUOUS
10
-16.2463
20
5.359
11
-16.265
21
5.35716
0
LINE
8
BLACK
6
CONTINUOUS
10
-16.265
20
5.35716
11
-16.2837
21
5.359
0
LINE
8
BLACK
6
CONTINUOUS
10
-16.2837
20
5.359
11
-21.09
21
5.359
0
LINE
8
BLACK
6
CONTINUOUS
10
-21.09
20
5.359
11
-21.09
21
5.24
0
LINE
8
BLACK
6
CONTINUOUS
10
-11.6523
20
18.9833
11
-11.6088
21
18.9476
0
LINE
8
BLACK
6
CONTINUOUS
10
-11.6088
20
18.9476
11
-11.5838
21
18.9226
0
LINE
8
BLACK
6
CONTINUOUS
10
-11.5838
20
18.9226
11
-11.5693
21
18.9107
0
LINE
8
BLACK
6
CONTINUOUS
10
-11.5693
20
18.9107
11
-11.5217
21
18.8527
0
LINE
8
BLACK
6
CONTINUOUS
10
-11.5217
20
18.8527
11
-11.4863
21
18.7865
0
LINE
8
BLACK
6
CONTINUOUS
10
-11.4863
20
18.7865
11
-11.4645
21
18.7147
0
LINE
8
BLACK
6
CONTINUOUS
10
-11.4645
20
18.7147
11
-11.459
21
18.6587
0
LINE
8
BLACK
6
CONTINUOUS
10
-11.459
20
18.6587
11
-11.459
21
18.6587
0
LINE
8
BLACK
6
CONTINUOUS
10
-11.459
20
18.6587
11
-11.4572
21
18.64
0
LINE
8
BLACK
6
CONTINUOUS
10
-11.4572
20
18.64
11
-11.459
21
18.6213
0
LINE
8
BLACK
6
CONTINUOUS
10
-11.459
20
18.6213
11
-11.459
21
13.2587
0
LINE
8
BLACK
6
CONTINUOUS
10
-11.459
20
13.2587
11
-11.4572
21
13.24
0
LINE
8
BLACK
6
CONTINUOUS
10
-11.4572
20
13.24
11
-11.459
21
13.2213
0
LINE
8
BLACK
6
CONTINUOUS
10
-11.459
20
13.2213
11
-11.459
21
13.2213
0
LINE
8
BLACK
6
CONTINUOUS
10
-11.459
20
13.2213
11
-11.4645
21
13.1653
0
LINE
8
BLACK
6
CONTINUOUS
10
-11.4645
20
13.1653
11
-11.4863
21
13.0935
0
LINE
8
BLACK
6
CONTINUOUS
10
-11.4863
20
13.0935
11
-11.4882
21
13.09
0
LINE
8
BLACK
6
CONTINUOUS
10
-11.4882
20
13.09
11
-11.5217
21
13.0273
0
LINE
8
BLACK
6
CONTINUOUS
10
-11.5217
20
13.0273
11
-11.5315
21
13.0153
0
LINE
8
BLACK
6
CONTINUOUS
10
-11.5315
20
13.0153
11
-11.5693
21
12.9693
0
LINE
8
BLACK
6
CONTINUOUS
10
-11.5693
20
12.9693
11
-11.5838
21
12.9574
0
LINE
8
BLACK
6
CONTINUOUS
10
-11.5838
20
12.9574
11
-14.3074
21
10.2338
0
LINE
8
BLACK
6
CONTINUOUS
10
-14.3074
20
10.2338
11
-14.3193
21
10.2193
0
LINE
8
BLACK
6
CONTINUOUS
10
-14.3193
20
10.2193
11
-14.3773
21
10.1717
0
LINE
8
BLACK
6
CONTINUOUS
10
-14.3773
20
10.1717
11
-14.4435
21
10.1363
0
LINE
8
BLACK
6
CONTINUOUS
10
-14.4435
20
10.1363
11
-14.5153
21
10.1145
0
LINE
8
BLACK
6
CONTINUOUS
10
-14.5153
20
10.1145
11
-14.5713
21
10.109
0
LINE
8
BLACK
6
CONTINUOUS
10
-14.5713
20
10.109
11
-14.5713
21
10.109
0
LINE
8
BLACK
6
CONTINUOUS
10
-14.5713
20
10.109
11
-14.59
21
10.1072
0
LINE
8
BLACK
6
CONTINUOUS
10
-14.59
20
10.1072
11
-14.6087
21
10.109
0
LINE
8
BLACK
6
CONTINUOUS
10
-14.6087
20
10.109
11
-16.765
21
10.109
0
LINE
8
BLACK
6
CONTINUOUS
10
-16.765
20
10.109
11
-16.765
21
10.04
0
LINE
8
BLACK
6
CONTINUOUS
10
-16.765
20
10.04
11
-16.7698
21
9.99123
0
LINE
8
BLACK
6
CONTINUOUS
10
-16.7698
20
9.99123
11
-16.784
21
9.94433
0
LINE
8
BLACK
6
CONTINUOUS
10
-16.784
20
9.94433
11
-16.8071
21
9.90111
0
LINE
8
BLACK
6
CONTINUOUS
10
-16.8071
20
9.90111
11
-16.8382
21
9.86322
0
LINE
8
BLACK
6
CONTINUOUS
10
-16.8382
20
9.86322
11
-16.8761
21
9.83213
0
LINE
8
BLACK
6
CONTINUOUS
10
-16.8761
20
9.83213
11
-16.9193
21
9.80903
0
LINE
8
BLACK
6
CONTINUOUS
10
-16.9193
20
9.80903
11
-16.9662
21
9.7948
0
LINE
8
BLACK
6
CONTINUOUS
10
-16.9662
20
9.7948
11
-17.015
21
9.79
0
LINE
8
BLACK
6
CONTINUOUS
10
-17.015
20
9.79
11
-17.665
21
9.79
0
LINE
8
BLACK
6
CONTINUOUS
10
-17.665
20
9.79
11
-17.7138
21
9.7948
0
LINE
8
BLACK
6
CONTINUOUS
10
-17.7138
20
9.7948
11
-17.7607
21
9.80903
0
LINE
8
BLACK
6
CONTINUOUS
10
-17.7607
20
9.80903
11
-17.8039
21
9.83213
0
LINE
8
BLACK
6
CONTINUOUS
10
-17.8039
20
9.83213
11
-17.8418
21
9.86322
0
LINE
8
BLACK
6
CONTINUOUS
10
-17.8418
20
9.86322
11
-17.8729
21
9.90111
0
LINE
8
BLACK
6
CONTINUOUS
10
-17.8729
20
9.90111
11
-17.896
21
9.94433
0
LINE
8
BLACK
6
CONTINUOUS
10
-17.896
20
9.94433
11
-17.9102
21
9.99123
0
LINE
8
BLACK
6
CONTINUOUS
10
-17.9102
20
9.99123
11
-17.915
21
10.04
0
LINE
8
BLACK
6
CONTINUOUS
10
-17.915
20
10.04
11
-17.915
21
10.94
0
LINE
8
BLACK
6
CONTINUOUS
10
-17.915
20
10.94
11
-17.9102
21
10.9888
0
LINE
8
BLACK
6
CONTINUOUS
10
-17.9102
20
10.9888
11
-17.896
21
11.0357
0
LINE
8
BLACK
6
CONTINUOUS
10
-17.896
20
11.0357
11
-17.8729
21
11.0789
0
LINE
8
BLACK
6
CONTINUOUS
10
-17.8729
20
11.0789
11
-17.8418
21
11.1168
0
LINE
8
BLACK
6
CONTINUOUS
10
-17.8418
20
11.1168
11
-17.8039
21
11.1479
0
LINE
8
BLACK
6
CONTINUOUS
10
-17.8039
20
11.1479
11
-17.7607
21
11.171
0
LINE
8
BLACK
6
CONTINUOUS
10
-17.7607
20
11.171
11
-17.721
21
11.183
0
LINE
8
BLACK
6
CONTINUOUS
10
-17.721
20
11.183
11
-17.721
21
11.9963
0
LINE
8
BLACK
6
CONTINUOUS
10
-17.721
20
11.9963
11
-17.7228
21
12.015
0
LINE
8
BLACK
6
CONTINUOUS
10
-17.7228
20
12.015
11
-17.7155
21
12.0897
0
LINE
8
BLACK
6
CONTINUOUS
10
-17.7155
20
12.0897
11
-17.6937
21
12.1615
0
LINE
8
BLACK
6
CONTINUOUS
10
-17.6937
20
12.1615
11
-17.6583
21
12.2277
0
LINE
8
BLACK
6
CONTINUOUS
10
-17.6583
20
12.2277
11
-17.6226
21
12.2712
0
LINE
8
BLACK
6
CONTINUOUS
10
-17.6226
20
12.2712
11
-17.6107
21
12.2857
0
LINE
8
BLACK
6
CONTINUOUS
10
-17.6107
20
12.2857
11
-17.5962
21
12.2976
0
LINE
8
BLACK
6
CONTINUOUS
10
-17.5962
20
12.2976
11
-17.1848
21
12.709
0
LINE
8
BLACK
6
CONTINUOUS
10
-17.1848
20
12.709
11
-21.09
21
12.709
0
LINE
8
BLACK
6
CONTINUOUS
10
-21.09
20
12.709
11
-21.09
21
12.59
0
LINE
8
BLACK
6
CONTINUOUS
10
-21.09
20
12.59
11
-21.94
21
12.59
0
LINE
8
BLACK
6
CONTINUOUS
10
-21.94
20
12.59
11
-21.94
21
13.59
0
LINE
8
BLACK
6
CONTINUOUS
10
-21.94
20
13.59
11
-21.09
21
13.59
0
LINE
8
BLACK
6
CONTINUOUS
10
-21.09
20
13.59
11
-21.09
21
13.471
0
LINE
8
BLACK
6
CONTINUOUS
10
-21.09
20
13.471
11
-16.2837
21
13.471
0
LINE
8
BLACK
6
CONTINUOUS
10
-16.2837
20
13.471
11
-16.265
21
13.4728
0
LINE
8
BLACK
6
CONTINUOUS
10
-16.265
20
13.4728
11
-16.2463
21
13.471
0
LINE
8
BLACK
6
CONTINUOUS
10
-16.2463
20
13.471
11
-15.64
21
13.471
0
LINE
8
BLACK
6
CONTINUOUS
10
-15.64
20
13.471
11
-15.64
21
13.59
0
LINE
8
BLACK
6
CONTINUOUS
10
-15.64
20
13.59
11
-14.79
21
13.59
0
LINE
8
BLACK
6
CONTINUOUS
10
-14.79
20
13.59
11
-14.79
21
12.59
0
LINE
8
BLACK
6
CONTINUOUS
10
-14.79
20
12.59
11
-15.64
21
12.59
0
LINE
8
BLACK
6
CONTINUOUS
10
-15.64
20
12.59
11
-15.64
21
12.709
0
LINE
8
BLACK
6
CONTINUOUS
10
-15.64
20
12.709
11
-16.1072
21
12.709
0
LINE
8
BLACK
6
CONTINUOUS
10
-16.1072
20
12.709
11
-16.959
21
11.8572
0
LINE
8
BLACK
6
CONTINUOUS
10
-16.959
20
11.8572
11
-16.959
21
11.183
0
LINE
8
BLACK
6
CONTINUOUS
10
-16.959
20
11.183
11
-16.9193
21
11.171
0
LINE
8
BLACK
6
CONTINUOUS
10
-16.9193
20
11.171
11
-16.8761
21
11.1479
0
LINE
8
BLACK
6
CONTINUOUS
10
-16.8761
20
11.1479
11
-16.8382
21
11.1168
0
LINE
8
BLACK
6
CONTINUOUS
10
-16.8382
20
11.1168
11
-16.8071
21
11.0789
0
LINE
8
BLACK
6
CONTINUOUS
10
-16.8071
20
11.0789
11
-16.784
21
11.0357
0
LINE
8
BLACK
6
CONTINUOUS
10
-16.784
20
11.0357
11
-16.7698
21
10.9888
0
LINE
8
BLACK
6
CONTINUOUS
10
-16.7698
20
10.9888
11
-16.765
21
10.94
0
LINE
8
BLACK
6
CONTINUOUS
10
-16.765
20
10.94
11
-16.765
21
10.871
0
LINE
8
BLACK
6
CONTINUOUS
10
-16.765
20
10.871
11
-14.7478
21
10.871
0
LINE
8
BLACK
6
CONTINUOUS
10
-14.7478
20
10.871
11
-12.221
21
13.3978
0
LINE
8
BLACK
6
CONTINUOUS
10
-12.221
20
13.3978
11
-12.221
21
16.0587
0
LINE
8
BLACK
6
CONTINUOUS
10
-12.221
20
16.0587
11
-12.221
21
18.5261
0
LINE
8
BLACK
6
CONTINUOUS
10
-12.221
20
18.5261
11
-12.2405
21
18.5903
0
LINE
8
BLACK
6
CONTINUOUS
10
-12.2405
20
18.5903
11
-12.2478
21
18.665
0
LINE
8
BLACK
6
CONTINUOUS
10
-12.2478
20
18.665
11
-12.2405
21
18.7397
0
LINE
8
BLACK
6
CONTINUOUS
10
-12.2405
20
18.7397
11
-12.2187
21
18.8115
0
LINE
8
BLACK
6
CONTINUOUS
10
-12.2187
20
18.8115
11
-12.1833
21
18.8777
0
LINE
8
BLACK
6
CONTINUOUS
10
-12.1833
20
18.8777
11
-12.1357
21
18.9357
0
LINE
8
BLACK
6
CONTINUOUS
10
-12.1357
20
18.9357
11
-12.0777
21
18.9833
0
LINE
8
BLACK
6
CONTINUOUS
10
-12.0777
20
18.9833
11
-12.0682
21
18.9884
0
LINE
8
BLACK
6
CONTINUOUS
10
-12.0682
20
18.9884
11
-12.0682
21
19.3736
0
LINE
8
BLACK
6
CONTINUOUS
10
-12.0682
20
19.3736
11
-12.0682
21
19.3736
0
LINE
8
BLACK
6
CONTINUOUS
10
-12.0682
20
19.3736
11
-12.0682
21
19.7668
0
LINE
8
BLACK
6
CONTINUOUS
10
-12.0682
20
19.7668
11
-12.4
21
19.7668
0
LINE
8
BLACK
6
CONTINUOUS
10
-12.4
20
19.7668
11
-12.4298
21
19.7697
0
LINE
8
BLACK
6
CONTINUOUS
10
-12.4298
20
19.7697
11
-12.4307
21
19.77
0
LINE
8
BLACK
6
CONTINUOUS
10
-12.4307
20
19.77
11
-12.59
21
19.77
0
LINE
8
BLACK
6
CONTINUOUS
10
-12.59
20
19.77
11
-12.59
21
19.9293
0
LINE
8
BLACK
6
CONTINUOUS
10
-12.59
20
19.9293
11
-12.5903
21
19.9302
0
LINE
8
BLACK
6
CONTINUOUS
10
-12.5903
20
19.9302
11
-12.5942
21
19.97
0
LINE
8
BLACK
6
CONTINUOUS
10
-12.5942
20
19.97
11
-12.5903
21
20.0098
0
LINE
8
BLACK
6
CONTINUOUS
10
-12.5903
20
20.0098
11
-12.59
21
20.0107
0
LINE
8
BLACK
6
CONTINUOUS
10
-12.59
20
20.0107
11
-12.59
21
20.17
0
LINE
8
BLACK
6
CONTINUOUS
10
-12.59
20
20.17
11
-12.4307
21
20.17
0
LINE
8
BLACK
6
CONTINUOUS
10
-12.4307
20
20.17
11
-12.4298
21
20.1703
0
LINE
8
BLACK
6
CONTINUOUS
10
-12.4298
20
20.1703
11
-12.4
21
20.1732
0
LINE
8
BLACK
6
CONTINUOUS
10
-12.4
20
20.1732
11
-11.875
21
20.1732
0
LINE
8
BLACK
6
CONTINUOUS
10
-11.875
20
20.1732
11
-11.865
21
20.1742
0
LINE
8
BLACK
6
CONTINUOUS
10
-11.865
20
20.1742
11
-11.855
21
20.1732
0
LINE
8
BLACK
6
CONTINUOUS
10
-11.855
20
20.1732
11
-11.8252
21
20.1703
0
LINE
8
BLACK
6
CONTINUOUS
10
-11.8252
20
20.1703
11
-11.8243
21
20.17
0
LINE
8
BLACK
6
CONTINUOUS
10
-11.8243
20
20.17
11
-11.14
21
20.17
0
LINE
8
BLACK
6
CONTINUOUS
10
-11.14
20
20.17
11
-11.14
21
19.77
0
LINE
8
BLACK
6
CONTINUOUS
10
-11.14
20
19.77
11
-11.6618
21
19.77
0
LINE
8
BLACK
6
CONTINUOUS
10
-11.6618
20
19.77
11
-11.6618
21
18.9884
0
LINE
8
BLACK
6
CONTINUOUS
10
-11.6618
20
18.9884
11
-11.6523
21
18.9833
0
LINE
8
BLACK
6
CONTINUOUS
10
-20.35
20
21.4732
11
-18.06
21
21.4732
0
LINE
8
BLACK
6
CONTINUOUS
10
-18.06
20
21.4732
11
-18.0302
21
21.4703
0
LINE
8
BLACK
6
CONTINUOUS
10
-18.0302
20
21.4703
11
-18.0293
21
21.47
0
LINE
8
BLACK
6
CONTINUOUS
10
-18.0293
20
21.47
11
-17.04
21
21.47
0
LINE
8
BLACK
6
CONTINUOUS
10
-17.04
20
21.47
11
-17.04
21
21.07
0
LINE
8
BLACK
6
CONTINUOUS
10
-17.04
20
21.07
11
-18.0293
21
21.07
0
LINE
8
BLACK
6
CONTINUOUS
10
-18.0293
20
21.07
11
-18.0302
21
21.0697
0
LINE
8
BLACK
6
CONTINUOUS
10
-18.0302
20
21.0697
11
-18.06
21
21.0668
0
LINE
8
BLACK
6
CONTINUOUS
10
-18.06
20
21.0668
11
-20.2758
21
21.0668
0
LINE
8
BLACK
6
CONTINUOUS
10
-20.2758
20
21.0668
11
-21.1952
21
20.1474
0
LINE
8
BLACK
6
CONTINUOUS
10
-21.1952
20
20.1474
11
-21.1947
21
20.1466
0
LINE
8
BLACK
6
CONTINUOUS
10
-21.1947
20
20.1466
11
-21.1419
21
20.0192
0
LINE
8
BLACK
6
CONTINUOUS
10
-21.1419
20
20.0192
11
-21.115
21
19.8839
0
LINE
8
BLACK
6
CONTINUOUS
10
-21.115
20
19.8839
11
-21.115
21
19.7461
0
LINE
8
BLACK
6
CONTINUOUS
10
-21.115
20
19.7461
11
-21.1419
21
19.6108
0
LINE
8
BLACK
6
CONTINUOUS
10
-21.1419
20
19.6108
11
-21.1947
21
19.4834
0
LINE
8
BLACK
6
CONTINUOUS
10
-21.1947
20
19.4834
11
-21.2713
21
19.3688
0
LINE
8
BLACK
6
CONTINUOUS
10
-21.2713
20
19.3688
11
-21.3688
21
19.2713
0
LINE
8
BLACK
6
CONTINUOUS
10
-21.3688
20
19.2713
11
-21.4834
21
19.1947
0
LINE
8
BLACK
6
CONTINUOUS
10
-21.4834
20
19.1947
11
-21.6108
21
19.1419
0
LINE
8
BLACK
6
CONTINUOUS
10
-21.6108
20
19.1419
11
-21.7461
21
19.115
0
LINE
8
BLACK
6
CONTINUOUS
10
-21.7461
20
19.115
11
-21.8839
21
19.115
0
LINE
8
BLACK
6
CONTINUOUS
10
-21.8839
20
19.115
11
-22.0192
21
19.1419
0
LINE
8
BLACK
6
CONTINUOUS
10
-22.0192
20
19.1419
11
-22.1466
21
19.1947
0
LINE
8
BLACK
6
CONTINUOUS
10
-22.1466
20
19.1947
11
-22.2612
21
19.2713
0
LINE
8
BLACK
6
CONTINUOUS
10
-22.2612
20
19.2713
11
-22.3587
21
19.3688
0
LINE
8
BLACK
6
CONTINUOUS
10
-22.3587
20
19.3688
11
-22.4353
21
19.4834
0
LINE
8
BLACK
6
CONTINUOUS
10
-22.4353
20
19.4834
11
-22.4881
21
19.6108
0
LINE
8
BLACK
6
CONTINUOUS
10
-22.4881
20
19.6108
11
-22.515
21
19.7461
0
LINE
8
BLACK
6
CONTINUOUS
10
-22.515
20
19.7461
11
-22.515
21
19.8839
0
LINE
8
BLACK
6
CONTINUOUS
10
-22.515
20
19.8839
11
-22.4881
21
20.0192
0
LINE
8
BLACK
6
CONTINUOUS
10
-22.4881
20
20.0192
11
-22.4353
21
20.1466
0
LINE
8
BLACK
6
CONTINUOUS
10
-22.4353
20
20.1466
11
-22.3587
21
20.2612
0
LINE
8
BLACK
6
CONTINUOUS
10
-22.3587
20
20.2612
11
-22.2612
21
20.3587
0
LINE
8
BLACK
6
CONTINUOUS
10
-22.2612
20
20.3587
11
-22.1466
21
20.4353
0
LINE
8
BLACK
6
CONTINUOUS
10
-22.1466
20
20.4353
11
-22.0192
21
20.4881
0
LINE
8
BLACK
6
CONTINUOUS
10
-22.0192
20
20.4881
11
-21.8839
21
20.515
0
LINE
8
BLACK
6
CONTINUOUS
10
-21.8839
20
20.515
11
-21.7461
21
20.515
0
LINE
8
BLACK
6
CONTINUOUS
10
-21.7461
20
20.515
11
-21.6108
21
20.4881
0
LINE
8
BLACK
6
CONTINUOUS
10
-21.6108
20
20.4881
11
-21.4834
21
20.4353
0
LINE
8
BLACK
6
CONTINUOUS
10
-21.4834
20
20.4353
11
-21.4826
21
20.4348
0
LINE
8
BLACK
6
CONTINUOUS
10
-21.4826
20
20.4348
11
-20.5107
21
21.4066
0
LINE
8
BLACK
6
CONTINUOUS
10
-20.5107
20
21.4066
11
-20.5044
21
21.4144
0
LINE
8
BLACK
6
CONTINUOUS
10
-20.5044
20
21.4144
11
-20.4812
21
21.4334
0
LINE
8
BLACK
6
CONTINUOUS
10
-20.4812
20
21.4334
11
-20.4734
21
21.4398
0
LINE
8
BLACK
6
CONTINUOUS
10
-20.4734
20
21.4398
11
-20.4381
21
21.4586
0
LINE
8
BLACK
6
CONTINUOUS
10
-20.4381
20
21.4586
11
-20.4292
21
21.4613
0
LINE
8
BLACK
6
CONTINUOUS
10
-20.4292
20
21.4613
11
-20.3998
21
21.4703
0
LINE
8
BLACK
6
CONTINUOUS
10
-20.3998
20
21.4703
11
-20.37
21
21.4732
0
LINE
8
BLACK
6
CONTINUOUS
10
-20.37
20
21.4732
11
-20.37
21
21.4732
0
LINE
8
BLACK
6
CONTINUOUS
10
-20.37
20
21.4732
11
-20.36
21
21.4742
0
LINE
8
BLACK
6
CONTINUOUS
10
-20.36
20
21.4742
11
-20.35
21
21.4732
0
LINE
8
BLACK
6
CONTINUOUS
10
-18.3298
20
19.7697
11
-18.3307
21
19.77
0
LINE
8
BLACK
6
CONTINUOUS
10
-18.3307
20
19.77
11
-18.49
21
19.77
0
LINE
8
BLACK
6
CONTINUOUS
10
-18.49
20
19.77
11
-18.49
21
19.9293
0
LINE
8
BLACK
6
CONTINUOUS
10
-18.49
20
19.9293
11
-18.4903
21
19.9302
0
LINE
8
BLACK
6
CONTINUOUS
10
-18.4903
20
19.9302
11
-18.4942
21
19.97
0
LINE
8
BLACK
6
CONTINUOUS
10
-18.4942
20
19.97
11
-18.4903
21
20.0098
0
LINE
8
BLACK
6
CONTINUOUS
10
-18.4903
20
20.0098
11
-18.49
21
20.0107
0
LINE
8
BLACK
6
CONTINUOUS
10
-18.49
20
20.0107
11
-18.49
21
20.17
0
LINE
8
BLACK
6
CONTINUOUS
10
-18.49
20
20.17
11
-18.3307
21
20.17
0
LINE
8
BLACK
6
CONTINUOUS
10
-18.3307
20
20.17
11
-18.3298
21
20.1703
0
LINE
8
BLACK
6
CONTINUOUS
10
-18.3298
20
20.1703
11
-18.3
21
20.1732
0
LINE
8
BLACK
6
CONTINUOUS
10
-18.3
20
20.1732
11
-16.5192
21
20.1732
0
LINE
8
BLACK
6
CONTINUOUS
10
-16.5192
20
20.1732
11
-16.2093
21
20.4831
0
LINE
8
BLACK
6
CONTINUOUS
10
-16.2093
20
20.4831
11
-16.1996
21
20.5317
0
LINE
8
BLACK
6
CONTINUOUS
10
-16.1996
20
20.5317
11
-16.1695
21
20.6045
0
LINE
8
BLACK
6
CONTINUOUS
10
-16.1695
20
20.6045
11
-16.1257
21
20.67
0
LINE
8
BLACK
6
CONTINUOUS
10
-16.1257
20
20.67
11
-16.07
21
20.7257
0
LINE
8
BLACK
6
CONTINUOUS
10
-16.07
20
20.7257
11
-16.0045
21
20.7695
0
LINE
8
BLACK
6
CONTINUOUS
10
-16.0045
20
20.7695
11
-15.9317
21
20.7996
0
LINE
8
BLACK
6
CONTINUOUS
10
-15.9317
20
20.7996
11
-15.8544
21
20.815
0
LINE
8
BLACK
6
CONTINUOUS
10
-15.8544
20
20.815
11
-15.7756
21
20.815
0
LINE
8
BLACK
6
CONTINUOUS
10
-15.7756
20
20.815
11
-15.6983
21
20.7996
0
LINE
8
BLACK
6
CONTINUOUS
10
-15.6983
20
20.7996
11
-15.6255
21
20.7695
0
LINE
8
BLACK
6
CONTINUOUS
10
-15.6255
20
20.7695
11
-15.56
21
20.7257
0
LINE
8
BLACK
6
CONTINUOUS
10
-15.56
20
20.7257
11
-15.5043
21
20.67
0
LINE
8
BLACK
6
CONTINUOUS
10
-15.5043
20
20.67
11
-15.4605
21
20.6045
0
LINE
8
BLACK
6
CONTINUOUS
10
-15.4605
20
20.6045
11
-15.4304
21
20.5317
0
LINE
8
BLACK
6
CONTINUOUS
10
-15.4304
20
20.5317
11
-15.415
21
20.4544
0
LINE
8
BLACK
6
CONTINUOUS
10
-15.415
20
20.4544
11
-15.415
21
20.3756
0
LINE
8
BLACK
6
CONTINUOUS
10
-15.415
20
20.3756
11
-15.4304
21
20.2983
0
LINE
8
BLACK
6
CONTINUOUS
10
-15.4304
20
20.2983
11
-15.4605
21
20.2255
0
LINE
8
BLACK
6
CONTINUOUS
10
-15.4605
20
20.2255
11
-15.5043
21
20.16
0
LINE
8
BLACK
6
CONTINUOUS
10
-15.5043
20
20.16
11
-15.56
21
20.1043
0
LINE
8
BLACK
6
CONTINUOUS
10
-15.56
20
20.1043
11
-15.6255
21
20.0605
0
LINE
8
BLACK
6
CONTINUOUS
10
-15.6255
20
20.0605
11
-15.6983
21
20.0304
0
LINE
8
BLACK
6
CONTINUOUS
10
-15.6983
20
20.0304
11
-15.7756
21
20.015
0
LINE
8
BLACK
6
CONTINUOUS
10
-15.7756
20
20.015
11
-15.8544
21
20.015
0
LINE
8
BLACK
6
CONTINUOUS
10
-15.8544
20
20.015
11
-15.9317
21
20.0304
0
LINE
8
BLACK
6
CONTINUOUS
10
-15.9317
20
20.0304
11
-16.0045
21
20.0605
0
LINE
8
BLACK
6
CONTINUOUS
10
-16.0045
20
20.0605
11
-16.036
21
20.0816
0
LINE
8
BLACK
6
CONTINUOUS
10
-16.036
20
20.0816
11
-16.2843
21
19.8334
0
LINE
8
BLACK
6
CONTINUOUS
10
-16.2843
20
19.8334
11
-16.2906
21
19.8256
0
LINE
8
BLACK
6
CONTINUOUS
10
-16.2906
20
19.8256
11
-16.3216
21
19.8002
0
LINE
8
BLACK
6
CONTINUOUS
10
-16.3216
20
19.8002
11
-16.3569
21
19.7814
0
LINE
8
BLACK
6
CONTINUOUS
10
-16.3569
20
19.7814
11
-16.3952
21
19.7697
0
LINE
8
BLACK
6
CONTINUOUS
10
-16.3952
20
19.7697
11
-16.425
21
19.7668
0
LINE
8
BLACK
6
CONTINUOUS
10
-16.425
20
19.7668
11
-16.425
21
19.7668
0
LINE
8
BLACK
6
CONTINUOUS
10
-16.425
20
19.7668
11
-16.435
21
19.7658
0
LINE
8
BLACK
6
CONTINUOUS
10
-16.435
20
19.7658
11
-16.445
21
19.7668
0
LINE
8
BLACK
6
CONTINUOUS
10
-16.445
20
19.7668
11
-18.3
21
19.7668
0
LINE
8
BLACK
6
CONTINUOUS
10
-18.3
20
19.7668
11
-18.3298
21
19.7697
0
LINE
8
BLACK
6
CONTINUOUS
10
-13.6
20
20.8232
11
-11.855
21
20.8232
0
LINE
8
BLACK
6
CONTINUOUS
10
-11.855
20
20.8232
11
-11.8252
21
20.8203
0
LINE
8
BLACK
6
CONTINUOUS
10
-11.8252
20
20.8203
11
-11.8243
21
20.82
0
LINE
8
BLACK
6
CONTINUOUS
10
-11.8243
20
20.82
11
-11.14
21
20.82
0
LINE
8
BLACK
6
CONTINUOUS
10
-11.14
20
20.82
11
-11.14
21
20.42
0
LINE
8
BLACK
6
CONTINUOUS
10
-11.14
20
20.42
11
-11.8243
21
20.42
0
LINE
8
BLACK
6
CONTINUOUS
10
-11.8243
20
20.42
11
-11.8252
21
20.4197
0
LINE
8
BLACK
6
CONTINUOUS
10
-11.8252
20
20.4197
11
-11.855
21
20.4168
0
LINE
8
BLACK
6
CONTINUOUS
10
-11.855
20
20.4168
11
-13.415
21
20.4168
0
LINE
8
BLACK
6
CONTINUOUS
10
-13.415
20
20.4168
11
-13.415
21
20.3756
0
LINE
8
BLACK
6
CONTINUOUS
10
-13.415
20
20.3756
11
-13.4304
21
20.2983
0
LINE
8
BLACK
6
CONTINUOUS
10
-13.4304
20
20.2983
11
-13.4605
21
20.2255
0
LINE
8
BLACK
6
CONTINUOUS
10
-13.4605
20
20.2255
11
-13.5043
21
20.16
0
LINE
8
BLACK
6
CONTINUOUS
10
-13.5043
20
20.16
11
-13.56
21
20.1043
0
LINE
8
BLACK
6
CONTINUOUS
10
-13.56
20
20.1043
11
-13.6255
21
20.0605
0
LINE
8
BLACK
6
CONTINUOUS
10
-13.6255
20
20.0605
11
-13.6983
21
20.0304
0
LINE
8
BLACK
6
CONTINUOUS
10
-13.6983
20
20.0304
11
-13.7756
21
20.015
0
LINE
8
BLACK
6
CONTINUOUS
10
-13.7756
20
20.015
11
-13.8544
21
20.015
0
LINE
8
BLACK
6
CONTINUOUS
10
-13.8544
20
20.015
11
-13.9317
21
20.0304
0
LINE
8
BLACK
6
CONTINUOUS
10
-13.9317
20
20.0304
11
-14.0045
21
20.0605
0
LINE
8
BLACK
6
CONTINUOUS
10
-14.0045
20
20.0605
11
-14.07
21
20.1043
0
LINE
8
BLACK
6
CONTINUOUS
10
-14.07
20
20.1043
11
-14.1257
21
20.16
0
LINE
8
BLACK
6
CONTINUOUS
10
-14.1257
20
20.16
11
-14.1695
21
20.2255
0
LINE
8
BLACK
6
CONTINUOUS
10
-14.1695
20
20.2255
11
-14.1996
21
20.2983
0
LINE
8
BLACK
6
CONTINUOUS
10
-14.1996
20
20.2983
11
-14.215
21
20.3756
0
LINE
8
BLACK
6
CONTINUOUS
10
-14.215
20
20.3756
11
-14.215
21
20.4544
0
LINE
8
BLACK
6
CONTINUOUS
10
-14.215
20
20.4544
11
-14.1996
21
20.5317
0
LINE
8
BLACK
6
CONTINUOUS
10
-14.1996
20
20.5317
11
-14.1695
21
20.6045
0
LINE
8
BLACK
6
CONTINUOUS
10
-14.1695
20
20.6045
11
-14.1257
21
20.67
0
LINE
8
BLACK
6
CONTINUOUS
10
-14.1257
20
20.67
11
-14.07
21
20.7257
0
LINE
8
BLACK
6
CONTINUOUS
10
-14.07
20
20.7257
11
-14.0045
21
20.7695
0
LINE
8
BLACK
6
CONTINUOUS
10
-14.0045
20
20.7695
11
-13.9317
21
20.7996
0
LINE
8
BLACK
6
CONTINUOUS
10
-13.9317
20
20.7996
11
-13.8544
21
20.815
0
LINE
8
BLACK
6
CONTINUOUS
10
-13.8544
20
20.815
11
-13.7756
21
20.815
0
LINE
8
BLACK
6
CONTINUOUS
10
-13.7756
20
20.815
11
-13.7032
21
20.8006
0
LINE
8
BLACK
6
CONTINUOUS
10
-13.7032
20
20.8006
11
-13.6948
21
20.8051
0
LINE
8
BLACK
6
CONTINUOUS
10
-13.6948
20
20.8051
11
-13.6881
21
20.8086
0
LINE
8
BLACK
6
CONTINUOUS
10
-13.6881
20
20.8086
11
-13.6498
21
20.8203
0
LINE
8
BLACK
6
CONTINUOUS
10
-13.6498
20
20.8203
11
-13.62
21
20.8232
0
LINE
8
BLACK
6
CONTINUOUS
10
-13.62
20
20.8232
11
-13.62
21
20.8232
0
LINE
8
BLACK
6
CONTINUOUS
10
-13.62
20
20.8232
11
-13.61
21
20.8242
0
LINE
8
BLACK
6
CONTINUOUS
10
-13.61
20
20.8242
11
-13.6
21
20.8232
0
LINE
8
BLACK
6
CONTINUOUS
10
-15.6983
20
22.0746
11
-15.6255
21
22.0445
0
LINE
8
BLACK
6
CONTINUOUS
10
-15.6255
20
22.0445
11
-15.56
21
22.0007
0
LINE
8
BLACK
6
CONTINUOUS
10
-15.56
20
22.0007
11
-15.5043
21
21.945
0
LINE
8
BLACK
6
CONTINUOUS
10
-15.5043
20
21.945
11
-15.4605
21
21.8795
0
LINE
8
BLACK
6
CONTINUOUS
10
-15.4605
20
21.8795
11
-15.4304
21
21.8067
0
LINE
8
BLACK
6
CONTINUOUS
10
-15.4304
20
21.8067
11
-15.415
21
21.7294
0
LINE
8
BLACK
6
CONTINUOUS
10
-15.415
20
21.7294
11
-15.415
21
21.6506
0
LINE
8
BLACK
6
CONTINUOUS
10
-15.415
20
21.6506
11
-15.4304
21
21.5733
0
LINE
8
BLACK
6
CONTINUOUS
10
-15.4304
20
21.5733
11
-15.4605
21
21.5005
0
LINE
8
BLACK
6
CONTINUOUS
10
-15.4605
20
21.5005
11
-15.5043
21
21.435
0
LINE
8
BLACK
6
CONTINUOUS
10
-15.5043
20
21.435
11
-15.56
21
21.3793
0
LINE
8
BLACK
6
CONTINUOUS
10
-15.56
20
21.3793
11
-15.6255
21
21.3355
0
LINE
8
BLACK
6
CONTINUOUS
10
-15.6255
20
21.3355
11
-15.6983
21
21.3054
0
LINE
8
BLACK
6
CONTINUOUS
10
-15.6983
20
21.3054
11
-15.7756
21
21.29
0
LINE
8
BLACK
6
CONTINUOUS
10
-15.7756
20
21.29
11
-15.8544
21
21.29
0
LINE
8
BLACK
6
CONTINUOUS
10
-15.8544
20
21.29
11
-15.9155
21
21.3022
0
LINE
8
BLACK
6
CONTINUOUS
10
-15.9155
20
21.3022
11
-16.7343
21
20.4834
0
LINE
8
BLACK
6
CONTINUOUS
10
-16.7343
20
20.4834
11
-16.7406
21
20.4756
0
LINE
8
BLACK
6
CONTINUOUS
10
-16.7406
20
20.4756
11
-16.7716
21
20.4502
0
LINE
8
BLACK
6
CONTINUOUS
10
-16.7716
20
20.4502
11
-16.8069
21
20.4314
0
LINE
8
BLACK
6
CONTINUOUS
10
-16.8069
20
20.4314
11
-16.8452
21
20.4197
0
LINE
8
BLACK
6
CONTINUOUS
10
-16.8452
20
20.4197
11
-16.875
21
20.4168
0
LINE
8
BLACK
6
CONTINUOUS
10
-16.875
20
20.4168
11
-16.875
21
20.4168
0
LINE
8
BLACK
6
CONTINUOUS
10
-16.875
20
20.4168
11
-16.885
21
20.4158
0
LINE
8
BLACK
6
CONTINUOUS
10
-16.885
20
20.4158
11
-16.895
21
20.4168
0
LINE
8
BLACK
6
CONTINUOUS
10
-16.895
20
20.4168
11
-17.775
21
20.4168
0
LINE
8
BLACK
6
CONTINUOUS
10
-17.775
20
20.4168
11
-17.8048
21
20.4197
0
LINE
8
BLACK
6
CONTINUOUS
10
-17.8048
20
20.4197
11
-17.8057
21
20.42
0
LINE
8
BLACK
6
CONTINUOUS
10
-17.8057
20
20.42
11
-18.49
21
20.42
0
LINE
8
BLACK
6
CONTINUOUS
10
-18.49
20
20.42
11
-18.49
21
20.82
0
LINE
8
BLACK
6
CONTINUOUS
10
-18.49
20
20.82
11
-17.8057
21
20.82
0
LINE
8
BLACK
6
CONTINUOUS
10
-17.8057
20
20.82
11
-17.8048
21
20.8203
0
LINE
8
BLACK
6
CONTINUOUS
10
-17.8048
20
20.8203
11
-17.775
21
20.8232
0
LINE
8
BLACK
6
CONTINUOUS
10
-17.775
20
20.8232
11
-16.9692
21
20.8232
0
LINE
8
BLACK
6
CONTINUOUS
10
-16.9692
20
20.8232
11
-16.2028
21
21.5895
0
LINE
8
BLACK
6
CONTINUOUS
10
-16.2028
20
21.5895
11
-16.215
21
21.6506
0
LINE
8
BLACK
6
CONTINUOUS
10
-16.215
20
21.6506
11
-16.215
21
21.7294
0
LINE
8
BLACK
6
CONTINUOUS
10
-16.215
20
21.7294
11
-16.1996
21
21.8067
0
LINE
8
BLACK
6
CONTINUOUS
10
-16.1996
20
21.8067
11
-16.1695
21
21.8795
0
LINE
8
BLACK
6
CONTINUOUS
10
-16.1695
20
21.8795
11
-16.1257
21
21.945
0
LINE
8
BLACK
6
CONTINUOUS
10
-16.1257
20
21.945
11
-16.07
21
22.0007
0
LINE
8
BLACK
6
CONTINUOUS
10
-16.07
20
22.0007
11
-16.0045
21
22.0445
0
LINE
8
BLACK
6
CONTINUOUS
10
-16.0045
20
22.0445
11
-15.9317
21
22.0746
0
LINE
8
BLACK
6
CONTINUOUS
10
-15.9317
20
22.0746
11
-15.8544
21
22.09
0
LINE
8
BLACK
6
CONTINUOUS
10
-15.8544
20
22.09
11
-15.7756
21
22.09
0
LINE
8
BLACK
6
CONTINUOUS
10
-15.7756
20
22.09
11
-15.6983
21
22.0746
0
LINE
8
BLACK
6
CONTINUOUS
10
-21.6108
20
22.4381
11
-21.4834
21
22.3853
0
LINE
8
BLACK
6
CONTINUOUS
10
-21.4834
20
22.3853
11
-21.3688
21
22.3087
0
LINE
8
BLACK
6
CONTINUOUS
10
-21.3688
20
22.3087
11
-21.2713
21
22.2112
0
LINE
8
BLACK
6
CONTINUOUS
10
-21.2713
20
22.2112
11
-21.2125
21
22.1232
0
LINE
8
BLACK
6
CONTINUOUS
10
-21.2125
20
22.1232
11
-18.06
21
22.1232
0
LINE
8
BLACK
6
CONTINUOUS
10
-18.06
20
22.1232
11
-18.0302
21
22.1203
0
LINE
8
BLACK
6
CONTINUOUS
10
-18.0302
20
22.1203
11
-18.0293
21
22.12
0
LINE
8
BLACK
6
CONTINUOUS
10
-18.0293
20
22.12
11
-17.04
21
22.12
0
LINE
8
BLACK
6
CONTINUOUS
10
-17.04
20
22.12
11
-17.04
21
21.72
0
LINE
8
BLACK
6
CONTINUOUS
10
-17.04
20
21.72
11
-18.0293
21
21.72
0
LINE
8
BLACK
6
CONTINUOUS
10
-18.0293
20
21.72
11
-18.0302
21
21.7197
0
LINE
8
BLACK
6
CONTINUOUS
10
-18.0302
20
21.7197
11
-18.06
21
21.7168
0
LINE
8
BLACK
6
CONTINUOUS
10
-18.06
20
21.7168
11
-21.115
21
21.7168
0
LINE
8
BLACK
6
CONTINUOUS
10
-21.115
20
21.7168
11
-21.115
21
21.6961
0
LINE
8
BLACK
6
CONTINUOUS
10
-21.115
20
21.6961
11
-21.1419
21
21.5608
0
LINE
8
BLACK
6
CONTINUOUS
10
-21.1419
20
21.5608
11
-21.1947
21
21.4334
0
LINE
8
BLACK
6
CONTINUOUS
10
-21.1947
20
21.4334
11
-21.2713
21
21.3188
0
LINE
8
BLACK
6
CONTINUOUS
10
-21.2713
20
21.3188
11
-21.3688
21
21.2213
0
LINE
8
BLACK
6
CONTINUOUS
10
-21.3688
20
21.2213
11
-21.4834
21
21.1447
0
LINE
8
BLACK
6
CONTINUOUS
10
-21.4834
20
21.1447
11
-21.6108
21
21.0919
0
LINE
8
BLACK
6
CONTINUOUS
10
-21.6108
20
21.0919
11
-21.7461
21
21.065
0
LINE
8
BLACK
6
CONTINUOUS
10
-21.7461
20
21.065
11
-21.8839
21
21.065
0
LINE
8
BLACK
6
CONTINUOUS
10
-21.8839
20
21.065
11
-22.0192
21
21.0919
0
LINE
8
BLACK
6
CONTINUOUS
10
-22.0192
20
21.0919
11
-22.1466
21
21.1447
0
LINE
8
BLACK
6
CONTINUOUS
10
-22.1466
20
21.1447
11
-22.2612
21
21.2213
0
LINE
8
BLACK
6
CONTINUOUS
10
-22.2612
20
21.2213
11
-22.3587
21
21.3188
0
LINE
8
BLACK
6
CONTINUOUS
10
-22.3587
20
21.3188
11
-22.4353
21
21.4334
0
LINE
8
BLACK
6
CONTINUOUS
10
-22.4353
20
21.4334
11
-22.4881
21
21.5608
0
LINE
8
BLACK
6
CONTINUOUS
10
-22.4881
20
21.5608
11
-22.515
21
21.6961
0
LINE
8
BLACK
6
CONTINUOUS
10
-22.515
20
21.6961
11
-22.515
21
21.8339
0
LINE
8
BLACK
6
CONTINUOUS
10
-22.515
20
21.8339
11
-22.4881
21
21.9692
0
LINE
8
BLACK
6
CONTINUOUS
10
-22.4881
20
21.9692
11
-22.4353
21
22.0966
0
LINE
8
BLACK
6
CONTINUOUS
10
-22.4353
20
22.0966
11
-22.3587
21
22.2112
0
LINE
8
BLACK
6
CONTINUOUS
10
-22.3587
20
22.2112
11
-22.2612
21
22.3087
0
LINE
8
BLACK
6
CONTINUOUS
10
-22.2612
20
22.3087
11
-22.1466
21
22.3853
0
LINE
8
BLACK
6
CONTINUOUS
10
-22.1466
20
22.3853
11
-22.0192
21
22.4381
0
LINE
8
BLACK
6
CONTINUOUS
10
-22.0192
20
22.4381
11
-21.8839
21
22.465
0
LINE
8
BLACK
6
CONTINUOUS
10
-21.8839
20
22.465
11
-21.7461
21
22.465
0
LINE
8
BLACK
6
CONTINUOUS
10
-21.7461
20
22.465
11
-21.6108
21
22.4381
0
LINE
8
BLACK
6
CONTINUOUS
10
-13.6983
20
22.0746
11
-13.6255
21
22.0445
0
LINE
8
BLACK
6
CONTINUOUS
10
-13.6255
20
22.0445
11
-13.56
21
22.0007
0
LINE
8
BLACK
6
CONTINUOUS
10
-13.56
20
22.0007
11
-13.5043
21
21.945
0
LINE
8
BLACK
6
CONTINUOUS
10
-13.5043
20
21.945
11
-13.4605
21
21.8795
0
LINE
8
BLACK
6
CONTINUOUS
10
-13.4605
20
21.8795
11
-13.4304
21
21.8067
0
LINE
8
BLACK
6
CONTINUOUS
10
-13.4304
20
21.8067
11
-13.415
21
21.7294
0
LINE
8
BLACK
6
CONTINUOUS
10
-13.415
20
21.7294
11
-13.415
21
21.6506
0
LINE
8
BLACK
6
CONTINUOUS
10
-13.415
20
21.6506
11
-13.4272
21
21.5895
0
LINE
8
BLACK
6
CONTINUOUS
10
-13.4272
20
21.5895
11
-13.3108
21
21.4732
0
LINE
8
BLACK
6
CONTINUOUS
10
-13.3108
20
21.4732
11
-11.855
21
21.4732
0
LINE
8
BLACK
6
CONTINUOUS
10
-11.855
20
21.4732
11
-11.8252
21
21.4703
0
LINE
8
BLACK
6
CONTINUOUS
10
-11.8252
20
21.4703
11
-11.8243
21
21.47
0
LINE
8
BLACK
6
CONTINUOUS
10
-11.8243
20
21.47
11
-11.14
21
21.47
0
LINE
8
BLACK
6
CONTINUOUS
10
-11.14
20
21.47
11
-11.14
21
21.07
0
LINE
8
BLACK
6
CONTINUOUS
10
-11.14
20
21.07
11
-11.8243
21
21.07
0
LINE
8
BLACK
6
CONTINUOUS
10
-11.8243
20
21.07
11
-11.8252
21
21.0697
0
LINE
8
BLACK
6
CONTINUOUS
10
-11.8252
20
21.0697
11
-11.855
21
21.0668
0
LINE
8
BLACK
6
CONTINUOUS
10
-11.855
20
21.0668
11
-13.385
21
21.0668
0
LINE
8
BLACK
6
CONTINUOUS
10
-13.385
20
21.0668
11
-13.395
21
21.0658
0
LINE
8
BLACK
6
CONTINUOUS
10
-13.395
20
21.0658
11
-13.405
21
21.0668
0
LINE
8
BLACK
6
CONTINUOUS
10
-13.405
20
21.0668
11
-13.405
21
21.0668
0
LINE
8
BLACK
6
CONTINUOUS
10
-13.405
20
21.0668
11
-13.4348
21
21.0697
0
LINE
8
BLACK
6
CONTINUOUS
10
-13.4348
20
21.0697
11
-13.4642
21
21.0787
0
LINE
8
BLACK
6
CONTINUOUS
10
-13.4642
20
21.0787
11
-13.4731
21
21.0814
0
LINE
8
BLACK
6
CONTINUOUS
10
-13.4731
20
21.0814
11
-13.5084
21
21.1002
0
LINE
8
BLACK
6
CONTINUOUS
10
-13.5084
20
21.1002
11
-13.5316
21
21.1193
0
LINE
8
BLACK
6
CONTINUOUS
10
-13.5316
20
21.1193
11
-13.5394
21
21.1256
0
LINE
8
BLACK
6
CONTINUOUS
10
-13.5394
20
21.1256
11
-13.5457
21
21.1334
0
LINE
8
BLACK
6
CONTINUOUS
10
-13.5457
20
21.1334
11
-13.7145
21
21.3022
0
LINE
8
BLACK
6
CONTINUOUS
10
-13.7145
20
21.3022
11
-13.7756
21
21.29
0
LINE
8
BLACK
6
CONTINUOUS
10
-13.7756
20
21.29
11
-13.8544
21
21.29
0
LINE
8
BLACK
6
CONTINUOUS
10
-13.8544
20
21.29
11
-13.9317
21
21.3054
0
LINE
8
BLACK
6
CONTINUOUS
10
-13.9317
20
21.3054
11
-14.0045
21
21.3355
0
LINE
8
BLACK
6
CONTINUOUS
10
-14.0045
20
21.3355
11
-14.07
21
21.3793
0
LINE
8
BLACK
6
CONTINUOUS
10
-14.07
20
21.3793
11
-14.1257
21
21.435
0
LINE
8
BLACK
6
CONTINUOUS
10
-14.1257
20
21.435
11
-14.1695
21
21.5005
0
LINE
8
BLACK
6
CONTINUOUS
10
-14.1695
20
21.5005
11
-14.1996
21
21.5733
0
LINE
8
BLACK
6
CONTINUOUS
10
-14.1996
20
21.5733
11
-14.215
21
21.6506
0
LINE
8
BLACK
6
CONTINUOUS
10
-14.215
20
21.6506
11
-14.215
21
21.7294
0
LINE
8
BLACK
6
CONTINUOUS
10
-14.215
20
21.7294
11
-14.1996
21
21.8067
0
LINE
8
BLACK
6
CONTINUOUS
10
-14.1996
20
21.8067
11
-14.1695
21
21.8795
0
LINE
8
BLACK
6
CONTINUOUS
10
-14.1695
20
21.8795
11
-14.1257
21
21.945
0
LINE
8
BLACK
6
CONTINUOUS
10
-14.1257
20
21.945
11
-14.07
21
22.0007
0
LINE
8
BLACK
6
CONTINUOUS
10
-14.07
20
22.0007
11
-14.0045
21
22.0445
0
LINE
8
BLACK
6
CONTINUOUS
10
-14.0045
20
22.0445
11
-13.9317
21
22.0746
0
LINE
8
BLACK
6
CONTINUOUS
10
-13.9317
20
22.0746
11
-13.8544
21
22.09
0
LINE
8
BLACK
6
CONTINUOUS
10
-13.8544
20
22.09
11
-13.7756
21
22.09
0
LINE
8
BLACK
6
CONTINUOUS
10
-13.7756
20
22.09
11
-13.6983
21
22.0746
0
LINE
8
BLACK
6
CONTINUOUS
10
-30.465
20
27.07
11
-30.534
21
27.07
0
LINE
8
BLACK
6
CONTINUOUS
10
-30.534
20
27.07
11
-30.534
21
25.87
0
LINE
8
BLACK
6
CONTINUOUS
10
-30.534
20
25.87
11
-29.54
21
25.87
0
LINE
8
BLACK
6
CONTINUOUS
10
-29.54
20
25.87
11
-29.54
21
23.37
0
LINE
8
BLACK
6
CONTINUOUS
10
-29.54
20
23.37
11
-34.64
21
23.37
0
LINE
8
BLACK
6
CONTINUOUS
10
-34.64
20
23.37
11
-34.64
21
25.87
0
LINE
8
BLACK
6
CONTINUOUS
10
-34.64
20
25.87
11
-31.296
21
25.87
0
LINE
8
BLACK
6
CONTINUOUS
10
-31.296
20
25.87
11
-31.296
21
27.07
0
LINE
8
BLACK
6
CONTINUOUS
10
-31.296
20
27.07
11
-31.365
21
27.07
0
LINE
8
BLACK
6
CONTINUOUS
10
-31.365
20
27.07
11
-31.365
21
27.87
0
LINE
8
BLACK
6
CONTINUOUS
10
-31.365
20
27.87
11
-30.465
21
27.87
0
LINE
8
BLACK
6
CONTINUOUS
10
-30.465
20
27.87
11
-30.465
21
27.07
0
LINE
8
BLACK
6
CONTINUOUS
10
-17.04
20
23.67
11
-18.49
21
23.67
0
LINE
8
BLACK
6
CONTINUOUS
10
-18.49
20
23.67
11
-18.49
21
24.07
0
LINE
8
BLACK
6
CONTINUOUS
10
-18.49
20
24.07
11
-17.04
21
24.07
0
LINE
8
BLACK
6
CONTINUOUS
10
-17.04
20
24.07
11
-17.04
21
23.67
0
LINE
8
BLACK
6
CONTINUOUS
10
-11.14
20
23.67
11
-12.59
21
23.67
0
LINE
8
BLACK
6
CONTINUOUS
10
-12.59
20
23.67
11
-12.59
21
24.07
0
LINE
8
BLACK
6
CONTINUOUS
10
-12.59
20
24.07
11
-11.14
21
24.07
0
LINE
8
BLACK
6
CONTINUOUS
10
-11.14
20
24.07
11
-11.14
21
23.67
0
LINE
8
BLACK
6
CONTINUOUS
10
-11.9048
20
24.3197
11
-11.9057
21
24.32
0
LINE
8
BLACK
6
CONTINUOUS
10
-11.9057
20
24.32
11
-12.59
21
24.32
0
LINE
8
BLACK
6
CONTINUOUS
10
-12.59
20
24.32
11
-12.59
21
24.72
0
LINE
8
BLACK
6
CONTINUOUS
10
-12.59
20
24.72
11
-11.9057
21
24.72
0
LINE
8
BLACK
6
CONTINUOUS
10
-11.9057
20
24.72
11
-11.9048
21
24.7203
0
LINE
8
BLACK
6
CONTINUOUS
10
-11.9048
20
24.7203
11
-11.875
21
24.7232
0
LINE
8
BLACK
6
CONTINUOUS
10
-11.875
20
24.7232
11
-8.0834
21
24.7232
0
LINE
8
BLACK
6
CONTINUOUS
10
-8.0834
20
24.7232
11
-8.07832
21
24.7327
0
LINE
8
BLACK
6
CONTINUOUS
10
-8.07832
20
24.7327
11
-8.03071
21
24.7907
0
LINE
8
BLACK
6
CONTINUOUS
10
-8.03071
20
24.7907
11
-7.9727
21
24.8383
0
LINE
8
BLACK
6
CONTINUOUS
10
-7.9727
20
24.8383
11
-7.90651
21
24.8737
0
LINE
8
BLACK
6
CONTINUOUS
10
-7.90651
20
24.8737
11
-7.83469
21
24.8955
0
LINE
8
BLACK
6
CONTINUOUS
10
-7.83469
20
24.8955
11
-7.77871
21
24.901
0
LINE
8
BLACK
6
CONTINUOUS
10
-7.77871
20
24.901
11
-6.54281
21
24.901
0
LINE
8
BLACK
6
CONTINUOUS
10
-6.54281
20
24.901
11
-6.071
21
25.3728
0
LINE
8
BLACK
6
CONTINUOUS
10
-6.071
20
25.3728
11
-6.071
21
27.1546
0
LINE
8
BLACK
6
CONTINUOUS
10
-6.071
20
27.1546
11
-6.08567
21
27.159
0
LINE
8
BLACK
6
CONTINUOUS
10
-6.08567
20
27.159
11
-6.12889
21
27.1821
0
LINE
8
BLACK
6
CONTINUOUS
10
-6.12889
20
27.1821
11
-6.16678
21
27.2132
0
LINE
8
BLACK
6
CONTINUOUS
10
-6.16678
20
27.2132
11
-6.19787
21
27.2511
0
LINE
8
BLACK
6
CONTINUOUS
10
-6.19787
20
27.2511
11
-6.22097
21
27.2943
0
LINE
8
BLACK
6
CONTINUOUS
10
-6.22097
20
27.2943
11
-6.2352
21
27.3412
0
LINE
8
BLACK
6
CONTINUOUS
10
-6.2352
20
27.3412
11
-6.24
21
27.39
0
LINE
8
BLACK
6
CONTINUOUS
10
-6.24
20
27.39
11
-6.24
21
28.29
0
LINE
8
BLACK
6
CONTINUOUS
10
-6.24
20
28.29
11
-6.2352
21
28.3388
0
LINE
8
BLACK
6
CONTINUOUS
10
-6.2352
20
28.3388
11
-6.22097
21
28.3857
0
LINE
8
BLACK
6
CONTINUOUS
10
-6.22097
20
28.3857
11
-6.19787
21
28.4289
0
LINE
8
BLACK
6
CONTINUOUS
10
-6.19787
20
28.4289
11
-6.16678
21
28.4668
0
LINE
8
BLACK
6
CONTINUOUS
10
-6.16678
20
28.4668
11
-6.12889
21
28.4979
0
LINE
8
BLACK
6
CONTINUOUS
10
-6.12889
20
28.4979
11
-6.08567
21
28.521
0
LINE
8
BLACK
6
CONTINUOUS
10
-6.08567
20
28.521
11
-6.046
21
28.533
0
LINE
8
BLACK
6
CONTINUOUS
10
-6.046
20
28.533
11
-6.046
21
28.9963
0
LINE
8
BLACK
6
CONTINUOUS
10
-6.046
20
28.9963
11
-6.04784
21
29.015
0
LINE
8
BLACK
6
CONTINUOUS
10
-6.04784
20
29.015
11
-6.04049
21
29.0897
0
LINE
8
BLACK
6
CONTINUOUS
10
-6.04049
20
29.0897
11
-6.0187
21
29.1615
0
LINE
8
BLACK
6
CONTINUOUS
10
-6.0187
20
29.1615
11
-5.98332
21
29.2277
0
LINE
8
BLACK
6
CONTINUOUS
10
-5.98332
20
29.2277
11
-5.95399
21
29.2634
0
LINE
8
BLACK
6
CONTINUOUS
10
-5.95399
20
29.2634
11
-5.93571
21
29.2857
0
LINE
8
BLACK
6
CONTINUOUS
10
-5.93571
20
29.2857
11
-5.92117
21
29.2976
0
LINE
8
BLACK
6
CONTINUOUS
10
-5.92117
20
29.2976
11
-5.29
21
29.9288
0
LINE
8
BLACK
6
CONTINUOUS
10
-5.29
20
29.9288
11
-5.29
21
30.315
0
LINE
8
BLACK
6
CONTINUOUS
10
-5.29
20
30.315
11
-5.171
21
30.315
0
LINE
8
BLACK
6
CONTINUOUS
10
-5.171
20
30.315
11
-5.171
21
35.765
0
LINE
8
BLACK
6
CONTINUOUS
10
-5.171
20
35.765
11
-5.29
21
35.765
0
LINE
8
BLACK
6
CONTINUOUS
10
-5.29
20
35.765
11
-5.29
21
36.615
0
LINE
8
BLACK
6
CONTINUOUS
10
-5.29
20
36.615
11
-4.29
21
36.615
0
LINE
8
BLACK
6
CONTINUOUS
10
-4.29
20
36.615
11
-4.29
21
35.765
0
LINE
8
BLACK
6
CONTINUOUS
10
-4.29
20
35.765
11
-4.409
21
35.765
0
LINE
8
BLACK
6
CONTINUOUS
10
-4.409
20
35.765
11
-4.409
21
30.315
0
LINE
8
BLACK
6
CONTINUOUS
10
-4.409
20
30.315
11
-4.29
21
30.315
0
LINE
8
BLACK
6
CONTINUOUS
10
-4.29
20
30.315
11
-4.29
21
29.465
0
LINE
8
BLACK
6
CONTINUOUS
10
-4.29
20
29.465
11
-4.67618
21
29.465
0
LINE
8
BLACK
6
CONTINUOUS
10
-4.67618
20
29.465
11
-5.284
21
28.8572
0
LINE
8
BLACK
6
CONTINUOUS
10
-5.284
20
28.8572
11
-5.284
21
28.533
0
LINE
8
BLACK
6
CONTINUOUS
10
-5.284
20
28.533
11
-5.24433
21
28.521
0
LINE
8
BLACK
6
CONTINUOUS
10
-5.24433
20
28.521
11
-5.20111
21
28.4979
0
LINE
8
BLACK
6
CONTINUOUS
10
-5.20111
20
28.4979
11
-5.16322
21
28.4668
0
LINE
8
BLACK
6
CONTINUOUS
10
-5.16322
20
28.4668
11
-5.13213
21
28.4289
0
LINE
8
BLACK
6
CONTINUOUS
10
-5.13213
20
28.4289
11
-5.10903
21
28.3857
0
LINE
8
BLACK
6
CONTINUOUS
10
-5.10903
20
28.3857
11
-5.0948
21
28.3388
0
LINE
8
BLACK
6
CONTINUOUS
10
-5.0948
20
28.3388
11
-5.09
21
28.29
0
LINE
8
BLACK
6
CONTINUOUS
10
-5.09
20
28.29
11
-5.09
21
27.39
0
LINE
8
BLACK
6
CONTINUOUS
10
-5.09
20
27.39
11
-5.0948
21
27.3412
0
LINE
8
BLACK
6
CONTINUOUS
10
-5.0948
20
27.3412
11
-5.10903
21
27.2943
0
LINE
8
BLACK
6
CONTINUOUS
10
-5.10903
20
27.2943
11
-5.13213
21
27.2511
0
LINE
8
BLACK
6
CONTINUOUS
10
-5.13213
20
27.2511
11
-5.16322
21
27.2132
0
LINE
8
BLACK
6
CONTINUOUS
10
-5.16322
20
27.2132
11
-5.20111
21
27.1821
0
LINE
8
BLACK
6
CONTINUOUS
10
-5.20111
20
27.1821
11
-5.24433
21
27.159
0
LINE
8
BLACK
6
CONTINUOUS
10
-5.24433
20
27.159
11
-5.29123
21
27.1448
0
LINE
8
BLACK
6
CONTINUOUS
10
-5.29123
20
27.1448
11
-5.309
21
27.1431
0
LINE
8
BLACK
6
CONTINUOUS
10
-5.309
20
27.1431
11
-5.309
21
25.2337
0
LINE
8
BLACK
6
CONTINUOUS
10
-5.309
20
25.2337
11
-5.30716
21
25.215
0
LINE
8
BLACK
6
CONTINUOUS
10
-5.30716
20
25.215
11
-5.309
21
25.1963
0
LINE
8
BLACK
6
CONTINUOUS
10
-5.309
20
25.1963
11
-5.309
21
25.1963
0
LINE
8
BLACK
6
CONTINUOUS
10
-5.309
20
25.1963
11
-5.31451
21
25.1403
0
LINE
8
BLACK
6
CONTINUOUS
10
-5.31451
20
25.1403
11
-5.3363
21
25.0685
0
LINE
8
BLACK
6
CONTINUOUS
10
-5.3363
20
25.0685
11
-5.34985
21
25.0431
0
LINE
8
BLACK
6
CONTINUOUS
10
-5.34985
20
25.0431
11
-5.37168
21
25.0023
0
LINE
8
BLACK
6
CONTINUOUS
10
-5.37168
20
25.0023
11
-5.3941
21
24.975
0
LINE
8
BLACK
6
CONTINUOUS
10
-5.3941
20
24.975
11
-5.41929
21
24.9443
0
LINE
8
BLACK
6
CONTINUOUS
10
-5.41929
20
24.9443
11
-5.43382
21
24.9324
0
LINE
8
BLACK
6
CONTINUOUS
10
-5.43382
20
24.9324
11
-6.10235
21
24.2638
0
LINE
8
BLACK
6
CONTINUOUS
10
-6.10235
20
24.2638
11
-6.11429
21
24.2493
0
LINE
8
BLACK
6
CONTINUOUS
10
-6.11429
20
24.2493
11
-6.1723
21
24.2017
0
LINE
8
BLACK
6
CONTINUOUS
10
-6.1723
20
24.2017
11
-6.23849
21
24.1663
0
LINE
8
BLACK
6
CONTINUOUS
10
-6.23849
20
24.1663
11
-6.31031
21
24.1445
0
LINE
8
BLACK
6
CONTINUOUS
10
-6.31031
20
24.1445
11
-6.36629
21
24.139
0
LINE
8
BLACK
6
CONTINUOUS
10
-6.36629
20
24.139
11
-6.36629
21
24.139
0
LINE
8
BLACK
6
CONTINUOUS
10
-6.36629
20
24.139
11
-6.385
21
24.1372
0
LINE
8
BLACK
6
CONTINUOUS
10
-6.385
20
24.1372
11
-6.40371
21
24.139
0
LINE
8
BLACK
6
CONTINUOUS
10
-6.40371
20
24.139
11
-7.77871
21
24.139
0
LINE
8
BLACK
6
CONTINUOUS
10
-7.77871
20
24.139
11
-7.83469
21
24.1445
0
LINE
8
BLACK
6
CONTINUOUS
10
-7.83469
20
24.1445
11
-7.90651
21
24.1663
0
LINE
8
BLACK
6
CONTINUOUS
10
-7.90651
20
24.1663
11
-7.9727
21
24.2017
0
LINE
8
BLACK
6
CONTINUOUS
10
-7.9727
20
24.2017
11
-8.03071
21
24.2493
0
LINE
8
BLACK
6
CONTINUOUS
10
-8.03071
20
24.2493
11
-8.07832
21
24.3073
0
LINE
8
BLACK
6
CONTINUOUS
10
-8.07832
20
24.3073
11
-8.0834
21
24.3168
0
LINE
8
BLACK
6
CONTINUOUS
10
-8.0834
20
24.3168
11
-11.875
21
24.3168
0
LINE
8
BLACK
6
CONTINUOUS
10
-11.875
20
24.3168
11
-11.9048
21
24.3197
0
LINE
8
BLACK
6
CONTINUOUS
10
-14.7162
20
28.9602
11
-14.6693
21
28.946
0
LINE
8
BLACK
6
CONTINUOUS
10
-14.6693
20
28.946
11
-14.6261
21
28.9229
0
LINE
8
BLACK
6
CONTINUOUS
10
-14.6261
20
28.9229
11
-14.5882
21
28.8918
0
LINE
8
BLACK
6
CONTINUOUS
10
-14.5882
20
28.8918
11
-14.5571
21
28.8539
0
LINE
8
BLACK
6
CONTINUOUS
10
-14.5571
20
28.8539
11
-14.534
21
28.8107
0
LINE
8
BLACK
6
CONTINUOUS
10
-14.534
20
28.8107
11
-14.5198
21
28.7638
0
LINE
8
BLACK
6
CONTINUOUS
10
-14.5198
20
28.7638
11
-14.515
21
28.715
0
LINE
8
BLACK
6
CONTINUOUS
10
-14.515
20
28.715
11
-14.515
21
27.815
0
LINE
8
BLACK
6
CONTINUOUS
10
-14.515
20
27.815
11
-14.5198
21
27.7662
0
LINE
8
BLACK
6
CONTINUOUS
10
-14.5198
20
27.7662
11
-14.534
21
27.7193
0
LINE
8
BLACK
6
CONTINUOUS
10
-14.534
20
27.7193
11
-14.5571
21
27.6761
0
LINE
8
BLACK
6
CONTINUOUS
10
-14.5571
20
27.6761
11
-14.5882
21
27.6382
0
LINE
8
BLACK
6
CONTINUOUS
10
-14.5882
20
27.6382
11
-14.6261
21
27.6071
0
LINE
8
BLACK
6
CONTINUOUS
10
-14.6261
20
27.6071
11
-14.6693
21
27.584
0
LINE
8
BLACK
6
CONTINUOUS
10
-14.6693
20
27.584
11
-14.7162
21
27.5698
0
LINE
8
BLACK
6
CONTINUOUS
10
-14.7162
20
27.5698
11
-14.765
21
27.565
0
LINE
8
BLACK
6
CONTINUOUS
10
-14.765
20
27.565
11
-14.8868
21
27.565
0
LINE
8
BLACK
6
CONTINUOUS
10
-14.8868
20
27.565
11
-14.8868
21
25.325
0
LINE
8
BLACK
6
CONTINUOUS
10
-14.8868
20
25.325
11
-14.8858
21
25.315
0
LINE
8
BLACK
6
CONTINUOUS
10
-14.8858
20
25.315
11
-14.8868
21
25.305
0
LINE
8
BLACK
6
CONTINUOUS
10
-14.8868
20
25.305
11
-14.8868
21
25.305
0
LINE
8
BLACK
6
CONTINUOUS
10
-14.8868
20
25.305
11
-14.8897
21
25.2752
0
LINE
8
BLACK
6
CONTINUOUS
10
-14.8897
20
25.2752
11
-14.9014
21
25.2369
0
LINE
8
BLACK
6
CONTINUOUS
10
-14.9014
20
25.2369
11
-14.9014
21
25.2369
0
LINE
8
BLACK
6
CONTINUOUS
10
-14.9014
20
25.2369
11
-14.9202
21
25.2016
0
LINE
8
BLACK
6
CONTINUOUS
10
-14.9202
20
25.2016
11
-14.9246
21
25.1963
0
LINE
8
BLACK
6
CONTINUOUS
10
-14.9246
20
25.1963
11
-14.9456
21
25.1706
0
LINE
8
BLACK
6
CONTINUOUS
10
-14.9456
20
25.1706
11
-14.9534
21
25.1643
0
LINE
8
BLACK
6
CONTINUOUS
10
-14.9534
20
25.1643
11
-15.7343
21
24.3834
0
LINE
8
BLACK
6
CONTINUOUS
10
-15.7343
20
24.3834
11
-15.7406
21
24.3756
0
LINE
8
BLACK
6
CONTINUOUS
10
-15.7406
20
24.3756
11
-15.7716
21
24.3502
0
LINE
8
BLACK
6
CONTINUOUS
10
-15.7716
20
24.3502
11
-15.8069
21
24.3314
0
LINE
8
BLACK
6
CONTINUOUS
10
-15.8069
20
24.3314
11
-15.8452
21
24.3197
0
LINE
8
BLACK
6
CONTINUOUS
10
-15.8452
20
24.3197
11
-15.875
21
24.3168
0
LINE
8
BLACK
6
CONTINUOUS
10
-15.875
20
24.3168
11
-15.875
21
24.3168
0
LINE
8
BLACK
6
CONTINUOUS
10
-15.875
20
24.3168
11
-15.885
21
24.3158
0
LINE
8
BLACK
6
CONTINUOUS
10
-15.885
20
24.3158
11
-15.895
21
24.3168
0
LINE
8
BLACK
6
CONTINUOUS
10
-15.895
20
24.3168
11
-17.775
21
24.3168
0
LINE
8
BLACK
6
CONTINUOUS
10
-17.775
20
24.3168
11
-17.8048
21
24.3197
0
LINE
8
BLACK
6
CONTINUOUS
10
-17.8048
20
24.3197
11
-17.8057
21
24.32
0
LINE
8
BLACK
6
CONTINUOUS
10
-17.8057
20
24.32
11
-18.49
21
24.32
0
LINE
8
BLACK
6
CONTINUOUS
10
-18.49
20
24.32
11
-18.49
21
24.72
0
LINE
8
BLACK
6
CONTINUOUS
10
-18.49
20
24.72
11
-17.8057
21
24.72
0
LINE
8
BLACK
6
CONTINUOUS
10
-17.8057
20
24.72
11
-17.8048
21
24.7203
0
LINE
8
BLACK
6
CONTINUOUS
10
-17.8048
20
24.7203
11
-17.775
21
24.7232
0
LINE
8
BLACK
6
CONTINUOUS
10
-17.775
20
24.7232
11
-15.9692
21
24.7232
0
LINE
8
BLACK
6
CONTINUOUS
10
-15.9692
20
24.7232
11
-15.2932
21
25.3992
0
LINE
8
BLACK
6
CONTINUOUS
10
-15.2932
20
25.3992
11
-15.2932
21
27.565
0
LINE
8
BLACK
6
CONTINUOUS
10
-15.2932
20
27.565
11
-15.415
21
27.565
0
LINE
8
BLACK
6
CONTINUOUS
10
-15.415
20
27.565
11
-15.4638
21
27.5698
0
LINE
8
BLACK
6
CONTINUOUS
10
-15.4638
20
27.5698
11
-15.5107
21
27.584
0
LINE
8
BLACK
6
CONTINUOUS
10
-15.5107
20
27.584
11
-15.5539
21
27.6071
0
LINE
8
BLACK
6
CONTINUOUS
10
-15.5539
20
27.6071
11
-15.5918
21
27.6382
0
LINE
8
BLACK
6
CONTINUOUS
10
-15.5918
20
27.6382
11
-15.6229
21
27.6761
0
LINE
8
BLACK
6
CONTINUOUS
10
-15.6229
20
27.6761
11
-15.646
21
27.7193
0
LINE
8
BLACK
6
CONTINUOUS
10
-15.646
20
27.7193
11
-15.6602
21
27.7662
0
LINE
8
BLACK
6
CONTINUOUS
10
-15.6602
20
27.7662
11
-15.665
21
27.815
0
LINE
8
BLACK
6
CONTINUOUS
10
-15.665
20
27.815
11
-15.665
21
28.715
0
LINE
8
BLACK
6
CONTINUOUS
10
-15.665
20
28.715
11
-15.6602
21
28.7638
0
LINE
8
BLACK
6
CONTINUOUS
10
-15.6602
20
28.7638
11
-15.646
21
28.8107
0
LINE
8
BLACK
6
CONTINUOUS
10
-15.646
20
28.8107
11
-15.6229
21
28.8539
0
LINE
8
BLACK
6
CONTINUOUS
10
-15.6229
20
28.8539
11
-15.5918
21
28.8918
0
LINE
8
BLACK
6
CONTINUOUS
10
-15.5918
20
28.8918
11
-15.5539
21
28.9229
0
LINE
8
BLACK
6
CONTINUOUS
10
-15.5539
20
28.9229
11
-15.5107
21
28.946
0
LINE
8
BLACK
6
CONTINUOUS
10
-15.5107
20
28.946
11
-15.4638
21
28.9602
0
LINE
8
BLACK
6
CONTINUOUS
10
-15.4638
20
28.9602
11
-15.415
21
28.965
0
LINE
8
BLACK
6
CONTINUOUS
10
-15.415
20
28.965
11
-14.765
21
28.965
0
LINE
8
BLACK
6
CONTINUOUS
10
-14.765
20
28.965
11
-14.7162
21
28.9602
0
LINE
8
BLACK
6
CONTINUOUS
10
-17.04
20
24.97
11
-18.49
21
24.97
0
LINE
8
BLACK
6
CONTINUOUS
10
-18.49
20
24.97
11
-18.49
21
25.37
0
LINE
8
BLACK
6
CONTINUOUS
10
-18.49
20
25.37
11
-17.04
21
25.37
0
LINE
8
BLACK
6
CONTINUOUS
10
-17.04
20
25.37
11
-17.04
21
24.97
0
LINE
8
BLACK
6
CONTINUOUS
10
-11.14
20
24.97
11
-12.59
21
24.97
0
LINE
8
BLACK
6
CONTINUOUS
10
-12.59
20
24.97
11
-12.59
21
25.37
0
LINE
8
BLACK
6
CONTINUOUS
10
-12.59
20
25.37
11
-11.14
21
25.37
0
LINE
8
BLACK
6
CONTINUOUS
10
-11.14
20
25.37
11
-11.14
21
24.97
0
LINE
8
BLACK
6
CONTINUOUS
10
-17.04
20
25.62
11
-18.49
21
25.62
0
LINE
8
BLACK
6
CONTINUOUS
10
-18.49
20
25.62
11
-18.49
21
26.02
0
LINE
8
BLACK
6
CONTINUOUS
10
-18.49
20
26.02
11
-17.04
21
26.02
0
LINE
8
BLACK
6
CONTINUOUS
10
-17.04
20
26.02
11
-17.04
21
25.62
0
LINE
8
BLACK
6
CONTINUOUS
10
-11.14
20
25.62
11
-12.59
21
25.62
0
LINE
8
BLACK
6
CONTINUOUS
10
-12.59
20
25.62
11
-12.59
21
26.02
0
LINE
8
BLACK
6
CONTINUOUS
10
-12.59
20
26.02
11
-11.14
21
26.02
0
LINE
8
BLACK
6
CONTINUOUS
10
-11.14
20
26.02
11
-11.14
21
25.62
0
LINE
8
BLACK
6
CONTINUOUS
10
-14.615
20
32.99
11
-15.6012
21
32.99
0
LINE
8
BLACK
6
CONTINUOUS
10
-15.6012
20
32.99
11
-16.784
21
31.8072
0
LINE
8
BLACK
6
CONTINUOUS
10
-16.784
20
31.8072
11
-16.784
21
28.9619
0
LINE
8
BLACK
6
CONTINUOUS
10
-16.784
20
28.9619
11
-16.7662
21
28.9602
0
LINE
8
BLACK
6
CONTINUOUS
10
-16.7662
20
28.9602
11
-16.7193
21
28.946
0
LINE
8
BLACK
6
CONTINUOUS
10
-16.7193
20
28.946
11
-16.6761
21
28.9229
0
LINE
8
BLACK
6
CONTINUOUS
10
-16.6761
20
28.9229
11
-16.6382
21
28.8918
0
LINE
8
BLACK
6
CONTINUOUS
10
-16.6382
20
28.8918
11
-16.6071
21
28.8539
0
LINE
8
BLACK
6
CONTINUOUS
10
-16.6071
20
28.8539
11
-16.584
21
28.8107
0
LINE
8
BLACK
6
CONTINUOUS
10
-16.584
20
28.8107
11
-16.5698
21
28.7638
0
LINE
8
BLACK
6
CONTINUOUS
10
-16.5698
20
28.7638
11
-16.565
21
28.715
0
LINE
8
BLACK
6
CONTINUOUS
10
-16.565
20
28.715
11
-16.565
21
27.815
0
LINE
8
BLACK
6
CONTINUOUS
10
-16.565
20
27.815
11
-16.5698
21
27.7662
0
LINE
8
BLACK
6
CONTINUOUS
10
-16.5698
20
27.7662
11
-16.584
21
27.7193
0
LINE
8
BLACK
6
CONTINUOUS
10
-16.584
20
27.7193
11
-16.6071
21
27.6761
0
LINE
8
BLACK
6
CONTINUOUS
10
-16.6071
20
27.6761
11
-16.6382
21
27.6382
0
LINE
8
BLACK
6
CONTINUOUS
10
-16.6382
20
27.6382
11
-16.6761
21
27.6071
0
LINE
8
BLACK
6
CONTINUOUS
10
-16.6761
20
27.6071
11
-16.7193
21
27.584
0
LINE
8
BLACK
6
CONTINUOUS
10
-16.7193
20
27.584
11
-16.7662
21
27.5698
0
LINE
8
BLACK
6
CONTINUOUS
10
-16.7662
20
27.5698
11
-16.815
21
27.565
0
LINE
8
BLACK
6
CONTINUOUS
10
-16.815
20
27.565
11
-17.465
21
27.565
0
LINE
8
BLACK
6
CONTINUOUS
10
-17.465
20
27.565
11
-17.5138
21
27.5698
0
LINE
8
BLACK
6
CONTINUOUS
10
-17.5138
20
27.5698
11
-17.5607
21
27.584
0
LINE
8
BLACK
6
CONTINUOUS
10
-17.5607
20
27.584
11
-17.6039
21
27.6071
0
LINE
8
BLACK
6
CONTINUOUS
10
-17.6039
20
27.6071
11
-17.6418
21
27.6382
0
LINE
8
BLACK
6
CONTINUOUS
10
-17.6418
20
27.6382
11
-17.6729
21
27.6761
0
LINE
8
BLACK
6
CONTINUOUS
10
-17.6729
20
27.6761
11
-17.696
21
27.7193
0
LINE
8
BLACK
6
CONTINUOUS
10
-17.696
20
27.7193
11
-17.7102
21
27.7662
0
LINE
8
BLACK
6
CONTINUOUS
10
-17.7102
20
27.7662
11
-17.715
21
27.815
0
LINE
8
BLACK
6
CONTINUOUS
10
-17.715
20
27.815
11
-17.715
21
28.715
0
LINE
8
BLACK
6
CONTINUOUS
10
-17.715
20
28.715
11
-17.7102
21
28.7638
0
LINE
8
BLACK
6
CONTINUOUS
10
-17.7102
20
28.7638
11
-17.696
21
28.8107
0
LINE
8
BLACK
6
CONTINUOUS
10
-17.696
20
28.8107
11
-17.6729
21
28.8539
0
LINE
8
BLACK
6
CONTINUOUS
10
-17.6729
20
28.8539
11
-17.6418
21
28.8918
0
LINE
8
BLACK
6
CONTINUOUS
10
-17.6418
20
28.8918
11
-17.6039
21
28.9229
0
LINE
8
BLACK
6
CONTINUOUS
10
-17.6039
20
28.9229
11
-17.5607
21
28.946
0
LINE
8
BLACK
6
CONTINUOUS
10
-17.5607
20
28.946
11
-17.546
21
28.9504
0
LINE
8
BLACK
6
CONTINUOUS
10
-17.546
20
28.9504
11
-17.546
21
31.9463
0
LINE
8
BLACK
6
CONTINUOUS
10
-17.546
20
31.9463
11
-17.5478
21
31.965
0
LINE
8
BLACK
6
CONTINUOUS
10
-17.5478
20
31.965
11
-17.5458
21
31.9862
0
LINE
8
BLACK
6
CONTINUOUS
10
-17.5458
20
31.9862
11
-17.5405
21
32.0397
0
LINE
8
BLACK
6
CONTINUOUS
10
-17.5405
20
32.0397
11
-17.5187
21
32.1115
0
LINE
8
BLACK
6
CONTINUOUS
10
-17.5187
20
32.1115
11
-17.4926
21
32.1603
0
LINE
8
BLACK
6
CONTINUOUS
10
-17.4926
20
32.1603
11
-17.4833
21
32.1777
0
LINE
8
BLACK
6
CONTINUOUS
10
-17.4833
20
32.1777
11
-17.4673
21
32.1972
0
LINE
8
BLACK
6
CONTINUOUS
10
-17.4673
20
32.1972
11
-17.4357
21
32.2357
0
LINE
8
BLACK
6
CONTINUOUS
10
-17.4357
20
32.2357
11
-17.4212
21
32.2476
0
LINE
8
BLACK
6
CONTINUOUS
10
-17.4212
20
32.2476
11
-15.915
21
33.7538
0
LINE
8
BLACK
6
CONTINUOUS
10
-15.915
20
33.7538
11
-15.915
21
36.39
0
LINE
8
BLACK
6
CONTINUOUS
10
-15.915
20
36.39
11
-14.615
21
36.39
0
LINE
8
BLACK
6
CONTINUOUS
10
-14.615
20
36.39
11
-14.615
21
32.99
0
LINE
8
BLACK
6
CONTINUOUS
10
-30.545
20
33.28
11
-30.994
21
33.28
0
LINE
8
BLACK
6
CONTINUOUS
10
-30.994
20
33.28
11
-30.994
21
31.3087
0
LINE
8
BLACK
6
CONTINUOUS
10
-30.994
20
31.3087
11
-30.9922
21
31.29
0
LINE
8
BLACK
6
CONTINUOUS
10
-30.9922
20
31.29
11
-30.994
21
31.2713
0
LINE
8
BLACK
6
CONTINUOUS
10
-30.994
20
31.2713
11
-30.994
21
31.2713
0
LINE
8
BLACK
6
CONTINUOUS
10
-30.994
20
31.2713
11
-30.9995
21
31.2153
0
LINE
8
BLACK
6
CONTINUOUS
10
-30.9995
20
31.2153
11
-31.0213
21
31.1435
0
LINE
8
BLACK
6
CONTINUOUS
10
-31.0213
20
31.1435
11
-31.0382
21
31.1119
0
LINE
8
BLACK
6
CONTINUOUS
10
-31.0382
20
31.1119
11
-31.0567
21
31.0773
0
LINE
8
BLACK
6
CONTINUOUS
10
-31.0567
20
31.0773
11
-31.0763
21
31.0534
0
LINE
8
BLACK
6
CONTINUOUS
10
-31.0763
20
31.0534
11
-31.1043
21
31.0193
0
LINE
8
BLACK
6
CONTINUOUS
10
-31.1043
20
31.0193
11
-31.1188
21
31.0074
0
LINE
8
BLACK
6
CONTINUOUS
10
-31.1188
20
31.0074
11
-32.2012
21
29.925
0
LINE
8
BLACK
6
CONTINUOUS
10
-32.2012
20
29.925
11
-32.1878
21
29.8808
0
LINE
8
BLACK
6
CONTINUOUS
10
-32.1878
20
29.8808
11
-32.183
21
29.832
0
LINE
8
BLACK
6
CONTINUOUS
10
-32.183
20
29.832
11
-32.183
21
29.763
0
LINE
8
BLACK
6
CONTINUOUS
10
-32.183
20
29.763
11
-31.365
21
29.763
0
LINE
8
BLACK
6
CONTINUOUS
10
-31.365
20
29.763
11
-31.365
21
29.77
0
LINE
8
BLACK
6
CONTINUOUS
10
-31.365
20
29.77
11
-30.465
21
29.77
0
LINE
8
BLACK
6
CONTINUOUS
10
-30.465
20
29.77
11
-30.465
21
28.97
0
LINE
8
BLACK
6
CONTINUOUS
10
-30.465
20
28.97
11
-31.365
21
28.97
0
LINE
8
BLACK
6
CONTINUOUS
10
-31.365
20
28.97
11
-31.365
21
29.001
0
LINE
8
BLACK
6
CONTINUOUS
10
-31.365
20
29.001
11
-32.183
21
29.001
0
LINE
8
BLACK
6
CONTINUOUS
10
-32.183
20
29.001
11
-32.183
21
28.932
0
LINE
8
BLACK
6
CONTINUOUS
10
-32.183
20
28.932
11
-32.1878
21
28.8832
0
LINE
8
BLACK
6
CONTINUOUS
10
-32.1878
20
28.8832
11
-32.202
21
28.8363
0
LINE
8
BLACK
6
CONTINUOUS
10
-32.202
20
28.8363
11
-32.2251
21
28.7931
0
LINE
8
BLACK
6
CONTINUOUS
10
-32.2251
20
28.7931
11
-32.2562
21
28.7552
0
LINE
8
BLACK
6
CONTINUOUS
10
-32.2562
20
28.7552
11
-32.2941
21
28.7241
0
LINE
8
BLACK
6
CONTINUOUS
10
-32.2941
20
28.7241
11
-32.3373
21
28.701
0
LINE
8
BLACK
6
CONTINUOUS
10
-32.3373
20
28.701
11
-32.3842
21
28.6868
0
LINE
8
BLACK
6
CONTINUOUS
10
-32.3842
20
28.6868
11
-32.433
21
28.682
0
LINE
8
BLACK
6
CONTINUOUS
10
-32.433
20
28.682
11
-33.083
21
28.682
0
LINE
8
BLACK
6
CONTINUOUS
10
-33.083
20
28.682
11
-33.1318
21
28.6868
0
LINE
8
BLACK
6
CONTINUOUS
10
-33.1318
20
28.6868
11
-33.1787
21
28.701
0
LINE
8
BLACK
6
CONTINUOUS
10
-33.1787
20
28.701
11
-33.2219
21
28.7241
0
LINE
8
BLACK
6
CONTINUOUS
10
-33.2219
20
28.7241
11
-33.2598
21
28.7552
0
LINE
8
BLACK
6
CONTINUOUS
10
-33.2598
20
28.7552
11
-33.2909
21
28.7931
0
LINE
8
BLACK
6
CONTINUOUS
10
-33.2909
20
28.7931
11
-33.314
21
28.8363
0
LINE
8
BLACK
6
CONTINUOUS
10
-33.314
20
28.8363
11
-33.3282
21
28.8832
0
LINE
8
BLACK
6
CONTINUOUS
10
-33.3282
20
28.8832
11
-33.333
21
28.932
0
LINE
8
BLACK
6
CONTINUOUS
10
-33.333
20
28.932
11
-33.333
21
29.832
0
LINE
8
BLACK
6
CONTINUOUS
10
-33.333
20
29.832
11
-33.3282
21
29.8808
0
LINE
8
BLACK
6
CONTINUOUS
10
-33.3282
20
29.8808
11
-33.314
21
29.9277
0
LINE
8
BLACK
6
CONTINUOUS
10
-33.314
20
29.9277
11
-33.2909
21
29.9709
0
LINE
8
BLACK
6
CONTINUOUS
10
-33.2909
20
29.9709
11
-33.2598
21
30.0088
0
LINE
8
BLACK
6
CONTINUOUS
10
-33.2598
20
30.0088
11
-33.2219
21
30.0399
0
LINE
8
BLACK
6
CONTINUOUS
10
-33.2219
20
30.0399
11
-33.1787
21
30.063
0
LINE
8
BLACK
6
CONTINUOUS
10
-33.1787
20
30.063
11
-33.1318
21
30.0772
0
LINE
8
BLACK
6
CONTINUOUS
10
-33.1318
20
30.0772
11
-33.0972
21
30.0806
0
LINE
8
BLACK
6
CONTINUOUS
10
-33.0972
20
30.0806
11
-33.0899
21
30.0944
0
LINE
8
BLACK
6
CONTINUOUS
10
-33.0899
20
30.0944
11
-33.0763
21
30.1197
0
LINE
8
BLACK
6
CONTINUOUS
10
-33.0763
20
30.1197
11
-33.0563
21
30.1441
0
LINE
8
BLACK
6
CONTINUOUS
10
-33.0563
20
30.1441
11
-33.0287
21
30.1777
0
LINE
8
BLACK
6
CONTINUOUS
10
-33.0287
20
30.1777
11
-33.0142
21
30.1896
0
LINE
8
BLACK
6
CONTINUOUS
10
-33.0142
20
30.1896
11
-31.756
21
31.4478
0
LINE
8
BLACK
6
CONTINUOUS
10
-31.756
20
31.4478
11
-31.756
21
33.28
0
LINE
8
BLACK
6
CONTINUOUS
10
-31.756
20
33.28
11
-32.045
21
33.28
0
LINE
8
BLACK
6
CONTINUOUS
10
-32.045
20
33.28
11
-32.045
21
34.28
0
LINE
8
BLACK
6
CONTINUOUS
10
-32.045
20
34.28
11
-30.545
21
34.28
0
LINE
8
BLACK
6
CONTINUOUS
10
-30.545
20
34.28
11
-30.545
21
33.28
0
LINE
8
BLACK
6
CONTINUOUS
10
-36.6037
20
30.4852
11
-36.5568
21
30.471
0
LINE
8
BLACK
6
CONTINUOUS
10
-36.5568
20
30.471
11
-36.5136
21
30.4479
0
LINE
8
BLACK
6
CONTINUOUS
10
-36.5136
20
30.4479
11
-36.4757
21
30.4168
0
LINE
8
BLACK
6
CONTINUOUS
10
-36.4757
20
30.4168
11
-36.4446
21
30.3789
0
LINE
8
BLACK
6
CONTINUOUS
10
-36.4446
20
30.3789
11
-36.4215
21
30.3357
0
LINE
8
BLACK
6
CONTINUOUS
10
-36.4215
20
30.3357
11
-36.4073
21
30.2888
0
LINE
8
BLACK
6
CONTINUOUS
10
-36.4073
20
30.2888
11
-36.4025
21
30.24
0
LINE
8
BLACK
6
CONTINUOUS
10
-36.4025
20
30.24
11
-36.4025
21
29.74
0
LINE
8
BLACK
6
CONTINUOUS
10
-36.4025
20
29.74
11
-36.4073
21
29.6912
0
LINE
8
BLACK
6
CONTINUOUS
10
-36.4073
20
29.6912
11
-36.4215
21
29.6443
0
LINE
8
BLACK
6
CONTINUOUS
10
-36.4215
20
29.6443
11
-36.4446
21
29.6011
0
LINE
8
BLACK
6
CONTINUOUS
10
-36.4446
20
29.6011
11
-36.4757
21
29.5632
0
LINE
8
BLACK
6
CONTINUOUS
10
-36.4757
20
29.5632
11
-36.5136
21
29.5321
0
LINE
8
BLACK
6
CONTINUOUS
10
-36.5136
20
29.5321
11
-36.5568
21
29.509
0
LINE
8
BLACK
6
CONTINUOUS
10
-36.5568
20
29.509
11
-36.6037
21
29.4948
0
LINE
8
BLACK
6
CONTINUOUS
10
-36.6037
20
29.4948
11
-36.6525
21
29.49
0
LINE
8
BLACK
6
CONTINUOUS
10
-36.6525
20
29.49
11
-37.1525
21
29.49
0
LINE
8
BLACK
6
CONTINUOUS
10
-37.1525
20
29.49
11
-37.2013
21
29.4948
0
LINE
8
BLACK
6
CONTINUOUS
10
-37.2013
20
29.4948
11
-37.2482
21
29.509
0
LINE
8
BLACK
6
CONTINUOUS
10
-37.2482
20
29.509
11
-37.2914
21
29.5321
0
LINE
8
BLACK
6
CONTINUOUS
10
-37.2914
20
29.5321
11
-37.3293
21
29.5632
0
LINE
8
BLACK
6
CONTINUOUS
10
-37.3293
20
29.5632
11
-37.3604
21
29.6011
0
LINE
8
BLACK
6
CONTINUOUS
10
-37.3604
20
29.6011
11
-37.3835
21
29.6443
0
LINE
8
BLACK
6
CONTINUOUS
10
-37.3835
20
29.6443
11
-37.3977
21
29.6912
0
LINE
8
BLACK
6
CONTINUOUS
10
-37.3977
20
29.6912
11
-37.4025
21
29.74
0
LINE
8
BLACK
6
CONTINUOUS
10
-37.4025
20
29.74
11
-37.4025
21
30.24
0
LINE
8
BLACK
6
CONTINUOUS
10
-37.4025
20
30.24
11
-37.3977
21
30.2888
0
LINE
8
BLACK
6
CONTINUOUS
10
-37.3977
20
30.2888
11
-37.3835
21
30.3357
0
LINE
8
BLACK
6
CONTINUOUS
10
-37.3835
20
30.3357
11
-37.3604
21
30.3789
0
LINE
8
BLACK
6
CONTINUOUS
10
-37.3604
20
30.3789
11
-37.3293
21
30.4168
0
LINE
8
BLACK
6
CONTINUOUS
10
-37.3293
20
30.4168
11
-37.2914
21
30.4479
0
LINE
8
BLACK
6
CONTINUOUS
10
-37.2914
20
30.4479
11
-37.2482
21
30.471
0
LINE
8
BLACK
6
CONTINUOUS
10
-37.2482
20
30.471
11
-37.2013
21
30.4852
0
LINE
8
BLACK
6
CONTINUOUS
10
-37.2013
20
30.4852
11
-37.1525
21
30.49
0
LINE
8
BLACK
6
CONTINUOUS
10
-37.1525
20
30.49
11
-36.6525
21
30.49
0
LINE
8
BLACK
6
CONTINUOUS
10
-36.6525
20
30.49
11
-36.6037
21
30.4852
0
LINE
8
BLACK
6
CONTINUOUS
10
-34.68
20
32.6932
11
-34.68
21
32.6932
0
LINE
8
BLACK
6
CONTINUOUS
10
-34.68
20
32.6932
11
-34.6502
21
32.6903
0
LINE
8
BLACK
6
CONTINUOUS
10
-34.6502
20
32.6903
11
-34.6119
21
32.6786
0
LINE
8
BLACK
6
CONTINUOUS
10
-34.6119
20
32.6786
11
-34.5766
21
32.6598
0
LINE
8
BLACK
6
CONTINUOUS
10
-34.5766
20
32.6598
11
-34.5456
21
32.6344
0
LINE
8
BLACK
6
CONTINUOUS
10
-34.5456
20
32.6344
11
-34.5393
21
32.6266
0
LINE
8
BLACK
6
CONTINUOUS
10
-34.5393
20
32.6266
11
-34.2893
21
32.3766
0
LINE
8
BLACK
6
CONTINUOUS
10
-34.2893
20
32.3766
11
-34.2893
21
32.3766
0
LINE
8
BLACK
6
CONTINUOUS
10
-34.2893
20
32.3766
11
-34.0724
21
32.1598
0
LINE
8
BLACK
6
CONTINUOUS
10
-34.0724
20
32.1598
11
-34.0716
21
32.1603
0
LINE
8
BLACK
6
CONTINUOUS
10
-34.0716
20
32.1603
11
-33.9442
21
32.2131
0
LINE
8
BLACK
6
CONTINUOUS
10
-33.9442
20
32.2131
11
-33.8089
21
32.24
0
LINE
8
BLACK
6
CONTINUOUS
10
-33.8089
20
32.24
11
-33.6711
21
32.24
0
LINE
8
BLACK
6
CONTINUOUS
10
-33.6711
20
32.24
11
-33.5358
21
32.2131
0
LINE
8
BLACK
6
CONTINUOUS
10
-33.5358
20
32.2131
11
-33.4084
21
32.1603
0
LINE
8
BLACK
6
CONTINUOUS
10
-33.4084
20
32.1603
11
-33.2938
21
32.0837
0
LINE
8
BLACK
6
CONTINUOUS
10
-33.2938
20
32.0837
11
-33.1963
21
31.9862
0
LINE
8
BLACK
6
CONTINUOUS
10
-33.1963
20
31.9862
11
-33.1197
21
31.8716
0
LINE
8
BLACK
6
CONTINUOUS
10
-33.1197
20
31.8716
11
-33.0669
21
31.7442
0
LINE
8
BLACK
6
CONTINUOUS
10
-33.0669
20
31.7442
11
-33.04
21
31.6089
0
LINE
8
BLACK
6
CONTINUOUS
10
-33.04
20
31.6089
11
-33.04
21
31.4711
0
LINE
8
BLACK
6
CONTINUOUS
10
-33.04
20
31.4711
11
-33.0669
21
31.3358
0
LINE
8
BLACK
6
CONTINUOUS
10
-33.0669
20
31.3358
11
-33.1197
21
31.2084
0
LINE
8
BLACK
6
CONTINUOUS
10
-33.1197
20
31.2084
11
-33.1963
21
31.0938
0
LINE
8
BLACK
6
CONTINUOUS
10
-33.1963
20
31.0938
11
-33.2938
21
30.9963
0
LINE
8
BLACK
6
CONTINUOUS
10
-33.2938
20
30.9963
11
-33.4084
21
30.9197
0
LINE
8
BLACK
6
CONTINUOUS
10
-33.4084
20
30.9197
11
-33.5358
21
30.8669
0
LINE
8
BLACK
6
CONTINUOUS
10
-33.5358
20
30.8669
11
-33.6711
21
30.84
0
LINE
8
BLACK
6
CONTINUOUS
10
-33.6711
20
30.84
11
-33.8089
21
30.84
0
LINE
8
BLACK
6
CONTINUOUS
10
-33.8089
20
30.84
11
-33.9442
21
30.8669
0
LINE
8
BLACK
6
CONTINUOUS
10
-33.9442
20
30.8669
11
-34.0716
21
30.9197
0
LINE
8
BLACK
6
CONTINUOUS
10
-34.0716
20
30.9197
11
-34.1862
21
30.9963
0
LINE
8
BLACK
6
CONTINUOUS
10
-34.1862
20
30.9963
11
-34.2837
21
31.0938
0
LINE
8
BLACK
6
CONTINUOUS
10
-34.2837
20
31.0938
11
-34.3603
21
31.2084
0
LINE
8
BLACK
6
CONTINUOUS
10
-34.3603
20
31.2084
11
-34.4131
21
31.3358
0
LINE
8
BLACK
6
CONTINUOUS
10
-34.4131
20
31.3358
11
-34.44
21
31.4711
0
LINE
8
BLACK
6
CONTINUOUS
10
-34.44
20
31.4711
11
-34.44
21
31.6089
0
LINE
8
BLACK
6
CONTINUOUS
10
-34.44
20
31.6089
11
-34.4131
21
31.7442
0
LINE
8
BLACK
6
CONTINUOUS
10
-34.4131
20
31.7442
11
-34.3603
21
31.8716
0
LINE
8
BLACK
6
CONTINUOUS
10
-34.3603
20
31.8716
11
-34.3598
21
31.8724
0
LINE
8
BLACK
6
CONTINUOUS
10
-34.3598
20
31.8724
11
-34.5766
21
32.0893
0
LINE
8
BLACK
6
CONTINUOUS
10
-34.5766
20
32.0893
11
-34.5766
21
32.0893
0
LINE
8
BLACK
6
CONTINUOUS
10
-34.5766
20
32.0893
11
-34.7742
21
32.2868
0
LINE
8
BLACK
6
CONTINUOUS
10
-34.7742
20
32.2868
11
-36.9125
21
32.2868
0
LINE
8
BLACK
6
CONTINUOUS
10
-36.9125
20
32.2868
11
-36.9423
21
32.2897
0
LINE
8
BLACK
6
CONTINUOUS
10
-36.9423
20
32.2897
11
-36.9432
21
32.29
0
LINE
8
BLACK
6
CONTINUOUS
10
-36.9432
20
32.29
11
-37.5775
21
32.29
0
LINE
8
BLACK
6
CONTINUOUS
10
-37.5775
20
32.29
11
-37.5775
21
32.69
0
LINE
8
BLACK
6
CONTINUOUS
10
-37.5775
20
32.69
11
-36.9432
21
32.69
0
LINE
8
BLACK
6
CONTINUOUS
10
-36.9432
20
32.69
11
-36.9423
21
32.6903
0
LINE
8
BLACK
6
CONTINUOUS
10
-36.9423
20
32.6903
11
-36.9125
21
32.6932
0
LINE
8
BLACK
6
CONTINUOUS
10
-36.9125
20
32.6932
11
-34.7
21
32.6932
0
LINE
8
BLACK
6
CONTINUOUS
10
-34.7
20
32.6932
11
-34.69
21
32.6942
0
LINE
8
BLACK
6
CONTINUOUS
10
-34.69
20
32.6942
11
-34.68
21
32.6932
0
LINE
8
BLACK
6
CONTINUOUS
10
-36.2275
20
31.64
11
-37.5775
21
31.64
0
LINE
8
BLACK
6
CONTINUOUS
10
-37.5775
20
31.64
11
-37.5775
21
32.04
0
LINE
8
BLACK
6
CONTINUOUS
10
-37.5775
20
32.04
11
-36.2275
21
32.04
0
LINE
8
BLACK
6
CONTINUOUS
10
-36.2275
20
32.04
11
-36.2275
21
31.64
0
LINE
8
BLACK
6
CONTINUOUS
10
-33.2108
20
34.1131
11
-33.0834
21
34.0603
0
LINE
8
BLACK
6
CONTINUOUS
10
-33.0834
20
34.0603
11
-32.9688
21
33.9837
0
LINE
8
BLACK
6
CONTINUOUS
10
-32.9688
20
33.9837
11
-32.8713
21
33.8862
0
LINE
8
BLACK
6
CONTINUOUS
10
-32.8713
20
33.8862
11
-32.7947
21
33.7716
0
LINE
8
BLACK
6
CONTINUOUS
10
-32.7947
20
33.7716
11
-32.7419
21
33.6442
0
LINE
8
BLACK
6
CONTINUOUS
10
-32.7419
20
33.6442
11
-32.715
21
33.5089
0
LINE
8
BLACK
6
CONTINUOUS
10
-32.715
20
33.5089
11
-32.715
21
33.3711
0
LINE
8
BLACK
6
CONTINUOUS
10
-32.715
20
33.3711
11
-32.7419
21
33.2358
0
LINE
8
BLACK
6
CONTINUOUS
10
-32.7419
20
33.2358
11
-32.7947
21
33.1084
0
LINE
8
BLACK
6
CONTINUOUS
10
-32.7947
20
33.1084
11
-32.8713
21
32.9938
0
LINE
8
BLACK
6
CONTINUOUS
10
-32.8713
20
32.9938
11
-32.9688
21
32.8963
0
LINE
8
BLACK
6
CONTINUOUS
10
-32.9688
20
32.8963
11
-33.0834
21
32.8197
0
LINE
8
BLACK
6
CONTINUOUS
10
-33.0834
20
32.8197
11
-33.2108
21
32.7669
0
LINE
8
BLACK
6
CONTINUOUS
10
-33.2108
20
32.7669
11
-33.3461
21
32.74
0
LINE
8
BLACK
6
CONTINUOUS
10
-33.3461
20
32.74
11
-33.4839
21
32.74
0
LINE
8
BLACK
6
CONTINUOUS
10
-33.4839
20
32.74
11
-33.6192
21
32.7669
0
LINE
8
BLACK
6
CONTINUOUS
10
-33.6192
20
32.7669
11
-33.7466
21
32.8197
0
LINE
8
BLACK
6
CONTINUOUS
10
-33.7466
20
32.8197
11
-33.8612
21
32.8963
0
LINE
8
BLACK
6
CONTINUOUS
10
-33.8612
20
32.8963
11
-33.9017
21
32.9368
0
LINE
8
BLACK
6
CONTINUOUS
10
-33.9017
20
32.9368
11
-36.8586
21
32.9368
0
LINE
8
BLACK
6
CONTINUOUS
10
-36.8586
20
32.9368
11
-36.8595
21
32.9365
0
LINE
8
BLACK
6
CONTINUOUS
10
-36.8595
20
32.9365
11
-36.8993
21
32.9326
0
LINE
8
BLACK
6
CONTINUOUS
10
-36.8993
20
32.9326
11
-36.9391
21
32.9365
0
LINE
8
BLACK
6
CONTINUOUS
10
-36.9391
20
32.9365
11
-36.9506
21
32.94
0
LINE
8
BLACK
6
CONTINUOUS
10
-36.9506
20
32.94
11
-37.5775
21
32.94
0
LINE
8
BLACK
6
CONTINUOUS
10
-37.5775
20
32.94
11
-37.5775
21
33.34
0
LINE
8
BLACK
6
CONTINUOUS
10
-37.5775
20
33.34
11
-36.9432
21
33.34
0
LINE
8
BLACK
6
CONTINUOUS
10
-36.9432
20
33.34
11
-36.9423
21
33.3403
0
LINE
8
BLACK
6
CONTINUOUS
10
-36.9423
20
33.3403
11
-36.9125
21
33.3432
0
LINE
8
BLACK
6
CONTINUOUS
10
-36.9125
20
33.3432
11
-36.9125
21
33.3432
0
LINE
8
BLACK
6
CONTINUOUS
10
-36.9125
20
33.3432
11
-36.9025
21
33.3442
0
LINE
8
BLACK
6
CONTINUOUS
10
-36.9025
20
33.3442
11
-36.8925
21
33.3432
0
LINE
8
BLACK
6
CONTINUOUS
10
-36.8925
20
33.3432
11
-34.1095
21
33.3432
0
LINE
8
BLACK
6
CONTINUOUS
10
-34.1095
20
33.3432
11
-34.115
21
33.3711
0
LINE
8
BLACK
6
CONTINUOUS
10
-34.115
20
33.3711
11
-34.115
21
33.5089
0
LINE
8
BLACK
6
CONTINUOUS
10
-34.115
20
33.5089
11
-34.0881
21
33.6442
0
LINE
8
BLACK
6
CONTINUOUS
10
-34.0881
20
33.6442
11
-34.0353
21
33.7716
0
LINE
8
BLACK
6
CONTINUOUS
10
-34.0353
20
33.7716
11
-33.9587
21
33.8862
0
LINE
8
BLACK
6
CONTINUOUS
10
-33.9587
20
33.8862
11
-33.8612
21
33.9837
0
LINE
8
BLACK
6
CONTINUOUS
10
-33.8612
20
33.9837
11
-33.7466
21
34.0603
0
LINE
8
BLACK
6
CONTINUOUS
10
-33.7466
20
34.0603
11
-33.6192
21
34.1131
0
LINE
8
BLACK
6
CONTINUOUS
10
-33.6192
20
34.1131
11
-33.4839
21
34.14
0
LINE
8
BLACK
6
CONTINUOUS
10
-33.4839
20
34.14
11
-33.3461
21
34.14
0
LINE
8
BLACK
6
CONTINUOUS
10
-33.3461
20
34.14
11
-33.2108
21
34.1131
0
LINE
8
BLACK
6
CONTINUOUS
10
-29.4015
20
34.1872
11
-30.2485
21
34.7801
0
LINE
8
BLACK
6
CONTINUOUS
10
-30.2485
20
34.7801
11
-30.2485
21
34.78
0
LINE
8
BLACK
6
CONTINUOUS
10
-30.2485
20
34.78
11
-32.0485
21
34.78
0
LINE
8
BLACK
6
CONTINUOUS
10
-32.0485
20
34.78
11
-32.0485
21
34.894
0
LINE
8
BLACK
6
CONTINUOUS
10
-32.0485
20
34.894
11
-33.312
21
34.894
0
LINE
8
BLACK
6
CONTINUOUS
10
-33.312
20
34.894
11
-33.324
21
34.8543
0
LINE
8
BLACK
6
CONTINUOUS
10
-33.324
20
34.8543
11
-33.3471
21
34.8111
0
LINE
8
BLACK
6
CONTINUOUS
10
-33.3471
20
34.8111
11
-33.3782
21
34.7732
0
LINE
8
BLACK
6
CONTINUOUS
10
-33.3782
20
34.7732
11
-33.4161
21
34.7421
0
LINE
8
BLACK
6
CONTINUOUS
10
-33.4161
20
34.7421
11
-33.4593
21
34.719
0
LINE
8
BLACK
6
CONTINUOUS
10
-33.4593
20
34.719
11
-33.5062
21
34.7048
0
LINE
8
BLACK
6
CONTINUOUS
10
-33.5062
20
34.7048
11
-33.555
21
34.7
0
LINE
8
BLACK
6
CONTINUOUS
10
-33.555
20
34.7
11
-34.455
21
34.7
0
LINE
8
BLACK
6
CONTINUOUS
10
-34.455
20
34.7
11
-34.5038
21
34.7048
0
LINE
8
BLACK
6
CONTINUOUS
10
-34.5038
20
34.7048
11
-34.5507
21
34.719
0
LINE
8
BLACK
6
CONTINUOUS
10
-34.5507
20
34.719
11
-34.5859
21
34.7379
0
LINE
8
BLACK
6
CONTINUOUS
10
-34.5859
20
34.7379
11
-35.6704
21
33.6534
0
LINE
8
BLACK
6
CONTINUOUS
10
-35.6704
20
33.6534
11
-35.6767
21
33.6456
0
LINE
8
BLACK
6
CONTINUOUS
10
-35.6767
20
33.6456
11
-35.7077
21
33.6202
0
LINE
8
BLACK
6
CONTINUOUS
10
-35.7077
20
33.6202
11
-35.743
21
33.6014
0
LINE
8
BLACK
6
CONTINUOUS
10
-35.743
20
33.6014
11
-35.7813
21
33.5897
0
LINE
8
BLACK
6
CONTINUOUS
10
-35.7813
20
33.5897
11
-35.8111
21
33.5868
0
LINE
8
BLACK
6
CONTINUOUS
10
-35.8111
20
33.5868
11
-35.8111
21
33.5868
0
LINE
8
BLACK
6
CONTINUOUS
10
-35.8111
20
33.5868
11
-35.8211
21
33.5858
0
LINE
8
BLACK
6
CONTINUOUS
10
-35.8211
20
33.5858
11
-35.8311
21
33.5868
0
LINE
8
BLACK
6
CONTINUOUS
10
-35.8311
20
33.5868
11
-36.9125
21
33.5868
0
LINE
8
BLACK
6
CONTINUOUS
10
-36.9125
20
33.5868
11
-36.9423
21
33.5897
0
LINE
8
BLACK
6
CONTINUOUS
10
-36.9423
20
33.5897
11
-36.9432
21
33.59
0
LINE
8
BLACK
6
CONTINUOUS
10
-36.9432
20
33.59
11
-37.5775
21
33.59
0
LINE
8
BLACK
6
CONTINUOUS
10
-37.5775
20
33.59
11
-37.5775
21
33.99
0
LINE
8
BLACK
6
CONTINUOUS
10
-37.5775
20
33.99
11
-36.9432
21
33.99
0
LINE
8
BLACK
6
CONTINUOUS
10
-36.9432
20
33.99
11
-36.9423
21
33.9903
0
LINE
8
BLACK
6
CONTINUOUS
10
-36.9423
20
33.9903
11
-36.9125
21
33.9932
0
LINE
8
BLACK
6
CONTINUOUS
10
-36.9125
20
33.9932
11
-35.9053
21
33.9932
0
LINE
8
BLACK
6
CONTINUOUS
10
-35.9053
20
33.9932
11
-34.705
21
35.1935
0
LINE
8
BLACK
6
CONTINUOUS
10
-34.705
20
35.1935
11
-34.705
21
35.6
0
LINE
8
BLACK
6
CONTINUOUS
10
-34.705
20
35.6
11
-34.7002
21
35.6488
0
LINE
8
BLACK
6
CONTINUOUS
10
-34.7002
20
35.6488
11
-34.686
21
35.6957
0
LINE
8
BLACK
6
CONTINUOUS
10
-34.686
20
35.6957
11
-34.6629
21
35.7389
0
LINE
8
BLACK
6
CONTINUOUS
10
-34.6629
20
35.7389
11
-34.6318
21
35.7768
0
LINE
8
BLACK
6
CONTINUOUS
10
-34.6318
20
35.7768
11
-34.5939
21
35.8079
0
LINE
8
BLACK
6
CONTINUOUS
10
-34.5939
20
35.8079
11
-34.5507
21
35.831
0
LINE
8
BLACK
6
CONTINUOUS
10
-34.5507
20
35.831
11
-34.5038
21
35.8452
0
LINE
8
BLACK
6
CONTINUOUS
10
-34.5038
20
35.8452
11
-34.455
21
35.85
0
LINE
8
BLACK
6
CONTINUOUS
10
-34.455
20
35.85
11
-33.555
21
35.85
0
LINE
8
BLACK
6
CONTINUOUS
10
-33.555
20
35.85
11
-33.5062
21
35.8452
0
LINE
8
BLACK
6
CONTINUOUS
10
-33.5062
20
35.8452
11
-33.4593
21
35.831
0
LINE
8
BLACK
6
CONTINUOUS
10
-33.4593
20
35.831
11
-33.4161
21
35.8079
0
LINE
8
BLACK
6
CONTINUOUS
10
-33.4161
20
35.8079
11
-33.3782
21
35.7768
0
LINE
8
BLACK
6
CONTINUOUS
10
-33.3782
20
35.7768
11
-33.3471
21
35.7389
0
LINE
8
BLACK
6
CONTINUOUS
10
-33.3471
20
35.7389
11
-33.324
21
35.6957
0
LINE
8
BLACK
6
CONTINUOUS
10
-33.324
20
35.6957
11
-33.312
21
35.656
0
LINE
8
BLACK
6
CONTINUOUS
10
-33.312
20
35.656
11
-32.0485
21
35.656
0
LINE
8
BLACK
6
CONTINUOUS
10
-32.0485
20
35.656
11
-32.0485
21
35.78
0
LINE
8
BLACK
6
CONTINUOUS
10
-32.0485
20
35.78
11
-30.2485
21
35.78
0
LINE
8
BLACK
6
CONTINUOUS
10
-30.2485
20
35.78
11
-30.2485
21
35.7799
0
LINE
8
BLACK
6
CONTINUOUS
10
-30.2485
20
35.7799
11
-29.4015
21
36.3728
0
LINE
8
BLACK
6
CONTINUOUS
10
-29.4015
20
36.3728
11
-29.4015
21
36.38
0
LINE
8
BLACK
6
CONTINUOUS
10
-29.4015
20
36.38
11
-27.5615
21
36.38
0
LINE
8
BLACK
6
CONTINUOUS
10
-27.5615
20
36.38
11
-27.5615
21
36.3719
0
LINE
8
BLACK
6
CONTINUOUS
10
-27.5615
20
36.3719
11
-26.723
21
35.78
0
LINE
8
BLACK
6
CONTINUOUS
10
-26.723
20
35.78
11
-26.723
21
34.78
0
LINE
8
BLACK
6
CONTINUOUS
10
-26.723
20
34.78
11
-27.5615
21
34.1881
0
LINE
8
BLACK
6
CONTINUOUS
10
-27.5615
20
34.1881
11
-27.5615
21
34.18
0
LINE
8
BLACK
6
CONTINUOUS
10
-27.5615
20
34.18
11
-29.4015
21
34.18
0
LINE
8
BLACK
6
CONTINUOUS
10
-29.4015
20
34.18
11
-29.4015
21
34.1872
0
LINE
8
BLACK
6
CONTINUOUS
10
-36.6037
20
35.4852
11
-36.5568
21
35.471
0
LINE
8
BLACK
6
CONTINUOUS
10
-36.5568
20
35.471
11
-36.5136
21
35.4479
0
LINE
8
BLACK
6
CONTINUOUS
10
-36.5136
20
35.4479
11
-36.4757
21
35.4168
0
LINE
8
BLACK
6
CONTINUOUS
10
-36.4757
20
35.4168
11
-36.4446
21
35.3789
0
LINE
8
BLACK
6
CONTINUOUS
10
-36.4446
20
35.3789
11
-36.4215
21
35.3357
0
LINE
8
BLACK
6
CONTINUOUS
10
-36.4215
20
35.3357
11
-36.4073
21
35.2888
0
LINE
8
BLACK
6
CONTINUOUS
10
-36.4073
20
35.2888
11
-36.4025
21
35.24
0
LINE
8
BLACK
6
CONTINUOUS
10
-36.4025
20
35.24
11
-36.4025
21
34.74
0
LINE
8
BLACK
6
CONTINUOUS
10
-36.4025
20
34.74
11
-36.4073
21
34.6912
0
LINE
8
BLACK
6
CONTINUOUS
10
-36.4073
20
34.6912
11
-36.4215
21
34.6443
0
LINE
8
BLACK
6
CONTINUOUS
10
-36.4215
20
34.6443
11
-36.4446
21
34.6011
0
LINE
8
BLACK
6
CONTINUOUS
10
-36.4446
20
34.6011
11
-36.4757
21
34.5632
0
LINE
8
BLACK
6
CONTINUOUS
10
-36.4757
20
34.5632
11
-36.5136
21
34.5321
0
LINE
8
BLACK
6
CONTINUOUS
10
-36.5136
20
34.5321
11
-36.5568
21
34.509
0
LINE
8
BLACK
6
CONTINUOUS
10
-36.5568
20
34.509
11
-36.6037
21
34.4948
0
LINE
8
BLACK
6
CONTINUOUS
10
-36.6037
20
34.4948
11
-36.6525
21
34.49
0
LINE
8
BLACK
6
CONTINUOUS
10
-36.6525
20
34.49
11
-37.1525
21
34.49
0
LINE
8
BLACK
6
CONTINUOUS
10
-37.1525
20
34.49
11
-37.2013
21
34.4948
0
LINE
8
BLACK
6
CONTINUOUS
10
-37.2013
20
34.4948
11
-37.2482
21
34.509
0
LINE
8
BLACK
6
CONTINUOUS
10
-37.2482
20
34.509
11
-37.2914
21
34.5321
0
LINE
8
BLACK
6
CONTINUOUS
10
-37.2914
20
34.5321
11
-37.3293
21
34.5632
0
LINE
8
BLACK
6
CONTINUOUS
10
-37.3293
20
34.5632
11
-37.3604
21
34.6011
0
LINE
8
BLACK
6
CONTINUOUS
10
-37.3604
20
34.6011
11
-37.3835
21
34.6443
0
LINE
8
BLACK
6
CONTINUOUS
10
-37.3835
20
34.6443
11
-37.3977
21
34.6912
0
LINE
8
BLACK
6
CONTINUOUS
10
-37.3977
20
34.6912
11
-37.4025
21
34.74
0
LINE
8
BLACK
6
CONTINUOUS
10
-37.4025
20
34.74
11
-37.4025
21
35.24
0
LINE
8
BLACK
6
CONTINUOUS
10
-37.4025
20
35.24
11
-37.3977
21
35.2888
0
LINE
8
BLACK
6
CONTINUOUS
10
-37.3977
20
35.2888
11
-37.3835
21
35.3357
0
LINE
8
BLACK
6
CONTINUOUS
10
-37.3835
20
35.3357
11
-37.3604
21
35.3789
0
LINE
8
BLACK
6
CONTINUOUS
10
-37.3604
20
35.3789
11
-37.3293
21
35.4168
0
LINE
8
BLACK
6
CONTINUOUS
10
-37.3293
20
35.4168
11
-37.2914
21
35.4479
0
LINE
8
BLACK
6
CONTINUOUS
10
-37.2914
20
35.4479
11
-37.2482
21
35.471
0
LINE
8
BLACK
6
CONTINUOUS
10
-37.2482
20
35.471
11
-37.2013
21
35.4852
0
LINE
8
BLACK
6
CONTINUOUS
10
-37.2013
20
35.4852
11
-37.1525
21
35.49
0
LINE
8
BLACK
6
CONTINUOUS
10
-37.1525
20
35.49
11
-36.6525
21
35.49
0
LINE
8
BLACK
6
CONTINUOUS
10
-36.6525
20
35.49
11
-36.6037
21
35.4852
0
CIRCLE
8
BLACK
10
-33.415
20
33.44
40
0.45
0
CIRCLE
8
BLACK
10
-21.815
20
21.765
40
0.45
0
CIRCLE
8
BLACK
10
-21.815
20
19.815
40
0.45
0
CIRCLE
8
BLACK
10
-33.74
20
31.54
40
0.45
0
CIRCLE
8
BLACK
10
-15.815
20
21.69
40
0.2
0
CIRCLE
8
BLACK
10
-15.815
20
20.415
40
0.2
0
CIRCLE
8
BLACK
10
-13.815
20
20.415
40
0.2
0
CIRCLE
8
BLACK
10
-13.815
20
21.69
40
0.2
  0
ENDSEC
  0
EOF
